<svg id="Capa_1" enable-background="new 0 0 512.38 512.38" height="512" viewBox="0 0 512.38 512.38" width="512" xmlns="http://www.w3.org/2000/svg"><g><g><path d="m498.066 289.68 6.815-4.173-.029-121.291c0-4.43-3.6-8.03-8.03-8.03l-63.411-.005-21.716 9.311-37.256-1.409-1.643-7.895-342.886-.002-12.99 238.902-6.391 38.292s-3.051 13.759-3.057 20.656c0 .26 0 .53.01.8.19 10.026 4.016 19.156 10.203 26.149h477.438l1.423-9.841 8.335-4.453v-142.596l-6.815-3.657z" fill="#b8de9c"/><g><g id="XMLID_186_"><g><path d="m228.561 169.545 10.169 24.973c2.895 7.104 9.725 11.695 17.401 11.695s14.506-4.591 17.402-11.698l10.169-24.972c9.052-3.035 17.558-7.573 25.143-13.355l-105.447-.001c7.586 5.788 16.096 10.322 25.163 13.358z" fill="#a6d786"/><path d="m327.931 87.442c0 33.902-23.64 62.279-55.37 69.688l-12.92 31.728c-1.28 3.141-5.74 3.141-7.02 0l-12.92-31.728c-32.26-7.528-56.16-36.743-55.35-71.403.89-37.98 31.95-68.96 70.04-69.857 40.45-.957 73.54 31.459 73.54 71.572zm-34.84 0c0-20.351-16.55-36.853-36.96-36.853s-36.96 16.502-36.96 36.853 16.55 36.853 36.96 36.853 36.96-16.502 36.96-36.853z" fill="#e5827f"/></g></g><path d="m59.904 471.144c-8.11 0-15.659-2.377-21.999-6.47-7.231-4.668-8.912-14.616-3.495-21.304 3.93-4.852 9.1-9.444 14.591-9.444h25.32c15.561 0 28.22-12.627 28.22-28.148l.014-249.592-72.616-.005-12.99 238.211-6.391 38.181s-3.051 13.719-3.057 20.596c0 .259 0 1.8.01 2.07.42 22.11 18.48 39.9 40.69 39.9h123.32l4.952-4.502h30.093l3.665 4.502h268.41l9.284-23.994h-428.021z" fill="#a6d786"/><g id="XMLID_188_"><g><path d="m504.881 466.691v20.441c0 4.427-3.6 8.007-8.03 8.007h-18.21l-208.17-171.043h-60.24v171.043h-38.71v-171.044h-110.98v-38.588h155.4l156.855-129.319 60.615-.007-156.61 129.326h228.08v38.588h-173.55z" fill="#f8f7f8"/></g></g><g><g fill="#efedee"><path d="m171.521 471.144h38.71v23.994h-38.71z"/><path d="m60.541 285.507h42.006v38.588h-42.006z"/><path d="m478.641 495.138h18.21c4.435 0 8.03-3.595 8.03-8.03v-15.964h-55.442z"/></g></g><path d="m468.65 256.774h-44.568c-3.301 0-5.977-2.676-5.977-5.977v-36.137c0-3.301 2.676-5.977 5.977-5.977h44.568c3.301 0 5.977 2.676 5.977 5.977v36.137c0 3.301-2.676 5.977-5.977 5.977z" fill="#f8f7f8"/></g><circle cx="171.524" cy="205.443" fill="#e5827f" r="16.692"/><path d="m74.321 136.839h-26.12c-22.48 0-40.7 18.177-40.7 40.582l.295 271.304h.51c3.109-19.488 20.296-34.741 40.695-34.741h25.32c4.54 0 8.22-3.679 8.22-8.206v-260.733c0-4.527-3.68-8.206-8.22-8.206z" fill="#b8de9c"/></g><g><path d="m256.131 43.188c-24.517 0-44.462 19.946-44.462 44.462 0 24.517 19.946 44.463 44.462 44.463s44.462-19.946 44.462-44.463c0-24.516-19.946-44.462-44.462-44.462zm0 73.925c-16.246 0-29.462-13.217-29.462-29.463s13.217-29.462 29.462-29.462 29.462 13.217 29.462 29.462c0 16.246-13.217 29.463-29.462 29.463z"/><path d="m234.171 163.847 11.505 28.338c1.736 4.276 5.84 7.039 10.455 7.039s8.719-2.763 10.455-7.039l11.505-28.339c15.605-4.502 29.66-13.841 39.9-26.588 11.247-13.999 17.441-31.616 17.441-49.607 0-12.963-3.216-25.847-9.302-37.258-1.949-3.654-6.491-5.037-10.147-3.088-3.655 1.949-5.038 6.492-3.088 10.147 4.931 9.246 7.537 19.689 7.537 30.199 0 30.016-20.391 55.754-49.587 62.589-2.37.555-4.323 2.226-5.239 4.481l-9.476 23.34-9.476-23.34c-.916-2.255-2.869-3.926-5.239-4.481-29.43-6.89-50.276-33.861-49.569-64.132.385-16.486 7.088-32.059 18.875-43.85 11.787-11.792 27.357-18.5 43.842-18.891 14.364-.339 28.012 3.943 39.53 12.386 3.34 2.448 8.033 1.725 10.483-1.616 2.449-3.341 1.725-8.034-1.616-10.483-14.213-10.418-31.075-15.699-48.753-15.284-20.358.483-39.57 8.751-54.096 23.282-14.525 14.531-22.787 33.746-23.263 54.104-.838 36.002 23.056 68.222 57.323 78.091z"/><path d="m512.38 467.984v-301.972c0-8.564-6.968-15.532-15.532-15.532h-165.518c-4.142 0-7.5 3.358-7.5 7.5s3.358 7.5 7.5 7.5h19.428l-137.512 113.311h-123.206v-53.567c0-4.142-3.358-7.5-7.5-7.5s-7.5 3.358-7.5 7.5v161.589 20.1c0 .398-.324.722-.722.722h-22.57-2.746c-13.19 0-25.183 5.163-34.001 13.546v-243.289c0-18.305 14.893-33.198 33.198-33.198h26.12c.398 0 .722.324.722.722v47.845c0 4.142 3.358 7.5 7.5 7.5s7.5-3.358 7.5-7.5v-27.783h94.29c4.142 0 7.5-3.358 7.5-7.5s-3.358-7.5-7.5-7.5h-94.291v-5.062c0-8.669-7.053-15.722-15.722-15.722h-26.12c-26.576.001-48.198 21.622-48.198 48.198 0 0 .004 278.625.009 278.878.499 26.06 22.116 47.261 48.189 47.261h448.65c8.564 0 15.532-6.968 15.532-15.533v-20.482c0-.01 0-.021 0-.032zm-15-15.881-145.154-119.609h145.154zm-482.374 4.379.008-.647c0-.001 0-.002 0-.003s0-.002 0-.003c.02-18.303 15.267-33.193 33.988-33.193h2.746 22.57c8.669 0 15.722-7.053 15.722-15.722v-20.1-54.32h73.984v156.538h-115.826c-17.959 0-32.849-14.601-33.192-32.55zm202.72 32.55v-156.538h50.053l189.97 156.538zm279.122 0h-15.511l-206.096-169.827c-1.343-1.107-3.029-1.712-4.77-1.712h-60.245c-4.142 0-7.5 3.358-7.5 7.5v164.038h-23.702v-164.037c0-4.142-3.358-7.5-7.5-7.5h-81.484v-23.702h125.898c1.74 0 3.426-.605 4.77-1.712l153.638-126.6h37.272l-139.59 115.024c-2.443 2.013-3.359 5.343-2.29 8.322s3.894 4.966 7.059 4.966h150.331c4.142 0 7.5-3.358 7.5-7.5s-3.358-7.5-7.5-7.5h-129.436l137.512-113.312h61.643c.293 0 .532.239.532.532v112.78h-38.29c-4.142 0-7.5 3.358-7.5 7.5s3.358 7.5 7.5 7.5h38.29v23.702h-166.049c-3.165 0-5.99 1.987-7.059 4.966s-.153 6.309 2.29 8.322l170.819 140.757v16.96c0 .294-.239.533-.532.533z"/><path d="m171.524 250.533c4.142 0 7.5-3.357 7.5-7.5v-14.593c9.678-3.165 16.692-12.274 16.692-22.996 0-13.339-10.853-24.192-24.192-24.192-13.34 0-24.192 10.853-24.192 24.192 0 10.722 7.014 19.832 16.692 22.996v14.593c0 4.142 3.358 7.5 7.5 7.5zm0-54.282c5.068 0 9.192 4.124 9.192 9.192s-4.124 9.192-9.192 9.192c-5.069 0-9.192-4.124-9.192-9.192s4.123-9.192 9.192-9.192z"/><path d="m280.241 442.532c1.464 1.464 3.384 2.197 5.303 2.197s3.839-.732 5.303-2.197l9.458-9.458 10.041 10.041c1.464 1.464 3.384 2.197 5.303 2.197s3.839-.732 5.303-2.197c2.929-2.929 2.929-7.678 0-10.606l-10.041-10.041 10.041-10.041c2.929-2.929 2.929-7.678 0-10.606-2.929-2.929-7.678-2.929-10.606 0l-10.041 10.041-9.458-9.458c-2.929-2.929-7.678-2.929-10.606 0-2.929 2.929-2.929 7.678 0 10.606l9.458 9.458-9.458 9.458c-2.929 2.928-2.929 7.677 0 10.606z"/><path d="m482.126 251.497v-36.277c0-7.431-6.045-13.477-13.477-13.477h-44.568c-7.431 0-13.477 6.045-13.477 13.477v36.277c0 7.431 6.046 13.477 13.477 13.477h44.568c7.432 0 13.477-6.046 13.477-13.477zm-15-1.523h-41.521v-33.23h41.521z"/></g></g></svg>