<svg id="Capa_1" enable-background="new 0 0 513.648 513.648" height="512" viewBox="0 0 513.648 513.648" width="512" xmlns="http://www.w3.org/2000/svg"><g><g><path d="m476.134 137.824h-438.62c-16.58 0-30.01 13.44-30.01 30.01v38.24l38.318 39.37h437.318l23.004-39.37v-38.24c0-16.57-13.43-30.01-30.01-30.01z" fill="#b3e5ee"/><path d="m170.253 195.614h174.141c18.24 0 33.08-14.835 33.08-33.07v-24.72h-240.3v24.72c0 18.235 14.839 33.07 33.079 33.07z" fill="#86d7e5"/><path d="m344.394 16.484h-63.54l-7.709 8.183h-37.356l-2.997-8.183h-62.539c-7.22 0-13.08 5.85-13.08 13.07v132.99c0 7.22 5.86 13.07 13.08 13.07h174.14c7.22 0 13.08-5.85 13.08-13.07v-132.99c.001-7.22-5.859-13.07-13.079-13.07z" fill="#dfae91"/><g><path d="m48.412 137.824h-10.898c-16.58 0-30.01 13.44-30.01 30.01v38.24l38.318 39.37h2.59z" fill="#86d7e5"/><g id="XMLID_187_"><g><path d="m506.144 206.074v261.08c0 16.58-13.43 30.01-30.01 30.01h-438.62c-16.58 0-30.01-13.43-30.01-30.01v-261.08z" fill="#f8f7f8"/></g></g><path d="m78.422 462.778c-16.58 0-30.01-13.43-30.01-30.01v-226.694h-40.908v261.08c0 16.58 13.43 30.01 30.01 30.01h438.62c16.58 0 30.01-13.43 30.01-30.01v-4.376z" fill="#efedee"/><g fill="#e4e1e5"><path d="m123.36 335.39h-36.659c-5.059 0-9.16-4.101-9.16-9.16v-36.66c0-5.059 4.101-9.16 9.16-9.16h36.659c5.059 0 9.16 4.101 9.16 9.16v36.659c0 5.06-4.101 9.161-9.16 9.161z"/><path d="m225.018 335.39h-36.659c-5.059 0-9.16-4.101-9.16-9.16v-36.66c0-5.059 4.101-9.16 9.16-9.16h36.659c5.059 0 9.16 4.101 9.16 9.16v36.659c0 5.06-4.101 9.161-9.16 9.161z"/><path d="m326.675 335.39h-36.659c-5.059 0-9.16-4.101-9.16-9.16v-36.66c0-5.059 4.101-9.16 9.16-9.16h36.659c5.059 0 9.16 4.101 9.16 9.16v36.659c0 5.06-4.101 9.161-9.16 9.161z"/><path d="m428.332 335.39h-36.659c-5.059 0-9.16-4.101-9.16-9.16v-36.66c0-5.059 4.101-9.16 9.16-9.16h36.659c5.059 0 9.16 4.101 9.16 9.16v36.659c0 5.06-4.101 9.161-9.16 9.161z"/><path d="m123.36 430.454h-36.659c-5.059 0-9.16-4.101-9.16-9.16v-36.659c0-5.059 4.101-9.16 9.16-9.16h36.659c5.059 0 9.16 4.101 9.16 9.16v36.659c0 5.059-4.101 9.16-9.16 9.16z"/><path d="m225.018 430.454h-36.659c-5.059 0-9.16-4.101-9.16-9.16v-36.659c0-5.059 4.101-9.16 9.16-9.16h36.659c5.059 0 9.16 4.101 9.16 9.16v36.659c0 5.059-4.101 9.16-9.16 9.16z"/><path d="m326.675 430.454h-36.659c-5.059 0-9.16-4.101-9.16-9.16v-36.659c0-5.059 4.101-9.16 9.16-9.16h36.659c5.059 0 9.16 4.101 9.16 9.16v36.659c0 5.059-4.101 9.16-9.16 9.16z"/><path d="m428.332 430.454h-36.659c-5.059 0-9.16-4.101-9.16-9.16v-36.659c0-5.059 4.101-9.16 9.16-9.16h36.659c5.059 0 9.16 4.101 9.16 9.16v36.659c0 5.059-4.101 9.16-9.16 9.16z"/></g><path d="m193.785 155.883c-7.22 0-13.08-5.85-13.08-13.07v-126.329h-10.452c-7.22 0-13.08 5.85-13.08 13.07v132.99c0 7.22 5.86 13.07 13.08 13.07h174.14c7.22 0 13.08-5.85 13.08-13.07v-6.661z" fill="#d79c7a"/><path d="m187.176 143.606v-45.543c0-1.112.901-2.013 2.013-2.013h136.269c1.112 0 2.013.901 2.013 2.013v45.542c0 1.112-.901 2.013-2.013 2.013h-136.269c-1.112.001-2.013-.901-2.013-2.012z" fill="#f8f7f8"/><path d="m280.855 16.482h-48.063v47.911c0 4.112 4.148 6.928 7.97 5.41l13.913-5.526c1.38-.548 2.918-.548 4.298 0l13.912 5.526c3.822 1.518 7.97-1.298 7.97-5.41z" fill="#fbe88c"/></g></g><g><path d="m476.138 130.329h-88.667c-4.143 0-7.5 3.358-7.5 7.5s3.357 7.5 7.5 7.5h88.667c12.412 0 22.51 10.097 22.51 22.509v30.74h-45.175c-4.143 0-7.5 3.358-7.5 7.5s3.357 7.5 7.5 7.5h45.175v253.58c0 12.412-10.098 22.509-22.51 22.509h-438.629c-12.411-.001-22.509-10.099-22.509-22.51v-48.942c0-4.142-3.358-7.5-7.5-7.5s-7.5 3.358-7.5 7.5v48.942c0 20.683 16.827 37.509 37.509 37.509h438.629c20.683 0 37.51-16.826 37.51-37.509v-299.32c0-20.682-16.827-37.508-37.51-37.508z"/><path d="m7.5 393.752c4.142 0 7.5-3.358 7.5-7.5v-172.675h406.511c4.143 0 7.5-3.358 7.5-7.5s-3.357-7.5-7.5-7.5h-406.511v-30.74c0-12.411 10.098-22.509 22.509-22.509h89.667c4.142 0 7.5-3.358 7.5-7.5s-3.358-7.5-7.5-7.5h-89.667c-20.682.001-37.509 16.827-37.509 37.509v218.415c0 4.143 3.358 7.5 7.5 7.5z"/><path d="m140.021 289.57c0-9.186-7.474-16.66-16.66-16.66h-36.66c-9.186 0-16.66 7.474-16.66 16.66v36.66c0 9.186 7.474 16.66 16.66 16.66h36.66c9.187 0 16.66-7.474 16.66-16.66zm-15 36.66c0 .915-.745 1.66-1.66 1.66h-36.66c-.915 0-1.66-.745-1.66-1.66v-36.66c0-.915.745-1.66 1.66-1.66h36.66c.916 0 1.66.745 1.66 1.66z"/><path d="m241.678 289.57c0-9.186-7.474-16.66-16.66-16.66h-36.66c-9.186 0-16.66 7.474-16.66 16.66v36.66c0 9.186 7.474 16.66 16.66 16.66h36.66c9.187 0 16.66-7.474 16.66-16.66zm-15 36.66c0 .915-.745 1.66-1.66 1.66h-36.66c-.915 0-1.66-.745-1.66-1.66v-36.66c0-.915.745-1.66 1.66-1.66h36.66c.916 0 1.66.745 1.66 1.66z"/><path d="m343.334 289.57c0-9.186-7.474-16.66-16.659-16.66h-36.66c-9.187 0-16.66 7.474-16.66 16.66v36.66c0 9.186 7.474 16.66 16.66 16.66h36.66c9.186 0 16.659-7.474 16.659-16.66zm-15 36.66c0 .915-.744 1.66-1.659 1.66h-36.66c-.915 0-1.66-.745-1.66-1.66v-36.66c0-.915.745-1.66 1.66-1.66h36.66c.915 0 1.659.745 1.659 1.66z"/><path d="m444.992 289.57c0-9.186-7.474-16.66-16.659-16.66h-36.66c-9.186 0-16.659 7.474-16.659 16.66v36.66c0 9.186 7.474 16.66 16.659 16.66h36.66c9.186 0 16.659-7.474 16.659-16.66zm-15 36.66c0 .915-.744 1.66-1.659 1.66h-36.66c-.915 0-1.659-.745-1.659-1.66v-36.66c0-.915.744-1.66 1.659-1.66h36.66c.915 0 1.659.745 1.659 1.66z"/><path d="m123.36 367.974h-36.66c-9.186 0-16.66 7.474-16.66 16.66v36.659c0 9.187 7.474 16.66 16.66 16.66h36.66c9.187 0 16.66-7.474 16.66-16.66v-36.659c.001-9.186-7.473-16.66-16.66-16.66zm1.661 53.319c0 .916-.745 1.66-1.66 1.66h-36.66c-.915 0-1.66-.745-1.66-1.66v-36.659c0-.916.745-1.66 1.66-1.66h36.66c.916 0 1.66.745 1.66 1.66z"/><path d="m225.018 367.974h-36.66c-9.186 0-16.66 7.474-16.66 16.66v36.659c0 9.187 7.474 16.66 16.66 16.66h36.66c9.187 0 16.66-7.474 16.66-16.66v-36.659c0-9.186-7.474-16.66-16.66-16.66zm1.66 53.319c0 .916-.745 1.66-1.66 1.66h-36.66c-.915 0-1.66-.745-1.66-1.66v-36.659c0-.916.745-1.66 1.66-1.66h36.66c.916 0 1.66.745 1.66 1.66z"/><path d="m326.675 367.974h-36.66c-9.187 0-16.66 7.474-16.66 16.66v36.659c0 9.187 7.474 16.66 16.66 16.66h36.66c9.186 0 16.659-7.474 16.659-16.66v-36.659c0-9.186-7.473-16.66-16.659-16.66zm1.659 53.319c0 .916-.744 1.66-1.659 1.66h-36.66c-.915 0-1.66-.745-1.66-1.66v-36.659c0-.916.745-1.66 1.66-1.66h36.66c.915 0 1.659.745 1.659 1.66z"/><path d="m428.333 367.974h-36.66c-9.186 0-16.659 7.474-16.659 16.66v36.659c0 9.187 7.474 16.66 16.659 16.66h36.66c9.186 0 16.659-7.474 16.659-16.66v-36.659c0-9.186-7.474-16.66-16.659-16.66zm1.659 53.319c0 .916-.744 1.66-1.659 1.66h-36.66c-.915 0-1.659-.745-1.659-1.66v-36.659c0-.916.744-1.66 1.659-1.66h36.66c.915 0 1.659.745 1.659 1.66z"/><path d="m170.25 183.119h174.147c11.345 0 20.574-9.229 20.574-20.574v-83.354c0-4.142-3.357-7.5-7.5-7.5s-7.5 3.358-7.5 7.5v83.354c0 3.073-2.501 5.574-5.574 5.574h-174.147c-3.073 0-5.574-2.5-5.574-5.574v-132.988c0-3.074 2.5-5.574 5.574-5.574h55.042v40.411c0 4.419 2.183 8.54 5.84 11.022 2.241 1.521 4.85 2.301 7.479 2.301 1.661 0 3.33-.311 4.919-.942l13.293-5.28 13.293 5.28c4.105 1.632 8.743 1.124 12.398-1.358 3.657-2.482 5.84-6.603 5.84-11.022v-40.413h56.042c3.073 0 5.574 2.5 5.574 5.574v17.672c0 4.142 3.357 7.5 7.5 7.5s7.5-3.358 7.5-7.5v-17.671c0-11.345-9.229-20.574-20.574-20.574h-174.146c-11.344 0-20.574 9.229-20.574 20.574v132.988c0 11.344 9.23 20.574 20.574 20.574zm103.105-159.137v37.938l-11.614-4.614c-3.17-1.259-6.664-1.259-9.834 0l-11.614 4.613v-37.937z"/><path d="m189.189 88.551c-5.245 0-9.513 4.268-9.513 9.513v45.542c0 5.245 4.268 9.513 9.513 9.513h136.27c5.245 0 9.513-4.268 9.513-9.513v-45.543c0-5.245-4.268-9.513-9.513-9.513h-136.27zm130.782 49.568h-125.295v-34.568h125.295z"/></g></g></svg>