<svg id="Capa_1" enable-background="new 0 0 512 512" height="512" viewBox="0 0 512 512" width="512" xmlns="http://www.w3.org/2000/svg"><g><g><path d="m383.921 71.858c0-17.009-13.789-30.797-30.797-30.797h-314.396c-17.009 0-30.797 13.789-30.797 30.797v401.836c0 17.009 13.789 30.797 30.797 30.797h157.518 161.197c14.624 0 26.479-11.855 26.479-26.479z" fill="#b3e5ee"/><path d="m286.294 67.061v-14.387c0-4.069-.701-7.978-1.987-11.613h-176.762c-1.285 3.635-1.987 7.543-1.987 11.613v14.387c0 19.249 15.662 34.911 34.911 34.911h110.914c19.251 0 34.911-15.66 34.911-34.911z" fill="#86d7e5"/><path d="m383.723 481.209c0-.001 0-.002 0-.003.126-1.048.198-2.112.198-3.193v-214.183h-137.386c-26.033 0-47.137 21.104-47.137 47.137v166.407.039c.002 2.087-1.655 3.795-3.742 3.795h-109.908c-17.009 0-30.797-13.789-30.797-30.797v-401.837c0-2.592.324-5.107.927-7.513h-17.15c-17.009 0-30.797 13.789-30.797 30.797v401.836c0 17.009 13.789 30.797 30.797 30.797h318.716c.44 0 .879-.012 1.314-.033.146-.007.29-.021.435-.031" fill="#86d7e5"/><path d="m353.891 78.471c0-4.075-3.303-7.379-7.379-7.379h-301.171c-4.075 0-7.379 3.303-7.379 7.379v388.613c0 4.075 3.303 7.379 7.379 7.379h301.94c3.652 0 6.612-2.96 6.612-6.612v-389.38z" fill="#f8f7f8"/><g fill="#efedee"><path d="m45.341 474.462h21.183c-7.052-5.644-11.574-14.317-11.574-24.052v-379.319h-9.61c-4.075 0-7.379 3.303-7.379 7.379v388.613c0 4.075 3.303 7.379 7.38 7.379z"/><path d="m246.535 263.83c-26.033 0-47.137 21.104-47.137 47.137v163.495h147.882c3.652 0 6.612-2.96 6.612-6.612v-204.02z"/></g><path d="m286.054 71.091h-180.256c2.005 17.357 16.785 30.881 34.671 30.881h110.914c17.886 0 32.666-13.523 34.671-30.881z" fill="#efedee"/><path d="m476.948 283.85h-77.108l-18.816 14.907-43.956 1.167-13.424-16.074h-77.107c-14.975 0-27.117 12.142-27.117 27.117v166.407c0 14.975 12.142 27.117 27.117 27.117h11.792l134.084-23.199 72.754 23.199h11.782c14.975 0 27.117-12.142 27.117-27.117v-166.407c-.001-14.975-12.144-27.117-27.118-27.117z" fill="#dfae91"/><g><path d="m251.383 37.783h-7.752c-1.855 0-3.358-1.504-3.358-3.358v-14.24c0-7.001-5.676-12.677-12.677-12.677h-63.341c-7.001 0-12.677 5.676-12.677 12.677v14.24c0 1.855-1.504 3.358-3.358 3.358h-7.752c-8.224 0-14.891 6.667-14.891 14.891v14.387c0 8.224 6.667 14.891 14.891 14.891h110.913c8.224 0 14.891-6.667 14.891-14.891v-14.387c.002-8.224-6.664-14.891-14.889-14.891z" fill="#f8f7f8"/><g id="XMLID_206_"><g><path d="m399.84 284.851v60.961c0 4.194-4.254 7.067-8.148 5.486l-27.728-11.241c-1.421-.581-3.023-.581-4.444 0l-27.728 11.241c-3.894 1.582-8.148-1.291-8.148-5.486v-60.961-1.001h76.196z" fill="#fbe88c"/></g></g><g fill="#d79c7a"><path d="m275.252 485.917c-13.851 0-25.079-11.228-25.079-25.079v-176.988h-3.637c-14.975 0-27.117 12.142-27.117 27.117v166.407c0 14.975 12.142 27.117 27.117 27.117h11.792l107.357-18.575z"/><path d="m406.914 485.917 58.252 18.575h11.782c11.989 0 22.167-7.786 25.748-18.575z"/></g><g id="XMLID_207_"><g><path d="m465.166 414.261v90.231h-206.838v-90.231c0-5.886 4.765-10.661 10.651-10.661h185.526c5.886 0 10.661 4.775 10.661 10.661z" fill="#f8f7f8"/></g></g><g fill="#e4e1e5"><path d="m122.037 183.715h-22.766c-5.373 0-9.73-4.356-9.73-9.73v-22.765c0-5.373 4.356-9.73 9.73-9.73h22.766c5.373 0 9.73 4.356 9.73 9.73v22.766c-.001 5.373-4.357 9.729-9.73 9.729z"/><path d="m122.037 257.684h-22.766c-5.373 0-9.73-4.356-9.73-9.73v-22.766c0-5.373 4.356-9.73 9.73-9.73h22.766c5.373 0 9.73 4.356 9.73 9.73v22.766c-.001 5.373-4.357 9.73-9.73 9.73z"/><path d="m122.037 331.652h-22.766c-5.373 0-9.73-4.356-9.73-9.73v-22.766c0-5.373 4.356-9.73 9.73-9.73h22.766c5.373 0 9.73 4.356 9.73 9.73v22.766c-.001 5.374-4.357 9.73-9.73 9.73z"/><path d="m122.037 405.619h-22.766c-5.373 0-9.73-4.356-9.73-9.73v-22.766c0-5.373 4.356-9.73 9.73-9.73h22.766c5.373 0 9.73 4.356 9.73 9.73v22.766c-.001 5.375-4.357 9.73-9.73 9.73z"/></g></g><path d="m465.166 504.491v-18.575h-189.914c-6.524 0-12.464-2.492-16.924-6.574v25.148" fill="#efedee"/></g><g><path d="m196.246 496.985h-157.517c-12.842 0-23.29-10.448-23.29-23.29v-306.26c0-4.146-3.36-7.508-7.508-7.508s-7.508 3.361-7.508 7.508v306.26c0 21.121 17.183 38.305 38.305 38.305h157.517c4.147 0 7.508-3.361 7.508-7.508.001-4.145-3.36-7.507-7.507-7.507z"/><path d="m7.931 142.948c4.147 0 7.508-3.361 7.508-7.508v-63.581c0-12.842 10.448-23.29 23.29-23.29h58.341c4.147 0 7.508-3.361 7.508-7.508s-3.36-7.508-7.508-7.508h-58.341c-21.122 0-38.305 17.184-38.305 38.305v63.582c-.001 4.146 3.361 7.508 7.507 7.508z"/><path d="m294.783 48.569h58.342c12.842 0 23.29 10.448 23.29 23.29v181.96c0 4.146 3.36 7.508 7.508 7.508 4.147 0 7.508-3.361 7.508-7.508v-181.96c0-21.121-17.183-38.305-38.305-38.305h-58.342c-4.147 0-7.508 3.361-7.508 7.508s3.36 7.507 7.507 7.507z"/><path d="m95.738 63.584h-57.009c-4.564 0-8.275 3.712-8.275 8.275v401.836c0 4.563 3.712 8.275 8.275 8.275h150.66c4.147 0 7.508-3.361 7.508-7.508 0-4.146-3.36-7.508-7.508-7.508h-143.92v-388.355h50.269c4.147 0 7.508-3.361 7.508-7.508 0-4.146-3.362-7.507-7.508-7.507z"/><path d="m353.891 261.325c4.147 0 7.508-3.361 7.508-7.508v-181.958c0-4.563-3.712-8.275-8.275-8.275h-57.009c-4.147 0-7.508 3.361-7.508 7.508 0 4.146 3.36 7.508 7.508 7.508h50.269v175.219c0 4.146 3.361 7.506 7.507 7.506z"/><path d="m140.469 89.46h110.914c12.35 0 22.399-10.048 22.399-22.398v-14.388c0-12.35-10.048-22.398-22.399-22.398h-3.603v-10.09c.001-11.131-9.053-20.186-20.184-20.186h-63.341c-11.129 0-20.184 9.055-20.184 20.185v10.091h-3.603c-12.35 0-22.398 10.048-22.398 22.398v14.387c.001 12.352 10.049 22.399 22.399 22.399zm-7.383-36.786c0-4.071 3.312-7.383 7.383-7.383h7.752c5.991 0 10.865-4.874 10.865-10.865v-14.24c0-2.851 2.318-5.17 5.169-5.17h63.341c2.851 0 5.169 2.319 5.169 5.17v14.24c0 5.991 4.874 10.865 10.865 10.865h7.752c4.071 0 7.383 3.312 7.383 7.383v14.387c0 4.071-3.312 7.383-7.383 7.383h-110.913c-4.071 0-7.383-3.312-7.383-7.383z"/><path d="m180.173 62.532h31.507c4.147 0 7.508-3.361 7.508-7.508s-3.36-7.508-7.508-7.508h-31.507c-4.147 0-7.508 3.361-7.508 7.508s3.362 7.508 7.508 7.508z"/><path d="m504.069 335.829c4.147 0 7.508-3.361 7.508-7.508v-17.35c0-19.095-15.536-34.63-34.631-34.63h-230.405c-19.094 0-34.63 15.536-34.63 34.63v166.398c0 19.095 15.536 34.631 34.63 34.631h230.405c19.095 0 34.631-15.536 34.631-34.631v-117.052c0-4.146-3.36-7.508-7.508-7.508-4.147 0-7.508 3.361-7.508 7.508v117.053c0 10.816-8.8 19.616-19.616 19.616h-4.275v-82.727c0-10.016-8.149-18.165-18.165-18.165h-128.503c-4.147 0-7.508 3.361-7.508 7.508s3.36 7.508 7.508 7.508h128.503c1.737 0 3.15 1.413 3.15 3.15v82.727h-191.824v-82.727c0-1.737 1.413-3.15 3.15-3.15h25.026c4.147 0 7.508-3.361 7.508-7.508s-3.36-7.508-7.508-7.508h-25.026c-10.017 0-18.165 8.149-18.165 18.165v82.727h-4.275c-10.816 0-19.615-8.8-19.615-19.616v-166.399c0-10.816 8.799-19.615 19.615-19.615h69.596v54.451c0 4.475 2.216 8.64 5.927 11.139 2.253 1.518 4.866 2.294 7.501 2.294 1.705 0 3.418-.325 5.048-.986l27.131-10.999 27.131 10.999c4.147 1.682 8.839 1.192 12.55-1.308 3.711-2.501 5.927-6.665 5.927-11.139v-54.451h69.595c10.816 0 19.616 8.8 19.616 19.615v17.35c-.002 4.147 3.359 7.508 7.506 7.508zm-111.733 7.627-25.546-10.356c-3.254-1.319-6.838-1.319-10.092 0l-25.546 10.355v-52.099h61.183z"/><path d="m434.712 446.427c4.147 0 7.508-3.361 7.508-7.508s-3.36-7.508-7.508-7.508h-107.951c-4.147 0-7.508 3.361-7.508 7.508s3.36 7.508 7.508 7.508z"/><path d="m281.267 471.133c0 4.146 3.36 7.508 7.508 7.508h145.938c4.147 0 7.508-3.361 7.508-7.508 0-4.146-3.36-7.508-7.508-7.508h-145.938c-4.147 0-7.508 3.362-7.508 7.508z"/><path d="m288.775 446.427h11.649c4.147 0 7.508-3.361 7.508-7.508s-3.36-7.508-7.508-7.508h-11.649c-4.147 0-7.508 3.361-7.508 7.508s3.361 7.508 7.508 7.508z"/><path d="m139.274 151.219c0-9.505-7.734-17.237-17.238-17.237h-22.766c-9.505 0-17.237 7.733-17.237 17.237v22.766c0 9.505 7.733 17.237 17.237 17.237h22.766c9.505 0 17.238-7.733 17.238-17.237zm-15.015 22.767c0 1.225-.997 2.222-2.223 2.222h-22.766c-1.225 0-2.222-.997-2.222-2.222v-22.766c0-1.225.997-2.222 2.222-2.222h22.766c1.226 0 2.223.997 2.223 2.222z"/><path d="m165.547 152.998h16.447c4.147 0 7.508-3.361 7.508-7.508s-3.36-7.508-7.508-7.508h-16.447c-4.147 0-7.508 3.361-7.508 7.508s3.362 7.508 7.508 7.508z"/><path d="m310.005 137.983h-98.325c-4.147 0-7.508 3.361-7.508 7.508s3.36 7.508 7.508 7.508h98.326c4.147 0 7.508-3.361 7.508-7.508s-3.363-7.508-7.509-7.508z"/><path d="m310.005 170.429h-142.68c-4.147 0-7.508 3.361-7.508 7.508s3.36 7.508 7.508 7.508h142.679c4.147 0 7.508-3.361 7.508-7.508s-3.361-7.508-7.507-7.508z"/><path d="m139.274 225.187c0-9.505-7.734-17.237-17.238-17.237h-22.766c-9.505 0-17.237 7.733-17.237 17.237v22.766c0 9.505 7.733 17.237 17.237 17.237h22.766c9.505 0 17.238-7.733 17.238-17.237zm-15.015 22.767c0 1.225-.997 2.222-2.223 2.222h-22.766c-1.225 0-2.222-.997-2.222-2.222v-22.766c0-1.225.997-2.222 2.222-2.222h22.766c1.226 0 2.223.997 2.223 2.222z"/><path d="m310.005 211.95h-144.458c-4.147 0-7.508 3.361-7.508 7.508s3.36 7.508 7.508 7.508h144.457c4.147 0 7.508-3.361 7.508-7.508s-3.361-7.508-7.507-7.508z"/><path d="m317.513 251.905c0-4.146-3.36-7.508-7.508-7.508h-142.68c-4.147 0-7.508 3.361-7.508 7.508s3.36 7.508 7.508 7.508h142.679c4.147-.001 7.509-3.362 7.509-7.508z"/><path d="m139.274 299.155c0-9.505-7.734-17.237-17.238-17.237h-22.766c-9.505 0-17.237 7.733-17.237 17.237v22.766c0 9.506 7.733 17.238 17.237 17.238h22.766c9.505 0 17.238-7.733 17.238-17.238zm-15.015 22.766c0 1.226-.997 2.223-2.223 2.223h-22.766c-1.225 0-2.222-.997-2.222-2.223v-22.766c0-1.225.997-2.222 2.222-2.222h22.766c1.226 0 2.223.997 2.223 2.222z"/><path d="m181.994 285.918h-16.447c-4.147 0-7.508 3.361-7.508 7.508 0 4.146 3.36 7.508 7.508 7.508h16.447c4.147 0 7.508-3.361 7.508-7.508-.001-4.147-3.362-7.508-7.508-7.508z"/><path d="m181.994 318.366h-15.669c-4.147 0-7.508 3.361-7.508 7.508 0 4.146 3.36 7.508 7.508 7.508h15.669c4.147 0 7.508-3.361 7.508-7.508-.001-4.147-3.362-7.508-7.508-7.508z"/><path d="m122.036 355.886h-22.766c-9.505 0-17.237 7.733-17.237 17.237v22.766c0 9.505 7.733 17.237 17.237 17.237h22.766c9.505 0 17.238-7.733 17.238-17.237v-22.766c0-9.504-7.734-17.237-17.238-17.237zm2.223 40.003c0 1.225-.997 2.222-2.223 2.222h-22.766c-1.225 0-2.222-.997-2.222-2.222v-22.766c0-1.225.997-2.222 2.222-2.222h22.766c1.226 0 2.223.997 2.223 2.222z"/><path d="m165.547 374.901h16.447c4.147 0 7.508-3.361 7.508-7.508s-3.36-7.508-7.508-7.508h-16.447c-4.147 0-7.508 3.361-7.508 7.508s3.362 7.508 7.508 7.508z"/><path d="m164.322 407.349h17.671c4.147 0 7.508-3.361 7.508-7.508 0-4.146-3.36-7.508-7.508-7.508h-17.671c-4.147 0-7.508 3.361-7.508 7.508s3.362 7.508 7.508 7.508z"/></g></g></svg>