<svg id="Capa_1" enable-background="new 0 0 512.21 512.21" height="512" viewBox="0 0 512.21 512.21" width="512" xmlns="http://www.w3.org/2000/svg"><g><g><path d="m195.875 368.315v99.67l9.867 10.792h96.842l12.751-10.792v-99.67z" fill="#d6d1d6"/><path d="m461.235 87.605h-410.26c-15.1 0-27.35 12.25-27.35 27.35v253.36l40.777 23.107h398.848l25.336-23.107v-253.36c-.001-15.1-12.251-27.35-27.351-27.35z" fill="#b3e5ee"/><g><g id="XMLID_203_"><g><path d="m315.335 368.315h-96.362-23.098v99.67l7.547 8.256 6.726-6.363c5.633-5.33 8.825-12.743 8.825-20.498v-6.006c0-5.362 4.346-9.708 9.708-9.708h86.654z" fill="#c7c0c7"/><path d="m63.5 359.157v-271.36c0-.064.004-.128.005-.192h-12.53c-15.1 0-27.35 12.25-27.35 27.35v253.36l11.497 6.515h33.32c-3.11-4.439-4.942-9.84-4.942-15.673z" fill="#86d7e5"/><path d="m488.585 368.315v18c0 15.11-12.25 27.35-27.35 27.35h-410.26c-15.1 0-27.35-12.24-27.35-27.35v-18z" fill="#e4e1e5"/><path d="m90.85 386.507c-11.889 0-22.006-7.59-25.774-18.192h-41.451v18c0 15.11 12.25 27.35 27.35 27.35h410.26c15.036 0 27.242-12.137 27.345-27.158z" fill="#d6d1d6"/></g></g><g id="XMLID_215_"><g><path d="m336.965 490.805v11.03c0 1.59-1.28 2.88-2.87 2.88h-156.98c-1.59 0-2.87-1.29-2.87-2.88v-11.03c0-.76.3-1.49.84-2.03l20.79-20.79h119.46l20.79 20.79c.54.54.84 1.27.84 2.03z" fill="#e4e1e5"/></g></g><path d="m200.214 496.278c-1.59 0-2.87-1.22-2.87-2.725v-10.435c0-.719.3-1.41.84-1.921l13.965-13.212h-16.273l-20.79 20.79c-.54.54-.84 1.27-.84 2.03v11.03c0 1.59 1.28 2.88 2.87 2.88h156.98c1.59 0 2.87-1.29 2.87-2.88v-5.557z" fill="#d6d1d6"/><g id="XMLID_213_"><g><path d="m265.724 127.079 8.091 10.197c4.402 5.56 10.994 8.749 18.085 8.749 7.092 0 13.684-3.188 18.076-8.736l8.096-10.203c18.196-7.332 32.107-21.775 38.957-39.48h-130.154c6.906 17.628 20.813 32.169 38.849 39.473z" fill="#86d7e5"/><path d="m346.735 62.335c0 24.34-15.85 44.95-37.79 52.12l-10.72 13.51c-3.23 4.08-9.42 4.08-12.65 0l-10.72-13.51c-22.51-7.35-38.62-28.87-37.76-54.03.97-28.36 23.86-51.55 52.21-52.86 31.46-1.46 57.43 23.62 57.43 54.77zm-29.69 0c0-13.88-11.26-25.14-25.14-25.14-13.89 0-25.15 11.26-25.15 25.14 0 13.89 11.26 25.15 25.15 25.15 13.88 0 25.14-11.26 25.14-25.15z" fill="#e5827f"/></g></g><path d="m405.275 337.427h-299.34c-3.079 0-5.575-2.496-5.575-5.575v-108.026c0-3.079 2.496-5.575 5.575-5.575h299.34c3.079 0 5.575 2.496 5.575 5.575v108.026c0 3.079-2.496 5.575-5.575 5.575z" fill="#f8f7f8"/><g fill="#e5827f"><circle cx="125.546" cy="173.925" r="17.651"/><circle cx="208.724" cy="173.925" r="17.651"/><circle cx="291.901" cy="173.925" r="17.651"/><circle cx="375.078" cy="173.925" r="17.651"/></g></g></g><g><path d="m461.234 80.105h-88.329c-4.142 0-7.5 3.358-7.5 7.5s3.358 7.5 7.5 7.5h88.329c10.945 0 19.85 8.905 19.85 19.85v245.857h-383.073c-4.142 0-7.5 3.358-7.5 7.5s3.358 7.5 7.5 7.5h383.073v10.505c0 10.945-8.905 19.85-19.85 19.85h-410.258c-10.945 0-19.85-8.905-19.85-19.85v-10.505h34.922c4.142 0 7.5-3.358 7.5-7.5s-3.358-7.5-7.5-7.5h-34.922v-245.857c0-10.945 8.905-19.85 19.85-19.85h159.91c4.142 0 7.5-3.358 7.5-7.5s-3.358-7.5-7.5-7.5h-159.91c-19.216 0-34.85 15.634-34.85 34.85v271.363c0 19.216 15.634 34.85 34.85 34.85h137.398v43.713l-18.591 18.591c-1.961 1.959-3.041 4.564-3.041 7.335v11.031c0 5.719 4.652 10.371 10.371 10.371h156.982c5.719 0 10.371-4.652 10.371-10.371v-11.031c0-2.771-1.08-5.376-3.038-7.333l-18.593-18.593v-43.713h138.398c19.216 0 34.85-15.634 34.85-34.85v-271.363c.001-19.216-15.633-34.85-34.849-34.85zm-153.398 380.383h-20.216c-4.142 0-7.5 3.358-7.5 7.5s3.358 7.5 7.5 7.5h24.609l17.238 17.238v4.484h-147.724v-4.484l17.238-17.238h62.925c4.142 0 7.5-3.358 7.5-7.5s-3.358-7.5-7.5-7.5h-58.532v-39.32h104.462z"/><path d="m270.334 120.826 9.365 11.801c2.972 3.746 7.42 5.895 12.202 5.895 4.782 0 9.23-2.148 12.203-5.895l9.363-11.799c24.482-9.007 40.771-32.225 40.771-58.49 0-12.128-3.502-23.901-10.127-34.043-2.266-3.468-6.915-4.442-10.381-2.177-3.468 2.265-4.443 6.913-2.177 10.38 5.028 7.697 7.686 16.633 7.686 25.84 0 20.534-13.11 38.616-32.622 44.993-1.398.457-2.631 1.315-3.545 2.467l-10.717 13.505c-.047.06-.173.219-.453.219-.279 0-.405-.159-.453-.219l-10.717-13.505c-.914-1.152-2.147-2.01-3.545-2.467-19.905-6.506-33.309-25.691-32.594-46.654.833-24.455 20.624-44.495 45.054-45.624 7.188-.335 14.164.914 20.734 3.705 3.813 1.618 8.216-.159 9.835-3.971s-.159-8.216-3.971-9.835c-8.656-3.676-17.831-5.318-27.291-4.882-32.185 1.487-58.255 27.885-59.353 60.097-.914 26.819 15.732 51.43 40.733 60.659z"/><path d="m291.901 29.695c-17.999 0-32.643 14.644-32.643 32.643s14.644 32.643 32.643 32.643 32.643-14.644 32.643-32.643-14.644-32.643-32.643-32.643zm0 50.285c-9.728 0-17.643-7.915-17.643-17.643s7.915-17.643 17.643-17.643 17.643 7.915 17.643 17.643-7.915 17.643-17.643 17.643z"/><path d="m184.715 166.425h-35.161c-3.198-10.216-12.751-17.65-24.008-17.65-13.868 0-25.15 11.282-25.15 25.15s11.282 25.151 25.15 25.151c11.257 0 20.81-7.434 24.008-17.651h35.161c3.198 10.217 12.751 17.651 24.008 17.651s20.81-7.434 24.008-17.651h35.161c3.198 10.217 12.751 17.651 24.008 17.651s20.81-7.434 24.008-17.651h35.161c3.198 10.217 12.751 17.651 24.008 17.651 13.868 0 25.151-11.283 25.151-25.151s-11.283-25.15-25.151-25.15c-11.257 0-20.81 7.434-24.008 17.65h-35.161c-3.198-10.216-12.751-17.65-24.008-17.65s-20.81 7.434-24.008 17.65h-35.161c-3.198-10.216-12.751-17.65-24.008-17.65s-20.809 7.433-24.008 17.65zm-59.169 17.65c-5.597 0-10.15-4.554-10.15-10.151s4.553-10.15 10.15-10.15 10.151 4.553 10.151 10.15-4.554 10.151-10.151 10.151zm249.532-20.301c5.597 0 10.151 4.553 10.151 10.15s-4.554 10.151-10.151 10.151-10.15-4.554-10.15-10.151 4.553-10.15 10.15-10.15zm-83.177 0c5.597 0 10.15 4.553 10.15 10.15s-4.553 10.151-10.15 10.151-10.15-4.554-10.15-10.151 4.553-10.15 10.15-10.15zm-73.027 10.151c0 5.597-4.553 10.151-10.15 10.151s-10.151-4.554-10.151-10.151 4.554-10.15 10.151-10.15 10.15 4.552 10.15 10.15z"/><path d="m310.566 252.025c-2.077-3.584-6.666-4.806-10.25-2.729l-14.702 8.52c-6.691-9.038-17.426-14.91-29.509-14.91-20.236 0-36.7 16.464-36.7 36.7s16.463 36.7 36.7 36.7 36.7-16.463 36.7-36.7c0-2.781-.321-5.487-.91-8.093l15.943-9.239c3.583-2.076 4.805-6.666 2.728-10.249zm-54.461 49.28c-11.965 0-21.7-9.734-21.7-21.7s9.734-21.7 21.7-21.7c6.543 0 12.414 2.915 16.396 7.509l-15.322 8.879-1.228-1.4c-2.732-3.114-7.471-3.425-10.584-.693-3.114 2.731-3.424 7.47-.693 10.584l5.293 6.035c1.466 1.672 3.539 2.555 5.642 2.555 1.285 0 2.582-.33 3.757-1.011l18.438-10.684c-.041 11.931-9.758 21.626-21.699 21.626z"/><path d="m354.238 218.25c0-4.142-3.358-7.5-7.5-7.5h-240.803c-7.209 0-13.075 5.866-13.075 13.075v108.026c0 7.209 5.865 13.075 13.075 13.075h299.341c7.209 0 13.075-5.866 13.075-13.075v-108.026c0-7.209-5.865-13.075-13.075-13.075h-26.575c-4.142 0-7.5 3.358-7.5 7.5s3.358 7.5 7.5 7.5h24.649v104.177h-295.49v-104.177h238.878c4.142 0 7.5-3.358 7.5-7.5z"/></g></g></svg>