<svg id="Capa_1" enable-background="new 0 0 512.362 512.362" height="512" viewBox="0 0 512.362 512.362" width="512" xmlns="http://www.w3.org/2000/svg"><g><g><path d="m389.647 352.373 7.228-9.123c30.138-38.042 36.025-89.91 15.179-133.738l-8.598-18.077c-.967-2.034-1.449-4.264-1.408-6.515l.708-38.617c1.114-60.753-47.83-110.601-108.592-110.601-60.763 0-109.706 49.849-108.593 110.601l.708 38.617c.041 2.251-.441 4.482-1.408 6.515l-8.598 18.077c-20.847 43.828-14.96 95.696 15.179 133.738l7.228 9.123 36.229 39.793h122.486z" fill="#b3adb5"/><g><g id="XMLID_221_"><g><path d="m441.92 450.709v43.437c0 4.497-3.646 8.143-8.143 8.143h-279.224c-4.497 0-8.143-3.646-8.143-8.143v-43.437c0-14.66 2.71-28.91 7.75-42.16l16.96-30.29c10.17-13.19 23.17-24.32 38.41-32.4l16.91-8.94 29.67-9.25 38.05 4.72 39.86-8.97 27.87 13.5 16.9 8.94c15.25 8.08 28.24 19.21 38.42 32.4l16.95 30.29c5.04 13.25 7.76 27.5 7.76 42.16z" fill="#f8f7f8"/></g></g></g><path d="m361.89 336.919-27.87-13.5-39.86 8.97-38.05-4.72-29.67 9.25-10.308 5.45-6.602 3.49c-15.24 8.08-28.24 19.21-38.41 32.4l-16.96 30.29c-5.04 13.25-7.75 27.5-7.75 42.16v43.437c0 4.497 3.646 8.143 8.143 8.143h32.323c-.63-1.156-.989-2.482-.989-3.891v-43.437c0-14.66 2.71-28.91 7.75-42.16l16.96-30.29c5.863-7.605 12.673-14.518 20.308-20.559 4.875-3.857 11.57-4.479 17.105-1.648l6.907 3.532c2.925 1.496 6.365 1.604 9.379.297l29.865-12.961 29.865 12.961c3.013 1.308 6.453 1.199 9.377-.296l33.496-17.122c2.101-1.075 3.882-2.567 5.298-4.342z" fill="#efedee"/><path d="m394.372 504.862h-200.419c-4.499 0-8.494-2.875-9.923-7.141l-35.395-105.675c-2.271-6.779 2.774-13.789 9.923-13.789h271.208c7.149 0 12.194 7.009 9.923 13.789l-35.395 105.675c-1.428 4.266-5.424 7.141-9.922 7.141z" fill="#e4e1e5"/><path d="m222.265 480.645c-4.499 0-8.494-2.875-9.923-7.141l-31.902-95.246h-21.881c-7.149 0-12.194 7.009-9.923 13.789l35.395 105.675c1.429 4.266 5.424 7.141 9.923 7.141h200.418c4.499 0 8.494-2.875 9.923-7.141l5.72-17.076h-187.75z" fill="#d6d1d6"/><g><path d="m262.268 217.494h63.79v113.752h-63.79z" fill="#ffd1c2"/><path d="m384.572 206.133c11.375 0 20.596-9.221 20.596-20.596v-15.814c0-11.375-9.221-20.596-20.596-20.596h-50.532v57.005h4.4 46.132z" fill="#d6d1d6"/><path d="m316.102 135.678 30.809-3.606c10.206-1.195 19.169 6.781 19.169 17.056v48.376c0 39.719-32.199 71.918-71.918 71.918-39.719 0-71.918-32.199-71.918-71.918v-30.284c0-14.239 3.892-28.208 11.255-40.396l4.418-7.314c4.42-7.317 14.178-9.242 21.046-4.152l10.706 7.935c13.338 9.886 29.944 14.315 46.433 12.385z" fill="#ffe0d1"/><path d="m232.333 131.267 16.525 12.248c20.587 15.258 46.216 22.094 71.668 19.115l45.554-5.332v-8.17c0-10.276-8.964-18.251-19.169-17.056l-30.809 3.606c-16.49 1.93-33.095-2.499-46.433-12.385l-10.706-7.935c-6.868-5.09-16.626-3.165-21.046 4.152l-4.418 7.314c-.748 1.238-1.45 2.498-2.126 3.771.324.214.645.438.96.672z" fill="#ffd1c2"/><g id="XMLID_218_"><g fill="#f8f7f8"><path d="m363.36 328.689c2.35 2.55 1.62 6.65-1.47 8.23l-33.49 17.12-34.24-14.86v-23.42l39.98-14.15c1.98-.71 4.19-.16 5.62 1.39z"/><path d="m294.16 315.759v23.42l-34.24 14.86-33.48-17.12c-3.09-1.58-3.82-5.68-1.48-8.23l23.61-25.69c1.42-1.55 3.63-2.1 5.61-1.39z"/></g></g><circle cx="370.768" cy="281.013" fill="#d6d1d6" r="13.374"/><path d="m306.696 466.121h-25.067c-12.569 0-22.758-10.189-22.758-22.758 0-12.569 10.189-22.758 22.758-22.758h25.067c12.569 0 22.758 10.189 22.758 22.758 0 12.568-10.189 22.758-22.758 22.758z" fill="#f8f7f8"/><path d="m202.893 116.68-7.425-8.056h-94.426c-16.9 0-30.6-13.7-30.6-30.6v-39.925c0-16.9 13.7-30.6 30.6-30.6h78.367c16.9 0 30.6 13.7 30.6 30.6v75.801c0 3.735-4.585 5.525-7.116 2.78z" fill="#b3e5ee"/></g></g><g><path d="m393.074 123.237c.749 3.527 3.862 5.945 7.33 5.945.516 0 1.039-.053 1.563-.165 4.052-.859 6.64-4.841 5.781-8.893-4.42-20.839-14.54-40.075-29.265-55.628-2.848-3.008-7.595-3.138-10.603-.29s-3.138 7.595-.29 10.603c12.825 13.547 21.637 30.293 25.484 48.428z"/><path d="m240.016 57.65c1.271 0 2.559-.323 3.739-1.003 15.258-8.795 32.689-13.444 50.408-13.444 17.557 0 34.851 4.571 50.013 13.22 3.598 2.052 8.178.799 10.23-2.799s.799-8.178-2.799-10.23c-17.422-9.938-37.286-15.19-57.444-15.19-20.344 0-40.365 5.342-57.899 15.448-3.588 2.069-4.821 6.655-2.752 10.244 1.388 2.407 3.91 3.754 6.504 3.754z"/><path d="m442.11 408.434 4.691-14.006c1.831-5.465.913-11.521-2.454-16.199s-8.818-7.471-14.582-7.471h-8.946c-6.085-7.435-12.916-14.071-20.427-19.87l2.36-2.979c28.43-35.884 36.697-83.217 22.116-126.617-1.32-3.927-5.575-6.04-9.498-4.721-3.926 1.319-6.04 5.571-4.721 9.498 12.958 38.569 5.611 80.635-19.654 112.525l-3.033 3.829c-1.855-1.106-3.742-2.17-5.663-3.187l-10.177-5.387c.48-3.738-.669-7.436-3.24-10.234l-23.603-25.685c-3.009-3.275-7.447-4.705-11.723-3.905v-27.606c19.407-11.138 33.699-30.215 38.373-52.785h11.176v34.449c0 4.9-1.472 9.676-4.156 13.733-2.515-1.076-5.28-1.675-8.184-1.675-11.51 0-20.875 9.364-20.875 20.874s9.364 20.875 20.875 20.875c11.51 0 20.874-9.364 20.874-20.875 0-3.049-.673-5.938-1.853-8.552 5.375-6.964 8.318-15.556 8.318-24.38v-37.933c8.672-4.788 14.561-14.023 14.561-24.611v-15.813c0-15.492-12.604-28.096-28.096-28.096h-12.166c-1.333-4.172-3.762-7.964-7.098-10.932-5.257-4.678-12.278-6.89-19.27-6.074l-30.809 3.606c-14.65 1.715-29.245-2.178-41.095-10.961l-10.707-7.935c-4.967-3.681-11.293-5.107-17.358-3.909-6.065 1.196-11.376 4.917-14.572 10.208l-4.418 7.314c-8.07 13.358-12.335 28.667-12.335 44.274v30.284c0 29.46 16.136 55.206 40.022 68.914v27.606c-4.277-.801-8.714.631-11.723 3.905l-23.603 25.686c-2.571 2.798-3.719 6.496-3.239 10.234l-10.177 5.387c-1.921 1.017-3.808 2.081-5.663 3.187l-3.033-3.829c-13.917-17.566-22.608-38.62-25.136-60.888-2.527-22.267 1.225-44.734 10.851-64.972l8.598-18.077c1.458-3.066 2.196-6.48 2.133-9.874l-.708-38.619c-.027-1.476-.019-3.008.026-4.683.112-4.141-3.154-7.588-7.295-7.699-4.117-.1-7.588 3.154-7.699 7.295-.052 1.905-.061 3.66-.029 5.364l.708 38.618c.02 1.084-.216 2.176-.682 3.156l-8.598 18.077c-10.831 22.771-15.053 48.051-12.209 73.106s12.624 48.746 28.282 68.51l2.36 2.979c-7.511 5.799-14.342 12.435-20.427 19.87h-8.947c-5.764 0-11.215 2.793-14.582 7.472s-4.284 10.734-2.453 16.199l4.691 14.006c-4.851 13.614-7.31 27.821-7.31 42.274v51.582c0 4.142 3.358 7.5 7.5 7.5s7.5-3.358 7.5-7.5v-51.582c0-5.341.39-10.642 1.149-15.885l21.865 65.28c2.456 7.333 9.302 12.26 17.035 12.26h200.418c7.733 0 14.579-4.927 17.035-12.26l21.867-65.287c.759 5.245 1.146 10.549 1.146 15.892v51.582c0 4.142 3.358 7.5 7.5 7.5s7.5-3.358 7.5-7.5v-51.582c.006-14.454-2.453-28.661-7.304-42.275zm-86.274-76.85-27.694 14.162-26.48-11.492v-13.194l33.58-11.887zm14.932-44.697c-3.239 0-5.875-2.635-5.875-5.875 0-3.239 2.635-5.874 5.875-5.874 3.239 0 5.874 2.635 5.874 5.874 0 3.24-2.635 5.875-5.874 5.875zm26.9-117.163v15.813c0 7.221-5.875 13.095-13.096 13.095h-11.02c.005-.377.029-.75.029-1.129v-40.875h10.992c7.22 0 13.095 5.874 13.095 13.096zm-167.923 27.779v-30.283c0-12.873 3.518-25.5 10.174-36.518l4.418-7.314c1.032-1.708 2.679-2.862 4.637-3.248.462-.091.924-.136 1.382-.136 1.482 0 2.916.472 4.141 1.38l10.707 7.935c14.928 11.065 33.315 15.969 51.771 13.809l30.808-3.606c2.781-.328 5.463.52 7.555 2.381 2.091 1.861 3.243 4.427 3.243 7.226v48.375c0 35.52-28.898 64.418-64.418 64.418s-64.418-28.899-64.418-64.419zm64.417 79.418c8.509 0 16.704-1.36 24.395-3.849v26.095l-24.395 8.636-24.395-8.636v-26.095c7.692 2.489 15.886 3.849 24.395 3.849zm-41.079 32.252 33.58 11.887v13.194l-26.48 11.492-27.694-14.162zm-40.04 43.319 13.456-7.123 30.006 15.344c1.07.547 2.241.822 3.415.822 1.015 0 2.032-.206 2.986-.62l23.756-10.31v20.151h-98.792c7.461-7.221 15.878-13.344 25.173-18.264zm184.14 142.847c-.405 1.21-1.535 2.023-2.812 2.023h-200.418c-1.276 0-2.406-.813-2.811-2.023l-35.396-105.676c-.419-1.253.074-2.212.405-2.673.332-.461 1.085-1.233 2.407-1.233h196.228c4.142 0 7.5-3.358 7.5-7.5s-3.358-7.5-7.5-7.5h-53.124v-20.151l23.756 10.31c.954.414 1.971.62 2.986.62 1.173 0 2.345-.275 3.415-.822l30.006-15.344 13.457 7.122c9.297 4.921 17.717 11.042 25.18 18.265h-13.713c-4.142 0-7.5 3.358-7.5 7.5s3.358 7.5 7.5 7.5h43.018c1.322 0 2.075.772 2.407 1.233.332.46.825 1.42.405 2.673z"/><path d="m306.696 413.104h-25.067c-16.684 0-30.258 13.574-30.258 30.258 0 16.685 13.574 30.258 30.258 30.258h25.067c16.685 0 30.258-13.574 30.258-30.258s-13.573-30.258-30.258-30.258zm0 45.517h-25.067c-8.413 0-15.258-6.845-15.258-15.258s6.845-15.258 15.258-15.258h25.067c8.414 0 15.258 6.845 15.258 15.258s-6.844 15.258-15.258 15.258z"/><path d="m197.379 121.763c2.251 2.442 5.333 3.75 8.5 3.75 1.422 0 2.861-.264 4.25-.806 4.483-1.751 7.38-5.993 7.38-10.806v-75.801c0-21.008-17.091-38.1-38.1-38.1h-45.781c-4.142 0-7.5 3.358-7.5 7.5s3.358 7.5 7.5 7.5h45.781c12.737 0 23.1 10.362 23.1 23.1v67.097l-1.526-1.656c-1.42-1.541-3.419-2.417-5.515-2.417h-94.426c-12.737 0-23.1-10.362-23.1-23.1v-39.924c0-12.737 10.362-23.1 23.1-23.1h.624c4.142 0 7.5-3.358 7.5-7.5s-3.358-7.5-7.5-7.5h-.624c-21.008 0-38.1 17.091-38.1 38.1v39.924c0 21.008 17.091 38.1 38.1 38.1h91.139z"/></g></g></svg>