<svg id="Capa_1" enable-background="new 0 0 512.87 512.87" height="512" viewBox="0 0 512.87 512.87" width="512" xmlns="http://www.w3.org/2000/svg"><g><g><g id="XMLID_222_"><g><path d="m283.206 58.127h-154.65l-24.895 29.514 53.894 69.928h145.504l13.155-74.775z" fill="#b3adb5"/><path d="m212.696 58.127v99.442h90.363l13.155-74.775-33.008-24.667z" fill="#a59ca6"/><path d="m355.406 84.227v387.88c0 18.37-14.89 33.26-33.26 33.26h-225.96c-18.37 0-33.26-14.89-33.26-33.26v-380.72c0-18.37 14.89-33.26 33.26-33.26h32.37l8.46 22.38c4.03 10.67 14.24 17.74 25.65 17.74h118.77l1.77-40.12h46.09c14.42 0 26.11 11.69 26.11 26.1z" fill="#b3e5ee"/><g fill="#86d7e5"><path d="m322.825 61.63.154-3.503h-39.773l-.155 3.503z"/><path d="m137.575 468.75c-18.37 0-33.26-14.89-33.26-33.26v-377.363h-8.129c-18.37 0-33.26 14.89-33.26 33.26v380.72c0 18.37 14.89 33.26 33.26 33.26h225.96c18.37 0 33.26-14.89 33.26-33.26v-3.357z"/></g></g></g><g id="XMLID_223_"><circle cx="209.164" cy="275.097" fill="#f8f7f8" r="41.391"/><g><path d="m260.776 275.097c0 22.9-14.92 42.31-35.57 49.06l-10.09 12.71c-3.04 3.83-8.86 3.83-11.91 0l-10.08-12.71c-21.19-6.93-36.35-27.18-35.54-50.86.91-26.69 22.45-48.52 49.13-49.75 29.62-1.37 54.06 22.24 54.06 51.55zm-29.37 0c0-12.28-9.96-22.24-22.24-22.24s-22.24 9.96-22.24 22.24 9.96 22.24 22.24 22.24 22.24-9.96 22.24-22.24z" fill="#e5827f"/></g></g><circle cx="209.164" cy="390.755" fill="#efedee" r="18.424"/><circle cx="126.383" cy="390.755" fill="#e5827f" r="18.424"/><circle cx="291.945" cy="390.755" fill="#efedee" r="18.424"/><path d="m329.296 58.127h-46.09l-1.77 40.12h-68.74v74.071c0 22.756 18.513 41.27 41.27 41.27h101.441v-129.361c-.001-14.41-11.691-26.1-26.111-26.1z" fill="#86d7e5"/><path d="m428.676 7.5h-66.008l-5.483 5.202h-34.737l-2.475-5.202h-66.008c-11.747 0-21.269 9.523-21.269 21.269v143.548c0 11.747 9.523 21.269 21.269 21.269h174.711c11.747 0 21.269-9.523 21.269-21.269v-143.548c0-11.746-9.522-21.269-21.269-21.269z" fill="#dfae91"/><path d="m280.002 171.686c-11.747 0-21.269-9.523-21.269-21.269v-142.917h-4.768c-11.747 0-21.269 9.523-21.269 21.269v143.548c0 11.747 9.523 21.269 21.269 21.269h174.711c11.747 0 21.269-9.523 21.269-21.269v-.631z" fill="#d79c7a"/><path d="m362.668 7.5h-42.695v49.934c0 2.8 2.594 4.878 5.326 4.268l15.069-3.363c.627-.14 1.278-.14 1.905 0l15.069 3.363c2.732.61 5.326-1.469 5.326-4.268z" fill="#fbe88c"/><path d="m401.206 164.248h-119.771c-5.77 0-10.447-4.677-10.447-10.447v-47.894c0-5.77 4.677-10.447 10.447-10.447h119.772c5.77 0 10.447 4.677 10.447 10.447v47.894c-.001 5.77-4.678 10.447-10.448 10.447z" fill="#f8f7f8"/></g><g><path d="m355.403 216.087c-4.143 0-7.5 3.358-7.5 7.5v248.522c0 14.204-11.556 25.76-25.76 25.76h-225.959c-14.204 0-25.76-11.556-25.76-25.76v-52.629c0-4.142-3.358-7.5-7.5-7.5s-7.5 3.358-7.5 7.5v52.629c0 22.475 18.285 40.76 40.76 40.76h225.959c22.475 0 40.76-18.285 40.76-40.76v-248.522c0-4.142-3.357-7.5-7.5-7.5z"/><path d="m62.925 395.018c4.142 0 7.5-3.358 7.5-7.5v-296.131c0-14.204 11.556-25.76 25.76-25.76h27.185l6.626 17.536c5.104 13.505 18.233 22.579 32.67 22.579h40.029c4.142 0 7.5-3.358 7.5-7.5s-3.358-7.5-7.5-7.5h-40.029c-8.236 0-15.727-5.177-18.639-12.881l-4.623-12.234h63.291c4.142 0 7.5-3.358 7.5-7.5s-3.358-7.5-7.5-7.5h-106.511c-22.475 0-40.76 18.285-40.76 40.76v296.131c.001 4.142 3.358 7.5 7.501 7.5z"/><path d="m209.083 332.204-10.087-12.711c-.914-1.152-2.147-2.01-3.545-2.467-18.549-6.062-31.038-23.94-30.373-43.475.188-5.539 1.415-10.925 3.644-16.01 1.663-3.794-.064-8.217-3.858-9.88-3.793-1.664-8.217.064-9.88 3.858-2.996 6.834-4.643 14.075-4.896 21.521-.865 25.391 14.866 48.693 38.508 57.477l8.737 11.011c2.882 3.632 7.194 5.715 11.831 5.715 4.636 0 8.949-2.083 11.831-5.715l8.735-11.009c23.15-8.572 38.545-30.557 38.545-55.42 0-16.307-6.497-31.492-18.294-42.757-11.792-11.259-27.28-17.037-43.611-16.29-9.478.438-18.835 3.232-27.06 8.081-3.568 2.104-4.756 6.701-2.652 10.27 2.103 3.568 6.702 4.756 10.27 2.652 6.127-3.611 13.089-5.693 20.135-6.018 12.2-.564 23.761 3.753 32.56 12.154 8.805 8.407 13.653 19.739 13.653 31.908 0 19.135-12.216 35.984-30.399 41.927-1.398.457-2.631 1.315-3.545 2.467l-10.086 12.711"/><path d="m238.903 275.098c0-16.398-13.341-29.739-29.739-29.739s-29.739 13.341-29.739 29.739 13.341 29.74 29.739 29.74 29.739-13.341 29.739-29.74zm-44.478 0c0-8.127 6.612-14.739 14.739-14.739s14.739 6.612 14.739 14.739-6.612 14.74-14.739 14.74-14.739-6.612-14.739-14.74z"/><path d="m317.87 390.754c0-14.295-11.63-25.924-25.925-25.924-11.688 0-21.59 7.776-24.814 18.424h-33.152c-3.225-10.649-13.127-18.424-24.814-18.424s-21.589 7.776-24.814 18.424h-33.153c-3.225-10.649-13.126-18.424-24.814-18.424-14.295 0-25.924 11.629-25.924 25.924s11.629 25.925 25.924 25.925c11.688 0 21.589-7.776 24.814-18.425h33.153c3.225 10.649 13.126 18.425 24.814 18.425s21.59-7.776 24.814-18.425h33.152c3.225 10.649 13.127 18.425 24.814 18.425 14.295 0 25.925-11.63 25.925-25.925zm-191.487 10.925c-6.024 0-10.924-4.901-10.924-10.925s4.9-10.924 10.924-10.924 10.924 4.9 10.924 10.924-4.901 10.925-10.924 10.925zm82.781 0c-6.024 0-10.924-4.901-10.924-10.925s4.9-10.924 10.924-10.924 10.925 4.9 10.925 10.924-4.901 10.925-10.925 10.925zm82.781 0c-6.024 0-10.925-4.901-10.925-10.925s4.9-10.924 10.925-10.924 10.925 4.9 10.925 10.924-4.901 10.925-10.925 10.925z"/><path d="m126.383 442.809c-4.142 0-7.5 3.358-7.5 7.5s3.358 7.5 7.5 7.5h165.562c4.143 0 7.5-3.358 7.5-7.5s-3.357-7.5-7.5-7.5z"/><path d="m449.945 110.226c4.143 0 7.5-3.358 7.5-7.5v-73.956c0-15.864-12.905-28.77-28.768-28.77h-174.712c-15.864 0-28.77 12.906-28.77 28.77v143.548c0 15.863 12.906 28.769 28.77 28.769h174.711c15.863 0 28.769-12.906 28.769-28.769v-37.629c0-4.142-3.357-7.5-7.5-7.5s-7.5 3.358-7.5 7.5v37.629c0 7.592-6.177 13.769-13.769 13.769h-174.711c-7.593 0-13.77-6.177-13.77-13.769v-143.548c0-7.592 6.177-13.77 13.77-13.77h58.508v42.434c0 3.623 1.621 7 4.448 9.266 2.826 2.265 6.474 3.112 10.012 2.323l14.388-3.211 14.387 3.211c.867.193 1.74.289 2.607.289 2.668 0 5.271-.902 7.404-2.611 2.827-2.266 4.448-5.643 4.448-9.266v-42.435h58.509c7.592 0 13.769 6.177 13.769 13.77v73.957c0 4.141 3.357 7.499 7.5 7.499zm-94.777-56.694-11.261-2.513c-1.695-.378-3.485-.378-5.173 0l-11.261 2.513v-38.532h27.694v38.532z"/><path d="m281.434 87.96c-9.896 0-17.947 8.051-17.947 17.947v47.894c0 9.896 8.051 17.947 17.947 17.947h119.771c9.896 0 17.947-8.051 17.947-17.947v-47.894c0-9.896-8.051-17.947-17.947-17.947zm122.719 17.948v47.894c0 1.625-1.322 2.947-2.947 2.947h-119.772c-1.625 0-2.947-1.322-2.947-2.947v-47.894c0-1.625 1.322-2.947 2.947-2.947h119.771c1.626-.001 2.948 1.322 2.948 2.947z"/></g></g></svg>