<svg id="Capa_1" enable-background="new 0 0 509.604 509.604" height="512" viewBox="0 0 509.604 509.604" width="512" xmlns="http://www.w3.org/2000/svg"><g><g><path d="m272.289 140.701h-140.123v-67.996c0-7.915 6.417-14.332 14.332-14.332h111.459c7.915 0 14.332 6.417 14.332 14.332z" fill="#e5bda7"/><path d="m158.124 91.879c0-7.915 6.417-14.332 14.332-14.332h99.833v-4.842c0-7.915-6.417-14.332-14.332-14.332h-111.459c-7.915 0-14.332 6.417-14.332 14.332v67.996h25.958z" fill="#dfae91"/><g id="XMLID_225_"><g><path d="m202.232 203.05-19.532-14.45h-87.613l-12.845 14.45v69.26l6.116 13.97h98.419l15.455-13.97 11.463-12.527v-46.769z" fill="#dfae91"/><path d="m314.042 129.7h-111.81l-24.104 23.97v34.93l24.104 14.45 6.181 14.867h103.188l10.61-14.867v-65.18c.001-4.51-3.659-8.17-8.169-8.17z" fill="#dfae91"/><g fill="#d79c7a"><path d="m202.232 203.05v69.26l11.463 13.97h98.193l10.324-13.97v-69.26z"/><path d="m109.191 188.6h-14.104l-12.845 14.45v69.26l6.116 13.97h20.833z"/><path d="m202.232 129.7v73.35h-119.99v-65.18c0-4.51 3.66-8.17 8.18-8.17z"/></g></g></g><path d="m202.232 272.31-17.009 13.97v75.017l17.009 16.973h119.98v-105.96z" fill="#dfae91"/><path d="m322.212 378.27v-63.454h-136.989v46.481l17.009 16.973z" fill="#d79c7a"/><path d="m202.232 334.86v43.41h-119.99v-105.96h119.99z" fill="#d79c7a"/><path d="m109.191 129.7h-18.769c-4.52 0-8.18 3.66-8.18 8.17v65.18h26.949z" fill="#d08a61"/><g id="XMLID_224_"><g><path d="m435.622 228.95-4.51-77.67-6.397-12.307h-39.584l-12.519 12.307-4.51 77.67-2.184 23.1 71.831 2.42z" fill="#efedee"/><path d="m437.749 254.47-2.126-25.521-.871-14.998h-38.146c-5.653 0-10.13-4.774-9.768-10.415l4.144-64.563h-5.849l-12.519 12.306-4.51 77.67-2.184 23.1 12.531.422z" fill="#e4e1e5"/><path d="m429.012 115.04 2.1 36.24h-58.5l2.1-36.24c.23-3.89 3.44-6.92 7.34-6.92h39.63c3.89 0 7.11 3.03 7.33 6.92z" fill="#e5827f"/></g></g><path d="m391.993 123.202c.23-3.89 3.44-6.92 7.34-6.92h29.751l-.072-1.242c-.22-3.89-3.44-6.92-7.33-6.92h-39.63c-3.9 0-7.11 3.03-7.34 6.92l-2.1 36.24h17.578z" fill="#de6a66"/><path d="m476.372 242.549c0-7.51-6.088-13.597-13.597-13.597h-126.969c-7.51 0-13.597 6.088-13.597 13.597v140.505h135.947l18.217-41.86v-98.645z" fill="#efedee"/><path d="m460.333 279.859c-6.426 0-12.467 2.503-17.004 7.044l-22.549 22.547c-3.436 3.436-8.096 5.366-12.956 5.366h-43.826c-8.73 0-15.806-7.077-15.806-15.806v-65.542c0-1.586.285-3.101.784-4.516h-13.171c-7.51 0-13.597 6.088-13.597 13.597v140.505h20.377 115.57l18.217-41.86v-61.335z" fill="#e4e1e5"/><path d="m161.296 314.816c-7.111 0-13.932-2.825-18.96-7.854l-20.056-20.056c-2.526-2.528-5.516-4.421-8.779-5.604-2.579-.936-4.311-3.364-4.311-6.108v-2.885h-26.948v105.96h20.965 99.025v-3.879-39.53-20.043h-40.936z" fill="#d08a61"/><path d="m453.94 404.901c15.774-10.287 28.145-25.69 34.531-44.378l13.632-39.892v-17.329c0-1.901-1.541-3.442-3.442-3.442h-36.645c-2.152 0-4.216.855-5.738 2.377l-30.081 30.081c-1.601 1.601-3.772 2.5-6.035 2.5h-274.672c-2.295 0-4.496-.912-6.119-2.534l-29.62-29.62c-1.794-1.794-4.228-2.803-6.766-2.803h-93.901c-.875 0-1.583.709-1.583 1.583v16.362c0 1.871.309 3.73.914 5.501l12.718 37.218c6.386 18.688 18.758 34.091 34.531 44.378l46.722 21.985h321.176z" fill="#b3adb5"/><g><path d="m461.21 386.342c-1.779-.494-3.435-1.362-4.895-2.492l-10.759-8.323c-4.019-3.108-9.029-4.82-14.109-4.82-5.081 0-10.092 1.712-14.11 4.82l-10.068 7.788c-4.932 3.815-11.352 4.877-17.757 2.674-1.4-.482-2.691-1.24-3.862-2.147l-10.75-8.316c-4.019-3.108-9.03-4.82-14.11-4.82s-10.092 1.712-14.111 4.821l-10.066 7.787c-4.933 3.816-11.356 4.878-17.761 2.672-1.4-.482-2.689-1.24-3.86-2.146l-13.805-10.679c-6.509-5.035-15.598-5.035-22.106 0l-13.126 10.153c-4.932 3.815-11.352 4.877-17.757 2.674-1.4-.482-2.691-1.24-3.862-2.147l-10.75-8.316c-4.019-3.108-9.03-4.82-14.11-4.82s-10.092 1.712-14.111 4.821l-10.066 7.787c-4.933 3.816-11.354 4.878-17.76 2.673-1.4-.482-2.69-1.24-3.861-2.146l-10.743-8.31c-4.02-3.111-9.032-4.825-14.115-4.825-5.08 0-10.092 1.712-14.11 4.82l-10.068 7.788c-4.927 3.811-11.336 4.874-17.739 2.681-1.406-.481-2.701-1.242-3.877-2.151l-10.754-8.319c-4.019-3.108-9.03-4.82-14.11-4.82-2.303 0-4.59.355-6.776 1.032-4.555 1.411-9.555-.067-12.736-3.619-7.545-8.425-13.507-18.408-17.323-29.576l-13.22-38.686h-19.557c-.58 0-1.05.47-1.05 1.05v17.767c0 1.294.214 2.579.632 3.804l13 38.043c3.052 8.929 7.482 17.098 12.984 24.327 5.997 7.88 13.27 14.643 21.48 20.008.045.029.091.055.14.078l46.437 21.851c.14.066.293.1.447.1h320.601c.221 0 .437-.07.616-.199l30.103-21.786c7.086-4.622 13.472-10.257 18.947-16.772.667-.794-.106-1.96-1.104-1.679-3.313.934-6.922.908-10.573-.105z" fill="#a59ca6"/><path d="m497.277 393.632-7.114 5.503c-13.772 10.653-33.004 10.653-46.776 0l-10.067-7.788c-1.103-.854-2.644-.854-3.747 0l-10.067 7.788c-13.772 10.653-33.004 10.653-46.776 0l-10.067-7.788c-1.103-.854-2.644-.854-3.747 0l-10.067 7.788c-13.772 10.653-33.004 10.653-46.776 0l-11.941-9.237-11.941 9.237c-13.772 10.653-33.004 10.653-46.776 0l-10.067-7.788c-1.103-.854-2.644-.854-3.748 0l-10.067 7.788c-13.772 10.653-33.004 10.653-46.776 0l-10.067-7.788c-1.103-.854-2.644-.854-3.748 0l-10.067 7.788c-13.772 10.653-33.004 10.653-46.776 0l-10.067-7.788c-1.103-.854-2.644-.854-3.748 0l-10.067 7.788c-13.772 10.653-33.004 10.653-46.776 0l-7.114-5.503c-1.968-1.522-4.827-.12-4.827 2.369v92.726c0 6.447 5.227 11.674 11.674 11.674h471.256c6.447 0 11.674-5.227 11.674-11.674v-92.726c0-2.489-2.859-3.891-4.827-2.369z" fill="#b3e5ee"/><path d="m451.557 63.971h-57.192v-40.989c0-3.468 2.811-6.279 6.279-6.279h50.913c3.862 0 6.387 4.048 4.689 7.517l-6.768 13.82c-.709 1.449-.709 3.144 0 4.592l6.768 13.82c1.698 3.47-.827 7.519-4.689 7.519z" fill="#e5827f"/></g></g><g><path d="m151.856 456.11c-7.862.781-15.619-1.443-21.852-6.263l-10.066-7.788c-3.807-2.943-9.121-2.942-12.926 0l-10.067 7.788c-6.322 4.89-14.191 7.102-22.151 6.233-4.123-.45-7.82 2.522-8.271 6.64s2.522 7.821 6.64 8.271c1.688.185 3.371.276 5.047.276 10.085 0 19.844-3.313 27.913-9.555l7.353-5.688 7.352 5.687c9.277 7.177 20.832 10.487 32.514 9.325 4.122-.41 7.131-4.084 6.721-8.206s-4.082-7.135-8.207-6.72z"/><path d="m293.37 456.11c-7.861.781-15.619-1.443-21.852-6.263l-10.066-7.788c-3.807-2.943-9.121-2.942-12.926 0l-10.067 7.788c-6.322 4.89-14.19 7.102-22.15 6.233-4.124-.45-7.82 2.522-8.271 6.64-.451 4.117 2.521 7.82 6.64 8.271 1.688.185 3.371.276 5.046.276 10.086 0 19.844-3.313 27.913-9.555l7.353-5.688 7.352 5.687c9.277 7.177 20.832 10.487 32.514 9.325 4.122-.41 7.131-4.084 6.721-8.206-.411-4.121-4.077-7.135-8.207-6.72z"/><path d="m434.883 456.11c-7.86.78-15.619-1.442-21.851-6.264l-10.067-7.787c-3.807-2.943-9.121-2.943-12.926 0l-10.066 7.787c-6.322 4.891-14.192 7.104-22.151 6.233-4.117-.45-7.82 2.522-8.271 6.64-.451 4.117 2.521 7.82 6.64 8.271 1.688.185 3.371.276 5.046.276 10.085 0 19.844-3.313 27.914-9.556l7.352-5.687 7.353 5.687c9.276 7.176 20.821 10.487 32.513 9.325 4.122-.41 7.131-4.084 6.721-8.206s-4.087-7.134-8.207-6.719z"/><path d="m495.569 362.948 13.632-39.892c.268-.781.403-1.6.403-2.425v-16.724c0-6.368-5.181-11.548-11.548-11.548h-14.184v-49.81c0-11.633-9.465-21.097-21.098-21.097h-20.072l-.958-16.51c-.24-4.135-3.789-7.294-7.922-7.053-4.135.24-7.293 3.787-7.053 7.922l.908 15.641h-51.626l3.637-62.667h44.353l.874 15.064c.239 4.136 3.77 7.303 7.922 7.053 4.135-.24 7.293-3.787 7.053-7.922l-3.388-58.375c-.455-7.842-6.965-13.985-14.82-13.985h-12.317v-29.149h49.692c4.42 0 8.455-2.239 10.794-5.989s2.574-8.359.63-12.326l-6.276-12.818 6.276-12.817c1.944-3.969 1.709-8.577-.63-12.327s-6.374-5.989-10.794-5.989h-50.913c-7.598 0-13.779 6.181-13.779 13.779v77.636h-12.316c-7.855 0-14.365 6.143-14.82 13.985l-6.201 106.848h-25.221c-2.12 0-4.166.322-6.098.906v-84.486c0-8.641-7.03-15.671-15.671-15.671h-34.248v-49.497c0-12.038-9.794-21.832-21.832-21.832h-62.925c-4.143 0-7.5 3.358-7.5 7.5s3.357 7.5 7.5 7.5h62.925c3.768 0 6.832 3.065 6.832 6.832v49.497h-125.124v-49.497c0-3.767 3.065-6.832 6.833-6.832h16.572c4.143 0 7.5-3.358 7.5-7.5s-3.357-7.5-7.5-7.5h-16.572c-12.039 0-21.833 9.794-21.833 21.832v49.497h-34.248c-8.642 0-15.672 7.03-15.672 15.671v154.486h-61.103c-7.522 0-13.643 6.12-13.643 13.642v13.609c0 1.505.247 2.99.733 4.412l13.302 38.926c4.635 13.565 12.392 25.905 22.469 35.995-4.434-.931-8.71-2.828-12.475-5.74l-11.94-9.237c-3.276-2.533-7.985-1.935-10.521 1.343-2.534 3.276-1.933 7.987 1.344 10.521l11.94 9.237c16.473 12.743 39.481 12.743 55.954 0l7.352-5.687 7.353 5.687c8.237 6.373 18.105 9.558 27.977 9.558 9.869-.001 19.741-3.187 27.977-9.557l7.352-5.687 7.353 5.687c16.472 12.743 39.48 12.744 55.954 0l7.352-5.687 7.353 5.687c16.471 12.743 39.48 12.743 55.953 0l7.353-5.688 7.352 5.687c16.473 12.743 39.481 12.744 55.954 0l7.352-5.687 7.353 5.687c16.471 12.743 39.48 12.743 55.953 0l7.352-5.687 7.353 5.687c3.851 2.979 8.061 5.252 12.459 6.838.003.001.006.002.009.003 14.415 5.195 30.867 2.92 43.486-6.841l11.94-9.237c3.276-2.534 3.878-7.245 1.344-10.521-2.537-3.278-7.248-3.876-10.521-1.343l-11.94 9.237c-3.764 2.912-8.041 4.809-12.475 5.74 10.071-10.09 17.827-22.43 22.463-35.995zm-86.204-338.745h46.038l-5.159 10.537c-1.743 3.557-1.743 7.637-.001 11.191l5.16 10.539h-46.038zm-27.171 91.415h39.343l1.634 28.166h-42.612zm-46.388 120.834h126.969c3.362 0 6.098 2.735 6.098 6.097v49.81h-8.54c-3.086 0-5.986 1.202-8.165 3.383l-30.87 30.869c-.455.456-1.06.706-1.703.706h-89.886v-84.767c-.001-3.363 2.735-6.098 6.097-6.098zm-126.078 90.864v-47.504h104.98v47.504zm104.98-62.504h-104.98v-54.261h104.98zm0-126.94v57.679h-104.98v-58.35h104.31c.37 0 .67.301.67.671zm-224.29-.671h104.31v58.35h-53.305c-4.143 0-7.5 3.358-7.5 7.5s3.357 7.5 7.5 7.5h53.305v54.261h-104.981v-54.261h19.714c4.143 0 7.5-3.358 7.5-7.5s-3.357-7.5-7.5-7.5h-19.714v-57.679c0-.37.301-.671.671-.671zm-.671 142.611h104.981v47.504h-49.716l-31.573-31.573c-2.181-2.182-5.081-3.384-8.167-3.384h-15.525zm348.162 105.603c-3.806-2.943-9.121-2.942-12.925 0l-10.067 7.788c-11.068 8.563-26.529 8.562-37.598 0l-10.067-7.787c-3.807-2.943-9.121-2.943-12.926 0l-10.066 7.787c-11.068 8.561-26.528 8.563-37.599 0l-11.94-9.237c-2.703-2.091-6.477-2.091-9.178 0l-11.941 9.237c-11.068 8.563-26.529 8.562-37.598 0l-10.067-7.787c-3.805-2.943-9.121-2.943-12.926 0l-10.066 7.787c-11.068 8.563-26.53 8.562-37.599 0l-10.065-7.785c-3.804-2.945-9.119-2.947-12.927-.002l-10.067 7.788c-11.067 8.562-26.528 8.564-37.598 0l-10.067-7.787c-3.805-2.943-9.12-2.944-12.925 0l-10.067 7.788c-1.613 1.248-3.328 2.292-5.101 3.176-13.081-9.507-23.063-22.961-28.299-38.281l-13.23-38.715v-12.026h88.841l31.579 31.579c2.182 2.179 5.081 3.379 8.163 3.379h276.011c4.648 0 9.021-1.811 12.31-5.099l29.859-29.859h32.841v12.026l-11.759 34.413h-39.739c-4.143 0-7.5 3.358-7.5 7.5s3.357 7.5 7.5 7.5h33.675c-5.636 10.862-13.771 20.362-23.704 27.581-1.773-.884-3.488-1.928-5.101-3.176z"/><path d="m68.978 320.808c-13.422 0-24.341 10.92-24.341 24.342s10.919 24.341 24.341 24.341 24.342-10.919 24.342-24.341-10.92-24.342-24.342-24.342zm0 33.683c-5.15 0-9.341-4.19-9.341-9.341s4.19-9.342 9.341-9.342 9.342 4.191 9.342 9.342-4.191 9.341-9.342 9.341z"/><path d="m415.82 353.797h-9.668c-4.143 0-7.5 3.358-7.5 7.5s3.357 7.5 7.5 7.5h9.668c4.143 0 7.5-3.358 7.5-7.5s-3.358-7.5-7.5-7.5z"/><path d="m377.772 353.797h-9.668c-4.143 0-7.5 3.358-7.5 7.5s3.357 7.5 7.5 7.5h9.668c4.143 0 7.5-3.358 7.5-7.5s-3.357-7.5-7.5-7.5z"/><path d="m339.724 353.797h-9.668c-4.143 0-7.5 3.358-7.5 7.5s3.357 7.5 7.5 7.5h9.668c4.143 0 7.5-3.358 7.5-7.5s-3.357-7.5-7.5-7.5z"/><path d="m301.677 353.797h-9.668c-4.143 0-7.5 3.358-7.5 7.5s3.357 7.5 7.5 7.5h9.668c4.143 0 7.5-3.358 7.5-7.5s-3.357-7.5-7.5-7.5z"/><path d="m263.629 353.797h-9.668c-4.143 0-7.5 3.358-7.5 7.5s3.357 7.5 7.5 7.5h9.668c4.143 0 7.5-3.358 7.5-7.5s-3.357-7.5-7.5-7.5z"/><path d="m225.582 353.797h-9.668c-4.143 0-7.5 3.358-7.5 7.5s3.357 7.5 7.5 7.5h9.668c4.143 0 7.5-3.358 7.5-7.5s-3.358-7.5-7.5-7.5z"/><path d="m187.534 353.797h-9.668c-4.143 0-7.5 3.358-7.5 7.5s3.357 7.5 7.5 7.5h9.668c4.143 0 7.5-3.358 7.5-7.5s-3.358-7.5-7.5-7.5z"/><path d="m149.486 353.797h-9.668c-4.143 0-7.5 3.358-7.5 7.5s3.357 7.5 7.5 7.5h9.668c4.143 0 7.5-3.358 7.5-7.5s-3.358-7.5-7.5-7.5z"/><path d="m357.295 271.987h7.371c4.143 0 7.5-3.358 7.5-7.5s-3.357-7.5-7.5-7.5h-7.371c-4.143 0-7.5 3.358-7.5 7.5s3.358 7.5 7.5 7.5z"/><path d="m395.035 271.987h7.371c4.143 0 7.5-3.358 7.5-7.5s-3.357-7.5-7.5-7.5h-7.371c-4.143 0-7.5 3.358-7.5 7.5s3.357 7.5 7.5 7.5z"/><path d="m357.295 304.422h7.371c4.143 0 7.5-3.358 7.5-7.5s-3.357-7.5-7.5-7.5h-7.371c-4.143 0-7.5 3.358-7.5 7.5s3.358 7.5 7.5 7.5z"/><path d="m395.035 304.422h7.371c4.143 0 7.5-3.358 7.5-7.5s-3.357-7.5-7.5-7.5h-7.371c-4.143 0-7.5 3.358-7.5 7.5s3.357 7.5 7.5 7.5z"/><path d="m432.774 271.987h7.372c4.143 0 7.5-3.358 7.5-7.5s-3.357-7.5-7.5-7.5h-7.372c-4.143 0-7.5 3.358-7.5 7.5s3.357 7.5 7.5 7.5z"/></g></g></svg>