<svg id="Capa_1" enable-background="new 0 0 512.258 512.258" height="512" viewBox="0 0 512.258 512.258" width="512" xmlns="http://www.w3.org/2000/svg"><g><g><path d="m360.068 7.522h-67.833l-4.986 4.308h-26.545l-3.863-4.308h-67.833c-5.122 0-9.274 4.152-9.274 9.274v171.94h189.607v-171.94c.001-5.122-4.151-9.274-9.273-9.274z" fill="#e5bda7"/><path d="m296.2 124.835v-6.482c0-11.543-9.358-20.901-20.901-20.901h-45.664c-7.529 0-13.632-6.103-13.632-13.632v-76.298h-26.995c-5.122 0-9.274 4.152-9.274 9.274v80.657 91.283h32.482 83.984 73.142v-12.347-39.701h-61.289c-6.546 0-11.853-5.307-11.853-11.853z" fill="#dfae91"/><g fill="#f9de58"><path d="m444.837 420.096h38.202v63.656h-38.202z"/><path d="m237.028 412.096h38.202v74.656h-38.202z"/><path d="m29.219 416.096h38.202v69.656h-38.202z" transform="matrix(-1 0 0 -1 96.641 901.849)"/></g><path d="m275.299 112.453h-71.206s-5.785 4.327-5.737 4.183-27.368.384-27.368 0-2.29-4.183-2.29-4.183h-71.204c-3.259 0-5.901 2.642-5.901 5.901v220.843h189.607v-220.843c0-3.259-2.642-5.901-5.901-5.901z" fill="#d79c7a"/><path d="m233.231 136.688c-11.606 0-21.015 9.409-21.015 21.015v59.334c0 6.079-4.928 11.007-11.007 11.007h-65.798c-6.079 0-11.007-4.928-11.007-11.007v-104.584h-26.91c-3.259 0-5.901 2.642-5.901 5.901v220.843h24.816 95.808 68.983v-14.324-96.829-91.356z" fill="#d08a61"/><path d="m410.808 151.688h-71.091l-7.398 4.537h-25.105l-2.891-4.537h-71.091c-3.322 0-6.015 2.693-6.015 6.015v183.617h189.607v-183.617c-.001-3.322-2.694-6.015-6.016-6.015z" fill="#dfae91"/><g><path d="m320.357 267.279c-6.82 0-12.348-5.528-12.348-12.348v-7.325c0-10.787-8.759-19.562-19.524-19.562h-12.28c-7.85 0-14.214-6.364-14.214-14.214v-62.142h-28.759c-3.322 0-6.015 2.693-6.015 6.015v183.617h28.913 160.695v-8.562-65.479z" fill="#d79c7a"/><path d="m439.05 409.243v-119.853c0-3.927-3.184-7.111-7.111-7.111h-59.79l-5.094 4.757h-23.014l-2.601-4.757h-48.43-58.525v126.964z" fill="#d79c7a"/><path d="m497.071 504.735h-481.885c-4.245 0-7.686-3.441-7.686-7.686v-15.611c0-4.245 3.441-7.686 7.686-7.686h481.885c4.245 0 7.686 3.441 7.686 7.686v15.611c.001 4.245-3.441 7.686-7.686 7.686z" fill="#fbe88c"/><path d="m309.009 363.805v-81.526h-74.524v126.964h66.326c.501-.379.979-.786 1.443-1.208v1.208h136.796v-33.129h-117.733c-6.798 0-12.308-5.511-12.308-12.309z" fill="#d08a61"/><path d="m288.485 243.044h-88.386l-6.337 4.617h-32.74l-3.572-4.617h-88.386c-2.499 0-4.524 2.043-4.524 4.562v145.234c0 2.52 2.026 4.562 4.524 4.562h219.421c2.499 0 4.524-2.043 4.524-4.562v-145.234c0-2.519-2.026-4.562-4.524-4.562z" fill="#e5bda7"/><g fill="#fbe88c"><path d="m200.099 243.044h-42.649v45.569c0 2.588 2.476 4.457 4.965 3.747l15.291-4.36c.698-.199 1.439-.199 2.137 0l15.291 4.36c2.489.71 4.965-1.159 4.965-3.747z"/><path d="m339.717 151.688h-35.394v42.819c0 .231.222.398.444.333l17.155-5.028c.064-.019.131-.019.195 0l17.155 5.028c.222.065.444-.101.444-.333v-42.819z"/><path d="m204.094 112.453h-35.394v42.819c0 .231.222.398.444.333l17.155-5.028c.064-.019.131-.019.195 0l17.155 5.028c.222.065.444-.101.444-.333v-42.819z"/><path d="m292.235 7.522h-35.394v42.819c0 .231.222.398.444.333l17.155-5.028c.064-.019.131-.019.195 0l17.155 5.028c.222.065.444-.101.444-.333v-42.819z"/><path d="m372.149 282.279h-30.71v34.71c0 .912.873 1.571 1.751 1.321l13.228-3.772c.246-.07.507-.07.753 0l13.228 3.772c.878.25 1.751-.409 1.751-1.321v-34.71z"/></g></g><path d="m93.551 364.154v-121.11h-24.487c-2.499 0-4.524 2.043-4.524 4.562v134.901 10.333c0 2.52 2.026 4.562 4.524 4.562h219.421c2.499 0 4.524-2.043 4.524-4.562v-16.727h-187.499c-6.605.001-11.959-5.354-11.959-11.959z" fill="#dfae91"/><path d="m497.071 427.096h-481.885c-4.245 0-7.686-3.441-7.686-7.686v-15.61c0-4.245 3.441-7.686 7.686-7.686h481.885c4.245 0 7.686 3.441 7.686 7.686v15.611c.001 4.244-3.441 7.685-7.686 7.685z" fill="#fbe88c"/></g><path d="m497.071 434.596c8.374 0 15.187-6.812 15.187-15.186v-15.61c0-8.374-6.812-15.187-15.187-15.187h-50.521v-99.223c0-8.057-6.555-14.611-14.611-14.611h-7.616v-117.076c0-7.453-6.062-13.516-13.515-13.516h-33.967v-40.137c0-4.142-3.357-7.5-7.5-7.5s-7.5 3.358-7.5 7.5v40.137h-73.141v-25.834c0-7.389-6.012-13.401-13.4-13.401h-88.065v-88.156c0-.978.796-1.774 1.773-1.774h60.333v35.319c0 2.461 1.177 4.811 3.148 6.285 1.37 1.024 3.036 1.561 4.713 1.561.736 0 1.476-.104 2.192-.315l15.144-4.438 15.13 4.435c2.359.697 4.946.233 6.919-1.241 1.972-1.474 3.148-3.823 3.148-6.285v-35.321h60.333c.978 0 1.773.795 1.773 1.773v55.292c0 4.142 3.357 7.5 7.5 7.5s7.5-3.358 7.5-7.5v-55.291c0-9.249-7.524-16.773-16.773-16.773h-171.06c-9.249 0-16.773 7.525-16.773 16.774v88.157h-74.74c-7.39 0-13.401 6.012-13.401 13.401v117.19h-15.03c-6.63 0-12.024 5.394-12.024 12.024v59.666c0 4.142 3.357 7.5 7.5 7.5s7.5-3.358 7.5-7.5v-56.69h77.91v38.069c0 3.608 1.652 6.924 4.532 9.098 2.013 1.519 4.396 2.307 6.833 2.307 1.051 0 2.111-.146 3.156-.445l14.303-4.078 14.302 4.078c3.469.991 7.111.31 9.99-1.862 2.88-2.173 4.532-5.489 4.532-9.098v-38.069h77.91v138.07h-213.468v-49.417c0-4.142-3.357-7.5-7.5-7.5s-7.5 3.358-7.5 7.5v49.417h-41.853c-8.375-.001-15.187 6.811-15.187 15.185v15.61c0 8.374 6.812 15.186 15.187 15.186h6.532v31.656h-6.532c-8.375.001-15.187 6.813-15.187 15.187v15.611c0 8.374 6.812 15.186 15.187 15.186h481.885c8.374 0 15.187-6.812 15.187-15.186v-15.611c0-8.374-6.812-15.186-15.187-15.186h-6.532v-31.656h6.531zm-212.336-419.574v25.768l-7.995-2.343c-.72-.21-1.46-.315-2.201-.315-.742 0-1.484.105-2.208.317l-7.99 2.342v-25.769zm47.482 144.166v25.769l-7.944-2.329c-1.462-.439-3.01-.442-4.46-.014l-7.99 2.342v-25.769h20.394zm-156.018-39.235h20.395v25.768l-7.995-2.343c-.72-.21-1.46-.315-2.201-.315-.742 0-1.484.105-2.208.317l-7.99 2.342v-25.769zm-77.106 0h62.106v35.319c0 2.461 1.177 4.811 3.148 6.285 1.37 1.024 3.036 1.561 4.713 1.561.736 0 1.476-.104 2.192-.315l15.144-4.438 15.13 4.435c2.36.696 4.946.232 6.919-1.241 1.972-1.474 3.148-3.823 3.148-6.285v-35.319h62.107v24.235h-40.469c-7.452 0-13.515 6.063-13.515 13.515v77.841h-120.623zm93.506 163.885-10.703-3.051c-1.021-.291-2.07-.436-3.12-.436-1.051 0-2.103.146-3.126.437l-10.699 3.05v-33.294h27.648zm42.118-48.294v-76.356h62.105v35.319c0 2.457 1.174 4.803 3.139 6.277 1.966 1.475 4.549 1.943 6.916 1.253l15.143-4.438 15.145 4.439c.718.21 1.457.313 2.192.313 1.683 0 3.349-.538 4.718-1.563 1.968-1.474 3.143-3.822 3.143-6.28v-35.319h62.106v115.591h-108.815v-27.211c0-6.63-5.395-12.024-12.024-12.024h-53.768zm114.222 54.235h15.71v19.093l-5.432-1.549c-.79-.224-1.604-.336-2.419-.336-.817 0-1.637.113-2.438.339l-5.421 1.545zm-333.939 129.631v-15.61c0-.103.084-.187.187-.187h374.913c4.143 0 7.5-3.358 7.5-7.5s-3.357-7.5-7.5-7.5h-89.591v-98.834h33.431v27.21c0 2.769 1.319 5.417 3.53 7.084 1.552 1.171 3.447 1.786 5.359 1.786.811 0 1.625-.111 2.417-.337l11.548-3.292 11.547 3.292c2.662.759 5.57.218 7.78-1.45 2.209-1.667 3.528-4.315 3.528-7.083v-27.21h51.901v98.834h-9.488c-4.143 0-7.5 3.358-7.5 7.5s3.357 7.5 7.5 7.5h75.009c.103 0 .187.083.187.187v15.61c0 .103-.084.186-.187.186h-481.884c-.103 0-.187-.083-.187-.186zm267.729 46.843v-31.656h154.607v31.656zm-207.808 0v-31.656h154.607v31.656zm169.607-31.657h23.201v31.656h-23.201zm-207.809 0h23.202v31.656h-23.202zm460.539 46.843v15.611c0 .103-.084.186-.187.186h-481.884c-.103 0-.187-.083-.187-.186v-15.611c0-.103.084-.186.187-.186h481.885c.102 0 .186.083.186.186zm-21.719-15.186h-23.202v-31.656h23.202z"/></g></svg>