<svg id="Capa_1" enable-background="new 0 0 512.448 512.448" height="512" viewBox="0 0 512.448 512.448" width="512" xmlns="http://www.w3.org/2000/svg"><g><g><path d="m196.493 67.231c0-32.989 26.742-59.731 59.731-59.731 32.989 0 59.731 26.743 59.731 59.731v69.021h-30v-69.021c0-16.394-13.337-29.731-29.731-29.731s-29.731 13.337-29.731 29.731c0 0 1.014 71.89 0 70.876s-30 0-30 0z" fill="#efedee"/><path d="m436.956 484.468v-239.317c0-9.776-7.925-17.702-17.702-17.702h-326.06c-9.776 0-17.702 7.925-17.702 17.702v239.317z" fill="#dfae91"/><g><path d="m129.354 475.287c-9.776 0-17.702-7.925-17.702-17.702v-230.136h-18.458c-9.776 0-17.702 7.925-17.702 17.702v242.096c0 9.776 7.925 17.702 17.702 17.702h132.684l5.888-5.966h46.092l8.714 5.966h132.684c9.776 0 17.702-7.925 17.702-17.702v-11.959h-307.604z" fill="#d79c7a"/><path d="m286.571 504.948h-60.694v-55.615c0-2.511 2.445-4.294 4.836-3.527l24.379 7.825c.736.236 1.528.236 2.264 0l24.379-7.825c2.391-.767 4.836 1.016 4.836 3.527z" fill="#fbe372"/><path d="m374.094 415.063h-235.739c-6.058 0-10.969-4.911-10.969-10.969v-111.914c0-6.058 4.911-10.969 10.969-10.969h235.739c6.058 0 10.969 4.911 10.969 10.969v111.914c-.001 6.058-4.912 10.969-10.969 10.969z" fill="#f8f7f8"/><path d="m360.701 227.449h-208.954c3.695 20.73 21.84 36.523 43.617 36.523h121.722c21.775 0 39.92-15.793 43.615-36.523z" fill="#d79c7a"/><path d="m317.085 243.972h-121.722c-13.43 0-24.317-10.887-24.317-24.317v-94.775c0-13.43 10.887-24.317 24.317-24.317h121.722c13.43 0 24.317 10.887 24.317 24.317v94.774c0 13.43-10.887 24.318-24.317 24.318z" fill="#e5827f"/><path d="m220.81 224.231c-13.43 0-24.317-10.887-24.317-24.317v-94.775c0-1.565.154-3.094.436-4.576h-1.566c-13.43 0-24.317 10.887-24.317 24.317v94.774c0 13.43 10.887 24.317 24.317 24.317h121.722c11.865 0 21.747-8.506 23.888-19.747z" fill="#de6a66"/><circle cx="256.224" cy="172.267" fill="#f8f7f8" r="46.701"/></g><path d="m225.877 475.287h60.694v29.661h-60.694z" fill="#f9de58"/></g><g><path d="m419.254 219.949h-48.42c-4.142 0-7.5 3.358-7.5 7.5s3.358 7.5 7.5 7.5h48.42c5.625 0 10.202 4.577 10.202 10.202v168.514c0 4.142 3.358 7.5 7.5 7.5s7.5-3.358 7.5-7.5v-168.514c.001-13.897-11.305-25.202-25.202-25.202z"/><path d="m436.957 438.126c-4.142 0-7.5 3.358-7.5 7.5v41.62c0 5.625-4.577 10.202-10.202 10.202h-125.184v-48.115c0-3.566-1.72-6.951-4.602-9.052-2.881-2.102-6.628-2.706-10.025-1.616l-23.219 7.452-23.22-7.452c-3.396-1.088-7.144-.486-10.025 1.616-2.882 2.102-4.602 5.486-4.602 9.052v48.115h-125.184c-5.625 0-10.202-4.577-10.202-10.202v-242.095c0-5.625 4.577-10.202 10.202-10.202h48.42c4.142 0 7.5-3.358 7.5-7.5s-3.358-7.5-7.5-7.5h-48.42c-13.896 0-25.202 11.306-25.202 25.202v242.096c0 13.896 11.306 25.202 25.202 25.202h326.061c13.896 0 25.202-11.305 25.202-25.202v-41.62c0-4.143-3.358-7.501-7.5-7.501zm-157.886 59.322h-45.693v-42.91l19.421 6.233c2.24.719 4.608.719 6.849 0l19.423-6.234z"/><path d="m127.386 369.163c-4.142 0-7.5 3.358-7.5 7.5v27.432c0 10.184 8.285 18.468 18.468 18.468h235.739c10.184 0 18.468-8.285 18.468-18.468v-111.915c0-10.184-8.285-18.469-18.468-18.469h-235.739c-10.184 0-18.468 8.285-18.468 18.469v52.521c0 4.142 3.358 7.5 7.5 7.5s7.5-3.358 7.5-7.5v-52.521c0-1.913 1.556-3.469 3.468-3.469h235.739c1.913 0 3.468 1.556 3.468 3.469v111.914c0 1.913-1.556 3.468-3.468 3.468h-235.739c-1.913 0-3.468-1.556-3.468-3.468v-27.432c0-4.141-3.358-7.499-7.5-7.499z"/><path d="m164.413 321.71h7.5c4.142 0 7.5-3.358 7.5-7.5s-3.358-7.5-7.5-7.5h-7.5c-4.142 0-7.5 3.358-7.5 7.5s3.358 7.5 7.5 7.5z"/><path d="m351.518 321.71c4.142 0 7.5-3.358 7.5-7.5s-3.358-7.5-7.5-7.5h-153.552c-4.142 0-7.5 3.358-7.5 7.5s3.358 7.5 7.5 7.5z"/><path d="m164.413 355.637h187.105c4.142 0 7.5-3.358 7.5-7.5s-3.358-7.5-7.5-7.5h-187.105c-4.142 0-7.5 3.358-7.5 7.5s3.358 7.5 7.5 7.5z"/><path d="m164.413 389.564h187.105c4.142 0 7.5-3.358 7.5-7.5s-3.358-7.5-7.5-7.5h-187.105c-4.142 0-7.5 3.358-7.5 7.5s3.358 7.5 7.5 7.5z"/><path d="m195.363 251.471h121.722c17.544 0 31.817-14.273 31.817-31.816v-44.555c0-4.142-3.358-7.5-7.5-7.5s-7.5 3.358-7.5 7.5v44.555c0 9.272-7.544 16.816-16.817 16.816h-121.722c-9.273 0-16.817-7.544-16.817-16.816v-94.775c0-9.273 7.544-16.817 16.817-16.817h121.722c9.273 0 16.817 7.544 16.817 16.817v18.257c0 4.142 3.358 7.5 7.5 7.5s7.5-3.358 7.5-7.5v-18.257c0-15.363-10.945-28.217-25.447-31.176v-26.473c0-37.071-30.16-67.231-67.231-67.231s-67.231 30.16-67.231 67.231v26.473c-14.502 2.959-25.447 15.813-25.447 31.176v94.774c0 17.544 14.273 31.817 31.817 31.817zm83.092-158.408h-44.462v-25.832c0-12.258 9.973-22.231 22.231-22.231s22.231 9.973 22.231 22.231zm-74.462-25.832c0-28.8 23.431-52.231 52.231-52.231s52.231 23.431 52.231 52.231v25.832h-15v-25.832c0-20.529-16.702-37.231-37.231-37.231s-37.231 16.702-37.231 37.231v25.832h-15z"/><path d="m202.023 172.267c0 29.886 24.314 54.201 54.201 54.201s54.201-24.314 54.201-54.201-24.314-54.201-54.201-54.201-54.201 24.315-54.201 54.201zm93.402 0c0 21.615-17.585 39.201-39.201 39.201s-39.201-17.585-39.201-39.201 17.585-39.201 39.201-39.201 39.201 17.586 39.201 39.201z"/><path d="m248.421 172.717c-2.366-3.4-7.04-4.239-10.44-1.874s-4.239 7.04-1.874 10.44l5.955 8.56c1.182 1.699 3.014 2.834 5.062 3.136.365.054.73.081 1.095.081 1.68 0 3.324-.565 4.657-1.621l28.655-22.701c3.247-2.572 3.793-7.29 1.222-10.536-2.573-3.247-7.29-3.793-10.536-1.222l-22.399 17.745z"/></g></g></svg>