<svg id="Capa_1" enable-background="new 0 0 506.938 506.938" height="512" viewBox="0 0 506.938 506.938" width="512" xmlns="http://www.w3.org/2000/svg"><g><g><g id="XMLID_226_"><g><path d="m394.37 30.178v446.64c0 12.49-10.13 22.62-22.62 22.62h-308.8c-12.49 0-22.61-10.13-22.61-22.62v-446.64c0-12.49 10.12-22.62 22.61-22.62h308.8c12.49 0 22.62 10.13 22.62 22.62z" fill="#dfae91"/></g></g><path d="m127.51 460.129c-12.49 0-22.61-10.13-22.61-22.62v-429.951h-41.95c-12.49 0-22.61 10.13-22.61 22.62v446.64c0 12.49 10.12 22.62 22.61 22.62h308.8c12.49 0 22.62-10.13 22.62-22.62v-16.689z" fill="#d79c7a"/><g><path d="m394.37 463.51v-3.381h-2.773z" fill="#d08a61"/></g><circle cx="217.352" cy="287.172" fill="#d79c7a" r="47.175"/><circle cx="217.352" cy="120.628" fill="#d79c7a" r="53.552"/><circle cx="217.352" cy="120.628" fill="#f8f7f8" r="38.552"/><path d="m195.003 117.347c0-15.739 9.431-29.276 22.95-35.266-.203-.003-.398-.005-.601-.005-21.292 0-38.552 17.26-38.552 38.552s17.26 38.552 38.552 38.552c5.553 0 10.843-1.179 15.612-3.292-21.01-.326-37.961-17.453-37.961-38.541z" fill="#efedee"/><circle cx="217.352" cy="287.172" fill="#f8f7f8" r="32.175"/><path d="m200.904 287.172c0-15.057 10.356-27.699 24.324-31.208-2.517-.632-5.162-.967-7.875-.967-17.77 0-32.175 14.405-32.175 32.175s14.405 32.175 32.175 32.175c2.713 0 5.358-.336 7.875-.968-13.969-3.51-24.324-16.151-24.324-31.207z" fill="#efedee"/><path d="m394.37 186.734v-81.754c-.23.006-.458.018-.69.018-13.548 0-24.57-11.026-24.57-24.58s11.022-24.58 24.57-24.58c.231 0 .46.011.69.018v-25.678c0-12.49-10.13-22.62-22.62-22.62h-27.053c-22.647 15.331-37.897 40.897-38.878 69.799-.665 19.519 4.946 38.201 16.227 54.027 9.945 13.953 23.98 24.837 39.882 31.017l11.591 14.608c4.912 6.192 12.262 9.743 20.167 9.743.228.001.455-.012.684-.018z" fill="#d79c7a"/><circle cx="393.683" cy="80.418" fill="#f8f7f8" r="58.158"/><g id="XMLID_227_"><g><path d="m466.6 80.418c0 32.36-21.08 59.77-50.25 69.31l-14.25 17.96c-4.3 5.42-12.53 5.42-16.83 0l-14.25-17.96c-29.94-9.78-51.35-38.4-50.21-71.86 1.28-37.71 31.72-68.55 69.42-70.29 41.84-1.93 76.37 31.42 76.37 72.84zm-33.34 0c0-21.86-17.72-39.58-39.58-39.58-21.85 0-39.57 17.72-39.57 39.58s17.72 39.58 39.57 39.58c21.86 0 39.58-17.72 39.58-39.58z" fill="#e5827f"/></g></g></g><g><path d="m394.242 194.232c-.154.003-.307.008-.46.014l-.099.004c-4.142 0-7.5 3.358-7.5 7.5 0 1.12.246 2.184.686 3.138v129.409c0 4.142 3.358 7.5 7.5 7.5s7.5-3.358 7.5-7.5v-132.566c0-2.011-.808-3.938-2.242-5.348-1.435-1.412-3.413-2.18-5.385-2.151z"/><path d="m394.369 358.76c-4.142 0-7.5 3.358-7.5 7.5v64.025l-19.226-24.088c-7.298-9.143-18.193-14.387-29.891-14.387h-240.8c-11.699 0-22.593 5.244-29.891 14.387l-19.227 24.089v-242.554c0-4.142-3.358-7.5-7.5-7.5s-7.5 3.358-7.5 7.5v289.089c0 16.606 13.511 30.117 30.117 30.117h308.8c16.606 0 30.117-13.51 30.117-30.117v-110.561c.001-4.142-3.356-7.5-7.499-7.5zm-22.617 133.178h-308.8c-8.335 0-15.117-6.781-15.117-15.117v-22.49l30.95-38.777c4.435-5.557 11.057-8.744 18.167-8.744h240.8c7.11 0 13.732 3.187 18.167 8.744l30.95 38.777v22.49c0 8.335-6.781 15.117-15.117 15.117z"/><path d="m217.352 111.128c-4.142 0-7.5 3.358-7.5 7.5v4.034c0 4.142 3.358 7.5 7.5 7.5s7.5-3.358 7.5-7.5v-4.034c0-4.143-3.358-7.5-7.5-7.5z"/><path d="m88.394 333.041h60.461c4.142 0 7.5-3.358 7.5-7.5s-3.358-7.5-7.5-7.5h-60.461c-4.142 0-7.5 3.358-7.5 7.5s3.358 7.5 7.5 7.5z"/><path d="m88.394 365.229h60.461c4.142 0 7.5-3.358 7.5-7.5s-3.358-7.5-7.5-7.5h-60.461c-4.142 0-7.5 3.358-7.5 7.5s3.358 7.5 7.5 7.5z"/><path d="m466.97 47.309c-1.707-3.773-6.15-5.449-9.925-3.741-3.773 1.708-5.449 6.151-3.741 9.925 3.848 8.504 5.798 17.563 5.798 26.926 0 28.378-18.118 53.366-45.083 62.18-1.398.457-2.631 1.315-3.545 2.467l-14.251 17.959c-.847 1.067-1.955 1.227-2.54 1.227s-1.692-.159-2.539-1.227l-14.251-17.959c-.914-1.152-2.147-2.01-3.545-2.467-27.509-8.991-46.032-35.503-45.044-64.472 1.152-33.797 28.503-61.494 62.268-63.054 16.66-.769 32.812 4.738 45.47 15.509 3.154 2.683 7.887 2.302 10.573-.852 2.684-3.155 2.303-7.888-.852-10.573-15.564-13.243-35.403-20.015-55.884-19.07-41.518 1.919-75.15 35.973-76.566 77.528-.423 12.417 1.936 24.46 6.879 35.513h-57.408c-3.593-21.837-22.593-38.552-45.431-38.552s-41.838 16.715-45.431 38.552h-74.97c-7.11 0-13.732-3.187-18.167-8.744l-30.95-38.776v-35.43c0-8.335 6.782-15.117 15.117-15.117h258.279c4.142 0 7.5-3.358 7.5-7.5s-3.358-7.5-7.5-7.5h-258.279c-16.606 0-30.117 13.51-30.117 30.117v125.591c0 4.142 3.358 7.5 7.5 7.5s7.5-3.358 7.5-7.5v-66.116l19.227 24.088c7.297 9.143 18.192 14.387 29.891 14.387h74.969c1.921 11.673 8.245 21.874 17.205 28.848v102.348c-7.073 7.168-11.449 17.005-11.449 27.847 0 21.877 17.798 39.675 39.675 39.675s39.675-17.798 39.675-39.675c0-10.842-4.375-20.678-11.448-27.847v-102.348c8.96-6.974 15.284-17.176 17.205-28.848h66.185c9.442 12.771 22.654 22.623 37.538 27.979l12.888 16.241c3.48 4.387 8.688 6.903 14.289 6.903 5.6 0 10.809-2.516 14.29-6.902l12.886-16.239c31.943-11.447 53.244-41.577 53.244-75.691-.003-11.51-2.402-22.65-7.135-33.11zm-249.618 264.537c-13.606 0-24.675-11.069-24.675-24.675s11.069-24.675 24.675-24.675 24.675 11.069 24.675 24.675-11.069 24.675-24.675 24.675zm13.227-62.074c-4.14-1.468-8.59-2.275-13.227-2.275s-9.087.807-13.226 2.275v-85.037c4.192 1.259 8.63 1.945 13.226 1.945 4.597 0 9.035-.686 13.227-1.945zm-13.227-98.093c-17.122 0-31.052-13.93-31.052-31.052s13.93-31.052 31.052-31.052 31.052 13.93 31.052 31.052-13.93 31.052-31.052 31.052z"/><path d="m393.683 33.34c-25.959 0-47.078 21.119-47.078 47.079 0 25.959 21.119 47.078 47.078 47.078s47.079-21.119 47.079-47.078c0-25.96-21.119-47.079-47.079-47.079zm0 79.157c-17.688 0-32.078-14.39-32.078-32.078s14.39-32.079 32.078-32.079 32.079 14.391 32.079 32.079-14.391 32.078-32.079 32.078z"/></g></g></svg>