<svg id="Capa_1" enable-background="new 0 0 511.56 511.56" height="512" viewBox="0 0 511.56 511.56" width="512" xmlns="http://www.w3.org/2000/svg"><g><g><g><path d="m373.645 263.936-25.1 17.77-95.75 62.59c-5.33 3.48-8.54 9.42-8.54 15.78v66.28c0 9.57-7.67 17.35-17.2 17.53-9.83.18-17.87-8.16-17.87-17.99v-18.24c0-14.98-16.64-23.98-29.18-15.78-2.67 1.74-4.8 4.1-6.27 6.81s-2.27 5.79-2.27 8.97v78.87c0 9.57-7.67 17.35-17.2 17.53-9.83.18-17.87-8.16-17.87-17.99v-30.83c0-14.98-16.64-23.98-29.18-15.78l-24.49 16c-16.21 10.57-37.56-1.78-36.49-21.1l17.67-318.42v-25.88l100.44 7.53s119.5 67.01 121.44 67.78c1.94.78 87.86 98.57 87.86 98.57z" fill="#f8deb6"/></g><g><path d="m285.785 165.366c-1.94-.77-121.44-67.78-121.44-67.78l-61.647-4.622-38.793-2.908v25.88l-17.67 318.42c-1.07 19.32 20.28 31.67 36.49 21.1l15.616-10.202c-2.077-3.693-3.195-8.059-2.93-12.855l15.39-277.324c.593-10.693 10.302-18.586 20.874-16.876 31.843 5.151 62.698 16.1 90.9 32.411l.281.163c47.556 27.588 84.909 68.538 108.019 118.422.482 1.04 1.013 2.047 1.573 3.033l16.096-10.522 25.1-17.77c.001 0-85.919-97.79-87.859-98.57z" fill="#f7d8a4"/><circle cx="224.453" cy="169.151" fill="#e5827f" r="50.207"/><path d="m178.016 150.055c15.386 5.448 30.312 12.315 44.559 20.554l.281.163c14.722 8.54 28.463 18.364 41.109 29.334 6.693-8.53 10.694-19.273 10.694-30.956 0-3.6-.387-7.109-1.107-10.494-15.363-8.531-42.523-23.719-65.918-36.816-13.427 4.774-24.218 15.098-29.618 28.215z" fill="#de6a66"/><path d="m373.645 263.936-25.1 17.77-41.35 27.03-.63-.97c-9.07-13.91-10.17-32.3-1.29-47.65 5.1-8.82 12.71-15.29 21.41-19.02l19.38-8.47c15.34 17.38 27.58 31.31 27.58 31.31z" fill="#e5827f"/><path d="m346.065 232.626-19.38 8.47c-6.102 2.616-11.663 6.585-16.202 11.761 7.677 11.484 14.5 23.618 20.393 36.337.482 1.04 1.013 2.047 1.573 3.033l16.096-10.522 25.1-17.77c0 .001-12.24-13.929-27.58-31.309z" fill="#de6a66"/><g><path d="m51.029 113.069c-6.01-3.475-10.282-9.732-10.921-17.173-1.039-12.106 7.931-22.762 20.037-23.801l.816-.07c67.791-5.818 134.736 9.108 193.624 43.166.13.075.257.149.387.224 58.983 34.217 105.311 85.006 133.975 146.877 5.107 11.024.31 24.102-10.714 29.21-11.023 5.108-24.101.313-29.21-10.714-24.846-53.63-65.003-97.655-116.13-127.314-.109-.063-.226-.131-.335-.194-51.048-29.523-109.069-42.46-167.833-37.416l-.815.07c-4.665.399-9.115-.687-12.881-2.865z" fill="#dfae91"/></g><circle cx="129.314" cy="356.525" fill="#e5827f" r="18.995"/><path d="m116.54 222.395-14.717-8.511c-2.914-1.685-3.91-5.413-2.225-8.327l15.716-27.174c1.685-2.914 5.413-3.91 8.327-2.225l14.717 8.512c2.914 1.685 3.91 5.413 2.225 8.327l-15.716 27.174c-1.685 2.913-5.413 3.909-8.327 2.224z" fill="#fbe372"/><path d="m186.826 308.1-15.685-.012c-3.843-.003-6.956-3.12-6.953-6.963l.015-20.633c.003-3.843 3.12-6.956 6.963-6.953l15.685.012c3.843.003 6.956 3.12 6.953 6.963l-.015 20.633c-.003 3.843-3.12 6.956-6.963 6.953z" fill="#fbe88c"/><g><g id="XMLID_228_"><g><path d="m72.575 249.226c21.74 12.57 29.17 40.4 16.6 62.14-8.06 13.94-22.39 21.99-37.37 22.66l5.01-90.37h.01c5.4.85 10.73 2.67 15.75 5.57z" fill="#de6a66"/></g></g></g><circle cx="333.86" cy="85.913" fill="#f8f7f8" r="79.219"/></g></g><g><path d="m352.131 188.902c-2.601-3.225-7.321-3.731-10.547-1.131-3.225 2.6-3.73 7.322-1.131 10.546 16.517 20.483 30.542 43.067 41.688 67.126 1.629 3.514 1.791 7.452.457 11.088s-4.004 6.536-7.52 8.164c-3.514 1.629-7.45 1.792-11.087.458-3.636-1.333-6.535-4.003-8.164-7.519-25.497-55.035-66.706-100.212-119.158-130.641l-.357-.207c-52.38-30.294-111.938-43.573-172.233-38.396l-.811.07c-2.976.254-5.912-.396-8.485-1.885-4.105-2.373-6.797-6.605-7.202-11.321-.684-7.966 5.24-15.004 13.208-15.688l.814-.07c55.462-4.761 111.386 4.911 161.726 27.971 3.764 1.724 8.216.07 9.942-3.695 1.725-3.766.07-8.217-3.695-9.942-52.69-24.136-111.217-34.26-169.258-29.279l-.814.07c-16.207 1.392-28.26 15.709-26.869 31.916.824 9.594 6.297 18.201 14.639 23.024 2.744 1.586 5.689 2.695 8.738 3.329l-3.344 60.251c-.229 4.136 2.937 7.674 7.073 7.904.142.008.282.012.422.012 3.951 0 7.26-3.09 7.481-7.084l3.389-61.063c37.699-2.475 75.003 2.648 110.168 14.975-1.107 1.516-2.144 3.086-3.089 4.721-12.546 21.692-8.071 49.498 10.642 66.115 1.429 1.269 3.206 1.892 4.977 1.892 2.069 0 4.129-.852 5.611-2.52 2.75-3.097 2.469-7.837-.628-10.588-13.409-11.907-16.612-31.837-7.617-47.39 1.375-2.377 3.018-4.566 4.861-6.582 11.224 4.666 22.197 10.082 32.856 16.247l.314.182c10.852 6.295 21.196 13.256 30.989 20.833-.824 2.556-1.912 5.017-3.263 7.351-6.776 11.716-19.369 18.961-32.921 18.961-.12 0-.239-.003-.361-.001-4.114 0-7.466 3.319-7.499 7.441-.032 4.142 3.299 7.526 7.441 7.559.139.001.279.001.418.001 18.893 0 36.454-10.107 45.906-26.451.915-1.581 1.717-3.214 2.458-4.873 16.302 14.158 30.856 30.144 43.434 47.696-6.942 4.504-12.717 10.569-16.945 17.88-8.99 15.544-9.481 34.18-1.646 49.988l-48.449 31.668c-7.476 4.887-11.939 13.136-11.939 22.066v23.677c0 4.142 3.358 7.5 7.5 7.5s7.5-3.358 7.5-7.5v-23.678c0-3.849 1.924-7.404 5.145-9.511l90.36-59.063c3.143 3.428 7.077 6.082 11.568 7.729 3.312 1.215 6.746 1.819 10.172 1.819 4.226 0 8.438-.92 12.385-2.75 7.15-3.312 12.582-9.21 15.296-16.608 2.714-7.397 2.384-15.409-.928-22.559-11.658-25.169-26.335-48.8-43.618-70.235zm-40.36 74.965c3.078-5.322 7.296-9.723 12.371-12.965 5.659 8.872 10.836 18.102 15.509 27.657l-29.809 19.484c-4.798-10.964-4.204-23.571 1.929-34.176z"/><path d="m116.05 379.461c4.166 2.409 8.722 3.554 13.22 3.554 9.157 0 18.076-4.745 22.98-13.225 7.313-12.647 2.975-28.886-9.671-36.2-6.125-3.543-13.265-4.489-20.103-2.662-6.837 1.827-12.554 6.207-16.097 12.333-7.314 12.646-2.976 28.885 9.671 36.2zm3.314-28.69c1.538-2.658 4.018-4.558 6.984-5.351.988-.264 1.99-.395 2.986-.395 1.994 0 3.963.524 5.735 1.549 5.487 3.173 7.369 10.219 4.196 15.706-3.174 5.487-10.218 7.369-15.706 4.196-5.486-3.173-7.369-10.219-4.195-15.705z"/><path d="m108.822 174.627-15.716 27.174c-3.753 6.489-1.527 14.821 4.962 18.575l14.717 8.511c2.097 1.212 4.425 1.832 6.784 1.832 1.177 0 2.363-.154 3.531-.466 3.508-.938 6.442-3.185 8.259-6.328l15.716-27.174c3.752-6.489 1.526-14.821-4.963-18.574l-14.717-8.512c-6.489-3.754-14.821-1.526-18.573 4.962zm10.256 40.572-12.284-7.104 14.309-24.741 12.284 7.104z"/><path d="m156.703 280.486-.016 20.633c-.006 7.972 6.475 14.463 14.448 14.469l15.685.012h.011c7.967 0 14.452-6.479 14.458-14.448l.015-20.632c.003-3.862-1.498-7.494-4.227-10.227s-6.359-4.239-10.221-4.242l-15.685-.012c-.004 0-.008 0-.011 0-3.858 0-7.486 1.501-10.216 4.227-2.732 2.729-4.238 6.359-4.241 10.22zm15 .554 14.602.011-.015 19.549-14.602-.011z"/><path d="m145.88 140.724c-4.142 0-7.5 3.358-7.5 7.5v5.429c0 4.142 3.358 7.5 7.5 7.5s7.5-3.358 7.5-7.5v-5.429c0-4.142-3.358-7.5-7.5-7.5z"/><path d="m124.172 281.93c1.378 0 2.773-.379 4.021-1.175 3.494-2.225 4.523-6.861 2.298-10.354l-2.857-4.487c-2.225-3.495-6.862-4.523-10.354-2.298-3.494 2.225-4.523 6.861-2.298 10.354l2.857 4.487c1.43 2.246 3.855 3.473 6.333 3.473z"/><path d="m155.842 232.362-6 1.441c-4.027.967-6.508 5.017-5.541 9.044.826 3.439 3.899 5.75 7.286 5.75.58 0 1.169-.068 1.758-.209l6-1.441c4.027-.967 6.508-5.017 5.541-9.044-.967-4.028-5.015-6.51-9.044-5.541z"/><path d="m239.311 271.441c4.142 0 7.5-3.358 7.5-7.5v-6.584c0-4.142-3.358-7.5-7.5-7.5s-7.5 3.358-7.5 7.5v6.584c0 4.142 3.358 7.5 7.5 7.5z"/><path d="m221.311 300.262c-4.142 0-7.5 3.358-7.5 7.5s3.358 7.5 7.5 7.5h6.286c4.142 0 7.5-3.358 7.5-7.5s-3.358-7.5-7.5-7.5z"/><path d="m80.735 353.444c-4.142 0-7.5 3.358-7.5 7.5v7.143c0 4.142 3.358 7.5 7.5 7.5s7.5-3.358 7.5-7.5v-7.143c0-4.142-3.358-7.5-7.5-7.5z"/><path d="m91.204 413.662 5.714 3.714c1.262.821 2.679 1.213 4.081 1.213 2.454 0 4.858-1.203 6.295-3.414 2.258-3.473 1.272-8.118-2.201-10.375l-5.714-3.714c-3.473-2.258-8.119-1.272-10.375 2.201-2.258 3.473-1.273 8.118 2.2 10.375z"/><path d="m354.102 122.484c1.482 1.812 3.637 2.75 5.808 2.75 1.671 0 3.353-.556 4.747-1.696 3.205-2.624 3.677-7.349 1.053-10.554l-24.35-29.748v-36.389c0-4.142-3.357-7.5-7.5-7.5s-7.5 3.358-7.5 7.5v39.067c0 1.732.6 3.41 1.696 4.75z"/><path d="m471.534 34.573h-68.829c-15.681-20.973-40.704-34.573-68.845-34.573-4.143 0-7.5 3.358-7.5 7.5s3.357 7.5 7.5 7.5c39.102 0 70.913 31.812 70.913 70.914s-31.812 70.913-70.913 70.913-70.914-31.812-70.914-70.913c0-18.423 6.901-35.583 19.267-48.631v4.791c0 4.142 3.357 7.5 7.5 7.5s7.5-3.358 7.5-7.5v-20.97c0-2.094-.876-4.093-2.415-5.513s-3.604-2.131-5.69-1.962l-23.116 1.871c-4.129.335-7.205 3.953-6.87 8.082.335 4.127 3.942 7.2 8.081 6.87l1.164-.094c-13.005 15.389-20.42 35.108-20.42 55.556 0 47.373 38.541 85.913 85.914 85.913 30.589 0 57.476-16.081 72.702-40.221h35.734c4.143 0 7.5-3.358 7.5-7.5s-3.357-7.5-7.5-7.5h-28.212c2.805-7.308 4.637-15.089 5.342-23.192h10.563c4.143 0 7.5-3.358 7.5-7.5s-3.357-7.5-7.5-7.5h-10.563c-.889-10.228-3.572-19.947-7.742-28.841h59.85c4.143 0 7.5-3.358 7.5-7.5s-3.359-7.5-7.501-7.5z"/><path d="m463.482 78.414h-6.893c-4.143 0-7.5 3.358-7.5 7.5s3.357 7.5 7.5 7.5h6.893c4.143 0 7.5-3.358 7.5-7.5s-3.358-7.5-7.5-7.5z"/><path d="m244.253 408.22c-4.142 0-7.5 3.358-7.5 7.5v10.635c0 5.43-4.414 9.931-9.839 10.032-2.578.044-5.065-.971-7-2.869-2.052-2.014-3.229-4.792-3.229-7.623v-18.235c0-9.837-5.166-18.505-13.818-23.186-8.65-4.681-18.733-4.262-26.967 1.119-7.476 4.886-11.939 13.135-11.939 22.067v78.865c0 5.43-4.414 9.931-9.839 10.033-2.592.036-5.066-.972-7-2.87-2.052-2.014-3.229-4.792-3.229-7.622v-30.825c0-9.837-5.166-18.505-13.818-23.187-8.651-4.681-18.734-4.263-26.968 1.12l-24.476 15.999c-5.197 3.388-11.506 3.556-16.875.449-5.37-3.105-8.371-8.658-8.027-14.852l5.216-93.994c15.372-2.672 28.787-11.934 36.723-25.655 14.625-25.29 5.95-57.763-19.339-72.388-3.698-2.139-7.605-3.801-11.666-4.986l1.213-21.862c.229-4.136-2.937-7.674-7.073-7.904-4.134-.228-7.674 2.937-7.904 7.073l-12.148 218.886c-.654 11.777 5.283 22.762 15.494 28.667 10.21 5.906 22.692 5.573 32.583-.873l24.485-16.004c3.548-2.319 7.895-2.5 11.624-.483 3.729 2.018 5.956 5.753 5.956 9.994v30.825c0 6.831 2.814 13.511 7.721 18.327 4.72 4.632 10.855 7.167 17.325 7.166.154 0 .309-.001.463-.004 13.542-.254 24.558-11.482 24.558-25.03v-78.865c0-3.85 1.923-7.405 5.146-9.511 3.549-2.319 7.895-2.499 11.623-.482 3.729 2.018 5.956 5.753 5.956 9.993v18.235c0 6.831 2.814 13.512 7.722 18.328 4.832 4.743 11.161 7.29 17.788 7.161 13.542-.253 24.559-11.481 24.559-25.029v-10.635c-.001-4.142-3.359-7.5-7.501-7.5zm-175.436-152.501c18.129 10.484 24.349 33.764 13.864 51.894-5.083 8.789-13.314 15.01-22.875 17.605l3.991-71.925c1.723.682 3.4 1.488 5.02 2.426z"/></g></g></svg>