<svg id="Capa_1" enable-background="new 0 0 514.125 514.125" height="512" viewBox="0 0 514.125 514.125" width="512" xmlns="http://www.w3.org/2000/svg"><g><g><path d="m22.691 409.683v59.015c0 10.161 8.231 18.4 18.391 18.406 86.658.058 450.056.283 450.352-.013.336-.336 0-77.409 0-77.409v-151.92-27.005c0-10.166-8.241-18.406-18.406-18.406h-431.931c-10.166 0-18.406 8.241-18.406 18.406z" fill="#fcf0b6"/><path d="m22.691 212.35v256.348c0 10.161 8.231 18.4 18.391 18.406 8.72.006 20.246.013 33.918.022-.498-1.67-.774-3.436-.774-5.268v-189.172c0-8.018 6.725-14.247 14.737-13.955.574.021 1.15.031 1.729.031 7.03 0 13.822-1.513 20.01-4.377 4.95-2.291 10.597-2.263 15.55.022 6.057 2.793 12.794 4.355 19.89 4.355 7.028 0 13.821-1.513 20.013-4.38 4.951-2.292 10.599-2.262 15.553.023 6.058 2.794 12.795 4.357 19.893 4.357 7.028 0 13.821-1.513 20.013-4.38 4.951-2.292 10.599-2.262 15.553.023 6.058 2.794 12.795 4.357 19.893 4.357 7.027 0 13.818-1.513 20.011-4.38 4.951-2.293 10.599-2.262 15.554.023 6.058 2.795 12.796 4.357 19.895 4.357 7.027 0 13.818-1.513 20.011-4.38 4.951-2.293 10.599-2.262 15.554.023 6.058 2.795 12.796 4.357 19.895 4.357 7.027 0 13.818-1.513 20.011-4.38 4.95-2.292 10.597-2.261 15.55.024 6.057 2.794 12.792 4.357 19.889 4.357 6.936 0 13.642-1.474 19.768-4.268 5.079-2.316 10.844-2.316 15.923 0 6.126 2.793 12.833 4.268 19.769 4.268 4.34 0 8.542-.593 12.542-1.684v-19.316-45.412z" fill="#fbe372"/><path d="m304.628 487.093h-95.131v-65.019c0-26.27 21.296-47.565 47.565-47.565 26.27 0 47.565 21.296 47.565 47.565v65.019z" fill="#e5bda7"/><path d="m269.361 376.109c-3.923-1.047-8.046-1.601-12.299-1.601-26.27 0-47.566 21.296-47.566 47.565v65.019h24.589v-65.019c.001-22.016 14.968-40.544 35.276-45.964z" fill="#dfae91"/><path d="m458.282 117.102-37.742-9.139h-329.852l-34.166 9.139-24.51 44.5 50.779 28.062h375.491l24.171-28.062z" fill="#f8f7f8"/><path d="m22.691 194.708-14.689 10.964c-.33 1.05-.5 2.14-.5 3.25v22.11c0 7.66 3.1 14.59 8.12 19.61s11.95 8.12 19.61 8.12c15.31 0 27.73-12.41 27.73-27.73v-24.93-13.843z" fill="#e5827f"/><path d="m118.412 198.102v32.93c0 7.66-3.1 14.59-8.12 19.61-5.01 5.02-11.95 8.12-19.6 8.12-15.32 0-27.73-12.41-27.73-27.73v-32.93z" fill="#f8f7f8"/><path d="m173.872 200.102v30.93c0 7.66-3.1 14.59-8.12 19.61s-11.95 8.12-19.61 8.12c-15.31 0-27.73-12.41-27.73-27.73v-30.93z" fill="#e5827f"/><path d="m229.333 200.102v30.93c0 7.66-3.1 14.59-8.12 19.61s-11.95 8.12-19.61 8.12c-15.31 0-27.73-12.41-27.73-27.73v-30.93z" fill="#f8f7f8"/><path d="m284.793 199.102v31.93c0 7.66-3.11 14.59-8.12 19.61-5.02 5.02-11.95 8.12-19.61 8.12-15.31 0-27.73-12.41-27.73-27.73v-31.93z" fill="#e5827f"/><path d="m340.253 200.102v30.93c0 7.66-3.11 14.59-8.12 19.61-5.02 5.02-11.95 8.12-19.61 8.12-15.32 0-27.73-12.41-27.73-27.73v-30.93z" fill="#f8f7f8"/><path d="m395.712 202.102v28.93c0 7.66-3.11 14.59-8.12 19.61-5.02 5.02-11.95 8.12-19.61 8.12-15.32 0-27.73-12.41-27.73-27.73v-28.93z" fill="#e5827f"/><path d="m451.163 198.102v32.93c0 7.66-3.1 14.59-8.12 19.61s-11.95 8.12-19.61 8.12c-15.31 0-27.72-12.41-27.72-27.73v-32.93z" fill="#f8f7f8"/><path d="m506.133 205.672-6.879-3.978-48.091-7.513v11.921 24.93c0 7.66 3.1 14.59 8.12 19.61s11.96 8.12 19.61 8.12c15.32 0 27.73-12.41 27.73-27.73v-22.14c0-1.1-.161-2.18-.49-3.22z" fill="#e5827f"/><g><path d="m104.819 107.963h-14.131l-34.165 9.139-24.51 44.5 33.297 18.401c5.76-10.601 23.951-43.731 39.509-72.04z" fill="#efedee"/></g><path d="m506.133 205.672h-498.131c.21-.71.5-1.39.86-2.04l23.15-42.03h450.44l22.84 42.05c.35.65.63 1.32.841 2.02z" fill="#e5827f"/><path d="m458.283 117.102h-401.761l17.52-31.81c3.57-6.48 10.38-10.51 17.78-10.51h331.4c7.44 0 14.28 4.07 17.83 10.61z" fill="#e5827f"/><path d="m494.323 183.457h-416.633c-6.431 0-10.518-6.881-7.431-12.523 1.514-2.768 3.234-5.908 5.11-9.332h-43.357l-23.15 42.03c-.36.65-.65 1.33-.86 2.04h498.13c-.21-.7-.49-1.37-.84-2.02z" fill="#de6a66"/><path d="m123.06 74.782h-31.237c-7.4 0-14.21 4.03-17.78 10.51l-17.52 31.81h43.274c8.988-16.359 17.638-32.091 23.263-42.32z" fill="#de6a66"/><g><path d="m498.171 505.465h-482.217c-4.669 0-8.453-3.785-8.453-8.453v-14.466c0-4.669 3.785-8.453 8.453-8.453h482.218c4.669 0 8.453 3.785 8.453 8.453v14.466c0 4.669-3.785 8.453-8.454 8.453z" fill="#e4e1e5"/><path d="m308.978 342.381h-103.83c-7.5 0-13.58-6.08-13.58-13.58v-28.9c0-7.5 6.08-13.58 13.58-13.58h103.83c7.5 0 13.58 6.08 13.58 13.58v28.9c-.001 7.5-6.081 13.58-13.58 13.58z" fill="#b3e5ee"/><path d="m65.756 398.292h38.858v75.801h-38.858z" fill="#d08a61"/><path d="m76.353 409.683h-53.662c-3.721 0-6.737 3.016-6.737 6.737v50.935c0 3.721 3.016 6.737 6.737 6.737h53.662c3.721 0 6.737-3.016 6.737-6.737v-50.935c0-3.72-3.016-6.737-6.737-6.737z" fill="#d79c7a"/><path d="m143.489 409.683h-53.662c-3.721 0-6.737 3.016-6.737 6.737v50.935c0 3.721 3.016 6.737 6.737 6.737h53.662c3.721 0 6.737-3.016 6.737-6.737v-50.935c.001-3.72-3.016-6.737-6.737-6.737z" fill="#dfae91"/><path d="m117.921 345.274h-53.662c-3.721 0-6.737 3.016-6.737 6.737v50.935c0 3.721 3.016 6.737 6.737 6.737h53.662c3.721 0 6.737-3.016 6.737-6.737v-50.935c0-3.721-3.016-6.737-6.737-6.737z" fill="#e5bda7"/><path d="m410.628 398.292h38.507v75.801h-38.507z" fill="#d08a61"/><path d="m437.772 409.683h53.662c3.721 0 6.737 3.016 6.737 6.737v50.935c0 3.721-3.016 6.737-6.737 6.737h-53.662c-3.721 0-6.737-3.016-6.737-6.737v-50.935c0-3.72 3.016-6.737 6.737-6.737z" fill="#dfae91"/><path d="m370.636 409.683h53.662c3.721 0 6.737 3.016 6.737 6.737v50.935c0 3.721-3.016 6.737-6.737 6.737h-53.662c-3.721 0-6.737-3.016-6.737-6.737v-50.935c-.001-3.72 3.016-6.737 6.737-6.737z" fill="#d79c7a"/><path d="m36.192 462.192c-3.721 0-6.737-3.016-6.737-6.737v-45.771h-6.764c-3.721 0-6.737 3.016-6.737 6.737v50.935c0 3.721 3.016 6.737 6.737 6.737h53.662c3.721 0 6.737-3.016 6.737-6.737v-5.163h-46.898z" fill="#d08a61"/><path d="m103.329 462.192c-3.721 0-6.737-3.016-6.737-6.737v-45.771h-6.764c-3.721 0-6.737 3.016-6.737 6.737v50.935c0 3.721 3.016 6.737 6.737 6.737h53.662c3.721 0 6.737-3.016 6.737-6.737v-5.163h-46.898z" fill="#d79c7a"/><path d="m451.274 462.192c-3.721 0-6.737-3.016-6.737-6.737v-45.771h-6.764c-3.721 0-6.737 3.016-6.737 6.737v50.935c0 3.721 3.016 6.737 6.737 6.737h53.662c3.721 0 6.737-3.016 6.737-6.737v-5.163h-46.898z" fill="#d79c7a"/><path d="m384.137 462.192c-3.721 0-6.737-3.016-6.737-6.737v-45.771h-6.764c-3.721 0-6.737 3.016-6.737 6.737v50.935c0 3.721 3.016 6.737 6.737 6.737h53.662c3.721 0 6.737-3.016 6.737-6.737v-5.163h-46.898z" fill="#d08a61"/><path d="m396.204 345.274h53.662c3.721 0 6.737 3.016 6.737 6.737v50.935c0 3.721-3.016 6.737-6.737 6.737h-53.662c-3.721 0-6.737-3.016-6.737-6.737v-50.935c0-3.721 3.016-6.737 6.737-6.737z" fill="#e5bda7"/><g fill="#dfae91"><path d="m84.131 397.493c-3.721 0-6.737-3.016-6.737-6.737v-45.482h-13.135c-3.721 0-6.737 3.016-6.737 6.737v50.935c0 3.721 3.016 6.737 6.737 6.737h53.662c3.721 0 6.737-3.016 6.737-6.737v-5.453z"/><path d="m416.075 397.493c-3.721 0-6.737-3.016-6.737-6.737v-45.482h-13.134c-3.721 0-6.737 3.016-6.737 6.737v50.935c0 3.721 3.016 6.737 6.737 6.737h53.662c3.721 0 6.737-3.016 6.737-6.737v-5.453z"/></g></g><g id="XMLID_254_"><g><path d="m231.879 121.933 7.478 9.428c4.316 5.434 10.77 8.551 17.706 8.551s13.39-3.117 17.713-8.559l7.466-9.414c8.108-3.3 15.311-8.089 21.353-13.976h-92.935c6.024 5.892 13.189 10.684 21.219 13.97z" fill="#efedee"/><path d="m322.082 74.782h-129.986c3.972 17.535 14.943 32.904 30.278 42.32h69.444c15.415-9.397 26.351-24.669 30.264-42.32z" fill="#de6a66"/><circle cx="257.402" cy="61.769" fill="#f8f7f8" r="41.676"/><path d="m308.672 60.272c0 22.9-14.92 42.3-35.57 49.05l-10.08 12.71c-3.05 3.84-8.87 3.84-11.92 0l-10.08-12.71c-21.19-6.92-36.35-27.18-35.54-50.86.91-26.69 22.45-48.52 49.13-49.75 29.621-1.37 54.06 22.24 54.06 51.56zm-29.37 0c0-12.29-9.96-22.24-22.24-22.24s-22.24 9.95-22.24 22.24c0 12.28 9.96 22.24 22.24 22.24s22.24-9.96 22.24-22.24z" fill="#e5827f"/></g></g></g><g><path d="m491.434 296.797c4.143 0 7.5-3.358 7.5-7.5v-29.312c9.171-6.367 15.191-16.967 15.191-28.952v-22.141c0-3.071-.775-6.121-2.241-8.821l-64.237-118.256c-4.869-8.962-14.229-14.53-24.429-14.53h-85.835c-4.143 0-7.5 3.358-7.5 7.5s3.357 7.5 7.5 7.5h85.835c4.696 0 9.006 2.564 11.248 6.691l11.206 20.629h-115.925c-4.143 0-7.5 3.358-7.5 7.5s3.357 7.5 7.5 7.5h124.073l16.024 29.499h-425.139l16.248-29.499h123.764c4.143 0 7.5-3.358 7.5-7.5s-3.357-7.5-7.5-7.5h-115.502l11.399-20.695c2.251-4.086 6.547-6.625 11.212-6.625h84.909c4.143 0 7.5-3.358 7.5-7.5s-3.357-7.5-7.5-7.5h-84.909c-10.132 0-19.463 5.513-24.351 14.388l-65.18 118.335c-1.501 2.724-2.295 5.808-2.295 8.918v22.107c0 11.985 6.021 22.585 15.191 28.952v144.357c-4.037 2.516-6.737 6.982-6.737 12.079v50.935c0 .368.028.73.055 1.092-5.054 2.68-8.508 7.991-8.508 14.099v14.466c0 8.796 7.156 15.953 15.953 15.953h482.217c8.797 0 15.953-7.157 15.953-15.953v-14.466c0-6.108-3.454-11.418-8.508-14.098.028-.362.055-.723.055-1.092v-50.935c0-5.097-2.701-9.564-6.738-12.08v-83.082c0-4.142-3.357-7.5-7.5-7.5s-7.5 3.358-7.5 7.5v80.924h-19.83v-50.172c0-7.851-6.387-14.237-14.237-14.237h-53.662c-7.851 0-14.237 6.387-14.237 14.237v50.172h-11.331c-7.851 0-14.237 6.387-14.237 14.237v50.172h-44.271v-44.519c0-30.363-24.702-55.066-55.065-55.066s-55.065 24.703-55.065 55.066v44.519h-44.271v-50.172c0-7.851-6.387-14.237-14.237-14.237h-11.331v-50.172c0-7.851-6.387-14.237-14.237-14.237h-53.663c-7.851 0-14.237 6.387-14.237 14.237v50.172h-19.83v-136.288c1.646.237 3.327.366 5.038.366 11.249 0 21.275-5.306 27.729-13.538 6.454 8.233 16.48 13.538 27.729 13.538s21.275-5.305 27.729-13.538c6.454 8.233 16.481 13.538 27.729 13.538s21.274-5.306 27.729-13.538c6.454 8.233 16.481 13.538 27.729 13.538s21.274-5.306 27.729-13.538c6.454 8.233 16.481 13.538 27.729 13.538s21.275-5.306 27.729-13.538c6.454 8.233 16.48 13.538 27.729 13.538s21.275-5.306 27.729-13.538c6.454 8.233 16.48 13.538 27.729 13.538s21.275-5.305 27.729-13.538c6.454 8.233 16.481 13.538 27.729 13.538s21.274-5.306 27.729-13.538c6.455 8.233 16.481 13.538 27.729 13.538 1.711 0 3.392-.129 5.038-.366v23.401c.002 4.142 3.359 7.5 7.502 7.5zm-415.844 120.386v49.409h-52.136v-49.409zm423.534 79.829c0 .525-.428.953-.953.953h-482.217c-.525 0-.953-.428-.953-.953v-14.466c0-.525.428-.953.953-.953h482.217c.525 0 .953.428.953.953zm-60.589-79.829h52.137v49.409h-52.137zm-41.568-64.409h52.137v49.409h-52.137zm-25.569 64.409h52.137v49.409h-52.137zm-154.401 4.891c0-22.092 17.974-40.066 40.065-40.066s40.065 17.974 40.065 40.066v44.519h-80.131v-44.519zm-74.27 44.519h-52.137v-49.409h52.137zm-77.706-113.819h52.137v49.409h-52.137zm412.971-183.671 16.024 29.499h-473.821l16.248-29.499zm-442.763 82.159c-11.154 0-20.229-9.075-20.229-20.229v-17.431h40.459v17.431c0 11.154-9.075 20.229-20.23 20.229zm55.459 0c-11.154 0-20.229-9.075-20.229-20.229v-17.431h40.458v17.431c0 11.154-9.075 20.229-20.229 20.229zm55.458 0c-11.154 0-20.229-9.075-20.229-20.229v-17.431h40.458v17.431c0 11.154-9.074 20.229-20.229 20.229zm55.458 0c-11.154 0-20.229-9.075-20.229-20.229v-17.431h40.458v17.431c0 11.154-9.074 20.229-20.229 20.229zm55.458 0c-11.154 0-20.229-9.075-20.229-20.229v-17.431h40.459v17.431c0 11.154-9.075 20.229-20.23 20.229zm55.459 0c-11.154 0-20.229-9.075-20.229-20.229v-17.431h40.458v17.431c0 11.154-9.075 20.229-20.229 20.229zm55.458 0c-11.154 0-20.229-9.075-20.229-20.229v-17.431h40.458v17.431c0 11.154-9.075 20.229-20.229 20.229zm55.459 0c-11.154 0-20.229-9.075-20.229-20.229v-17.431h40.458v17.431c-.001 11.154-9.075 20.229-20.229 20.229zm35.228-20.229v-17.431h40.459v17.431c0 11.154-9.075 20.229-20.229 20.229s-20.23-9.075-20.23-20.229z"/><path d="m236.153 429.988c-4.143 0-7.5 3.358-7.5 7.5v3.629c0 4.142 3.357 7.5 7.5 7.5s7.5-3.358 7.5-7.5v-3.629c0-4.143-3.357-7.5-7.5-7.5z"/><path d="m236.495 115.686 8.736 11.01c2.882 3.632 7.193 5.715 11.83 5.716h.001c4.637 0 8.949-2.083 11.831-5.715l8.735-11.009c23.15-8.572 38.545-30.557 38.545-55.42 0-5.933-.889-11.814-2.641-17.481-1.223-3.957-5.418-6.174-9.381-4.95-3.957 1.224-6.173 5.424-4.949 9.381 1.308 4.23 1.971 8.621 1.971 13.05 0 19.135-12.217 35.984-30.399 41.927-1.398.457-2.631 1.315-3.545 2.467l-10.086 12.711c-.055.068-.133.031-.161 0l-10.087-12.711c-.914-1.152-2.146-2.01-3.545-2.467-18.549-6.063-31.039-23.94-30.373-43.476.776-22.788 19.219-41.462 41.984-42.514 10.342-.482 20.19 2.532 28.459 8.708 3.317 2.479 8.018 1.798 10.497-1.521s1.798-8.019-1.521-10.497c-10.925-8.16-24.466-12.296-38.128-11.675-30.52 1.41-55.242 26.442-56.284 56.988-.863 25.391 14.869 48.694 38.511 57.478z"/><path d="m257.062 30.529c-16.398 0-29.739 13.341-29.739 29.739s13.341 29.739 29.739 29.739 29.739-13.341 29.739-29.739-13.34-29.739-29.739-29.739zm0 44.478c-8.127 0-14.739-6.612-14.739-14.739s6.612-14.739 14.739-14.739 14.739 6.612 14.739 14.739-6.612 14.739-14.739 14.739z"/></g><path d="m308.978 349.881h-103.83c-11.624 0-21.08-9.457-21.08-21.08v-28.9c0-11.624 9.456-21.08 21.08-21.08h19.952c4.143 0 7.5 3.358 7.5 7.5s-3.357 7.5-7.5 7.5h-19.952c-3.353 0-6.08 2.727-6.08 6.08v28.9c0 3.353 2.728 6.08 6.08 6.08h103.83c3.353 0 6.08-2.728 6.08-6.08v-28.9c0-3.353-2.728-6.08-6.08-6.08h-51.915c-4.143 0-7.5-3.358-7.5-7.5s3.357-7.5 7.5-7.5h51.915c11.624 0 21.08 9.456 21.08 21.08v28.9c0 11.624-9.456 21.08-21.08 21.08z"/></g></svg>