<svg id="Capa_1" enable-background="new 0 0 511.447 511.447" height="512" viewBox="0 0 511.447 511.447" width="512" xmlns="http://www.w3.org/2000/svg"><g><g><path d="m423.289 7.5h-13.851l-8.706 8.284h-60.63l-6.397-8.284h-49.418l-6.078 5.967h-47.136l-4.913-5.967h-138.002c-1.555 0-3.074.155-4.544.445v259.302h362.316c.504-1.91.775-3.915.775-5.983v-230.348c-.001-12.932-10.484-23.416-23.416-23.416z" fill="#dfae91"/><path d="m238.409 302.421h34.629v65.28h-34.629z" fill="#b3adb5"/><path d="m380.432 319.421h-249.417c-12.351 0-22.363-10.012-22.363-22.363v-30.378h294.144v30.378c0 12.35-10.013 22.363-22.364 22.363z" fill="#e5827f"/><path d="m376.984 435.319-48.24-77.33c-2.44-3.91-6.72-6.29-11.33-6.29h-123.38c-4.61 0-8.89 2.38-11.33 6.29l-48.24 77.33c-1.32 2.12-2.03 4.56-2.03 7.06v26.2l19.876 22.93h193.673l33.031-22.93v-26.2c0-2.5-.71-4.94-2.03-7.06z" fill="#e5827f"/><g id="XMLID_262_"><g><path d="m319.094 453.079v28.5h-127.74v-28.5c0-35.28 28.6-63.87 63.87-63.87 17.64 0 33.6 7.15 45.16 18.71 11.56 11.55 18.71 27.52 18.71 45.16z" fill="#f8f7f8"/></g></g><g><circle cx="255.224" cy="461.107" fill="#e5827f" r="19.156"/><path d="m160.317 461.182c0-2.5.71-4.94 2.03-7.06l48.24-77.33c2.44-3.91 6.72-6.29 11.33-6.29h114.633l-7.805-12.512c-2.44-3.91-6.72-6.29-11.33-6.29h-123.38c-4.61 0-8.89 2.38-11.33 6.29l-48.24 77.33c-1.32 2.12-2.03 4.56-2.03 7.06v26.2l19.876 22.93h8.007v-30.328z" fill="#de6a66"/><g id="XMLID_259_"><g><path d="m379.014 468.579v22.02c0 7.37-5.98 13.35-13.35 13.35h-219.88c-7.37 0-13.35-5.98-13.35-13.35v-22.02z" fill="#b3adb5"/></g></g><path d="m160.317 468.579h-27.883v22.02c0 7.37 5.98 13.35 13.35 13.35h14.533z" fill="#a59ca6"/><path d="m284.287 7.5h-58.127v53.166c0 2.386 2.399 4.026 4.622 3.159l23.21-9.049c.792-.309 1.671-.309 2.463 0l23.21 9.049c2.223.867 4.622-.773 4.622-3.159z" fill="#f9de58"/><path d="m404.451 190.947h-65.758c-2.755 0-4.988-2.233-4.988-4.988v-178.459h75.733v178.459c0 2.755-2.233 4.988-4.987 4.988z" fill="#f8f7f8"/><path d="m136.052 255.364c-12.932 0-23.415-10.483-23.415-23.415v-224.449h-24.479c-12.932 0-23.415 10.483-23.415 23.415v230.348c0 12.932 10.483 23.415 23.415 23.415h32.244l8.128-7.06h148.762l13.532 7.06h132.464c12.932 0 23.415-10.483 23.415-23.415v-5.9h-310.651z" fill="#d79c7a"/><path d="m286.821 155.866h-162.415c-2.211 0-4.004 1.792-4.004 4.004v124.809h170.422v-124.809c.001-2.211-1.792-4.004-4.003-4.004z" fill="#f8f7f8"/></g><path d="m290.825 255.364h-154.773c-6.017 0-11.502-2.271-15.649-6.001v35.316h170.422z" fill="#efedee"/></g><g><path d="m423.289 0h-335.131c-17.047 0-30.915 13.869-30.915 30.916v36.028c0 4.142 3.358 7.5 7.5 7.5s7.5-3.358 7.5-7.5v-36.028c0-8.776 7.14-15.916 15.915-15.916h130.502v45.667c0 3.6 1.774 6.961 4.747 8.992 1.837 1.255 3.981 1.9 6.143 1.899 1.335 0 2.677-.246 3.957-.745l21.717-8.467 21.716 8.467c3.354 1.308 7.129.877 10.101-1.154s4.747-5.392 4.747-8.992v-45.667h34.418v170.959c0 6.886 5.602 12.488 12.488 12.488h65.758c6.886 0 12.488-5.602 12.488-12.488v-170.959h6.351c8.775 0 15.915 7.14 15.915 15.916v230.348c0 8.776-7.14 15.916-15.915 15.916h-124.966v-117.31c0-6.343-5.161-11.503-11.503-11.503h-95.464c-4.142 0-7.5 3.358-7.5 7.5s3.358 7.5 7.5 7.5h91.967v113.813h-155.423v-113.814h31.492c4.142 0 7.5-3.358 7.5-7.5s-3.358-7.5-7.5-7.5h-34.988c-6.343 0-11.504 5.161-11.504 11.503v117.31h-24.744c-8.775 0-15.915-7.14-15.915-15.916v-162.357c0-4.142-3.358-7.5-7.5-7.5s-7.5 3.358-7.5 7.5v162.357c0 17.047 13.868 30.916 30.915 30.916h12.993v4.878c0 16.467 13.397 29.863 29.864 29.863h99.894v17.28h-36.876c-7.244 0-13.857 3.669-17.69 9.814l-48.245 77.33c-2.068 3.314-3.161 7.13-3.161 11.037v48.214c0 11.497 9.354 20.851 20.851 20.851h219.87c11.498 0 20.851-9.354 20.851-20.851v-48.214c0-3.906-1.093-7.723-3.161-11.037l-15.73-25.213c-2.192-3.514-6.819-4.587-10.333-2.394-3.515 2.192-4.586 6.819-2.394 10.333l15.73 25.213c.581.93.887 2.001.887 3.097v18.695h-44.92v-8.002c0-39.352-32.015-71.366-71.366-71.366s-71.366 32.015-71.366 71.366v8.002h-43.92v-18.695c0-1.096.307-2.167.887-3.097l48.245-77.331c1.076-1.724 2.931-2.753 4.964-2.753h123.381c2.033 0 3.888 1.029 4.964 2.754l15.587 24.983c2.193 3.514 6.819 4.587 10.333 2.394 3.515-2.193 4.586-6.819 2.394-10.333l-15.587-24.983c-3.833-6.146-10.447-9.815-17.69-9.815h-36.876v-17.28h99.894c16.467 0 29.864-13.396 29.864-29.863v-4.878h12.993c17.047 0 30.915-13.869 30.915-30.916v-230.346c0-17.047-13.868-30.916-30.915-30.916zm-146.502 54.653-17.606-6.864c-2.552-.996-5.364-.994-7.913 0l-17.607 6.865v-39.654h43.127v39.653zm125.151 128.794h-60.733v-168.447h60.733zm-203.081 269.628c0-31.081 25.286-56.366 56.366-56.366s56.366 25.286 56.366 56.366v8.002h-31.66c-.012-6.846-2.823-13.046-7.346-17.518l10.205-20.038c1.88-3.691.412-8.208-3.279-10.087s-8.208-.413-10.087 3.279l-10.2 20.028c-1.302-.213-2.637-.328-3.999-.328-13.609 0-24.683 11.061-24.706 24.665h-31.66zm46.662 8.002c.023-5.333 4.367-9.665 9.705-9.665s9.682 4.332 9.705 9.665zm125.991 15v14.52c0 3.226-2.625 5.851-5.851 5.851h-219.87c-3.226 0-5.851-2.625-5.851-5.851v-14.52zm-105.972-131.876h-19.629v-17.28h19.629zm129.758-47.143c0 8.196-6.668 14.863-14.864 14.863h-249.417c-8.196 0-14.864-6.667-14.864-14.863v-4.878h279.145z"/><path d="m152.242 200.182c4.142 0 7.5-3.358 7.5-7.5s-3.358-7.5-7.5-7.5h-4.407c-4.142 0-7.5 3.358-7.5 7.5s3.358 7.5 7.5 7.5z"/><path d="m264.991 200.182c4.142 0 7.5-3.358 7.5-7.5s-3.358-7.5-7.5-7.5h-88.143c-4.142 0-7.5 3.358-7.5 7.5s3.358 7.5 7.5 7.5z"/><path d="m142.539 224.521c0 4.142 3.358 7.5 7.5 7.5h114.953c4.142 0 7.5-3.358 7.5-7.5s-3.358-7.5-7.5-7.5h-114.953c-4.143 0-7.5 3.358-7.5 7.5z"/><path d="m264.991 248.859h-114.952c-4.142 0-7.5 3.358-7.5 7.5s3.358 7.5 7.5 7.5h114.953c4.142 0 7.5-3.358 7.5-7.5s-3.359-7.5-7.501-7.5z"/></g></g></svg>