<svg id="Capa_1" enable-background="new 0 0 511.447 511.447" height="512" viewBox="0 0 511.447 511.447" width="512" xmlns="http://www.w3.org/2000/svg"><g><g><g><path d="m442.35 190.947c16.087 0 29.128 13.041 29.128 29.128v254.744c0 16.087-13.041 29.128-29.128 29.128h-373.253c-16.087 0-29.128-13.041-29.128-29.128v-254.744c0-16.087 13.041-29.128 29.128-29.128z" fill="#dfae91"/><path d="m112.678 469.55c-16.087 0-29.128-13.041-29.128-29.128v-249.475h-14.453c-16.087 0-29.128 13.041-29.128 29.128v254.744c0 16.087 13.041 29.128 29.128 29.128h373.253c16.087 0 29.128-13.041 29.128-29.128v-5.269z" fill="#d79c7a"/><path d="m295.033 503.947h-78.619v-74.297c0-4.399 4.314-7.502 8.484-6.103l29.252 9.814c1.345.451 2.801.445 4.142-.016l28.21-9.708c4.179-1.438 8.531 1.667 8.531 6.086z" fill="#fbe372"/><path d="m216.414 469.55h78.619v34.397h-78.619z" fill="#f9de58"/><path d="m405.073 389.209h-298.7c-7.435 0-13.462-6.027-13.462-13.462v-119.152c0-7.435 6.027-13.462 13.462-13.462h298.7c7.435 0 13.462 6.027 13.462 13.462v119.153c0 7.434-6.027 13.461-13.462 13.461z" fill="#f8f7f8"/><path d="m367.139 7.5h-114.368c-15.305 0-27.712 12.407-27.712 27.712v134.316c0 15.305 12.407 27.712 27.712 27.712h11.363l13.708 14.173 13.708-14.173h75.589c15.305 0 27.712-12.407 27.712-27.712v-134.316c.001-15.305-12.407-27.712-27.712-27.712z" fill="#f9de58"/><g fill="#b3adb5"><path d="m313.438 37.745h-6.965c-7.339 0-13.128 6.24-12.58 13.558l3.483 46.482c.493 6.583 5.978 11.673 12.58 11.673 6.601 0 12.087-5.09 12.58-11.673l3.483-46.482c.547-7.318-5.243-13.558-12.581-13.558z"/><circle cx="309.955" cy="150.719" r="16.099"/></g></g><path d="m285.084 173.629c-14.611 0-26.456-11.845-26.456-26.456v-130.823c0-3.104.539-6.082 1.522-8.849h-7.379c-15.305 0-27.712 12.407-27.712 27.712v134.316c0 15.305 12.407 27.712 27.712 27.712h11.363l13.708 14.173 13.708-14.173h75.589c13.912 0 25.427-10.252 27.408-23.612z" fill="#f8d448"/></g><g><path d="m442.35 183.447h-21.636c-4.143 0-7.5 3.358-7.5 7.5s3.357 7.5 7.5 7.5h21.636c11.926 0 21.628 9.702 21.628 21.628v254.744c0 11.926-9.702 21.628-21.628 21.628h-139.817v-66.723c0-4.495-2.185-8.736-5.844-11.346-3.658-2.61-8.381-3.295-12.628-1.833l-27.869 9.59-28.909-9.699c-4.241-1.421-8.939-.711-12.571 1.9-3.631 2.612-5.798 6.841-5.798 11.313v66.797h-139.816c-11.926 0-21.628-9.702-21.628-21.628v-41.985c0-4.142-3.358-7.5-7.5-7.5s-7.5 3.358-7.5 7.5v41.985c0 20.197 16.431 36.628 36.628 36.628h373.252c20.196 0 36.628-16.431 36.628-36.628v-254.743c0-20.197-16.432-36.628-36.628-36.628zm-218.436 313v-65.319l27.85 9.344c2.895.971 6.08.96 8.968-.035l26.801-9.223v65.233z"/><path d="m39.97 408.372c4.142 0 7.5-3.358 7.5-7.5v-180.797c0-11.926 9.702-21.628 21.628-21.628h130.096c4.142 0 7.5-3.358 7.5-7.5s-3.358-7.5-7.5-7.5h-130.096c-20.197 0-36.628 16.431-36.628 36.628v180.796c0 4.143 3.358 7.501 7.5 7.501z"/><path d="m339.499 235.633h-233.125c-11.559 0-20.962 9.403-20.962 20.962v119.152c0 11.559 9.403 20.962 20.962 20.962h298.699c11.559 0 20.962-9.403 20.962-20.962v-119.152c0-11.559-9.403-20.962-20.962-20.962h-33.611c-4.143 0-7.5 3.358-7.5 7.5s3.357 7.5 7.5 7.5h33.611c3.287 0 5.962 2.674 5.962 5.962v119.152c0 3.288-2.675 5.962-5.962 5.962h-298.699c-3.288 0-5.962-2.674-5.962-5.962v-119.152c0-3.288 2.674-5.962 5.962-5.962h233.125c4.143 0 7.5-3.358 7.5-7.5s-3.357-7.5-7.5-7.5z"/><path d="m131.726 285.039h11.15c4.142 0 7.5-3.358 7.5-7.5s-3.358-7.5-7.5-7.5h-11.15c-4.142 0-7.5 3.358-7.5 7.5s3.358 7.5 7.5 7.5z"/><path d="m381.14 270.039h-207.747c-4.142 0-7.5 3.358-7.5 7.5s3.358 7.5 7.5 7.5h207.747c4.143 0 7.5-3.358 7.5-7.5s-3.358-7.5-7.5-7.5z"/><path d="m381.14 308.671h-249.414c-4.142 0-7.5 3.358-7.5 7.5s3.358 7.5 7.5 7.5h249.414c4.143 0 7.5-3.358 7.5-7.5s-3.358-7.5-7.5-7.5z"/><path d="m381.14 347.303h-249.414c-4.142 0-7.5 3.358-7.5 7.5s3.358 7.5 7.5 7.5h249.414c4.143 0 7.5-3.358 7.5-7.5s-3.358-7.5-7.5-7.5z"/><path d="m309.955 116.957c10.466 0 19.277-8.175 20.06-18.612l3.482-46.481c.417-5.562-1.52-11.096-5.313-15.185-3.793-4.088-9.168-6.434-14.745-6.434h-6.966c-5.577 0-10.951 2.345-14.745 6.433-3.793 4.088-5.73 9.623-5.314 15.186l3.483 46.483c.783 10.435 9.593 18.61 20.058 18.61zm-7.232-70.076c.979-1.055 2.311-1.636 3.75-1.636h6.966c1.438 0 2.771.581 3.749 1.636.979 1.055 1.459 2.426 1.351 3.861l-3.482 46.482c-.198 2.654-2.439 4.732-5.101 4.732s-4.902-2.079-5.101-4.733l-3.482-46.481c-.108-1.434.371-2.806 1.35-3.861z"/><path d="m309.955 174.317c13.013 0 23.599-10.586 23.599-23.599s-10.586-23.598-23.599-23.598-23.599 10.586-23.599 23.598 10.586 23.599 23.599 23.599zm0-32.196c4.741 0 8.599 3.857 8.599 8.598s-3.857 8.599-8.599 8.599-8.599-3.857-8.599-8.599 3.858-8.598 8.599-8.598z"/><path d="m252.771 204.741h8.184l11.497 11.887c1.413 1.461 3.358 2.286 5.391 2.286s3.978-.825 5.391-2.286l11.497-11.887h72.409c19.416 0 35.212-15.796 35.212-35.212v-77.185c0-4.142-3.357-7.5-7.5-7.5s-7.5 3.358-7.5 7.5v77.185c0 11.145-9.067 20.212-20.212 20.212h-75.589c-2.032 0-3.978.825-5.391 2.286l-8.317 8.599-8.317-8.599c-1.413-1.461-3.358-2.286-5.391-2.286h-11.364c-11.145 0-20.212-9.067-20.212-20.212v-134.317c0-11.145 9.067-20.212 20.212-20.212h114.369c11.145 0 20.212 9.067 20.212 20.212v25.169c0 4.142 3.357 7.5 7.5 7.5s7.5-3.358 7.5-7.5v-25.169c0-19.416-15.796-35.212-35.212-35.212h-114.369c-19.416 0-35.212 15.796-35.212 35.212v134.316c0 19.417 15.796 35.213 35.212 35.213z"/></g></g></svg>