<svg id="Capa_1" enable-background="new 0 0 511.889 511.889" height="512" viewBox="0 0 511.889 511.889" width="512" xmlns="http://www.w3.org/2000/svg"><g><g><path d="m262.669 97.583h-237.439c-7.302 0-13.22 5.919-13.22 13.221v190.046c0 7.302 5.919 13.22 13.22 13.22h38.224v-11.12h207.466v8.22c3.026-2.423 4.969-6.142 4.969-10.32v-190.046c.001-7.302-5.918-13.221-13.22-13.221z" fill="#dfae91"/><g><path d="m51.147 288.479c-7.302 0-13.22-5.919-13.22-13.22v-177.676h-12.697c-7.302 0-13.22 5.919-13.22 13.221v190.046c0 7.302 5.919 13.22 13.22 13.22h89.021l7.189-5.805h45.345l6.863 5.805h89.021c7.302 0 13.22-5.919 13.22-13.22v-12.371z" fill="#d79c7a"/><path d="m173.648 314.07h-59.397v-49.663c0-2.766 2.792-4.658 5.361-3.633l23.647 9.436c.954.381 2.02.371 2.968-.028l21.992-9.26c2.578-1.086 5.429.807 5.429 3.605z" fill="#fbe372"/><path d="m240.828 229.785h-193.757c-1.876 0-3.397-1.521-3.397-3.397v-83.774c0-1.876 1.521-3.397 3.397-3.397h193.757c1.876 0 3.397 1.521 3.397 3.397v83.774c0 1.876-1.521 3.397-3.397 3.397z" fill="#f8f7f8"/><g id="XMLID_264_"><g><path d="m119.918 113.443 6.762 8.526c4.207 5.295 10.5 8.333 17.267 8.333 6.756 0 13.047-3.03 17.28-8.341l6.75-8.51c8.783-3.622 16.44-9.092 22.581-15.867h-93.064c6.128 6.77 13.733 12.254 22.424 15.859z" fill="#d79c7a"/><path d="m191.805 55.36c0 21.24-13.83 39.23-32.98 45.49l-9.35 11.79c-2.83 3.55-8.23 3.55-11.05 0l-9.35-11.79c-19.65-6.42-33.7-25.2-32.96-47.16.85-24.75 20.83-44.99 45.56-46.14 27.47-1.27 50.13 20.62 50.13 47.81zm-29.63 0c0-10.06-8.16-18.22-18.23-18.22-10.06 0-18.22 8.16-18.22 18.22s8.16 18.22 18.22 18.22c10.07 0 18.23-8.16 18.23-18.22z" fill="#e5827f"/></g></g><path d="m358.088 504.389h-82.883c-3.144 0-5.693-2.549-5.693-5.693v-13.572c0-7.64 6.194-13.834 13.834-13.834h66.601c7.64 0 13.834 6.194 13.834 13.834v13.572c0 3.145-2.549 5.693-5.693 5.693z" fill="#b3adb5"/><path d="m382.906 400.329h-69.711c-2.236 0-4.048-1.813-4.048-4.049v-50.34c0-2.236 1.813-4.048 4.048-4.048h69.711c2.455 0 4.117 2.501 3.167 4.764l-9.711 23.125c-.357.851-.357 1.809 0 2.66l9.711 23.125c.95 2.262-.712 4.763-3.167 4.763z" fill="#e5827f"/></g><path d="m114.251 288.479h59.397v25.591h-59.397z" fill="#f9de58"/></g><g><path d="m209.406 105.083h53.264c3.154 0 5.72 2.566 5.72 5.721v28.414c0 4.142 3.357 7.5 7.5 7.5s7.5-3.358 7.5-7.5v-28.414c0-11.425-9.295-20.721-20.72-20.721h-53.264c-4.143 0-7.5 3.358-7.5 7.5s3.358 7.5 7.5 7.5z"/><path d="m262.67 321.57c11.425 0 20.72-9.295 20.72-20.72v-129.67c0-4.142-3.357-7.5-7.5-7.5s-7.5 3.358-7.5 7.5v129.67c0 3.154-2.565 5.72-5.72 5.72h-81.521v-42.043c0-3.833-1.906-7.386-5.1-9.506-3.191-2.121-7.209-2.498-10.74-1.011l-20.636 8.689-22.281-8.89c-3.517-1.405-7.493-.975-10.631 1.152-3.137 2.125-5.01 5.657-5.01 9.446v42.163h-81.521c-3.154 0-5.721-2.566-5.721-5.72v-190.046c0-3.154 2.566-5.721 5.721-5.721h53.432c4.143 0 7.5-3.358 7.5-7.5s-3.357-7.5-7.5-7.5h-53.432c-11.426 0-20.721 9.295-20.721 20.721v190.046c0 11.425 9.295 20.72 20.721 20.72zm-140.919-51.867 18.729 7.473c2.804 1.12 5.879 1.09 8.658-.082l17.011-7.163v36.639h-44.397v-36.867z"/><path d="m124.544 107.207 8.008 10.092c2.777 3.499 6.933 5.506 11.399 5.505s8.621-2.007 11.396-5.506l8.006-10.089c21.602-8.065 35.956-28.615 35.956-51.85 0-3.549-.352-7.145-1.045-10.686-.796-4.064-4.725-6.716-8.802-5.919-4.064.796-6.715 4.736-5.919 8.801.508 2.595.766 5.22.766 7.804 0 17.508-11.178 32.924-27.813 38.361-1.397.457-2.631 1.315-3.545 2.467l-9.002 11.344-9.001-11.344c-.914-1.152-2.146-2.01-3.545-2.467-16.971-5.547-28.398-21.905-27.789-39.778.71-20.85 17.583-37.936 38.412-38.897 10.139-.47 20.002 2.845 27.768 9.331 3.18 2.655 7.909 2.231 10.563-.949 2.655-3.179 2.231-7.909-.948-10.564-10.654-8.899-24.186-13.448-38.075-12.803-28.583 1.32-51.736 24.764-52.712 53.371-.808 23.728 13.859 45.509 35.922 53.776z"/><path d="m118.228 55.359c0 14.183 11.539 25.721 25.722 25.721s25.721-11.539 25.721-25.721-11.538-25.721-25.721-25.721-25.722 11.538-25.722 25.721zm36.443 0c0 5.912-4.81 10.721-10.721 10.721-5.912 0-10.722-4.81-10.722-10.721s4.81-10.721 10.722-10.721c5.911 0 10.721 4.809 10.721 10.721z"/><path d="m244.224 449.303h-151.403c-17.33 0-31.43-14.099-31.43-31.43s14.1-31.43 31.43-31.43h193.825c4.143 0 7.5-3.358 7.5-7.5s-3.357-7.5-7.5-7.5h-193.825c-25.602 0-46.43 20.829-46.43 46.43s20.828 46.43 46.43 46.43h151.403c4.143 0 7.5-3.358 7.5-7.5s-3.357-7.5-7.5-7.5z"/><path d="m439.099 249.88h-122.259c-4.143 0-7.5 3.358-7.5 7.5s3.357 7.5 7.5 7.5h122.259c29.379 0 53.281 23.902 53.281 53.282s-23.902 53.282-53.281 53.282h-19.968c-4.143 0-7.5 3.358-7.5 7.5s3.357 7.5 7.5 7.5h19.968c37.65 0 68.281-30.631 68.281-68.282s-30.631-68.282-68.281-68.282z"/><path d="m399.513 339.273c-2.032-3.057-5.437-4.881-9.106-4.881h-69.711c-6.368 0-11.549 5.181-11.549 11.548v117.851h-25.8c-11.764 0-21.334 9.57-21.334 21.334v13.572c0 7.274 5.918 13.193 13.192 13.193h82.884c7.274 0 13.192-5.918 13.192-13.193v-13.572c0-11.764-9.57-21.334-21.334-21.334h-25.801v-55.962h66.26c3.67 0 7.074-1.825 9.106-4.881 2.031-3.057 2.396-6.902.976-10.288l-9.051-21.55 9.051-21.551c1.421-3.384 1.057-7.23-.975-10.286zm-43.232 145.852v11.765h-79.269v-11.765c0-3.493 2.842-6.334 6.334-6.334h66.601c3.492 0 6.334 2.841 6.334 6.334zm20.665-109.781 7.344 17.485h-60.144v-35.737-7.7h60.144l-7.343 17.483c-1.131 2.691-1.131 5.779-.001 8.469z"/><path d="m102.054 222.285c-4.143 0-7.5 3.358-7.5 7.5s3.357 7.5 7.5 7.5h138.774c6.009 0 10.896-4.888 10.896-10.896v-83.774c0-6.009-4.888-10.897-10.896-10.897h-193.757c-6.009 0-10.896 4.888-10.896 10.897v83.774c0 6.008 4.888 10.896 10.896 10.896h23.021c4.143 0 7.5-3.358 7.5-7.5s-3.357-7.5-7.5-7.5h-18.917v-75.567h185.55v75.567z"/></g></g></svg>