<svg id="Capa_1" enable-background="new 0 0 511.529 511.529" height="512" viewBox="0 0 511.529 511.529" width="512" xmlns="http://www.w3.org/2000/svg"><g><g><path d="m436.497 482.25v-238.019c0-9.776-7.926-17.702-17.702-17.702h-326.061c-9.777 0-17.702 7.925-17.702 17.702v238.019z" fill="#dfae91"/><g><path d="m286.111 504.029h-60.694v-55.615c0-2.511 2.445-4.294 4.836-3.527l24.379 7.825c.736.236 1.528.236 2.264 0l24.379-7.825c2.391-.767 4.836 1.016 4.836 3.527z" fill="#fbe372"/><path d="m134.243 468.952c-9.776 0-17.702-7.925-17.702-17.702v-224.721h-23.807c-9.777 0-17.702 7.925-17.702 17.702v242.096c0 9.777 7.926 17.702 17.702 17.702h132.684l5.587-4.413h51.903l3.204 4.413h132.684c9.777 0 17.702-7.925 17.702-17.702v-17.375z" fill="#d79c7a"/><path d="m225.418 468.952h60.693v35.076h-60.693z" fill="#f9de58"/><path d="m162.182 226.529c14.343 20.759 32.757 38.609 54.065 52.234l23.421 14.977c4.815 3.078 10.381 4.706 16.096 4.706s11.28-1.627 16.097-4.707l23.42-14.975c21.309-13.626 39.722-31.475 54.065-52.234h-187.164z" fill="#d79c7a"/><path d="m373.634 414.143h-235.739c-6.058 0-10.969-4.911-10.969-10.969v-111.913c0-6.058 4.911-10.969 10.969-10.969h235.739c6.058 0 10.969 4.911 10.969 10.969v111.914c-.001 6.057-4.911 10.968-10.969 10.968z" fill="#f8f7f8"/><path d="m346.563 45.878 11.41 2.361c2.946.609 5.058 3.204 5.058 6.212v64.049c0 58.069-29.601 112.132-78.524 143.414l-23.421 14.976c-3.245 2.075-7.399 2.075-10.644 0l-23.421-14.976c-48.923-31.282-78.524-85.345-78.524-143.414v-64.049c0-3.008 2.113-5.602 5.058-6.212l11.41-2.361c29.95-6.197 58.43-18.095 83.887-35.046l3.396-2.261c2.129-1.418 4.902-1.418 7.032 0l3.396 2.261c25.457 16.951 53.936 28.85 83.887 35.046z" fill="#b8de9c"/><path d="m243.184 236.64c-40.301-25.769-64.686-70.305-64.686-118.14v-41.159c0-2.193 1.503-4.087 3.631-4.621 25.098-6.297 48.958-16.111 71.203-29.282 1.504-.89 3.363-.89 4.867 0 22.247 13.174 46.104 22.985 71.203 29.282 2.127.534 3.631 2.427 3.631 4.621v41.155c0 47.836-24.384 92.372-64.686 118.143l-7.964 5.093c-2.815 1.8-6.419 1.8-9.234 0z" fill="#f8f7f8"/></g></g><g><path d="m222.982 268.232 23.419 14.975c2.845 1.819 6.104 2.728 9.363 2.728s6.52-.909 9.362-2.728l23.42-14.976c45.245-28.93 74.698-76.129 80.81-129.498.472-4.115-2.482-7.833-6.598-8.304-4.11-.473-7.834 2.482-8.305 6.598-5.596 48.863-32.562 92.079-73.987 118.566l-23.421 14.976c-.777.498-1.784.498-2.563 0l-23.42-14.976c-22.946-14.672-41.989-35.055-55.07-58.945-13.08-23.89-19.994-50.914-19.994-78.15v-63.106l10.487-2.17c31.033-6.42 60.145-18.582 86.524-36.147l2.755-1.835 2.755 1.835c26.38 17.566 55.491 29.728 86.524 36.147l10.487 2.17v50.527c0 4.142 3.357 7.5 7.5 7.5s7.5-3.358 7.5-7.5v-51.468c0-6.532-4.643-12.233-11.038-13.556l-11.41-2.361c-29.142-6.028-56.478-17.449-81.249-33.944l-3.397-2.262c-4.66-3.104-10.683-3.104-15.345 0l-3.396 2.262c-24.771 16.495-52.107 27.916-81.249 33.944l-11.41 2.361c-6.396 1.323-11.038 7.024-11.038 13.556v64.049c0 29.747 7.552 59.262 21.838 85.354s35.084 48.353 60.146 64.378z"/><path d="m259.653 35.567c-2.391-1.449-5.389-1.449-7.777 0-23.292 14.125-48.561 24.467-75.103 30.739-3.385.8-5.775 3.821-5.775 7.299v44.895c0 50.647 25.475 97.174 68.146 124.458l12.581 8.044c1.231.788 2.636 1.181 4.04 1.181s2.809-.394 4.04-1.181l12.581-8.045c42.671-27.284 68.146-73.811 68.146-124.458v-44.894c0-3.478-2.391-6.499-5.775-7.299-26.542-6.272-51.811-16.614-75.104-30.739zm65.878 82.933c0 45.504-22.888 87.307-61.226 111.82l-8.541 5.461-8.541-5.461c-38.337-24.514-61.226-66.316-61.226-111.821v-39.025c24.504-6.349 47.926-16.006 69.767-28.766 21.842 12.761 45.263 22.417 69.767 28.766z"/><path d="m255.764 101.159c-25.796 0-46.783 20.987-46.783 46.784s20.987 46.783 46.783 46.783 46.783-20.987 46.783-46.783c0-10.174-3.275-19.592-8.811-27.278l14.583-16.129c2.777-3.072 2.539-7.815-.533-10.593-3.072-2.776-7.814-2.54-10.594.534l-14.064 15.556c-7.701-5.575-17.152-8.874-27.364-8.874zm31.784 46.784c0 17.525-14.258 31.783-31.783 31.783s-31.783-14.258-31.783-31.783 14.258-31.784 31.783-31.784c6.344 0 12.255 1.876 17.221 5.091l-20.734 22.932-3.197-3.336c-2.868-2.991-7.615-3.09-10.604-.225-2.99 2.866-3.092 7.613-.226 10.604l8.772 9.153c1.416 1.477 3.372 2.311 5.415 2.311.036 0 .072 0 .109-.001 2.082-.03 4.058-.925 5.454-2.469l25.363-28.052c2.672 4.652 4.21 10.036 4.21 15.776z"/><path d="m418.795 219.029h-48.42c-4.143 0-7.5 3.358-7.5 7.5s3.357 7.5 7.5 7.5h48.42c5.625 0 10.202 4.577 10.202 10.202v242.096c0 5.625-4.577 10.202-10.202 10.202h-125.184v-48.115c0-3.566-1.721-6.95-4.602-9.052-2.883-2.102-6.631-2.706-10.026-1.616l-23.219 7.452-23.22-7.452c-3.396-1.09-7.144-.486-10.025 1.616s-4.602 5.486-4.602 9.052v48.115h-125.183c-5.625 0-10.202-4.577-10.202-10.202v-30.458c0-4.142-3.357-7.5-7.5-7.5s-7.5 3.358-7.5 7.5v30.458c0 13.896 11.306 25.202 25.202 25.202h326.061c13.896 0 25.202-11.305 25.202-25.202v-242.096c0-13.896-11.306-25.202-25.202-25.202zm-185.877 277.5v-42.91l19.423 6.234c2.24.719 4.607.719 6.848 0l19.423-6.234v42.91z"/><path d="m75.032 431.407c4.143 0 7.5-3.358 7.5-7.5v-179.676c0-5.625 4.577-10.202 10.202-10.202h48.42c4.143 0 7.5-3.358 7.5-7.5s-3.357-7.5-7.5-7.5h-48.42c-13.896 0-25.202 11.306-25.202 25.202v179.676c0 4.142 3.357 7.5 7.5 7.5z"/><path d="m137.895 287.792h62.888c4.143 0 7.5-3.358 7.5-7.5s-3.357-7.5-7.5-7.5h-62.888c-10.184 0-18.469 8.285-18.469 18.469v111.914c0 10.184 8.285 18.468 18.469 18.468h184.783c4.143 0 7.5-3.358 7.5-7.5s-3.357-7.5-7.5-7.5h-184.783c-1.913 0-3.469-1.556-3.469-3.468v-111.914c.001-1.913 1.556-3.469 3.469-3.469z"/><path d="m373.634 406.643h-18.992c-4.143 0-7.5 3.358-7.5 7.5s3.357 7.5 7.5 7.5h18.992c10.184 0 18.469-8.285 18.469-18.468v-111.914c0-10.184-8.285-18.469-18.469-18.469h-62.887c-4.143 0-7.5 3.358-7.5 7.5s3.357 7.5 7.5 7.5h62.887c1.913 0 3.469 1.556 3.469 3.469v111.914c-.001 1.912-1.556 3.468-3.469 3.468z"/></g></g></svg>