<svg id="Capa_1" enable-background="new 0 0 511.799 511.799" height="512" viewBox="0 0 511.799 511.799" width="512" xmlns="http://www.w3.org/2000/svg"><g><g><path d="m282.439 329.047-12.999 10.687h-32.461l-8.618-10.687h-102.174v163.966h258.425v-163.966z" fill="#dfae91"/><path d="m162.782 482.232c-5.278 0-9.556-4.278-9.556-9.556v-143.629h-27.039v165.697c0 5.278 4.278 9.556 9.556 9.556h23.992l9.145-7.484h174.519l7.666 7.484h23.992c5.278 0 9.556-4.278 9.556-9.556v-12.511h-221.831z" fill="#d79c7a"/><g fill="#c7c0c7"><path d="m316.08 208.254 49.323 53.413 9.544 85.892c.478 4.306 4.118 7.563 8.45 7.563h6.214c4.695 0 8.502-3.806 8.502-8.502v-112.339c0-5.06-2.061-9.902-5.708-13.409l-34.452-33.134-41.873-40.288-33.268 24.853z"/><path d="m195.72 208.254-49.323 53.413-9.544 85.892c-.478 4.306-4.118 7.563-8.45 7.563h-6.214c-4.695 0-8.502-3.806-8.502-8.502v-112.339c0-5.06 2.061-9.902 5.708-13.409l34.452-33.134 47.047-37.841 42.642 30.459z"/><path d="m257.172 36.712h-3.546c-20.121 0-36.432 16.311-36.432 36.432v16.866h76.409v-16.866c.001-20.121-16.31-36.432-36.431-36.432z"/><path d="m424.472 90.01h27.53c6.992 0 12.66 5.668 12.66 12.66v27.12h-52.85v-27.12c0-6.992 5.668-12.66 12.66-12.66z"/><path d="m87.328 90.01h-27.53c-6.992 0-12.66 5.668-12.66 12.66v29.12h52.85v-29.12c0-6.992-5.668-12.66-12.66-12.66z"/></g><path d="m272.72 228.224h-34.641v44.264c0 3.907 3.167 7.074 7.074 7.074h20.492c3.907 0 7.074-3.167 7.074-7.074v-44.264z" fill="#e4e1e5"/><path d="m255.474 271.842c-3.907 0-7.074-3.167-7.074-7.074v-36.544h-10.32v44.263c0 3.907 3.167 7.074 7.074 7.074h20.492c3.907 0 7.074-3.167 7.074-7.074v-.645z" fill="#d6d1d6"/><path d="m192.376 215.044 17.949 22.099c2.611 3.214 6.531 5.081 10.672 5.081h68.808c4.141 0 8.061-1.866 10.672-5.081l17.949-22.099 38.597-47.136h-202.933z" fill="#d6d1d6"/><path d="m238.483 229.279c-4.141 0-8.061-1.866-10.672-5.081l-17.949-22.098-27.771-34.191h-28.001l38.286 47.136 17.949 22.099c2.611 3.214 6.531 5.081 10.672 5.081h68.808c4.141 0 8.061-1.866 10.672-5.081l6.387-7.864h-68.381z" fill="#c7c0c7"/><path d="m200.894 149.897-47.047 37.841-11.285 10.853 22.815 12.889c2.619 1.479 5.307 2.822 8.051 4.031l7.296 8.983 14.995-16.239 47.817-27.899z" fill="#b3adb5"/><path d="m357.952 187.738-41.872-40.288-33.268 24.853 33.268 35.952 14.465 15.664 6.916-8.446c2.713-1.198 5.371-2.529 7.961-3.992l23.445-13.244z" fill="#b3adb5"/><path d="m154.144 92.778-29.584 30.012h-84.728c-5.538 0-10.027 4.489-10.027 10.027v8.316c0 5.538 4.489 10.027 10.027 10.027h49.266l83.658 47.259c11.412 6.447 24.297 9.835 37.404 9.835h90.48c13.107 0 25.992-3.388 37.404-9.835l83.658-47.259h49.266c5.538 0 10.027-4.489 10.027-10.027v-8.316c0-5.538-4.489-10.027-10.027-10.027h-84.728l-29.584-30.012c-12.382-12.562-29.285-19.634-46.924-19.634h-108.665c-17.639 0-34.541 7.072-46.923 19.634z" fill="#e4e1e5"/><g><path d="m52.59 151.028c0-5.763 4.581-10.435 10.232-10.435h75.548c6.977 0 13.655-2.833 18.504-7.849l22.603-23.386c12.636-13.073 29.885-20.434 47.886-20.434h110.893c5.65 0 11.249.729 16.631 2.128-12.197-11.473-28.35-17.909-45.158-17.909h-108.663c-17.639 0-34.541 7.073-46.924 19.635l-29.584 30.012h-84.727c-5.538 0-10.027 4.489-10.027 10.027v8.316c0 5.538 4.489 10.027 10.027 10.027h12.759z" fill="#d6d1d6"/></g><path d="m95.815 40.357h-44.504v-11.536c0-11.775 9.546-21.321 21.321-21.321h1.862c11.775 0 21.321 9.546 21.321 21.321z" fill="#b3adb5"/><path d="m415.984 40.357h44.504v-11.536c0-11.775-9.546-21.321-21.321-21.321h-1.862c-11.775 0-21.321 9.546-21.321 21.321z" fill="#b3adb5"/><path d="m323.12 159.232h-135.441c-10.664 0-19.309-8.645-19.309-19.309 0-10.664 8.645-19.309 19.309-19.309h135.441c10.664 0 19.309 8.645 19.309 19.309 0 10.664-8.645 19.309-19.309 19.309z" fill="#fcf0b6"/><path d="m282.439 329.047h-54.078v48.757c0 3.744 3.893 6.217 7.282 4.625l18.044-8.474c1.399-.657 3.021-.646 4.411.032l16.992 8.281c3.394 1.654 7.349-.818 7.349-4.594z" fill="#fbe372"/><path d="m351.065 504.299h-191.33v-83.314c0-4.303 3.488-7.791 7.791-7.791h175.748c4.303 0 7.791 3.488 7.791 7.791z" fill="#f8f7f8"/><path d="m162.782 482.232c-1.067 0-2.089-.182-3.047-.505v22.572h191.33v-22.067z" fill="#efedee"/></g><g><path d="m494.907 32.857h-26.918v-4.036c0-15.892-12.929-28.821-28.821-28.821h-1.862c-15.892 0-28.821 12.929-28.821 28.821v4.036h-27.899c-4.142 0-7.5 3.358-7.5 7.5s3.358 7.5 7.5 7.5h50.151v34.653h-6.265c-11.116 0-20.16 9.044-20.16 20.16v12.62h-14.934l-27.381-27.777c-13.699-13.898-32.749-21.869-52.265-21.869h-9.282c-3.571-20.662-21.612-36.432-43.278-36.432h-3.546c-21.666 0-39.707 15.77-43.278 36.432h-9.282c-19.516 0-38.565 7.971-52.265 21.869l-27.381 27.777h-13.934v-12.62c0-11.116-9.044-20.16-20.16-20.16h-6.265v-34.653h50.151c4.142 0 7.5-3.358 7.5-7.5s-3.358-7.5-7.5-7.5h-27.899v-4.036c.002-15.892-12.927-28.821-28.819-28.821h-1.862c-15.892 0-28.821 12.929-28.821 28.821v4.036h-26.919c-4.142 0-7.5 3.358-7.5 7.5s3.358 7.5 7.5 7.5h49.17v34.653h-6.265c-11.116 0-20.16 9.044-20.16 20.16v12.63c-9.574.106-17.332 7.918-17.332 17.517v8.316c0 9.664 7.862 17.526 17.526 17.526h47.293l54.263 30.654-27.193 26.152c-5.09 4.896-8.009 11.753-8.009 18.814v34.163c0 4.142 3.358 7.5 7.5 7.5s7.5-3.358 7.5-7.5v-34.163c0-3.004 1.242-5.921 3.407-8.003l30.426-29.262 14.046 7.935c4.403 2.487 9.018 4.552 13.774 6.196l-41.954 45.432c-1.086 1.176-1.768 2.669-1.944 4.26l-9.543 85.892c-.057.508-.484.891-.996.891h-6.214c-.552 0-1.001-.45-1.001-1.002v-46.214c0-4.142-3.358-7.5-7.5-7.5s-7.5 3.358-7.5 7.5v46.214c0 7.62 5.357 14.001 12.5 15.604v132.52c0 9.405 7.651 17.056 17.056 17.056h239.313c9.405 0 17.056-7.651 17.056-17.056v-132.336c7.636-1.207 13.5-7.816 13.5-15.786v-46.214c0-4.142-3.358-7.5-7.5-7.5s-7.5 3.358-7.5 7.5v46.214c0 .552-.449 1.002-1.001 1.002h-6.214c-.511 0-.939-.383-.996-.891l-9.543-85.893c-.177-1.591-.858-3.084-1.944-4.26l-42.199-45.697c4.489-1.6 8.85-3.577 13.019-5.932l14.676-8.291 30.796 29.618c2.166 2.083 3.407 5 3.407 8.004v34.163c0 4.142 3.358 7.5 7.5 7.5s7.5-3.358 7.5-7.5v-34.163c0-7.062-2.919-13.919-8.009-18.815l-27.562-26.508 53.633-30.298h47.293c9.664 0 17.526-7.862 17.526-17.526v-8.316c0-9.261-7.225-16.848-16.332-17.466v-12.681c0-11.116-9.044-20.16-20.16-20.16h-6.265v-34.653h49.17c4.142 0 7.5-3.358 7.5-7.5s-3.357-7.5-7.499-7.5zm-436.096-4.036c0-7.621 6.2-13.821 13.821-13.821h1.862c7.621 0 13.821 6.2 13.821 13.821v4.036h-29.504zm194.816 15.391h3.546c13.36 0 24.634 9.103 27.946 21.432h-59.439c3.312-12.329 14.587-21.432 27.947-21.432zm-198.989 58.458c0-2.845 2.315-5.16 5.16-5.16h27.529c2.845 0 5.16 2.315 5.16 5.16v12.62h-37.85v-12.62zm190.941 169.392v-22.338h19.641v22.338zm-24.583-37.338c-1.891 0-3.658-.842-4.85-2.309l-13.835-17.035c2.605.247 5.224.375 7.849.375h90.479c2.625 0 5.244-.128 7.849-.375l-13.835 17.035c-1.192 1.467-2.959 2.309-4.85 2.309zm-30.353-9.917 13.859 17.064c4.053 4.99 10.065 7.852 16.494 7.852h9.583v22.764c0 8.036 6.538 14.574 14.574 14.574h3.246v34.485h-101.11l6.289-56.603zm45.218 111.74h39.078v37.304l-13.556-6.606c-3.447-1.68-7.414-1.708-10.884-.078l-14.638 6.875zm139.195 160.252h-16.492v-24.848c0-4.142-3.358-7.5-7.5-7.5s-7.5 3.358-7.5 7.5v24.848h-176.33v-75.814c0-.161.13-.292.291-.292h175.748c.161 0 .291.131.291.292v19.004c0 4.142 3.358 7.5 7.5 7.5s7.5-3.358 7.5-7.5v-19.004c0-8.432-6.859-15.292-15.291-15.292h-175.747c-8.432 0-15.291 6.86-15.291 15.292v75.814h-16.492c-1.134 0-2.056-.922-2.056-2.056v-133.03c5.667-1.98 9.923-7.049 10.62-13.326l1.316-11.84h75.238v41.257c0 4.339 2.187 8.318 5.849 10.644 2.063 1.311 4.402 1.974 6.753 1.974 1.823 0 3.653-.399 5.368-1.205l17.009-7.987 15.964 7.779c3.933 1.917 8.498 1.677 12.208-.642 3.711-2.32 5.926-6.317 5.926-10.693v-41.127h76.238l1.316 11.841c.656 5.901 4.458 10.734 9.62 12.938v133.417c.001 1.134-.922 2.056-2.056 2.056zm-10.546-175.252h-101.11v-34.485h2.246c8.036 0 14.574-6.538 14.574-14.574v-22.764h9.583c6.429 0 12.44-2.862 16.494-7.852l14.327-17.641 37.597 40.713zm108.983-188.73v8.316c0 1.393-1.133 2.526-2.526 2.526h-49.266c-1.292 0-2.563.334-3.689.97l-83.658 47.259c-10.266 5.8-21.925 8.865-33.715 8.865h-90.479c-11.791 0-23.449-3.065-33.715-8.865l-18.956-10.708c-.014-.008-.028-.016-.042-.024l-64.66-36.527c-1.125-.636-2.396-.97-3.689-.97h-49.266c-1.393 0-2.526-1.133-2.526-2.526v-8.316c0-1.394 1.133-2.527 2.526-2.527h84.728c2.008 0 3.932-.805 5.341-2.235l29.584-30.012c10.899-11.058 26.055-17.399 41.582-17.399h108.665c15.527 0 30.683 6.342 41.582 17.399l29.584 30.012c1.41 1.43 3.333 2.235 5.341 2.235h84.728c1.393.001 2.526 1.134 2.526 2.527zm-16.332-30.147v12.62h-37.85v-12.62c0-2.845 2.315-5.16 5.16-5.16h27.529c2.846 0 5.161 2.315 5.161 5.16zm-33.676-69.813v-4.036c0-7.621 6.2-13.821 13.821-13.821h1.862c7.621 0 13.821 6.2 13.821 13.821v4.036z"/><path d="m323.12 113.115h-135.441c-14.782 0-26.809 12.026-26.809 26.809s12.026 26.808 26.809 26.808h135.441c14.782 0 26.809-12.026 26.809-26.809s-12.026-26.808-26.809-26.808zm-76.354 15h18.776v23.617h-18.776zm-15 23.616h-18.775v-23.617h18.775zm48.776-23.616h18.775v23.617h-18.775zm-104.672 11.808c0-6.511 5.297-11.808 11.809-11.808h10.312v23.617h-10.312c-6.511-.001-11.809-5.298-11.809-11.809zm147.25 11.808h-8.803v-23.617h8.803c6.511 0 11.809 5.297 11.809 11.809s-5.297 11.808-11.809 11.808z"/></g></g></svg>