<svg id="Capa_1" enable-background="new 0 0 511.987 511.987" height="512" viewBox="0 0 511.987 511.987" width="512" xmlns="http://www.w3.org/2000/svg"><g><g><path d="m450.089 440.783c0-10.206 7.249-18.701 16.876-20.659 1.599-.325 2.743-1.737 2.743-3.369v-24.676c0-1.632-1.144-3.043-2.743-3.369-9.628-1.958-16.876-10.453-16.876-20.659s7.249-18.701 16.876-20.659c1.599-.325 2.743-1.737 2.743-3.369v-24.676c0-1.632-1.144-3.043-2.743-3.369-9.628-1.958-16.876-10.453-16.876-20.659s7.249-18.701 16.876-20.659c1.599-.325 2.743-1.737 2.743-3.369v-24.676c0-1.632-1.144-3.043-2.743-3.369-9.628-1.958-16.876-10.453-16.876-20.659s7.249-18.701 16.876-20.659c1.599-.325 2.743-1.737 2.743-3.369v-24.676c0-1.632-1.144-3.043-2.743-3.369-9.628-1.958-16.876-10.453-16.876-20.659s7.249-18.701 16.876-20.659c1.599-.325 2.743-1.737 2.743-3.369v-24.676c0-1.632-1.144-3.043-2.743-3.369-9.628-1.958-16.876-10.453-16.876-20.659s7.249-18.701 16.876-20.659c1.599-.325 2.743-1.737 2.743-3.369v-32.928c0-6.996-5.671-12.667-12.667-12.667h-31.518c-1.713 0-3.168 1.259-3.405 2.956-1.437 10.258-10.248 18.151-20.902 18.151s-19.464-7.894-20.902-18.151c-.238-1.697-1.692-2.956-3.405-2.956h-24.117c-1.713 0-3.168 1.259-3.405 2.956-1.437 10.258-10.248 18.151-20.902 18.151s-19.464-7.894-20.902-18.151c-.238-1.697-1.692-2.956-3.405-2.956h-24.117c-1.713 0-3.168 1.259-3.405 2.956-1.437 10.258-10.248 18.151-20.902 18.151s-19.464-7.894-20.902-18.151c-.238-1.697-1.692-2.956-3.405-2.956h-24.117c-1.713 0-3.168 1.259-3.405 2.956-1.437 10.258-10.248 18.151-20.902 18.151s-19.464-7.894-20.902-18.151c-.238-1.697-1.692-2.956-3.405-2.956h-24.117c-1.713 0-3.168 1.259-3.405 2.956-1.437 10.258-10.248 18.151-20.902 18.151s-19.464-7.894-20.902-18.151c-.242-1.697-1.696-2.956-3.409-2.956h-31.035c-6.996 0-12.667 5.671-12.667 12.667v32.742c0 1.687 1.221 3.127 2.886 3.395 10.052 1.614 17.733 10.312 17.733 20.82s-7.681 19.205-17.733 20.82c-1.665.267-2.886 1.708-2.886 3.395v24.303c0 1.687 1.221 3.127 2.886 3.395 10.052 1.614 17.733 10.312 17.733 20.82 0 10.507-7.681 19.205-17.733 20.82-1.665.267-2.886 1.708-2.886 3.395v24.303c0 1.687 1.221 3.127 2.886 3.395 10.052 1.614 17.733 10.312 17.733 20.82 0 10.507-7.681 19.205-17.733 20.82-1.665.267-2.886 1.708-2.886 3.395v24.303c0 1.687 1.221 3.127 2.886 3.395 10.052 1.615 17.733 10.313 17.733 20.82s-7.681 19.205-17.733 20.82c-1.665.267-2.886 1.708-2.886 3.395v24.303c0 1.687 1.221 3.127 2.886 3.395 10.052 1.614 17.733 10.312 17.733 20.82s-7.681 19.205-17.733 20.82c-1.665.267-2.886 1.708-2.886 3.395v24.303c0 1.687 1.221 3.127 2.886 3.395 10.052 1.614 17.733 10.312 17.733 20.82s-7.681 19.205-17.733 20.82c-1.665.267-2.886 1.708-2.886 3.395v26.822c0 6.996 5.671 12.667 12.667 12.667h31.034c1.713 0 3.168-1.259 3.405-2.956 1.437-10.258 10.248-18.151 20.902-18.151s19.464 7.894 20.902 18.151c.238 1.697 1.692 2.956 3.405 2.956h24.117c1.713 0 3.168-1.259 3.405-2.956 1.437-10.258 10.248-18.151 20.902-18.151s19.464 7.894 20.902 18.151c.238 1.697 1.692 2.956 3.405 2.956h24.117c1.713 0 3.168-1.259 3.405-2.956 1.437-10.258 10.248-18.151 20.902-18.151s19.464 7.894 20.902 18.151c.238 1.697 1.692 2.956 3.405 2.956h24.117c1.713 0 3.168-1.259 3.405-2.956 1.437-10.258 10.248-18.151 20.902-18.151s19.464 7.894 20.902 18.151c.238 1.697 1.692 2.956 3.405 2.956h24.117c1.713 0 3.168-1.259 3.405-2.956 1.437-10.258 10.248-18.151 20.902-18.151s19.464 7.894 20.902 18.151c.238 1.697 1.692 2.956 3.405 2.956h31.518c6.996 0 12.667-5.671 12.667-12.667v-27.008c0-1.632-1.144-3.043-2.743-3.369-9.622-1.965-16.871-10.46-16.871-20.666z" fill="#fcf1de"/><g id="XMLID_268_"><g><path d="m466.965 461.443c-9.628-1.958-16.876-10.453-16.876-20.659 0-1.256.112-2.485.323-3.68h-299.65c-12.414 0-22.478-10.064-22.478-22.478v-396.129c-3.71 6.058-10.372 10.111-17.996 10.111-10.654 0-19.464-7.894-20.902-18.151-.238-1.698-1.692-2.957-3.405-2.957h-31.035c-6.996 0-12.667 5.671-12.667 12.667v32.742c0 1.687 1.221 3.127 2.886 3.395 10.052 1.615 17.733 10.312 17.733 20.82s-7.681 19.205-17.733 20.82c-1.665.267-2.886 1.708-2.886 3.395v24.303c0 1.687 1.221 3.127 2.886 3.395 10.052 1.615 17.733 10.312 17.733 20.82s-7.681 19.205-17.733 20.82c-1.665.267-2.886 1.708-2.886 3.395v24.303c0 1.687 1.221 3.127 2.886 3.395 10.052 1.615 17.733 10.312 17.733 20.82 0 10.507-7.681 19.205-17.733 20.82-1.665.267-2.886 1.708-2.886 3.395v24.303c0 1.687 1.221 3.127 2.886 3.395 10.052 1.615 17.733 10.313 17.733 20.82s-7.681 19.205-17.733 20.82c-1.665.267-2.886 1.708-2.886 3.395v24.303c0 1.687 1.221 3.127 2.886 3.395 10.052 1.615 17.733 10.312 17.733 20.82s-7.681 19.205-17.733 20.82c-1.665.268-2.886 1.708-2.886 3.395v24.303c0 1.687 1.221 3.127 2.886 3.395 10.052 1.615 17.733 10.312 17.733 20.82s-7.681 19.205-17.733 20.82c-1.665.268-2.886 1.708-2.886 3.395v26.822c0 6.996 5.671 12.667 12.667 12.667h31.034c1.713 0 3.168-1.259 3.405-2.956 1.437-10.258 10.248-18.151 20.902-18.151s19.464 7.894 20.902 18.151c.238 1.697 1.692 2.956 3.405 2.956h24.117c1.713 0 3.168-1.259 3.405-2.956 1.437-10.258 10.248-18.151 20.902-18.151s19.464 7.894 20.902 18.151c.238 1.697 1.692 2.956 3.405 2.956h24.117c1.713 0 3.168-1.259 3.405-2.956 1.437-10.258 10.248-18.151 20.902-18.151s19.464 7.894 20.902 18.151c.238 1.697 1.692 2.956 3.405 2.956h24.117c1.713 0 3.168-1.259 3.405-2.956 1.437-10.258 10.248-18.151 20.902-18.151s19.464 7.894 20.902 18.151c.238 1.697 1.692 2.956 3.405 2.956h24.117c1.713 0 3.168-1.259 3.405-2.956 1.437-10.258 10.248-18.151 20.902-18.151s19.464 7.894 20.902 18.151c.238 1.697 1.692 2.956 3.405 2.956h31.518c6.996 0 12.667-5.671 12.667-12.667v-27.009c.005-1.637-1.139-3.049-2.738-3.374z" fill="#f6e2c4"/><path d="m417.754 56.017h-323.52c-2.52 0-4.57 2.05-4.57 4.57v255.31l30.937 73.701h268.596l33.127-73.701v-255.31c0-2.52-2.05-4.57-4.57-4.57z" fill="#d9f2f6"/><circle cx="256.494" cy="302.804" fill="#f9de58" r="98.952"/><path d="m197.371 302.804c0-47.828 33.922-87.738 79.026-96.954-6.433-1.315-13.082-1.997-19.904-1.997-54.65 0-98.952 44.302-98.952 98.952s44.302 98.952 98.952 98.952c6.822 0 13.482-.691 19.915-2.005-45.104-9.218-79.037-49.12-79.037-96.948z" fill="#f8d448"/></g></g><path d="m128.284 389.598v-333.581h-34.05c-2.52 0-4.57 2.05-4.57 4.57v255.31l30.937 73.701z" fill="#b3e5ee"/><path d="m380.269 435.089 31.135-14.791 10.92-25.431v-54.617l-19.67 10.591-49.414 4.538-37.001-9.322-69.188-9.069-64.134 21.112-48.888-6.733-44.365-8.38v51.88l19.192 36.636z" fill="#b3e5ee"/><path d="m136.344 431.867c-4.926-4.124-8.06-10.316-8.06-17.242v-64.343l-38.62-7.295v51.881l19.193 36.636z" fill="#86d7e5"/><g id="XMLID_269_"><g><path d="m422.324 394.867v56.53c0 2.53-2.05 4.57-4.57 4.57h-323.52c-2.52 0-4.57-2.04-4.57-4.57v-56.53l39.12 14.6c26.61 9.93 56.13 8.42 81.58-4.18 14.38-7.12 30.01-10.68 45.63-10.68s31.25 3.56 45.63 10.68c14.33 7.09 29.95 10.67 45.62 10.67 12.15 0 24.33-2.15 35.96-6.49z" fill="#86d7e5"/><path d="m422.324 437.103h-271.562c-12.414 0-22.478-10.064-22.478-22.478v-5.344l-38.62-14.414v56.53c0 2.53 2.05 4.57 4.57 4.57h323.52c2.52 0 4.57-2.04 4.57-4.57z" fill="#65cfdf"/><path d="m422.324 315.897v39.49l-39.12 14.6c-11.62 4.34-23.8 6.49-35.95 6.49-15.67 0-31.29-3.58-45.63-10.68-14.38-7.11-30.01-10.67-45.63-10.67s-31.25 3.56-45.63 10.67c-25.45 12.6-54.97 14.12-81.58 4.19l-39.12-14.6v-39.49l39.12 14.6c26.61 9.93 56.13 8.41 81.58-4.18 14.38-7.12 30.01-10.68 45.63-10.68s31.25 3.56 45.63 10.68c14.33 7.09 29.96 10.67 45.63 10.67 12.15 0 24.33-2.15 35.95-6.49z" fill="#86d7e5"/><path d="m128.284 330.311-38.62-14.414v39.49l38.62 14.414z" fill="#65cfdf"/></g></g><g fill="#f8f7f8"><path d="m236.102 130.012c.817-11.089-3.52-22.455-12.903-30.211-13.903-11.492-34.586-10.66-47.535 1.897-7.972 7.731-11.536 18.162-10.788 28.309.077 1.039-.751 1.919-1.793 1.919h-11.04c-8.604 0-15.58 6.975-15.58 15.58 0 8.604 6.975 15.58 15.58 15.58h96.901c8.605 0 15.58-6.975 15.58-15.58 0-8.604-6.975-15.58-15.58-15.58h-11.048c-1.04 0-1.871-.877-1.794-1.914z"/><path d="m351.848 241.979c.817-11.089-3.52-22.455-12.903-30.211-13.903-11.492-34.586-10.66-47.535 1.897-7.972 7.731-11.536 18.162-10.788 28.309.077 1.039-.751 1.919-1.793 1.919h-11.04c-8.604 0-15.58 6.975-15.58 15.58 0 8.604 6.975 15.58 15.58 15.58h96.901c8.604 0 15.58-6.975 15.58-15.58 0-8.604-6.975-15.58-15.58-15.58h-11.048c-1.04 0-1.871-.877-1.794-1.914z"/></g></g><g><path d="m468.46 63.814c5.069-1.031 8.748-5.539 8.748-10.718v-32.929c0-11.12-9.047-20.167-20.167-20.167h-31.518c-5.424 0-10.081 4.047-10.833 9.415-.934 6.666-6.727 11.693-13.475 11.693s-12.541-5.027-13.475-11.693c-.751-5.368-5.408-9.415-10.831-9.415h-24.117c-5.424 0-10.081 4.047-10.833 9.415-.934 6.666-6.727 11.693-13.475 11.693s-12.541-5.027-13.475-11.693c-.752-5.368-5.409-9.415-10.832-9.415h-24.118c-5.423 0-10.081 4.047-10.833 9.415-.934 6.666-6.727 11.693-13.475 11.693s-12.541-5.027-13.475-11.693c-.751-5.368-5.408-9.415-10.831-9.415h-24.118c-5.423 0-10.081 4.047-10.833 9.415-.934 6.666-6.727 11.693-13.475 11.693s-12.541-5.027-13.475-11.693c-.751-5.368-5.408-9.415-10.831-9.415h-24.118c-5.423 0-10.081 4.047-10.833 9.415-.934 6.666-6.727 11.693-13.475 11.693s-12.539-5.027-13.474-11.693c-.751-5.368-5.409-9.415-10.832-9.415h-31.035c-11.12 0-20.167 9.047-20.167 20.167v32.742c0 5.402 3.868 9.944 9.197 10.8 6.619 1.063 11.422 6.704 11.422 13.414s-4.804 12.351-11.423 13.414c-5.329.856-9.196 5.398-9.196 10.8v24.303c0 5.402 3.868 9.944 9.197 10.8 6.619 1.063 11.422 6.704 11.422 13.414s-4.804 12.352-11.42 13.415c-5.33.854-9.199 5.396-9.199 10.8v24.303c0 5.402 3.868 9.944 9.197 10.8 6.619 1.063 11.422 6.704 11.422 13.414s-4.804 12.352-11.42 13.415c-5.33.854-9.199 5.396-9.199 10.8v24.303c0 5.402 3.867 9.944 9.196 10.8 6.619 1.063 11.423 6.704 11.423 13.414s-4.804 12.352-11.42 13.415c-5.33.854-9.199 5.396-9.199 10.8v24.303c0 5.402 3.868 9.944 9.197 10.8 6.619 1.063 11.422 6.705 11.422 13.415 0 6.709-4.804 12.351-11.423 13.415-5.329.856-9.196 5.398-9.196 10.8v24.303c0 5.402 3.868 9.944 9.197 10.8 6.619 1.063 11.422 6.705 11.422 13.415 0 6.709-4.804 12.351-11.423 13.414-5.329.856-9.196 5.398-9.196 10.8v26.822c0 11.121 9.047 20.167 20.167 20.167h31.035c5.423 0 10.081-4.048 10.833-9.415.934-6.666 6.727-11.692 13.475-11.692s12.541 5.026 13.475 11.692c.752 5.367 5.409 9.415 10.833 9.415h24.118c5.423 0 10.081-4.048 10.833-9.415.934-6.666 6.727-11.692 13.475-11.692s12.541 5.026 13.475 11.692c.752 5.367 5.409 9.415 10.833 9.415h24.118c5.423 0 10.081-4.048 10.833-9.415.934-6.666 6.727-11.692 13.475-11.692s12.541 5.026 13.475 11.692c.752 5.367 5.409 9.415 10.833 9.415h24.118c5.423 0 10.081-4.048 10.833-9.415.934-6.666 6.727-11.692 13.475-11.692s12.541 5.026 13.475 11.692c.752 5.367 5.409 9.415 10.833 9.415h24.117c5.423 0 10.081-4.048 10.833-9.415.934-6.666 6.727-11.692 13.475-11.692s12.541 5.026 13.475 11.692c.752 5.367 5.409 9.415 10.833 9.415h31.518c11.12 0 20.167-9.047 20.167-20.167v-27.008c0-5.18-3.679-9.688-8.748-10.718-6.299-1.281-10.872-6.879-10.872-13.31s4.572-12.029 10.871-13.31c5.069-1.031 8.748-5.539 8.748-10.718v-24.676c0-5.178-3.678-9.686-8.748-10.719-6.299-1.281-10.871-6.878-10.871-13.309s4.572-12.029 10.871-13.31c5.069-1.031 8.748-5.539 8.748-10.718v-24.676c0-5.179-3.678-9.686-8.748-10.719-6.299-1.281-10.871-6.878-10.871-13.31 0-6.431 4.572-12.028 10.871-13.31 5.069-1.031 8.748-5.539 8.748-10.718v-24.676c0-5.179-3.678-9.686-8.748-10.719-6.299-1.281-10.871-6.878-10.871-13.31s4.572-12.028 10.871-13.31c5.069-1.031 8.748-5.539 8.748-10.718v-24.676c0-5.179-3.678-9.686-8.748-10.719-6.299-1.281-10.871-6.878-10.871-13.31s4.572-12.028 10.871-13.31c5.069-1.031 8.748-5.539 8.748-10.718v-24.676c0-5.18-3.679-9.688-8.748-10.718-6.299-1.281-10.871-6.878-10.871-13.31s4.564-12.026 10.863-13.307zm-6.252 40.45v18.451c-11.546 3.821-19.619 14.745-19.619 27.141s8.074 23.321 19.619 27.141v18.451c-11.546 3.821-19.619 14.745-19.619 27.141s8.074 23.321 19.619 27.141v18.451c-11.545 3.821-19.619 14.746-19.619 27.141 0 12.396 8.074 23.321 19.619 27.141v18.451c-11.545 3.821-19.619 14.746-19.619 27.141 0 12.396 8.074 23.32 19.619 27.14v18.451c-11.545 3.821-19.619 14.746-19.619 27.141s8.073 23.319 19.619 27.141v23.896c0 2.849-2.318 5.167-5.167 5.167h-28.215c-3.334-12.252-14.633-21.107-27.61-21.107s-24.276 8.855-27.61 21.107h-17.511c-3.334-12.252-14.633-21.107-27.61-21.107s-24.276 8.855-27.61 21.107h-17.511c-3.334-12.252-14.633-21.107-27.61-21.107s-24.276 8.855-27.61 21.107h-17.514c-3.334-12.252-14.633-21.107-27.61-21.107s-24.276 8.855-27.61 21.107h-17.511c-3.334-12.252-14.633-21.107-27.61-21.107s-24.276 8.855-27.61 21.107h-27.733c-2.849 0-5.167-2.318-5.167-5.167v-23.575c12.134-3.483 20.619-14.53 20.619-27.461s-8.485-23.978-20.619-27.462v-17.809c12.134-3.484 20.619-14.53 20.619-27.461s-8.485-23.979-20.619-27.462v-17.809c12.134-3.484 20.619-14.53 20.619-27.462s-8.485-23.979-20.619-27.461v-17.809c12.134-3.484 20.619-14.53 20.619-27.462s-8.485-23.979-20.619-27.461v-17.809c12.134-3.484 20.619-14.53 20.619-27.462s-8.485-23.979-20.619-27.461v-17.809c12.133-3.484 20.619-14.53 20.619-27.461 0-12.932-8.485-23.979-20.619-27.461v-29.5c0-2.849 2.318-5.167 5.167-5.167h27.731c3.335 12.251 14.634 21.107 27.61 21.107s24.275-8.856 27.61-21.107h17.511c3.335 12.251 14.634 21.107 27.61 21.107s24.277-8.856 27.612-21.107h17.511c3.335 12.251 14.634 21.107 27.61 21.107s24.275-8.856 27.61-21.107h17.511c3.335 12.251 14.634 21.107 27.61 21.107s24.275-8.856 27.61-21.107h17.511c3.335 12.251 14.634 21.107 27.61 21.107s24.275-8.856 27.61-21.107h28.215c2.849 0 5.167 2.318 5.167 5.167v29.816c-11.546 3.821-19.619 14.745-19.619 27.141s8.076 23.319 19.622 27.14z"/><path d="m272.023 147.505c0-12.726-10.354-23.08-23.08-23.08h-5.349c-.813-11.742-6.411-22.795-15.618-30.406-16.979-14.035-41.713-13.048-57.534 2.293-7.753 7.518-12.349 17.519-13.066 28.112h-5.334c-12.727 0-23.08 10.354-23.08 23.08s10.354 23.08 23.08 23.08h96.901c12.727.001 23.08-10.352 23.08-23.079zm-128.061 0c0-4.455 3.625-8.08 8.08-8.08h11.04c2.578 0 5.062-1.083 6.816-2.971 1.751-1.885 2.646-4.437 2.457-7-.617-8.364 2.492-16.518 8.53-22.373 10.153-9.848 26.641-10.505 37.535-1.5 7.165 5.922 10.883 14.626 10.201 23.879v.001c-.188 2.562.708 5.11 2.457 6.993 1.754 1.888 4.239 2.971 6.817 2.971h11.048c4.456 0 8.08 3.625 8.08 8.08s-3.625 8.08-8.08 8.08h-96.901c-4.455 0-8.08-3.624-8.08-8.08z"/><path d="m343.723 205.987c-16.979-14.033-41.712-13.048-57.534 2.293-7.752 7.518-12.348 17.519-13.065 28.113h-5.335c-12.726 0-23.08 10.354-23.08 23.08 0 12.727 10.354 23.08 23.08 23.08h96.901c12.726 0 23.08-10.354 23.08-23.08s-10.354-23.08-23.08-23.08h-5.349c-.814-11.742-6.411-22.796-15.618-30.406zm20.966 45.406c4.455 0 8.08 3.625 8.08 8.08 0 4.456-3.625 8.08-8.08 8.08h-96.901c-4.455 0-8.08-3.625-8.08-8.08s3.625-8.08 8.08-8.08h11.041c2.578 0 5.062-1.083 6.815-2.971 1.751-1.885 2.646-4.436 2.457-7-.616-8.364 2.493-16.519 8.53-22.374 10.154-9.845 26.642-10.504 37.535-1.5 7.165 5.922 10.883 14.626 10.202 23.879v.001c-.188 2.562.708 5.11 2.457 6.993 1.754 1.888 4.239 2.971 6.817 2.971h11.047z"/><path d="m417.75 48.516h-37.481c-4.142 0-7.5 3.358-7.5 7.5s3.358 7.5 7.5 7.5h34.554v247.179l-34.246 12.779c-7.418 2.768-15.109 4.564-22.879 5.412 1.85-7.767 2.817-15.736 2.838-23.813.011-4.143-3.338-7.509-7.48-7.52-4.165.025-7.509 3.338-7.52 7.48-.021 8.277-1.192 16.418-3.444 24.282-12.808-.694-25.477-3.948-37.144-9.724-30.654-15.177-67.256-15.177-97.91 0-11.371 5.63-23.694 8.859-36.169 9.662-2.261-7.925-3.424-16.123-3.424-24.451 0-12.636 2.594-24.846 7.71-36.292 1.69-3.782-.005-8.218-3.787-9.908s-8.218.006-9.908 3.787c-5.982 13.385-9.016 27.655-9.016 42.414 0 8.204.978 16.301 2.868 24.194-8.118-.798-16.16-2.634-23.903-5.523l-34.246-12.779v-145.586c0-4.142-3.358-7.5-7.5-7.5s-7.5 3.358-7.5 7.5v286.289c0 6.657 5.416 12.073 12.073 12.073h323.514c6.657 0 12.073-5.416 12.073-12.073v-390.809c0-6.657-5.416-12.073-12.073-12.073zm-320.586 317.675 29.002 10.822c12.407 4.629 25.475 6.926 38.525 6.926 16.854 0 33.676-3.832 49.003-11.42 26.487-13.113 58.113-13.113 84.6 0 27.194 13.463 59.096 15.1 87.528 4.494l29.002-10.822v23.474l-34.246 12.779c-24.565 9.167-52.131 7.751-75.628-3.882-30.654-15.177-67.256-15.177-97.91 0-23.497 11.632-51.063 13.049-75.628 3.882l-34.246-12.779v-23.474zm29.002-28.664c12.407 4.629 25.476 6.927 38.525 6.927 16.853 0 33.676-3.832 49.002-11.42 26.487-13.113 58.113-13.113 84.6 0 27.193 13.464 59.096 15.103 87.528 4.494l29.002-10.822v23.475l-34.246 12.778c-24.566 9.165-52.131 7.75-75.629-3.882-30.654-15.177-67.256-15.177-97.91 0-23.497 11.633-51.062 13.048-75.628 3.882l-34.246-12.779v-23.475zm-29.002 110.944v-42.795l29.002 10.822c12.409 4.63 25.474 6.927 38.525 6.927 16.852 0 33.677-3.833 49.002-11.42 26.487-13.113 58.112-13.113 84.6 0 27.194 13.464 59.097 15.101 87.528 4.493l29.002-10.822v42.795z"/><path d="m89.664 140.647c4.142 0 7.5-3.358 7.5-7.5v-69.631h251.143c4.142 0 7.5-3.358 7.5-7.5s-3.358-7.5-7.5-7.5h-254.07c-6.657 0-12.073 5.416-12.073 12.073v72.558c0 4.142 3.358 7.5 7.5 7.5z"/><path d="m186.007 246.331c2.002 0 4-.797 5.476-2.374 17.03-18.187 40.118-28.203 65.01-28.203.57 0 1.139.011 1.706.022 4.117.076 7.563-3.214 7.642-7.355.079-4.142-3.214-7.563-7.355-7.642-.663-.013-1.326-.025-1.992-.025-28.665 0-56.351 12.01-75.959 32.95-2.831 3.023-2.675 7.77.348 10.601 1.446 1.355 3.287 2.026 5.124 2.026z"/></g></g></svg>