<svg id="Capa_1" enable-background="new 0 0 503.655 503.655" height="512" viewBox="0 0 503.655 503.655" width="512" xmlns="http://www.w3.org/2000/svg"><g><g><path d="m448.109 476.136v-231.116c0-5.688-4.611-10.3-10.3-10.3h-371.963c-5.688 0-10.3 4.611-10.3 10.3v231.116z" fill="#dfae91"/><g><path d="m245.25 77.197h-55.937v-62.162c0-6.341-7.37-9.83-12.275-5.812l-100.305 82.162c-3.67 3.006-3.67 8.619 0 11.625l100.305 82.162c4.905 4.018 12.275.528 12.275-5.812v-62.162h56.241c42.681 0 78.095 34.08 78.509 76.759.418 43.096-34.519 78.289-77.52 78.289h-77.822c-6.94 0-12.567 5.626-12.567 12.567v14.866c0 6.941 5.626 12.567 12.567 12.567h77.822c65.032 0 117.896-53.094 117.522-118.211-.373-64.851-53.964-116.838-118.815-116.838z" fill="#e5827f"/><path d="m245.25 77.197h-55.937v-62.162c0-6.341-7.37-9.83-12.275-5.812l-100.305 82.162c-3.67 3.006-3.67 8.619 0 11.625l100.305 82.162c4.905 4.018 12.275.528 12.275-5.812v-62.162h56.241c42.681 0 78.095 34.08 78.509 76.759.418 43.096-34.519 78.289-77.52 78.289h-77.822c-6.94 0-12.567 5.626-12.567 12.567v14.866c0 6.941 5.626 12.567 12.567 12.567h77.822c65.032 0 117.896-53.094 117.522-118.211-.373-64.851-53.964-116.838-118.815-116.838z" fill="#e5827f"/><g><path d="m189.313 179.359v-22.888l-68.853-56.399c-3.67-3.006-3.67-8.619 0-11.625l68.853-56.399v-17.013c0-6.341-7.37-9.83-12.275-5.812l-100.305 82.162c-3.67 3.006-3.67 8.619 0 11.625l100.305 82.162c4.905 4.018 12.275.528 12.275-5.813z" fill="#de6a66"/></g><path d="m125.064 468.443c-5.688 0-10.3-4.612-10.3-10.3v-223.422h-48.918c-5.688 0-10.3 4.611-10.3 10.3v240.835c0 5.688 4.611 10.3 10.3 10.3h30.051l12.294-13.856h64.047l13.631 13.856h35.534l4.167-5.24h49.047l6.636 5.24h156.557c5.688 0 10.3-4.612 10.3-10.3v-17.413z" fill="#d79c7a"/><path d="m281.253 496.155h-59.85v-47.145c0-4.4 4.494-7.37 8.542-5.646l19.437 8.28c1.561.665 3.327.654 4.879-.03l18.382-8.096c4.056-1.787 8.611 1.184 8.611 5.616v47.021z" fill="#fbe372"/><path d="m176.259 361.387h-70.754c-5.307 0-9.609 4.302-9.609 9.609v125.159h89.971v-125.159c.001-5.307-4.301-9.609-9.608-9.609z" fill="#f8f7f8"/><path d="m125.064 468.443c-5.688 0-10.3-4.612-10.3-10.3v-96.756h-9.259c-5.307 0-9.609 4.302-9.609 9.609v125.159h89.971v-27.712z" fill="#efedee"/><path d="m407.303 395.319h-59.697c-4.041 0-7.317-3.276-7.317-7.317v-76.898c0-4.041 3.276-7.317 7.317-7.317h59.697c4.041 0 7.317 3.276 7.317 7.317v76.898c0 4.041-3.276 7.317-7.317 7.317z" fill="#f8f7f8"/></g><path d="m221.402 468.443h59.851v27.712h-59.851z" fill="#f8d448"/></g><g><path d="m448.109 442.695c-4.143 0-7.5 3.358-7.5 7.5v35.66c0 1.544-1.256 2.8-2.799 2.8h-149.058v-39.521c0-4.625-2.312-8.896-6.187-11.422s-8.713-2.923-12.947-1.058l-17.841 7.858-18.895-8.049c-4.225-1.799-9.034-1.362-12.864 1.17-3.831 2.532-6.117 6.785-6.117 11.376v39.645h-20.534v-59.317c0-4.142-3.358-7.5-7.5-7.5s-7.5 3.358-7.5 7.5v59.317h-74.971v-117.658c0-1.163.946-2.109 2.108-2.109h70.754c1.163 0 2.109.946 2.109 2.109v26.38c0 4.142 3.358 7.5 7.5 7.5s7.5-3.358 7.5-7.5v-26.38c0-9.434-7.675-17.109-17.109-17.109h-70.754c-9.434 0-17.108 7.675-17.108 17.109v117.659h-22.55c-1.544 0-2.8-1.256-2.8-2.8v-240.835c0-1.544 1.256-2.8 2.8-2.8h206.311c4.143 0 7.5-3.358 7.5-7.5s-3.357-7.5-7.5-7.5h-206.311c-9.815 0-17.8 7.985-17.8 17.8v240.835c0 9.815 7.985 17.8 17.8 17.8h371.964c9.814 0 17.799-7.985 17.799-17.8v-35.66c0-4.142-3.358-7.5-7.5-7.5zm-219.207 8.377 17.541 7.472c3.455 1.471 7.404 1.446 10.84-.066l16.469-7.254v37.431h-44.85z"/><path d="m437.81 227.22h-49.224c-4.143 0-7.5 3.358-7.5 7.5s3.357 7.5 7.5 7.5h49.224c1.543 0 2.799 1.256 2.799 2.8v173.213c0 4.142 3.357 7.5 7.5 7.5s7.5-3.358 7.5-7.5v-173.213c0-9.815-7.984-17.8-17.799-17.8z"/><path d="m332.79 311.105v76.898c0 8.17 6.646 14.817 14.816 14.817h59.697c8.17 0 14.817-6.647 14.817-14.817v-76.898c0-8.17-6.647-14.817-14.817-14.817h-59.697c-8.17-.001-14.816 6.646-14.816 14.817zm15 .182h59.331v76.532h-59.331z"/><path d="m71.98 108.811 20.02 16.399c3.204 2.625 7.929 2.154 10.555-1.05 2.625-3.204 2.155-7.93-1.05-10.554l-20.02-16.42 100.272-82.179c.025.002.073.025.056.028v62.162c0 4.142 3.358 7.5 7.5 7.5h55.937c61.033 0 110.968 49.068 111.315 109.38.169 29.465-11.208 57.229-32.037 78.178-20.831 20.952-48.527 32.49-77.985 32.49h-77.822c-2.794 0-5.067-2.273-5.067-5.067v-14.866c0-2.794 2.273-5.067 5.067-5.067h77.822c22.833 0 44.28-8.958 60.388-25.223 16.105-16.262 24.854-37.797 24.632-60.639-.451-46.42-39.034-84.186-86.009-84.186h-56.241c-4.142 0-7.5 3.358-7.5 7.5l.035 62.147c-.017.018-.066.039-.057.025l-55.255-45.261c-3.204-2.625-7.929-2.155-10.555 1.05-2.625 3.204-2.155 7.93 1.05 10.555l55.255 45.26c4.533 3.714 10.641 4.462 15.939 1.955 5.297-2.508 8.588-7.708 8.588-13.569v-54.662h48.741c38.784 0 70.639 31.102 71.009 69.332.183 18.807-7.023 36.542-20.29 49.938-13.27 13.399-30.931 20.778-49.73 20.778h-77.822c-11.065 0-20.067 9.002-20.067 20.067v14.866c0 11.065 9.002 20.067 20.067 20.067h77.822c33.481 0 64.954-13.11 88.622-36.914 23.665-23.801 36.593-55.352 36.4-88.84-.395-68.536-57.059-124.294-126.315-124.294h-48.437v-54.662c0-5.861-3.291-11.061-8.588-13.569-5.298-2.509-11.405-1.759-15.939 1.954l-100.306 82.163c-3.495 2.863-5.5 7.097-5.499 11.615 0 4.517 2.004 8.75 5.499 11.613z"/></g></g></svg>