<svg id="Capa_1" enable-background="new 0 0 511.812 511.812" height="512" viewBox="0 0 511.812 511.812" width="512" xmlns="http://www.w3.org/2000/svg"><g><g><path d="m221.111 146.742h68.996v194.444h-68.996z" fill="#d79c7a"/><path d="m248.212 170.456h-83.065l-4.518 7.611h-36.355l-4.723-7.611h-83.066c-4.407 0-7.979 3.572-7.979 7.979v141.874c0 4.406 3.572 7.979 7.979 7.979h211.727c4.407 0 7.979-3.572 7.979-7.979v-141.874c0-4.407-3.572-7.979-7.979-7.979z" fill="#dfae91"/><path d="m475.896 170.456h-83.065l-3.362 5.669h-36.051l-6.183-5.669h-83.065c-4.407 0-7.979 3.572-7.979 7.979v141.874c0 4.406 3.572 7.979 7.979 7.979h211.727c4.407 0 7.979-3.572 7.979-7.979v-141.874c-.001-4.407-3.573-7.979-7.98-7.979z" fill="#dfae91"/><path d="m360.35 7.583h-81.146l-4.722 6.197h-36.337l-4.538-6.197h-81.146c-5.467 0-9.898 4.431-9.898 9.898v143.077c0 5.467 4.431 9.898 9.898 9.898h207.889c5.467 0 9.898-4.431 9.898-9.898v-143.077c0-5.467-4.431-9.898-9.898-9.898z" fill="#e5bda7"/><g><g id="XMLID_270_"><g><path d="m414.441 328.286c48.63 0 88.05 39.42 88.05 88.06 0 48.63-39.42 88.05-88.05 88.05h-317.07c-48.63 0-88.05-39.42-88.05-88.05 0-48.64 39.42-88.06 88.05-88.06zm53.05 88.06c0-29.26-23.8-53.06-53.05-53.06h-318.07c-29.25 0-53.05 23.8-53.05 53.06 0 29.25 23.8 53.05 53.05 53.05h318.07c29.25 0 53.05-23.8 53.05-53.05z" fill="#b3adb5"/></g><g><path d="m96.371 469.396c-29.25 0-53.05-23.8-53.05-53.05 0-29.26 23.8-53.06 53.05-53.06h318.07c29.25 0 53.05 23.8 53.05 53.06 0 29.25-23.8 53.05-53.05 53.05z" fill="#a59ca6"/></g></g><circle cx="414.44" cy="416.341" fill="#e4e1e5" r="53.053"/><path d="m414.44 439.394c-12.711 0-23.053-10.341-23.053-23.053s10.342-23.053 23.053-23.053 23.053 10.342 23.053 23.053-10.342 23.053-23.053 23.053z" fill="#b3adb5"/><circle cx="308.334" cy="416.341" fill="#e4e1e5" r="53.053"/><path d="m308.334 439.394c-12.712 0-23.054-10.341-23.054-23.053s10.342-23.053 23.054-23.053c12.711 0 23.053 10.342 23.053 23.053s-10.342 23.053-23.053 23.053z" fill="#b3adb5"/><circle cx="202.228" cy="416.341" fill="#e4e1e5" r="53.053"/><path d="m202.228 439.394c-12.711 0-23.053-10.341-23.053-23.053s10.342-23.053 23.053-23.053 23.053 10.342 23.053 23.053-10.342 23.053-23.053 23.053z" fill="#b3adb5"/><circle cx="96.122" cy="416.341" fill="#e4e1e5" r="53.053"/><g fill="#d6d1d6"><path d="m383.353 416.341c-.001-25.535 18.042-46.862 42.072-51.922-3.543-.745-7.216-1.133-10.981-1.133-29.301.001-53.053 23.756-53.051 53.056.001 29.301 23.756 53.053 53.056 53.051 3.766 0 7.424-.389 10.968-1.136-24.032-5.056-42.063-26.38-42.064-51.916z"/><path d="m277.243 416.342c-.001-25.535 18.042-46.863 42.072-51.922-3.543-.745-7.216-1.133-10.982-1.133-29.301.001-53.053 23.756-53.052 53.057s23.756 53.053 53.057 53.052c3.766 0 7.424-.389 10.968-1.135-24.031-5.059-42.061-26.384-42.063-51.919z"/><path d="m171.134 416.341c0-25.535 18.043-46.861 42.072-51.92-3.543-.746-7.216-1.133-10.981-1.133-29.3.001-53.052 23.754-53.052 53.054.001 29.301 23.754 53.052 53.054 53.052 3.766 0 7.424-.389 10.968-1.135-24.031-5.058-42.06-26.383-42.061-51.918z"/><path d="m65.03 416.341c0-25.535 18.044-46.861 42.073-51.919-3.543-.746-7.216-1.133-10.981-1.133-29.3 0-53.053 23.753-53.053 53.053 0 29.301 23.753 53.053 53.053 53.053 3.766 0 7.424-.389 10.968-1.135-24.031-5.059-42.06-26.384-42.06-51.919z"/></g><path d="m96.122 439.394c-12.711 0-23.053-10.341-23.053-23.053s10.342-23.053 23.053-23.053c12.712 0 23.054 10.342 23.054 23.053s-10.343 23.053-23.054 23.053z" fill="#b3adb5"/><path d="m69.829 300.614c-4.406 0-7.979-3.572-7.979-7.979v-122.179h-25.365c-4.407 0-7.979 3.572-7.979 7.979v141.874c0 4.406 3.572 7.979 7.979 7.979h211.727c4.407 0 7.979-3.572 7.979-7.979v-19.695z" fill="#d79c7a"/><path d="m165.147 170.456h-45.597v49.482c0 3.537 3.539 5.981 6.847 4.728l14.161-5.362c1.154-.437 2.427-.437 3.581 0l14.161 5.362c3.308 1.253 6.847-1.191 6.847-4.728z" fill="#fbe372"/><path d="m298.146 303.915c-4.407 0-7.979-3.572-7.979-7.979v-125.48h-25.997c-4.407 0-7.979 3.572-7.979 7.979v141.874c0 4.406 3.572 7.979 7.979 7.979h211.727c4.407 0 7.979-3.572 7.979-7.979v-16.394z" fill="#d79c7a"/><path d="m392.831 170.456h-45.596v49.482c0 3.537 3.539 5.981 6.847 4.728l14.161-5.362c1.154-.437 2.427-.437 3.581 0l14.161 5.362c3.308 1.253 6.847-1.191 6.847-4.728v-49.482z" fill="#fbe372"/><path d="m189.896 142.779c-5.467 0-9.898-4.431-9.898-9.898v-125.298h-27.536c-5.467 0-9.898 4.431-9.898 9.898v143.077c0 5.467 4.431 9.898 9.898 9.898h207.888c5.467 0 9.898-4.431 9.898-9.898v-17.779z" fill="#dfae91"/><path d="m279.204 7.583h-45.597v49.482c0 3.537 3.539 5.981 6.847 4.728l14.161-5.362c1.154-.437 2.427-.437 3.581 0l14.161 5.362c3.308 1.253 6.847-1.191 6.847-4.728z" fill="#fbe372"/></g></g><g><path d="m465.785 335.705h10.111c8.535 0 15.479-6.944 15.479-15.479v-23.11c0-4.142-3.357-7.5-7.5-7.5s-7.5 3.358-7.5 7.5v23.11c0 .264-.215.479-.479.479h-211.727c-.264 0-.479-.215-.479-.479v-141.874c0-.264.215-.479.479-.479h75.565v41.982c0 4.125 2.026 7.987 5.421 10.332 3.394 2.344 7.724 2.873 11.582 1.411l13.296-5.035 13.295 5.035c1.44.545 2.946.813 4.445.813 2.516 0 5.01-.756 7.137-2.225 3.395-2.344 5.421-6.207 5.421-10.332v-41.982h75.564c.265 0 .479.215.479.479v86.801c0 4.142 3.357 7.5 7.5 7.5s7.5-3.358 7.5-7.5v-86.801c0-8.535-6.944-15.479-15.479-15.479h-98.333c.109-.786.185-1.583.185-2.398v-82.45c0-4.142-3.357-7.5-7.5-7.5s-7.5 3.358-7.5 7.5v82.451c0 1.322-1.075 2.398-2.397 2.398h-207.889c-1.322 0-2.397-1.076-2.397-2.398v-143.077c0-1.322 1.075-2.398 2.397-2.398h73.646v41.982c0 4.125 2.026 7.988 5.421 10.332 2.127 1.469 4.62 2.225 7.136 2.225 1.498 0 3.005-.268 4.445-.813l13.296-5.035 13.296 5.035c3.857 1.46 8.188.934 11.581-1.411 3.395-2.344 5.421-6.206 5.421-10.332v-41.983h73.646c1.322 0 2.397 1.076 2.397 2.398v28.664c0 4.142 3.357 7.5 7.5 7.5s7.5-3.358 7.5-7.5v-28.664c.002-9.593-7.803-17.398-17.396-17.398h-207.889c-9.593 0-17.397 7.805-17.397 17.398v143.077c0 .815.076 1.612.185 2.398h-46.199c-4.143 0-7.5 3.358-7.5 7.5s3.357 7.5 7.5 7.5h23v41.982c0 4.125 2.026 7.987 5.421 10.332 3.393 2.344 7.723 2.873 11.582 1.411l13.296-5.035 13.295 5.035c1.44.545 2.946.813 4.445.813 2.516 0 5.01-.756 7.137-2.225 3.395-2.344 5.421-6.207 5.421-10.332v-41.982h75.565c.264 0 .479.215.479.479v141.874c0 .264-.215.479-.479.479h-211.727c-.264 0-.479-.215-.479-.479v-141.873c0-.264.215-.479.479-.479h20.603c4.143 0 7.5-3.358 7.5-7.5s-3.357-7.5-7.5-7.5h-20.603c-8.535 0-15.479 6.944-15.479 15.479v141.874c0 8.535 6.943 15.479 15.479 15.479h9.542c-26.563 16.991-44.208 46.75-44.208 80.554 0 52.688 42.865 95.553 95.554 95.553h317.067c52.688 0 95.554-42.865 95.554-95.553 0-33.805-17.646-63.564-44.209-80.554zm-105.435-157.832h24.981v38.444l-10.851-4.108c-2.868-1.087-6.026-1.087-8.895-.001l-10.852 4.109v-38.444zm-88.646-162.873v38.443l-10.851-4.108c-2.869-1.088-6.026-1.087-8.894-.001l-10.852 4.109v-38.443zm-114.057 201.317-10.851-4.108c-1.435-.544-2.941-.815-4.448-.815-1.506 0-3.013.271-4.446.814l-10.852 4.109v-38.444h25.411 5.186zm256.793 280.495h-317.068c-44.418 0-80.554-36.136-80.554-80.553s36.136-80.553 80.554-80.553h317.068c44.418 0 80.554 36.136 80.554 80.553s-36.136 80.553-80.554 80.553z"/><path d="m414.44 355.788h-318.068c-.042 0-.083.003-.125.003s-.083-.003-.125-.003c-33.389 0-60.553 27.164-60.553 60.553s27.164 60.553 60.553 60.553c.039 0 .077-.003.115-.003.045 0 .089.003.135.003h318.068c33.39 0 60.554-27.164 60.554-60.553s-27.164-60.553-60.554-60.553zm-212.212 15c25.118 0 45.553 20.435 45.553 45.553s-20.435 45.553-45.553 45.553-45.553-20.435-45.553-45.553 20.435-45.553 45.553-45.553zm53.053 74.707c3.429 6.214 7.922 11.757 13.225 16.4h-26.45c5.303-4.643 9.796-10.186 13.225-16.4zm53.053-74.707c25.118 0 45.553 20.435 45.553 45.553s-20.435 45.553-45.553 45.553-45.554-20.435-45.554-45.553c.001-25.118 20.436-45.553 45.554-45.553zm53.053 74.707c3.429 6.214 7.922 11.757 13.225 16.4h-26.45c5.303-4.643 9.796-10.186 13.225-16.4zm59.981-74.181c21.842 3.347 38.625 22.264 38.625 45.027 0 25.118-20.435 45.553-45.553 45.553s-45.553-20.435-45.553-45.553 20.435-45.553 45.553-45.553c2.355 0 4.668.18 6.928.526zm-46.756-.526c-5.303 4.643-9.796 10.185-13.225 16.4-3.428-6.214-7.922-11.757-13.225-16.4zm-106.107 0c-5.303 4.643-9.796 10.185-13.225 16.4-3.428-6.214-7.922-11.757-13.225-16.4zm-106.105 0c-5.303 4.643-9.796 10.185-13.225 16.4-3.428-6.214-7.922-11.757-13.225-16.4zm-66.163 91.103c-25.056-.073-45.419-20.477-45.419-45.55 0-25.076 20.368-45.482 45.429-45.55 25.061.068 45.429 20.474 45.429 45.55-.001 25.079-20.374 45.487-45.439 45.55zm52.938-16.396c3.429 6.214 7.922 11.757 13.225 16.4h-26.45c5.303-4.643 9.797-10.186 13.225-16.4z"/><path d="m383.887 416.341c0 16.847 13.706 30.553 30.553 30.553s30.553-13.706 30.553-30.553-13.706-30.553-30.553-30.553-30.553 13.706-30.553 30.553zm46.106 0c0 8.576-6.977 15.553-15.553 15.553s-15.553-6.977-15.553-15.553 6.977-15.553 15.553-15.553 15.553 6.977 15.553 15.553z"/><path d="m308.334 446.894c16.847 0 30.553-13.706 30.553-30.553s-13.706-30.553-30.553-30.553c-16.848 0-30.554 13.706-30.554 30.553.001 16.847 13.707 30.553 30.554 30.553zm0-46.106c8.576 0 15.553 6.977 15.553 15.553s-6.977 15.553-15.553 15.553-15.554-6.977-15.554-15.553c.001-8.576 6.978-15.553 15.554-15.553z"/><path d="m202.228 446.894c16.847 0 30.553-13.706 30.553-30.553s-13.706-30.553-30.553-30.553-30.553 13.706-30.553 30.553 13.706 30.553 30.553 30.553zm0-46.106c8.576 0 15.553 6.977 15.553 15.553s-6.977 15.553-15.553 15.553-15.553-6.977-15.553-15.553 6.977-15.553 15.553-15.553z"/><path d="m96.122 385.788c-16.847 0-30.553 13.706-30.553 30.553s13.706 30.553 30.553 30.553c16.848 0 30.554-13.706 30.554-30.553-.001-16.847-13.707-30.553-30.554-30.553zm0 46.106c-8.576 0-15.553-6.977-15.553-15.553s6.977-15.553 15.553-15.553 15.554 6.977 15.554 15.553c-.001 8.576-6.978 15.553-15.554 15.553z"/></g></g></svg>