<svg id="Capa_1" enable-background="new 0 0 511.812 511.812" height="512" viewBox="0 0 511.812 511.812" width="512" xmlns="http://www.w3.org/2000/svg"><g><g><path d="m426.648 278.113h-134.167l-9.152 8.282h-60.087l-3.911-8.282h-134.167c-6.051 0-10.957 4.906-10.957 10.957v204.287c0 6.051 4.906 10.957 10.957 10.957h341.484c6.051 0 10.957-4.906 10.957-10.957v-204.288c-.001-6.051-4.906-10.956-10.957-10.956z" fill="#e5bda7"/><path d="m126.645 476.306c-6.051 0-10.957-4.906-10.957-10.957v-187.236h-30.524c-6.051 0-10.957 4.906-10.957 10.957v204.287c0 6.051 4.906 10.957 10.957 10.957h341.484c6.051 0 10.957-4.906 10.957-10.957v-17.05h-310.96z" fill="#dfae91"/><g><path d="m254.68 250.093c-18.729.201-36.281-7.596-48.769-21.781-9.456-10.74-15.025-24.465-15.752-38.756-.932-18.313 5.773-35.687 18.631-48.545l29.004-29.004v-32.475h36v39.93c0 4.774-1.897 9.353-5.272 12.729l-34.276 34.277c-6.472 6.472-9.373 15.563-7.712 24.883.68 3.816 2.194 7.464 4.416 10.64 5.418 7.743 13.887 12.107 23.026 12.107 7.452 0 14.459-2.902 19.729-8.172l11.665-11.665c7.029-7.029 18.426-7.029 25.456 0 7.029 7.029 7.029 18.426 0 25.455l-11.033 11.033c-11.999 11.997-28.147 19.163-45.113 19.344z" fill="#d6d1d6"/></g><g><g id="XMLID_271_"><g><path d="m326.786 7.504v59.6c0 2.03-.81 3.99-2.25 5.43l-21.75 21.75c-1.44 1.44-3.39 2.25-5.43 2.25h-82.9c-2.04 0-3.99-.81-5.43-2.25l-21.75-21.75c-1.44-1.44-2.25-3.4-2.25-5.43v-59.6h141.76z" fill="#e4e1e5"/></g><path d="m234.31 82.567c-1.978 0-3.869-.81-5.265-2.25l-21.091-21.75c-1.396-1.44-2.182-3.4-2.182-5.43v-45.633h-20.746v59.6c0 2.03.81 3.99 2.25 5.43l21.75 21.75c1.44 1.44 3.39 2.25 5.43 2.25h82.9c2.04 0 3.99-.81 5.43-2.25l11.717-11.717z" fill="#d6d1d6"/></g><circle cx="256.406" cy="51.863" fill="#efedee" r="19.68"/><path d="m292.481 278.113v63.374c0 3.905-4.091 6.46-7.6 4.747l-26.658-13.014c-1.462-.714-3.172-.714-4.635 0l-26.658 13.014c-3.509 1.713-7.6-.842-7.6-4.747v-63.374z" fill="#fbe372"/><g fill="#f8f7f8"><path d="m228.926 393.206h-101.873c-2.55 0-4.617 2.067-4.617 4.617v66.873c0 2.55 2.067 4.617 4.617 4.617h101.873c2.55 0 4.617-2.067 4.617-4.617v-66.873c0-2.55-2.067-4.617-4.617-4.617z"/><path d="m278.269 397.823v66.873c0 2.55 2.067 4.617 4.617 4.617h102.468c2.55 0 4.617-2.067 4.617-4.617v-66.873c0-2.55-2.067-4.617-4.617-4.617h-102.468c-2.55 0-4.617 2.067-4.617 4.617z"/></g></g></g><g><path d="m229.225 51.863c0 14.987 12.193 27.181 27.181 27.181s27.181-12.193 27.181-27.181-12.193-27.18-27.181-27.18-27.181 12.193-27.181 27.18zm39.362 0c0 6.716-5.464 12.181-12.181 12.181s-12.181-5.464-12.181-12.181 5.464-12.18 12.181-12.18 12.181 5.464 12.181 12.18z"/><path d="m282.885 385.706c-6.681 0-12.116 5.436-12.116 12.117v66.873c0 6.681 5.436 12.117 12.116 12.117h102.469c6.681 0 12.116-5.436 12.116-12.117v-66.873c0-6.681-5.436-12.117-12.116-12.117zm99.585 76.106h-96.701v-61.106h96.701z"/><path d="m437.604 328.474c4.143 0 7.5-3.358 7.5-7.5v-31.905c0-10.177-8.279-18.456-18.456-18.456h-34.312v-4.545c0-16.081-13.083-29.164-29.164-29.164-5.523 0-10.691 1.543-15.098 4.221l-27.969-21.254c5.714-9.766 4.39-22.546-3.976-30.913-9.942-9.943-26.121-9.943-36.062 0l-.553.553c-14.09-8.101-31.486-8.362-45.789-.785-.746-6.351 1.339-12.469 5.825-16.955l34.276-34.277c4.816-4.816 7.469-11.221 7.469-18.032v-15.43h16.065c4.054 0 7.865-1.579 10.73-4.446l21.755-21.753c2.865-2.867 4.443-6.678 4.443-10.731v-11.66c0-4.142-3.357-7.5-7.5-7.5s-7.5 3.358-7.5 7.5v11.66c0 .048-.019.093-.051.125l-21.755 21.753c-.032.033-.077.051-.123.051h-82.906c-.046 0-.091-.019-.125-.052l-21.751-21.751c-.034-.034-.053-.079-.053-.126v-52.102h126.764v8.479c0 4.142 3.357 7.5 7.5 7.5s7.5-3.358 7.5-7.5v-8.479h4.514c4.143 0 7.5-3.358 7.5-7.5s-3.357-7.5-7.5-7.5h-166.015c-4.143 0-7.5 3.358-7.5 7.5s3.357 7.5 7.5 7.5h4.737v52.102c0 4.053 1.578 7.864 4.445 10.732l21.751 21.751c2.867 2.868 6.679 4.447 10.732 4.447h15.841v4.869l-26.808 26.808c-14.467 14.468-21.86 33.727-20.817 54.229.541 10.64 3.512 21.018 8.548 30.307l-27.047 20.553c-4.281-2.471-9.241-3.893-14.529-3.893-16.081 0-29.164 13.083-29.164 29.164v4.545h-35.312c-10.177 0-18.456 8.279-18.456 18.456v204.287c0 10.177 8.279 18.456 18.456 18.456h341.484c10.177 0 18.456-8.279 18.456-18.456v-140.42c0-4.142-3.357-7.5-7.5-7.5s-7.5 3.358-7.5 7.5v140.42c0 1.906-1.551 3.456-3.456 3.456h-341.484c-1.905 0-3.456-1.55-3.456-3.456v-204.288c0-1.906 1.551-3.456 3.456-3.456h126.667v55.874c0 4.438 2.247 8.49 6.011 10.841s8.391 2.591 12.379.646l25.686-12.539 25.686 12.539c1.788.873 3.705 1.306 5.615 1.306 2.349 0 4.688-.655 6.764-1.952 3.764-2.351 6.011-6.404 6.011-10.841v-55.874h126.667c1.905 0 3.456 1.55 3.456 3.456v31.905c-.002 4.142 3.356 7.5 7.498 7.5zm-139.508-131.986c2.805 0 5.441 1.092 7.424 3.076 4.094 4.094 4.094 10.755 0 14.849l-11.031 11.033c-10.9 10.899-25.067 16.99-39.89 17.148-.214.002-.426.003-.639.003-16.364 0-31.342-6.76-42.266-19.074l16.798-12.765c6.675 6.941 15.691 10.839 25.482 10.839 9.455 0 18.346-3.683 25.032-10.369l11.666-11.665c1.983-1.982 4.62-3.075 7.424-3.075zm-29.774 4.205c-3.846 3.806-8.934 5.904-14.348 5.904-4.858 0-9.395-1.681-13.036-4.72 8.51-4.439 18.593-4.83 27.384-1.184zm-70.673-11.518c-.824-16.21 5.016-31.432 16.444-42.861l29.004-29.004c1.406-1.407 2.196-3.314 2.196-5.303v-7.975h21v15.43c0 2.805-1.093 5.442-3.076 7.426l-34.276 34.277c-8.31 8.311-11.879 19.792-9.793 31.503.32 1.793.79 3.565 1.395 5.292l-17.209 13.077c-3.329-6.792-5.297-14.241-5.685-21.862zm2.632 44.093c13.636 15.49 33.175 24.33 53.712 24.33.255 0 .512-.001.767-.004 18.769-.201 36.645-7.851 50.336-21.541l4.969-4.97 27.558 20.941c-2.301 4.169-3.614 8.955-3.614 14.044v4.545h-155.206v-4.545c0-5.306-1.431-10.282-3.918-14.573l24.845-18.88c.186.216.363.439.551.653zm-64.805 37.345v-4.545c0-7.779 6.304-14.108 14.071-14.159l-4.445 3.378c-3.298 2.506-3.939 7.211-1.434 10.509 1.476 1.942 3.713 2.963 5.978 2.963 1.581 0 3.176-.499 4.532-1.529l8.569-6.511c.677 1.652 1.056 3.456 1.056 5.349v4.545zm149.505 67.324-23.469-11.457c-3.562-1.739-7.648-1.74-11.214 0l-23.468 11.456v-52.324h58.15v52.325zm64.028-67.324v-4.545c0-1.67.305-3.266.838-4.754l7.787 5.917c1.356 1.031 2.951 1.529 4.532 1.529 2.264 0 4.502-1.021 5.978-2.963 2.506-3.298 1.864-8.003-1.434-10.509l-4.395-3.339c.285-.017.567-.043.856-.043 7.811 0 14.164 6.354 14.164 14.164v4.545h-28.326z"/><path d="m146.027 400.706c4.143 0 7.5-3.358 7.5-7.5s-3.357-7.5-7.5-7.5h-18.975c-6.681 0-12.116 5.436-12.116 12.117v66.873c0 6.681 5.436 12.117 12.116 12.117h101.874c6.681 0 12.116-5.436 12.116-12.117v-66.873c0-6.681-5.436-12.117-12.116-12.117h-50.936c-4.143 0-7.5 3.358-7.5 7.5s3.357 7.5 7.5 7.5h48.053v61.106h-96.106v-61.106z"/></g></g></svg>