<svg id="Capa_1" enable-background="new 0 0 511.84 511.84" height="512" viewBox="0 0 511.84 511.84" width="512" xmlns="http://www.w3.org/2000/svg"><g><g><path d="m276.243 112.809v-30.382l7.237-8.58c12.28-14.558 1.931-36.826-17.115-36.826h-20.89c-19.046 0-29.395 22.268-17.115 36.826l7.237 8.58v30.382 38.55h41.034z" fill="#e4e1e5"/><path d="m482.096 297.386-6.645-34.932c-16.515-86.822-92.416-149.646-180.795-149.646h-77.473c-88.379 0-164.279 62.824-180.795 149.646l-6.645 34.932-5.839 27.031h463.014z" fill="#f8f7f8"/><path d="m482.096 297.386-3.804-20-342.997-1.178c-20.285-.07-33.83-20.902-25.708-39.491 28.756-65.816 94.278-110.285 168.634-110.285h51.031c4.182 0 8.212 1.467 11.484 4.071 4.555 3.624 9.587 6.715 15.025 9.149 2.162.968 4.133 2.314 5.78 4.016l11.415 11.8c3.289 3.398 7.886 5.347 12.614 5.347 5.117 0 9.966-2.224 13.304-6.101l5.107-5.918c-12.085-8.927-25.304-16.358-39.325-22.132.223.011.448.015.671.027-21.731-8.97-45.459-13.883-70.165-13.883h-77.473c-88.379 0-164.279 62.823-180.795 149.646l-6.645 34.932-5.839 27.031h54.761 8.716 399.033z" fill="#efedee"/><g><path d="m466.552 344.826c20.87 0 37.788-16.918 37.788-37.788v-6.613c0-1.679-1.361-3.04-3.04-3.04h-490.76c-1.679 0-3.04 1.361-3.04 3.04v6.613c0 20.87 16.918 37.788 37.788 37.788z" fill="#e4e1e5"/><g id="XMLID_272_"><g><path d="m183.77 371.709c-2.733-3.7-4.284-8.318-4.118-13.306.384-11.534 10.226-20.514 21.766-20.514h69.012l18.57-3.36c7.29-1.32 14.59-1.96 21.83-1.96 39.65 0 77.44 19.24 100.65 52.49l66.531 101.501c1.757 2.68-.166 6.239-3.37 6.239h-139.205c-1.342 0-2.595-.668-3.344-1.781l-33.322-49.549h-82.37c-12.83 0-25.4-3.57-36.31-10.29l-90-55.48c-5.13-3.16-7.93-8.63-7.93-14.21 0-3.15.89-6.34 2.76-9.17 4.49-6.81 13.24-9.37 20.69-6.05l57.18 25.44h20.97z" fill="#ffe0d1"/></g><g><path d="m469.263 473.215h-111.472c-7.665 0-14.827-3.815-19.105-10.175l-23.065-34.298c-2.883-4.286-7.71-6.857-12.875-6.857h-74.106c-12.83 0-25.4-3.57-36.31-10.29l-90-55.48c-4.065-2.504-6.665-6.474-7.571-10.784-3.921.989-7.471 3.397-9.838 6.988-1.87 2.83-2.76 6.02-2.76 9.17 0 5.58 2.8 11.05 7.93 14.21l90 55.48c10.91 6.72 23.48 10.29 36.31 10.29h76.95c3.388 0 6.554 1.686 8.445 4.498l30.298 45.052c.749 1.113 2.002 1.781 3.344 1.781h139.205c3.204 0 5.127-3.559 3.37-6.239z" fill="#ffd1c2"/></g><g><g id="XMLID_275_"><g><path d="m308.221 370.716h-125.124c.219.335.435.672.673.993h-.01-16.881c1.161 3.133 2.763 6.108 4.786 8.857 1.062 1.46 2.269 2.869 3.587 4.188 6.801 6.803 15.832 10.567 25.446 10.615l80.576 1.723c14.789.317 26.947-11.584 26.947-26.376z" fill="#ffd1c2"/><path d="m393.05 364.179-11.73 20.05-180.44-3.86c-5.86 0-11.18-2.38-15.02-6.22-.76-.76-1.46-1.57-2.09-2.44-2.6-3.52-4.13-7.87-4.13-12.58 0-11.73 9.51-21.24 21.24-21.24h69.55l18.57-3.36c7.29-1.32 14.59-1.96 21.83-1.96 30.42 0 59.74 11.32 82.22 31.61z" fill="#ffe0d1"/></g></g></g></g><path d="m440.56 74.929c0 24.8-16.16 45.82-38.52 53.12l-14.533 16.879c-.981 1.139-2.728 1.19-3.773.109l-16.434-16.988c-23.17-7.57-39.69-29.87-38.46-55.84 1.37-28.74 24.86-52.01 53.61-53.13 31.88-1.23 58.11 24.25 58.11 55.85zm-33.78 0c0-12.21-9.9-22.1-22.11-22.1s-22.11 9.89-22.11 22.1 9.9 22.11 22.11 22.11 22.11-9.9 22.11-22.11z" fill="#e5827f"/></g></g><g><path d="m501.3 289.886h-12.997l-5.484-28.832c-7.973-41.915-30.068-80.449-62.216-108.503-3.119-2.724-7.858-2.402-10.582.719s-2.401 7.859.72 10.582c29.629 25.857 49.994 61.373 57.343 100.005l4.951 26.029h-34.297c-4.142 0-7.5 3.357-7.5 7.5s3.358 7.5 7.5 7.5h58.102v2.153c0 16.7-13.587 30.287-30.288 30.287h-100.763c-23.946-11.142-51.19-15.042-78.121-10.174l-17.909 3.236h-68.883c-7.134 0-13.664 2.619-18.694 6.938h-83.423c-.234 0-.467-.007-.7 0h-52.771c-16.701 0-30.288-13.587-30.288-30.287v-2.153h391.775c4.142 0 7.5-3.357 7.5-7.5s-3.358-7.5-7.5-7.5h-367.97l4.951-26.029c7.378-38.785 26.915-73.108 56.498-99.258 3.104-2.743 3.396-7.482.652-10.586-2.743-3.105-7.483-3.396-10.586-.652-32.097 28.372-53.294 65.611-61.298 107.693l-5.484 28.832h-12.998c-5.812 0-10.54 4.729-10.54 10.54v6.613c0 24.972 20.316 45.287 45.288 45.287h31.176c-1.87 4.524-2.317 9.499-1.235 14.396 1.424 6.443 5.303 11.899 10.921 15.362l90.001 55.475c12.106 7.462 26.022 11.406 40.244 11.406h78.381l32.29 48.021c1.448 2.153 3.817 3.316 6.23 3.316 1.439 0 2.894-.414 4.178-1.277 3.437-2.312 4.35-6.972 2.039-10.408l-34.519-51.336c-1.393-2.072-3.727-3.315-6.224-3.315h-82.376c-11.44 0-22.635-3.173-32.373-9.176l-90.002-55.475c-2.132-1.314-3.604-3.385-4.145-5.83-.541-2.446-.078-4.944 1.302-7.035 1.696-2.571 4.472-4.037 7.373-4.123h.216c1.273-.007 2.565.246 3.798.795l57.172 25.44c.96.427 1.999.647 3.049.647h17.555c5.221 5.338 12.496 8.66 20.535 8.66h61.459c4.142 0 7.5-3.357 7.5-7.5s-3.358-7.5-7.5-7.5h-61.459c-7.576 0-13.74-6.164-13.74-13.74s6.164-13.74 13.74-13.74h69.555c.447 0 .894-.04 1.333-.119l18.57-3.355c44.127-7.979 89.229 10.607 114.932 47.346l8.039 12.268c1.44 2.196 3.836 3.39 6.28 3.39 1.41 0 2.837-.397 4.104-1.229 3.465-2.27 4.433-6.919 2.162-10.384l-8.101-12.361c-.041-.062-.082-.122-.124-.183-7.661-10.972-16.863-20.497-27.16-28.435h76.083c24.972 0 45.288-20.315 45.288-45.287v-6.613c.005-5.813-4.723-10.541-10.535-10.541zm-336.92 74.323-26.704-11.883h35.281c-.532 2.182-.82 4.459-.82 6.803 0 1.734.163 3.43.459 5.08z"/><path d="m443.935 420.894c-2.271-3.464-6.92-4.431-10.384-2.161-3.464 2.271-4.432 6.919-2.162 10.384l44.434 67.796c1.44 2.196 3.836 3.39 6.28 3.39 1.411 0 2.837-.397 4.104-1.229 3.464-2.271 4.432-6.919 2.162-10.384z"/><path d="m363.158 134.56 17.137 17.708c1.415 1.462 3.361 2.284 5.39 2.284.072 0 .146-.001.218-.003 2.106-.062 4.09-1.007 5.465-2.604l15.038-17.466c25.003-9.109 41.654-32.772 41.654-59.55 0-17.397-6.906-33.622-19.446-45.687-12.535-12.06-29.04-18.343-46.451-17.654-32.556 1.258-59.267 27.729-60.81 60.265-1.319 27.811 15.79 53.32 41.805 62.707zm-26.822-61.995c1.177-24.827 21.562-45.026 46.406-45.987.649-.024 1.296-.037 1.941-.037 12.586 0 24.429 4.757 33.53 13.513 9.573 9.21 14.846 21.597 14.846 34.877 0 20.99-13.401 39.475-33.348 45.994-1.301.426-2.46 1.198-3.354 2.235l-10.998 12.773-12.673-13.096c-.849-.877-1.899-1.534-3.06-1.913-20.631-6.744-34.321-26.63-33.29-48.359z"/><path d="m384.67 104.535c16.325 0 29.605-13.281 29.605-29.605s-13.281-29.605-29.605-29.605-29.605 13.281-29.605 29.605 13.28 29.605 29.605 29.605zm0-44.211c8.054 0 14.605 6.552 14.605 14.605s-6.552 14.605-14.605 14.605-14.605-6.552-14.605-14.605 6.551-14.605 14.605-14.605z"/><path d="m121.068 147.41c1.336 0 2.69-.357 3.913-1.107 27.738-17.005 59.621-25.994 92.202-25.994h77.474c4.158 0 8.436.155 12.715.461 4.121.306 7.721-2.813 8.016-6.945s-2.814-7.721-6.946-8.016c-4.634-.332-9.272-.5-13.786-.5h-10.914v-20.142l5.469-6.483c7.584-8.991 9.215-21.203 4.258-31.869-4.958-10.667-15.344-17.293-27.106-17.293h-20.89c-11.762 0-22.148 6.626-27.106 17.293-4.957 10.666-3.326 22.878 4.258 31.869l5.469 6.483v20.142h-10.914c-35.35 0-69.944 9.754-100.042 28.207-3.531 2.165-4.639 6.782-2.474 10.313 1.419 2.309 3.881 3.581 6.404 3.581zm120.262-69.819-7.236-8.579c-3.835-4.547-4.628-10.481-2.121-15.876 2.507-5.394 7.555-8.614 13.503-8.614h20.89c5.948 0 10.996 3.221 13.503 8.614 2.507 5.395 1.714 11.329-2.121 15.876l-7.236 8.579c-1.141 1.354-1.767 3.066-1.767 4.836v22.882h-25.646v-22.882c-.002-1.77-.628-3.482-1.769-4.836z"/></g></g></svg>