<svg id="Capa_1" enable-background="new 0 0 510.77 510.77" height="512" viewBox="0 0 510.77 510.77" width="512" xmlns="http://www.w3.org/2000/svg"><g><g><path d="m454.317 481.696v-264.386c0-10.761-8.724-19.484-19.484-19.484h-358.896c-10.761 0-19.484 8.723-19.484 19.484v264.387h397.864z" fill="#dfae91"/><path d="m255.885 288.066c61.093 0 113.646-37.256 136.137-90.241h-82.395c-14.09 13.162-32.986 21.241-53.742 21.241s-39.652-8.079-53.742-21.241h-82.395c22.49 52.985 75.044 90.241 136.137 90.241z" fill="#d79c7a"/><path d="m386.229 257.002c6.058 0 10.969 4.911 10.969 10.969v125.393c0 6.058-4.911 10.969-10.969 10.969h-261.688c-6.058 0-10.969-4.911-10.969-10.969v-125.394c0-6.058 4.911-10.969 10.969-10.969h261.688z" fill="#f8f7f8"/><path d="m165.345 257.002c25.032 19.457 56.453 31.065 90.539 31.065s65.508-11.607 90.539-31.065z" fill="#efedee"/><circle cx="255.885" cy="140.256" fill="#f8f7f8" r="123.776"/><g id="XMLID_277_"><g><path d="m255.885 7.446c73.23 0 132.81 59.58 132.81 132.81s-59.58 132.81-132.81 132.81-132.81-59.58-132.81-132.81 59.58-132.81 132.81-132.81zm93.81 132.81c0-51.81-42-93.81-93.81-93.81s-93.81 42-93.81 93.81 42 93.81 93.81 93.81 93.81-42 93.81-93.81z" fill="#b8de9c"/></g></g><g><path d="m118.853 466.037c-10.761 0-19.484-8.723-19.484-19.485v-248.727h-23.432c-10.761 0-19.484 8.723-19.484 19.484v266.475c0 10.761 8.724 19.485 19.484 19.485h146.045l8.519-6.78h52.834l5.453 6.78h146.045c10.761 0 19.484-8.723 19.484-19.485v-17.748h-335.464z" fill="#d79c7a"/><path d="m288.788 503.269h-66.806v-60.937c0-2.901 2.826-4.962 5.588-4.075l26.507 8.508c.851.273 1.765.273 2.616 0l26.507-8.508c2.762-.887 5.588 1.174 5.588 4.075z" fill="#fbe372"/><g><path d="m245.839 182.619c-3.923 0-7.709-1.488-10.585-4.178l-29.917-27.973c-1.856-1.736-1.954-4.647-.219-6.503l14.887-15.922c1.736-1.856 4.647-1.954 6.504-.218l15.038 14.06c1.874 1.752 4.818 1.633 6.545-.263l106.587-117.08c1.711-1.879 4.621-2.016 6.5-.305l16.119 14.674c1.879 1.711 2.016 4.621.305 6.5l-120.3 132.143c-2.792 3.066-6.695 4.886-10.838 5.053-.21.008-.418.012-.626.012z" fill="#a6d786"/></g></g><path d="m221.982 466.037h66.806v37.233h-66.806z" fill="#f8d448"/></g><g><path d="m255.385 280.513c77.338 0 140.257-62.919 140.257-140.256 0-18.569-3.582-36.626-10.645-53.668-1.586-3.825-5.973-5.641-9.8-4.057-3.827 1.586-5.643 5.974-4.057 9.801 6.305 15.211 9.502 31.335 9.502 47.924 0 69.066-56.19 125.256-125.257 125.256s-125.257-56.189-125.257-125.256c0-18.422 3.913-36.174 11.631-52.765 1.747-3.755.119-8.216-3.637-9.963-3.757-1.749-8.217-.119-9.964 3.637-8.646 18.586-13.031 38.467-13.031 59.091.001 77.337 62.92 140.256 140.258 140.256z"/><path d="m147.227 62.911c1.386 1.116 3.047 1.658 4.698 1.658 2.192 0 4.365-.956 5.847-2.797 23.931-29.724 59.51-46.772 97.613-46.772 20.228 0 39.535 4.675 57.387 13.894 3.681 1.901 8.205.458 10.105-3.223s.458-8.205-3.223-10.105c-19.718-10.183-41.942-15.566-64.269-15.566-42.667 0-82.504 19.087-109.297 52.366-2.598 3.227-2.088 7.947 1.139 10.545z"/><path d="m255.385 53.444c10.654 0 21.065 1.911 30.943 5.681 3.869 1.479 8.204-.462 9.681-4.333 1.477-3.87-.463-8.204-4.333-9.681-11.592-4.424-23.802-6.667-36.291-6.667-56.14 0-101.813 45.673-101.813 101.812s45.673 101.812 101.813 101.812 101.813-45.673 101.813-101.812c0-6.425-.611-12.882-1.815-19.191-.777-4.068-4.706-6.741-8.773-5.961-4.069.776-6.737 4.705-5.961 8.773 1.028 5.385 1.549 10.896 1.549 16.379 0 47.868-38.944 86.812-86.813 86.812s-86.813-38.944-86.813-86.812 38.944-86.812 86.813-86.812z"/><path d="m231.63 122.346c-4.873-4.557-12.546-4.3-17.104.575l-14.886 15.922c-2.208 2.361-3.364 5.44-3.255 8.671.108 3.231 1.468 6.226 3.83 8.434l29.917 27.973c4.275 3.998 9.854 6.199 15.708 6.199.312 0 .626-.006.926-.019 6.107-.246 11.969-2.979 16.082-7.498l120.3-132.143c2.176-2.391 3.292-5.485 3.14-8.714s-1.551-6.205-3.941-8.382l-16.118-14.673c-4.934-4.493-12.602-4.135-17.096.801l-104.61 114.908zm22.007 24.324 104.636-114.937 11.832 10.771-118.349 130c-1.431 1.571-3.47 2.522-5.608 2.608-2.149.074-4.209-.69-5.771-2.15l-27.8-25.993 10.927-11.688 12.92 12.081c2.384 2.229 5.491 3.387 8.752 3.252 3.26-.13 6.265-1.531 8.461-3.944z"/><path d="m434.833 190.325h-27.218c-4.142 0-7.5 3.357-7.5 7.5s3.358 7.5 7.5 7.5h27.218c6.608 0 11.984 5.376 11.984 11.984v204.759c0 4.143 3.358 7.5 7.5 7.5s7.5-3.357 7.5-7.5v-204.758c0-14.879-12.105-26.985-26.984-26.985z"/><path d="m454.317 446.53c-4.142 0-7.5 3.357-7.5 7.5v29.754c0 6.608-5.376 11.985-11.984 11.985h-138.545v-53.438c0-3.75-1.809-7.308-4.839-9.518-3.029-2.21-6.969-2.843-10.541-1.699l-25.523 8.192-25.522-8.191c-3.571-1.146-7.51-.513-10.541 1.698-3.03 2.21-4.839 5.768-4.839 9.518v53.438h-138.546c-6.608 0-11.984-5.377-11.984-11.985v-266.474c0-6.608 5.376-11.984 11.984-11.984h27.218c4.142 0 7.5-3.357 7.5-7.5s-3.358-7.5-7.5-7.5h-27.218c-14.879 0-26.984 12.105-26.984 26.984v266.475c0 14.88 12.105 26.985 26.984 26.985h358.896c14.879 0 26.984-12.105 26.984-26.985v-29.755c0-4.142-3.358-7.5-7.5-7.5zm-224.835 49.24v-49.022l22.299 7.157c2.357.759 4.849.758 7.204.002l22.303-7.159v49.022z"/><path d="m106.072 393.363c0 10.184 8.285 18.469 18.469 18.469h29.397c4.142 0 7.5-3.357 7.5-7.5s-3.358-7.5-7.5-7.5h-29.397c-1.913 0-3.469-1.556-3.469-3.469v-125.393c0-1.912 1.556-3.468 3.469-3.468h17.565c4.142 0 7.5-3.357 7.5-7.5s-3.358-7.5-7.5-7.5h-17.565c-10.184 0-18.469 8.284-18.469 18.468z"/><path d="m386.229 396.832h-200.328c-4.142 0-7.5 3.357-7.5 7.5s3.358 7.5 7.5 7.5h200.328c10.184 0 18.469-8.285 18.469-18.469v-125.393c0-10.184-8.285-18.468-18.469-18.468h-17.565c-4.142 0-7.5 3.357-7.5 7.5s3.358 7.5 7.5 7.5h17.565c1.913 0 3.469 1.556 3.469 3.468v125.394c-.001 1.912-1.557 3.468-3.469 3.468z"/></g></g></svg>