<svg id="Capa_1" enable-background="new 0 0 512.177 512.177" height="512" viewBox="0 0 512.177 512.177" width="512" xmlns="http://www.w3.org/2000/svg"><g><g><g><path d="m455.021 483.104v-264.387c0-10.761-8.724-19.484-19.484-19.484h-358.896c-10.761 0-19.485 8.723-19.485 19.484v264.387z" fill="#dfae91"/><g fill="#f8f7f8"><path d="m386.932 258.41c6.058 0 10.969 4.911 10.969 10.969v125.393c0 6.058-4.911 10.969-10.969 10.969h-261.687c-6.058 0-10.969-4.911-10.969-10.969v-125.394c0-6.058 4.911-10.969 10.969-10.969h261.687z"/><circle cx="256.089" cy="135.2" r="117.544"/></g></g><path d="m389.986 65.147-55.887-17.925c-2.361-.757-4.834.797-5.175 3.253l-8.078 58.133c-.467 3.362 3.207 5.737 6.081 3.931l14.779-9.29c.766-.482 1.792-.139 2.098.713 3.787 10.566 5.717 22.016 5.373 33.963-1.448 50.161-43.298 90.369-93.478 89.896-51.317-.484-92.657-42.699-91.719-94.345.891-49.087 40.583-89.325 89.654-90.857 7.152-.223 14.128.367 20.843 1.683 8.628 1.691 17.167-3.289 19.969-11.622 3.385-10.069-2.886-20.794-13.313-22.824-8.575-1.67-17.457-2.482-26.552-2.342-67.812 1.043-123.435 55.673-125.624 123.458-2.318 71.78 54.624 130.818 125.623 131.913 70.161 1.082 128.568-55.435 129.694-125.595.301-18.786-3.467-36.654-10.462-52.8-.279-.643-.052-1.391.542-1.764l16.538-10.396c2.873-1.806 2.326-6.147-.906-7.183z" fill="#e5827f"/><path d="m119.557 467.444c-10.761 0-19.484-8.723-19.484-19.485v-248.726h-23.432c-10.761 0-19.485 8.723-19.485 19.484v266.475c0 10.761 8.724 19.485 19.485 19.485h146.045l8.519-6.78h52.834l5.453 6.78h146.045c10.761 0 19.484-8.723 19.484-19.485v-17.748z" fill="#d79c7a"/><path d="m289.492 504.677h-66.806v-60.937c0-2.901 2.826-4.962 5.588-4.075l26.507 8.508c.851.273 1.765.273 2.616 0l26.507-8.508c2.762-.887 5.588 1.174 5.588 4.075z" fill="#fbe372"/><path d="m222.686 467.444h66.806v37.233h-66.806z" fill="#f8d448"/></g><g><path d="m435.537 191.733h-34.852c-4.143 0-7.5 3.357-7.5 7.5s3.357 7.5 7.5 7.5h34.852c6.608 0 11.984 5.376 11.984 11.984v196.786c0 4.143 3.357 7.5 7.5 7.5s7.5-3.357 7.5-7.5v-196.786c0-14.878-12.105-26.984-26.984-26.984z"/><path d="m455.021 439.965c-4.143 0-7.5 3.357-7.5 7.5v37.727c0 6.608-5.376 11.985-11.984 11.985h-138.546v-53.805c0-3.665-1.768-7.142-4.729-9.301-2.962-2.161-6.812-2.781-10.302-1.661l-25.873 8.305-25.872-8.305c-3.492-1.121-7.341-.5-10.301 1.66-2.961 2.16-4.729 5.637-4.729 9.302v53.805h-138.545c-6.608 0-11.984-5.377-11.984-11.985v-266.475c0-6.608 5.376-11.984 11.984-11.984h35.743c4.142 0 7.5-3.357 7.5-7.5s-3.358-7.5-7.5-7.5h-35.743c-14.879 0-26.984 12.105-26.984 26.984v266.475c0 14.88 12.105 26.985 26.984 26.985h358.896c14.879 0 26.984-12.105 26.984-26.985v-37.727c.001-4.142-3.356-7.5-7.499-7.5zm-224.835 57.212v-49.022l22.299 7.157c2.359.76 4.852.758 7.203.002l22.303-7.159v49.022z"/><path d="m281.026 101.537h-11.445c-2.742 0-5.318 1.068-7.254 3.008-1.935 1.938-2.996 4.514-2.991 7.251.01 5.531.031 17.87.031 22.247 0 5.292.037 17.049.056 22.397.009 2.738 1.084 5.308 3.026 7.235 1.932 1.918 4.492 2.972 7.22 2.972h.048c5.815-.03 9.805-.063 11.855-.1 15.758-.274 27.195-13.922 27.195-32.45 0-19.475-11.148-32.56-27.741-32.56zm.283 50.012c-1.381.024-3.694.048-6.902.069-.019-5.826-.04-13.563-.04-17.576 0-3.366-.013-11.435-.023-17.506h6.683c11.822 0 12.741 13.441 12.741 17.561-.001 8.579-3.852 17.303-12.459 17.452z"/><path d="m228.843 128.972-17.208 24.367c-1.927 2.729-2.168 6.268-.631 9.234s4.568 4.81 7.909 4.81h23.906c4.142 0 7.5-3.357 7.5-7.5s-3.358-7.5-7.5-7.5h-12.146l10.44-14.784c3.482-4.976 5.76-9.705 6.769-14.057.057-.245.102-.493.133-.743l.261-2.04c.041-.315.061-.633.061-.951 0-11.577-9.419-20.996-20.996-20.996-10.011 0-18.675 7.122-20.603 16.935-.798 4.064 1.849 8.006 5.914 8.805 4.065.798 8.007-1.85 8.805-5.914.549-2.796 3.024-4.825 5.884-4.825 3.178 0 5.786 2.484 5.984 5.613l-.134 1.051c-.454 1.735-1.584 4.546-4.348 8.495z"/><path d="m254.464 270.384c.708.011 1.411.017 2.118.017 35.157-.002 68.451-13.522 93.949-38.209 26.019-25.19 40.665-58.852 41.241-94.782.282-17.647-2.773-34.798-9.091-51.06l12.201-7.67c3.827-2.405 5.853-6.686 5.287-11.17-.565-4.483-3.591-8.126-7.893-9.505l-55.889-17.925c-3.237-1.038-6.747-.596-9.628 1.215-2.879 1.81-4.798 4.78-5.266 8.147l-8.078 58.132c-.622 4.477 1.349 8.781 5.144 11.235 3.794 2.452 8.53 2.484 12.357.078l8.081-5.079c2.015 7.761 2.914 15.771 2.68 23.9-1.32 45.723-39.418 82.616-85.11 82.616-.264 0-.536-.001-.8-.004-22.866-.215-44.246-9.367-60.203-25.77-15.95-16.396-24.504-38.038-24.089-60.939.396-21.809 9.133-42.453 24.6-58.13 15.468-15.678 35.992-24.687 57.789-25.367 6.454-.197 12.903.32 19.168 1.548 12.271 2.398 24.531-4.73 28.519-16.593 2.3-6.837 1.537-14.333-2.09-20.567-3.636-6.248-9.795-10.625-16.897-12.009-9.191-1.791-18.655-2.62-28.101-2.479-34.267.527-66.819 14.017-91.661 37.983-2.981 2.876-3.066 7.624-.19 10.604 2.875 2.981 7.623 3.066 10.605.19 22.093-21.314 51.028-33.312 81.476-33.78 8.416-.129 16.829.612 25.002 2.204 2.902.565 5.317 2.281 6.801 4.83 1.475 2.535 1.772 5.462.837 8.243-1.598 4.754-6.503 7.624-11.417 6.652-7.364-1.442-14.942-2.056-22.519-1.819-25.665.801-49.814 11.393-68 29.824-18.183 18.429-28.453 42.718-28.92 68.394-.489 26.932 9.574 52.385 28.334 71.67 18.768 19.293 43.916 30.057 70.813 30.311.314.003.627.004.941.004 53.738 0 98.552-43.402 100.105-97.184.363-12.59-1.592-24.94-5.811-36.711-.915-2.554-2.912-4.526-5.479-5.412-2.574-.889-5.37-.567-7.669.881l-8.403 5.281 6.468-46.544 44.746 14.352-10.161 6.388c-3.754 2.358-5.197 7.025-3.434 11.096 6.809 15.715 10.121 32.436 9.845 49.697-.512 31.924-13.537 61.843-36.677 84.245-23.136 22.399-53.484 34.461-85.402 33.972-32.46-.501-62.689-13.731-85.117-37.256-22.412-23.507-34.177-54.375-33.126-86.916.672-20.808 6.834-41.189 17.82-58.94 2.18-3.522 1.092-8.145-2.431-10.325-3.523-2.181-8.146-1.09-10.324 2.431-12.365 19.98-19.3 42.924-20.057 66.351-1.181 36.594 12.052 71.31 37.262 97.751 25.228 26.459 59.23 41.341 95.744 41.903z"/><path d="m125.245 265.91h32.88c4.142 0 7.5-3.357 7.5-7.5s-3.358-7.5-7.5-7.5h-32.88c-10.184 0-18.469 8.284-18.469 18.468v125.394c0 10.184 8.285 18.469 18.469 18.469h25.285c4.142 0 7.5-3.357 7.5-7.5s-3.358-7.5-7.5-7.5h-25.285c-1.913 0-3.469-1.556-3.469-3.469v-125.394c0-1.913 1.556-3.468 3.469-3.468z"/><path d="m386.932 398.24h-204.44c-4.142 0-7.5 3.357-7.5 7.5s3.358 7.5 7.5 7.5h204.44c10.184 0 18.469-8.285 18.469-18.469v-125.393c0-10.184-8.285-18.468-18.469-18.468h-32.164c-4.143 0-7.5 3.357-7.5 7.5s3.357 7.5 7.5 7.5h32.164c1.913 0 3.469 1.556 3.469 3.468v125.394c0 1.912-1.555 3.468-3.469 3.468z"/></g></g></svg>