<svg id="Capa_1" enable-background="new 0 0 512.176 512.176" height="512" viewBox="0 0 512.176 512.176" width="512" xmlns="http://www.w3.org/2000/svg"><g><g><circle cx="255.677" cy="84.318" fill="#f8f7f8" r="64.753"/><g><path d="m459.212 135.198c14.347 0 25.978 11.631 25.978 25.978v317.522c0 14.347-11.631 25.978-25.978 25.978h-406.248c-14.347 0-25.978-11.631-25.978-25.978v-317.522c0-14.347 11.631-25.978 25.978-25.978z" fill="#b3adb5"/><path d="m108.526 478.118c-14.347 0-25.978-11.631-25.978-25.978v-316.942h-29.584c-14.347 0-25.978 11.631-25.978 25.978v317.522c0 14.347 11.631 25.978 25.978 25.978h406.249c14.347 0 25.978-11.631 25.978-25.978v-.58z" fill="#a59ca6"/><path d="m179.346 135.198c10.329 15.501 25.306 27.874 43.37 34.821l16.901 21.299c3.916 4.925 9.771 7.749 16.061 7.749 6.292 0 12.146-2.825 16.07-7.761l16.889-21.284c18.18-6.97 33.199-19.302 43.521-34.824z" fill="#a59ca6"/><path d="m455.188 186.153v-19.86c0-.6-.49-1.09-1.1-1.09h-380.651v250.3h5.541l17.337-7.806 47.267.879.876 6.927h309.63c.61 0 1.1-.49 1.1-1.1v-72.83l-7.708-6.09 1.808-28.78 5.9-6.1v-61.93l-7.722-2.734v-25.254z" fill="#b8de9c"/><path d="m212.254 165.203c3.357 1.808 6.844 3.426 10.461 4.817l16.901 21.299c3.916 4.925 9.771 7.749 16.061 7.749 6.292 0 12.146-2.825 16.07-7.761l16.889-21.284c3.638-1.395 7.142-3.013 10.515-4.82z" fill="#a6d786"/><path d="m58.088 165.203c-.61 0-1.1.49-1.1 1.09v134.31l7.616 7.206-.676 29.48-6.941 4.284v72.83c0 .61.49 1.1 1.1 1.1h24.46v-250.3z" fill="#a6d786"/><g id="XMLID_281_"><g><path d="m455.188 300.603v40.97h-218.56l-92.17 73.93h-65.48l92.17-73.93h-114.16v-40.97h255.51l142.69-114.45v52.52l-77.2 61.93z" fill="#f8f7f8"/></g></g><g><g fill="#efedee"><path d="m56.988 300.603h25.56v40.97h-25.56z"/><path d="m82.548 412.639-3.57 2.864h3.57z"/></g></g><g id="XMLID_279_"><g><path d="m332.498 84.323c0 34.08-22.21 62.97-52.94 73.01l-19.56 24.65c-2.21 2.78-6.43 2.78-8.64 0l-19.56-24.65c-31.81-10.39-54.49-40.97-52.86-76.61 1.82-39.73 33.37-71.31 73.1-73.14 44.08-2.04 80.46 33.1 80.46 76.74zm-36.4 0c0-22.33-18.1-40.42-40.42-40.42s-40.42 18.09-40.42 40.42c0 22.32 18.1 40.41 40.42 40.41s40.42-18.09 40.42-40.41z" fill="#e5827f"/></g></g><path d="m206.399 257c2.222 4.362-1.91 9.244-6.579 7.774l-18.303-5.762-3.46-1.089c-1.079-.34-2.237-.34-3.317 0l-21.763 6.851c-4.669 1.47-8.801-3.412-6.579-7.774l25.08-49.231c2.048-4.021 7.793-4.021 9.841 0z" fill="#fbe372"/><g fill="#e4e1e5"><circle cx="106.889" cy="458.739" r="15.366"/><circle cx="169.636" cy="458.739" r="15.366"/><circle cx="404.478" cy="458.739" r="15.366"/></g></g></g><g><path d="m26.986 243.849c4.143 0 7.5-3.357 7.5-7.5v-75.173c0-10.188 8.289-18.478 18.478-18.478h108.907c4.143 0 7.5-3.357 7.5-7.5s-3.357-7.5-7.5-7.5h-108.907c-18.46 0-33.478 15.018-33.478 33.478v75.173c0 4.142 3.358 7.5 7.5 7.5z"/><path d="m459.212 127.698h-109.567c-4.143 0-7.5 3.357-7.5 7.5s3.357 7.5 7.5 7.5h109.567c10.188 0 18.478 8.289 18.478 18.478v317.522c0 10.188-8.289 18.478-18.478 18.478h-406.248c-10.188 0-18.478-8.289-18.478-18.478v-210.386c0-4.143-3.357-7.5-7.5-7.5s-7.5 3.357-7.5 7.5v210.387c0 18.46 15.018 33.478 33.478 33.478h406.248c18.46 0 33.478-15.018 33.478-33.478v-317.523c0-18.46-15.018-33.478-33.478-33.478z"/><path d="m462.69 414.405v-248.109c0-4.741-3.856-8.598-8.598-8.598h-128.584c-4.143 0-7.5 3.357-7.5 7.5s3.357 7.5 7.5 7.5h122.182v9.854l-137.824 110.549h-245.38v-120.403h121.496c4.143 0 7.5-3.357 7.5-7.5s-3.357-7.5-7.5-7.5h-127.898c-4.741 0-8.598 3.856-8.598 8.598v248.109c0 4.74 3.856 8.597 8.598 8.597h315.047c4.143 0 7.5-3.357 7.5-7.5s-3.357-7.5-7.5-7.5h-207.333l73.47-58.93h208.422v58.93h-42.597c-4.143 0-7.5 3.357-7.5 7.5s3.357 7.5 7.5 7.5h48.999c4.741 0 8.598-3.856 8.598-8.597zm-15-121.304h-48.37l48.369-38.797v38.797zm-383.204 55.971h85.325l-73.469 58.93h-11.856zm172.145-15c-1.706 0-3.361.582-4.692 1.649l-90.114 72.28h-41.51l75.525-60.579c2.483-1.992 3.438-5.334 2.383-8.338-1.056-3.003-3.892-5.013-7.075-5.013h-106.662v-25.972h248.016c1.706 0 3.361-.582 4.692-1.649l130.496-104.669v33.295l-74.398 59.675c-2.483 1.992-3.438 5.334-2.383 8.338 1.056 3.003 3.892 5.013 7.075 5.013h69.706v25.972h-211.059z"/><path d="m227.291 163.718 18.192 22.926c2.483 3.13 6.199 4.925 10.195 4.925 3.995 0 7.711-1.795 10.194-4.925l18.19-22.925c33.552-11.974 55.935-43.594 55.935-79.401 0-6.829-.841-13.68-2.498-20.361-.997-4.021-5.064-6.473-9.085-5.474-4.021.997-6.471 5.064-5.474 9.085 1.364 5.502 2.057 11.137 2.057 16.75 0 30.071-19.198 56.549-47.772 65.888-1.397.457-2.631 1.314-3.545 2.467l-18.003 22.688-18.003-22.688c-.914-1.152-2.147-2.01-3.545-2.467-29.502-9.642-49.116-38.075-47.698-69.145 1.642-35.958 29.994-64.326 65.95-65.987 22.411-1.052 44.05 8.88 57.881 26.523 2.557 3.261 7.269 3.831 10.529 1.275 3.26-2.555 3.831-7.27 1.275-10.529-16.816-21.455-43.155-33.508-70.375-32.254-43.749 2.021-78.246 36.537-80.243 80.288-1.69 37.01 21.173 70.946 55.843 83.341z"/><path d="m207.758 84.318c0 26.423 21.497 47.92 47.92 47.92s47.92-21.497 47.92-47.92-21.497-47.92-47.92-47.92-47.92 21.497-47.92 47.92zm80.84 0c0 18.152-14.768 32.92-32.92 32.92s-32.92-14.768-32.92-32.92 14.768-32.92 32.92-32.92 32.92 14.767 32.92 32.92z"/><path d="m176.398 197.253c-4.923 0-9.369 2.726-11.603 7.111l-25.081 49.231c-2.387 4.687-1.733 10.309 1.664 14.322 3.396 4.015 8.833 5.587 13.851 4.01l21.17-6.665 21.169 6.665c1.295.407 2.616.604 3.924.604 3.763 0 7.407-1.636 9.929-4.615 3.396-4.015 4.049-9.637 1.661-14.323v.001l-25.08-49.23c-2.234-4.385-6.681-7.111-11.604-7.111zm3.91 53.515c-1.279-.402-2.595-.604-3.91-.604s-2.631.201-3.909.604l-17.269 5.437 21.179-41.571 21.178 41.571z"/><path d="m84.024 458.739c0 12.608 10.258 22.866 22.866 22.866s22.865-10.258 22.865-22.866-10.257-22.866-22.865-22.866-22.866 10.258-22.866 22.866zm30.731 0c0 4.338-3.528 7.866-7.865 7.866-4.338 0-7.866-3.528-7.866-7.866s3.528-7.866 7.866-7.866c4.337 0 7.865 3.529 7.865 7.866z"/><path d="m146.77 458.739c0 12.608 10.258 22.866 22.866 22.866s22.866-10.258 22.866-22.866-10.258-22.866-22.866-22.866-22.866 10.258-22.866 22.866zm30.732 0c0 4.338-3.528 7.866-7.866 7.866s-7.866-3.528-7.866-7.866 3.528-7.866 7.866-7.866 7.866 3.529 7.866 7.866z"/><path d="m381.612 458.739c0 12.608 10.257 22.866 22.865 22.866s22.866-10.258 22.866-22.866-10.258-22.866-22.866-22.866-22.865 10.258-22.865 22.866zm30.732 0c0 4.338-3.528 7.866-7.866 7.866-4.337 0-7.865-3.528-7.865-7.866s3.528-7.866 7.865-7.866c4.338 0 7.866 3.529 7.866 7.866z"/><path d="m215.149 451.239c-4.143 0-7.5 3.357-7.5 7.5s3.357 7.5 7.5 7.5h84.513c4.143 0 7.5-3.357 7.5-7.5s-3.357-7.5-7.5-7.5z"/><path d="m327.108 451.239c-4.143 0-7.5 3.357-7.5 7.5s3.357 7.5 7.5 7.5h4.54c4.143 0 7.5-3.357 7.5-7.5s-3.357-7.5-7.5-7.5z"/><path d="m357.564 451.239c-4.143 0-7.5 3.357-7.5 7.5s3.357 7.5 7.5 7.5h4.54c4.143 0 7.5-3.357 7.5-7.5s-3.357-7.5-7.5-7.5z"/></g></g></svg>