<svg id="Capa_1" enable-background="new 0 0 511.39 511.39" height="512" viewBox="0 0 511.39 511.39" width="512" xmlns="http://www.w3.org/2000/svg"><g><g><path d="m405.439 342.457-10.12-193.4-.95-18.02c-.21-3.97-3.49-7.09-7.47-7.09h-291.48c-3.98 0-7.26 3.12-7.47 7.09l-16.26 310.51 28.256 31.17h291.208l19.476-31.17z" fill="#f8f7f8"/><g><g id="XMLID_282_"><g><path d="m226.714 156.146c3.702 4.669 9.242 7.346 15.201 7.346 5.944 0 11.479-2.667 15.202-7.34l12.979-16.353c9.366-3.708 17.698-9.143 24.698-15.852h-105.645c6.982 6.712 15.282 12.15 24.587 15.847z" fill="#efedee"/><path d="m303.259 68.847c0 27.21-17.73 50.28-42.27 58.3l-15.62 19.68c-1.77 2.22-5.14 2.22-6.9 0l-15.62-19.68c-25.4-8.3-43.51-32.72-42.21-61.18 1.45-31.72 26.65-56.93 58.37-58.4 35.2-1.62 64.25 26.43 64.25 61.28zm-29.07 0c0-17.83-14.45-32.28-32.27-32.28-17.83 0-32.28 14.45-32.28 32.28 0 17.82 14.45 32.27 32.28 32.27 17.82 0 32.27-14.45 32.27-32.27z" fill="#e5827f"/></g></g><path d="m113.986 465.291 8.374-40.693c1.469-7.137 2.407-14.373 2.806-21.648l15.322-279.002h-45.07c-3.98 0-7.26 3.12-7.47 7.09l-16.26 310.51 28.256 31.17h18.065c-2.868-1.242-4.673-4.248-4.023-7.427z" fill="#efedee"/><g id="XMLID_280_"><g><path d="m410.629 441.547 12.23 62.34h-354.82c-4.44 0-7.78-4.06-6.93-8.42l10.58-53.92z" fill="#efedee"/></g></g><path d="m120.916 473.319c-4.44 0-7.78-3.871-6.93-8.028l4.886-23.744h-47.183l-10.58 53.92c-.85 4.36 2.49 8.42 6.93 8.42h354.82l-5.997-30.568z" fill="#e4e1e5"/><g><path d="m370.755 169.743c-7.461 1.619-13.697 6.781-16.683 13.806l-7.497 17.636c-1.918 4.512-2.381 9.428-1.341 14.217l20.343 93.632c2.592 11.923 13.322 20.577 25.516 20.578h.003c1.86 0 3.73-.201 5.556-.598l7.992-1.737-8.531-163.044z" fill="#efedee"/><path d="m450.156 290.656-20.342-93.631c-.376-1.73-1.28-3.302-2.586-4.497l-14.139-12.935c-2.049-1.874-4.88-2.638-7.593-2.049l-31.56 6.857c-2.714.59-4.972 2.459-6.059 5.015l-7.497 17.636c-.693 1.63-.863 3.434-.487 5.165l20.342 93.631c1.304 6.003 7.228 9.812 13.231 8.508l48.181-10.468c6.004-1.305 9.814-7.229 8.509-13.232z" fill="#f8deb6"/></g></g><g fill="#e4e1e5"><circle cx="178.525" cy="194.78" r="16.49"/><circle cx="304.793" cy="194.78" r="16.49"/></g></g><g><path d="m218.333 133.519 14.261 17.969c2.271 2.863 5.67 4.505 9.324 4.505s7.053-1.642 9.324-4.504l14.258-17.969c27.168-9.884 45.258-35.588 45.258-64.678 0-6.862-1.022-13.67-3.039-20.233-1.216-3.961-5.414-6.184-9.371-4.967-3.96 1.216-6.184 5.412-4.967 9.371 1.577 5.136 2.377 10.461 2.377 15.829 0 23.355-14.911 43.921-37.104 51.175-1.397.457-2.631 1.314-3.545 2.467l-13.191 16.624-13.192-16.624c-.914-1.152-2.147-2.01-3.545-2.467-22.914-7.489-38.148-29.575-37.047-53.707 1.275-27.927 23.296-49.96 51.223-51.249 14.516-.679 28.396 4.379 39.06 14.222 3.041 2.81 7.788 2.619 10.598-.424s2.62-7.788-.424-10.598c-13.633-12.585-31.37-19.048-49.927-18.184-35.719 1.649-63.884 29.83-65.515 65.55-1.372 30.068 17.107 57.653 45.184 67.892z"/><path d="m241.917 29.067c-21.933 0-39.775 17.843-39.775 39.775s17.843 39.775 39.775 39.775 39.775-17.843 39.775-39.775-17.842-39.775-39.775-39.775zm0 64.551c-13.661 0-24.775-11.114-24.775-24.775s11.114-24.775 24.775-24.775 24.775 11.114 24.775 24.775-11.113 24.775-24.775 24.775z"/><path d="m418.094 440.622-5.161-98.562c-.218-4.138-3.755-7.315-7.883-7.098-4.136.217-7.313 3.746-7.097 7.883l4.775 91.198h-55.962c-4.143 0-7.5 3.357-7.5 7.5s3.357 7.5 7.5 7.5h57.692l9.284 47.346h-345.168l9.284-47.346h237.493c4.143 0 7.5-3.357 7.5-7.5s-3.357-7.5-7.5-7.5h-235.763l2.09-39.919c.217-4.137-2.961-7.666-7.097-7.882-4.111-.244-7.666 2.96-7.882 7.097l-2.477 47.282-10.471 53.403c-.841 4.288.269 8.682 3.045 12.056s6.875 5.309 11.244 5.309h354.815c2.242 0 4.366-1.003 5.791-2.734 1.425-1.73 2-4.009 1.569-6.209z"/><path d="m75.47 369.259c.134.008.267.011.399.011 3.962 0 7.273-3.105 7.482-7.107l12.064-230.711h73.771c4.143 0 7.5-3.357 7.5-7.5s-3.357-7.5-7.5-7.5h-73.769c-7.972 0-14.543 6.236-14.96 14.196l-12.083 230.729c-.217 4.137 2.96 7.666 7.096 7.882z"/><path d="m307.323 123.952c0 4.143 3.357 7.5 7.5 7.5l72.059-.019.944 18.016c.209 4.003 3.521 7.107 7.482 7.107.133 0 .266-.003.399-.011 4.137-.217 7.314-3.745 7.097-7.882l-.944-18.015c-.416-7.961-6.987-14.197-14.959-14.197h-72.078c-4.143.001-7.5 3.358-7.5 7.501z"/><path d="m241.659 315.597c38.947 0 70.634-31.687 70.634-70.634v-27.399c9.565-3.157 16.49-12.174 16.49-22.783 0-13.229-10.762-23.99-23.99-23.99s-23.99 10.762-23.99 23.99c0 10.609 6.925 19.626 16.49 22.783v27.399c0 30.677-24.957 55.634-55.634 55.634s-55.634-24.957-55.634-55.634v-27.399c9.565-3.157 16.49-12.174 16.49-22.783 0-13.229-10.762-23.99-23.99-23.99s-23.99 10.762-23.99 23.99c0 10.609 6.925 19.626 16.49 22.783v27.399c0 38.948 31.686 70.634 70.634 70.634zm63.133-129.807c4.957 0 8.99 4.033 8.99 8.99s-4.033 8.99-8.99 8.99-8.99-4.033-8.99-8.99 4.033-8.99 8.99-8.99zm-126.267 0c4.957 0 8.99 4.033 8.99 8.99s-4.033 8.99-8.99 8.99-8.99-4.033-8.99-8.99 4.033-8.99 8.99-8.99z"/><path d="m457.486 289.064-4.869-22.409c-.879-4.047-4.869-6.611-8.922-5.736-4.048.88-6.615 4.874-5.736 8.922l4.869 22.408c.424 1.952-.819 3.886-2.771 4.31l-48.181 10.469c-1.953.421-3.887-.82-4.311-2.772l-20.342-93.627c-.047-.217-.026-.439.06-.642l7.497-17.637c.134-.314.413-.546.748-.618l31.561-6.856c.335-.076.686.022.938.253l14.138 12.933c.161.147.275.346.321.559l8.686 39.978c.879 4.048 4.872 6.616 8.921 5.737 4.048-.88 6.616-4.874 5.737-8.921l-8.686-39.979c-.709-3.264-2.387-6.182-4.853-8.439l-14.141-12.935c-3.838-3.51-9.166-4.948-14.246-3.843l-31.559 6.856c-5.085 1.104-9.336 4.622-11.37 9.409l-7.498 17.637c-1.305 3.073-1.621 6.422-.913 9.69l20.343 93.631c1.893 8.708 9.627 14.672 18.197 14.672 1.305-.001 2.63-.139 3.956-.427l48.181-10.469c10.034-2.182 16.425-12.118 14.245-22.154z"/><path d="m399.335 206.096-6.765 2.061c-3.962 1.207-6.196 5.397-4.989 9.36.985 3.234 3.958 5.316 7.172 5.316.724 0 1.46-.105 2.188-.327l6.765-2.061c3.962-1.207 6.196-5.397 4.989-9.36s-5.394-6.194-9.36-4.989z"/></g></g></svg>