<svg id="Capa_1" enable-background="new 0 0 511.969 511.969" height="512" viewBox="0 0 511.969 511.969" width="512" xmlns="http://www.w3.org/2000/svg"><g><g><g id="XMLID_284_"><g><path d="m428.909 123.937h-23.41l-24.457 35.16v262.994l24.457 35.066h23.41c7.32 0 13.26-5.93 13.26-13.26v-306.7c0-7.321-5.94-13.26-13.26-13.26z" fill="#fbe88c"/></g></g><path d="m315.629 123.936h89.87v333.22h-89.87z" fill="#fcf0b6"/><g><g id="XMLID_283_"><g><path d="m375.069 108.726v180.26c0 3.04-.74 6.04-2.14 8.73l-16.75 32.09v151.49c0 12.8-10.37 23.17-23.16 23.17h-221.17c-12.79 0-23.16-10.37-23.16-23.17v-151.49l-16.75-32.09c-1.4-2.69-2.14-5.69-2.14-8.73v-180.26c0-23.9 19.37-43.27 43.27-43.27h218.73c23.9 0 43.27 19.37 43.27 43.27z" fill="#b3adb5"/></g></g><path d="m154.315 476.336c-12.79 0-23.16-10.077-23.16-22.516v-135.627c0-7.607-1.884-15.095-5.483-21.796l-11.267-20.976c-1.4-2.614-2.14-5.529-2.14-8.484v-175.172c0-9.96 3.57-19.104 9.524-26.308h-8.721c-23.897 0-43.27 19.373-43.27 43.27v180.26c0 3.04.74 6.04 2.14 8.73l16.75 32.09v151.49c0 12.8 10.37 23.17 23.16 23.17h221.17c12.79 0 23.16-10.37 23.16-23.17v-4.961z" fill="#a59ca6"/><path d="m333.333 113.725c5.879 0 10.645 4.766 10.645 10.645v16.657c0 5.879-4.766 10.645-10.645 10.645h-221.798c-5.879 0-10.645-4.766-10.645-10.645v-16.657c0-5.879 4.766-10.645 10.645-10.645z" fill="#a59ca6"/><path d="m112.266 113.725h-.73c-5.879 0-10.645 4.766-10.645 10.645v16.657c0 5.879 4.766 10.645 10.645 10.645h.73z" fill="#8f8390"/><path d="m311.984 278.322h-179.101c-5.704 0-10.328-4.624-10.328-10.328v-79.905c0-5.704 4.624-10.328 10.328-10.328h179.101c5.704 0 10.328 4.624 10.328 10.328v79.905c0 5.704-4.624 10.328-10.328 10.328z" fill="#86d7e5"/><g fill="#efedee"><path d="m148.794 348.702h-18.722c-3.004 0-5.439-2.435-5.439-5.439v-18.722c0-3.004 2.435-5.439 5.439-5.439h18.722c3.004 0 5.439 2.435 5.439 5.439v18.722c0 3.004-2.435 5.439-5.439 5.439z"/><path d="m204.128 348.702h-18.722c-3.004 0-5.439-2.435-5.439-5.439v-18.722c0-3.004 2.435-5.439 5.439-5.439h18.722c3.004 0 5.439 2.435 5.439 5.439v18.722c0 3.004-2.435 5.439-5.439 5.439z"/><path d="m259.462 348.702h-18.722c-3.004 0-5.439-2.435-5.439-5.439v-18.722c0-3.004 2.435-5.439 5.439-5.439h18.722c3.004 0 5.439 2.435 5.439 5.439v18.722c-.001 3.004-2.436 5.439-5.439 5.439z"/><path d="m314.796 348.702h-18.722c-3.004 0-5.439-2.435-5.439-5.439v-18.722c0-3.004 2.435-5.439 5.439-5.439h18.722c3.004 0 5.439 2.435 5.439 5.439v18.722c-.001 3.004-2.436 5.439-5.439 5.439z"/><path d="m148.794 404.922h-18.722c-3.004 0-5.439-2.435-5.439-5.439v-18.722c0-3.004 2.435-5.439 5.439-5.439h18.722c3.004 0 5.439 2.435 5.439 5.439v18.722c0 3.004-2.435 5.439-5.439 5.439z"/><path d="m204.128 404.922h-18.722c-3.004 0-5.439-2.435-5.439-5.439v-18.722c0-3.004 2.435-5.439 5.439-5.439h18.722c3.004 0 5.439 2.435 5.439 5.439v18.722c0 3.004-2.435 5.439-5.439 5.439z"/><path d="m259.462 404.922h-18.722c-3.004 0-5.439-2.435-5.439-5.439v-18.722c0-3.004 2.435-5.439 5.439-5.439h18.722c3.004 0 5.439 2.435 5.439 5.439v18.722c-.001 3.004-2.436 5.439-5.439 5.439z"/><path d="m314.796 404.922h-18.722c-3.004 0-5.439-2.435-5.439-5.439v-18.722c0-3.004 2.435-5.439 5.439-5.439h18.722c3.004 0 5.439 2.435 5.439 5.439v18.722c-.001 3.004-2.436 5.439-5.439 5.439z"/><path d="m316.338 472.654h-187.809c-3.299 0-5.974-2.675-5.974-5.974v-19.046c0-3.299 2.675-5.974 5.974-5.974h187.809c3.299 0 5.974 2.675 5.974 5.974v19.046c0 3.299-2.674 5.974-5.974 5.974z"/></g><path d="m128.529 441.661c-3.299 0-5.974 2.675-5.974 5.974v19.045c0 3.299 2.675 5.974 5.974 5.974h13.099c-6.305-4.022-10.472-10.952-10.472-18.834v-12.159z" fill="#e4e1e5"/><path d="m311.954 151.673h-179.04v-134.938c0-5.101 4.135-9.235 9.235-9.235h160.569c5.101 0 9.236 4.135 9.236 9.235z" fill="#f8f7f8"/><path d="m155.859 116.254v-108.754h-13.71c-5.101 0-9.235 4.135-9.235 9.235v134.937h179.04v-19.78h-140.456c-8.637.001-15.639-7.001-15.639-15.638z" fill="#efedee"/></g></g><g><path d="m329.812 188.089c0-9.83-7.998-17.827-17.828-17.827h-179.101c-9.83 0-17.828 7.997-17.828 17.827v79.905c0 9.83 7.998 17.828 17.828 17.828h179.101c9.83 0 17.828-7.998 17.828-17.828zm-15 79.905c0 1.56-1.269 2.828-2.828 2.828h-179.101c-1.559 0-2.828-1.269-2.828-2.828v-79.905c0-1.559 1.269-2.827 2.828-2.827h179.101c1.559 0 2.828 1.269 2.828 2.827z"/><path d="m161.733 324.541c0-7.135-5.804-12.938-12.939-12.938h-18.722c-7.135 0-12.939 5.804-12.939 12.938v18.723c0 7.135 5.804 12.938 12.939 12.938h18.722c7.135 0 12.939-5.804 12.939-12.938zm-15 16.661h-14.6v-14.6h14.6z"/><path d="m217.066 324.541c0-7.135-5.804-12.938-12.938-12.938h-18.722c-7.135 0-12.939 5.804-12.939 12.938v18.723c0 7.135 5.804 12.938 12.939 12.938h18.722c7.134 0 12.938-5.804 12.938-12.938zm-15 16.661h-14.599v-14.6h14.599z"/><path d="m272.4 324.541c0-7.135-5.804-12.938-12.939-12.938h-18.721c-7.134 0-12.938 5.804-12.938 12.938v18.723c0 7.135 5.804 12.938 12.938 12.938h18.722c7.135 0 12.939-5.804 12.939-12.938v-18.723zm-15 16.661h-14.599v-14.6h14.599z"/><path d="m327.734 324.541c0-7.135-5.804-12.938-12.939-12.938h-18.722c-7.135 0-12.939 5.804-12.939 12.938v18.723c0 7.135 5.804 12.938 12.939 12.938h18.722c7.135 0 12.939-5.804 12.939-12.938zm-15 16.661h-14.6v-14.6h14.6z"/><path d="m148.794 367.822h-18.722c-7.135 0-12.939 5.804-12.939 12.938v18.722c0 7.135 5.804 12.939 12.939 12.939h18.722c7.135 0 12.939-5.805 12.939-12.939v-18.722c0-7.134-5.804-12.938-12.939-12.938zm-2.061 29.6h-14.6v-14.6h14.6z"/><path d="m204.128 367.822h-18.722c-7.135 0-12.939 5.804-12.939 12.938v18.722c0 7.135 5.804 12.939 12.939 12.939h18.722c7.134 0 12.938-5.805 12.938-12.939v-18.722c0-7.134-5.804-12.938-12.938-12.938zm-2.062 29.6h-14.599v-14.6h14.599z"/><path d="m259.461 367.822h-18.721c-7.134 0-12.938 5.804-12.938 12.938v18.722c0 7.135 5.804 12.939 12.938 12.939h18.722c7.135 0 12.939-5.805 12.939-12.939v-18.722c-.001-7.134-5.805-12.938-12.94-12.938zm-2.061 29.6h-14.599v-14.6h14.599z"/><path d="m314.795 367.822h-18.722c-7.135 0-12.939 5.804-12.939 12.938v18.722c0 7.135 5.804 12.939 12.939 12.939h18.722c7.135 0 12.939-5.805 12.939-12.939v-18.722c0-7.134-5.804-12.938-12.939-12.938zm-2.061 29.6h-14.6v-14.6h14.6z"/><path d="m115.056 466.681c0 7.43 6.044 13.474 13.474 13.474h187.809c7.429 0 13.474-6.044 13.474-13.474v-19.046c0-7.43-6.044-13.474-13.474-13.474h-187.81c-7.429 0-13.474 6.044-13.474 13.474v19.046zm15-17.52h184.756v15.993h-184.756z"/><path d="m442.167 176.267c4.142 0 7.5-3.357 7.5-7.5v-31.571c0-11.446-9.312-20.759-20.758-20.759h-46.343v-7.714c0-27.993-22.774-50.768-50.768-50.768h-12.345v-41.22c.001-9.227-7.507-16.735-16.735-16.735h-96.285c-4.142 0-7.5 3.357-7.5 7.5s3.358 7.5 7.5 7.5h96.285c.957 0 1.735.778 1.735 1.735v127.438h-164.04v-127.438c0-.957.778-1.735 1.735-1.735h32.321c4.142 0 7.5-3.357 7.5-7.5s-3.358-7.5-7.5-7.5h-32.321c-9.228 0-16.735 7.508-16.735 16.735v41.22h-12.345c-27.993 0-50.768 22.774-50.768 50.768v53.058c0 4.143 3.358 7.5 7.5 7.5s7.5-3.357 7.5-7.5v-53.058c0-19.723 16.045-35.768 35.768-35.768h12.345v33.271h-13.879c-10.005 0-18.146 8.14-18.146 18.145v16.657c0 10.006 8.14 18.146 18.146 18.146h221.797c10.005 0 18.146-8.14 18.146-18.146v-16.658c0-10.005-8.14-18.145-18.146-18.145h-13.879v-33.27h12.345c19.722 0 35.768 16.045 35.768 35.768v180.265c0 1.825-.446 3.646-1.291 5.265l-16.741 32.087c-.559 1.07-.851 2.261-.851 3.469v151.493c0 8.64-7.029 15.668-15.668 15.668h-221.162c-8.639 0-15.668-7.028-15.668-15.668v-151.494c0-1.208-.292-2.398-.851-3.469l-16.741-32.087c-.845-1.619-1.291-3.439-1.291-5.265v-95.244c0-4.143-3.358-7.5-7.5-7.5s-7.5 3.357-7.5 7.5v95.244c0 4.231 1.035 8.45 2.992 12.202l15.89 30.457v149.654c0 16.91 13.758 30.668 30.668 30.668h221.164c16.91 0 30.668-13.758 30.668-30.668v-16.644h65.225c11.446 0 20.758-9.312 20.758-20.758v-243.169c0-4.143-3.358-7.5-7.5-7.5s-7.5 3.357-7.5 7.5v243.171c0 3.175-2.583 5.758-5.758 5.758h-15.914v-318.221h15.914c3.175 0 5.758 2.583 5.758 5.759v31.571c.001 4.142 3.359 7.5 7.501 7.5zm-333.777-35.24v-16.657c0-1.734 1.411-3.145 3.146-3.145h13.879v22.947h-13.879c-1.735.001-3.146-1.41-3.146-3.145zm224.943-19.801c1.734 0 3.146 1.41 3.146 3.145v16.657c0 1.734-1.411 3.146-3.146 3.146h-13.879v-22.947h13.879zm64.662 328.431h-34.312v-118.011l15.89-30.457c1.958-3.752 2.992-7.971 2.992-12.202v-157.55h15.429v318.22z"/><path d="m279.767 33.746h-114.665c-4.142 0-7.5 3.357-7.5 7.5s3.358 7.5 7.5 7.5h114.665c4.142 0 7.5-3.357 7.5-7.5s-3.358-7.5-7.5-7.5z"/><path d="m279.767 67.766h-114.665c-4.142 0-7.5 3.357-7.5 7.5s3.358 7.5 7.5 7.5h114.665c4.142 0 7.5-3.357 7.5-7.5s-3.358-7.5-7.5-7.5z"/><path d="m279.767 101.786h-114.665c-4.142 0-7.5 3.357-7.5 7.5s3.358 7.5 7.5 7.5h114.665c4.142 0 7.5-3.357 7.5-7.5s-3.358-7.5-7.5-7.5z"/></g></g></svg>