<svg id="Capa_1" enable-background="new 0 0 512.377 512.377" height="512" viewBox="0 0 512.377 512.377" width="512" xmlns="http://www.w3.org/2000/svg"><g><g><path d="m479.004 112.023h-227.725l-30.939 12.741-51.553-2.731-6.672-10.01h-101.442c-7.826 0-14.448 5.782-15.502 13.537l-37.528 275.963c-1.277 9.392 6.024 17.753 15.502 17.753h424.08c13.847 0 25.072-11.225 25.072-25.072 0-13.847-11.225-25.073-25.072-25.073h-136.84c-11.619 0-21.038-9.419-21.038-21.038s9.419-21.038 21.038-21.038h60.299c11.137 0 20.166-9.028 20.166-20.166 0-11.137-9.028-20.166-20.166-20.166h-33.495c-10.055 0-18.206-8.151-18.206-18.206s8.151-18.206 18.206-18.206h81.927c12.437 0 22.518-10.082 22.518-22.518 0-12.437-10.082-22.518-22.518-22.518h-16.137c-11.462 0-20.754-9.292-20.754-20.754 0-11.462 9.292-20.754 20.754-20.754h76.025c14.289 0 25.873-11.583 25.873-25.873 0-14.288-11.584-25.871-25.873-25.871z" fill="#dfae91"/><g><path d="m84.604 385.807c-9.478 0-16.779-8.361-15.502-17.753l34.817-256.031h-43.246c-7.826 0-14.448 5.782-15.502 13.537l-37.528 275.963c-1.277 9.392 6.024 17.753 15.502 17.753h424.08c13.847 0 25.072-11.225 25.072-25.072 0-2.946-.512-5.771-1.446-8.397z" fill="#d79c7a"/></g><g><path d="m251.279 112.023-10.231 75.235c-.496 3.649-4.258 5.889-7.703 4.585l-34.69-13.13c-1.275-.482-2.68-.495-3.962-.034l-34.897 12.525c-4.045 1.452-8.189-1.904-7.61-6.163l9.93-73.017h89.163z" fill="#fbe372"/><path d="m257.876 242.016h-188.49c-3.434 0-6.341 2.538-6.803 5.941l-16.087 118.294c-.561 4.122 2.644 7.791 6.803 7.791h188.49c3.434 0 6.34-2.538 6.803-5.941l16.087-118.295c.561-4.121-2.644-7.79-6.803-7.79z" fill="#f8f7f8"/><path d="m53.299 374.042h16.165c-.487-1.896-.644-3.913-.362-5.989l17.14-126.038h-16.856c-3.434 0-6.34 2.538-6.803 5.941l-16.088 118.295c-.56 4.122 2.644 7.791 6.804 7.791z" fill="#efedee"/><path d="m484.451 327.056h-32.206c-11.137 0-20.165-9.028-20.165-20.165 0-11.137 9.028-20.165 20.165-20.165h32.206c11.137 0 20.165 9.028 20.165 20.165.001 11.137-9.028 20.165-20.165 20.165z" fill="#e5bda7"/></g></g><g><path d="m256.444 60.998h162.771c4.143 0 7.5-3.357 7.5-7.5s-3.357-7.5-7.5-7.5h-162.771c-4.142 0-7.5 3.357-7.5 7.5s3.358 7.5 7.5 7.5z"/><path d="m504.877 186.89h-38.028c-4.143 0-7.5 3.357-7.5 7.5s3.357 7.5 7.5 7.5h38.028c4.143 0 7.5-3.357 7.5-7.5s-3.358-7.5-7.5-7.5z"/><path d="m484.451 279.225h-32.206c-15.255 0-27.665 12.411-27.665 27.666s12.41 27.665 27.665 27.665h32.206c15.255 0 27.666-12.411 27.666-27.666s-12.411-27.665-27.666-27.665zm0 40.331h-32.206c-6.983 0-12.665-5.682-12.665-12.666 0-6.983 5.682-12.665 12.665-12.665h32.206c6.984 0 12.666 5.682 12.666 12.666 0 6.983-5.682 12.665-12.666 12.665z"/><path d="m493.51 251.296c4.143 0 7.5-3.357 7.5-7.5s-3.357-7.5-7.5-7.5h-11.982c-4.143 0-7.5 3.357-7.5 7.5s3.357 7.5 7.5 7.5z"/><path d="m259.243 451.378h-122.6c-4.142 0-7.5 3.357-7.5 7.5s3.358 7.5 7.5 7.5h122.6c4.143 0 7.5-3.357 7.5-7.5s-3.357-7.5-7.5-7.5z"/><path d="m319.1 451.378h-16.132c-4.143 0-7.5 3.357-7.5 7.5s3.357 7.5 7.5 7.5h16.132c4.143 0 7.5-3.357 7.5-7.5s-3.357-7.5-7.5-7.5z"/><path d="m55.151 246.946-16.087 118.295c-.559 4.11.686 8.26 3.414 11.385s6.672 4.917 10.821 4.917h188.49c7.152 0 13.272-5.344 14.235-12.43l16.086-118.295c.559-4.111-.686-8.261-3.414-11.386-2.728-3.124-6.672-4.916-10.82-4.916h-127.723c-4.142 0-7.5 3.357-7.5 7.5s3.358 7.5 7.5 7.5h126.997l-15.914 117.026h-187.211l15.915-117.026h28.074c4.142 0 7.5-3.357 7.5-7.5s-3.358-7.5-7.5-7.5h-28.628c-7.152 0-13.271 5.344-14.235 12.43z"/><path d="m117.288 119.523h36.238l-8.772 64.506c-.628 4.619 1.159 9.129 4.782 12.062 3.622 2.933 8.403 3.745 12.793 2.171l34.282-12.304 34.079 12.898c1.526.577 3.115.863 4.695.863 2.345 0 4.672-.63 6.753-1.868 3.483-2.073 5.795-5.566 6.342-9.584l9.349-68.745h167.297c4.143 0 7.5-3.357 7.5-7.5s-3.357-7.5-7.5-7.5h-307.838c-4.142 0-7.5 3.357-7.5 7.5s3.358 7.501 7.5 7.501zm116.629 64.516-32.602-12.34c-2.942-1.116-6.194-1.144-9.155-.081l-32.148 11.538 8.653-63.634h74.026z"/><path d="m447.225 361.631h-136.84c-7.465 0-13.538-6.073-13.538-13.537 0-7.465 6.073-13.538 13.538-13.538h60.299c15.255 0 27.666-12.41 27.666-27.665s-12.411-27.666-27.666-27.666h-33.494c-5.903 0-10.706-4.803-10.706-10.706s4.803-10.706 10.706-10.706h81.927c16.553 0 30.019-13.466 30.019-30.018 0-16.553-13.466-30.019-30.019-30.019h-16.137c-7.309 0-13.254-5.945-13.254-13.254s5.945-13.255 13.254-13.255h76.024c18.402 0 33.373-14.971 33.373-33.372 0-18.402-14.971-33.373-33.373-33.373h-21.916c-4.143 0-7.5 3.357-7.5 7.5s3.357 7.5 7.5 7.5h21.916c10.131 0 18.373 8.242 18.373 18.373s-8.242 18.372-18.373 18.372h-76.024c-15.579 0-28.254 12.675-28.254 28.255 0 15.579 12.675 28.254 28.254 28.254h16.137c8.281 0 15.019 6.737 15.019 15.019 0 8.28-6.737 15.018-15.019 15.018h-81.927c-14.175 0-25.706 11.531-25.706 25.706s11.531 25.706 25.706 25.706h33.494c6.984 0 12.666 5.682 12.666 12.666 0 6.983-5.682 12.665-12.666 12.665h-60.299c-15.736 0-28.538 12.802-28.538 28.538 0 15.735 12.802 28.537 28.538 28.537h136.841c9.689 0 17.572 7.883 17.572 17.572s-7.883 17.572-17.572 17.572h-424.081c-2.387 0-4.565-.99-6.135-2.788-1.569-1.797-2.257-4.089-1.935-6.453l37.527-275.964c.546-4.018 4.016-7.047 8.07-7.047h24.563c4.142 0 7.5-3.357 7.5-7.5s-3.358-7.5-7.5-7.5h-24.562c-11.521 0-21.381 8.609-22.934 20.025l-37.528 275.965c-.9 6.622 1.104 13.307 5.5 18.341s10.75 7.922 17.434 7.922h424.081c17.96 0 32.572-14.612 32.572-32.572s-14.613-32.573-32.573-32.573z"/></g></g></svg>