<svg id="Capa_1" enable-background="new 0 0 511.493 511.493" height="512" viewBox="0 0 511.493 511.493" width="512" xmlns="http://www.w3.org/2000/svg"><g><g><g id="XMLID_287_"><g><path d="m503.992 171.24v78.16c0 8.32-6.75 15.07-15.07 15.07h-141.92c7.44-17.96 11.55-37.65 11.55-58.3 0-17.51-2.96-34.34-8.4-50h138.77c8.32 0 15.07 6.75 15.07 15.07z" fill="#fcf1de"/></g></g></g><g><path d="m327.077 363.815 133.049 133.049c9.505 9.505 24.915 9.505 34.419 0l2.319-2.319c9.504-9.505 9.504-24.915 0-34.419l-133.05-133.05-77.423-79.522-44.904 26.317z" fill="#dfae91"/><g><g><path d="m363.815 327.077-77.423-79.522-44.904 26.316 85.589 89.944 14.268 14.268c6.764-5.34 13.262-11.101 19.449-17.287 6.188-6.188 11.949-12.686 17.29-19.451z" fill="#d79c7a"/><path d="m413.919 156.17h-40.033l14.538 50.011-16.061 58.289h39.461c5.28-18.731 8.017-38.304 8.017-58.3.001-17.214-2.06-33.954-5.922-50z" fill="#f8deb6"/><circle cx="206.172" cy="206.17" fill="#f8f7f8" r="198.67"/></g></g><g><path d="m85.683 210.32c0-90.208 53.831-167.839 131.119-202.536-3.52-.186-7.064-.284-10.63-.284-109.72 0-198.67 88.95-198.67 198.67 0 107.864 85.951 195.634 193.091 198.588-68.5-37.775-114.91-110.682-114.91-194.438z" fill="#efedee"/><path d="m333.01 235.888 12.181-68.464 4.97-11.224c-20.689-59.603-77.333-102.4-143.983-102.4-84.16 0-152.38 68.23-152.38 152.38 0 84.16 68.22 152.38 152.38 152.38 63.512 0 117.938-38.856 140.825-94.091z" fill="#b3e5ee"/><path d="m134.183 71.848c-47.848 25.7-80.386 76.222-80.386 134.333 0 53.652 27.74 100.835 69.644 127.986-23.834-35.368-37.758-77.989-37.758-123.847 0-52.376 18.151-100.518 48.5-138.472z" fill="#86d7e5"/><path d="m350.163 156.171c5.44 15.66 8.389 32.489 8.389 49.999 0 20.65-4.11 40.34-11.55 58.3h-217.44c-8.32 0-15.07-6.75-15.07-15.07v-78.16c0-8.32 6.75-15.07 15.07-15.07z" fill="#f6e2c4"/><g fill="#f8f7f8"><circle cx="181.06" cy="206.172" r="15.524"/><circle cx="241.488" cy="206.172" r="15.524"/><circle cx="301.916" cy="206.172" r="15.524"/><circle cx="451.616" cy="206.172" r="15.524"/><circle cx="211.937" cy="86.25" r="41.877"/></g><g id="XMLID_285_"><g><path d="m268.232 86.25c0 23.45-15.27 43.32-36.42 50.23l-13.45 16.96c-1.52 1.91-4.43 1.91-5.95 0l-13.45-16.96c-21.88-7.15-37.48-28.18-36.36-52.7 1.24-27.33 22.95-49.06 50.28-50.32 30.33-1.4 55.35 22.77 55.35 52.79zm-30.81 0c0-12.16-9.87-22.03-22.03-22.03-12.17 0-22.03 9.87-22.03 22.03 0 12.17 9.86 22.03 22.03 22.03 12.16 0 22.03-9.86 22.03-22.03z" fill="#e5827f"/></g></g></g></g><g><path d="m137.65 76.567c3.66-1.939 5.055-6.479 3.115-10.139-1.938-3.659-6.477-5.054-10.139-3.115-53.07 28.12-86.039 82.86-86.039 142.859 0 26.02 6.001 50.87 17.837 73.86 1.33 2.585 3.954 4.069 6.674 4.069 1.155 0 2.329-.269 3.427-.834 3.683-1.896 5.132-6.418 3.235-10.101-10.731-20.847-16.173-43.387-16.173-66.995.001-54.429 29.913-104.091 78.063-129.604z"/><path d="m293.661 88.55c17.942 13.369 32.813 30.929 43.003 50.778 10.679 20.801 16.094 43.291 16.094 66.845 0 80.827-65.758 146.584-146.585 146.584-44.268 0-85.714-19.714-113.71-54.086-2.613-3.21-7.338-3.694-10.552-1.079-3.212 2.616-3.694 7.34-1.079 10.552 30.857 37.885 76.543 59.613 125.341 59.613 89.099 0 161.585-72.486 161.585-161.584 0-25.96-5.972-50.754-17.749-73.695-11.23-21.876-27.616-41.226-47.385-55.955-3.321-2.477-8.021-1.79-10.495 1.532-2.476 3.321-1.789 8.02 1.532 10.495z"/><path d="m488.919 148.666h-59.528c-4.143 0-7.5 3.357-7.5 7.5s3.357 7.5 7.5 7.5h59.528c4.177 0 7.574 3.397 7.574 7.574v78.154c0 4.177-3.397 7.574-7.574 7.574h-61.531c-4.143 0-7.5 3.357-7.5 7.5s3.357 7.5 7.5 7.5h61.531c12.447 0 22.574-10.127 22.574-22.574v-78.154c0-12.447-10.127-22.574-22.574-22.574z"/><path d="m106.991 171.24v78.154c0 12.448 10.127 22.575 22.575 22.575h186.12c4.143 0 7.5-3.357 7.5-7.5s-3.357-7.5-7.5-7.5h-186.12c-4.177 0-7.575-3.398-7.575-7.575v-78.154c0-4.177 3.398-7.574 7.575-7.574h41.426c4.143 0 7.5-3.357 7.5-7.5s-3.357-7.5-7.5-7.5h-41.426c-12.448 0-22.575 10.127-22.575 22.574z"/><path d="m327.226 156.166c0-4.143-3.357-7.5-7.5-7.5h-59.862c-4.143 0-7.5 3.357-7.5 7.5s3.357 7.5 7.5 7.5h59.862c4.142 0 7.5-3.357 7.5-7.5z"/><path d="m158.036 206.173c0 12.695 10.329 23.023 23.024 23.023s23.023-10.328 23.023-23.023-10.328-23.024-23.023-23.024-23.024 10.329-23.024 23.024zm31.048 0c0 4.424-3.6 8.023-8.023 8.023-4.425 0-8.024-3.6-8.024-8.023 0-4.425 3.6-8.024 8.024-8.024 4.423-.001 8.023 3.599 8.023 8.024z"/><path d="m241.488 183.148c-12.695 0-23.023 10.329-23.023 23.024s10.328 23.023 23.023 23.023 23.023-10.328 23.023-23.023-10.327-23.024-23.023-23.024zm0 31.048c-4.424 0-8.023-3.6-8.023-8.023 0-4.425 3.6-8.024 8.023-8.024s8.023 3.6 8.023 8.024c.001 4.424-3.599 8.023-8.023 8.023z"/><path d="m301.916 183.148c-12.695 0-23.023 10.329-23.023 23.024s10.328 23.023 23.023 23.023 23.023-10.328 23.023-23.023-10.328-23.024-23.023-23.024zm0 31.048c-4.424 0-8.023-3.6-8.023-8.023 0-4.425 3.6-8.024 8.023-8.024s8.023 3.6 8.023 8.024-3.599 8.023-8.023 8.023z"/><path d="m474.64 206.173c0-12.695-10.329-23.024-23.024-23.024s-23.023 10.329-23.023 23.024 10.328 23.023 23.023 23.023 23.024-10.328 23.024-23.023zm-31.048 0c0-4.425 3.6-8.024 8.023-8.024 4.425 0 8.024 3.6 8.024 8.024s-3.6 8.023-8.024 8.023-8.023-3.599-8.023-8.023z"/><path d="m212.537 25.971c-31.312 1.446-56.003 26.149-57.433 57.464-1.198 26.261 14.875 50.359 39.334 59.413l12.104 15.253c2.154 2.716 5.378 4.273 8.845 4.274h.002c3.466 0 6.69-1.558 8.847-4.273l12.103-15.252c23.662-8.739 39.398-31.196 39.398-56.597 0-16.648-6.633-32.151-18.678-43.652-12.038-11.495-27.857-17.399-44.522-16.63zm16.948 103.383c-1.398.457-2.631 1.314-3.545 2.467l-10.552 13.298-10.552-13.298c-.914-1.152-2.147-2.01-3.545-2.467-19.3-6.308-32.131-24.909-31.203-45.236 1.074-23.521 19.62-42.077 43.141-43.163.728-.034 1.452-.051 2.175-.051 11.733 0 22.775 4.41 31.296 12.545 9.051 8.644 14.036 20.293 14.036 32.804 0 19.671-12.558 36.992-31.251 43.101z"/><path d="m215.389 56.724c-16.282 0-29.529 13.247-29.529 29.529s13.247 29.528 29.529 29.528 29.528-13.246 29.528-29.528-13.246-29.529-29.528-29.529zm0 44.057c-8.012 0-14.529-6.518-14.529-14.528 0-8.012 6.518-14.529 14.529-14.529s14.528 6.518 14.528 14.529-6.518 14.528-14.528 14.528z"/><path d="m420.72 373.374c-2.93-2.928-7.678-2.928-10.607 0-2.929 2.93-2.929 7.678 0 10.607l81.449 81.447c6.565 6.565 6.565 17.249.002 23.812l-2.321 2.319c-3.18 3.181-7.408 4.933-11.906 4.933-4.497 0-8.726-1.752-11.905-4.933l-127.197-127.193c9.467-7.916 18.214-16.664 26.131-26.131l23.146 23.146c1.465 1.464 3.385 2.196 5.304 2.196s3.839-.732 5.304-2.196c2.929-2.93 2.929-7.678 0-10.607l-24.482-24.482c24.347-33.847 38.707-75.335 38.707-120.119 0-36.48-9.659-72.33-27.933-103.674-17.727-30.406-43.113-55.954-73.413-73.881-3.565-2.107-8.164-.929-10.274 2.636-2.109 3.565-.929 8.165 2.636 10.274 28.105 16.627 51.651 40.323 68.094 68.525 16.938 29.053 25.891 62.29 25.891 96.119 0 105.412-85.76 191.172-191.172 191.172-105.414.001-191.174-85.759-191.174-191.171 0-105.413 85.76-191.173 191.173-191.173 23.962 0 47.337 4.382 69.478 13.022 3.856 1.505 8.207-.401 9.713-4.26 1.507-3.858-.4-8.207-4.26-9.713-23.885-9.322-49.096-14.049-74.931-14.049-113.685 0-206.173 92.489-206.173 206.173s92.488 206.172 206.173 206.172c44.784 0 86.272-14.36 120.119-38.707l128.531 128.53c6.014 6.014 14.009 9.326 22.513 9.326s16.5-3.312 22.512-9.324l2.321-2.32c12.412-12.413 12.412-32.612 0-45.026z"/></g></g></svg>