<svg id="Capa_1" enable-background="new 0 0 512.033 512.033" height="512" viewBox="0 0 512.033 512.033" width="512" xmlns="http://www.w3.org/2000/svg"><g><g><path d="m426.483 504.533h-340.933c-9.603 0-17.387-7.785-17.387-17.387v-313.947c0-9.603 7.785-17.387 17.387-17.387h340.932c9.603 0 17.387 7.785 17.387 17.387v313.946c.001 9.603-7.784 17.388-17.386 17.388z" fill="#d79c7a"/><path d="m139.398 458.059c-9.603 0-17.387-7.785-17.387-17.387v-284.86h-36.461c-9.603 0-17.387 7.785-17.387 17.387v313.946c0 9.603 7.785 17.387 17.387 17.387h340.932c9.603 0 17.387-7.785 17.387-17.387v-29.087h-304.471z" fill="#d08a61"/><path d="m396.887 200.406-13.221-11.59h-255.299l-3.662 14.11-23.539 13.94v226.62l17.421 15.523 9.78 12.527h255.299l4.271-13.854 22.93-14.196v-226.62z" fill="#e5bda7"/><path d="m139.398 458.059c-9.603 0-17.387-7.785-17.387-17.387v-236.15l-20.845 12.344v226.62l17.42 15.523 9.78 12.527h255.3l4.155-13.477z" fill="#dfae91"/><g><g><g id="XMLID_288_"><g><path d="m410.866 194.816v22.05l-282.5 254.67h-21.2c-3.31 0-6-2.69-6-6.01v-22.04l282.5-254.67h21.2c3.31 0 6 2.69 6 6z" fill="#dfae91"/></g></g></g><path d="m139.398 458.059c-9.603 0-17.387-7.785-17.387-17.387v-15.977l-20.845 18.791v22.04c0 3.32 2.69 6.01 6 6.01h21.2l14.95-13.477z" fill="#d79c7a"/><g id="XMLID_286_"><g><path d="m308.976 61.206c0 23.82-15.53 44.02-37.01 51.04l-13.67 17.23c-1.55 1.94-4.5 1.94-6.04 0l-13.67-17.23c-22.24-7.27-38.09-28.65-36.96-53.56 1.27-27.77 23.33-49.84 51.1-51.13 30.82-1.42 56.25 23.14 56.25 53.65zm-29.69 0c0-13.27-10.75-24.02-24.01-24.02s-24.02 10.75-24.02 24.02c0 13.26 10.76 24.01 24.02 24.01s24.01-10.75 24.01-24.01z" fill="#e5827f"/></g></g></g><g><path d="m410.866 443.486v22.04c0 3.32-2.69 6.01-6 6.01h-21.2l-282.5-254.67v-22.05c0-3.31 2.69-6 6-6h21.2z" fill="#dfae91"/></g><g fill="#d79c7a"><path d="m122.011 188.816h-14.845c-3.31 0-6 2.69-6 6v22.05l20.845 18.791z"/><path d="m368.717 458.059 14.95 13.477h21.2c3.31 0 6-2.69 6-6.01v-7.467z"/></g></g><g><path d="m443.87 420.52c-4.143 0-7.5 3.357-7.5 7.5v59.125c0 5.452-4.436 9.888-9.888 9.888h-340.931c-5.452 0-9.888-4.436-9.888-9.888v-313.945c0-5.452 4.436-9.888 9.888-9.888h55.033c4.143 0 7.5-3.357 7.5-7.5s-3.357-7.5-7.5-7.5h-55.033c-13.723 0-24.888 11.165-24.888 24.888v313.945c0 13.723 11.165 24.888 24.888 24.888h340.932c13.723 0 24.888-11.165 24.888-24.888v-59.125c-.001-4.142-3.358-7.5-7.501-7.5z"/><path d="m426.482 148.312h-253.936c-4.143 0-7.5 3.357-7.5 7.5s3.357 7.5 7.5 7.5h253.937c5.452 0 9.888 4.436 9.888 9.888v222.858c0 4.143 3.357 7.5 7.5 7.5s7.5-3.357 7.5-7.5v-222.858c-.001-13.723-11.166-24.888-24.889-24.888z"/><path d="m93.663 194.82v270.705c0 7.448 6.06 13.508 13.508 13.508h297.691c7.448 0 13.508-6.06 13.508-13.508v-270.705c0-7.448-6.06-13.508-13.508-13.508h-297.691c-7.449 0-13.508 6.06-13.508 13.508zm15 38.9 106.996 96.453-106.996 96.453zm0 213.099 118.196-106.549 17.957 16.187-119.335 107.576h-16.818zm255.487 17.214h-216.267l108.134-97.479zm39.22-37.408-106.996-96.453 106.996-96.452zm0-213.099-118.196 106.549-17.957-16.187 119.334-107.576h16.818v17.214zm-255.487-17.214h216.267l-108.134 97.479zm-22.402 0 125.534 113.164c.008.007.015.013.022.02l29.135 26.264c.007.006.014.013.021.019l123.177 111.04v17.214h-16.818l-125.496-113.13c-.009-.008-.017-.015-.025-.023l-29.132-26.262c-.008-.007-.017-.015-.025-.022l-123.211-111.07v-17.214z"/><path d="m234.059 118.609 12.32 15.526c2.168 2.73 5.409 4.297 8.896 4.297 3.485 0 6.727-1.566 8.895-4.297l12.32-15.524c24.014-8.854 39.986-31.638 39.986-57.409 0-11.222-3.078-22.209-8.901-31.774-2.153-3.539-6.77-4.66-10.306-2.507-3.538 2.153-4.661 6.768-2.507 10.306 4.393 7.216 6.714 15.506 6.714 23.976 0 20.041-12.795 37.688-31.839 43.913-1.397.457-2.631 1.314-3.545 2.467l-10.817 13.632-10.817-13.632c-.914-1.152-2.146-2.01-3.545-2.467-19.663-6.427-32.735-25.379-31.79-46.088 1.094-23.965 19.989-42.87 43.953-43.976 7.337-.333 14.43.994 21.061 3.965 3.779 1.692 8.218.002 9.911-3.778s.002-8.218-3.778-9.911c-8.795-3.938-18.178-5.704-27.886-5.26-31.756 1.465-56.796 26.519-58.245 58.276-1.217 26.642 15.098 51.091 39.92 60.265z"/><path d="m255.275 29.687c-17.377 0-31.514 14.137-31.514 31.514s14.137 31.515 31.514 31.515 31.514-14.138 31.514-31.515-14.137-31.514-31.514-31.514zm0 48.028c-9.105 0-16.514-7.408-16.514-16.515 0-9.105 7.408-16.514 16.514-16.514 9.105 0 16.514 7.408 16.514 16.514 0 9.107-7.408 16.515-16.514 16.515z"/></g></g></svg>