<svg id="Capa_1" enable-background="new 0 0 511.2 511.2" height="512" viewBox="0 0 511.2 511.2" width="512" xmlns="http://www.w3.org/2000/svg"><g><path d="m460.553 489.504v-287.843c0-6.985-5.663-12.648-12.648-12.648h-384.609c-6.985 0-12.648 5.663-12.648 12.648v287.843z" fill="#dfae91"/><g><path d="m104.552 466.122c-6.985 0-12.648-5.663-12.648-12.647v-264.462h-28.608c-6.985 0-12.648 5.663-12.648 12.648v289.392c0 6.985 5.663 12.647 12.648 12.647h157.891l6.567-10.814h57.691l4.568 10.814h157.891c6.985 0 12.648-5.663 12.648-12.647v-24.931z" fill="#d79c7a"/><path d="m290.014 503.701h-68.827v-63.261c0-2.751 2.68-4.706 5.3-3.865l27.874 8.946c.807.259 1.674.259 2.481 0l27.874-8.946c2.62-.841 5.3 1.113 5.3 3.865v63.261z" fill="#fbe372"/><path d="m241.247 337.609c4.294 2.746 9.257 4.197 14.354 4.197s10.06-1.451 14.353-4.196l27.601-17.648c30.404-19.44 55.635-46.448 72.967-78.102 9.117-16.652 15.949-34.459 20.4-52.846h-270.642c4.451 18.387 11.283 36.194 20.4 52.846 17.332 31.653 42.563 58.661 72.967 78.102z" fill="#d79c7a"/><path d="m389.056 249.981c6.985 0 12.648 5.663 12.648 12.648v126.493c0 6.985-5.663 12.648-12.648 12.648h-266.912c-6.985 0-12.648-5.663-12.648-12.648v-126.493c0-6.985 5.663-12.648 12.648-12.648z" fill="#f8f7f8"/><path d="m145.391 249.981c17.061 28.15 40.491 52.227 68.256 69.98l27.6 17.647c4.294 2.746 9.257 4.197 14.354 4.197s10.06-1.451 14.353-4.196l27.601-17.648c27.765-17.753 51.195-41.831 68.256-69.98z" fill="#efedee"/><path d="m362.606 52.727 13.447 2.782c3.471.718 5.961 3.776 5.961 7.32v75.482c0 68.434-34.885 132.147-92.54 169.012l-27.601 17.649c-3.824 2.445-8.72 2.445-12.544 0l-27.601-17.649c-57.655-36.866-92.54-100.579-92.54-169.012v-75.481c0-3.545 2.49-6.602 5.961-7.32l13.447-2.782c35.296-7.303 68.859-21.325 98.86-41.302l4.002-2.665c2.509-1.671 5.777-1.671 8.287 0l4.002 2.665c30 19.976 63.562 33.998 98.859 41.301z" fill="#b8de9c"/><path d="m237.888 282.049c-24.058-15.384-44.023-36.754-57.738-61.801-13.714-25.048-20.963-53.381-20.963-81.938v-57.174c34.271-7.614 66.641-20.806 96.413-39.286 29.773 18.48 62.142 31.672 96.413 39.286v57.175c0 28.557-7.249 56.89-20.963 81.938-13.714 25.047-33.68 46.417-57.738 61.801l-17.712 11.324z" fill="#f8f7f8"/><path d="m213.531 199.292 6.711 4.474c6.245 4.163 13.583 6.385 21.089 6.385h39.103c13.163 0 24.732-8.72 28.358-21.374l6.172-21.543c5.401-18.849-8.75-37.624-28.358-37.624h-7.467v-25.722c0-8.284-6.716-15-15-15-6.663 0-12.528 4.396-14.398 10.792l-5.443 18.619-24.886 23.529h-22.847c-2.831 0-5.125 2.295-5.125 5.125v47.087c0 2.816 2.271 5.104 5.087 5.125z" fill="#ffe0d1"/><g fill="#fbe372"><path d="m393.631 121.062c-3.586 6.363-9.09 11.531-16.157 15.726-1.943 1.154-1.908 4.013.057 5.13 6.818 3.876 12.223 9.038 15.973 15.708 1.118 1.988 4.019 1.998 5.165.027 4.197-7.217 9.394-12.62 15.693-16.023 1.981-1.07 2.033-3.874.148-5.107-6.601-4.316-11.915-9.473-15.802-15.562-1.198-1.878-3.982-1.84-5.077.101z"/><path d="m181.9 265.287c-3.586 6.363-9.09 11.531-16.157 15.726-1.943 1.154-1.908 4.013.057 5.13 6.818 3.876 12.223 9.038 15.973 15.708 1.118 1.988 4.019 1.998 5.165.027 4.197-7.217 9.394-12.62 15.693-16.023 1.981-1.07 2.033-3.874.148-5.107-6.601-4.316-11.915-9.473-15.802-15.562-1.198-1.879-3.982-1.841-5.077.101z"/></g></g><path d="m221.187 466.122h68.827v37.578h-68.827z" fill="#f8d448"/><g><path d="m447.905 181.513h-41.559c-4.142 0-7.5 3.357-7.5 7.5s3.358 7.5 7.5 7.5h41.559c2.838 0 5.148 2.31 5.148 5.148v65.934c0 4.143 3.358 7.5 7.5 7.5s7.5-3.357 7.5-7.5v-65.934c0-11.11-9.038-20.148-20.148-20.148z"/><path d="m50.648 424.769c4.142 0 7.5-3.357 7.5-7.5v-215.608c0-2.839 2.31-5.148 5.148-5.148h41.559c4.142 0 7.5-3.357 7.5-7.5s-3.358-7.5-7.5-7.5h-41.559c-11.11 0-20.148 9.038-20.148 20.148v215.607c0 4.143 3.357 7.501 7.5 7.501z"/><path d="m460.553 292.058c-4.142 0-7.5 3.357-7.5 7.5v191.495c0 2.838-2.31 5.147-5.148 5.147h-150.391v-55.76c0-3.68-1.775-7.172-4.748-9.34s-6.84-2.79-10.343-1.667l-26.822 8.609-26.822-8.609c-3.503-1.123-7.37-.502-10.343 1.667-2.973 2.168-4.748 5.66-4.748 9.34v55.76h-150.392c-2.838 0-5.148-2.31-5.148-5.147v-41.822c0-4.143-3.358-7.5-7.5-7.5s-7.5 3.357-7.5 7.5v41.822c0 11.109 9.039 20.147 20.148 20.147h384.609c11.109 0 20.148-9.038 20.148-20.147v-191.495c0-4.143-3.358-7.5-7.5-7.5zm-231.866 204.142v-51.043l23.382 7.505c2.31.741 4.752.741 7.063 0l23.381-7.505v51.043z"/><path d="m122.144 257.481h5.899c4.142 0 7.5-3.357 7.5-7.5s-3.358-7.5-7.5-7.5h-5.899c-11.109 0-20.148 9.038-20.148 20.147v126.493c0 11.109 9.039 20.147 20.148 20.147h266.912c11.109 0 20.148-9.038 20.148-20.147v-126.493c0-11.109-9.039-20.147-20.148-20.147h-5.899c-4.142 0-7.5 3.357-7.5 7.5s3.358 7.5 7.5 7.5h5.899c2.838 0 5.148 2.31 5.148 5.147v126.493c0 2.838-2.31 5.147-5.148 5.147h-266.912c-2.838 0-5.148-2.31-5.148-5.147v-126.493c0-2.838 2.31-5.147 5.148-5.147z"/><path d="m338.86 54.528c7.442 2.167 14.92 4.032 22.226 5.544l13.427 2.758v29.975c0 4.143 3.358 7.5 7.5 7.5s7.5-3.357 7.5-7.5v-29.976c0-7.064-5.021-13.232-11.941-14.665l-13.447-2.782c-6.919-1.432-14.008-3.2-21.072-5.257-3.976-1.159-8.14 1.128-9.297 5.104-1.158 3.977 1.127 8.14 5.104 9.299z"/><path d="m159.845 252.372c1.361 0 2.738-.37 3.977-1.146 3.509-2.2 4.571-6.829 2.371-10.338-19.303-30.791-29.505-66.262-29.505-102.577l-.02-75.457 13.447-2.782c36.406-7.532 70.555-21.799 101.498-42.404l3.975-2.665 4.002 2.665c15.198 10.121 31.458 18.841 48.325 25.916 3.82 1.603 8.215-.195 9.817-4.015 1.603-3.82-.195-8.215-4.015-9.817-15.992-6.708-31.406-14.975-45.814-24.568l-4.003-2.667c-5.042-3.355-11.557-3.356-16.601.001l-4.001 2.665c-29.335 19.533-61.709 33.059-96.223 40.199l-13.448 2.783c-6.919 1.432-11.94 7.6-11.94 14.664v75.481c0 39.138 10.995 77.363 31.796 110.544 1.424 2.272 3.865 3.518 6.362 3.518z"/><path d="m285.433 301.005-27.602 17.648c-1.355.867-3.107.867-4.463 0l-26.447-16.911c-3.49-2.233-8.128-1.213-10.359 2.278-2.231 3.489-1.211 8.127 2.278 10.358l26.448 16.911c3.132 2.004 6.722 3.005 10.312 3.005s7.181-1.002 10.312-3.005l27.602-17.648c46.284-29.595 78.516-75.403 90.757-128.986.923-4.038-1.603-8.059-5.641-8.981-4.039-.929-8.06 1.603-8.982 5.641-11.36 49.721-41.268 92.228-84.215 119.69z"/><path d="m353.64 73.815c-33.403-7.422-65.058-20.32-94.084-38.337-2.423-1.504-5.488-1.504-7.911 0-29.025 18.017-60.68 30.915-94.084 38.337-3.432.763-5.874 3.806-5.874 7.321v57.175c0 29.812 7.568 59.391 21.885 85.539s35.16 48.458 60.276 64.518l17.712 11.325c1.231.788 2.636 1.182 4.04 1.182s2.809-.394 4.04-1.182l17.712-11.325c25.116-16.06 45.958-38.369 60.276-64.518 14.317-26.148 21.885-55.728 21.885-85.539v-57.175c0-3.516-2.441-6.559-5.873-7.321zm-9.127 64.496c0 27.301-6.93 54.389-20.042 78.336-13.111 23.945-32.199 44.376-55.199 59.084l-13.672 8.741-13.672-8.741c-23.001-14.708-42.088-35.139-55.2-59.084-13.112-23.947-20.042-51.035-20.042-78.336v-51.216c31.394-7.597 61.256-19.84 88.913-36.457 27.657 16.617 57.52 28.86 88.913 36.457v51.216z"/><path d="m242.543 97.575-4.873 16.669-21.242 20.083h-11.974c-4.142 0-7.5 3.357-7.5 7.5s3.358 7.5 7.5 7.5h14.958c1.917 0 3.76-.733 5.152-2.05l24.886-23.528c.967-.914 1.673-2.069 2.046-3.346l5.442-18.619c.929-3.178 3.889-5.396 7.199-5.396 4.136 0 7.5 3.364 7.5 7.5v25.723c0 4.143 3.358 7.5 7.5 7.5h7.467c6.97 0 13.373 3.192 17.567 8.758 4.195 5.565 5.5 12.601 3.581 19.301l-6.172 21.543c-2.689 9.385-11.385 15.939-21.148 15.939h-39.104c-6.045 0-11.899-1.772-16.929-5.126l-6.711-4.474c-1.232-.821-2.68-1.26-4.16-1.26h-9.375v15h7.104l4.821 3.214c7.501 5.002 16.233 7.646 25.25 7.646h39.104c16.419 0 31.045-11.024 35.568-26.809l6.172-21.543c3.229-11.269 1.034-23.1-6.022-32.461-7.048-9.352-17.804-14.719-29.513-14.729v-18.223c0-12.406-10.093-22.5-22.5-22.5-9.928.001-18.809 6.657-21.594 16.188z"/><path d="m387.097 117.38c-2.836 5.031-7.236 9.271-13.451 12.958-3.187 1.892-5.145 5.376-5.109 9.094.035 3.723 2.062 7.174 5.287 9.007 5.845 3.322 10.144 7.53 13.142 12.862 1.83 3.256 5.296 5.296 9.045 5.323h.077c3.727 0 7.194-1.987 9.064-5.201 3.541-6.088 7.839-10.527 12.773-13.194 3.258-1.76 5.296-5.022 5.451-8.727.155-3.687-1.67-7.233-4.762-9.256-5.789-3.785-10.359-8.267-13.584-13.32-2.001-3.135-5.438-4.936-9.135-4.844-3.696.102-6.985 2.082-8.798 5.298zm9.249 13.036c2.508 3.023 5.386 5.843 8.614 8.438-3.242 2.528-6.211 5.584-8.889 9.148-2.537-3.232-5.507-6.139-8.895-8.703 3.554-2.692 6.617-5.66 9.17-8.883z"/><path d="m156.807 283.656c.035 3.723 2.062 7.174 5.287 9.007 5.845 3.322 10.144 7.529 13.141 12.862 1.83 3.256 5.296 5.296 9.045 5.323h.078c3.727 0 7.194-1.987 9.064-5.201 3.541-6.088 7.839-10.527 12.773-13.194 3.258-1.76 5.296-5.022 5.451-8.727.155-3.687-1.67-7.233-4.762-9.256-5.789-3.785-10.359-8.267-13.584-13.32-2.001-3.135-5.432-4.957-9.135-4.844-3.697.102-6.986 2.082-8.799 5.298-2.836 5.031-7.236 9.271-13.451 12.958-3.186 1.892-5.144 5.377-5.108 9.094zm27.808-9.015c2.508 3.023 5.386 5.843 8.614 8.438-3.242 2.528-6.211 5.584-8.889 9.148-2.536-3.232-5.507-6.14-8.895-8.703 3.554-2.693 6.617-5.66 9.17-8.883z"/></g></g></svg>