<svg id="Capa_1" enable-background="new 0 0 510.024 510.024" height="512" viewBox="0 0 510.024 510.024" width="512" xmlns="http://www.w3.org/2000/svg"><g><g><path d="m99.762 201.132c-11.778 0-22.566 5.254-29.828 13.792l5.749 1.851-17.316 62.657-34.983 44.172s-.39 66.099-.037 68.834c.031.046.045.082.026.098-.009.007-.018-.034-.026-.098-.463-.685-6.248-4.488-8.946-6.241v10.666h249.42v-195.52z" fill="#b3e5ee"/><path d="m99.762 201.132c-17.89 0-33.5 12.12-37.93 29.46l-13.31 52.14-15.25 11c-9.034 6.518-15.248 16.039-17.698 26.667l4.65 6.308-1.212 21.817-4.61 3.758v24.54 20.04h25.714v-44.875c0-14.61 7.02-28.32 18.87-36.87l4.561-3.29c6.905-4.981 11.842-12.229 13.948-20.479l10.05-39.371c4.43-17.34 20.04-29.46 37.93-29.46l24.893.032c9.716.012 17.587 7.893 17.587 17.609v156.704h95.867v-174.168-1.495-19.857z" fill="#86d7e5"/><path d="m475.56 77.632h-106.683l-6.511 12.412h-47.616l-5.51-12.412h-106.684c-8.064 0-14.601 6.537-14.601 14.601v304.627h302.206v-304.627c0-8.064-6.537-14.601-14.601-14.601z" fill="#dfae91"/><path d="m226.241 333.499v-255.867h-23.685c-8.064 0-14.601 6.537-14.601 14.601v304.627h302.206v-44.578h-245.137c-10.373 0-18.783-8.41-18.783-18.783z" fill="#d79c7a"/><g><path d="m14.401 408.246c-3.812 0-6.901-3.09-6.901-6.901v-17.619c0-3.812 3.09-6.901 6.901-6.901h481.221c3.812 0 6.901 3.09 6.901 6.901v17.619c0 3.812-3.09 6.901-6.901 6.901z" fill="#e4e1e5"/></g><g><g><circle cx="110.21" cy="391.535" fill="#8f8390" r="40.857"/></g><circle cx="372.145" cy="391.535" fill="#8f8390" r="40.857"/><g id="XMLID_290_"><g><path d="m127.522 240.202v32.05c0 5.79-4.69 10.48-10.48 10.48h-68.52l13.31-52.14c.07-.29.15-.58.24-.87h54.97c5.79 0 10.48 4.69 10.48 10.48z" fill="#edf9fa"/><path d="m48.522 328.472v16.04c0 4.29-3.47 7.77-7.77 7.77h-26.35v-21.68c0-3.48.4-6.9 1.16-10.22l25.19.32c4.3 0 7.77 3.47 7.77 7.77z" fill="#fbe372"/></g></g><path d="m368.877 77.632h-59.638v80.038c0 4.763 5.067 7.817 9.278 5.591l17.586-9.294c1.849-.977 4.061-.977 5.909 0l17.586 9.294c4.211 2.226 9.278-.828 9.278-5.591v-80.038z" fill="#fbe372"/><path d="m438.043 323.603h-197.97c-5.169 0-9.358-4.19-9.358-9.358v-103.758c0-5.169 4.19-9.358 9.358-9.358h197.97c5.168 0 9.358 4.19 9.358 9.358v103.758c0 5.168-4.19 9.358-9.358 9.358z" fill="#f8f7f8"/></g><path d="m62.072 229.722c-.09.29-.17.58-.24.87l-13.31 52.14h31.173l7.851-30.755c2.365-9.256 7.917-17.023 15.3-22.255z" fill="#e1f5f8"/><path d="m40.752 320.702-25.19-.32c-.76 3.32-1.16 6.74-1.16 10.22v21.68h25.714v-.295c0-9.349 2.886-18.321 8.061-25.816-.979-3.172-3.927-5.469-7.425-5.469z" fill="#f8d448"/></g><g><path d="m110.21 382.503c-4.142 0-7.5 3.357-7.5 7.5v2.532c0 4.143 3.358 7.5 7.5 7.5s7.5-3.357 7.5-7.5v-2.532c0-4.143-3.357-7.5-7.5-7.5z"/><path d="m372.146 382.503c-4.142 0-7.5 3.357-7.5 7.5v2.532c0 4.143 3.358 7.5 7.5 7.5s7.5-3.357 7.5-7.5v-2.532c0-4.143-3.358-7.5-7.5-7.5z"/><path d="m497.661 369.487v-47.775c0-4.143-3.358-7.5-7.5-7.5s-7.5 3.357-7.5 7.5v47.613h-67.582c-8.06-15.517-24.273-26.147-42.933-26.147s-34.874 10.631-42.933 26.147h-133.758v-277.092c0-3.916 3.186-7.102 7.101-7.102h99.183v72.538c0 4.89 2.5 9.316 6.689 11.84 4.188 2.523 9.269 2.666 13.594.382l17.036-9.004 17.036 9.004c2.044 1.08 4.257 1.618 6.465 1.618 2.463 0 4.92-.669 7.128-2 4.188-2.523 6.689-6.95 6.689-11.84v-72.537h46.882c4.142 0 7.5-3.357 7.5-7.5s-3.358-7.5-7.5-7.5h-220.702c-12.187 0-22.101 9.915-22.101 22.102v101.396h-20.966c-4.142 0-7.5 3.357-7.5 7.5s3.358 7.5 7.5 7.5h20.966v160.696h-27.312c-8.06-15.517-24.273-26.147-42.933-26.147s-34.874 10.631-42.933 26.147h-45.376v-9.54h18.854c8.42 0 15.27-6.85 15.27-15.27v-16.048c0-8.42-6.85-15.27-15.27-15.27h-14.61c2.704-5.236 6.616-9.85 11.511-13.379l13.289-9.583h66.1c9.915 0 17.98-8.066 17.98-17.981v-32.051c0-9.915-8.066-17.981-17.98-17.981h-43.275c5.783-8.33 15.382-13.594 25.988-13.594h27.768c4.142 0 7.5-3.357 7.5-7.5s-3.358-7.5-7.5-7.5h-27.768c-20.332 0-38.158 13.119-44.353 32.246-.66 1.101-1.05 2.382-1.066 3.755l-12.408 48.615-13.048 9.408c-13.765 9.925-21.982 25.981-21.982 42.95v40.853c-4.13 2.534-6.901 7.078-6.901 12.27v17.618c0 7.941 6.46 14.401 14.401 14.401h53.976c8.379 14.421 23.987 24.146 41.833 24.146s33.454-9.725 41.833-24.146h178.269c8.379 14.421 23.987 24.146 41.833 24.146s33.454-9.725 41.833-24.146h81.643c7.941 0 14.402-6.46 14.402-14.401v-17.618c.001-7.247-5.385-13.244-12.362-14.239zm-136.285-284.355v70.586l-15.858-8.381c-4.046-2.141-8.877-2.14-12.92-.001l-15.859 8.382v-70.586zm-241.35 155.072v32.051c0 1.644-1.337 2.981-2.98 2.981h-58.866l9.702-38.014h49.164c1.643 0 2.98 1.338 2.98 2.982zm-79.271 87.994c.149 0 .27.121.27.27v16.048c0 .148-.121.27-.27.27h-18.854v-14.183c0-.805.03-1.606.081-2.404h18.773zm-25.755 72.548v-16.421h47.393c-.353 2.353-.54 4.76-.54 7.21 0 3.15.313 6.227.891 9.211zm95.21 24.146c-18.394 0-33.357-14.964-33.357-33.357s14.964-33.357 33.357-33.357 33.357 14.964 33.357 33.357-14.963 33.357-33.357 33.357zm47.467-24.146c.578-2.984.891-6.061.891-9.211 0-2.45-.187-4.857-.54-7.21h166.3c-.353 2.353-.54 4.76-.54 7.21 0 3.15.313 6.227.891 9.211zm214.469 24.146c-18.394 0-33.357-14.964-33.357-33.357s14.964-33.357 33.357-33.357 33.357 14.964 33.357 33.357-14.964 33.357-33.357 33.357zm122.878-24.146h-75.412c.578-2.984.891-6.061.891-9.211 0-2.45-.187-4.857-.54-7.21h75.061z"/><path d="m455.221 85.132h20.339c3.916 0 7.102 3.186 7.102 7.102v197.516c0 4.143 3.358 7.5 7.5 7.5s7.5-3.357 7.5-7.5v-197.517c0-12.187-9.915-22.102-22.102-22.102h-20.339c-4.142 0-7.5 3.357-7.5 7.5s3.358 7.501 7.5 7.501z"/><path d="m223.215 210.487v103.758c0 9.296 7.562 16.858 16.858 16.858h197.969c9.296 0 16.858-7.562 16.858-16.858v-103.758c0-9.296-7.562-16.858-16.858-16.858h-197.969c-9.296 0-16.858 7.562-16.858 16.858zm216.686 0v103.758c0 1.024-.833 1.858-1.858 1.858h-197.97c-1.025 0-1.858-.834-1.858-1.858v-103.758c0-1.024.833-1.858 1.858-1.858h197.969c1.025 0 1.859.834 1.859 1.858z"/><path d="m264.746 252.8h6.849c4.142 0 7.5-3.357 7.5-7.5s-3.358-7.5-7.5-7.5h-6.849c-4.142 0-7.5 3.357-7.5 7.5s3.358 7.5 7.5 7.5z"/><path d="m406.521 252.8h6.849c4.142 0 7.5-3.357 7.5-7.5s-3.358-7.5-7.5-7.5h-6.849c-4.142 0-7.5 3.357-7.5 7.5s3.358 7.5 7.5 7.5z"/><path d="m298.392 252.8h81.333c4.142 0 7.5-3.357 7.5-7.5s-3.358-7.5-7.5-7.5h-81.333c-4.142 0-7.5 3.357-7.5 7.5s3.358 7.5 7.5 7.5z"/><path d="m264.746 286.931h148.624c4.142 0 7.5-3.357 7.5-7.5s-3.358-7.5-7.5-7.5h-148.624c-4.142 0-7.5 3.357-7.5 7.5s3.358 7.5 7.5 7.5z"/></g></g></svg>