<svg id="Capa_1" enable-background="new 0 0 510.921 510.921" height="512" viewBox="0 0 510.921 510.921" width="512" xmlns="http://www.w3.org/2000/svg"><g><g><path d="m472.023 399.297 28.128-47.984c4.865-8.299 4.211-18.72-1.655-26.345-7.238-9.41-20.337-11.985-30.598-6.015l-2.291 1.333-45.736 32.664 32.563 57.859c2.981 5.296 10.634 5.215 13.502-.142z" fill="#ffd1c2"/><path d="m451.421 83.633h-149.437l-4.814 10.38h-84.863l-4.372-10.38h-148.435c-7.835 0-14.187 6.464-14.187 14.438v300.9h420.295v-300.9c0-7.974-6.352-14.438-14.187-14.438z" fill="#dfae91"/><path d="m45.313 320.286-2.291-1.333c-10.262-5.97-23.36-3.395-30.598 6.015-5.866 7.625-6.52 18.046-1.655 26.345l28.128 47.984 3.587 6.869c2.801 5.363 10.617 4.921 12.795-.724l27.88-72.283z" fill="#ffd1c2"/><g><g fill="#d79c7a"><path d="m134.808 398.971v-21.342c0-19.425-15.803-35.228-35.228-35.228-19.424 0-35.228 15.803-35.228 35.228v21.342z"/><path d="m446.568 398.971v-21.342c0-19.425-15.803-35.228-35.228-35.228s-35.228 15.803-35.228 35.228v21.342z"/><path d="m99.58 362.637v-279.004h-40.08c-7.835 0-14.187 6.509-14.187 14.539v302.995h420.295v-38.53z"/></g><path d="m416.965 329.08h-323.01c-5.963 0-10.796-4.834-10.796-10.796v-104.449c0-5.963 4.834-10.796 10.796-10.796h323.01c5.963 0 10.796 4.834 10.796 10.796v104.449c0 5.962-4.833 10.796-10.796 10.796z" fill="#f8f7f8"/><path d="m93.955 329.08h5.625v-126.041h-5.625c-5.963 0-10.796 4.833-10.796 10.796v104.449c0 5.962 4.833 10.796 10.796 10.796z" fill="#efedee"/><path d="m301.984 83.633h-94.048v79.183c0 2.845 2.981 4.706 5.536 3.457l40.281-19.682c1.076-.526 2.336-.521 3.407.014l39.259 19.595c2.558 1.277 5.566-.583 5.566-3.442v-79.125z" fill="#fbe372"/><path d="m59.125 427.288c-11.171 0-20.228-9.056-20.228-20.228v-22.786c0-11.171 9.056-20.228 20.228-20.228 11.171 0 20.228 9.056 20.228 20.228v22.786c-.001 11.172-9.057 20.228-20.228 20.228z" fill="#ffe0d1"/><path d="m50.914 407.06v-22.786c0-9.079 5.99-16.764 14.227-19.322-1.898-.59-3.925-.905-6.017-.905-11.172 0-20.228 9.056-20.228 20.228v22.786c0 11.171 9.056 20.228 20.228 20.228 2.092 0 4.119-.32 6.017-.91-8.237-2.56-14.227-10.24-14.227-19.319z" fill="#ffd1c2"/><path d="m140.035 427.288c-11.171 0-20.228-9.056-20.228-20.228v-11.788c0-11.171 9.056-20.228 20.228-20.228 11.171 0 20.228 9.056 20.228 20.228v11.788c0 11.172-9.056 20.228-20.228 20.228z" fill="#ffe0d1"/><path d="m131.563 405.93v-11.787c0-8.436 5.167-15.659 12.506-18.694-1.304-.264-2.652-.404-4.034-.404-11.171 0-20.228 9.056-20.228 20.228v11.788c0 11.171 9.056 20.228 20.228 20.228 2.736 0 5.337-.54 7.717-1.524-9.238-1.871-16.189-10.044-16.189-19.835z" fill="#ffd1c2"/><path d="m180.491 427.287c-11.171 0-20.228-9.056-20.228-20.228v-4.21c0-11.171 9.056-20.228 20.228-20.228 11.171 0 20.228 9.056 20.228 20.228v4.21c-.001 11.172-9.057 20.228-20.228 20.228z" fill="#ffe0d1"/><path d="m170.927 407.06v-4.209c0-9.323 6.316-17.181 14.896-19.524-1.701-.464-3.484-.704-5.332-.704-11.171 0-20.228 9.056-20.228 20.228v4.209c0 11.171 9.056 20.228 20.228 20.228 1.849 0 3.631-.245 5.332-.71-8.58-2.344-14.896-10.195-14.896-19.518z" fill="#ffd1c2"/><path d="m99.58 427.288c-11.171 0-20.228-9.056-20.228-20.228v-29.431c0-11.171 9.056-20.228 20.228-20.228 11.171 0 20.228 9.056 20.228 20.228v29.431c0 11.172-9.057 20.228-20.228 20.228z" fill="#ffe0d1"/><path d="m91.148 407.877v-29.431c0-9.599 6.702-17.637 15.671-19.711-2.248-.861-4.688-1.334-7.238-1.334-11.171 0-20.228 9.056-20.228 20.228v29.432c0 11.171 9.056 20.228 20.228 20.228 1.573 0 3.105-.18 4.575-.519-7.597-2.913-13.008-10.272-13.008-18.893z" fill="#ffd1c2"/><path d="m451.796 427.288c11.171 0 20.228-9.056 20.228-20.228v-22.786c0-11.171-9.056-20.228-20.228-20.228-11.171 0-20.228 9.056-20.228 20.228v22.786c0 11.172 9.056 20.228 20.228 20.228z" fill="#ffe0d1"/><path d="m442.226 407.06v-22.786c0-9.324 6.307-17.183 14.888-19.525-1.7-.464-3.471-.702-5.319-.702-11.171 0-20.228 9.056-20.228 20.228v22.786c0 11.171 9.056 20.228 20.228 20.228 1.848 0 3.647-.25 5.347-.714-8.581-2.343-14.916-10.191-14.916-19.515z" fill="#ffd1c2"/><path d="m370.885 427.288c11.171 0 20.228-9.056 20.228-20.228v-11.788c0-11.171-9.056-20.228-20.228-20.228-11.171 0-20.228 9.056-20.228 20.228v11.788c0 11.172 9.057 20.228 20.228 20.228z" fill="#ffe0d1"/><path d="m361.189 407.06v-11.788c0-9.347 6.356-17.218 14.969-19.539-1.682-.453-3.448-.689-5.273-.689-11.171 0-20.228 9.056-20.228 20.228v11.788c0 11.171 9.056 20.228 20.228 20.228 1.825 0 3.584-.239 5.266-.692-8.613-2.321-14.962-10.189-14.962-19.536z" fill="#ffd1c2"/><path d="m330.43 427.288c11.171 0 20.228-9.056 20.228-20.228v-6.427c0-11.171-9.056-20.228-20.228-20.228-11.171 0-20.228 9.056-20.228 20.228v6.427c0 11.172 9.056 20.228 20.228 20.228z" fill="#ffe0d1"/><path d="m321.487 405.898v-6.427c0-8.464 5.216-15.719 12.595-18.736-1.182-.215-2.408-.329-3.652-.329-11.171 0-20.228 9.056-20.228 20.228v6.427c0 11.171 9.056 20.228 20.228 20.228 2.708 0 5.274-.525 7.634-1.49-9.432-1.717-16.577-9.974-16.577-19.901z" fill="#ffd1c2"/><path d="m411.34 427.288c11.171 0 20.228-9.056 20.228-20.228v-29.431c0-11.171-9.056-20.228-20.228-20.228-11.171 0-20.228 9.056-20.228 20.228v29.431c.001 11.172 9.057 20.228 20.228 20.228z" fill="#ffe0d1"/><path d="m402.54 407.06v-29.432c0-9.185 6.138-16.943 14.525-19.41-1.813-.534-3.739-.817-5.725-.817-11.171 0-20.228 9.056-20.228 20.228v29.432c0 11.171 9.056 20.228 20.228 20.228 1.986 0 3.9-.284 5.714-.818-8.387-2.468-14.514-10.225-14.514-19.411z" fill="#ffd1c2"/></g></g><g><path d="m409.952 91.133h41.469c3.687 0 6.687 3 6.687 6.688v152.258c0 4.143 3.357 7.5 7.5 7.5s7.5-3.357 7.5-7.5v-152.259c0-11.959-9.729-21.688-21.687-21.688h-41.469c-4.143 0-7.5 3.357-7.5 7.5s3.358 7.501 7.5 7.501z"/><path d="m504.441 320.394c-7.491-9.738-19.84-13.911-31.333-11.41v-26.944c0-4.143-3.357-7.5-7.5-7.5s-7.5 3.357-7.5 7.5v75.239c-2.029-.475-4.14-.733-6.312-.733-6.496 0-12.472 2.251-17.204 6.006-4.949-7.607-13.52-12.651-23.252-12.651-13.031 0-23.985 9.039-26.938 21.174-4.002-2.245-8.611-3.531-13.517-3.531-9.995 0-18.77 5.318-23.65 13.271-4.667-3.568-10.491-5.693-16.805-5.693-8.947 0-16.912 4.263-21.986 10.86h-105.968c-5.073-6.597-13.039-10.86-21.986-10.86-6.314 0-12.139 2.125-16.805 5.693-4.88-7.954-13.655-13.271-23.65-13.271-4.906 0-9.515 1.286-13.517 3.531-2.953-12.136-13.907-21.174-26.939-21.174-9.732 0-18.303 5.044-23.252 12.651-4.731-3.755-10.707-6.006-17.203-6.006-2.172 0-4.283.259-6.312.733v-259.459c0-3.688 3-6.688 6.687-6.688h140.936v71.683c0 3.94 1.996 7.539 5.338 9.626 1.843 1.15 3.917 1.731 6.002 1.731 1.697-.001 3.4-.386 4.988-1.162l38.66-18.891 37.644 18.789c3.543 1.77 7.668 1.584 11.036-.501 3.369-2.083 5.38-5.69 5.38-9.651v-71.623h68.505c4.143 0 7.5-3.357 7.5-7.5s-3.357-7.5-7.5-7.5h-318.488c-11.958 0-21.687 9.729-21.687 21.688v211.163c-11.493-2.502-23.842 1.673-31.334 11.412-7.766 10.097-8.622 23.722-2.18 34.711l27.099 46.227v5.728c0 15.289 12.438 27.728 27.728 27.728 7.972 0 15.165-3.387 20.228-8.792 5.063 5.405 12.255 8.792 20.228 8.792s15.165-3.387 20.228-8.792c5.063 5.405 12.255 8.792 20.228 8.792s15.165-3.387 20.228-8.792c5.063 5.405 12.255 8.792 20.228 8.792 15.289 0 27.728-12.438 27.728-27.728v-4.21c0-.628-.029-1.25-.07-1.867h94.624c-.041.618-.07 1.239-.07 1.867v4.21c0 15.289 12.438 27.728 27.728 27.728 7.972 0 15.165-3.387 20.228-8.792 5.063 5.405 12.255 8.792 20.228 8.792s15.165-3.387 20.228-8.792c5.063 5.405 12.255 8.792 20.228 8.792s15.165-3.387 20.228-8.792c5.063 5.405 12.256 8.792 20.229 8.792 15.289 0 27.728-12.438 27.728-27.728v-5.727l27.099-46.228c6.434-10.991 5.578-24.616-2.189-34.713zm-209.956-229.261v65.719l-33.973-16.956c-3.141-1.569-6.897-1.587-10.051-.044l-35.025 17.114v-65.833zm-276.117 238.408c4.593-5.97 12.71-7.903 19.445-4.842v41.861c-1.987 2.386-3.58 5.109-4.682 8.069l-15.892-27.109c-3.337-5.692-2.893-12.75 1.129-17.979zm40.757 90.247c-7.018 0-12.728-5.71-12.728-12.728v-22.786c0-7.018 5.709-12.728 12.728-12.728s12.728 5.71 12.728 12.728v22.786c-.001 7.018-5.71 12.728-12.728 12.728zm40.455 0c-7.018 0-12.728-5.71-12.728-12.728v-29.432c0-7.018 5.709-12.728 12.728-12.728s12.728 5.71 12.728 12.728v29.432c0 7.018-5.71 12.728-12.728 12.728zm40.455 0c-7.018 0-12.728-5.71-12.728-12.728v-11.787c0-7.019 5.709-12.729 12.728-12.729s12.728 5.71 12.728 12.729v11.787c0 7.018-5.71 12.728-12.728 12.728zm53.183-12.728c0 7.018-5.71 12.728-12.728 12.728s-12.728-5.71-12.728-12.728v-4.21c0-7.018 5.709-12.728 12.728-12.728s12.728 5.71 12.728 12.728zm137.212 12.728c-7.018 0-12.728-5.71-12.728-12.728v-4.21c0-7.018 5.71-12.728 12.728-12.728s12.728 5.71 12.728 12.728v4.21c-.001 7.018-5.711 12.728-12.728 12.728zm40.455 0c-7.018 0-12.728-5.71-12.728-12.728v-11.787c0-7.019 5.71-12.729 12.728-12.729s12.728 5.71 12.728 12.729v11.787c-.001 7.018-5.711 12.728-12.728 12.728zm40.455 0c-7.018 0-12.728-5.71-12.728-12.728v-29.432c0-7.018 5.71-12.728 12.728-12.728s12.728 5.71 12.728 12.728v29.432c0 7.018-5.71 12.728-12.728 12.728zm53.184-12.728c0 7.018-5.71 12.728-12.728 12.728-7.019 0-12.729-5.71-12.729-12.728v-22.786c0-7.018 5.71-12.728 12.729-12.728 7.018 0 12.728 5.71 12.728 12.728zm29.157-59.54-15.891 27.108c-1.102-2.961-2.696-5.684-4.683-8.069v-41.86c6.737-3.06 14.851-1.129 19.444 4.842 4.023 5.229 4.467 12.287 1.13 17.979z"/><path d="m397.612 242.835c0-4.143-3.357-7.5-7.5-7.5h-268.159c-4.142 0-7.5 3.357-7.5 7.5s3.358 7.5 7.5 7.5h268.159c4.143 0 7.5-3.358 7.5-7.5z"/><path d="m163.455 272.575c-4.142 0-7.5 3.357-7.5 7.5s3.358 7.5 7.5 7.5h185.234c4.143 0 7.5-3.357 7.5-7.5s-3.357-7.5-7.5-7.5z"/><path d="m123.224 272.575c-4.142 0-7.5 3.357-7.5 7.5s3.358 7.5 7.5 7.5h9.707c4.142 0 7.5-3.357 7.5-7.5s-3.358-7.5-7.5-7.5z"/><path d="m377.989 272.575c-4.143 0-7.5 3.357-7.5 7.5s3.357 7.5 7.5 7.5h9.707c4.143 0 7.5-3.357 7.5-7.5s-3.357-7.5-7.5-7.5z"/><path d="m124.054 195.539h-30.099c-10.089 0-18.296 8.207-18.296 18.296v104.448c0 10.089 8.208 18.297 18.296 18.297h323.01c10.088 0 18.296-8.208 18.296-18.297v-104.448c0-10.089-8.208-18.296-18.296-18.296h-260.948c-4.142 0-7.5 3.357-7.5 7.5s3.358 7.5 7.5 7.5h260.948c1.817 0 3.296 1.479 3.296 3.296v104.448c0 1.818-1.479 3.297-3.296 3.297h-323.01c-1.817 0-3.296-1.479-3.296-3.297v-104.448c0-1.817 1.479-3.296 3.296-3.296h30.099c4.142 0 7.5-3.357 7.5-7.5s-3.358-7.5-7.5-7.5z"/></g></g></svg>