<svg id="Capa_1" enable-background="new 0 0 512.299 512.299" height="512" viewBox="0 0 512.299 512.299" width="512" xmlns="http://www.w3.org/2000/svg"><g><g><path d="m415.268 103.814h-20.601l-11.075 13.063h-70.24l-5.607-13.063h-33.6l-8.537 6.526h-48.981l-4.615-6.526h-141.124c-6.54 0-11.83 5.29-11.83 11.83v239.83c0 6.53 5.29 11.82 11.83 11.82h344.38c6.54 0 11.83-5.29 11.83-11.82v-239.83c0-6.54-5.29-11.83-11.83-11.83z" fill="#dfae91"/><g><path d="m112.712 333.738c-6.54 0-11.83-5.29-11.83-11.82v-218.104h-29.994c-6.54 0-11.83 5.29-11.83 11.83v239.83c0 6.53 5.29 11.82 11.83 11.82h344.38c6.54 0 11.83-5.29 11.83-11.82v-21.737h-314.386z" fill="#d79c7a"/><path d="m274.146 103.813h-62.135v72.414c0 4.031 4.004 6.837 7.793 5.461l21.292-7.73c1.281-.465 2.685-.465 3.966 0l21.292 7.73c3.789 1.376 7.793-1.431 7.793-5.461v-72.414z" fill="#fbe372"/><path d="m384.24 259.164h-66.067c-5.759 0-10.428-4.669-10.428-10.428v-144.923h86.924v144.923c0 5.759-4.669 10.428-10.429 10.428z" fill="#f8f7f8"/><path d="m231.711 313.953h-132.396c-3.091 0-5.596-2.505-5.596-5.596v-39.09c0-3.091 2.505-5.596 5.596-5.596h132.397c3.09 0 5.596 2.505 5.596 5.596v39.09c-.001 3.091-2.506 5.596-5.597 5.596z" fill="#f8f7f8"/><path d="m99.315 313.953h1.567v-50.282h-1.567c-3.09 0-5.596 2.505-5.596 5.596v39.09c0 3.091 2.505 5.596 5.596 5.596z" fill="#efedee"/><g id="XMLID_289_"><g><path d="m181.338 51.064c0 19.34-12.59 35.72-30.02 41.41l-11.09 13.98c-1.26 1.58-3.65 1.58-4.9 0l-11.1-13.98c-18.04-5.89-30.9-23.23-29.98-43.45 1.03-22.53 18.93-40.44 41.46-41.48 25-1.15 45.63 18.78 45.63 43.52zm-28.7 0c0-8.21-6.66-14.86-14.86-14.86-8.21 0-14.87 6.65-14.87 14.86s6.66 14.87 14.87 14.87c8.2 0 14.86-6.66 14.86-14.87z" fill="#e5827f"/></g></g><g id="XMLID_292_"><g><path d="m176.028 392.274c-2.538-3.444-3.979-7.743-3.818-12.381.371-10.71 9.517-19.039 20.233-19.039h64.125l17.25-3.12c6.78-1.22 13.57-1.82 20.3-1.82 36.83 0 71.94 17.88 93.51 48.77l58.671 89.523c2.981 4.548-.282 10.587-5.72 10.587h-121.968c-2.277 0-4.405-1.133-5.675-3.023l-26.987-40.139c-1.907-2.836-5.101-4.538-8.518-4.538h-71.082c-11.91 0-23.59-3.31-33.73-9.56l-83.63-51.55c-4.77-2.94-7.37-8.02-7.37-13.21 0-2.92.83-5.88 2.56-8.51 4.18-6.33 12.31-8.71 19.24-5.63l53.12 23.64z" fill="#ffe0d1"/></g><g><path d="m441.797 487.336h-110.444c-4.548 0-8.797-2.263-11.334-6.037l-22.442-33.38c-3.481-5.178-9.311-8.283-15.55-8.283h-66.569c-11.91 0-23.59-3.31-33.73-9.56l-83.63-51.55c-3.772-2.325-6.182-6.003-7.027-10-2.732 1.158-5.155 3.108-6.892 5.739-1.73 2.63-2.56 5.59-2.56 8.51 0 5.19 2.6 10.27 7.37 13.21l83.63 51.55c10.14 6.25 21.82 9.56 33.73 9.56h70.187c3.978 0 7.694 1.98 9.914 5.281l26.487 39.396c1.27 1.89 3.398 3.023 5.675 3.023h121.968c5.438 0 8.7-6.039 5.72-10.587z" fill="#ffd1c2"/><path d="m185.138 374.816c-2.228-3.022-3.608-6.703-3.804-10.694-3.871 2.488-6.832 6.244-8.233 10.694z" fill="#ffe0d1"/></g><g><g id="XMLID_293_"><g><path d="m175.233 391.098c.253.401.514.796.795 1.176h-16.8c1.12 3.137 2.673 6.114 4.677 8.833 1.025 1.408 2.192 2.769 3.465 4.042 6.56 6.562 15.281 10.175 24.558 10.175h86.924c13.38 0 24.227-10.847 24.227-24.227h-127.846z" fill="#ffd1c2"/><path d="m384.428 400.324h-192.5c-5.45 0-10.38-2.21-13.95-5.78-.71-.71-1.36-1.46-1.95-2.27-2.41-3.27-3.83-7.31-3.83-11.68 0-10.9 8.83-19.74 19.73-19.74h64.64l17.25-3.12c6.78-1.22 13.57-1.82 20.3-1.82 35.06 0 68.56 16.2 90.31 44.41z" fill="#ffe0d1"/></g></g></g></g></g></g><g><path d="m181.606 103.814c0 4.143 3.357 7.5 7.5 7.5h15.405v64.913c0 4.336 2.12 8.411 5.671 10.899 3.552 2.49 8.104 3.092 12.182 1.612l20.715-7.521 20.716 7.521c1.474.535 3.009.798 4.537.798 2.699 0 5.377-.82 7.644-2.41 3.551-2.488 5.671-6.563 5.671-10.899v-64.913h18.599v25.749c0 4.143 3.357 7.5 7.5 7.5s7.5-3.357 7.5-7.5v-25.749h71.924v137.422c0 1.615-1.313 2.929-2.928 2.929h-66.067c-1.615 0-2.929-1.313-2.929-2.929v-79.711c0-4.143-3.357-7.5-7.5-7.5s-7.5 3.357-7.5 7.5v79.711c0 9.886 8.043 17.929 17.929 17.929h66.067c9.886 0 17.928-8.043 17.928-17.929v-137.422h13.104c2.387 0 4.329 1.941 4.329 4.328v46.535c0 4.143 3.357 7.5 7.5 7.5s7.5-3.357 7.5-7.5v-46.535c0-10.657-8.671-19.328-19.329-19.328h-226.168c-4.143 0-7.5 3.357-7.5 7.5zm85.04 70.002-19.021-6.905c-1.467-.534-3.008-.801-4.548-.801-1.539 0-3.078.267-4.541.799l-19.025 6.907v-62.502h47.135z"/><path d="m93.719 243.056h121.015c4.143 0 7.5-3.357 7.5-7.5s-3.357-7.5-7.5-7.5h-121.015c-4.143 0-7.5 3.357-7.5 7.5s3.357 7.5 7.5 7.5z"/><path d="m93.719 212.661h95.813c4.143 0 7.5-3.357 7.5-7.5s-3.357-7.5-7.5-7.5h-95.813c-4.143 0-7.5 3.357-7.5 7.5s3.357 7.5 7.5 7.5z"/><path d="m119.697 98.83 9.751 12.288c2.027 2.556 5.062 4.021 8.324 4.022h.002c3.262 0 6.296-1.465 8.325-4.021l9.75-12.287c19.83-7.485 32.993-26.395 32.993-47.766 0-14.089-5.613-27.207-15.806-36.939-10.186-9.727-23.56-14.707-37.673-14.073-26.499 1.224-47.394 22.13-48.604 48.63-1.009 22.096 12.436 42.385 32.938 50.146zm-17.954-49.463c.854-18.707 15.604-33.466 34.312-34.329.578-.027 1.155-.04 1.73-.04 9.333 0 18.115 3.507 24.893 9.978 7.199 6.874 11.164 16.141 11.164 26.091 0 15.646-9.989 29.424-24.856 34.283-1.398.457-2.631 1.314-3.545 2.467l-7.667 9.663-7.668-9.663c-.914-1.152-2.147-2.01-3.545-2.467-15.351-5.018-25.556-19.814-24.818-35.983z"/><path d="m137.774 73.432c12.332 0 22.364-10.033 22.364-22.365s-10.032-22.364-22.364-22.364-22.365 10.032-22.365 22.364 10.033 22.365 22.365 22.365zm0-29.73c4.061 0 7.364 3.304 7.364 7.364 0 4.062-3.304 7.365-7.364 7.365-4.062 0-7.365-3.304-7.365-7.365-.001-4.06 3.303-7.364 7.365-7.364z"/><path d="m459.515 500.687-65.618-100.118c-.04-.062-.081-.122-.123-.183-6.843-9.801-14.997-18.375-24.109-25.587h45.607c10.658 0 19.329-8.671 19.329-19.329v-161.33c0-4.143-3.357-7.5-7.5-7.5s-7.5 3.357-7.5 7.5v161.33c0 2.387-1.942 4.329-4.329 4.329h-69.255c-.223 0-.442.014-.659.033-22.34-10.385-47.752-14.018-72.873-9.479l-16.593 2.999h-63.96c-6.691 0-12.822 2.429-17.568 6.446h-103.479c-2.387 0-4.329-1.942-4.329-4.329v-239.827c0-2.387 1.942-4.328 4.329-4.328h15.68c4.143 0 7.5-3.357 7.5-7.5s-3.357-7.5-7.5-7.5h-15.68c-10.658 0-19.329 8.671-19.329 19.328v239.828c0 10.658 8.671 19.329 19.329 19.329h4.666c-1.533 4.104-1.86 8.564-.889 12.958 1.354 6.13 5.044 11.319 10.388 14.614l83.63 51.548c11.333 6.985 24.359 10.678 37.673 10.678h72.55l29.847 44.386c1.448 2.153 3.817 3.316 6.23 3.316 1.439 0 2.895-.414 4.178-1.277 3.438-2.312 4.351-6.972 2.039-10.408l-32.075-47.701c-1.394-2.072-3.727-3.315-6.224-3.315h-76.545c-10.531 0-20.837-2.921-29.802-8.447l-83.63-51.548c-1.858-1.146-3.142-2.95-3.612-5.082-.471-2.131-.068-4.308 1.134-6.128 1.475-2.236 3.887-3.514 6.411-3.593h.252c1.094 0 2.202.221 3.261.692l53.124 23.64c.959.427 1.998.647 3.049.647h16.086c4.936 4.967 11.769 8.047 19.308 8.047h57.108c4.143 0 7.5-3.357 7.5-7.5s-3.357-7.5-7.5-7.5h-57.108c-6.747 0-12.236-5.489-12.236-12.236s5.489-12.236 12.236-12.236h64.632c.447 0 .894-.04 1.334-.119l17.255-3.118c40.793-7.377 82.493 9.803 106.26 43.769l65.558 100.025c1.439 2.196 3.836 3.39 6.279 3.39 1.41 0 2.837-.397 4.104-1.229 3.462-2.272 4.429-6.921 2.159-10.385zm-301.383-115.909-22.426-9.979h29.615c-.406 1.867-.625 3.803-.625 5.79 0 1.424.111 2.823.323 4.189z"/><path d="m86.219 308.358c0 7.221 5.875 13.096 13.096 13.096h132.396c7.221 0 13.096-5.875 13.096-13.096v-39.09c0-7.222-5.875-13.097-13.096-13.097h-77.957c-4.143 0-7.5 3.357-7.5 7.5s3.357 7.5 7.5 7.5h76.053v35.282h-128.588v-35.282h20.573c4.143 0 7.5-3.357 7.5-7.5s-3.357-7.5-7.5-7.5h-22.477c-7.221 0-13.096 5.875-13.096 13.097z"/></g></g></svg>