<svg id="Capa_1" enable-background="new 0 0 512.985 512.985" height="512" viewBox="0 0 512.985 512.985" width="512" xmlns="http://www.w3.org/2000/svg"><g><g><path d="m398.691 234.55 9.139-16.457c8.722-15.704 7.719-35.009-2.583-49.725-14.709-21.011-43.556-26.333-64.792-11.951-19.718 13.353-39.65 26.911-39.558 27.09l-61.259 35.655v58.766h135.754z" fill="#e5827f"/><path d="m212.088 183.507c.091-.179-19.841-13.737-39.558-27.09-21.236-14.382-50.084-9.06-64.792 11.951-10.302 14.716-11.305 34.02-2.583 49.725l9.139 16.457 32.576 55.436 101.327-47.9 1.199-31.693z" fill="#e5827f"/><path d="m249.396 210.393-37.308-26.886c.048-.094-5.37-3.839-13.36-9.294-1.496 5.582-1.988 11.445-1.381 17.303l4.646 44.836 3.582 25.882 42.622-20.148z" fill="#de6a66"/><path d="m311.018 236.096 4.62-44.579c.607-5.859.115-11.722-1.381-17.304-7.99 5.455-13.408 9.2-13.36 9.294l-61.259 35.655v58.766h66.837z" fill="#de6a66"/><path d="m296.098 234.55 4.62-44.58c2.009-19.38-13.194-36.24-32.678-36.24h-23.096c-19.484 0-34.687 16.86-32.678 36.24l4.62 44.58 4.998 36.118h70.29z" fill="#e5827f"/><path d="m254.96 219.55c-6.863 0-12.616-5.187-13.324-12.014l-1.821-17.566c-1.931-18.634 12.039-34.931 30.438-36.158-.736-.049-1.464-.082-2.214-.082h-23.096c-19.484 0-34.687 16.86-32.678 36.24l4.62 44.58 4.998 36.117h13.695 13.854 42.74l3.923-36.117 1.555-15z" fill="#de6a66"/><path d="m152.059 234.55-9.14-16.457c-8.722-15.704-7.719-35.009 2.583-49.725 5.118-7.311 11.95-12.731 19.576-16.074-20.118-8.86-44.292-2.566-57.341 16.074-10.302 14.716-11.305 34.021-2.583 49.725l9.139 16.457 32.576 55.436 29.555-13.972z" fill="#de6a66"/><g><path d="m422.087 492.623c0 7.104-5.759 12.862-12.862 12.862h-304.465c-7.104 0-12.862-5.759-12.862-12.862v-229.864h330.19v229.864z" fill="#b3e5ee"/><path d="m147.395 473.595c-7.104 0-12.862-5.759-12.862-12.862v-197.974h-42.635v229.864c0 7.104 5.758 12.862 12.862 12.862h304.465c7.104 0 12.862-5.758 12.862-12.862v-19.028z" fill="#86d7e5"/><path d="m397.151 262.759h-73.843-132.631-73.843-24.936v53.781h24.937v91.054c0 5.176 2.041 10.007 5.747 13.603 3.569 3.464 8.263 5.371 13.216 5.371 2.5-.001 4.946-.489 7.272-1.455l4.408-1.829c4.019-1.668 8.536-1.668 12.555 0l4.41 1.83c2.409.999 4.947 1.489 7.54 1.452 10.454-.147 18.694-9.024 18.694-19.479v-79.43c0-6.139 4.977-11.117 11.117-11.117h109.426c6.676 0 12.088 5.412 12.088 12.088v78.459c0 10.457 8.243 19.334 18.699 19.478 2.592.036 5.129-.453 7.537-1.453l10.687-4.434 10.687 4.435c2.409.999 4.947 1.489 7.54 1.452 10.454-.147 18.694-9.024 18.694-19.479v-78.459c0-6.676 5.412-12.088 12.088-12.088h12.848v-53.781h-24.937z" fill="#86d7e5"/><path d="m225.044 268.541h63.897v236.944h-63.897z" fill="#fbe372"/><path d="m225.044 268.541h63.897v48h-63.897z" fill="#f8d448"/><path d="m414.748 234.55h-109.52l-8.824 11.281s-79.507-.63-80.137 0-8.511-11.281-8.511-11.281h-109.519c-16.282 0-29.481 13.199-29.481 29.481v22.121c0 5.738 4.652 10.389 10.39 10.389h128.611l16.402-10.597h73.328l7.742 10.597h128.611c5.738 0 10.39-4.652 10.39-10.389v-22.121c-.001-16.282-13.2-29.481-29.482-29.481z" fill="#b3e5ee"/><g fill="#fbe372"><path d="m207.756 234.55h97.472v61.991h-97.472z"/><path d="m169.424 413.106-13.381-5.552c-1.464-.607-3.11-.607-4.574 0l-13.381 5.552c-3.929 1.63-8.253-1.257-8.253-5.511v-148.29c0-13.672 11.083-24.755 24.755-24.755h23.088v173.044c-.001 4.255-4.325 7.142-8.254 5.512z"/><path d="m344.561 413.106 13.381-5.552c1.464-.607 3.109-.607 4.573 0l13.381 5.552c3.929 1.63 8.253-1.257 8.253-5.511v-148.29c0-13.672-11.083-24.755-24.755-24.755h-23.088v173.044c.002 4.255 4.326 7.142 8.255 5.512z"/></g><g id="XMLID_291_"><g><path d="m363.692 60.351c0 23.45-15.28 43.32-36.43 50.23l-13.45 16.95c-1.52 1.92-4.42 1.92-5.94 0l-13.46-16.95c-21.88-7.15-37.48-28.19-36.36-52.71 1.24-27.33 22.95-49.05 50.28-50.31 30.33-1.4 55.36 22.77 55.36 52.79zm-30.82 0c0-12.17-9.87-22.03-22.03-22.03-12.17 0-22.03 9.86-22.03 22.03 0 12.16 9.86 22.02 22.03 22.02 12.16 0 22.03-9.86 22.03-22.02z" fill="#e5827f"/></g></g></g></g><g><path d="m414.748 227.05h-3.312l2.952-5.315c10.044-18.085 8.868-40.721-2.996-57.667-16.955-24.219-50.664-30.438-75.142-13.86-11.495 7.784-20.657 14.009-27.233 18.502-1.31.895-2.537 1.734-3.68 2.518-1.744-4.239-4.2-8.198-7.328-11.667-7.639-8.472-18.562-13.33-29.969-13.33h-23.096c-11.407 0-22.33 4.858-29.969 13.33-3.128 3.469-5.584 7.427-7.328 11.667-1.143-.784-2.371-1.624-3.68-2.518-6.576-4.493-15.738-10.718-27.233-18.502-24.479-16.578-58.187-10.36-75.141 13.859-11.865 16.947-13.041 39.583-2.997 57.668l2.952 5.315h-3.312c-20.391 0-36.98 16.59-36.98 36.98v22.12c0 9.864 8.025 17.89 17.89 17.89h5.252v188.582c0 11.228 9.135 20.362 20.362 20.362h304.465c11.228 0 20.362-9.135 20.362-20.362v-41.136c0-4.143-3.357-7.5-7.5-7.5s-7.5 3.357-7.5 7.5v41.136c0 2.957-2.405 5.362-5.362 5.362h-113.284v-193.943h32.867v103.554c0 4.509 2.238 8.695 5.988 11.199s8.475 2.967 12.639 1.24l12.794-5.31 12.795 5.31c1.665.69 3.419 1.031 5.165 1.031 2.621 0 5.223-.769 7.474-2.271 3.75-2.504 5.988-6.69 5.988-11.199v-103.554h22.937v115.484c0 4.143 3.357 7.5 7.5 7.5s7.5-3.357 7.5-7.5v-115.484h4.252c9.864 0 17.89-8.025 17.89-17.89v-22.12c-.001-20.391-16.591-36.981-36.982-36.981zm-70.088-64.422c17.734-12.011 42.158-7.506 54.443 10.043 8.596 12.278 9.448 28.679 2.171 41.781l-6.997 12.599h-89.863l3.763-36.307c.117-1.13.172-2.26.193-3.388 3.982-2.769 13.533-9.317 36.29-24.728zm-129.404 126.413v-46.99h82.473v46.99zm-30.079 0v-46.99h15.079v46.99zm59.768-127.81h23.096c7.272 0 13.959 2.975 18.829 8.375 4.869 5.4 7.139 12.357 6.389 19.591l-3.923 37.854h-65.686l-3.923-37.854c-.75-7.233 1.52-14.19 6.389-19.591 4.87-5.4 11.556-8.375 18.829-8.375zm-133.235 53.221c-7.277-13.103-6.425-29.503 2.172-41.782 12.284-17.548 36.707-22.052 54.442-10.042 22.758 15.411 32.309 21.959 36.289 24.728.021 1.128.076 2.258.193 3.388l3.763 36.307h-89.863zm-35.454 71.699v-22.12c0-12.12 9.86-21.98 21.98-21.98h16.049c.005 0 .01.001.015.001s.01-.001.016-.001h13.043c-3.176 4.994-5.024 10.911-5.024 17.255v29.735h-43.189c-1.594 0-2.89-1.296-2.89-2.89zm23.142 206.472v-188.582h22.937v30.233c0 4.143 3.357 7.5 7.5 7.5s7.5-3.357 7.5-7.5v-74.969c0-9.515 7.74-17.255 17.255-17.255h15.588v163.248l-11.261-4.673c-3.329-1.382-6.995-1.382-10.322.001l-11.26 4.672v-39.062c0-4.143-3.357-7.5-7.5-7.5s-7.5 3.357-7.5 7.5v41.358c0 4.509 2.238 8.695 5.987 11.199 3.75 2.504 8.474 2.97 12.642 1.239l12.793-5.309 12.794 5.31c1.665.69 3.419 1.031 5.165 1.031 2.621 0 5.223-.769 7.474-2.271 3.75-2.504 5.988-6.69 5.988-11.199v-103.553h31.867v193.944h-112.285c-2.957 0-5.362-2.405-5.362-5.362zm181.543 5.362h-48.896v-193.944h48.896zm31.788-208.944v-46.99h16.079v46.99zm63.922 116.257-11.261-4.673c-3.327-1.381-6.992-1.382-10.321 0l-11.261 4.673v-163.248h15.588c9.515 0 17.255 7.74 17.255 17.255zm60.078-119.147c0 1.594-1.296 2.89-2.89 2.89h-42.188v-29.735c0-6.344-1.849-12.261-5.024-17.255h12.043c.005 0 .01.001.016.001.005 0 .01-.001.015-.001h16.049c12.12 0 21.98 9.86 21.98 21.98v22.12z"/><path d="m289.89 116.943 12.104 15.252c2.154 2.716 5.378 4.273 8.845 4.274h.002c3.466 0 6.69-1.558 8.847-4.273l12.103-15.251c23.662-8.739 39.398-31.196 39.398-56.598 0-8.644-1.804-17.009-5.361-24.864-1.708-3.772-6.153-5.445-9.926-3.738-3.773 1.709-5.447 6.152-3.738 9.926 2.671 5.898 4.025 12.183 4.025 18.677 0 19.672-12.559 36.993-31.251 43.103-1.397.457-2.631 1.314-3.545 2.467l-10.552 13.297-10.552-13.297c-.914-1.152-2.147-2.01-3.545-2.467-19.3-6.308-32.131-24.91-31.203-45.236 1.074-23.521 19.62-42.078 43.141-43.164 8.821-.412 17.505 1.727 25.079 6.174 3.571 2.095 8.167.902 10.266-2.67 2.097-3.572.901-8.168-2.67-10.266-10.085-5.922-21.624-8.764-33.367-8.223-31.312 1.445-56.003 26.15-57.433 57.465-1.198 26.259 14.876 50.356 39.333 59.412z"/><path d="m310.84 30.818c-16.282 0-29.528 13.247-29.528 29.529s13.246 29.528 29.528 29.528 29.529-13.246 29.529-29.528-13.247-29.529-29.529-29.529zm0 44.058c-8.011 0-14.528-6.518-14.528-14.528 0-8.012 6.518-14.529 14.528-14.529 8.012 0 14.529 6.518 14.529 14.529 0 8.01-6.517 14.528-14.529 14.528z"/></g></g></svg>