<svg id="Capa_1" enable-background="new 0 0 512.716 512.716" height="512" viewBox="0 0 512.716 512.716" width="512" xmlns="http://www.w3.org/2000/svg"><g><g><path d="m368.16 221.1c0-3.823-3.099-6.923-6.923-6.923h-24.795c-3.823 0-6.923 3.099-6.923 6.923v61.121h-22.781c-4.93 0-8.927 3.997-8.927 8.927v79.118h70.349z" fill="#cac5cb"/><path d="m316.156 332.377-6.604-20.697c-1.523-4.773-4.763-8.81-9.093-11.331l-52.697-30.672-15.917-9.983-24.22 99.54 114.783 39.691 7.371-26.445z" fill="#e1dee2"/><path d="m391.101 89.029-4.931-42.624c-.378-3.266-3.143-5.73-6.431-5.73h-26.22c-3.288 0-6.053 2.464-6.431 5.73l-4.931 42.624-2.644 15.569 55.458 2.153z" fill="#e5827f"/><path d="m356.384 101.303 4.931-42.624c.378-3.266 3.143-5.73 6.431-5.73h19.182l-.757-6.544c-.378-3.266-3.143-5.73-6.431-5.73h-26.22c-3.288 0-6.053 2.464-6.431 5.73l-4.931 42.624-2.644 15.569 16.204.629z" fill="#de6a66"/><path d="m225.686 328.338 78.766-209.309h136.901v197.35h30v-208.436c0-10.43-8.485-18.914-18.914-18.914h-155.66c-7.832 0-14.946 4.925-17.702 12.252l-74.333 197.528-21.557 41.953 30.594 16.94z" fill="#fbe372"/><path d="m204.744 82.562c0-3.999-3.242-7.241-7.241-7.241h-14.348c-3.999 0-7.241 3.242-7.241 7.241v282.661h28.829v-282.661z" fill="#e1dee2"/><path d="m14.783 393.809h180.132v-28.587h-180.132c-4.022 0-7.283 3.261-7.283 7.283v14.021c0 4.023 3.261 7.283 7.283 7.283z" fill="#b3adb5"/><path d="m167.192 119.025h-48.672l-4.084 5.352h-30.379l-4.171-5.347v-.004h-48.665c-4.82 0-8.73 3.91-8.73 8.73v123.37h153.42v-123.37c0-4.822-3.9-8.731-8.719-8.731z" fill="#dfae91"/><g><path d="m499.097 302 6.12-10.003v-22.56c0-3.554-2.881-6.435-6.435-6.435h-110.585c-1.707 0-3.343.678-4.55 1.885l-87.034 87.034h-44.966l-33.756-30.661c-4.386-3.984-10.098-6.191-16.023-6.191h-25.954v97.229c0 3.439 2.788 6.227 6.226 6.227h317.358c3.158 0 5.717-2.56 5.717-5.717v-72.044l-6.12-6.593v-32.171z" fill="#b3e5ee"/><path d="m203.683 386.899c-3.439 0-6.226-2.788-6.226-6.227v-65.605h-21.542v97.229c0 3.439 2.788 6.227 6.226 6.227h317.358c3.158 0 5.717-2.56 5.717-5.717v-25.907z" fill="#86d7e5"/><path d="m207.598 315.068h-31.683v36.852h75.733l-37.996-34.513c-1.658-1.506-3.816-2.339-6.054-2.339z" fill="#86d7e5"/><g id="XMLID_294_"><g><path d="m51.324 204.009v-84.984h-20.103c-4.821 0-8.73 3.909-8.73 8.73v123.37h153.42v-29.783h-107.255c-9.572 0-17.332-7.761-17.332-17.333z" fill="#d79c7a"/><path d="m22.492 242.125h153.42v123.1h-153.42z" fill="#dfae91"/><path d="m52.487 335.16v-93.035h-29.995v123.099h153.419v-30.064z" fill="#d79c7a"/></g></g><path d="m118.52 119.025h-38.634v47.789c0 2.828 2.812 4.794 5.468 3.823l12.451-4.553c.903-.33 1.893-.33 2.795 0l12.451 4.553c2.656.971 5.468-.995 5.468-3.823v-47.789z" fill="#fbe372"/><path d="m118.519 242.126h-38.633v47.789c0 2.828 2.812 4.794 5.468 3.823l12.451-4.553c.903-.33 1.893-.33 2.795 0l12.451 4.553c2.656.971 5.468-.995 5.468-3.823z" fill="#fbe372"/><path d="m505.216 340.762h-32.068c-3.577 0-6.477-2.9-6.477-6.477v-35.812c0-3.577 2.9-6.477 6.477-6.477h32.068z" fill="#e5827f"/></g><circle cx="419.272" cy="414.867" fill="#8f8390" r="57.165"/><circle cx="419.272" cy="414.867" fill="#efedee" r="22.081"/><circle cx="228.686" cy="435.483" fill="#8f8390" r="36.558"/><path d="m175.914 315.068h21.542v36.852h-21.542z" fill="#65cfdf"/></g><g><path d="m498.782 255.502h-19.928v-80.949c0-4.143-3.358-7.5-7.5-7.5s-7.5 3.357-7.5 7.5v80.949h-15v-136.473c0-4.143-3.358-7.5-7.5-7.5h-136.902c-3.123 0-5.919 1.936-7.02 4.858l-74.877 198.975-6.436-5.846c-1.089-.989-2.439-1.624-3.875-1.85v-7.493l73.853-196.251c1.664-4.422 5.957-7.393 10.683-7.393h155.661c6.294 0 11.414 5.12 11.414 11.414v34.647c0 4.143 3.358 7.5 7.5 7.5s7.5-3.357 7.5-7.5v-34.647c0-14.564-11.849-26.414-26.414-26.414h-54.656l-4.163-35.984c-.814-7.052-6.782-12.369-13.881-12.369h-26.22c-7.099 0-13.066 5.317-13.881 12.368l-4.163 35.985h-38.697c-10.937 0-20.872 6.877-24.722 17.11l-59.813 158.944v-175.022c0-8.128-6.613-14.74-14.741-14.74h-14.348c-8.128 0-14.741 6.612-14.741 14.74v29.03c-.406-.031-.813-.062-1.227-.062h-135.97c-8.947 0-16.227 7.279-16.227 16.227v38.18c0 4.143 3.358 7.5 7.5 7.5s7.5-3.357 7.5-7.5v-38.18c0-.677.55-1.227 1.227-1.227h41.168v40.289c0 3.774 1.847 7.319 4.94 9.482 3.093 2.164 7.056 2.679 10.604 1.385l11.272-4.123 11.274 4.123c1.289.471 2.632.702 3.969.702 2.342 0 4.664-.71 6.633-2.087 3.093-2.162 4.94-5.707 4.94-9.482v-40.289h41.168c.677 0 1.227.55 1.227 1.227v106.87h-138.422v-36.728c0-4.143-3.358-7.5-7.5-7.5s-7.5 3.357-7.5 7.5v159.824h-.208c-8.152 0-14.783 6.632-14.783 14.784v14.021c0 8.151 6.631 14.783 14.783 14.783h153.632v10.988c0 7.568 6.157 13.726 13.726 13.726h3.521c-.67 3.049-1.034 6.212-1.034 9.46 0 24.293 19.764 44.058 44.058 44.058s44.058-19.765 44.058-44.058c0-3.248-.364-6.411-1.034-9.46h83.881c5.304 30.355 31.831 53.508 63.681 53.508s58.378-23.152 63.681-53.508h16.545c7.288 0 13.217-5.929 13.217-13.217v-143.37c.001-7.684-6.25-13.935-13.933-13.935zm-144.348-207.326h24.391l3.859 33.354h-32.108zm-243.414 113.736-7.844-2.868c-1.281-.469-2.627-.703-3.973-.703s-2.693.234-3.974.703l-7.843 2.868v-35.383h23.633v35.383zm386.696 171.35h-23.545v-33.766h23.545zm-188.073-206.733h124.21v128.973h-45.656c-3.722 0-7.222 1.449-9.854 4.081l-2.683 2.683v-41.167c0-7.953-6.47-14.423-14.423-14.423h-24.795c-7.953 0-14.423 6.47-14.423 14.423v53.621h-15.281c-7.337 0-13.563 4.836-15.665 11.488l-34.06-19.825zm9.915 191.839-5.228-16.384c-.565-1.77-1.767-3.267-3.372-4.202l-5.646-3.286v-3.349c0-.787.64-1.427 1.427-1.427h22.781c4.142 0 7.5-3.357 7.5-7.5v-60.544h23.641v55.589zm-67.902-37.746 49.262 28.673 6.704 21.01-14.115 14.115h-38.962l-20.045-18.208zm-19.421 63.798h-48.821v-21.852h24.764zm-48.82-261.599h13.829v224.747h-13.829zm-72.395 166.805v35.383l-7.851-2.871c-1.278-.466-2.621-.698-3.964-.698-1.346 0-2.692.233-3.976.701l-7.843 2.868v-35.383zm-81.029 0h42.395v40.289c0 3.774 1.847 7.319 4.94 9.482 3.093 2.164 7.056 2.68 10.604 1.385l11.272-4.123 11.274 4.123c1.289.471 2.632.702 3.969.702 2.342 0 4.664-.71 6.633-2.087 3.093-2.162 4.94-5.707 4.94-9.482v-40.289h42.395v108.097h-138.422zm-14.991 136.683v-13.587h7.491 145.923v13.587zm213.686 78.232c-16.022 0-29.058-13.035-29.058-29.058s13.035-29.058 29.058-29.058 29.058 13.035 29.058 29.058-13.036 29.058-29.058 29.058zm255.127-53.518c-1.997-33.873-30.176-60.821-64.541-60.821-2.81 0-5.724.199-8.661.593-4.105.55-6.988 4.323-6.438 8.429.549 4.105 4.312 6.986 8.429 6.438 2.279-.306 4.523-.46 6.67-.46 27.385 0 49.665 22.279 49.665 49.665 0 27.385-22.279 49.664-49.665 49.664s-49.665-22.279-49.665-49.664c0-14.575 6.382-28.366 17.511-37.835 3.155-2.685 3.536-7.418.852-10.572s-7.417-3.536-10.572-.852c-13.501 11.489-21.628 27.871-22.669 45.415h-89.42c-7.912-11.808-21.373-19.598-36.623-19.598s-28.711 7.79-36.623 19.598h-8.648v-51.603h113.199c1.989 0 3.897-.79 5.303-2.196l19.649-19.648c0-.001.001-.001.002-.002l67.071-67.071h109.078v13.995h-24.568c-7.707 0-13.977 6.27-13.977 13.977v35.812c0 7.707 6.27 13.977 13.977 13.977h24.568v62.761h-13.904z"/><path d="m228.686 427.691c-4.142 0-7.5 3.357-7.5 7.5v3.292c0 4.143 3.358 7.5 7.5 7.5s7.5-3.357 7.5-7.5v-3.292c0-4.142-3.358-7.5-7.5-7.5z"/><path d="m389.691 414.867c0 16.312 13.27 29.581 29.581 29.581s29.581-13.27 29.581-29.581-13.27-29.581-29.581-29.581-29.581 13.269-29.581 29.581zm29.581-14.581c8.04 0 14.581 6.541 14.581 14.581s-6.541 14.581-14.581 14.581-14.581-6.541-14.581-14.581 6.541-14.581 14.581-14.581z"/></g></g></svg>