<svg id="Capa_1" enable-background="new 0 0 512.557 512.557" height="512" viewBox="0 0 512.557 512.557" width="512" xmlns="http://www.w3.org/2000/svg"><g><g><path d="m497.096 207.579h-130.063c-.772 0-1.515.293-2.08.82l-76.122 71.063-8.071 45.804h124.364l22.702-45.804 71.349-66.607c2.022-1.888.687-5.276-2.079-5.276z" fill="#d79c7a"/><path d="m147.603 208.398c-.564-.527-1.308-.82-2.08-.82h-130.062c-2.766 0-4.102 3.388-2.08 5.275l71.349 66.607 29.469 37.457h109.526v-37.457z" fill="#d79c7a"/><path d="m142.836 291.697-71.349-66.607c-2.022-1.887-.686-5.275 2.08-5.275h86.265l-12.228-11.416c-.564-.527-1.308-.82-2.08-.82h-130.063c-2.766 0-4.102 3.388-2.08 5.275l71.349 66.607 29.469 37.457h48.479z" fill="#d08a61"/><path d="m84.73 279.461v209.299c0 9 7.296 16.297 16.297 16.297h88.961v-15.67h153.857v15.67h67.684c9.001 0 16.297-7.296 16.297-16.297v-209.299z" fill="#dfae91"/><g><path d="m146.042 473.772c-9.001 0-16.297-7.296-16.297-16.297v-178.014h-45.015v209.299c0 9 7.296 16.297 16.297 16.297h121.977l10.508-5.858h51.214l4.825 5.858h121.977c9.001 0 16.297-7.296 16.297-16.297v-14.988z" fill="#d79c7a"/><path d="m289.552 505.057h-66.548v-68.653c0-4.013 4.055-6.756 7.78-5.262l23.852 9.566c1.374.551 2.908.543 4.276-.022l22.805-9.426c3.732-1.543 7.835 1.201 7.835 5.239z" fill="#fbe372"/><path d="m289.552 473.772h-66.548v31.285h.001 66.547z" fill="#f8d448"/><path d="m232.37 377.738h-103.914c-4.623 0-8.37-3.747-8.37-8.37v-50.015c0-4.623 3.747-8.37 8.37-8.37h103.914c4.623 0 8.37 3.747 8.37 8.37v50.015c0 4.622-3.748 8.37-8.37 8.37z" fill="#f8f7f8"/><path d="m128.456 377.738h1.29v-66.756h-1.29c-4.623 0-8.37 3.748-8.37 8.371v50.015c-.001 4.622 3.747 8.37 8.37 8.37z" fill="#efedee"/><path d="m385.03 389.002h-70.051c-5.225 0-9.461-4.236-9.461-9.461v-100.08h88.973v100.08c0 5.226-4.236 9.461-9.461 9.461z" fill="#f8f7f8"/><path d="m283.829 16.638v122.561h37.603c2.88 0 4.501 3.31 2.736 5.585l-59.14 76.209c-4.433 5.713-13.064 5.713-17.497 0l-59.14-76.209c-1.765-2.275-.144-5.585 2.736-5.585h37.603v-122.561c0-5.047 4.091-9.138 9.138-9.138h36.824c5.045-.001 9.137 4.091 9.137 9.138z" fill="#e5827f"/></g></g><g><path d="m506.908 206.758c-1.6-4.058-5.451-6.68-9.812-6.68h-130.063c-2.679 0-5.234 1.007-7.198 2.838l-73.96 69.045h-59.195l-73.963-69.048c-1.961-1.828-4.516-2.835-7.195-2.835h-130.061c-4.361 0-8.213 2.622-9.812 6.68s-.573 8.603 2.615 11.579l68.967 64.384v206.039c0 13.122 10.675 23.797 23.797 23.797h310.502c13.122 0 23.797-10.675 23.797-23.797v-35.844c0-4.143-3.358-7.5-7.5-7.5s-7.5 3.357-7.5 7.5v35.844c0 4.851-3.946 8.797-8.797 8.797h-114.478v-61.057c0-4.405-2.187-8.498-5.849-10.947-3.661-2.448-8.278-2.905-12.351-1.224l-22.117 9.142-23.159-9.289c-4.063-1.63-8.655-1.139-12.28 1.314-3.627 2.452-5.792 6.53-5.792 10.908v61.152h-114.477c-4.851 0-8.797-3.946-8.797-8.797v-201.797h205.788v92.579c0 9.353 7.609 16.961 16.961 16.961h70.051c9.352 0 16.961-7.608 16.961-16.961v-92.579h18.335v133.991c0 4.143 3.358 7.5 7.5 7.5s7.5-3.357 7.5-7.5v-138.232l68.967-64.384c3.188-2.977 4.215-7.522 2.615-11.579zm-276.404 232.353 21.34 8.559c3.211 1.288 6.738 1.269 9.932-.052l20.276-8.381v58.319h-51.548zm-86.736-224.033 60.932 56.883h-117.015l-60.932-56.883zm243.223 164.463c0 1.081-.88 1.961-1.961 1.961h-70.051c-1.081 0-1.961-.88-1.961-1.961v-92.579h73.973zm37.88-107.58h-117.014l60.932-56.883h117.014z"/><path d="m329.872 314.133h40.264c4.142 0 7.5-3.357 7.5-7.5s-3.358-7.5-7.5-7.5h-40.264c-4.142 0-7.5 3.357-7.5 7.5s3.358 7.5 7.5 7.5z"/><path d="m329.872 341.304h40.264c4.142 0 7.5-3.357 7.5-7.5s-3.358-7.5-7.5-7.5h-40.264c-4.142 0-7.5 3.357-7.5 7.5s3.358 7.5 7.5 7.5z"/><path d="m329.872 368.475h40.264c4.142 0 7.5-3.357 7.5-7.5s-3.358-7.5-7.5-7.5h-40.264c-4.142 0-7.5 3.357-7.5 7.5s3.358 7.5 7.5 7.5z"/><path d="m373.878 162.027c0 4.143 3.358 7.5 7.5 7.5h13.113c4.142 0 7.5-3.357 7.5-7.5s-3.358-7.5-7.5-7.5h-13.113c-4.142 0-7.5 3.358-7.5 7.5z"/><path d="m370.139 130.569c1.753 0 3.515-.611 4.938-1.857l11.242-9.843c3.117-2.729 3.431-7.467.703-10.583-2.728-3.115-7.466-3.431-10.583-.702l-11.242 9.843c-3.117 2.729-3.431 7.467-.703 10.583 1.482 1.693 3.558 2.559 5.645 2.559z"/><path d="m342.01 106.374c4.142 0 7.5-3.357 7.5-7.5v-15.174c0-4.143-3.358-7.5-7.5-7.5s-7.5 3.357-7.5 7.5v15.174c0 4.143 3.358 7.5 7.5 7.5z"/><path d="m119.066 169.527h13.113c4.142 0 7.5-3.357 7.5-7.5s-3.358-7.5-7.5-7.5h-13.113c-4.142 0-7.5 3.357-7.5 7.5s3.358 7.5 7.5 7.5z"/><path d="m127.238 118.869 11.242 9.843c1.423 1.246 3.184 1.857 4.938 1.857 2.087 0 4.163-.866 5.646-2.56 2.729-3.116 2.414-7.854-.703-10.583l-11.242-9.843c-3.117-2.729-7.855-2.414-10.583.702s-2.414 7.856.702 10.584z"/><path d="m171.547 106.374c4.142 0 7.5-3.357 7.5-7.5v-15.174c0-4.143-3.358-7.5-7.5-7.5s-7.5 3.357-7.5 7.5v15.174c0 4.143 3.358 7.5 7.5 7.5z"/><path d="m241.604 225.592c3.545 4.566 8.894 7.187 14.675 7.187 5.781-.001 11.129-2.62 14.673-7.188l59.14-76.208c2.586-3.332 3.04-7.755 1.185-11.543-1.855-3.787-5.628-6.141-9.846-6.141h-30.103v-57.089c0-4.143-3.358-7.5-7.5-7.5s-7.5 3.357-7.5 7.5v64.589c0 4.143 3.358 7.5 7.5 7.5h29.359l-54.086 69.696c-.934 1.203-2.169 1.383-2.823 1.383s-1.89-.18-2.824-1.383l-54.085-69.696h29.359c4.142 0 7.5-3.357 7.5-7.5v-122.561c0-.903.735-1.638 1.638-1.638h36.824c.903 0 1.638.734 1.638 1.638v26.011c0 4.143 3.358 7.5 7.5 7.5s7.5-3.357 7.5-7.5v-26.011c.001-9.174-7.463-16.638-16.638-16.638h-36.824c-9.174 0-16.638 7.464-16.638 16.638v115.062h-30.103c-4.218 0-7.99 2.354-9.846 6.141-1.855 3.788-1.401 8.211 1.185 11.542z"/><path d="m128.456 318.482h14.965c4.142 0 7.5-3.357 7.5-7.5s-3.358-7.5-7.5-7.5h-14.965c-8.751 0-15.87 7.119-15.87 15.87v50.015c0 8.751 7.119 15.871 15.87 15.871h103.914c8.751 0 15.87-7.12 15.87-15.871v-50.015c0-8.751-7.119-15.87-15.87-15.87h-56.986c-4.142 0-7.5 3.357-7.5 7.5s3.358 7.5 7.5 7.5h56.986c.48 0 .87.391.87.87v50.015c0 .48-.39.871-.87.871h-103.914c-.48 0-.87-.391-.87-.871v-50.015c-.001-.479.39-.87.87-.87z"/></g></g></svg>