<svg id="Capa_1" enable-background="new 0 0 512.556 512.556" height="512" viewBox="0 0 512.556 512.556" width="512" xmlns="http://www.w3.org/2000/svg"><g><g><g><path d="m309.4 289.714 53.677 27.056c16.743 8.439 27.304 25.59 27.304 44.339v73.285h-268.206v-73.285c0-18.749 10.561-35.9 27.304-44.339l53.677-27.056 35.595-17.184h32.449z" fill="#e1f5f8"/></g><path d="m309.4 289.714-38.2-17.184h-4.129l1.033 2.068-46.042 22.991c-5.014 2.504-10.91-1.143-10.91-6.747v-4.988l-7.995 3.86-53.677 27.056c-16.743 8.439-27.304 25.59-27.304 44.339v73.286h26.76v-53.386c0-18.75 10.561-35.9 27.304-44.34l14.877-7.499c4.077-2.055 8.991-.982 11.941 2.503 3.435 4.058 8.555 6.566 14.109 6.566h.001c4.156 0 8.242-1.434 11.505-4.039l20.385-16.28c4.223-3.373 10.218-3.373 14.442 0l20.386 16.281c3.262 2.604 7.348 4.038 11.504 4.038 8.278 0 15.602-5.566 17.809-13.536l8.04-29.022z" fill="#b3e5ee"/><path d="m413.498 495.763v-110.979c0-7.793-6.317-14.11-14.11-14.11h-115.23l-6.943 9.327h-44.595l-4.221-9.327h-116.23c-7.793 0-14.11 6.317-14.11 14.11v110.979z" fill="#dfae91"/><path d="m228.395 196.713h55.766v98.802h-55.766z" fill="#ffd1c2"/><path d="m332.04 172.398c9.391 0 17.004-7.613 17.004-17.004v-16.288-17.234l-46.415-17.315-123.873 8.77-15.245 6.02v36.047c0 9.391 7.613 17.004 17.004 17.004z" fill="#ffd1c2"/><path d="m187.078 131.653 4.949 53.078c3.069 32.915 30.693 58.083 63.751 58.083 33.058 0 60.682-25.167 63.751-58.083l4.949-53.078 5.13-42.282-150.852 1.951z" fill="#ffe0d1"/><path d="m187.078 131.653 1.472 15.79c20.985-9.754 44.06-14.896 67.228-14.896s46.242 5.141 67.228 14.896l1.472-15.79 5.13-42.282-150.852 1.95z" fill="#ffd1c2"/><path d="m351.455 111.328-3.528-34.994c-3.941-39.084-36.841-68.834-76.124-68.834h-32.051c-39.283 0-72.183 29.75-76.123 68.834l-3.528 34.994v14.408l80.835-19.053 49.969 2.516 60.551 16.536v-14.407z" fill="#e1f5f8"/><path d="m143.445 484.224c-4.144.013-7.51-3.342-7.51-7.486v-106.064h-23.768c-7.793 0-14.11 6.317-14.11 14.11v112.76c0 4.144 3.366 7.499 7.51 7.486l52.591-.167 7.141-7.14h71.637l8.712 6.86v.002l160.388-.508c4.125-.013 7.462-3.361 7.462-7.486v-13.224z" fill="#d79c7a"/><g><g><path d="m353.366 133.221c-3.399 5.527-10.503 7.493-16.242 4.465-25.029-13.205-52.922-20.138-81.345-20.138s-56.316 6.933-81.345 20.138c-5.739 3.028-12.843 1.063-16.242-4.465l-2.785-4.528c-3.726-6.059-1.59-14.034 4.695-17.365 29.421-15.593 62.236-23.78 95.677-23.78s66.256 8.188 95.677 23.78c6.285 3.331 8.421 11.305 4.695 17.365z" fill="#b3e5ee"/></g><path d="m281.931 64.442h-52.307c-4.001 0-7.244-3.243-7.244-7.244v-15.061c0-4.001 3.243-7.244 7.244-7.244h52.307c4.001 0 7.244 3.243 7.244 7.244v15.061c0 4.001-3.243 7.244-7.244 7.244z" fill="#b3e5ee"/><g id="XMLID_303_"><g><path d="m284.158 370.674v39.18c0 2.33-2.24 4-4.47 3.34l-22.42-6.61c-.65-.19-1.33-.19-1.98 0l-22.42 6.61c-2.23.66-4.47-1.01-4.47-3.34v-39.18z" fill="#fbe372"/></g></g><g id="XMLID_305_"><g><path d="m245.648 504.054v.53l-87.49.28v-.81-38.21c0-4.02 3.25-7.27 7.26-7.27h72.96c4.02 0 7.27 3.25 7.27 7.27z" fill="#f8f7f8"/></g></g><path d="m353.408 478.225h-66.571c-3.221 0-5.832-2.611-5.832-5.832v-20.503c0-3.221 2.611-5.832 5.832-5.832h66.571c3.221 0 5.832 2.611 5.832 5.832v20.503c0 3.221-2.612 5.832-5.832 5.832z" fill="#f8f7f8"/></g><path d="m256.278 295.516-27.309-22.786c-4.21-3.512-10.295-3.627-14.634-.276l-7.312 5.647c-3.529 2.726-5.058 7.316-3.867 11.613l8.731 31.518c1.046 3.776 5.611 5.255 8.673 2.81z" fill="#e1f5f8"/><path d="m256.278 295.516 27.309-22.786c4.21-3.512 10.295-3.627 14.634-.276l7.312 5.647c3.529 2.726 5.058 7.316 3.867 11.613l-8.731 31.518c-1.046 3.776-5.611 5.255-8.673 2.81z" fill="#e1f5f8"/><path d="m97.921 480.117h3.828c13.787 0 24.964-11.177 24.964-24.964v-13.143c0-13.787-11.177-24.964-24.964-24.964h-3.828c-7.095 0-12.846 5.752-12.846 12.846v37.378c0 7.095 5.751 12.847 12.846 12.847z" fill="#ffe0d1"/><path d="m414.635 480.117h-3.828c-13.787 0-24.964-11.177-24.964-24.964v-13.143c0-13.787 11.177-24.964 24.964-24.964h3.828c7.095 0 12.846 5.752 12.846 12.846v37.378c0 7.095-5.751 12.847-12.846 12.847z" fill="#ffe0d1"/><path d="m158.158 484.178v19.876.81l87.49-.28v-.53-20.154z" fill="#efedee"/></g><g><path d="m229.625 27.394c-8.13 0-14.744 6.613-14.744 14.743v15.062c0 8.13 6.614 14.743 14.744 14.743h52.307c8.13 0 14.744-6.613 14.744-14.743v-15.062c0-8.13-6.614-14.743-14.744-14.743zm52.05 29.547h-51.795v-14.547h51.795z"/><path d="m420.997 410.579v-25.803c0-11.913-9.692-21.605-21.606-21.605h-1.51v-2.062c0-21.709-12.042-41.266-31.428-51.037l-49.217-24.808c-.411-5.079-2.912-9.852-7.118-13.1l-7.313-5.648c-3.322-2.564-7.222-3.887-11.144-4.009v-21.858c4.367-2.536 8.494-5.532 12.29-8.99 13.203-12.028 21.388-28.447 23.046-46.231l.516-5.529h4.528c13.512 0 24.504-10.993 24.504-24.505v-14.281c1.212-1.154 2.296-2.477 3.21-3.962 0 0 0 0 0-.001l2.784-4.527c2.866-4.66 3.685-10.36 2.246-15.64-1.045-3.833-3.24-7.241-6.209-9.799l-3.186-31.602c-1.664-16.503-8.104-32.002-18.624-44.821-2.629-3.202-7.354-3.666-10.556-1.04-3.202 2.628-3.668 7.354-1.04 10.556 8.64 10.528 13.929 23.257 15.296 36.811l2.178 21.604c-27.225-12.221-56.983-18.643-86.866-18.643s-59.641 6.421-86.866 18.643l2.178-21.604c3.569-35.397 33.087-62.088 68.662-62.088h32.051c10.673 0 20.924 2.386 30.468 7.091 3.717 1.83 8.213.303 10.044-3.411 1.831-3.716.304-8.212-3.411-10.044-11.626-5.731-24.109-8.636-37.101-8.636h-32.051c-43.308 0-79.242 32.493-83.586 75.583l-3.186 31.601c-2.97 2.558-5.164 5.965-6.209 9.799-1.438 5.279-.62 10.979 2.246 15.639l2.784 4.529c1.156 1.879 2.593 3.484 4.21 4.828v13.416c0 13.512 10.992 24.505 24.504 24.505h3.528l.516 5.529c.54 5.782 1.786 11.498 3.705 16.989 1.08 3.091 3.98 5.027 7.08 5.027.82 0 1.655-.136 2.475-.422 3.91-1.366 5.972-5.645 4.605-9.555-1.518-4.343-2.503-8.862-2.93-13.433l-4.431-47.524c19.297-7.524 39.97-11.463 60.715-11.463s41.417 3.939 60.715 11.463l-4.431 47.524c-2.726 29.233-26.923 51.278-56.283 51.278-13.904 0-27.277-5.108-37.658-14.384-3.089-2.761-7.83-2.493-10.59.596s-2.493 7.83.596 10.59c3.941 3.522 8.229 6.559 12.77 9.099v21.294c-3.922.122-7.822 1.444-11.146 4.01l-7.311 5.647c-4.207 3.248-6.708 8.021-7.119 13.1l-49.217 24.808c-19.386 9.771-31.428 29.328-31.428 51.037v2.062h-2.51c-11.914 0-21.606 9.692-21.606 21.605v26.169c-7.586 2.959-12.984 10.327-12.984 18.947v37.378c0 8.62 5.398 15.988 12.984 18.947v18.838c0 4.143 3.357 7.5 7.5 7.5s7.5-3.357 7.5-7.5v-17.669c16.111-1.893 28.653-15.622 28.653-32.233v-13.144c0-16.611-12.543-30.34-28.653-32.233v-25c0-3.643 2.964-6.605 6.606-6.605h108.729v31.683c0 3.445 1.647 6.734 4.406 8.798 2.761 2.063 6.381 2.714 9.686 1.74l21.291-6.275 21.291 6.275c1.011.298 2.052.443 3.088.443 2.352 0 4.682-.751 6.598-2.184 2.759-2.063 4.406-5.353 4.406-8.798v-31.683h27.72c4.143 0 7.5-3.357 7.5-7.5s-3.357-7.5-7.5-7.5h-189.706v-2.062c0-16.012 8.882-30.436 23.18-37.643l45.514-22.941 6.291 22.708c1.165 4.208 4.341 7.524 8.495 8.87 1.314.427 2.665.635 4.007.635 2.896 0 5.745-.974 8.079-2.837l31.037-24.787 31.038 24.788c2.333 1.862 5.182 2.836 8.078 2.836 1.341 0 2.692-.208 4.007-.635 4.154-1.346 7.33-4.662 8.495-8.87l6.291-22.708 45.514 22.941c14.298 7.207 23.18 21.631 23.18 37.643v2.062h-31.537c-4.143 0-7.5 3.357-7.5 7.5s3.357 7.5 7.5 7.5h48.047c3.643 0 6.606 2.963 6.606 6.605v25.128c-15.627 2.332-27.653 15.839-27.653 32.105v13.144c0 16.266 12.026 29.774 27.653 32.105v16.797c0 4.143 3.357 7.5 7.5 7.5s7.5-3.357 7.5-7.5v-17.472c8.11-2.679 13.984-10.318 13.984-19.313v-37.378c0-8.995-5.875-16.634-13.984-19.313zm-238.352-245.681h-2.13c-5.24 0-9.504-4.264-9.504-9.505v-8.94c2.362-.272 4.708-.966 6.921-2.134.882-.465 1.777-.906 2.667-1.355zm-11.712-33.845c-2.236 1.177-5.024.402-6.354-1.759l-2.784-4.529c-.714-1.16-.909-2.523-.551-3.839.204-.749.783-2.131 2.368-2.971 28.277-14.986 60.147-22.907 92.166-22.907s63.889 7.921 92.166 22.907c1.585.84 2.164 2.222 2.368 2.971.358 1.315.163 2.679-.551 3.84l-2.784 4.527c-1.331 2.164-4.122 2.935-6.354 1.761-26.045-13.742-55.384-21.006-84.846-21.006s-58.8 7.264-84.844 21.005zm162.692 13.267c2.525 1.332 5.222 2.058 7.92 2.23v8.843c0 5.241-4.264 9.505-9.504 9.505h-3.13l2.045-21.934c.891.45 1.786.89 2.669 1.356zm-214.413 297.69v13.144c0 9.63-7.834 17.464-17.463 17.464h-3.828c-2.948 0-5.347-2.398-5.347-5.347v-37.378c0-2.948 2.398-5.347 5.347-5.347h3.828c9.629 0 17.463 7.834 17.463 17.464zm157.449-37.525-17.279-5.092c-2.031-.598-4.178-.598-6.209 0l-17.277 5.092v-26.314h40.766v26.314zm-20.883-154.172c7.151 0 14.176-1.079 20.883-3.125v21.552l-20.383 17.007-20.383-17.007v-21.255c6.409 1.857 13.095 2.828 19.883 2.828zm-37.487 65.942-7.907-28.543c-.378-1.366.103-2.81 1.225-3.676l7.31-5.646c.763-.589 1.664-.881 2.563-.881.952 0 1.901.327 2.684.979l20.254 16.9zm75.974 0-26.128-20.866 20.254-16.9c1.522-1.269 3.681-1.309 5.245-.1l7.312 5.647c1.121.866 1.602 2.31 1.224 3.676l-.003.012c-.006.02-.011.04-.017.06zm99.078 138.898v-13.143c0-9.63 7.834-17.464 17.463-17.464h3.828c2.948 0 5.347 2.398 5.347 5.347v37.378c0 2.948-2.398 5.347-5.347 5.347h-3.828c-9.629-.001-17.463-7.835-17.463-17.465z"/><path d="m238.38 451.07h-72.958c-8.144 0-14.77 6.626-14.77 14.77v38.216c0 4.143 3.357 7.5 7.5 7.5s7.5-3.357 7.5-7.5v-37.986h72.497v37.985c0 4.143 3.357 7.5 7.5 7.5s7.5-3.357 7.5-7.5v-38.215c.001-8.144-6.625-14.77-14.769-14.77z"/><path d="m353.408 438.558h-66.571c-7.352 0-13.332 5.98-13.332 13.332v20.503c0 7.352 5.98 13.332 13.332 13.332h66.571c7.352 0 13.332-5.98 13.332-13.332v-20.503c0-7.352-5.981-13.332-13.332-13.332zm-1.668 32.167h-63.235v-17.167h63.235z"/></g></g></svg>