<svg id="Capa_1" enable-background="new 0 0 512.556 512.556" height="512" viewBox="0 0 512.556 512.556" width="512" xmlns="http://www.w3.org/2000/svg"><g><g><g><path d="m340.694 170.031 8.787 40.58c.271 1.252.763 2.447 1.453 3.527l3.643 5.703c10.57 16.547 14.167 36.603 10.006 55.792l-.668 3.08c-.36 1.662-2.313 2.402-3.684 1.396l-11.186-8.205c-3.183 10.731-10.565 19.721-20.472 24.932l-1.507.793-44.028 17.66h-51.517l-46.032-17.66-1.507-.793c-9.906-5.21-17.289-14.201-20.472-24.932l-11.186 8.205c-1.371 1.006-3.324.266-3.684-1.396l-.668-3.08c-4.161-19.189-.565-39.245 10.006-55.792l3.643-5.703c.69-1.08 1.182-2.274 1.453-3.527l8.787-40.58 9.46-65.474h139.129z" fill="#fbe372"/></g><path d="m332.04 172.398c9.391 0 17.004-7.613 17.004-17.004v-16.288-21.224h-59.869v54.516z" fill="#ffd1c2"/><path d="m180.515 172.398c-9.391 0-17.004-7.613-17.004-17.004v-16.288-16.722h52.964v50.014z" fill="#ffd1c2"/><path d="m351.455 111.328-3.528-34.994c-3.941-39.084-36.841-68.834-76.124-68.834h-32.051c-39.283 0-72.183 29.75-76.123 68.834l-3.528 34.994v14.755l95.677-21.604 79.584 19.861 16.093 5.227z" fill="#e1f5f8"/><path d="m284.161 203.41h-54.644l-1.122 92.106h55.766z" fill="#ffd1c2"/><path d="m324.478 131.653-4.949 53.078c-3.069 32.915-30.693 58.083-63.751 58.083-33.058 0-60.682-25.167-63.751-58.083l-4.949-53.078-1.588-20.325s78.756-18.455 80.298-18.07c1.541.385 61.279 14.641 61.279 14.641z" fill="#ffe0d1"/><g><path d="m185.77 114.909 1.308 16.744 1.275 13.673c7.299-3.353 14.846-6.152 22.556-8.383 3.391-.981 7.044.122 9.369 2.778l2.182 2.493c13.179 15.061 31.324 25.064 51.092 28.17.902.143 1.822.214 2.733.214 5.575 0 10.6-2.567 13.838-6.718 9.307 4.452 19.577 6.88 30.672 7.277l2.409-25.831 1.275-13.673 1.824-16.744z" fill="#ffd1c2"/><path d="m209.886 108.292 12.494 14.091 9.862 11.27c11.197 12.795 26.532 21.25 43.328 23.889 2.372.373 4.628-1.154 5.163-3.495l1.543-6.753c.349-1.529 2.152-2.177 3.407-1.237 10.336 7.739 22.442 11.788 36.318 12.147l7.266-42.597-8.818-7.315z" fill="#fbe372"/><g><path d="m353.366 133.221c-3.399 5.527-10.503 7.493-16.242 4.465-25.029-13.205-52.922-20.138-81.345-20.138s-56.316 6.933-81.345 20.138c-5.739 3.028-12.843 1.063-16.242-4.465l-2.785-4.528c-3.726-6.059-1.59-14.034 4.695-17.365 29.421-15.593 62.236-23.78 95.677-23.78s66.256 8.188 95.677 23.78c6.285 3.331 8.421 11.305 4.695 17.365z" fill="#b3e5ee"/></g><path d="m281.931 64.442h-52.307c-4.001 0-7.244-3.243-7.244-7.244v-15.061c0-4.001 3.243-7.244 7.244-7.244h52.307c4.001 0 7.244 3.243 7.244 7.244v15.061c0 4.001-3.243 7.244-7.244 7.244z" fill="#b3e5ee"/><g><path d="m390.381 361.109c0-18.749-10.561-35.9-27.304-44.339l-53.677-27.056-15.783-6.956-37.339 12.759-36.734-12.759-16.388 6.956-53.677 27.056c-16.743 8.439-27.304 25.59-27.304 44.339v62.579h268.206z" fill="#e1f5f8"/></g><path d="m309.4 289.714-15.784-6.957-37.338 12.758-36.734-12.758-8.302 3.524-8.086 3.433-11.837 5.966-41.839 21.089c-16.743 8.439-27.305 25.59-27.305 44.34v62.579h26.76v-47.709c0-18.75 10.561-35.9 27.304-44.339l18.148-9.148c1.979-.998 4.376.064 4.968 2.2 2.218 8.005 9.504 13.547 17.81 13.547h.001c4.156 0 8.242-1.434 11.505-4.039l20.518-16.386c4.145-3.311 10.03-3.311 14.176 0l20.519 16.387c3.262 2.604 7.348 4.038 11.504 4.038 8.278 0 15.602-5.566 17.809-13.536l8.04-29.022z" fill="#b3e5ee"/><path d="m256.278 295.516-27.309-22.786c-4.21-3.512-10.295-3.627-14.634-.276l-7.312 5.647c-3.529 2.726-5.058 7.316-3.867 11.613l8.731 31.518c1.046 3.776 5.611 5.255 8.673 2.81z" fill="#e1f5f8"/><path d="m256.278 295.516 27.309-22.786c4.21-3.512 10.295-3.627 14.634-.276l7.312 5.647c3.529 2.726 5.058 7.316 3.867 11.613l-8.731 31.518c-1.046 3.776-5.611 5.255-8.673 2.81z" fill="#e1f5f8"/><path d="m413.497 491.034v-106.257c0-7.791-6.316-14.106-14.106-14.106h-115.23l-7.421 7.564h-43.625l-4.719-7.564h-116.23c-7.791 0-14.106 6.316-14.106 14.106v106.257z" fill="#dfae91"/><path d="m284.161 370.67v39.183c0 2.328-2.238 4.002-4.471 3.344l-22.426-6.609c-.643-.19-1.328-.19-1.971 0l-22.426 6.609c-2.233.658-4.471-1.016-4.471-3.344v-39.183z" fill="#fbe372"/><path d="m353.408 478.225h-66.571c-3.221 0-5.832-2.611-5.832-5.832v-20.503c0-3.221 2.611-5.832 5.832-5.832h66.571c3.221 0 5.832 2.611 5.832 5.832v20.503c0 3.221-2.612 5.832-5.832 5.832z" fill="#f8f7f8"/></g><path d="m414.635 480.117h-3.828c-13.787 0-24.964-11.177-24.964-24.964v-13.143c0-13.787 11.177-24.964 24.964-24.964h3.828c7.095 0 12.846 5.752 12.846 12.846v37.378c0 7.095-5.751 12.847-12.846 12.847z" fill="#ffe0d1"/><path d="m147.323 485.011c-6.306.02-11.429-5.087-11.429-11.394v-102.935h-23.732c-7.791 0-14.106 6.316-14.106 14.106v108.85c0 6.307 5.123 11.414 11.429 11.394l48.665-.438 6.158-8.388h76.538l4.465 8.209.276.08.057.105 156.492-.496c6.278-.02 11.357-5.115 11.357-11.394v-8.543z" fill="#d79c7a"/><path d="m245.65 494.635v-28.641c0-4.1-3.254-7.423-7.269-7.423h-72.959c-4.015 0-7.269 3.323-7.269 7.423v28.641z" fill="#f8f7f8"/><path d="m158.149 484.971v19.623h87.497v-19.894z" fill="#efedee"/><path d="m97.921 480.117h3.828c13.787 0 24.964-11.177 24.964-24.964v-13.143c0-13.787-11.177-24.964-24.964-24.964h-3.828c-7.095 0-12.846 5.752-12.846 12.846v37.378c0 7.095 5.751 12.847 12.846 12.847z" fill="#ffe0d1"/></g><g><path d="m229.625 27.394c-8.13 0-14.744 6.613-14.744 14.743v15.062c0 8.13 6.614 14.743 14.744 14.743h52.307c8.13 0 14.744-6.613 14.744-14.743v-15.062c0-8.13-6.614-14.743-14.744-14.743zm52.05 29.547h-51.795v-14.547h51.795z"/><path d="m420.997 410.579v-25.803c0-11.913-9.692-21.605-21.606-21.605h-1.51v-2.062c0-21.709-12.042-41.266-31.428-51.037l-25.351-12.778c4.504-3.87 8.305-8.521 11.159-13.73l3.533 2.591c2.702 1.982 6.187 2.455 9.315 1.27 3.132-1.188 5.426-3.85 6.135-7.122l.669-3.079c4.611-21.269.699-43.081-11.016-61.42l-3.642-5.7c-.213-.333-.362-.695-.445-1.078l-7.792-35.986c4.634-4.461 7.526-10.72 7.526-17.645v-14.281c1.212-1.154 2.296-2.477 3.21-3.962 0 0 0 0 0-.001l2.784-4.527c2.866-4.66 3.685-10.36 2.246-15.64-1.045-3.833-3.24-7.241-6.209-9.799l-3.187-31.601c-1.616-16.035-7.77-31.18-17.794-43.794-2.579-3.243-7.297-3.782-10.538-1.206-3.243 2.577-3.783 7.296-1.206 10.538 8.233 10.36 13.287 22.797 14.614 35.967l2.179 21.603c-27.225-12.221-56.983-18.643-86.865-18.643s-59.64 6.421-86.865 18.643l2.179-21.604c3.567-35.397 33.085-62.088 68.66-62.088h32.051c10.983 0 21.938 2.665 31.677 7.708 3.676 1.903 8.203.468 10.108-3.212 1.904-3.678.467-8.204-3.212-10.108-11.861-6.142-25.199-9.388-38.573-9.388h-32.051c-43.309 0-79.242 32.493-83.585 75.582l-3.187 31.602c-2.97 2.558-5.164 5.965-6.209 9.799-1.438 5.279-.62 10.979 2.246 15.639l2.784 4.529c1.156 1.879 2.593 3.484 4.21 4.828v13.416c0 6.925 2.892 13.184 7.526 17.645l-7.792 35.985c-.083.384-.232.746-.443 1.076l-3.644 5.704c-11.715 18.338-15.627 40.15-11.015 61.419l.667 3.078c.71 3.273 3.004 5.936 6.136 7.123 3.129 1.185 6.613.712 9.314-1.269l3.534-2.592c2.853 5.206 6.638 9.872 11.139 13.741l-25.331 12.768c-19.386 9.771-31.428 29.328-31.428 51.037v2.062h-2.51c-11.914 0-21.606 9.692-21.606 21.605v26.169c-7.586 2.959-12.984 10.327-12.984 18.947v37.378c0 8.62 5.398 15.988 12.984 18.947v18.838c0 4.143 3.357 7.5 7.5 7.5s7.5-3.357 7.5-7.5v-17.669c16.111-1.893 28.653-15.622 28.653-32.233v-13.144c0-16.611-12.543-30.34-28.653-32.233v-25c0-3.643 2.964-6.605 6.606-6.605h37.74c4.143 0 7.5-3.357 7.5-7.5s-3.357-7.5-7.5-7.5h-20.23v-2.062c0-16.012 8.882-30.436 23.18-37.643l45.514-22.941 6.291 22.708c1.165 4.208 4.341 7.524 8.495 8.87 1.314.427 2.665.635 4.007.635 2.896 0 5.745-.974 8.079-2.837l31.037-24.787 31.038 24.788c2.333 1.862 5.182 2.836 8.078 2.836 1.341 0 2.692-.208 4.007-.635 4.154-1.346 7.33-4.662 8.495-8.87l6.291-22.708 45.514 22.941c14.298 7.207 23.18 21.631 23.18 37.643v2.062h-98.7c-.007 0-.013-.001-.019-.001s-.013.001-.019.001h-55.727c-.007 0-.013-.001-.019-.001s-.013.001-.019.001h-46.508c-4.143 0-7.5 3.357-7.5 7.5s3.357 7.5 7.5 7.5h39.027v31.683c0 3.445 1.647 6.734 4.406 8.798 2.761 2.063 6.382 2.714 9.686 1.74l21.291-6.275 21.291 6.275c1.011.298 2.052.443 3.088.443 2.352 0 4.682-.751 6.598-2.184 2.759-2.063 4.406-5.353 4.406-8.798v-31.683h107.728c3.643 0 6.606 2.963 6.606 6.605v25.128c-15.627 2.332-27.653 15.839-27.653 32.105v13.144c0 16.266 12.026 29.774 27.653 32.105v16.797c0 4.143 3.357 7.5 7.5 7.5s7.5-3.357 7.5-7.5v-17.472c8.11-2.679 13.984-10.318 13.984-19.313v-37.378c.001-8.995-5.874-16.634-13.983-19.313zm-301.785 31.431v13.144c0 9.63-7.834 17.464-17.463 17.464h-3.828c-2.948 0-5.347-2.398-5.347-5.347v-37.378c0-2.948 2.398-5.347 5.347-5.347h3.828c9.629 0 17.463 7.834 17.463 17.464zm196.007-291.849c-9.42-1.252-17.663-4.584-25.04-10.108-2.634-1.97-6.045-2.47-9.131-1.341-3.078 1.13-5.352 3.714-6.083 6.912l-.921 4.028c-13.981-2.807-26.739-10.175-36.158-20.938l-2.141-2.446c6.641-.808 13.333-1.22 20.033-1.22 20.745 0 41.417 3.939 60.715 11.463zm15.737-7.197c.891.45 1.786.89 2.668 1.356 2.525 1.332 5.222 2.058 7.92 2.23v8.843c0 5.241-4.264 9.505-9.504 9.505h-3.13zm16.988-25.009c1.585.84 2.164 2.222 2.368 2.971.358 1.315.163 2.679-.551 3.84l-2.784 4.527c-1.331 2.164-4.123 2.935-6.354 1.761-4.12-2.174-8.331-4.167-12.603-6.013-.327-.176-.674-.32-1.03-.446-22.45-9.539-46.786-14.547-71.213-14.547-29.462 0-58.801 7.264-84.845 21.005-2.235 1.177-5.024.402-6.354-1.759l-2.784-4.529c-.714-1.16-.909-2.523-.551-3.839.204-.749.783-2.131 2.368-2.971 28.277-14.986 60.147-22.907 92.166-22.907s63.89 7.921 92.167 22.907zm-165.299 46.943h-2.13c-5.24 0-9.504-4.264-9.504-9.505v-8.94c2.362-.272 4.708-.966 6.921-2.134.882-.465 1.777-.906 2.667-1.355zm19.794 107.267c-4.207 3.248-6.708 8.021-7.119 13.1l-8.765 4.418c-7.609-4.314-13.361-11.512-15.853-19.913-.694-2.34-2.483-4.196-4.797-4.975-2.314-.781-4.861-.384-6.829 1.06l-4.634 3.399c-2.266-15.827 1.167-31.772 9.857-45.376l3.646-5.706c1.172-1.836 2-3.846 2.461-5.975l7.037-32.5c1.007.127 2.031.2 3.073.2h3.528l.516 5.53c.502 5.372 1.619 10.705 3.322 15.852 1.042 3.15 3.973 5.146 7.119 5.146.78 0 1.575-.123 2.356-.382 3.933-1.301 6.066-5.543 4.765-9.476-1.347-4.072-2.23-8.29-2.627-12.534l-1.155-12.388c-.001-.009-.002-.018-.003-.027l-3.274-35.109c7.616-2.97 15.445-5.375 23.411-7.203l8.124 9.284c12.331 14.091 29.31 23.452 47.811 26.359 5.976.947 11.738-2.753 13.441-8.488 7.861 4.552 16.556 7.434 25.977 8.628l-1.766 18.943c-2.726 29.233-26.923 51.278-56.283 51.278-14.187 0-27.758-5.285-38.215-14.881-3.053-2.801-7.797-2.597-10.598.455-2.8 3.053-2.597 7.797.455 10.598 4.138 3.797 8.662 7.061 13.475 9.753v21.27c-3.921.122-7.822 1.444-11.146 4.01zm74.222-3.424-20.383 17.007-20.383-17.007v-21.24c6.402 1.85 13.086 2.812 19.883 2.812 7.151 0 14.176-1.079 20.883-3.125zm-58.37 47.514-7.907-28.543c-.378-1.366.103-2.81 1.225-3.676l7.31-5.646c.763-.589 1.664-.881 2.563-.881.952 0 1.901.327 2.684.979l20.254 16.9zm83.881-28.543-7.907 28.543-26.128-20.866 20.254-16.9c1.522-1.269 3.681-1.309 5.245-.1l7.312 5.647c1.122.866 1.602 2.31 1.224 3.676zm.632-21.195c-3.322-2.564-7.222-3.887-11.144-4.009v-21.858c4.367-2.536 8.494-5.532 12.29-8.99 13.203-12.028 21.388-28.447 23.046-46.231l.516-5.529h4.528c1.041 0 2.065-.073 3.073-.2l7.037 32.5c.461 2.128 1.289 4.138 2.463 5.977l3.644 5.702c8.69 13.604 12.123 29.551 9.857 45.377l-4.634-3.399c-1.968-1.443-4.516-1.842-6.829-1.06-2.313.778-4.103 2.635-4.797 4.975-2.492 8.401-8.245 15.599-15.853 19.913l-8.765-4.418c-.411-5.079-2.912-9.852-7.118-13.1zm-26.143 137.968-17.279-5.092c-2.031-.598-4.178-.598-6.209 0l-17.277 5.092v-26.314h40.766v26.314zm116.682 50.668v-13.143c0-9.63 7.834-17.464 17.463-17.464h3.828c2.948 0 5.347 2.398 5.347 5.347v37.378c0 2.948-2.398 5.347-5.347 5.347h-3.828c-9.629-.001-17.463-7.835-17.463-17.465z"/><path d="m238.38 451.07h-72.958c-8.144 0-14.77 6.626-14.77 14.77v38.216c0 4.143 3.357 7.5 7.5 7.5s7.5-3.357 7.5-7.5v-37.986h72.497v37.985c0 4.143 3.357 7.5 7.5 7.5s7.5-3.357 7.5-7.5v-38.215c.001-8.144-6.625-14.77-14.769-14.77z"/><path d="m353.408 438.558h-66.571c-7.352 0-13.332 5.98-13.332 13.332v20.503c0 7.352 5.98 13.332 13.332 13.332h66.571c7.352 0 13.332-5.98 13.332-13.332v-20.503c0-7.352-5.981-13.332-13.332-13.332zm-1.668 32.167h-63.235v-17.167h63.235z"/></g></g></svg>