<svg id="Capa_1" enable-background="new 0 0 508.919 508.919" height="512" viewBox="0 0 508.919 508.919" width="512" xmlns="http://www.w3.org/2000/svg"><g><g><g><path d="m335.072 486.508-16.572 13.775c-1.823 1.515-4.468 1.515-6.291 0l-15.202-12.635c-1.823-1.515-4.468-1.515-6.291 0l-15.202 12.635c-1.823 1.515-4.468 1.515-6.291 0l-15.202-12.635c-1.823-1.515-4.468-1.515-6.291 0l-15.202 12.635c-1.823 1.515-4.468 1.515-6.291 0l-15.202-12.635c-1.823-1.515-4.468-1.515-6.291 0l-15.202 12.635c-1.823 1.515-4.468 1.515-6.291 0l-15.202-12.635c-1.823-1.515-4.468-1.515-6.291 0l-15.202 12.635c-1.823 1.515-4.468 1.515-6.291 0l-15.202-12.635c-1.823-1.515-4.468-1.515-6.291 0l-15.202 12.635c-1.823 1.515-4.468 1.515-6.291 0l-16.572-13.774c-1.125-.935-1.775-2.322-1.775-3.784v-456.531c0-1.463.651-2.849 1.775-3.784l16.574-13.775c1.823-1.515 4.468-1.515 6.291 0l15.202 12.635c1.823 1.515 4.468 1.515 6.291 0l15.202-12.635c1.823-1.515 4.468-1.515 6.291 0l15.202 12.635c1.823 1.515 4.468 1.515 6.291 0l15.202-12.635c1.823-1.515 4.468-1.515 6.291 0l15.202 12.635c1.823 1.515 4.468 1.515 6.291 0l15.202-12.635c1.823-1.515 4.468-1.515 6.291 0l15.202 12.635c1.823 1.515 4.468 1.515 6.291 0l15.202-12.635c1.823-1.515 4.468-1.515 6.291 0l15.202 12.635c1.823 1.515 4.468 1.515 6.291 0l15.201-12.635c1.823-1.515 4.468-1.515 6.291 0l16.572 13.774c1.125.935 1.775 2.322 1.775 3.784v456.53c0 1.464-.651 2.851-1.776 3.785z" fill="#f8f7f8"/><path d="m217.638 300.801c-16.429 0-29.747 13.318-29.747 29.747v124.209c0 6.097-4.943 11.04-11.04 11.04h-53.842c-7.539 0-13.651-6.112-13.651-13.651v-438.701l-5.787-4.81c-1.823-1.515-4.468-1.515-6.291 0l-16.571 13.775c-1.125.935-1.775 2.322-1.775 3.784v456.53c0 1.462.651 2.849 1.775 3.784l16.572 13.775c1.823 1.515 4.468 1.515 6.291 0l15.202-12.636c1.823-1.515 4.468-1.515 6.291 0l15.202 12.636c1.823 1.515 4.468 1.515 6.291 0l15.202-12.636c1.823-1.515 4.468-1.515 6.291 0l15.202 12.636c1.565 1.301 3.733 1.477 5.47.544.011-.006.022-.01.033-.015.274-.15.54-.323.788-.529l15.202-12.636c1.823-1.515 4.468-1.515 6.291 0l15.202 12.636c1.823 1.515 4.468 1.515 6.291 0l15.202-12.636c1.823-1.515 4.468-1.515 6.291 0l15.202 12.636c1.823 1.515 4.468 1.515 6.291 0l15.202-12.636c1.823-1.515 4.468-1.515 6.291 0l15.202 12.636c1.823 1.515 4.468 1.515 6.291 0l16.572-13.774c1.125-.935 1.775-2.322 1.775-3.784v-181.924z" fill="#efedee"/><path d="m420.239 320.8h-79.943l-4.139 4.309h-36.766l-1.81-4.309h-79.943c-5.383 0-9.747 4.364-9.747 9.747v158.771h222.095v-158.771c0-5.383-4.364-9.747-9.747-9.747z" fill="#dfae91"/><path d="m340.296 320.8h-42.715v51.088c0 3.619 3.852 5.936 7.049 4.241l12.059-6.396c1.407-.746 3.092-.746 4.499 0l12.059 6.396c3.197 1.696 7.049-.622 7.049-4.241z" fill="#fbe372"/><path d="m246.973 477.217c-5.383 0-9.747-4.364-9.747-9.747v-146.67h-19.588c-5.383 0-9.747 4.364-9.747 9.747v161.125c0 5.383 4.364 9.747 9.747 9.747h33.995l7.159-7.195h118.09l9.362 7.195h33.995c5.383 0 9.747-4.364 9.747-9.747v-14.455z" fill="#d79c7a"/><path d="m386.244 501.419h-134.611v-76.809c0-5.199 4.215-9.414 9.414-9.414h115.783c5.199 0 9.414 4.215 9.414 9.414z" fill="#f8f7f8"/><path d="m289.278 125.043h-162.775c-4.585 0-8.302-3.717-8.302-8.302v-44.004c0-4.585 3.717-8.302 8.302-8.302h162.776c4.585 0 8.302 3.717 8.302 8.302v44.005c0 4.584-3.717 8.301-8.303 8.301z" fill="#e1dee2"/></g><path d="m251.633 477.217h134.611v24.202h-134.611z" fill="#efedee"/></g><g><path d="m182.929 490.262-10.086-8.384c-4.6-3.822-11.276-3.821-15.878.001l-13.553 11.266-13.555-11.267c-4.6-3.822-11.276-3.821-15.878.001l-13.553 11.266-13.993-11.631v-454.109l13.993-11.632 13.555 11.267c4.6 3.822 11.276 3.821 15.878-.001l13.553-11.266 13.555 11.267c4.6 3.822 11.276 3.821 15.878-.001l13.553-11.266 13.555 11.267c4.6 3.822 11.276 3.821 15.878-.001l13.553-11.266 13.555 11.267c4.6 3.822 11.277 3.821 15.877-.001l13.553-11.267 13.555 11.268c4.6 3.822 11.276 3.821 15.877-.001l13.553-11.267 13.993 11.632v48.428c0 4.143 3.358 7.5 7.5 7.5s7.5-3.357 7.5-7.5v-49.639c0-3.706-1.635-7.188-4.481-9.551l-16.573-13.776c-4.6-3.822-11.276-3.821-15.878.001l-13.553 11.266-13.555-11.267c-4.6-3.822-11.276-3.821-15.878.001l-13.553 11.266-13.555-11.267c-4.6-3.822-11.277-3.821-15.877.001l-13.553 11.267-13.556-11.268c-4.6-3.822-11.277-3.821-15.877.001l-13.553 11.267-13.554-11.268c-4.6-3.822-11.276-3.821-15.878.001l-13.553 11.267-13.555-11.268c-4.6-3.822-11.276-3.821-15.878.001l-16.568 13.772c-2.851 2.366-4.486 5.849-4.486 9.555v456.531c0 3.706 1.635 7.188 4.481 9.551l16.574 13.776c4.6 3.822 11.277 3.821 15.877-.001l13.553-11.267 13.555 11.268c2.3 1.911 5.118 2.866 7.938 2.866s5.64-.956 7.94-2.867l13.553-11.267 8.435 7.013c3.185 2.648 7.914 2.212 10.562-.973 2.649-3.185 2.213-7.914-.972-10.562z"/><path d="m336.848 100.295c-4.142 0-7.5 3.357-7.5 7.5v183.005c0 4.143 3.358 7.5 7.5 7.5s7.5-3.357 7.5-7.5v-183.005c0-4.143-3.358-7.5-7.5-7.5z"/><path d="m429.986 365.549c4.142 0 7.5-3.357 7.5-7.5v-27.502c0-9.51-7.737-17.246-17.247-17.246h-202.601c-9.51 0-17.247 7.736-17.247 17.246v161.125c0 9.51 7.737 17.247 17.247 17.247h202.602c9.51 0 17.247-7.737 17.247-17.247v-101.661c0-4.143-3.358-7.5-7.5-7.5s-7.5 3.357-7.5 7.5v101.661c0 1.239-1.008 2.247-2.247 2.247h-26.496v-69.309c0-9.326-7.587-16.913-16.914-16.913h-115.784c-9.326 0-16.914 7.587-16.914 16.913v69.309h-26.495c-1.239 0-2.247-1.008-2.247-2.247v-161.125c0-1.238 1.008-2.246 2.247-2.246h72.443v43.588c0 4.355 2.228 8.296 5.96 10.541 1.963 1.181 4.146 1.773 6.334 1.773 1.971 0 3.946-.481 5.77-1.448l10.793-5.726 10.793 5.725c3.847 2.042 8.371 1.921 12.104-.324 3.732-2.245 5.96-6.186 5.96-10.541v-43.588h72.443c1.239 0 2.247 1.008 2.247 2.246v27.502c.002 4.142 3.36 7.5 7.502 7.5zm-170.853 59.061c0-1.055.858-1.913 1.914-1.913h115.783c1.055 0 1.914.858 1.914 1.913v69.309h-119.611zm73.663-57.21-8.094-4.294c-3.609-1.914-7.918-1.914-11.527 0l-8.094 4.294v-39.1h27.715z"/><path d="m118.201 179.534h10.854c4.142 0 7.5-3.357 7.5-7.5s-3.358-7.5-7.5-7.5h-10.854c-4.142 0-7.5 3.357-7.5 7.5s3.358 7.5 7.5 7.5z"/><path d="m297.581 164.534h-137.143c-4.142 0-7.5 3.357-7.5 7.5s3.358 7.5 7.5 7.5h137.143c4.142 0 7.5-3.357 7.5-7.5s-3.358-7.5-7.5-7.5z"/><path d="m297.581 201.839h-179.38c-4.142 0-7.5 3.357-7.5 7.5s3.358 7.5 7.5 7.5h179.38c4.142 0 7.5-3.357 7.5-7.5s-3.358-7.5-7.5-7.5z"/><path d="m297.581 239.144h-179.38c-4.142 0-7.5 3.357-7.5 7.5s3.358 7.5 7.5 7.5h179.38c4.142 0 7.5-3.357 7.5-7.5s-3.358-7.5-7.5-7.5z"/><path d="m297.581 276.448h-179.38c-4.142 0-7.5 3.357-7.5 7.5s3.358 7.5 7.5 7.5h179.38c4.142 0 7.5-3.357 7.5-7.5s-3.358-7.5-7.5-7.5z"/><path d="m305.081 72.736c0-8.714-7.089-15.803-15.802-15.803h-112.86c-4.142 0-7.5 3.357-7.5 7.5s3.358 7.5 7.5 7.5h112.859c.442 0 .802.36.802.803v44.005c0 .442-.36.802-.802.802h-162.775c-.443 0-.803-.359-.803-.802v-44.005c0-.442.36-.803.803-.803h17.954c4.142 0 7.5-3.357 7.5-7.5s-3.358-7.5-7.5-7.5h-17.954c-8.714 0-15.803 7.089-15.803 15.803v44.005c0 8.713 7.089 15.802 15.803 15.802h162.775c8.713 0 15.802-7.089 15.802-15.802v-44.005z"/></g></g></svg>