<svg id="Capa_1" enable-background="new 0 0 508.49 508.49" height="512" viewBox="0 0 508.49 508.49" width="512" xmlns="http://www.w3.org/2000/svg"><g><g><path d="m488.849 190.548-213.695-173.343c-12.186-9.889-29.632-9.889-41.818 0l-213.696 173.343c-5.338 4.328-8.435 10.832-8.435 17.702l70.56 167.748 138.8 74.398 208.055-74.398 68.663-166.838v-.91c.001-6.871-3.095-13.374-8.434-17.702z" fill="#f9de58"/><g><g id="XMLID_323_"><g><path d="m439.225 221.236v194.49h-369.96v-293.62c0-4.82 3.91-8.72 8.72-8.72h352.52c4.81 0 8.72 3.9 8.72 8.72v39.24c0 2.58-2.1 4.67-4.68 4.67h-1.86c-6.98 0-13.3 2.83-17.88 7.41-4.57 4.57-7.4 10.89-7.4 17.87 0 13.95 11.32 25.27 25.28 25.27h1.86c2.58 0 4.68 2.09 4.68 4.67z" fill="#f8f7f8"/></g></g></g><path d="m430.505 113.385h-112.776v302.34h121.496v-194.49c0-2.58-2.1-4.67-4.68-4.67h-1.86c-13.96 0-25.28-11.32-25.28-25.27 0-6.98 2.83-13.3 7.4-17.87 4.58-4.58 10.9-7.41 17.88-7.41h1.86c2.58 0 4.68-2.09 4.68-4.67v-39.24c0-4.82-3.91-8.72-8.72-8.72z" fill="#efedee"/><path d="m335.105 297.868c-10.006 6.977-23.394 6.604-32.995-.92l-2.554-2.002c-12.732-9.98-28.653-15.477-44.831-15.477-16.121 0-32 5.463-44.712 15.381l-2.644 2.063c-9.604 7.493-22.971 7.848-32.959.875l-41.531-28.992c-10.849-7.574-17.314-19.97-17.314-33.202v-122.209h-37.58c-4.81 0-8.72 3.9-8.72 8.72v102.283 191.337h369.96v-25.984-164.478z" fill="#efedee"/><path d="m317.729 302.797v112.929h121.496v-190.463l-104.12 72.605c-5.212 3.635-11.341 5.256-17.376 4.929z" fill="#e4e1e5"/><path d="m191.873 334.369-180.667-126.12v267.067l50.7 11.105 179.392-119.769z" fill="#fbe88c"/><path d="m61.756 441.681v-198.144l-50.55-35.288v267.067l50.7 11.105 25.229-16.843c-14.236-1.329-25.379-13.304-25.379-27.897z" fill="#fbe372"/><path d="m317.726 334.369-.111.144-81.922 51.341 221.467 109.448 40.124-19.986v-266.157z" fill="#fbe88c"/><path d="m497.284 475.316c0 15.482-12.541 28.023-28.012 28.023h-430.055c-15.471 0-28.012-12.541-28.012-28.023l211.11-164.697c19.089-14.894 45.858-14.86 64.902.067z" fill="#fcf0b6"/><path d="m89.768 469.704c-15.471 0-28.012-12.541-28.012-28.023v-5.802l-50.55 39.437c0 15.482 12.541 28.023 28.012 28.023h430.055c15.471 0 28.012-12.541 28.012-28.023l-7.16-5.611h-400.357z" fill="#fbe88c"/></g><g><path d="m493.572 182.377-46.851-38.003v-22.269c0-8.944-7.276-16.221-16.221-16.221h-31.229l-66.185-53.688c-3.216-2.61-7.94-2.12-10.55 1.099-2.61 3.217-2.118 7.939 1.099 10.55l51.827 42.039h-242.435l105.033-85.198c9.378-7.606 22.991-7.605 32.369-.001l28.127 22.816c3.216 2.61 7.939 2.116 10.549-1.1 2.609-3.217 2.117-7.939-1.1-10.549l-28.126-22.817c-14.854-12.047-36.414-12.048-51.268.001l-119.394 96.848h-31.229c-8.944 0-16.221 7.276-16.221 16.221v22.269l-46.851 38.003c-7.069 5.734-11.142 14.225-11.205 23.318-.001.048-.004.096-.004.145 0 .022-.002.045-.002.067v267.066c0 19.583 15.932 35.516 35.516 35.516h430.047c19.583 0 35.516-15.933 35.516-35.516v-267.066c0-9.173-4.087-17.751-11.212-23.53zm-4.087 20.603-42.763 29.852v-11.593c0-6.712-5.461-12.173-12.173-12.173h-1.867c-9.801 0-17.774-7.974-17.774-17.774s7.974-17.774 17.774-17.774h1.867c5.969 0 10.937-4.321 11.968-9.997l37.607 30.505c2.824 2.292 4.684 5.459 5.361 8.954zm-411.497-82.096h232.241v8.643c0 4.143 3.358 7.5 7.5 7.5s7.5-3.357 7.5-7.5v-8.643h105.272c.673 0 1.221.548 1.221 1.221v25.899.002 10.524c-17.63.51-31.815 15.01-31.815 32.761s14.185 32.251 31.815 32.761v19.251l-106.493 74.341v-1.169c0-4.143-3.358-7.5-7.5-7.5s-7.5 3.357-7.5 7.5v.368l-18.38-14.405c-21.808-17.089-52.295-17.124-74.141-.082l-26.085 20.351-114.855-80.178v-94.522s0-.001 0-.002v-25.899c0-.674.547-1.222 1.22-1.222zm-53.622 73.142 37.401-30.339v68.371l-42.625-29.755c.779-3.227 2.583-6.134 5.224-8.277zm444.902 299.464h-430.047c-10.145 0-18.571-7.409-20.207-17.096l57.989-45.241c3.266-2.548 3.848-7.261 1.3-10.526s-7.261-3.849-10.526-1.3l-49.071 38.284v-237.322l160.542 112.071-86.266 67.302c-3.266 2.548-3.848 7.261-1.3 10.526 1.479 1.896 3.687 2.887 5.918 2.887 1.613 0 3.238-.518 4.608-1.587l124.726-97.307c16.4-12.794 39.289-12.769 55.662.062l80.425 63.032c3.26 2.554 7.975 1.982 10.529-1.276 2.555-3.261 1.984-7.975-1.276-10.53l-42.093-32.99 159.603-111.416v236.503l-92.169-72.236c-3.259-2.554-7.975-1.983-10.529 1.277-2.555 3.26-1.984 7.974 1.276 10.529l101.114 79.247c-1.632 9.692-10.059 17.107-20.208 17.107z"/><path d="m317.729 187.799c4.142 0 7.5-3.357 7.5-7.5v-16.142c0-4.143-3.358-7.5-7.5-7.5s-7.5 3.357-7.5 7.5v16.142c0 4.143 3.358 7.5 7.5 7.5z"/><path d="m317.729 238.572c4.142 0 7.5-3.357 7.5-7.5v-16.142c0-4.143-3.358-7.5-7.5-7.5s-7.5 3.357-7.5 7.5v16.142c0 4.142 3.358 7.5 7.5 7.5z"/><path d="m317.729 289.344c4.142 0 7.5-3.357 7.5-7.5v-16.142c0-4.143-3.358-7.5-7.5-7.5s-7.5 3.357-7.5 7.5v16.142c0 4.143 3.358 7.5 7.5 7.5z"/><path d="m180.873 257.404c.948.397 1.932.586 2.899.586 2.931 0 5.714-1.729 6.919-4.6l37.457-89.25c1.603-3.819-.194-8.215-4.013-9.818-3.821-1.601-8.214.195-9.818 4.014l-37.457 89.25c-1.603 3.819.194 8.214 4.013 9.818z"/><path d="m159.958 203.041c13.261 0 24.05-11.991 24.05-26.731s-10.789-26.732-24.05-26.732-24.05 11.992-24.05 26.732 10.789 26.731 24.05 26.731zm0-38.464c4.906 0 9.05 5.373 9.05 11.732s-4.145 11.731-9.05 11.731-9.05-5.372-9.05-11.731 4.144-11.732 9.05-11.732z"/><path d="m219.789 237.331c0 14.74 10.789 26.732 24.05 26.732s24.05-11.992 24.05-26.732-10.789-26.731-24.05-26.731-24.05 11.991-24.05 26.731zm24.05-11.731c4.906 0 9.05 5.372 9.05 11.731s-4.145 11.732-9.05 11.732-9.05-5.373-9.05-11.732 4.144-11.731 9.05-11.731z"/></g></g></svg>