<svg id="Capa_1" enable-background="new 0 0 511.271 511.271" height="512" viewBox="0 0 511.271 511.271" width="512" xmlns="http://www.w3.org/2000/svg"><g><g><path d="m418.824 168.486h-229.737l-13.13 13.229h-105.662l-9.765-13.229h-38.7c-7.835 0-14.187 6.352-14.187 14.187v302.487h440.036v-287.818c0-15.937-12.919-28.856-28.855-28.856z" fill="#dfae91"/><path d="m84.76 466.549c-17.075 0-30.917-13.842-30.917-30.917v-267.146h-32.013c-7.835 0-14.187 6.352-14.187 14.187v306.911c0 7.835 6.352 14.187 14.187 14.187h156.709l8.907-10.396h79.357l9.98 10.396h156.709c7.835 0 14.187-6.352 14.187-14.187v-23.036h-362.919z" fill="#d79c7a"/><g><path d="m276.783 503.771h-98.244v-93.669c0-4.767 4.801-8.038 9.237-6.293l37.41 14.712c1.591.626 3.359.626 4.95 0l37.41-14.712c4.437-1.745 9.237 1.526 9.237 6.293z" fill="#fbe372"/><path d="m418.824 168.486h-182.244c15.819 63.334 73.193 110.395 141.358 110.395 25.249 0 49.015-6.46 69.741-17.808v-63.731c0-15.937-12.919-28.856-28.855-28.856z" fill="#d79c7a"/><circle cx="377.938" cy="133.191" fill="#e5827f" r="125.691"/><path d="m302.85 125.458c0-53.953 33.998-99.96 81.736-117.784-2.202-.114-4.418-.175-6.649-.175-69.417 0-125.691 56.274-125.691 125.691s56.274 125.69 125.691 125.69c15.464 0 30.272-2.799 43.955-7.907-66.326-3.456-119.042-58.328-119.042-125.515z" fill="#de6a66"/><ellipse cx="377.938" cy="133.191" fill="#f8f7f8" rx="93.691" ry="93.691" transform="matrix(.707 -.707 .707 .707 16.515 306.253)"/><path d="m348.045 221.991c-27.62-23.056-45.195-57.741-45.195-96.533 0-25.049 7.324-48.38 19.954-67.979-23.361 17.054-38.558 44.637-38.558 75.71.001 41.215 26.75 76.297 63.799 88.802z" fill="#efedee"/><g fill="#f8f7f8"><path d="m189.087 168.487v165.832c0 5.057-4.099 9.156-9.156 9.156h-110.245c-5.057 0-9.156-4.099-9.156-9.156v-165.832z"/><path d="m411.11 382.354h-105.453c-2.348 0-4.251-1.903-4.251-4.251v-62.28c0-2.348 1.903-4.251 4.251-4.251h105.453c2.348 0 4.251 1.903 4.251 4.251v62.28c0 2.348-1.903 4.251-4.251 4.251z"/></g></g><path d="m178.539 466.549h98.244v37.223h-98.244z" fill="#f8d448"/></g><g><path d="m447.679 264.859c-4.143 0-7.5 3.357-7.5 7.5v217.225c0 3.688-3 6.688-6.688 6.688h-149.208v-86.17c0-4.722-2.329-9.127-6.231-11.786-3.9-2.657-8.853-3.216-13.25-1.486l-37.141 14.606-37.141-14.606c-4.393-1.729-9.348-1.171-13.25 1.486-3.902 2.659-6.231 7.064-6.231 11.786v86.17h-149.209c-3.687 0-6.687-3-6.687-6.688v-43.877c0-4.143-3.358-7.5-7.5-7.5s-7.5 3.357-7.5 7.5v43.877c0 11.959 9.729 21.688 21.687 21.688h411.662c11.959 0 21.688-9.729 21.688-21.688v-217.225c-.001-4.142-3.358-7.5-7.501-7.5zm-261.64 231.412v-85.087l36.404 14.317c3.366 1.323 7.071 1.324 10.438-.001l36.402-14.316v85.087z"/><path d="m7.643 421.244c4.142 0 7.5-3.357 7.5-7.5v-231.07c0-3.688 3-6.688 6.687-6.688h31.2v158.332c0 9.185 7.472 16.656 16.656 16.656h110.246c9.184 0 16.656-7.472 16.656-16.656v-158.332h29.697c4.142 0 7.5-3.357 7.5-7.5s-3.358-7.5-7.5-7.5h-204.455c-11.958 0-21.687 9.729-21.687 21.688v231.07c0 4.143 3.358 7.5 7.5 7.5zm173.944-86.926c0 .913-.743 1.656-1.656 1.656h-110.245c-.913 0-1.656-.743-1.656-1.656v-158.332h113.558v158.332z"/><path d="m471.548 38.454c-2.946-2.911-7.694-2.884-10.606.063-2.911 2.946-2.883 7.694.063 10.606 22.649 22.382 35.123 52.237 35.123 84.067 0 65.17-53.021 118.189-118.19 118.189-65.171 0-118.19-53.02-118.19-118.189s53.019-118.19 118.19-118.19c20.811 0 41.274 5.485 59.179 15.863 3.581 2.077 8.172.856 10.249-2.728 2.078-3.583.856-8.172-2.728-10.249-20.186-11.701-43.251-17.886-66.7-17.886-73.441 0-133.191 59.749-133.191 133.191 0 73.441 59.75 133.189 133.191 133.189s133.19-59.748 133.19-133.189c0-35.87-14.056-69.515-39.58-94.737z"/><path d="m276.747 133.19c0 55.797 45.395 101.191 101.191 101.191s101.19-45.395 101.19-101.191-45.393-101.19-101.19-101.19-101.191 45.394-101.191 101.19zm187.381 0c0 47.526-38.665 86.191-86.19 86.191-47.526 0-86.191-38.665-86.191-86.191 0-47.525 38.665-86.19 86.191-86.19 47.525 0 86.19 38.665 86.19 86.19z"/><path d="m386.352 154.997h25.389v12.038c0 4.143 3.357 7.5 7.5 7.5s7.5-3.357 7.5-7.5v-12.038h1.119c4.143 0 7.5-3.357 7.5-7.5s-3.357-7.5-7.5-7.5h-1.119v-34.612c0-5.407-3.514-9.965-8.744-11.341-5.229-1.375-10.531.862-13.191 5.57l-24.982 44.192c-1.312 2.321-1.293 5.166.051 7.47 1.343 2.304 3.81 3.721 6.477 3.721zm25.389-37.171v22.171h-12.533z"/><path d="m369.561 161.73h-18.835l14.733-21.782c4.201-6.011 6.941-11.693 8.146-16.889.057-.245.101-.493.133-.743l.326-2.554c.04-.315.061-.633.061-.95 0-13.45-10.942-24.393-24.393-24.393-11.631 0-21.697 8.273-23.936 19.673-.798 4.064 1.85 8.007 5.914 8.805 4.074.802 8.007-1.85 8.805-5.914.86-4.383 4.737-7.563 9.217-7.563 5.042 0 9.169 3.994 9.384 8.984l-.205 1.603c-.823 3.26-2.765 7.089-5.776 11.391-.022.032-.045.065-.067.099l-21.513 31.805c-1.789 2.644-1.972 6.038-.475 8.857 1.496 2.82 4.409 4.572 7.602 4.572h30.879c4.143 0 7.5-3.357 7.5-7.5s-3.357-7.501-7.5-7.501z"/><path d="m89.091 208.942h71.435c4.142 0 7.5-3.357 7.5-7.5s-3.358-7.5-7.5-7.5h-71.435c-4.142 0-7.5 3.357-7.5 7.5s3.358 7.5 7.5 7.5z"/><path d="m89.091 243.889h71.435c4.142 0 7.5-3.357 7.5-7.5s-3.358-7.5-7.5-7.5h-71.435c-4.142 0-7.5 3.357-7.5 7.5s3.358 7.5 7.5 7.5z"/><path d="m89.091 278.834h71.435c4.142 0 7.5-3.357 7.5-7.5s-3.358-7.5-7.5-7.5h-71.435c-4.142 0-7.5 3.357-7.5 7.5s3.358 7.5 7.5 7.5z"/><path d="m89.091 313.779h71.435c4.142 0 7.5-3.357 7.5-7.5s-3.358-7.5-7.5-7.5h-71.435c-4.142 0-7.5 3.357-7.5 7.5s3.358 7.5 7.5 7.5z"/><path d="m358.383 319.071c4.143 0 7.5-3.357 7.5-7.5s-3.357-7.5-7.5-7.5h-52.727c-6.479 0-11.751 5.271-11.751 11.751v62.281c0 6.479 5.271 11.751 11.751 11.751h105.454c6.479 0 11.751-5.271 11.751-11.751v-62.281c0-6.479-5.271-11.751-11.751-11.751h-20.765c-4.143 0-7.5 3.357-7.5 7.5s3.357 7.5 7.5 7.5h17.516v55.783h-98.955v-55.783z"/></g></g></svg>