<svg id="Capa_1" enable-background="new 0 0 514.297 514.297" height="512" viewBox="0 0 514.297 514.297" width="512" xmlns="http://www.w3.org/2000/svg"><g><g><g fill="#ffe0d1"><path d="m421.154 252.415c0-9.835-7.973-17.808-17.808-17.808-9.835 0-17.808 7.973-17.808 17.808v139.394h35.616z"/><path d="m421.154 252.415c0-9.835-7.973-17.808-17.808-17.808-9.835 0-17.808 7.973-17.808 17.808v139.394h35.616z"/><path d="m386.722 263.949c0-9.835-7.973-17.808-17.808-17.808-9.835 0-17.808 7.973-17.808 17.808v139.394h35.616z"/><path d="m162.698 255.193c0-9.835-7.973-17.808-17.808-17.808-9.835 0-17.808 7.973-17.808 17.808v136.617h35.616z"/></g><path d="m161.972 328.21c-4.045-4.626-9.229-7.996-14.951-9.852-3.424-1.111-5.805-4.214-5.805-7.814v-57.502c0-6.33 3.295-11.901 8.271-15.059-3.246-.87-6.802-.915-10.593.516-7.209 2.721-11.811 9.835-11.811 17.541v135.769h9.983 25.632v-2.15-60.618z" fill="#ffd1c2"/><path d="m128.759 252.415c0-9.835-7.973-17.808-17.808-17.808-9.835 0-17.808 7.973-17.808 17.808v136.617h35.616z" fill="#ffe0d1"/><g><path d="m128.759 320.725c-2.823.748-5.537 1.883-8.04 3.395l-15.58-17.893v-63.614c0-2.314-.235-4.596-.707-6.775-6.596 2.609-11.289 9.053-11.289 16.577v136.617h35.616z" fill="#ffd1c2"/><g id="XMLID_308_"><g><path d="m120.089 341.613c1.16-2.18 2.76-4.17 4.8-5.8 7.82-6.28 19.19-5.28 25.79 2.27l36.57 41.82c12.97 14.84 19.78 33.62 19.78 52.67 0 9.83-1.82 19.73-5.53 29.2-.48 1.22-.72 2.53-.72 3.84v33.416c0 4.288-3.476 7.764-7.764 7.764h-75.481c-4.288 0-7.764-3.476-7.764-7.764v-46.496l-36.24-49.33c-12.17-16.57-18.73-36.58-18.73-57.13v-103.95c0-5.29 2.15-10.09 5.62-13.56 3.524-3.524 8.409-5.676 13.796-5.608 10.572.133 18.924 9.085 18.924 19.658v63.965c0 2.671.966 5.251 2.72 7.265l22.04 25.31z" fill="#ffe0d1"/></g></g><g><path d="m136.982 491.93c-4.288 0-7.765-3.332-7.765-7.442v-31.667c0-8.367-2.758-16.5-7.848-23.141l-28.392-37.045c-12.17-15.883-18.73-35.063-18.73-54.761v-99.64c0-5.071 2.15-9.671 5.62-12.998.336-.322.705-.647 1.065-.945-2.081-.838-4.342-1.307-6.717-1.337-5.388-.068-10.273 2.084-13.796 5.608-3.47 3.47-5.62 8.27-5.62 13.56v103.95c0 20.55 6.56 40.56 18.73 57.13l36.24 49.33v46.495c0 4.288 3.476 7.765 7.765 7.765h75.481c4.288 0 7.765-3.476 7.765-7.765v-7.098h-63.798z" fill="#ffd1c2"/></g><path d="m365.578 358.138v-2.387h21.144v-30.789c-2.925-.895-5.961-1.366-9.024-1.366-1.963 0-3.905.19-5.808.557-3.301.638-6.312-2.197-6.312-5.877v-57.664c0-5.645 2.192-10.715 5.677-14.284-.768-.111-1.545-.188-2.341-.188-9.835 0-17.808 8.753-17.808 19.55v92.447h14.472z" fill="#ffd1c2"/><path d="m399.72 390.555v-13.172l4.913-6.729c7.954-10.582 8.974-24.892 2.614-36.453-1.452-2.664-3.241-5.087-5.334-7.243-1.443-1.487-2.193-3.514-2.193-5.587v-70.211c0-6.74 3.747-12.617 9.269-15.641-1.71-.571-3.531-.889-5.428-.911-9.912-.117-18.023 8.337-18.023 18.25v64.773 74.178h3.649 31.966v-1.254z" fill="#ffd1c2"/><g id="XMLID_313_"><g><path d="m394.079 341.383 2.32-2.23 22.04-25.31c1.754-2.014 2.72-4.595 2.72-7.265v-64.455c0-5.29 2.15-10.09 5.61-13.56 3.47-3.47 8.26-5.61 13.56-5.61 10.58 0 19.17 8.58 19.17 19.17v103.95c0 20.55-6.56 40.56-18.73 57.13l-36.24 49.33v46.642c0 4.207-3.411 7.618-7.618 7.618h-75.774c-4.207 0-7.618-3.411-7.618-7.618v-33.562c0-1.31-.24-2.62-.72-3.84-10.91-27.81-5.41-59.38 14.25-81.87l36.57-41.82c3.69-4.22 8.87-6.39 14.08-6.39 4.12 0 8.26 1.35 11.71 4.12 1.97 1.58 3.53 3.48 4.67 5.57z" fill="#ffe0d1"/></g></g><path d="m366.387 53.924 14.637 3.229c2.482.548 4.249 2.747 4.249 5.289v131.605c0 56.572-28.838 109.241-76.5 139.717l-46.495 29.73c-3.43 2.193-7.824 2.186-11.247-.02l-46.003-29.646c-47.377-30.531-76.004-83.036-76.004-139.399v-132c0-2.536 1.759-4.732 4.234-5.286l14.141-3.162c36.209-8.098 70.692-22.564 101.841-42.724l4.466-2.891c1.791-1.159 4.095-1.159 5.886 0l4.076 2.638c31.402 20.325 66.192 34.861 102.719 42.92z" fill="#e5827f"/><path d="m264.236 323.739c-57.388-33.549-92.064-91.242-92.064-153.176v-123.214c-8.154 2.54-16.415 4.764-24.773 6.633l-14.141 3.162c-2.475.554-4.234 2.75-4.234 5.286v132c0 56.363 28.627 108.868 76.005 139.399l46.003 29.646c3.422 2.206 7.817 2.213 11.247.02l33.415-21.366z" fill="#de6a66"/><path d="m221.279 308.611c-38.982-25.121-62.256-67.806-62.256-114.181v-107.911c0-2.605 1.782-4.857 4.307-5.496 31.854-8.061 62.176-20.564 90.426-37.283 1.796-1.063 4.018-1.064 5.815-.004 28.532 16.833 59.169 29.367 91.352 37.373 2.548.634 4.35 2.902 4.35 5.528v107.412c0 46.57-23.425 89.353-62.661 114.441l-35.9 22.955z" fill="#f8f7f8"/><path d="m221.279 308.611 35.433 22.834 9.889-6.323-2.365-1.383c-57.388-33.549-92.064-91.242-92.064-153.176v-91.917c-2.935.826-5.879 1.627-8.841 2.376-2.525.639-4.307 2.891-4.307 5.496v107.912c0 46.375 23.273 89.06 62.255 114.181z" fill="#efedee"/><path d="m313.779 104.946h-27.866l-4.742 3.518-9.676-.496-1.354-3.021h-69.624c-3.981 0-7.208 3.227-7.208 7.208v47.214c0 26.993 14.692 51.847 38.341 64.86l10.322 5.68v29.886l-11.234 13.229c-2.035 2.396-.332 6.076 2.812 6.076h47.196c3.143 0 4.846-3.68 2.812-6.076l-11.234-13.229v-29.886l10.322-5.68c23.649-13.013 38.341-37.867 38.341-64.86v-47.214c0-3.983-3.227-7.209-7.208-7.209z" fill="#a59ca6"/></g><g id="XMLID_310_"><g><path d="m162.698 403.302-42.365-62.1c-.078.139-.17.271-.245.411l-2.19-2.46-8.054-9.249c-1.115 1.458-2.119 3.008-2.992 4.651-2.587 4.852-3.954 10.335-3.954 15.857 0 7.382 2.351 14.395 6.799 20.286l18.838 25.487c7.921 10.717 22.624 13.78 34.163 7.117z" fill="#ffd1c2"/><path d="m205.509 417.083-33.85 12.21-49.95-67.58c-2.57-3.38-3.81-7.36-3.81-11.3 0-3.05.74-6.08 2.19-8.8 1.16-2.18 2.76-4.17 4.8-5.8 7.82-6.28 19.19-5.28 25.79 2.27l36.57 41.82c9.42 10.78 15.59 23.64 18.26 37.18z" fill="#ffe0d1"/></g></g><g id="XMLID_319_"><g><path d="m440.328 222.953c-5.3 0-10.09 2.14-13.56 5.61-3.46 3.47-5.61 8.27-5.61 13.56v64.455c0 2.67-.966 5.251-2.72 7.265l-22.04 25.31-.003.003-2.317 2.227c-.15-.274-.326-.536-.49-.804l-49.189 72.791c11.622 6.71 26.433 3.58 34.347-7.259l25.887-35.457c3.453-4.594 5.592-9.891 6.392-15.361.488-3.335 2.03-6.426 4.243-8.968l16.18-18.58c1.754-2.014 2.72-4.595 2.72-7.265v-79.455c0-5.29 2.15-10.09 5.61-13.56 1.589-1.589 3.473-2.903 5.538-3.857-1.591-.427-3.262-.655-4.988-.655z" fill="#ffd1c2"/><path d="m394.079 341.383c3.46 6.29 3.11 14.27-1.49 20.33l-52.64 72.1-32.4-7.8c1.37-16.76 8.02-32.98 19.5-46.11l36.57-41.82c3.69-4.22 8.87-6.39 14.08-6.39 4.12 0 8.26 1.35 11.71 4.12 1.97 1.58 3.53 3.48 4.67 5.57z" fill="#ffe0d1"/></g></g><g><path d="m341.097 492.213c-4.207 0-7.618-3.099-7.618-6.922v-30.496c0-1.19-.24-2.381-.72-3.489-10.91-25.27-5.41-53.957 14.25-74.392l36.57-38c1.472-1.529 3.187-2.749 5.041-3.679-3.285-2.369-7.108-3.541-10.921-3.541-5.21 0-10.39 2.17-14.08 6.39l-36.57 41.82c-19.66 22.49-25.16 54.06-14.25 81.87.48 1.22.72 2.53.72 3.84v33.562c0 4.208 3.411 7.618 7.618 7.618h75.774c4.207 0 7.618-3.411 7.618-7.618v-6.962h-63.432z" fill="#ffd1c2"/></g></g><g><path d="m79.574 398.759c-11.3-15.384-17.272-33.604-17.272-52.69v-49.209c0-4.143-3.357-7.5-7.5-7.5s-7.5 3.357-7.5 7.5v49.209c0 22.303 6.979 43.594 20.183 61.57l34.788 47.357v51.801c0 4.143 3.357 7.5 7.5 7.5s7.5-3.357 7.5-7.5v-54.26c0-1.598-.51-3.153-1.455-4.44z"/><path d="m440.324 215.453c-10.603 0-19.778 6.22-24.074 15.202-3.781-2.251-8.193-3.549-12.904-3.549-5.51 0-10.611 1.775-14.771 4.777 2.775-12.393 4.198-25.093 4.198-37.837v-39.056c0-4.143-3.357-7.5-7.5-7.5s-7.5 3.357-7.5 7.5v39.057c0 54.286-27.305 104.154-73.04 133.398l-46.495 29.729c-.955.614-2.189.611-3.145-.005l-46.003-29.646c-45.439-29.281-72.567-79.036-72.567-133.094v-130.33l12.512-2.798c37.198-8.32 72.283-23.038 104.279-43.747l3.334-2.157 2.943 1.904c32.265 20.882 67.652 35.668 105.179 43.947l13.003 2.868v58.911c0 4.143 3.357 7.5 7.5 7.5s7.5-3.357 7.5-7.5v-60.584c0-6.109-4.167-11.296-10.134-12.613l-14.636-3.23c-35.772-7.892-69.505-21.986-100.261-41.891l-4.073-2.637c-4.265-2.763-9.776-2.764-14.039-.001l-4.466 2.891c-30.5 19.739-63.943 33.77-99.402 41.7l-14.142 3.162c-5.944 1.33-10.097 6.514-10.097 12.605v132c0 12.722 1.381 25.224 4.03 37.334-4.13-2.929-9.167-4.658-14.604-4.658-4.711 0-9.123 1.298-12.904 3.549-4.296-8.982-13.471-15.202-24.074-15.202-14.706 0-26.671 11.965-26.671 26.671v22.773c0 4.143 3.357 7.5 7.5 7.5s7.5-3.357 7.5-7.5v-22.773c0-6.436 5.235-11.671 11.671-11.671 6.435 0 11.67 5.235 11.67 11.671v64.464c0 4.477 1.619 8.801 4.559 12.177l21.188 24.333c-2.235 7.677-.894 16.248 4.352 23.15l24.091 31.699c2.507 3.297 7.211 3.939 10.51 1.434 3.298-2.507 3.939-7.212 1.434-10.51l-24.092-31.699c-3.7-4.868-2.864-11.682 1.904-15.512 4.695-3.773 11.482-3.176 15.447 1.36l36.568 41.821c17.89 20.46 22.838 48.887 12.915 74.191-.825 2.107-1.244 4.322-1.244 6.584v41.18c0 4.143 3.357 7.5 7.5 7.5s7.5-3.357 7.5-7.5v-41.18c0-.382.071-.756.21-1.11 11.975-30.537 6.002-64.846-15.588-89.538l-22.206-25.396v-34.146c9.018 9.223 19.14 17.53 30.275 24.706l46.004 29.646c2.944 1.897 6.321 2.846 9.7 2.846 3.357 0 6.716-.938 9.648-2.812l46.495-29.73c11.215-7.17 21.541-15.635 30.793-25.14v34.63l-22.206 25.396c-21.59 24.692-27.562 59.001-15.589 89.535.14.357.211.731.211 1.113v41.18c0 4.143 3.357 7.5 7.5 7.5s7.5-3.357 7.5-7.5v-41.18c0-2.262-.419-4.477-1.245-6.587-9.922-25.302-4.974-53.729 12.916-74.188l36.568-41.821c3.966-4.536 10.751-5.132 15.448-1.359 4.768 3.829 5.604 10.643 1.902 15.511l-24.091 31.699c-2.506 3.298-1.864 8.003 1.434 10.51 3.298 2.505 8.003 1.863 10.51-1.434l24.09-31.699c5.246-6.902 6.588-15.473 4.353-23.15l21.188-24.333c2.939-3.376 4.559-7.7 4.559-12.177v-64.464c0-6.436 5.235-11.671 11.67-11.671 6.436 0 11.671 5.235 11.671 11.671v103.944c0 19.086-5.973 37.307-17.271 52.689l-4.505 6.132c-2.452 3.338-1.734 8.032 1.604 10.484 1.338.983 2.893 1.457 4.435 1.457 2.306 0 4.58-1.061 6.05-3.061l4.506-6.133c13.203-17.976 20.183-39.267 20.183-61.569v-103.942c0-14.706-11.965-26.671-26.671-26.671zm-339.681 91.135v-54.173c0-5.685 4.624-10.309 10.308-10.309 5.685 0 10.309 4.624 10.309 10.309v76.739c-.359.26-.715.53-1.064.812-.069.056-.134.115-.202.171l-18.478-21.222c-.564-.645-.873-1.471-.873-2.327zm55.048 25.865c-5.214-5.558-12.309-8.373-19.432-8.279v-59.627c5.203 11.791 11.719 22.962 19.432 33.316zm202.916 0v-34.645c0-.151-.014-.299-.023-.449 4.741-6.378 9.063-13.074 12.891-20.065 2.387-4.359 4.566-8.823 6.563-13.363v60.243c-7.122-.096-14.217 2.719-19.431 8.279zm54.176-23.538-18.478 21.222c-.068-.056-.133-.115-.201-.17-.35-.281-.706-.552-1.065-.812v-76.739c0-5.685 4.624-10.309 10.309-10.309 5.684 0 10.308 4.624 10.308 10.309v54.173c-.002.855-.311 1.681-.873 2.326z"/><path d="m421.762 429.073c-3.338-2.454-8.032-1.733-10.484 1.604l-12.797 17.42c-.946 1.287-1.456 2.843-1.456 4.44v54.26c0 4.143 3.357 7.5 7.5 7.5s7.5-3.357 7.5-7.5v-51.801l11.341-15.438c2.452-3.339 1.734-8.032-1.604-10.485z"/><path d="m260.536 35.578c-2.385-1.439-5.372-1.437-7.757.005-29.644 17.938-61.774 31.13-95.503 39.206-3.373.808-5.753 3.824-5.753 7.294v112.347c0 48.936 24.559 93.977 65.693 120.485l35.433 22.834c1.236.797 2.649 1.195 4.062 1.195 1.404 0 2.809-.394 4.04-1.182l35.9-22.955c41.403-26.474 66.121-71.618 66.121-120.76v-111.887c0-3.481-2.396-6.505-5.784-7.301-34.068-8.008-66.52-21.224-96.452-39.281zm87.238 158.47c0 43.999-22.132 84.419-59.201 108.123l-31.845 20.361-31.386-20.227c-36.83-23.734-58.818-64.062-58.818-107.876v-106.481c31.682-8.153 61.958-20.653 90.145-37.22 28.479 16.686 59.08 29.22 91.105 37.321z"/><path d="m200.518 97.446c-8.11 0-14.708 6.598-14.708 14.708v47.214c0 29.728 16.18 57.099 42.226 71.432l6.438 3.542v22.697l-9.449 11.127c-2.856 3.362-3.479 7.938-1.628 11.941 1.853 4.004 5.744 6.491 10.155 6.491h47.195c4.411 0 8.303-2.487 10.155-6.491s1.229-8.579-1.627-11.939l-9.45-11.129v-22.697l6.438-3.543c26.045-14.332 42.225-41.703 42.225-71.431v-47.214c0-8.11-6.598-14.708-14.708-14.708zm112.969 61.921c0 24.259-13.203 46.594-34.456 58.289l-10.322 5.68c-2.396 1.318-3.885 3.837-3.885 6.571v29.886c0 1.778.632 3.499 1.783 4.854l5.901 6.95h-30.721l5.901-6.95c1.151-1.355 1.783-3.076 1.783-4.854v-29.886c0-2.734-1.488-5.253-3.885-6.571l-10.321-5.68c-21.254-11.695-34.457-34.03-34.457-58.289v-46.922h66.9l-14.43 44.498c-.741 2.283-.344 4.782 1.067 6.724s3.666 3.09 6.066 3.09h14.515l-7.878 21.389c-1.432 3.887.559 8.198 4.446 9.63.854.314 1.73.464 2.591.464 3.053 0 5.922-1.878 7.039-4.91l11.595-31.48c.848-2.301.517-4.87-.886-6.882s-3.7-3.21-6.152-3.21h-14.951l12.748-39.312h30.01v46.921z"/></g></g></svg>