<svg id="Capa_1" enable-background="new 0 0 511.153 511.153" height="512" viewBox="0 0 511.153 511.153" width="512" xmlns="http://www.w3.org/2000/svg"><g><g><path d="m302.465 231.463h-43.026l-8.316 8.97h-72.497l-8.362-8.97h-43.026c-5.397 0-9.772 4.375-9.772 9.772v170.757h194.771v-170.756c0-5.398-4.375-9.773-9.772-9.773z" fill="#dfae91"/><path d="m160.839 352.499c-7.449-.627-13.176-6.856-13.176-14.331v-106.478c0-.077.01-.15.011-.227h-20.436c-5.397 0-9.772 4.375-9.772 9.772v170.757h21.812 172.959v-9.546-37.204z" fill="#d79c7a"/><path d="m484.29 323.102c0-3.117-2.527-5.643-5.643-5.643h-34.561c-2.192 0-4.186 1.27-5.114 3.256l-31.19 66.819-18.224 33.282h94.731v-97.714z" fill="#d6d1d6"/><g><g><g><g><g><path d="m277.614 330.475c0-2.229-1.807-4.035-4.035-4.035h-117.455c-2.229 0-4.035 1.807-4.035 4.035v69.186h125.525z" fill="#fff9e4"/></g></g></g><path d="m160.839 352.499c-3.408-.287-6.447-1.755-8.75-3.97v51.133h125.525v-37.333z" fill="#fdf5cb"/><g><path d="m231.453 279.129 24.369 7.581c1.795.558 3.616-.783 3.616-2.663v-52.583h-89.175v52.583c0 1.88 1.822 3.221 3.616 2.663l24.37-7.581 14.599-4.616h5.474z" fill="#fbe372"/></g></g><path d="m133.009 365.209-1.58-.13c-24.33-2.05-47.72 9.88-60.34 30.79l-6.71 11.12-18.648 29.281 97.439-8.328 7.081-42.021z" fill="#b3e5ee"/><path d="m488.469 395.129-355.46-29.92-.24 24.11c0 9.76-7.92 17.67-17.68 17.67h-76.02c-16.93 0-30.65 13.72-30.65 30.65 0 16.92 13.72 30.64 30.65 30.64h81.27l153.89-8.66 90.43-10.94 68.68-8.31 55.69-6.729c7.82-.95 13.7-7.59 13.7-15.47v-7.52c0-8.091-6.2-14.841-14.26-15.521z" fill="#efedee"/><g id="XMLID_299_"><g><path d="m296.779 90.429c0 36.79-23.98 67.97-57.15 78.82l-21.11 26.6c-2.39 3.01-6.95 3.01-9.33 0l-21.11-26.6c-34.34-11.23-58.82-44.24-57.06-82.71 1.95-42.88 36.02-76.97 78.9-78.95 47.59-2.2 86.86 35.73 86.86 82.84zm-32.86 0c0-27.65-22.42-50.07-50.07-50.07s-50.06 22.42-50.06 50.07 22.41 50.06 50.06 50.06 50.07-22.41 50.07-50.06z" fill="#e5827f"/></g></g></g><path d="m451.994 417.195-8.781 1.063c-1.85.224-3.722-.154-5.34-1.08-2.996-1.714-6.459-2.699-10.154-2.699h-57.44c-7.85 0-14.677 4.415-18.156 10.889-1.378 2.565-3.833 4.375-6.724 4.725l-52.515 6.353-15.987.9c-1.69.095-3.366-.234-4.937-.865-3.151-1.266-6.575-1.961-10.141-1.961h-129.06c-7.314 0-13.965 2.882-18.885 7.567-2.095 1.995-4.932 3.019-7.825 3.019h-48.325c-16.93 0-30.65-13.72-30.65-30.64 0-1.781.171-3.54.463-5.238-11.206 4.559-19.118 15.566-19.118 28.412 0 16.92 13.72 30.64 30.65 30.64h81.27l153.89-8.66 90.43-10.94 68.68-8.31 55.69-6.729c7.82-.95 13.7-7.59 13.7-15.47v-7.104z" fill="#e4e1e5"/><g><path d="m427.719 429.479h-57.44c-3.1 0-5.62 2.51-5.62 5.62v13.58 4.66c0 3.11 2.52 5.62 5.62 5.62h57.44c3.1 0 5.62-2.51 5.62-5.62v-12.97-5.27c0-3.11-2.52-5.62-5.62-5.62z" fill="#d6d1d6"/><path d="m261.819 449.519h-129.06c-6.86 0-12.42 5.56-12.42 12.42v6.34 4.25c0 6.86 5.56 12.41 12.42 12.41h129.06c6.85 0 12.41-5.55 12.41-12.41v-10.59c0-.79-.07-1.56-.22-2.31-1.08-5.76-6.13-10.11-12.19-10.11z" fill="#d6d1d6"/><path d="m228.158 500.351c0 1.217-1.381 2.207-3.078 2.207h-20.457c-1.698 0-3.08-.99-3.08-2.207v-225.285c0-.024 0-.048 0-.072v-47.654c0-1.217 1.382-2.207 3.08-2.207h20.457c1.698 0 3.078.99 3.078 2.207v47.654.072z" fill="#e5827f"/></g></g><g><path d="m491.79 388.069v-64.966c0-7.247-5.896-13.144-13.144-13.144h-34.561c-5.086 0-9.761 2.979-11.909 7.585l-29.339 62.854-29.368-2.472c-4.133-.337-7.756 2.717-8.103 6.845-.348 4.127 2.717 7.755 6.845 8.103l115.624 9.733c4.147.349 7.396 3.883 7.396 8.045v7.523c0 4.079-3.054 7.524-7.103 8.015l-47.686 5.769c-1.412-5.722-6.574-9.983-12.726-9.983h-57.437c-7.235 0-13.121 5.886-13.121 13.121v6.937l-78.404 9.486c-3.51-5.687-9.781-9.497-16.939-9.497h-22.863v-60.369l101.297 8.527c.214.018.427.026.638.026 3.856 0 7.136-2.957 7.465-6.871.348-4.127-2.717-7.755-6.845-8.103l-21.771-1.833v-132.165c0-9.523-7.748-17.271-17.272-17.271h-66.529c-3.088-4.479-8.249-7.426-14.088-7.426h-13.991c-5.841 0-11.001 2.946-14.089 7.426h-66.529c-9.523 0-17.271 7.748-17.271 17.271v39.105c0 4.143 3.357 7.5 7.5 7.5s7.5-3.357 7.5-7.5v-39.105c0-1.253 1.019-2.271 2.271-2.271h35.526v45.083c0 3.257 1.565 6.354 4.188 8.284 1.784 1.314 3.938 2.001 6.114 2.001 1.021 0 2.048-.151 3.042-.461l14.642-4.555v29.624h-34.625c-6.36 0-11.535 5.175-11.535 11.535v28.182l-12.535-1.055c-2.377-.201-4.741-.277-7.088-.248v-45.051c0-4.143-3.357-7.5-7.5-7.5s-7.5 3.357-7.5 7.5v46.822c-18.643 4.234-35.018 15.839-45.295 32.868l-4.524 7.499h-21.082c-21.033 0-38.145 17.111-38.145 38.145s17.111 38.145 38.145 38.145h74.064c1.561 9.435 9.754 16.66 19.625 16.66h57.994v1.605c0 9.432 7.674 17.105 17.106 17.105h13.991c9.432 0 17.105-7.674 17.105-17.105v-1.605h22.863c10.98 0 19.914-8.934 19.914-19.914v-6.259l75.979-9.193c1.613 5.42 6.635 9.386 12.572 9.386h57.437c7.235 0 13.121-5.886 13.121-13.121v-6.322l49.093-5.939c11.573-1.4 20.301-11.247 20.301-22.905v-7.523c.001-10.976-7.909-20.404-18.441-22.583zm-46.521-63.11h31.521v61.665l-58.025-4.885zm-206.317-85.995h12.986v38.684l-12.986-4.04zm0 94.976h31.161v35.284l-31.161-2.623zm65.785-92.705v130.904l-19.623-1.652v-40.012c0-6.36-5.175-11.535-11.535-11.535h-34.626v-29.624l14.644 4.556c.994.309 2.02.46 3.041.46 2.174 0 4.329-.687 6.113-2 2.623-1.932 4.188-5.028 4.188-8.285v-45.083h35.525c1.253 0 2.273 1.018 2.273 2.271zm-126.973 36.412v-38.684h12.985v34.644zm-18.175 56.293h31.16v28.604l-31.16-2.623zm-41.583 38.962c.349-.025.692-.068 1.026-.139 2.054-.25 4.134-.385 6.233-.409v16.963c0 5.611-4.564 10.176-10.175 10.176h-37.419c8.991-14.728 23.77-24.271 40.335-26.591zm-102.085 64.735c0-12.762 10.383-23.145 23.145-23.145h25.314 50.708c13.882 0 25.175-11.294 25.175-25.176v-15.971l50.485 4.25v64.426h-57.994c-10.591 0-19.252 8.316-19.856 18.759h-73.832c-12.762.002-23.145-10.381-23.145-23.143zm116.834 39.805c-2.71 0-4.915-2.204-4.915-4.914v-10.59c0-2.71 2.205-4.915 4.915-4.915h57.994v20.419zm91.197 16.606c0 1.161-.944 2.105-2.105 2.105h-13.991c-1.161 0-2.106-.944-2.106-2.105v-214.883c0-.023 0-.045 0-.069v-45.453c0-1.161.945-2.105 2.106-2.105h13.991c1.161 0 2.105.944 2.105 2.105v45.453.069zm42.778-21.52c0 2.71-2.204 4.914-4.914 4.914h-22.863v-20.419h22.863c2.71 0 4.914 2.205 4.914 4.915zm159.108-21.066h-53.678v-14.486h53.679v14.486z"/><path d="m183.569 175.632 19.744 24.88c2.566 3.235 6.407 5.092 10.537 5.092h.002c4.13 0 7.971-1.855 10.538-5.091l19.743-24.88c36.07-12.797 60.144-46.751 60.144-85.208 0-7.212-.856-14.401-2.545-21.367-.977-4.026-5.038-6.5-9.056-5.522-4.026.976-6.498 5.03-5.522 9.056 1.409 5.811 2.123 11.812 2.123 17.834 0 32.72-20.889 61.53-51.979 71.691-1.397.457-2.631 1.314-3.545 2.467l-19.9 25.078-19.901-25.078c-.914-1.152-2.147-2.01-3.545-2.467-32.102-10.492-53.443-41.43-51.899-75.234 1.786-39.126 32.636-69.993 71.759-71.799 25.535-1.183 49.701 10.453 64.688 31.118 2.432 3.352 7.122 4.101 10.475 1.668 3.353-2.432 4.1-7.121 1.668-10.475-17.96-24.766-46.948-38.712-77.521-37.296-46.915 2.166-83.909 39.181-86.052 86.1-1.818 39.745 22.774 76.186 60.044 89.433z"/><path d="m213.851 32.859c-31.741 0-57.565 25.824-57.565 57.565 0 31.742 25.824 57.566 57.565 57.566 31.742 0 57.566-25.824 57.566-57.566 0-31.741-25.824-57.565-57.566-57.565zm0 100.132c-23.471 0-42.565-19.096-42.565-42.566s19.095-42.565 42.565-42.565 42.566 19.095 42.566 42.565-19.095 42.566-42.566 42.566z"/></g></g></svg>