<svg id="Capa_1" enable-background="new 0 0 512 512" height="512" viewBox="0 0 512 512" width="512" xmlns="http://www.w3.org/2000/svg"><g><g><g><path d="m311.622 69.615h-22.777c-2.024 0-3.665-1.641-3.665-3.665v-52.613c0-5.404-6.719-7.895-10.242-3.797l-58.624 68.199c-3.77 4.386-.654 11.173 5.129 11.173h22.777c2.024 0 3.665 1.641 3.665 3.665v52.614c0 5.404 6.719 7.895 10.242 3.797l58.624-68.199c3.771-4.387.655-11.174-5.129-11.174z" fill="#ffc269"/><path d="m492.876 437.415h-102.964v-214.12h97.964c2.761 0 5 2.239 5 5z" fill="#ddebfd"/><path d="m487.876 223.295h-27c2.761 0 5 2.239 5 5v209.12h27v-209.12c0-2.762-2.239-5-5-5z" fill="#bed9fd"/><path d="m122.088 437.415h-102.964v-209.12c0-2.761 2.239-5 5-5h97.964z" fill="#ddebfd"/><g fill="#5d91b9"><path d="m402.723 358.992v-174.178c0-2.761-2.239-5-5-5h-21.451c-2.761 0-5 2.239-5 5v252.601h60.206z"/><path d="m109.276 358.992v-174.178c0-2.761 2.239-5 5-5h21.451c2.761 0 5 2.239 5 5v252.601h-60.205z"/></g><path d="m140.727 302.656h230.546v134.759h-230.546z" fill="#91dafa"/><path d="m347.952 302.656h23.321v134.759h-23.321z" fill="#75cff9"/><path d="m19.124 427.426c39.481 0 39.481-10.276 78.962-10.277 39.481 0 39.481 10.277 78.962 10.277 39.479 0 39.479-10.276 78.958-10.277 39.478 0 39.478 10.277 78.956 10.277 39.479 0 39.479-10.276 78.957-10.277 39.478 0 39.478 10.277 78.956 10.276v56.476s-473.752-.701-473.752 0 .001-56.475.001-56.475z" fill="#6cbff8"/><path d="m465.876 425.206v58.658c17.027.023 27 .038 27 .038v-56.476c-11.843 0-20.131-.925-27-2.22z" fill="#5fa7ee"/><path d="m413.919 455.687c-39.478 0-39.478 10.276-78.957 10.276-39.478 0-39.478-10.276-78.956-10.276-39.479 0-39.479 10.276-78.958 10.276-39.481 0-39.481-10.276-78.962-10.276s-39.481 10.276-78.962 10.276v33.475c0 2.809 2.322 5.07 5.13 5.001 34.432-.849 36.14-10.215 73.832-10.215 39.481 0 39.481 10.276 78.962 10.276 39.479 0 39.479-10.276 78.958-10.276 39.478 0 39.478 10.276 78.956 10.276 39.479 0 39.479-10.276 78.957-10.276 37.69 0 39.397 9.366 73.827 10.215 2.808.069 5.13-2.192 5.13-5.001v-33.475c-39.478 0-39.478-10.276-78.957-10.276z" fill="#91dafa"/><path d="m465.876 463.743v38.533c5.833 1.1 12.681 1.936 21.87 2.163 2.808.069 5.13-2.192 5.13-5.001v-33.475c-11.843 0-20.131-.925-27-2.22z" fill="#75cff9"/><path d="m140.727 203.246h230.546v31.758h-230.546z" fill="#ddebfd"/></g></g><g><path d="m221.445 96.416h18.941v48.778c0 12.341 15.368 18.061 23.429 8.686l58.623-68.198c7.956-9.256 1.371-23.562-10.817-23.562h-18.94v-48.777c0-5.632-3.412-10.536-8.692-12.493-5.282-1.958-11.066-.463-14.737 3.808l-58.623 68.197c-3.678 4.278-4.501 10.121-2.146 15.249 2.353 5.127 7.319 8.312 12.962 8.312zm56.236-78.555v48.095c0 6.156 5.008 11.164 11.164 11.164h21.174l-54.633 63.555v-48.094c0-6.156-5.009-11.164-11.165-11.164h-21.173z"/><path d="m492.877 262.503c4.143 0 7.5-3.358 7.5-7.5v-26.71c0-6.892-5.607-12.5-12.5-12.5h-77.659v-30.98c0-6.892-5.607-12.5-12.5-12.5h-21.45c-6.892 0-12.5 5.607-12.5 12.5v10.936h-215.536v-10.936c0-6.892-5.607-12.5-12.5-12.5h-21.45c-6.892 0-12.5 5.607-12.5 12.5v30.98h-77.659c-6.892 0-12.5 5.607-12.5 12.5 0 4.298.003 241.721.004 271.145 0 7.142 5.928 12.691 12.814 12.498 35.841-.883 36.912-10.212 73.647-10.212 37.96 0 38.511 10.276 78.961 10.276 40.46 0 40.968-10.276 78.958-10.276 37.958 0 38.506 10.276 78.954 10.276 40.46 0 40.967-10.276 78.957-10.276 36.812 0 37.721 9.327 73.64 10.212 6.97.197 12.815-5.435 12.815-12.498v-19.95c0-.026.004-.051.004-.077v-189.408c0-4.142-3.357-7.5-7.5-7.5s-7.5 3.358-7.5 7.5v129.78c-26.026-1.021-31.627-7.437-55.871-9.516l-19.288-52.605v-126.868h75.159v24.21c0 4.141 3.357 7.499 7.5 7.499zm-129.109 32.66c-164.319 0-49.342 0-215.536 0v-52.656h215.536zm-215.536 15h42.632v12.697c0 4.142 3.357 7.5 7.5 7.5s7.5-3.358 7.5-7.5v-12.697h42.636v40.66c0 4.142 3.357 7.5 7.5 7.5s7.5-3.358 7.5-7.5v-40.66h42.636v40.334c0 4.142 3.357 7.5 7.5 7.5s7.5-3.358 7.5-7.5v-40.334h42.632v107.022c-7.2 1.569-15.625 2.743-28.806 2.743-37.958 0-38.507-10.276-78.955-10.276-40.46 0-40.968 10.276-78.958 10.276-13.187 0-21.615-1.174-28.817-2.745zm215.536-99.413v16.758h-215.536v-16.758zm-246.986-23.436h16.45v226.14c-8.447-2.028-18.345-3.758-34.537-3.801l17.629-48.08c.303-.827.458-1.701.458-2.582zm-15 43.48v126.867l-19.289 52.606c-11.132.955-18.543 2.882-25.775 4.765-8.286 2.157-16.199 4.206-30.095 4.751v-188.989zm383.595 204.003v23.522c-30.723-1.205-33.61-10.132-71.459-10.132-40.462 0-40.954 10.277-78.957 10.277-37.958 0-38.506-10.277-78.954-10.277-40.464 0-40.953 10.277-78.958 10.277-20.513 0-28.988-2.735-41.18-5.822-4.011-1.017-8.095 1.415-9.11 5.431-1.017 4.016 1.415 8.095 5.431 9.111 13.895 3.514 22.951 6.28 44.86 6.28 40.464 0 40.953-10.277 78.958-10.277 37.958 0 38.506 10.277 78.954 10.277 40.458 0 40.964-10.277 78.957-10.277 35.985 0 37.643 8.929 71.455 10.147v23.525c-30.842-1.209-33.541-10.136-71.455-10.136-40.458 0-40.969 10.276-78.957 10.276-37.958 0-38.506-10.276-78.954-10.276-40.46 0-40.968 10.276-78.958 10.276-37.962 0-38.509-10.276-78.961-10.276-37.915 0-40.663 8.928-71.461 10.136v-23.525c15.898-.572 25.014-2.946 33.871-5.251 12.741-3.316 20.771-4.894 38.548-4.894 4.126 0 7.479-3.335 7.499-7.465.02-4.142-3.323-7.517-7.465-7.536-.149.002-5.015-.06-10.933.234-14.409.716-23.037 2.961-31.429 5.145-8.286 2.157-16.199 4.206-30.095 4.751v-23.522c15.898-.572 25.019-2.945 33.875-5.25 11.193-2.914 20.032-4.896 37.59-4.896 37.96 0 38.511 10.276 78.961 10.276 40.46 0 40.968-10.276 78.958-10.276 37.958 0 38.507 10.276 78.955 10.276 40.458 0 40.968-10.276 78.956-10.276 35.96.001 37.657 8.93 71.458 10.147zm-72.072-25.143c-16.191.043-26.089 1.774-34.537 3.803 0-26.837 0-196.753 0-226.142h16.45v171.678c0 .881.155 1.755.458 2.582z"/><path d="m198.364 389.474c4.143 0 7.5-3.358 7.5-7.5v-24.114c0-4.142-3.357-7.5-7.5-7.5s-7.5 3.358-7.5 7.5v24.114c0 4.142 3.357 7.5 7.5 7.5z"/><path d="m313.636 406.488c4.143 0 7.5-3.358 7.5-7.5v-13.491c0-4.142-3.357-7.5-7.5-7.5s-7.5 3.358-7.5 7.5v13.491c0 4.142 3.357 7.5 7.5 7.5z"/></g></g></svg>