<svg id="Capa_1" enable-background="new 0 0 512 512" height="512" viewBox="0 0 512 512" width="512" xmlns="http://www.w3.org/2000/svg"><g><g><g><path d="m350.706 7.522c-24.94-.736-45.896 16.888-50.373 40.358-.362 1.895-2.553 2.759-4.099 1.604-4.293-3.206-9.619-5.106-15.389-5.106-14.228 0-25.762 11.534-25.762 25.762v.037c.003 1.711-1.558 3.01-3.213 2.576-3.764-.986-7.712-1.516-11.786-1.516-15.505 0-29.234 7.583-37.695 19.24-.654.901-1.823 1.277-2.876.919-4.042-1.373-8.371-2.125-12.878-2.125-22.141 0-40.09 17.949-40.09 40.09v60.159h117.904v-47.647c0-4.041 3.276-7.316 7.316-7.316h53.175c12.54 0 22.705-10.165 22.705-22.705v-3.32c0-.846.694-1.514 1.54-1.513h.016c27.539 0 49.853-22.372 49.759-49.933-.091-26.651-21.615-48.778-48.254-49.564z" fill="#ddebfd"/><path d="m239.449 141.873v47.647h25v-47.647c0-4.041 3.276-7.316 7.316-7.316h-25c-4.04 0-7.316 3.275-7.316 7.316z" fill="#bed9fd"/><path d="m350.706 7.522c-4.867-.144-9.578.42-14.049 1.582 21.345 5.571 37.224 25.102 37.303 47.981.094 27.561-22.22 49.933-49.759 49.933h-.016c-.846-.001-1.54.667-1.54 1.513v3.32c0 12.54-10.165 22.705-22.705 22.705h25c12.54 0 22.705-10.165 22.705-22.705v-3.32c0-.847.694-1.514 1.54-1.513h.016c27.539 0 49.853-22.372 49.759-49.933-.091-26.65-21.615-48.777-48.254-49.563z" fill="#bed9fd"/><path d="m304.413 235.212v-40.692c0-2.761-2.239-5-5-5h-187.831c-2.761 0-5 2.239-5 5v40.692c0 78.968-18.068 185.208-67.998 261.579-2.167 3.314.239 7.709 4.199 7.709h325.431c3.96 0 6.365-4.395 4.199-7.709-49.932-76.372-68-182.612-68-261.579z" fill="#ddebfd"/><path d="m372.411 496.791c-49.93-76.371-67.998-182.611-67.998-261.579v-40.692c0-2.761-2.239-5-5-5h-26c2.761 0 5 2.239 5 5v40.691c0 78.968 18.068 185.208 67.998 261.579 2.167 3.314-.239 7.709-4.199 7.709h26c3.96.001 6.366-4.394 4.199-7.708z" fill="#bed9fd"/><g fill="#ffa95f"><circle cx="206.359" cy="350.341" r="15"/><path d="m168.25 283.82 21.122 27.026c5.214-2.251 10.957-3.505 16.988-3.505s11.773 1.254 16.988 3.505l21.122-27.026c-11.236-6.463-24.243-10.18-38.109-10.18s-26.875 3.718-38.111 10.18z"/><path d="m167.805 416.606 12.845-31.805c-4.557-3.39-8.514-7.736-11.529-12.959-3.016-5.223-4.801-10.823-5.458-16.464l-33.966-4.779c.021 12.962 3.305 26.085 10.239 38.094s16.654 21.413 27.869 27.913z"/><path d="m283.023 350.598-33.966 4.779c-.657 5.642-2.443 11.241-5.458 16.464-3.016 5.223-6.972 9.569-11.529 12.959l12.845 31.805c11.215-6.5 20.938-15.905 27.871-27.914s10.216-25.13 10.237-38.093z"/></g><path d="m84.795 181.639v24.097c0 2.761 2.239 5 5 5h231.403c2.761 0 5-2.239 5-5v-24.097c0-2.761-2.239-5-5-5h-231.403c-2.761 0-5 2.239-5 5z" fill="#6cbff8"/><path d="m321.199 176.639h-26c2.761 0 5 2.239 5 5v24.097c0 2.761-2.239 5-5 5h26c2.761 0 5-2.239 5-5v-24.097c0-2.761-2.239-5-5-5z" fill="#5fa7ee"/><path d="m180.935 54.579h-15.451c-8.535 0-15.454-6.919-15.454-15.454s6.919-15.454 15.454-15.454h15.451c8.535 0 15.454 6.919 15.454 15.454s-6.919 15.454-15.454 15.454z" fill="#ddebfd"/><path d="m469.233 379.736h-153.014c-2.761 0-5 2.239-5 5v114.764c0 2.761 2.239 5 5 5h153.014c2.761 0 5-2.239 5-5v-114.764c0-2.762-2.239-5-5-5z" fill="#5392f9"/><path d="m469.233 379.736h-26c2.761 0 5 2.239 5 5v114.764c0 2.761-2.239 5-5 5h26c2.761 0 5-2.239 5-5v-114.764c0-2.762-2.239-5-5-5z" fill="#4071f7"/><g fill="#bed9fd"><path d="m374.584 446.564h-23.103c-2.209 0-4-1.791-4-4v-23.103c0-2.209 1.791-4 4-4h23.103c2.209 0 4 1.791 4 4v23.103c0 2.209-1.791 4-4 4z"/><path d="m433.97 446.564h-23.103c-2.209 0-4-1.791-4-4v-23.103c0-2.209 1.791-4 4-4h23.103c2.209 0 4 1.791 4 4v23.103c0 2.209-1.79 4-4 4z"/></g><g><path d="m409.419 230.838v148.897h35.953v-148.897c0-2.761-2.239-5-5-5h-25.953c-2.762 0-5 2.239-5 5z" fill="#ddebfd"/><g fill="#db387e"><path d="m409.419 230.838v25.162h35.953v-25.162c0-2.761-2.239-5-5-5h-25.953c-2.762 0-5 2.239-5 5z"/><path d="m409.419 287.706h35.953v30.162h-35.953z"/></g></g></g></g><g><path d="m206.356 327.843c-12.407 0-22.5 10.093-22.5 22.5 0 12.406 10.093 22.499 22.5 22.499s22.5-10.093 22.5-22.499c0-12.407-10.093-22.5-22.5-22.5zm0 29.999c-4.136 0-7.5-3.364-7.5-7.5s3.364-7.5 7.5-7.5 7.5 3.364 7.5 7.5-3.364 7.5-7.5 7.5z"/><path d="m248.205 277.32c-25.888-14.889-57.771-14.911-83.697 0-3.956 2.276-4.976 7.53-2.17 11.12l21.122 27.026c2.101 2.689 5.75 3.621 8.882 2.268 4.443-1.918 9.158-2.891 14.015-2.891s9.572.973 14.015 2.891c3.132 1.352 6.782.42 8.883-2.268l21.121-27.026c2.81-3.597 1.778-8.848-2.171-11.12zm-27.422 24.625c-9.357-2.803-19.484-2.807-28.853 0l-12.105-15.489c16.373-6.824 35.447-7.343 53.064 0z"/><path d="m122.193 350.612c.05 29.864 15.97 57.486 41.849 72.483 3.948 2.289 9.009.544 10.715-3.68l12.845-31.805c1.278-3.163.259-6.79-2.478-8.826-7.8-5.802-12.888-14.599-14.015-24.274-.395-3.389-3.027-6.084-6.405-6.559l-33.966-4.778c-4.501-.641-8.552 2.87-8.545 7.439zm35.037 11.435c2.25 9.501 7.311 18.277 14.427 24.988l-7.361 18.228c-14.623-11.171-24.165-27.674-26.532-45.954z"/><path d="m237.956 419.415c1.707 4.226 6.771 5.967 10.715 3.68 25.838-14.974 41.799-42.575 41.849-72.483.007-4.559-4.03-8.078-8.545-7.439l-33.966 4.778c-3.378.475-6.01 3.17-6.405 6.558-1.125 9.657-6.198 18.46-14.015 24.275-2.737 2.036-3.754 5.663-2.477 8.826zm17.527-57.368 19.467-2.739c-2.362 18.247-11.884 34.765-26.532 45.954l-7.361-18.228c7.121-6.717 12.176-15.488 14.426-24.987z"/><path d="m165.481 62.082h15.451c12.657 0 22.954-10.297 22.954-22.954s-10.297-22.954-22.954-22.954h-15.451c-12.657 0-22.954 10.297-22.954 22.954s10.297 22.954 22.954 22.954zm0-30.908h15.451c4.386 0 7.954 3.568 7.954 7.954s-3.568 7.954-7.954 7.954h-15.451c-4.386 0-7.954-3.568-7.954-7.954s3.568-7.954 7.954-7.954z"/><path d="m474.228 449.618c4.142 0 7.5-3.358 7.5-7.5v-57.382c0-6.892-5.607-12.5-12.5-12.5h-16.361v-141.396c0-6.893-5.607-12.5-12.5-12.5h-25.952c-6.893 0-12.5 5.607-12.5 12.5v141.397h-73.23c-10.827-43.632-16.779-92.039-16.779-137.025v-16.973h9.289c6.893 0 12.5-5.607 12.5-12.5v-24.097c0-6.893-5.607-12.5-12.5-12.5h-49.248v-27.079h52.99c15.859 0 28.902-12.282 30.118-27.834 13.113-1.323 25.263-7.08 34.694-16.541 14.028-14.073 19.247-33.573 15.579-51.683-.822-4.06-4.78-6.686-8.839-5.862-4.06.822-6.684 4.78-5.862 8.839 2.673 13.201-1.054 27.635-11.501 38.116-7.986 8.012-18.615 12.425-29.928 12.425-4.99 0-9.05 4.042-9.05 9.01v3.32c0 8.387-6.823 15.21-15.21 15.21h-53.17c-8.172 0-14.82 6.644-14.82 14.81v27.269h-102.9v-39.779c0-17.97 14.62-32.59 32.59-32.59 3.576 0 7.09.581 10.518 1.751 4.187 1.382 8.735-.083 11.302-3.637 9.342-12.876 25.788-18.976 41.477-14.888 6.43 1.718 12.661-3.199 12.642-9.856 0-10.068 8.191-18.26 18.26-18.26 3.967 0 7.738 1.249 10.897 3.605 5.999 4.49 14.57 1.129 15.96-6.199 3.906-20.469 21.911-34.88 42.792-34.269 8.973.263 17.49 3.363 24.631 8.964 3.258 2.556 7.973 1.987 10.53-1.272s1.987-7.974-1.272-10.53c-9.682-7.594-21.249-11.798-33.45-12.155-25.974-.773-48.665 15.654-56.297 39.836-4.292-1.962-8.963-2.979-13.792-2.979-16.345 0-29.974 11.851-32.745 27.455-19.259-2.875-37.885 4.863-49.596 18.938-3.86-.999-7.835-1.503-11.859-1.503-26.241 0-47.59 21.349-47.59 47.59v39.779h-49.253c-6.893 0-12.5 5.607-12.5 12.5v24.097c0 6.893 5.607 12.5 12.5 12.5h9.285v16.973c0 46.024-6.239 95.834-17.567 140.256-1.213 4.757 2.392 9.355 7.273 9.355 3.347 0 6.397-2.257 7.262-5.648 11.628-45.598 18.032-96.724 18.032-143.963v-16.973h182.829v16.973c0 45.047 5.804 93.451 16.408 137.379-5.496 1.313-9.599 6.254-9.599 12.146v112.262h-256.357c15.164-23.993 28.104-51.909 38.494-83.057 1.311-3.929-.812-8.177-4.742-9.488-3.929-1.312-8.177.812-9.488 4.742-10.549 31.627-23.779 59.717-39.331 83.502-2.498 3.839-2.693 8.727-.507 12.755 2.189 4.037 6.402 6.545 10.993 6.545h426.451c6.893 0 12.5-5.607 12.5-12.5v-22.382c0-4.142-3.358-7.5-7.5-7.5s-7.5 3.358-7.5 7.5v19.883h-148.014v-109.763h148.013v54.882c0 4.141 3.358 7.499 7.5 7.499zm-381.935-265.477h226.402v19.097h-226.402zm345.574 96.066h-20.952v-16.706h20.952zm-20.952 15h20.952v15.162h-20.952zm20.952-61.867v15.162h-20.952v-15.162zm-20.952 92.029h20.952v46.868h-20.952z"/><path d="m351.477 407.961c-6.341 0-11.5 5.159-11.5 11.5v23.103c0 6.341 5.159 11.5 11.5 11.5h23.103c6.341 0 11.5-5.159 11.5-11.5v-23.103c0-6.341-5.159-11.5-11.5-11.5zm19.603 31.103h-16.103v-16.103h16.103z"/><path d="m410.863 407.961c-6.341 0-11.5 5.159-11.5 11.5v23.103c0 6.341 5.159 11.5 11.5 11.5h23.103c6.341 0 11.5-5.159 11.5-11.5v-23.103c0-6.341-5.159-11.5-11.5-11.5zm19.603 31.103h-16.103v-16.103h16.103z"/></g></g></svg>