<svg id="Capa_1" enable-background="new 0 0 512 512" height="512" viewBox="0 0 512 512" width="512" xmlns="http://www.w3.org/2000/svg"><g><g><g><path d="m65.034 215.491c-2.483-3.167-.927-7.85 2.974-8.841 84.722-21.537 205.086 77.087 139.442 159.833-8.203 10.34-57.042 27.68-88.339-15.748-30.523-42.356-10.207-79.287-54.077-135.244z" fill="#bce097"/><path d="m445.043 245.73c4.178-2.521 4.16-8.619-.028-11.124-93.686-56.061-351.249 49.13-271.568 163.411 20.216 28.995 85.742 37.754 136.973 4.172 59.067-38.719 49.264-104.947 134.623-156.459z" fill="#9cd169"/><path d="m445.016 234.606c-4.945-2.959-10.352-5.464-16.136-7.547 1.224 2.823.376 6.382-2.573 8.162-85.36 51.512-75.556 117.74-134.623 156.458-36.58 23.979-80.444 26.366-109.902 15.218 26.264 21.536 83.098 25.144 128.639-4.708 59.066-38.719 49.263-104.946 134.623-156.458 4.177-2.522 4.159-8.619-.028-11.125z" fill="#68b181"/><path d="m254.927 180.16h47.968c3.402 0 6.16-2.758 6.16-6.16v-77.83h-60.287v77.83c0 3.402 2.757 6.16 6.159 6.16z" fill="#407194"/><g fill="#ddebfd"><path d="m261.514 82.063h-29.023v-60.052c0-8.014 6.497-14.511 14.511-14.511s14.511 6.497 14.511 14.511v60.052z"/><path d="m325.331 82.063h-29.023v-60.052c0-8.014 6.497-14.511 14.511-14.511s14.511 6.497 14.511 14.511v60.052z"/></g><path d="m286.364 142.764h-14.906c-31.516 0-57.064-25.548-57.064-57.064v-27.072c0-4.075 3.304-7.379 7.379-7.379h114.275c4.075 0 7.379 3.304 7.379 7.379v27.072c.001 31.516-25.547 57.064-57.063 57.064z" fill="#6cbff8"/><path d="m336.049 51.249h-26c4.075 0 7.379 3.304 7.379 7.379v27.072c0 29.644-22.605 54.001-51.517 56.791 1.826.176 3.675.273 5.547.273h14.906c31.516 0 57.064-25.548 57.064-57.064v-27.072c0-4.075-3.304-7.379-7.379-7.379z" fill="#5fa7ee"/></g></g><g><path d="m448.867 228.17c-44.481-26.618-114.469-17.188-164.396-.566v-39.944h18.42c7.532 0 13.66-6.128 13.66-13.66v-31.199c5.846-3.101 11.248-7.118 16.015-12.001 2.894-2.964 2.836-7.712-.127-10.606-2.965-2.894-7.712-2.837-10.606.127-9.678 9.914-22.39 14.943-35.468 14.943h-14.906c-27.33 0-49.564-22.234-49.564-49.563v-26.952h114.034v26.952c0 2.622-.206 5.254-.613 7.822-.647 4.091 2.144 7.933 6.235 8.581 4.091.646 7.933-2.144 8.581-6.235.529-3.342.797-6.763.797-10.168v-27.073c0-8.205-6.675-14.879-14.879-14.879h-3.219v-21.739c0-12.136-9.874-22.01-22.01-22.01-12.137 0-22.01 9.874-22.01 22.01v21.739h-19.8v-21.739c0-12.136-9.874-22.01-22.01-22.01-12.137 0-22.01 9.874-22.01 22.01v21.739h-3.217c-8.204 0-14.879 6.675-14.879 14.879v27.072c0 24.7 13.949 46.195 34.376 57.048v31.252c0 7.532 6.128 13.66 13.66 13.66h14.54v45.342c-19.846 7.692-38.32 17.087-54.435 27.667-14.543-20.783-36.864-39.006-62.345-50.696-29.474-13.521-60.204-17.283-86.526-10.593-8.903 2.261-12.973 13.147-7.036 20.738 21.148 26.967 26.503 47.954 31.934 76.532.773 4.067 4.695 6.741 8.769 5.968 4.069-.773 6.741-4.699 5.968-8.769-4.889-25.717-9.552-45.466-25.467-69.883 35.26 14.748 71.689 43.105 93.04 73.129-18.567 22.823-25.67 47.035-21.12 70.826-10.435-3.879-19.504-11.09-27.052-21.561-4.58-6.366-8.176-12.919-10.996-20.034-1.526-3.851-5.884-5.732-9.736-4.209-3.851 1.526-5.735 5.885-4.209 9.736 3.28 8.275 7.455 15.886 12.769 23.272 11.606 16.102 26.921 26.326 44.494 29.803 2.035 4.709 4.543 9.384 7.521 14.01-5.067 13.484-7.64 26.497-7.64 38.731v10.79c0 35.036 28.5 63.54 63.53 63.54 35.036 0 63.54-28.504 63.54-63.54v-25.139c10.524-3.721 20.647-8.687 30.062-14.859 28.057-18.392 41.232-42.276 55.182-67.562 16.648-30.179 33.862-61.385 79.204-88.747 9.022-5.446 8.982-18.574-.055-23.982zm-145.056-206.16c0-3.865 3.145-7.01 7.01-7.01s7.01 3.145 7.01 7.01v21.739h-14.02zm-63.82 0c0-3.865 3.145-7.01 7.01-7.01s7.01 3.145 7.01 7.01v21.739h-14.02zm16.28 126.433c4.874 1.18 9.956 1.821 15.188 1.821h14.906c5.189 0 10.274-.62 15.187-1.797v24.193h-45.28v-24.217zm-167.46 62.798c18.323-.739 38.196 3.453 57.625 12.366 23.14 10.615 43.296 27.056 56.315 45.707-6.973 5.264-13.362 10.758-19.066 16.429-22.736-30.786-58.78-58.864-94.874-74.502zm168.581 43.142c48.887-22.47 122.819-38.759 172.301-18.962-65.428 7.604-124.506 27.448-171.752 57.832-34.169 21.975-66.448 52.332-85.295 88.683-26.444-54.52 29.62-102.215 84.746-127.553zm12.079 194.077c0 26.765-21.775 48.54-48.54 48.54-26.759 0-48.53-21.775-48.53-48.54v-10.79c0-8.06 1.347-16.606 4.002-25.515 23.563 19.81 62.227 22.727 93.068 15.553zm87.109-114.807c-13.59 24.636-25.327 45.912-50.271 62.263-48.038 31.491-104.96 22.372-124.205.949 16.686-37.595 49.76-69.007 83.95-90.996 43.345-27.876 97.25-46.531 157.108-54.526-35.814 26.537-52.039 55.948-66.582 82.31z"/><path d="m269.082 89.507c-4.142 0-7.5 3.358-7.5 7.5s3.358 7.5 7.5 7.5h19.658c4.142 0 7.5-3.358 7.5-7.5s-3.358-7.5-7.5-7.5z"/></g></g></svg>