<svg id="Capa_1" enable-background="new 0 0 512 512" height="512" viewBox="0 0 512 512" width="512" xmlns="http://www.w3.org/2000/svg"><g><g><g><path d="m442.371 200.947c-31.064 0-31.064-17.008-62.129-17.008-31.063 0-31.063 17.008-62.126 17.008-31.062 0-31.062-17.008-62.124-17.008-31.061 0-31.061 17.008-62.121 17.008-31.062 0-31.062-17.008-62.124-17.008s-31.062 17.008-62.125 17.008c-29.16 0-30.944-14.989-56.753-16.824-2.897-.206-5.369 2.086-5.369 4.99v273.737c0 2.761 2.239 5 5 5h487c2.761 0 5-2.239 5-5v-273.737c0-2.904-2.472-5.196-5.369-4.99-25.812 1.834-27.597 16.824-56.76 16.824z" fill="#6cbff8"/><path d="m499.131 184.122c-8.565.609-14.479 2.669-19.631 5.146v273.581c0 2.761-2.239 5-5 5h25c2.761 0 5-2.239 5-5v-273.736c0-2.904-2.472-5.196-5.369-4.991z" fill="#5fa7ee"/><path d="m377.837 136.333h47.356v331.517h-47.356z" fill="#407194"/><path d="m401.192 136.333h24v331.517h-24z" fill="#365f7e"/><path d="m331.323 131.018v-23.199c0-2.935 2.38-5.315 5.315-5.315h129.753c2.935 0 5.315 2.38 5.315 5.315v23.199c0 2.935-2.38 5.315-5.315 5.315h-129.753c-2.935 0-5.315-2.38-5.315-5.315z" fill="#d3effd"/><path d="m466.391 102.504h-24c2.935 0 5.315 2.38 5.315 5.315v23.199c0 2.935-2.38 5.315-5.315 5.315h24c2.935 0 5.315-2.38 5.315-5.315v-23.199c0-2.935-2.379-5.315-5.315-5.315z" fill="#94d8e6"/><path d="m346.498 52.014 27.592 50.49h54.85l27.592-50.49c1.936-3.542-.628-7.864-4.664-7.864h-100.706c-4.037.001-6.6 4.322-4.664 7.864z" fill="#9cd169"/><path d="m451.868 44.151h-24c4.036 0 6.599 4.322 4.664 7.864l-27.592 50.49h24l27.592-50.49c1.935-3.543-.628-7.864-4.664-7.864z" fill="#68b181"/><g fill="#ffc269"><path d="m230.746 242.298c-12.77 0-23.122 9.166-23.122 20.473s10.352 48.255 23.122 48.255 23.122-36.948 23.122-48.255-10.352-20.473-23.122-20.473z"/><path d="m164.309 357.369c6.385 11.059 19.499 15.441 29.291 9.788s36.614-33.092 30.229-44.152c-6.385-11.059-43.559-1.55-53.351 4.103-9.792 5.654-12.554 19.202-6.169 30.261z"/><path d="m297.182 357.369c6.385-11.059 3.623-24.607-6.169-30.261-9.792-5.653-46.966-15.162-53.351-4.103s20.437 38.498 30.229 44.152 22.907 1.271 29.291-9.788z"/></g><ellipse cx="230.746" cy="319.012" fill="#ddebfd" rx="20.473" ry="20.473" transform="matrix(.383 -.924 .924 .383 -152.286 410.113)"/><path d="m330.712 303.094v31.837c0 6.887 5.583 12.471 12.471 12.471h19.686v-56.779h-19.686c-6.888 0-12.471 5.583-12.471 12.471z" fill="#9cd169"/><path d="m465.994 318.245c.422 22.043-18.041 40.085-40.088 40.085h-59.037c-2.209 0-4-1.791-4-4v-70.637c0-2.209 1.791-4 4-4h59.814c21.458.001 38.902 17.191 39.311 38.552z" fill="#ddebfd"/><path d="m426.682 279.694h-24c21.715 0 39.319 17.604 39.319 39.319s-17.604 39.319-39.319 39.319h24c21.715 0 39.319-17.604 39.319-39.319s-17.604-39.319-39.319-39.319z" fill="#bed9fd"/></g></g><g><path d="m508.03 179.979c-2.53-2.362-5.974-3.583-9.434-3.34-27.844 1.984-29.631 16.811-56.227 16.811-3.51 0-6.713-.242-9.68-.729v-48.889h33.701c7.065 0 12.814-5.749 12.814-12.814v-23.199c0-7.066-5.749-12.815-12.814-12.815h-24.807l21.528-39.394c2.192-4.01 2.108-8.751-.223-12.683-2.331-3.931-6.451-6.277-11.021-6.277h-100.706c-4.57 0-8.69 2.347-11.021 6.277-2.331 3.931-2.415 8.672-.223 12.683l21.528 39.394h-24.807c-7.065 0-12.814 5.749-12.814 12.815v23.199c0 7.066 5.749 12.814 12.814 12.814h33.702v33.225c-25.073 3.242-26.452 16.393-52.22 16.393-28.177 0-28.988-17.01-62.13-17.01-32.97 0-34.022 17.01-62.12 17.01-28 0-29.16-17.01-62.12-17.01-33.214 0-33.818 17.01-62.13 17.01-26.819 0-28.164-14.812-56.235-16.812-3.45-.238-6.886.98-9.416 3.342-2.522 2.354-3.969 5.682-3.969 9.13v44.18c0 4.142 3.358 7.5 7.5 7.5s7.5-3.358 7.5-7.5v-41.438c20.664 2.459 24.585 16.598 54.62 16.598 33.134 0 33.916-17.01 62.13-17.01 28 0 29.16 17.01 62.12 17.01 32.97 0 34.022-17.01 62.12-17.01 28.182 0 29.027 17.01 62.13 17.01 28.674 0 34.01-13.161 52.22-16.241v79.985h-3.471c-6.148 0-11.171 4.854-11.471 10.929h-12.215c-11.012 0-19.971 8.959-19.971 19.971v8.417h-58.217c-2.548-.403-5.09-.71-7.567-.896-1.244-3.943-3.339-7.511-6.069-10.488 6.196-12.876 10.01-29.739 10.01-37.356 0-15.422-13.736-27.97-30.62-27.97-16.889 0-30.63 12.547-30.63 27.97 0 7.611 3.817 24.469 10.017 37.351-2.733 2.979-4.831 6.55-6.075 10.496-14.245 1.081-30.748 6.193-37.331 9.997-6.622 3.822-11.15 10.249-12.752 18.098-1.534 7.515-.171 15.473 3.834 22.406 4.002 6.938 10.212 12.097 17.486 14.527 7.807 2.607 15.612 1.726 22.053-1.991 6.596-3.811 19.284-15.541 27.336-27.337 3.913.868 7.993.914 12.114 0 8.052 11.796 20.74 23.525 27.339 27.339 6.44 3.717 14.247 4.595 22.05 1.989 7.274-2.431 13.484-7.59 17.483-14.522 6.911-11.962 5.4-25.803-1.922-34.612h21.46v8.42c0 11.012 8.959 19.971 19.971 19.971h12.215c.3 6.075 5.323 10.929 11.471 10.929h3.471v94.519h-355.339v-192.061c0-4.142-3.358-7.5-7.5-7.5s-7.5 3.358-7.5 7.5v194.56c0 6.893 5.607 12.5 12.5 12.5h487c6.893 0 12.5-5.607 12.5-12.5v-273.74c0-3.448-1.447-6.776-3.97-9.131zm-277.28 69.821c8.613 0 15.62 5.818 15.62 12.97 0 4.994-2.968 18.674-7.827 29.383-5.005-1.455-10.379-1.515-15.587-.002-4.865-10.714-7.835-24.393-7.835-29.382-.001-7.151 7.011-12.969 15.629-12.969zm-40.899 110.864c-6.496 3.749-14.992-.016-19.047-7.046-2.172-3.759-2.928-7.988-2.128-11.907.731-3.582 2.703-6.46 5.557-8.107 4.318-2.495 17.654-6.763 29.354-7.907 1.286 5.223 4.043 9.87 7.805 13.482-6.844 9.565-17.216 18.985-21.541 21.485zm27.922-41.652c0-7.153 5.819-12.973 12.973-12.973s12.973 5.819 12.973 12.973-5.819 12.973-12.973 12.973-12.973-5.82-12.973-12.973zm72.91 34.61c-4.085 7.084-12.597 10.763-19.04 7.044-4.328-2.501-14.699-11.921-21.543-21.486 3.763-3.612 6.521-8.26 7.807-13.485 11.366 1.109 24.823 5.291 29.358 7.912 6.495 3.746 7.486 12.978 3.418 20.015zm135.222-2.791h-55.536v-63.637h56.313c17.213 0 31.482 13.994 31.812 31.195.161 8.388-3.069 16.391-9.096 22.534-6.177 6.296-14.74 9.908-23.493 9.908zm-71.058-299.181h93.336l-23.691 43.354h-45.954zm-16.024 58.354h125.383v18.828c-40.847 0-89.194 0-125.383 0zm46.517 33.828h32.351v128.361h-32.351zm-47.128 191.098v-31.837c0-2.741 2.229-4.971 4.971-4.971h12.187v41.779h-12.187c-2.742 0-4.971-2.23-4.971-4.971zm158.788 125.42h-64.308v-24.025c0-4.142-3.357-7.5-7.5-7.5s-7.5 3.358-7.5 7.5v24.025h-32.352v-94.519h32.351v35.489c0 4.142 3.357 7.5 7.5 7.5s7.5-3.358 7.5-7.5v-35.991c10.309-1.505 20.039-6.383 27.415-13.902 8.871-9.042 13.625-20.877 13.387-33.325-.445-23.281-18.245-42.555-40.802-45.504v-64.727c3.056.383 6.266.579 9.68.579 30.109 0 33.881-14.134 54.63-16.598v268.498z"/><path d=""/><path d="m42.56 281.984c0 4.142 3.358 7.5 7.5 7.5h45.435l-3.423 3.826c-2.762 3.087-2.498 7.829.589 10.59 3.094 2.767 7.834 2.492 10.59-.589l11.361-12.701c4.38-4.897 4.383-12.348 0-17.25l-11.361-12.7c-2.763-3.087-7.503-3.351-10.59-.589s-3.351 7.503-.589 10.59l3.419 3.822h-45.431c-4.142.001-7.5 3.359-7.5 7.501z"/><path d="m50.06 363.536h45.435l-3.423 3.827c-2.762 3.087-2.498 7.829.589 10.59 3.094 2.767 7.834 2.492 10.59-.589l11.362-12.701c4.252-4.755 4.504-12.211-.001-17.249l-11.361-12.7c-2.763-3.087-7.503-3.351-10.59-.589s-3.351 7.503-.589 10.59l3.419 3.822h-45.431c-4.142 0-7.5 3.358-7.5 7.5s3.358 7.499 7.5 7.499z"/></g></g></svg>