<svg id="Capa_1" enable-background="new 0 0 512 512" height="512" viewBox="0 0 512 512" width="512" xmlns="http://www.w3.org/2000/svg"><g><g><g><path d="m328.06 110.695h-41.847c-4.374 0-7.919-3.546-7.919-7.919v-49.037c0-4.374 3.546-7.919 7.919-7.919h41.847c4.374 0 7.919 3.546 7.919 7.919v49.037c.001 4.374-3.545 7.919-7.919 7.919z" fill="#407194"/><path d="m328.06 45.82h-23c4.374 0 7.919 3.545 7.919 7.919v49.037c0 4.374-3.546 7.919-7.919 7.919h23c4.374 0 7.919-3.546 7.919-7.919v-49.037c.001-4.374-3.545-7.919-7.919-7.919z" fill="#365f7e"/><path d="m399.787 57.052h33.641v93.194h-33.641z" fill="#ffc269"/><path d="m399.787 57.052-31.304-43.205c-1.916-2.645-.027-6.347 3.239-6.347h89.771c3.266 0 5.155 3.702 3.239 6.347l-31.304 43.205z" fill="#6cbff8"/><path d="m175.479 449.506h-70.973c-13.762 0-24.918-11.156-24.918-24.918v-146.46c0-2.423-1.964-4.387-4.387-4.387h-27.845v-30.709h38.024c13.762 0 24.918 11.156 24.918 24.918v146.459c0 2.423 1.964 4.387 4.387 4.387h60.794z" fill="#ffc269"/><path d="m468.288 146.801c-23.75-38.518-86.931-66.065-161.151-66.065s-137.401 27.546-161.151 66.065z" fill="#9cd169"/><path d="m307.137 80.736c-5.055 0-10.057.132-15 .383 67.641 3.425 124.018 29.787 146.151 65.682h30c-23.75-38.519-86.931-66.065-161.151-66.065z" fill="#68b181"/><path d="m421.391 504.5h-228.508c-23.365 0-42.307-18.941-42.307-42.307v-296.373h313.121v296.374c.001 23.365-18.941 42.306-42.306 42.306z" fill="#407194"/><path d="m438.698 165.82v296.374c0 23.365-18.941 42.307-42.307 42.307h25c23.365 0 42.307-18.941 42.307-42.307v-296.374z" fill="#365f7e"/><path d="m117.672 135.459v22.683c0 4.24 3.437 7.677 7.677 7.677h363.576c4.24 0 7.677-3.437 7.677-7.677v-22.683c0-4.24-3.437-7.677-7.677-7.677h-363.576c-4.24 0-7.677 3.437-7.677 7.677z" fill="#ffc269"/><path d="m488.925 127.782h-25c4.24 0 7.677 3.437 7.677 7.677v22.683c0 4.24-3.437 7.677-7.677 7.677h25c4.24 0 7.677-3.437 7.677-7.677v-22.683c.001-4.24-3.437-7.677-7.677-7.677z" fill="#ffa95f"/><g><path d="m192.237 268.004c-1.826-2.329-.682-5.771 2.186-6.5 62.285-15.834 150.774 56.672 102.514 117.505-6.03 7.601-41.936 20.349-64.944-11.577-22.44-31.139-7.504-58.29-39.756-99.428z" fill="#bce097"/><path d="m421.165 311.018c2.346-1.416 2.336-4.84-.015-6.247-52.609-31.481-197.243 27.588-152.498 91.762 11.352 16.282 48.148 21.202 76.917 2.343 33.168-21.742 27.662-58.932 75.596-87.858z" fill="#9cd169"/></g><path d="m47.356 232.218v52.337c0 2.423-1.964 4.387-4.387 4.387h-23.184c-2.423 0-4.387-1.964-4.387-4.387v-52.337c0-2.423 1.964-4.387 4.387-4.387h23.184c2.423-.001 4.387 1.964 4.387 4.387z" fill="#9cd169"/></g></g><g><path d="m488.925 120.282h-33.57c-4.432-3.943-9.249-7.676-14.425-11.179v-49.622l29.876-41.234c2.549-3.518 2.905-8.106.931-11.975-1.975-3.869-5.9-6.272-10.244-6.272h-89.771c-4.344 0-8.27 2.404-10.243 6.273-1.975 3.869-1.617 8.458.932 11.974l29.88 41.24v26.53c-15.206-4.903-31.631-8.473-48.81-10.574v-21.703c0-8.503-6.918-15.42-15.421-15.42h-41.85c-8.503 0-15.42 6.917-15.42 15.42v21.704c-45.419 5.556-85.55 21.427-111.865 44.838h-33.576c-8.368 0-15.177 6.809-15.177 15.177v22.683c0 8.369 6.809 15.177 15.177 15.177h17.728v170.181c0 4.142 3.357 7.5 7.5 7.5s7.5-3.358 7.5-7.5v-170.181h228.396c4.143 0 7.5-3.358 7.5-7.5s-3.357-7.5-7.5-7.5h-261.124c-.098 0-.177-.08-.177-.177v-22.683c0-.098.079-.177.177-.177h363.576c.098 0 .178.08.178.177v22.683c0 .098-.08.177-.178.177h-67.452c-4.143 0-7.5 3.358-7.5 7.5s3.357 7.5 7.5 7.5h34.725v288.874c0 19.192-15.614 34.807-34.807 34.807h-228.508c-19.192 0-34.807-15.614-34.807-34.807 0-4.401 0 22.351 0-83.693 0-4.142-3.357-7.5-7.5-7.5s-7.5 3.358-7.5 7.5v32.8h-25.276v-143.35c0-17.876-14.544-32.42-32.42-32.42h-30.525v-3.312c0-6.555-5.332-11.887-11.887-11.887h-23.184c-6.555 0-11.887 5.333-11.887 11.887v52.337c0 6.555 5.332 11.887 11.887 11.887h23.185c6.555 0 11.887-5.333 11.887-11.887v-3.314h17.234v143.35c0 17.876 14.544 32.42 32.42 32.42h38.566v5.184c0 27.463 22.343 49.807 49.807 49.807h228.508c27.464 0 49.807-22.343 49.807-49.807v-288.876h17.728c8.369 0 15.178-6.809 15.178-15.177v-22.683c-.001-8.369-6.81-15.177-15.179-15.177zm-34.29-105.282-25.034 34.552h-25.985l-25.035-34.552zm-47.345 49.552h18.64v35.557c-5.904-3.142-12.125-6.042-18.64-8.671zm-121.5-10.812c0-.228.192-.42.42-.42h41.85c.229 0 .421.192.421.42v20.257c-14.307-1.009-28.358-1.01-42.69 0v-20.257zm144.896 66.542h-247.092c65.196-42.765 181.995-42.673 247.092 0zm-390.831 161.16h-16.958v-46.111h16.958zm64.655 160.568c-9.605 0-17.42-7.814-17.42-17.42v-146.46c0-6.556-5.334-11.89-11.89-11.89h-20.345v-15.71h30.525c9.605 0 17.42 7.815 17.42 17.42v146.46c0 6.556 5.329 11.89 11.88 11.89h28.396v15.71z"/><path d="m253.214 410.863c-1.965 4.946 1.709 10.271 6.968 10.271 2.982 0 5.804-1.792 6.972-4.732 1.031-2.595 2.172-5.138 3.369-7.653 17.903 12.798 51.551 14.497 79.157-3.6 16.438-10.775 24.382-25.175 32.063-39.101 9.14-16.567 18.59-33.699 43.297-48.609 7.044-4.25 7.29-14.72-.039-19.104-28.859-17.268-78.487-10.246-116.734 8.226-9.798-16.941-26.266-32.068-46.227-42.227-23.117-11.765-48.438-15.448-69.474-10.102-8.055 2.055-11.397 11.841-6.228 18.394 16.571 21.14 19.824 38.267 22.97 54.831 2.703 14.235 5.498 28.955 16.598 44.357 8.528 11.835 19.726 19.509 32.568 22.412.428.811.872 1.62 1.347 2.427-2.45 4.609-4.671 9.338-6.607 14.21zm115.395-52.061c-7.42 13.451-13.828 25.067-27.152 33.802-23.935 15.688-52.205 12.652-63.641 2.903 22.782-36.155 64.071-62.307 117.967-74.627-13.215 12.623-20.504 25.832-27.174 37.922zm30.226-53.935c-57.853 11.91-103.062 38.719-129.588 76.443-13-40.339 60.423-77.692 113.816-77.692 5.553 0 10.847.413 15.772 1.249zm-103.77 8.801c-5.371 3.222-10.385 6.677-14.925 10.319-16.091-21.662-39.887-41.956-66.774-57.124 30.999.392 65.946 19.837 81.699 46.805zm-56.99 49.377c-9.153-12.702-11.414-24.604-14.031-38.386-2.385-12.555-5.005-26.318-13.277-41.984 23.69 14.118 44.402 32.348 58.327 51.597-12.26 13.432-17.703 27.812-16.213 42.065-5.578-2.928-10.534-7.363-14.806-13.292z"/></g></g></svg>