<svg id="Capa_1" enable-background="new 0 0 512 512" height="512" viewBox="0 0 512 512" width="512" xmlns="http://www.w3.org/2000/svg"><g><g><g><path d="m27.883 142.226c-27.177 80.5-27.177 167.716 0 248.215 2.638 7.813 10.001 13.049 18.246 13.049h419.742c8.246 0 15.609-5.236 18.246-13.049 27.177-80.5 27.177-167.716 0-248.215-2.638-7.813-10.001-13.049-18.246-13.049h-419.742c-8.246 0-15.609 5.236-18.246 13.049z" fill="#ddebfd"/><path d="m484.117 142.226c-2.638-7.813-10.001-13.049-18.246-13.049h-28.133c8.246 0 15.609 5.236 18.246 13.049 27.177 80.5 27.177 167.716 0 248.215-2.638 7.813-10.001 13.049-18.246 13.049h28.133c8.246 0 15.609-5.236 18.246-13.049 27.177-80.499 27.177-167.715 0-248.215z" fill="#bed9fd"/><path d="m423.009 218.961c1.838-.916 2.038-3.475.366-4.668-37.406-26.699-149.039 8.699-119.484 59.35 7.499 12.851 34.694 18.749 57.328 6.397 26.095-14.243 24.228-42.362 61.79-61.079z" fill="#9cd169"/><path d="m292.137 91.674h97.062v37.504h-97.062z" fill="#6cbff8"/><path d="m365.198 91.674h24v37.504h-24z" fill="#5fa7ee"/><path d="m273.277 86.65v-21.554c0-1.879 1.041-3.615 2.718-4.464 43.115-21.836 86.231-21.836 129.346 0 1.676.849 2.718 2.585 2.718 4.464v21.554c0 2.775-2.249 5.024-5.024 5.024h-124.734c-2.774 0-5.024-2.25-5.024-5.024z" fill="#ffc269"/><path d="m405.34 60.632c-15.735-7.969-31.471-13.016-47.207-15.168 8.207 2.836 16.413 6.419 24.619 10.785 1.821.969 2.952 2.95 2.952 5.094v24.597c0 3.167-2.444 5.733-5.458 5.733h22.787c2.775 0 5.024-2.249 5.024-5.024v-21.553c.001-1.879-1.04-3.615-2.717-4.464z" fill="#ffa95f"/><g fill="#80b6fc"><path d="m421.749 363.546c-11.369 0-20.586 9.217-20.586 20.586v78.588c0 2.775 2.249 5.024 5.024 5.024h31.125c2.775 0 5.024-2.249 5.024-5.024v-78.588c-.001-11.369-9.217-20.586-20.587-20.586z"/><path d="m90.251 363.546c-11.369 0-20.586 9.217-20.586 20.586v78.588c0 2.775 2.249 5.024 5.024 5.024h31.125c2.775 0 5.024-2.249 5.024-5.024v-78.588c-.001-11.369-9.218-20.586-20.587-20.586z"/></g><path d="m319.277 393.364v41.345c0 1.665 1.35 3.014 3.014 3.014h36.752c1.665 0 3.014-1.35 3.014-3.014v-41.345c0-8.931-7.24-16.17-16.17-16.17h-10.44c-8.93 0-16.17 7.24-16.17 16.17z" fill="#ffc269"/></g></g><g><path d="m311.822 304.833c3.907 0 7.201-3.027 7.475-6.983.124-1.797.345-3.573.619-5.331 14.522 3.716 30.917 1.716 44.891-5.91 13.342-7.281 20.279-17.759 26.987-27.892 7.693-11.621 15.649-23.638 34.56-33.061 6.993-3.485 7.551-13.08 1.379-17.487-13.46-9.608-35.546-12.854-60.592-8.902-23.789 3.752-46.188 13.469-59.917 25.993-16.693 15.229-20.272 34.236-9.82 52.149 1.982 3.397 4.853 6.379 8.415 8.866-.724 3.448-1.239 6.969-1.487 10.54-.301 4.335 3.134 8.018 7.49 8.018zm67.463-54.397c-6.218 9.394-11.589 17.507-21.664 23.005-11.531 6.294-24.122 6.96-33.562 4.649 12.431-28.59 46.293-43.59 72.841-50.022-7.694 7.412-12.844 15.162-17.615 22.368zm-61.951-14.095c16.331-14.898 45.605-23.75 69.942-23.75 2.723 0 5.373.125 7.947.351-34.066 7.804-69.728 26.134-84.29 57.77-.208-.285-.402-.573-.572-.865-6.956-11.919-4.675-22.879 6.973-33.506z"/><path d="m491.229 139.802c-3.665-10.857-13.854-18.151-25.354-18.151h-69.178v-22.505h6.336c6.906 0 12.525-5.619 12.525-12.525v-21.556c0-4.747-2.616-9.021-6.83-11.156-45.166-22.874-90.967-22.874-136.135.001-4.212 2.134-6.829 6.408-6.829 11.155v21.555c0 6.906 5.619 12.525 12.525 12.525h6.336v22.505h-56.875v-30.006c0-4.142-3.358-7.501-7.501-7.501s-7.501 3.358-7.501 7.501v30.006h-49.861v-30.006c0-4.142-3.358-7.501-7.501-7.501s-7.501 3.358-7.501 7.501v30.006h-101.786c-11.501 0-21.69 7.295-25.354 18.15-3.588 10.626-6.761 21.541-9.431 32.444-.984 4.024 1.478 8.084 5.501 9.07 4.025.985 8.084-1.477 9.07-5.501 2.569-10.489 5.621-20.991 9.073-31.214 1.604-4.754 6.082-7.947 11.141-7.947h101.788v259.333h-29.575v-11.858c0-15.488-12.601-28.088-28.088-28.088s-28.088 12.6-28.088 28.088v11.858h-16.036c-5.059 0-9.538-3.196-11.145-7.95-19.297-57.151-24.733-118.898-15.721-178.565.618-4.096-2.2-7.918-6.296-8.537-4.092-.616-7.919 2.2-8.537 6.296-9.367 62.019-3.716 126.2 16.342 185.607 3.669 10.856 13.86 18.15 25.358 18.15h16.036v51.735c0 6.906 5.619 12.525 12.525 12.525h31.128c6.906 0 12.525-5.619 12.525-12.525v-51.735h29.575v56.759c0 4.142 3.358 7.501 7.501 7.501s7.501-3.358 7.501-7.501v-56.759h49.861v56.759c0 4.142 3.358 7.501 7.501 7.501s7.501-3.358 7.501-7.501v-56.759h84.018v23.721c0 5.798 4.717 10.515 10.516 10.515h36.754c5.798 0 10.516-4.717 10.516-10.515v-23.721h24.108v51.735c0 6.906 5.619 12.525 12.525 12.525h31.127c6.907 0 12.526-5.619 12.526-12.525v-51.735h16.036c11.498 0 21.688-7.294 25.363-18.167 1.217-3.629 2.363-7.193 3.408-10.592 1.217-3.96-1.007-8.156-4.966-9.373-3.956-1.215-8.156 1.006-9.373 4.966-1.008 3.279-2.115 6.72-3.286 10.213-1.608 4.756-6.086 7.952-11.145 7.952h-16.036v-11.858c0-15.488-12.601-28.088-28.088-28.088-15.488 0-28.088 12.6-28.088 28.088v11.858h-24.108v-2.626c0-12.283-9.405-22.409-21.391-23.56v-16.493h16.27c4.143 0 7.501-3.358 7.501-7.501s-3.358-7.501-7.501-7.501h-47.551c-4.143 0-7.501 3.358-7.501 7.501s3.358 7.501 7.501 7.501h16.271v16.493c-11.987 1.151-21.392 11.276-21.392 23.56v2.626h-84.018v-259.333h238.124c5.059 0 9.536 3.194 11.142 7.948 21.757 64.446 25.837 133.693 11.799 200.254-.98 4.648 2.561 9.05 7.347 9.05 3.47 0 6.587-2.423 7.332-5.954 14.59-69.186 10.35-141.162-12.266-208.148zm-387.918 320.443h-26.174v-76.118c0-7.216 5.871-13.087 13.087-13.087s13.087 5.871 13.087 13.087zm305.352-76.118c0-7.216 5.871-13.087 13.087-13.087s13.087 5.871 13.087 13.087v76.118h-26.174zm-73.222.562h10.441c4.781 0 8.671 3.889 8.671 8.671v36.863h-27.783v-26.678c0-.02.003-.039.003-.058s-.003-.038-.003-.058v-10.069c0-4.782 3.89-8.671 8.671-8.671zm-172.552-138.303h49.861v39.866h-49.861zm0 54.867h49.861v39.866h-49.861zm49.86-69.869h-49.861v-39.866h49.861zm-49.86 164.602v-39.866h49.861v39.866zm49.86-219.469h-49.861v-39.865h49.861zm68.017-109.924c40.289-19.954 79.506-19.956 119.791 0v17.551h-119.791zm18.861 32.553h82.069v22.505h-82.069z"/></g></g></svg>