<svg id="Capa_1" enable-background="new 0 0 512 512" height="512" viewBox="0 0 512 512" width="512" xmlns="http://www.w3.org/2000/svg"><g><path d="m263.364 349.893v46.227c0 10.085 8.176 18.261 18.261 18.261h10.104c10.085 0 18.261-8.176 18.261-18.261v-46.227z" fill="#9cd169"/><path d="m100.616 328.524h12.933c13.107 0 23.732 10.625 23.732 23.732v63.415h-60.396v-63.415c0-13.107 10.625-23.732 23.731-23.732z" fill="#ffc269"/><path d="m113.549 328.524h-12.933c-1.906 0-3.758.231-5.534.655 10.436 2.494 18.198 11.876 18.198 23.076v63.415h24v-63.415c0-13.106-10.625-23.731-23.731-23.731z" fill="#ffa95f"/><g fill="#ddebfd"><path d="m89.654 429.803h-29.074v60.159c0 8.029 6.509 14.537 14.537 14.537s14.537-6.509 14.537-14.537z"/><path d="m153.586 429.803h-29.075v60.159c0 8.029 6.509 14.537 14.537 14.537s14.537-6.509 14.537-14.537v-60.159z"/></g><path d="m114.549 368.993h-14.933c-31.572 0-57.166 25.594-57.166 57.166v27.121c0 4.083 3.31 7.392 7.392 7.392h114.481c4.083 0 7.392-3.31 7.392-7.392v-27.121c0-31.572-25.594-57.166-57.166-57.166z" fill="#5392f9"/><path d="m114.549 368.993h-14.933c-1.528 0-3.036.078-4.534.195 29.45 2.313 52.633 26.927 52.633 56.971v27.121c0 4.083-3.31 7.392-7.392 7.392h24c4.083 0 7.392-3.31 7.392-7.392v-27.121c0-31.572-25.594-57.166-57.166-57.166z" fill="#4071f7"/><path d="m286.677 7.5c-29.366 0-54.918 20.122-61.758 48.68-19.436 81.149-50.512 239.486-9.481 283.119 24.402 25.948 118.077 25.948 142.478 0 41.032-43.633 9.955-201.97-9.481-283.119-6.84-28.558-32.392-48.68-61.758-48.68z" fill="#ffc269"/><path d="m348.435 56.18c-6.84-28.558-32.392-48.68-61.758-48.68-4.438 0-8.787.467-13 1.346 23.66 4.937 42.952 23.092 48.758 47.334 19.436 81.149 50.512 239.486 9.481 283.119-10.402 11.061-33.393 17.403-58.239 19.034 33.44 2.195 70.239-4.147 84.239-19.034 41.031-43.633 9.955-201.97-9.481-283.119z" fill="#ffa95f"/><path d="m463.273 207.838c-20.006 12.172-38.9-55.019-62.091-49.849-10.629 2.374-19.775 19.565-17.561 40.242.831 6.932 1.573 13.835 2.204 20.677 6.382 69.485-.361 113.734-20.607 135.272-19.735 20.978-65.107 22.61-78.541 22.61s-58.805-1.633-78.541-22.61c-3.737-3.977-7.013-8.716-9.828-14.256 14.708-54.41 57.901-119.598 105.868-165.241 22.439-21.352 76.19-70.357 110.732-55.719 18.175 7.702 72.198 74.388 48.365 88.874z" fill="#9cd169"/><g fill="#68b181"><path d="m381.764 144.261c-11.103 2.401-22.018 15.458-19.705 36.364.869 7.01 1.643 13.989 2.302 20.907 6.666 70.256-.377 114.997-21.526 136.775-20.616 21.211-68.011 22.862-82.045 22.862-9.029 0-31.863-.693-52.494-6.829 19.817 20.823 64.982 22.452 78.381 22.452 13.434 0 58.805-1.633 78.541-22.61 20.246-21.539 26.988-65.788 20.607-135.272-.631-6.842-1.372-13.745-2.204-20.677-2.214-20.677 6.932-37.868 17.561-40.242 2.79-.622 5.518-.188 8.193 1.021-9.386-9.398-18.781-16.656-27.611-14.751z"/><path d="m444.027 146.088c14.426 18.674 23.107 37.434 11.331 44.362-7.664 4.513-16.346-1.202-25.464-9.988 11.406 16.264 22.219 34.166 33.378 27.376 15.021-9.129-.881-38.986-19.245-61.75z"/></g><path d="m110.08 207.838c20.006 12.172 38.9-55.019 62.091-49.849 10.629 2.374 19.775 19.565 17.561 40.242-.831 6.932-1.573 13.835-2.204 20.677-6.382 69.485.361 113.734 20.607 135.272 19.735 20.978 65.107 22.61 78.541 22.61s58.805-1.633 78.541-22.61c3.737-3.977 7.013-8.716 9.828-14.256-14.708-54.41-57.901-119.598-105.868-165.241-22.439-21.352-76.19-70.357-110.732-55.719-18.174 7.702-72.198 74.388-48.365 88.874z" fill="#bce097"/><path d="m375.043 339.919c-3.289-12.164-8.009-24.867-13.88-37.769-3.981 15.645-10.075 27.658-18.329 36.157-20.616 21.211-68.011 22.862-82.045 22.862-9.029 0-31.863-.693-52.494-6.829 19.817 20.823 64.982 22.452 78.381 22.452 13.434 0 58.805-1.633 78.541-22.61 3.948-4.201 7.18-9.065 9.826-14.263z" fill="#7fbd93"/><g><path d="m117.086 422.333c4.142 0 7.5-3.358 7.5-7.5s-3.358-7.5-7.5-7.5h-19.694c-4.142 0-7.5 3.358-7.5 7.5s3.358 7.5 7.5 7.5z"/><path d="m476.812 193.677c-1.226-16.896-15.473-37.688-23.856-48.579-9.603-12.475-24.521-28.613-34.964-33.045-13.343-5.65-29.44-4.066-48.532 4.834-4.042-20.827-8.631-41.82-13.57-62.455-7.676-32.048-36.072-54.432-69.054-54.432s-61.378 22.384-69.054 54.435c-5.262 21.982-9.781 42.886-13.58 62.449-19.091-8.898-35.187-10.479-48.527-4.824-10.44 4.424-25.359 20.562-34.962 33.037-8.383 10.889-22.629 31.679-23.859 48.576-.666 9.146 2.704 16.453 9.487 20.576 5.302 3.224 13.784 5.061 24.096-4.493 5.625-5.212 10.798-12.69 16.275-20.608 7.382-10.671 17.497-25.282 23.98-23.838 6.044 1.35 13.623 14.536 11.75 32.029-.862 7.186-1.611 14.212-2.226 20.884-.73 7.952-1.279 15.571-1.665 22.898h-31.246c-26.23 0-47.57 21.34-47.57 47.57v32.356c-16.74.552-30.19 14.337-30.19 31.213v16.703c-5.637 2.988-10.86 6.831-15.5 11.47-2.929 2.929-2.929 7.677 0 10.606s7.678 2.929 10.606 0c9.475-9.475 22.088-14.547 35.12-14.547h14.933c27.386 0 49.667 22.28 49.667 49.667v27.013c-9.885 0-96.751 0-114.266 0v-27.013c0-2.699.218-5.405.647-8.043.665-4.088-2.11-7.942-6.198-8.607-4.089-.665-7.942 2.11-8.607 6.198-.558 3.432-.841 6.949-.841 10.452v27.121c0 8.212 6.681 14.893 14.893 14.893h3.237v21.788c0 12.153 9.887 22.04 22.04 22.04 12.147 0 22.03-9.887 22.03-22.04v-21.788h19.86v21.788c0 12.153 9.887 22.04 22.04 22.04s22.04-9.887 22.04-22.04v-21.788h3.233c8.212 0 14.893-6.681 14.893-14.893v-27.121c0-24.741-13.973-46.271-34.436-57.141v-16.758c0-16.88-13.456-30.667-30.2-31.214v-32.356c0-17.959 14.611-32.57 32.57-32.57h30.679c-1.051 50.448 7.154 84.379 24.845 103.2 12.934 13.748 34.461 19.87 53.186 22.686v14.114c0 13.378 10.256 24.403 23.32 25.64v9.09c0 44.746 36.404 81.15 81.15 81.15 44.741 0 81.14-36.404 81.14-81.15v-142.16c0-25.872-20.765-46.971-46.502-47.543-.785-14.701-2.167-29.324-3.89-43.714-1.88-17.593 5.694-30.776 11.735-32.123 10.265-2.284 26.739 31.916 40.26 44.445 10.314 9.556 18.796 7.716 24.093 4.494 6.783-4.123 10.153-11.429 9.49-20.572zm-394.506 296.283c0 3.882-3.153 7.04-7.03 7.04-3.882 0-7.04-3.158-7.04-7.04v-21.788h14.07zm63.94 0c0 3.882-3.158 7.04-7.04 7.04s-7.04-3.158-7.04-7.04v-21.788h14.08zm-16.31-137.7v11.061c-4.887-1.185-9.984-1.828-15.23-1.828h-14.933c-5.197 0-10.298.62-15.227 1.805v-11.038c0-8.955 7.281-16.24 16.23-16.24h12.93c8.949 0 16.23 7.285 16.23 16.24zm156.901-170.741c-6.489-6.721-11.606-11.661-17.998-17.579h35.988c-6.439 5.961-11.516 10.861-17.99 17.579zm-57.734-109.638h23.433v31.032h-30.23c2.108-10.161 4.382-20.527 6.797-31.032zm38.433 0h38.6v31.032h-38.6zm77.032 0c2.407 10.477 4.679 20.843 6.79 31.032h-30.222v-31.032zm-38.432 46.033v31.026h-38.6v-31.026zm15.67 31.026h-.67v-31.026h33.238c.419 2.142.83 4.274 1.234 6.398-10.459 6.288-21.715 14.491-33.802 24.628zm19.222-92.059h-19.892v-30.212c9.548 7.38 16.684 17.852 19.892 30.212zm-34.892-38.479v38.48h-38.6v-38.48c6.043-2.203 12.547-3.402 19.3-3.402s13.257 1.199 19.3 3.402zm-53.6 8.267v30.212h-19.892c3.208-12.36 10.344-22.832 19.892-30.212zm-33.249 91.245h33.249v31.026h-.674c-12.09-10.14-23.348-18.345-33.809-24.635.404-2.12.815-4.25 1.234-6.391zm-5.53 231.13c-18.432-19.608-24.691-63.162-18.604-129.447.603-6.534 1.337-13.422 2.193-20.567 2.487-23.229-8.003-44.924-23.388-48.361-1.458-.325-2.883-.479-4.279-.479-14.259 0-25.385 16.083-35.305 30.424-6.423 9.285-16.128 23.314-20.241 20.818-.001 0-.002-.001-.003-.002-.872-.529-2.685-1.631-2.318-6.669 1.555-21.37 37.366-63.658 49.713-68.89 26.096-11.059 70.216 23.397 102.636 54.247 43.494 41.389 86.989 103.093 103.005 158.921-2.152 3.804-4.587 7.161-7.257 10.003-15.157 16.111-50.882 20.25-73.079 20.25-22.215-.001-57.939-4.161-73.073-20.248zm57.259 47.076v-12.437c6.572.492 12.109.608 15.817.608 3.707 0 9.242-.115 15.813-.607v12.437c0 5.933-4.827 10.76-10.76 10.76h-10.1c-5.939-.001-10.77-4.828-10.77-10.761zm155.61-107.43v142.16c0 36.475-29.67 66.15-66.14 66.15-36.475 0-66.15-29.675-66.15-66.15v-9.09c13.059-1.238 23.31-12.263 23.31-25.64v-14.114c2.471-.372 4.987-.795 7.535-1.294 33.409-6.536 47.565-19.413 56.696-37.369.004-.008.01-.015.014-.023 10.081-19.813 14.646-48.522 13.805-87.159 17.2.858 30.93 15.12 30.93 32.529zm32.901-87.257c-4.114 2.497-13.814-11.532-20.237-20.817-10.892-15.745-23.235-33.589-39.586-29.945-15.378 3.428-25.869 25.121-23.375 48.452 4.221 35.267 7.73 83.235-.767 117.719-15.387-40.808-43.94-85.991-78.48-124.341 23.97-24.967 83.099-80.172 115.054-66.635 12.352 5.241 48.166 47.538 49.715 68.898.365 5.034-1.449 6.137-2.324 6.669z"/></g></g></svg>