<svg id="Capa_1" enable-background="new 0 0 512 512" height="512" viewBox="0 0 512 512" width="512" xmlns="http://www.w3.org/2000/svg"><g><g><g><g fill="#bed9fd"><path d="m469.193 389.05c-3.86 0-7.72-1.481-10.655-4.442-5.865-5.918-5.526-15.59.365-21.481l12.911-12.911c.764-.764 1.193-1.799 1.193-2.879v-177.347c0-8.457-6.855-15.312-15.312-15.312h-66.163c-8.077 0-15.027-6.207-15.407-14.275-.406-8.614 6.458-15.725 14.983-15.725h66.586c25.025 0 45.312 20.287 45.312 45.312v178.373c0 8.379-3.329 16.415-9.253 22.34l-13.954 13.954c-2.929 2.929-6.768 4.393-10.606 4.393z"/><path d="m367.988 7.5h-117.473c-9.805 0-18.69 5.773-22.674 14.732l-39.268 88.299h40.282l27.933-62.811c.923-2.076 2.983-3.414 5.255-3.414h89.589c3.176 0 5.751 2.575 5.751 5.751v60.474h36.806v-76.831c-.001-14.47-11.731-26.2-26.201-26.2z"/><path d="m69.277 104.178h41.444v48.994h-41.444z" transform="matrix(.707 -.707 .707 .707 -64.627 101.327)"/></g><path d="m28.167 148.125-17.571-17.571c-2.137-2.137-2.137-5.601 0-7.738l73.544-73.544c2.137-2.137 5.601-2.137 7.738 0l17.571 17.571c2.137 2.137 2.137 5.601 0 7.738l-73.544 73.544c-2.137 2.137-5.601 2.137-7.738 0z" fill="#9cd169"/><g><path d="m426.24 106.684v384.684c0 7.253-5.879 13.132-13.132 13.132h-342.448c-7.253 0-13.132-5.879-13.132-13.132v-286.506c0-5.804 2.306-11.371 6.41-15.476l89.413-89.423c4.105-4.105 9.672-6.411 15.477-6.411h244.28c7.253 0 13.132 5.879 13.132 13.132z" fill="#5392f9"/><path d="m413.108 93.552h-31c7.253 0 13.132 5.879 13.132 13.132v384.684c0 7.253-5.879 13.132-13.132 13.132h31c7.253 0 13.132-5.879 13.132-13.132v-384.684c0-7.253-5.879-13.132-13.132-13.132z" fill="#4071f7"/></g><g><path d="m114.144 225.507c-1.998-2.548-.746-6.315 2.392-7.113 68.162-17.327 164.999 62.019 112.186 128.591-6.599 8.319-45.893 22.269-71.071-12.67-24.557-34.076-8.212-63.789-43.507-108.808z" fill="#bce097"/><path d="m364.67 272.579c2.567-1.549 2.556-5.296-.017-6.836-57.573-34.451-215.851 30.191-166.885 100.419 12.423 17.818 52.69 23.202 84.173 2.565 36.297-23.794 30.273-64.493 82.729-96.148z" fill="#9cd169"/></g></g></g><g><path d="m457.685 117.18h-23.95v-10.496c0-11.376-9.255-20.632-20.632-20.632h-11.418v-52.352c0-18.583-15.118-33.7-33.7-33.7h-117.47c-12.764 0-24.357 7.531-29.533 19.182l-29.741 66.87h-22.418c-7.85 0-15.23 3.057-20.781 8.608l-26.074 26.077-24.036-24.037 16.816-16.816c5.057-5.057 5.058-13.286 0-18.345l-17.571-17.571c-5.058-5.057-13.288-5.057-18.344 0l-34.8 34.8c-2.929 2.929-2.929 7.678 0 10.606 2.929 2.929 7.678 2.929 10.606 0l33.366-33.366 14.703 14.703-70.676 70.676-14.703-14.703 12.62-12.62c2.929-2.929 2.929-7.678 0-10.606-2.929-2.929-7.678-2.929-10.606 0l-14.055 14.055c-5.058 5.058-5.058 13.287 0 18.344l17.571 17.571c5.058 5.058 13.286 5.058 18.344 0l16.816-16.816 24.039 24.039-23.428 23.432c-5.55 5.55-8.607 12.93-8.607 20.779v223.668c0 4.142 3.358 7.5 7.5 7.5s7.5-3.358 7.5-7.5v-223.668c0-3.843 1.497-7.455 4.214-10.172 16.568-16.569 71.961-71.968 89.413-89.423 2.717-2.718 6.33-4.214 10.173-4.214h244.28c3.105 0 5.632 2.526 5.632 5.632v384.684c0 3.105-2.526 5.632-5.632 5.632h-342.448c-3.105 0-5.632-2.527-5.632-5.632v-27.839c0-4.142-3.358-7.5-7.5-7.5s-7.5 3.358-7.5 7.5v27.838c0 11.376 9.255 20.632 20.632 20.632h342.448c11.376 0 20.632-9.256 20.632-20.632v-329.188h23.95c4.312 0 7.82 3.503 7.82 7.81v175.923l-11.913 11.913c-8.908 8.908-9.08 23.292-.387 32.06 8.784 8.873 23.083 8.886 31.896.075l13.943-13.954c7.284-7.272 11.461-17.349 11.461-27.648v-178.369c0-29.119-23.695-52.81-52.82-52.81zm-389.059 8.826 18.699-18.699 24.037 24.037-18.698 18.7zm166.063-100.732c2.773-6.241 8.985-10.274 15.826-10.274h117.47c10.312 0 18.7 8.389 18.7 18.7v52.352h-21.81v-35.992c0-7.306-5.944-13.25-13.25-13.25h-89.59c-5.239 0-9.992 3.091-12.103 7.861l-18.41 41.381h-23.864zm115.186 26.536v34.242h-101.935l15.234-34.242zm145.63 296.55c0 6.346-2.573 12.554-7.065 17.039l-13.947 13.958c-2.921 2.92-7.69 2.943-10.632-.027-2.849-2.874-2.694-7.863.338-10.896l12.91-12.91c2.19-2.19 3.397-5.097 3.397-8.184v-177.35c0-12.578-10.237-22.81-22.82-22.81h-23.95v-15h23.95c20.854 0 37.82 16.961 37.82 37.81v178.37z"/><path d="m315.237 312.098c-2.141 3.546-1.001 8.156 2.545 10.297 3.545 2.14 8.156 1 10.297-2.545 7.717-12.783 18.559-27.632 40.461-40.85 7.268-4.387 7.508-15.176-.041-19.693-34.09-20.399-91.444-8.382-127.69 9.254-23.686-41.74-81.573-68.758-126.126-57.439-8.228 2.097-11.844 12.104-6.45 19.016 33.949 43.297 17.389 72.575 43.327 108.567 9.291 12.893 21.517 21.221 35.54 24.304 1.01 1.943 2.145 3.875 3.406 5.794-2.769 5.717-5.131 11.567-7.054 17.534-1.564 4.851 2.07 9.803 7.14 9.803 3.168 0 6.112-2.023 7.137-5.201 1.181-3.665 2.554-7.283 4.1-10.851 19.615 12.768 54.969 14.083 84.22-5.091 9.49-6.221 17.201-14.033 24.268-24.586 2.305-3.441 1.383-8.1-2.059-10.405-3.44-2.304-8.099-1.383-10.405 2.059-5.992 8.948-12.168 15.235-20.028 20.387-25.573 16.764-55.674 14.132-69.166 4.159 26.891-46.062 78.592-72.722 130.5-84.405-11.127 10.197-18.275 20.539-23.922 29.892zm-87.648-36.412c-6.32 3.767-12.159 7.82-17.395 12.089-18.021-24.491-45.109-47.422-75.674-64.238 35.977-.842 75.721 21.931 93.069 52.149zm-63.859 54.249c-19.839-27.53-10.763-53.477-31.148-90.267 27.117 15.782 50.853 36.507 66.568 58.416-13.907 15.056-19.885 31.222-17.784 47.199-6.691-3.231-12.597-8.356-17.636-15.348zm35.413 23.516c-16.959-38.777 38.382-73.43 86.249-84.997 22.004-5.317 42.631-6.117 58.599-2.6-72.972 14.284-120.286 49.512-144.848 87.597z"/></g></g></svg>