<svg id="Capa_1" enable-background="new 0 0 512 512" height="512" viewBox="0 0 512 512" width="512" xmlns="http://www.w3.org/2000/svg"><g><g><g><path d="m95.516 140.55-51.312 64.365c-1.412 1.771-2.181 3.969-2.181 6.234v99.512c0 2.761 2.239 5 5 5h20.98c2.761 0 5-2.239 5-5v-90.431c0-1.132.384-2.231 1.09-3.117l45.643-57.253c1.721-2.159 1.366-5.305-.793-7.026l-16.401-13.076c-2.159-1.722-5.305-1.367-7.026.792z" fill="#5392f9"/><path d="m215.177 227.163h214.568v233.597h-214.568z" fill="#ddebfd"/><path d="m401.745 227.163h28v233.597h-28z" fill="#bed9fd"/><path d="m174.944 494.5v-23.74c0-5.523 4.477-10 10-10h275.034c5.523 0 10 4.477 10 10v23.74c0 5.523-4.477 10-10 10h-275.034c-5.523 0-10-4.477-10-10z" fill="#9cd169"/><path d="m459.978 460.76h-28c5.523 0 10 4.477 10 10v23.74c0 5.523-4.477 10-10 10h28c5.523 0 10-4.477 10-10v-23.74c0-5.523-4.477-10-10-10z" fill="#67b59f"/><path d="m174.944 207.163v-179.663c0-11.046 8.954-20 20-20h255.034c11.046 0 20 8.954 20 20v179.663c0 11.046-8.954 20-20 20h-255.034c-11.046 0-20-8.954-20-20z" fill="#9cd169"/><path d="m449.978 7.5h-28c11.046 0 20 8.954 20 20v179.663c0 11.046-8.954 20-20 20h28c11.046 0 20-8.954 20-20v-179.663c0-11.046-8.954-20-20-20z" fill="#67b59f"/><path d="m227.943 167.163v-99.663c0-3.866 3.134-7 7-7h175.035c3.866 0 7 3.134 7 7v99.663c0 3.866-3.134 7-7 7h-175.035c-3.866 0-7-3.134-7-7z" fill="#407194"/><path d="m377.861 291.257c1.42-1.484.742-3.959-1.235-4.517-44.232-12.472-137.31 58.602-92.363 96.27 11.404 9.557 38.991 5.908 56.112-13.373 19.739-22.229 8.471-48.06 37.486-78.38z" fill="#9cd169"/></g></g><g><path d="m429.744 384.526c4.143 0 7.5-3.358 7.5-7.5v-142.363h12.733c15.163 0 27.5-12.336 27.5-27.5v-179.663c0-15.164-12.337-27.5-27.5-27.5h-255.033c-15.164 0-27.5 12.336-27.5 27.5v15.5c0 4.142 3.358 7.5 7.5 7.5s7.5-3.358 7.5-7.5v-15.5c0-6.893 5.607-12.5 12.5-12.5h255.034c6.893 0 12.5 5.607 12.5 12.5v179.663c0 6.893-5.607 12.5-12.5 12.5h-255.034c-6.893 0-12.5-5.607-12.5-12.5v-129.163c0-4.142-3.358-7.5-7.5-7.5s-7.5 3.358-7.5 7.5v129.163c0 15.164 12.336 27.5 27.5 27.5h12.733v56.867h-44.015c-23.644 0-42.88 19.236-42.88 42.88v98.33c0 15.378-12.512 27.89-27.89 27.89-15.373 0-27.88-12.511-27.88-27.89v-109.58h2.99c6.893 0 12.5-5.607 12.5-12.5v-38.2h14.43c12.098 0 21.94-9.842 21.94-21.94v-37.88c0-3.42-.814-6.84-2.354-9.888l-7.513-14.894 18.594-23.323c4.307-5.402 3.421-13.259-1.981-17.566l-16.4-13.075c-5.4-4.306-13.258-3.423-17.567 1.981l-51.313 64.365c-2.461 3.087-3.816 6.961-3.816 10.908v99.512c0 6.893 5.607 12.5 12.5 12.5h2.99v109.58c0 23.649 19.236 42.89 42.88 42.89 23.65 0 42.89-19.24 42.89-42.89v-98.33c0-15.373 12.507-27.88 27.88-27.88h44.015v146.73h-22.733c-9.649 0-17.5 7.851-17.5 17.5v23.74c0 9.649 7.851 17.5 17.5 17.5h275.034c9.649 0 17.5-7.851 17.5-17.5v-23.74c0-9.649-7.851-17.5-17.5-17.5h-22.733v-41.233c0-4.142-3.357-7.5-7.5-7.5s-7.5 3.358-7.5 7.5v41.233h-199.568v-218.597h199.567v142.363c0 4.142 3.358 7.5 7.5 7.5zm-328.616-175.015c.487.964.745 2.047.745 3.129v37.88c0 3.827-3.113 6.94-6.94 6.94h-14.43v-36.356l16.214-20.338zm-51.606 1.637c0-.564.194-1.117.545-1.558l49.754-62.41 12.491 9.958-44.085 55.299c-1.757 2.205-2.725 4.972-2.725 7.792v87.931h-15.98zm412.956 259.612v23.74c0 1.378-1.121 2.5-2.5 2.5h-275.034c-1.378 0-2.5-1.122-2.5-2.5v-23.74c0-1.378 1.122-2.5 2.5-2.5h275.034c1.379 0 2.5 1.121 2.5 2.5z"/><path d="m409.978 181.663c7.995 0 14.5-6.505 14.5-14.5v-99.663c0-7.995-6.505-14.5-14.5-14.5h-175.034c-7.995 0-14.5 6.505-14.5 14.5v99.663c0 7.995 6.505 14.5 14.5 14.5zm-174.534-113.663h174.034v98.663h-174.034z"/><path d="m345.984 374.617c10.092-11.365 13.074-23.57 15.959-35.374 3.309-13.538 6.73-27.535 21.338-42.801 5.401-5.644 2.676-14.864-4.619-16.921-15.918-4.487-37.797-.07-60.026 12.119-21.116 11.577-38.905 28.297-47.588 44.726-10.557 19.976-7.496 39.072 8.398 52.392 3.005 2.519 6.712 4.337 10.89 5.472.485 3.498 1.217 6.992 2.194 10.444 1.127 3.984 5.271 6.301 9.26 5.173 3.985-1.129 6.301-5.274 5.172-9.26-.49-1.732-.882-3.476-1.219-5.223 1.94-.184 3.917-.469 5.927-.878 13.118-2.667 25.304-9.723 34.314-19.869zm-11.217-9.96c-8.722 9.822-20.344 14.707-30.007 15.727 2.026-31.108 28.816-56.676 51.62-71.708-4.733 9.577-6.957 18.612-9.009 27.006-2.673 10.943-4.983 20.394-12.604 28.975zm-50.458-21.282c11.491-21.743 40.585-41.852 65.425-48.382-9.02 5.781-18.62 13.074-27.55 21.818-19.438 19.031-30.446 39.953-32.272 61.072-.293-.197-.572-.403-.832-.621-10.577-8.864-12.137-19.949-4.771-33.887z"/></g></g></svg>