<svg id="Capa_1" enable-background="new 0 0 512 512" height="512" viewBox="0 0 512 512" width="512" xmlns="http://www.w3.org/2000/svg"><g><g><g><path d="m341.648 162.994h-171.296v-155.494c57.099 36.145 114.197 36.145 171.296 0z" fill="#4071f7"/><path d="m218.461 121.772v27.576h75.079v-27.576c0-3.161-2.563-5.724-5.724-5.724h-63.63c-3.163 0-5.725 2.563-5.725 5.724z" fill="#ddebfd"/><path d="m287.815 116.048h-25.493c3.161 0 5.724 2.563 5.724 5.724v27.576h25.493v-27.576c0-3.161-2.562-5.724-5.724-5.724z" fill="#bed9fd"/><path d="m236.313 116.048v-31.326c0-3.379 2.739-6.118 6.118-6.118h27.138c3.379 0 6.118 2.739 6.118 6.118v31.326z" fill="#9cd169"/><path d="m329.499 12.599v145.296c0 2.816 2.283 5.099 5.099 5.099h21.177c2.816 0 5.099-2.283 5.099-5.099v-145.296c0-2.816-2.283-5.099-5.099-5.099h-21.177c-2.816 0-5.099 2.283-5.099 5.099z" fill="#5392f9"/><path d="m151.127 12.599v145.296c0 2.816 2.283 5.099 5.099 5.099h21.177c2.816 0 5.099-2.283 5.099-5.099v-145.296c0-2.816-2.283-5.099-5.099-5.099h-21.177c-2.816 0-5.099 2.283-5.099 5.099z" fill="#5392f9"/><path d="m111.277 189.199v224.872c0 22.009 17.842 39.85 39.85 39.85h209.746c22.009 0 39.85-17.842 39.85-39.85v-224.872c0-22.009-17.842-39.85-39.85-39.85h-209.746c-22.009 0-39.85 17.841-39.85 39.85z" fill="#9cd169"/><path d="m360.873 149.349h-29.572c22.009 0 39.85 17.842 39.85 39.85v224.872c0 22.009-17.842 39.85-39.85 39.85h29.572c22.009 0 39.85-17.842 39.85-39.85v-224.872c0-22.009-17.841-39.85-39.85-39.85z" fill="#68b181"/><g><circle cx="256" cy="301.635" fill="#ddebfd" r="103.334"/><path d="m309.434 255.307c1.448-1.513.757-4.038-1.259-4.606-45.105-12.718-140.02 59.758-94.186 98.169 11.629 9.745 39.76 6.024 57.219-13.637 20.129-22.668 8.638-49.008 38.226-79.926z" fill="#9cd169"/></g><path d="m134.766 476.821v22.58c0 2.816 2.283 5.099 5.099 5.099h232.272c2.816 0 5.099-2.283 5.099-5.099v-22.58c0-12.647-10.252-22.899-22.899-22.899h-196.67c-12.649 0-22.901 10.252-22.901 22.899z" fill="#5392f9"/><path d="m354.335 453.922h-29.572c12.647 0 22.899 10.252 22.899 22.899v22.58c0 2.816-2.283 5.099-5.099 5.099h29.572c2.816 0 5.099-2.283 5.099-5.099v-22.58c0-12.647-10.252-22.899-22.899-22.899z" fill="#4071f7"/></g></g><g><path d="m310.21 243.482c-16.193-4.567-38.464-.065-61.1 12.345-21.508 11.792-39.626 28.819-48.467 45.547-10.729 20.303-7.621 39.709 8.528 53.244 3.072 2.573 6.865 4.426 11.143 5.577.493 3.59 1.241 7.179 2.244 10.726 1.135 4.006 5.293 6.297 9.26 5.174 3.985-1.128 6.302-5.273 5.174-9.259-.517-1.825-.929-3.662-1.279-5.501 15.404-1.414 30.426-9.099 41.103-21.122 10.267-11.562 13.304-23.99 16.241-36.008 3.378-13.824 6.871-28.118 21.796-43.712 5.421-5.666 2.703-14.939-4.643-17.011zm-96.305 64.901c11.865-22.451 42.112-43.19 67.67-49.621-9.404 5.962-19.469 13.559-28.813 22.708-19.869 19.453-31.088 40.842-32.885 62.423-.379-.243-.742-.496-1.07-.771-10.848-9.091-12.451-20.454-4.902-34.739zm51.695 21.87c-8.964 10.096-20.933 15.092-30.859 16.097.917-14.118 7.224-33.316 28.515-54.162 7.78-7.617 16.423-14.281 24.727-19.694-5.042 9.992-7.361 19.412-9.496 28.149-2.733 11.178-5.091 20.832-12.887 29.61z"/><path d="m256 190.801c-61.114 0-110.834 49.72-110.834 110.834s49.72 110.835 110.834 110.835 110.834-49.72 110.834-110.834-49.72-110.835-110.834-110.835zm0 206.669c-52.843 0-95.834-42.991-95.834-95.834s42.991-95.834 95.834-95.834 95.834 42.991 95.834 95.834-42.991 95.834-95.834 95.834z"/><path d="m400.724 333.232c4.143 0 7.5-3.358 7.5-7.5v-136.533c0-23.557-17.295-43.144-39.853-46.75v-129.849c0-6.948-5.653-12.6-12.6-12.6h-21.171c-6.043 0-11.102 4.278-12.317 9.964-44.004 22.654-87.857 23.016-132.564 0-1.217-5.686-6.276-9.964-12.319-9.964h-21.17c-6.948 0-12.601 5.652-12.601 12.6v129.85c-22.558 3.606-39.853 23.193-39.853 46.75v224.872c0 19.972 12.435 37.083 29.964 44.029-4.05 5.165-6.475 11.663-6.475 18.721v22.58c0 6.947 5.651 12.599 12.599 12.599h232.271c6.947 0 12.599-5.652 12.599-12.599v-22.58c0-7.058-2.424-13.556-6.475-18.721 17.529-6.947 29.964-24.058 29.964-44.029v-53.339c0-4.142-3.357-7.5-7.5-7.5s-7.5 3.358-7.5 7.5v53.339c0 17.838-14.513 32.351-32.351 32.351h-209.745c-17.838 0-32.351-14.512-32.351-32.351v-224.873c0-17.837 14.514-32.349 32.353-32.349h209.742c17.839 0 32.353 14.512 32.353 32.349v136.533c0 4.142 3.357 7.5 7.5 7.5zm-30.99 163.768h-227.468v-20.179c0-8.491 6.908-15.399 15.399-15.399h196.67c8.491 0 15.399 6.908 15.399 15.399zm-16.363-355.15h-16.371v-126.85h16.371zm-178.371-126.85v41.28c0 4.142 3.357 7.5 7.5 7.5s7.5-3.358 7.5-7.5v-29.487c43.853 20.348 88.059 20.389 132 0v115.057h-20.961v-20.077c0-7.292-5.932-13.224-13.224-13.224h-4.628v-23.827c0-7.509-6.109-13.618-13.619-13.618h-27.137c-7.51 0-13.619 6.109-13.619 13.618v23.827h-4.628c-7.292 0-13.224 5.932-13.224 13.224v20.077h-20.96v-50.57c0-4.142-3.357-7.5-7.5-7.5s-7.5 3.358-7.5 7.5v50.57h-16.371v-126.85zm93.188 93.548h-24.375v-22.444h24.375zm17.851 15v18.301h-60.078v-18.301z"/></g></g></svg>