<svg id="Capa_1" enable-background="new 0 0 512 512" height="512" viewBox="0 0 512 512" width="512" xmlns="http://www.w3.org/2000/svg"><g><g><g><path d="m19.225 401.627c15.869-1.237 29.957-8.808 39.749-20.183 2.056-2.389 5.78-2.389 7.836 0 10.731 12.466 26.62 20.362 44.359 20.362s33.628-7.897 44.359-20.362c2.056-2.389 5.78-2.389 7.836 0 10.731 12.466 26.62 20.362 44.359 20.362s33.628-7.897 44.359-20.362c2.056-2.389 5.78-2.389 7.836 0 10.731 12.466 26.62 20.362 44.359 20.362s33.628-7.897 44.359-20.362c2.056-2.389 5.78-2.389 7.836 0 10.731 12.466 26.62 20.362 44.359 20.362s33.628-7.897 44.359-20.362c2.056-2.389 5.78-2.389 7.836 0 9.792 11.375 23.88 18.946 39.749 20.183 2.601.203 4.61 2.368 4.61 4.977v61.533h-482.77v-61.533c0-2.609 2.009-4.775 4.61-4.977z" fill="#6cbff8"/><path d="m412.638 328.791c-.548 0-1.103-.032-1.66-.097-7.544-.874-13.027-7.483-12.602-14.968.129-5.206.133-73.918.011-184.298-.008-7.423-6.057-13.462-13.484-13.462h-85.605c-7.879 0-14.266-6.387-14.266-14.266s6.387-14.266 14.266-14.266h85.605c23.142 0 41.991 18.825 42.016 41.963.203 183.916.027 185.432-.128 186.77-.843 7.268-7.009 12.624-14.153 12.624zm-14.189-15.91c-.014.123-.048.377-.068.758.015-.252.038-.505.068-.758z" fill="#bed9fd"/><path d="m85.209 316.166c-.155-1.338-.331-2.854-.128-186.77.025-23.138 18.874-41.963 42.016-41.963h85.605c7.879 0 14.266 6.387 14.266 14.266s-6.387 14.266-14.266 14.266h-85.605c-7.427 0-13.476 6.039-13.484 13.462-.122 110.38-.118 179.092.011 184.298.425 7.484-5.058 14.093-12.602 14.968-.558.065-1.112.097-1.66.097-7.144.001-13.31-5.355-14.153-12.624zm28.41-2.527c-.02-.382-.054-.635-.068-.758.03.253.053.506.068.758z" fill="#bed9fd"/><path d="m453.008 467.75h-80.776c-6.108 0-11.06-4.952-11.06-11.06v-146.196c0-6.108 4.952-11.06 11.06-11.06h80.776c6.108 0 11.06 4.952 11.06 11.06v146.196c0 6.108-4.952 11.06-11.06 11.06z" fill="#407194"/><path d="m453.008 299.434h-27c6.108 0 11.06 4.952 11.06 11.06v146.196c0 6.108-4.952 11.06-11.06 11.06h27c6.108 0 11.06-4.952 11.06-11.06v-146.196c0-6.108-4.952-11.06-11.06-11.06z" fill="#365f7e"/><path d="m58.992 467.75h80.776c6.108 0 11.06-4.952 11.06-11.06v-146.196c0-6.108-4.952-11.06-11.06-11.06h-80.776c-6.108 0-11.06 4.952-11.06 11.06v146.196c0 6.108 4.952 11.06 11.06 11.06z" fill="#407194"/><path d="m139.769 299.434h-27c6.108 0 11.06 4.952 11.06 11.06v146.196c0 6.108-4.952 11.06-11.06 11.06h27c6.108 0 11.06-4.952 11.06-11.06v-146.196c0-6.108-4.952-11.06-11.06-11.06z" fill="#365f7e"/><path d="m453.026 432.79c-2.056-2.389-5.78-2.389-7.836 0-10.731 12.466-26.62 20.362-44.359 20.362s-33.628-7.897-44.359-20.362c-2.056-2.389-5.78-2.389-7.836 0-10.731 12.466-26.62 20.362-44.359 20.362s-33.628-7.897-44.359-20.362c-2.056-2.389-5.78-2.389-7.836 0-10.731 12.466-26.62 20.362-44.359 20.362s-33.628-7.897-44.359-20.362c-2.056-2.389-5.78-2.389-7.836 0-10.731 12.466-26.62 20.362-44.359 20.362s-33.628-7.897-44.359-20.362c-2.056-2.389-5.78-2.389-7.836 0-10.731 12.466-26.62 20.362-44.359 20.362v46.115c0 2.916 2.489 5.253 5.393 4.987 15.549-1.422 29.335-8.929 38.966-20.117 2.056-2.389 5.78-2.389 7.836 0 10.731 12.466 26.62 20.362 44.359 20.362s33.628-7.897 44.359-20.362c2.056-2.389 5.78-2.389 7.836 0 10.731 12.466 26.62 20.362 44.359 20.362s33.628-7.897 44.359-20.362c2.056-2.389 5.78-2.389 7.836 0 10.731 12.466 26.62 20.362 44.359 20.362s33.628-7.897 44.359-20.362c2.056-2.389 5.78-2.389 7.836 0 10.731 12.466 26.62 20.362 44.359 20.362s33.628-7.897 44.359-20.362c2.056-2.389 5.78-2.389 7.836 0 9.631 11.188 23.417 18.695 38.966 20.117 2.904.266 5.393-2.071 5.393-4.987v-46.115c-17.739.001-33.629-7.896-44.359-20.362z" fill="#b2e5fb"/><path d="m492.775 401.627c-5.186-.404-10.176-1.496-14.894-3.165.313.653.504 1.374.504 2.143v67.533h19v-61.533c0-2.61-2.009-4.776-4.61-4.978z" fill="#5fa7ee"/><path d="m478.385 449.997v51.27c0 .023-.003.044-.004.067 4.331 1.487 8.888 2.488 13.611 2.92 2.904.266 5.393-2.071 5.393-4.987v-46.115c-6.652.001-13.043-1.11-19-3.155z" fill="#91dafa"/><path d="m294.622 280.185h-19.648c-1.657 0-3-1.343-3-3v-45.206c0-4.629-5.756-6.762-8.773-3.252l-50.215 58.416c-3.229 3.757-.56 9.57 4.394 9.57h19.649c1.657 0 3 1.343 3 3v45.206c0 4.629 5.756 6.762 8.773 3.252l50.215-58.416c3.227-3.756.558-9.57-4.395-9.57z" fill="#ffc269"/><circle cx="256" cy="101.7" fill="#5392f9" r="94.2"/><path d="m275.243 9.47c31.375 15.286 52.997 47.482 52.997 84.73 0 52.025-42.175 94.2-94.2 94.2-6.595 0-13.03-.68-19.243-1.97 12.447 6.064 26.427 9.47 41.203 9.47 52.025 0 94.2-42.175 94.2-94.2 0-45.43-32.161-83.347-74.957-92.23z" fill="#4071f7"/><g fill="#ddebfd"><path d="m260.631 41.344c-10.04-1.873-19.91.719-27.534 6.397-4.052 3.018-3.855 9.125.248 12.074 11.077 7.961 17.796 21.078 17.366 35.116 4.716 4.669 9.913 9.925 14.516 14.62 11.787-3.9 21.185-13.908 23.64-27.043 3.609-19.318-8.917-37.561-28.236-41.164z"/><path d="m200.576 125.156c2.932 10.982 10.615 19.249 20.146 23.358 4.64 2.001 9.83-1.224 10.332-6.252 1.356-13.573 9.356-25.951 21.728-32.598 1.685-6.419 3.639-13.548 5.403-19.881-9.691-8.632-23.856-11.667-36.947-6.301-16.266 6.669-25.196 24.689-20.662 41.674z"/><path d="m305.535 136.37c6.948-7.83 9.775-17.887 8.647-27.526-.587-5.019-5.975-7.901-10.58-5.822-12.433 5.613-27.152 4.873-39.095-2.518-6.401 1.75-13.552 3.622-19.919 5.261-2.469 11.932 1.307 24.813 11.04 33.504 14.556 12.999 36.954 11.699 49.907-2.899z"/></g><circle cx="256" cy="101.7" fill="#9cd169" r="19.871"/></g></g><g><path d="m403.567 331.023c-4.142 0-7.5 3.358-7.5 7.5s3.358 7.5 7.5 7.5h18.104c4.142 0 7.5-3.358 7.5-7.5s-3.358-7.5-7.5-7.5z"/><path d="m421.671 366.301h-18.104c-4.142 0-7.5 3.358-7.5 7.5s3.358 7.5 7.5 7.5h18.104c4.142 0 7.5-3.358 7.5-7.5s-3.358-7.5-7.5-7.5z"/><path d="m421.671 401.58h-18.104c-4.142 0-7.5 3.358-7.5 7.5s3.358 7.5 7.5 7.5h18.104c4.142 0 7.5-3.358 7.5-7.5s-3.358-7.5-7.5-7.5z"/><path d="m90.329 346.023h18.104c4.142 0 7.5-3.358 7.5-7.5s-3.358-7.5-7.5-7.5h-18.104c-4.142 0-7.5 3.358-7.5 7.5s3.358 7.5 7.5 7.5z"/><path d="m90.329 381.301h18.104c4.142 0 7.5-3.358 7.5-7.5s-3.358-7.5-7.5-7.5h-18.104c-4.142 0-7.5 3.358-7.5 7.5s3.358 7.5 7.5 7.5z"/><path d="m90.329 416.58h18.104c4.142 0 7.5-3.358 7.5-7.5s-3.358-7.5-7.5-7.5h-18.104c-4.142 0-7.5 3.358-7.5 7.5s3.358 7.5 7.5 7.5z"/><path d="m504.88 406.6c0-6.484-5.067-11.952-11.525-12.447-7.702-.603-15.157-2.972-21.785-6.874v-76.789c0-10.234-8.326-18.56-18.56-18.56h-18.523c.032-18.814.034-49.053.004-90.116-.003-4.141-3.363-7.496-7.503-7.495-4.142.001-7.5 3.363-7.497 7.505.03 41.072.028 71.308-.004 90.105h-13.533c.042-28.641.02-84.409-.064-162.51-.016-11.552-9.432-20.95-20.99-20.95h-27.43c.307-4.651.307-8.886 0-13.54h27.43c19.01 0 34.516 15.467 34.54 34.476v37.42c.003 4.14 3.384 7.495 7.523 7.494 4.142-.002 7.48-3.364 7.477-7.506v-37.423c-.035-27.272-22.27-49.46-49.54-49.46h-29.553c-9.996-45.651-50.74-79.93-99.347-79.93s-89.351 34.279-99.347 79.93h-29.553c-27.271 0-49.485 22.188-49.52 49.462-.089 83.936-.113 136.154-.074 162.538h-18.516c-10.234 0-18.56 8.326-18.56 18.56v23.12c0 4.142 3.358 7.5 7.5 7.5s7.5-3.358 7.5-7.5v-23.12c0-1.963 1.597-3.56 3.56-3.56h80.78c1.963 0 3.56 1.597 3.56 3.56v123.722c-9.028 7.341-20.348 11.441-32.161 11.441-14.865 0-28.961-6.472-38.674-17.754-2.406-2.796-5.906-4.399-9.602-4.399-2.713 0-5.316.871-7.462 2.435v-57.325c0-4.142-3.358-7.5-7.5-7.5s-7.5 3.358-7.5 7.5v18.669c-6.628 3.902-14.081 6.271-21.774 6.873-6.469.496-11.537 5.964-11.537 12.448 0 1.194-.005 86.109-.005 92.667 0 3.513 1.488 6.887 4.084 9.256 2.574 2.35 6.032 3.517 9.492 3.2 16.225-1.483 31.11-8.812 42.201-20.721 12.477 13.378 29.923 20.998 48.277 20.998 18.355 0 35.801-7.621 48.277-20.999 12.476 13.378 29.922 20.999 48.277 20.999s35.801-7.621 48.277-20.999c12.476 13.378 29.922 20.999 48.277 20.999s35.801-7.621 48.277-20.999c12.476 13.378 29.922 20.999 48.277 20.999 18.353 0 35.799-7.621 48.276-20.998 11.091 11.909 25.977 19.238 42.202 20.721 7.283.666 13.575-5.127 13.575-12.456.001-1.196-.004-91.969-.004-92.667zm-15 2.285v36.198c-6.489-.965-12.7-3.161-18.31-6.456v-34.579c5.82 2.477 11.987 4.117 18.31 4.837zm-33.31-98.395v115.444c-5.366-3.912-12.787-3.006-17.064 1.963-9.713 11.284-23.81 17.755-38.675 17.755-11.813 0-23.133-4.1-32.161-11.441v-123.721c0-1.963 1.597-3.56 3.56-3.56h80.78c1.963 0 3.56 1.597 3.56 3.56zm-113.618 117.407c-9.713 11.284-23.81 17.755-38.675 17.755-14.845 0-28.923-6.454-38.634-17.709-5.278-6.116-14.349-5.734-19.244-.047-9.713 11.284-23.81 17.755-38.675 17.755s-28.962-6.472-38.675-17.755c-2.556-2.969-6.455-4.714-10.718-4.338v-34.103c.133-.136.267-.271.4-.407.395-.402 1.039-.393 1.43.013 12.422 12.911 29.555 20.248 47.56 20.248 18.358 0 35.807-7.625 48.28-21.007 12.477 13.383 29.924 21.007 48.28 21.007 18.003 0 35.132-7.334 47.56-20.248.391-.406 1.035-.415 1.43-.013.133.136.267.271.4.407v34.103c-4.254-.373-8.158 1.364-10.719 4.339zm-86.952-412.897c47.807 0 86.7 38.894 86.7 86.7s-38.894 86.7-86.7 86.7-86.7-38.894-86.7-86.7 38.893-86.7 86.7-86.7zm-163.42 114.41c.024-19.012 15.51-34.479 34.52-34.479h27.43c-.307 4.651-.307 8.886 0 13.54h-27.43c-11.558 0-20.974 9.398-20.99 20.952-.079 74.029-.107 132.271-.079 162.508h-13.525c-.039-26.358-.015-78.57.074-162.521zm47.19 162.52h-18.739c-.028-30.219 0-88.458.079-162.49.004-3.292 2.692-5.97 5.99-5.97h29.553c9.995 45.651 50.74 79.93 99.347 79.93s89.351-34.279 99.347-79.93h29.553c3.298 0 5.986 2.678 5.99 5.968.083 78.112.105 133.875.063 162.492h-18.723c-10.234 0-18.56 8.326-18.56 18.56v61.718c-.37-.033-.741-.06-1.116-.06-3.702 0-7.204 1.607-9.599 4.401-9.713 11.288-23.809 17.762-38.675 17.762s-28.962-6.474-38.679-17.767c-2.408-2.794-5.908-4.396-9.601-4.396s-7.193 1.602-9.605 4.401c-9.713 11.288-23.809 17.762-38.675 17.762s-28.962-6.474-38.667-17.752c-2.403-2.803-5.905-4.41-9.607-4.41-.375 0-.746.028-1.115.06v-61.719c-.001-10.234-8.327-18.56-18.561-18.56zm-99.34 112.119v34.579c-5.61 3.295-11.821 5.491-18.31 6.456v-36.198c6.321-.72 12.488-2.36 18.31-4.837zm418.28 75.196c-2.406-2.795-5.907-4.399-9.603-4.398-3.696 0-7.196 1.604-9.601 4.398-9.714 11.283-23.81 17.755-38.675 17.755s-28.962-6.472-38.675-17.755c-5.05-5.867-14.161-5.859-19.205 0-9.712 11.283-23.809 17.755-38.674 17.755s-28.962-6.472-38.675-17.755c-5.05-5.866-14.161-5.859-19.204 0-9.713 11.283-23.81 17.755-38.675 17.755s-28.962-6.472-38.675-17.755c-5.05-5.866-14.161-5.859-19.205 0-9.712 11.283-23.809 17.755-38.674 17.755s-28.961-6.472-38.674-17.754c-2.406-2.796-5.906-4.399-9.602-4.399s-7.196 1.604-9.603 4.398c-8.082 9.388-19.067 15.432-31.175 17.209v-28.217c0-.033.005-.064.005-.097v-7.914c15.812-1.807 30.219-9.256 40.772-20.572 12.477 13.378 29.923 20.999 48.277 20.999 18.752 0 36.134-7.977 48.277-20.999 12.477 13.378 29.922 20.999 48.277 20.999s35.801-7.621 48.277-20.999c12.476 13.378 29.922 20.999 48.277 20.999s35.801-7.621 48.277-20.999c12.131 13.009 29.504 20.999 48.277 20.999 18.354 0 35.8-7.62 48.277-20.999 10.549 11.311 24.952 18.764 40.772 20.572v7.914c0 .033.004.064.005.097v28.217c-12.108-1.778-23.093-7.821-31.175-17.209z"/><path d="m217.378 304.213h15.148v40.706c0 5.279 3.198 9.876 8.148 11.711 1.444.536 2.929.795 4.393.795 3.552 0 6.982-1.53 9.419-4.365l50.215-58.417c3.428-3.988 4.194-9.433 2-14.212s-6.823-7.748-12.082-7.748h-15.148v-40.706c0-5.279-3.198-9.876-8.148-11.711-4.949-1.835-10.371-.433-13.812 3.569l-50.216 58.417c-3.427 3.988-4.193 9.434-2 14.212s6.826 7.749 12.083 7.749zm47.095-65.462v38.434c0 5.79 4.71 10.5 10.5 10.5h15.932l-43.378 50.462v-38.434c0-5.79-4.71-10.5-10.5-10.5h-15.932z"/><path d="m193.333 127.094c3.41 12.779 12.312 23.096 24.418 28.303 4.399 1.897 9.281 1.569 13.392-.853 4.139-2.438 6.894-6.753 7.37-11.539.355-3.557 1.275-7.018 2.689-10.262 2.371 4.544 5.552 8.661 9.431 12.12 17.645 15.765 44.776 14.22 60.506-3.514 8.086-9.109 11.909-21.277 10.49-33.387-.558-4.736-3.269-8.804-7.437-11.162-4.179-2.364-9.291-2.594-13.679-.615-3.261 1.474-6.721 2.409-10.238 2.808 2.904-4.565 4.949-9.678 5.969-15.106 4.371-23.395-10.818-45.544-34.24-49.92-11.682-2.177-23.851.653-33.378 7.755-3.83 2.848-6.004 7.229-5.966 12.019.038 4.807 2.394 9.355 6.306 12.169 2.898 2.082 5.432 4.602 7.533 7.438-28.734-1.224-50.603 25.913-43.166 53.746zm62.667-13.024c-6.821 0-12.371-5.549-12.371-12.37s5.549-12.371 12.371-12.371 12.371 5.549 12.371 12.371c0 6.821-5.55 12.37-12.371 12.37zm50.685-4.214c.015-.007.037-.017.061-.018.881 7.821-1.603 15.67-6.827 21.555-4.93 5.558-11.74 8.857-19.174 9.289-7.435.429-14.579-2.056-20.125-7.011-1.552-1.383-2.91-2.943-4.101-4.614 10.508-.197 19.583-6.341 23.995-15.203 8.88 1.066 17.962-.289 26.171-3.998zm-47.433-61.144c15.335 2.866 25.106 17.106 22.247 32.413-.422 2.247-1.135 4.401-2.068 6.444-5.14-8.491-14.644-13.841-25.168-13.178-3.518-8.219-9.232-15.405-16.544-20.659-.012-.008-.032-.023-.047-.046 6.179-4.566 14.036-6.379 21.58-4.974zm-27.185 39.728c-4.947 8.893-4.553 19.86 1.152 28.411-5.366 7.161-8.737 15.704-9.633 24.668-.001.014-.003.035-.012.055-7.805-3.396-13.541-10.077-15.749-18.349-4.373-16.369 6.952-33.129 24.242-34.785z"/></g></g></svg>