<svg id="Capa_1" enable-background="new 0 0 512 512" height="512" viewBox="0 0 512 512" width="512" xmlns="http://www.w3.org/2000/svg"><g><g><g><ellipse cx="84.442" cy="435.304" fill="#407194" rx="48.545" ry="48.545" transform="matrix(.851 -.526 .526 .851 -216.236 109.401)"/><path d="m84.442 386.758c-1.405 0-2.792.073-4.167.19 15.841 7.994 26.712 24.4 26.712 43.355 0 25.406-19.52 46.24-44.378 48.355 6.565 3.313 13.978 5.19 21.833 5.19 26.811 0 48.545-21.735 48.545-48.545s-21.735-48.545-48.545-48.545z" fill="#365f7e"/><path d="m84.25 349.243-15.07 80.305c-1.816 9.678 5.608 18.624 15.454 18.624 6.001 0 11.479-3.416 14.12-8.805l44.162-90.124z" fill="#ddebfd"/><ellipse cx="427.558" cy="435.304" fill="#407194" rx="48.545" ry="48.545" transform="matrix(.441 -.898 .898 .441 -151.602 627.316)"/><path d="m427.558 386.758c-1.405 0-2.792.073-4.167.19 15.841 7.994 26.712 24.4 26.712 43.355 0 25.406-19.52 46.24-44.378 48.355 6.565 3.313 13.978 5.19 21.833 5.19 26.811 0 48.545-21.735 48.545-48.545.001-26.81-21.734-48.545-48.545-48.545z" fill="#365f7e"/><path d="m427.75 349.243 15.069 80.305c1.816 9.678-5.608 18.624-15.454 18.624-6.001 0-11.479-3.416-14.12-8.805l-44.162-90.124z" fill="#ddebfd"/><path d="m31.274 119.797 23.596 229.876c.53 5.163 4.879 9.088 10.069 9.088h54.916c3.038 0 5.916 1.365 7.838 3.717l46.347 56.723c1.922 2.353 4.8 3.717 7.838 3.717h148.245c3.038 0 5.916-1.365 7.838-3.717l46.347-56.723c1.922-2.353 4.8-3.717 7.838-3.717h54.916c5.19 0 9.539-3.925 10.069-9.088l23.596-229.876z" fill="#9cd169"/><g fill="#68b181"><path d="m355.307 362.479-46.347 56.723c-1.922 2.353-4.8 3.717-7.838 3.717h29c3.038 0 5.916-1.365 7.838-3.717l46.347-56.723c1.922-2.353 4.8-3.717 7.838-3.717h-29c-3.038-.001-5.916 1.364-7.838 3.717z"/><path d="m451.726 119.797-23.596 229.876c-.53 5.163-4.879 9.088-10.069 9.088h29c5.19 0 9.539-3.925 10.069-9.088l23.596-229.876z"/></g><path d="m35.896 99.329 67.884-68.197c1.899-1.908 4.481-2.981 7.174-2.981h290.092c2.693 0 5.274 1.073 7.174 2.981l67.884 68.197z" fill="#ffc269"/><path d="m408.22 31.132c-1.9-1.908-4.481-2.981-7.174-2.981h-29c2.692 0 5.274 1.073 7.174 2.981l67.884 68.197h29z" fill="#ffa95f"/><path d="m297.839 67.017h-83.678c-3.116 0-6.058-1.435-7.976-3.89l-27.326-34.976h154.282l-27.326 34.976c-1.918 2.455-4.86 3.89-7.976 3.89z" fill="#9cd169"/><path d="m7.5 104.329v25.589c0 2.761 2.239 5 5 5h487c2.761 0 5-2.239 5-5v-25.589c0-2.761-2.239-5-5-5h-487c-2.761 0-5 2.239-5 5z" fill="#b2e5fb"/><path d="m499.5 99.329h-29c2.761 0 5 2.239 5 5v25.589c0 2.761-2.239 5-5 5h29c2.761 0 5-2.239 5-5v-25.589c0-2.761-2.239-5-5-5z" fill="#94d8e6"/><g fill="#68b181"><path d="m111.208 134.918v33.557c0 2.761 2.239 5 5 5h23.683c2.761 0 5-2.239 5-5v-33.557z"/><path d="m239.159 134.918v33.557c0 2.761 2.239 5 5 5h23.683c2.761 0 5-2.239 5-5v-33.557z"/><path d="m367.11 134.918v33.557c0 2.761 2.239 5 5 5h23.683c2.761 0 5-2.239 5-5v-33.557z"/></g></g></g><g><path d="m298.794 223.242c-4.005-1.022-8.096 1.407-9.115 5.422l-2.9 11.411-20.091-34.8c-2.229-3.86-6.221-6.165-10.678-6.165s-8.449 2.304-10.679 6.164l-25.451 44.07c-2.071 3.587-.843 8.174 2.744 10.246 3.587 2.07 8.174.842 10.246-2.744l23.14-40.068 17.78 30.796-11.332-3.194c-3.988-1.125-8.129 1.197-9.254 5.184-1.124 3.987 1.194 8.143 5.184 9.254 23.795 6.627 23.789 7.09 26.991 7.09 5.898 0 11.371-4.16 12.861-10.029l5.977-23.521c1.019-4.015-1.408-8.096-5.423-9.116z"/><path d="m336.305 325.871-25.442-44.084c-2.071-3.587-6.657-4.818-10.245-2.747-3.588 2.07-4.817 6.657-2.747 10.245l23.133 40.081h-35.561l8.435-8.219c2.967-2.891 3.028-7.639.138-10.605-2.892-2.966-7.64-3.028-10.606-.138l-17.38 16.935c-5.326 5.187-5.347 13.84-.001 19.048l17.381 16.936c2.965 2.887 7.711 2.833 10.606-.138 2.891-2.966 2.829-7.715-.138-10.605l-8.429-8.213h40.176c9.488-.001 15.427-10.266 10.68-18.496z"/><path d="m186.376 344.357h50.896c4.143 0 7.5-3.358 7.5-7.5s-3.357-7.5-7.5-7.5h-46.272l17.781-30.798 2.899 11.412c1.021 4.015 5.1 6.442 9.116 5.422 4.015-1.02 6.442-5.101 5.423-9.116l-5.976-23.52c-.891-3.506-3.106-6.433-6.239-8.241s-6.774-2.263-10.257-1.283l-23.357 6.584c-3.986 1.124-6.308 5.267-5.184 9.254s5.266 6.304 9.254 5.184l11.329-3.194-20.092 34.798c-4.744 8.22 1.178 18.498 10.679 18.498z"/><path d="m499.5 91.829h-20.28l-22.613-22.717c-2.924-2.937-7.673-2.946-10.606-.024-2.936 2.922-2.946 7.671-.024 10.606l12.079 12.135h-404.112l55.152-55.406c.488-.491 1.166-.772 1.858-.772h64.247l25.072 32.093c3.362 4.305 8.425 6.773 13.888 6.773h83.678c5.463 0 10.525-2.469 13.887-6.773l25.073-32.093h64.247c.692 0 1.37.281 1.858.772l18.262 18.347c2.923 2.936 7.67 2.945 10.606.024 2.936-2.922 2.946-7.671.024-10.606l-18.261-18.348c-3.283-3.298-7.835-5.19-12.489-5.19h-290.092c-4.654 0-9.206 1.892-12.489 5.19l-65.685 65.989h-20.28c-6.893 0-12.5 5.607-12.5 12.5v25.589c0 6.893 5.607 12.5 12.5 12.5h13.551l6.788 66.107c.42 4.091 4.072 7.117 8.227 6.695 4.121-.423 7.118-4.106 6.695-8.227l-6.631-64.575h62.578v26.057c0 6.893 5.607 12.5 12.5 12.5h23.683c6.893 0 12.5-5.607 12.5-12.5v-26.057h79.269v26.057c0 6.893 5.607 12.5 12.5 12.5h23.682c6.893 0 12.5-5.607 12.5-12.5v-26.057h79.269v26.057c0 6.893 5.607 12.5 12.5 12.5h23.683c6.893 0 12.5-5.607 12.5-12.5v-26.057h62.578l-21.201 206.486c-.138 1.342-1.26 2.355-2.609 2.355h-54.912c-5.311 0-10.285 2.359-13.648 6.475l-46.35 56.72c-.501.613-1.242.965-2.032.965h-148.24c-.79 0-1.531-.352-2.032-.965l-46.351-56.721c-3.362-4.114-8.337-6.474-13.647-6.474h-54.91c-1.35 0-2.472-1.013-2.609-2.355l-10.97-106.91c-.423-4.12-4.116-7.115-8.227-6.695-4.12.423-7.118 4.106-6.695 8.227l10.97 106.91c.926 9.021 8.462 15.825 17.531 15.825h8.482l-2.761 14.718c-11.035 2.797-21.037 8.93-28.577 17.626-8.824 10.176-13.684 23.208-13.684 36.694 0 30.906 25.14 56.05 56.04 56.05 30.906 0 56.05-25.144 56.05-56.05 0-13.591-4.763-26.353-13.511-36.493l7.764-15.843 33.49 40.983c3.362 4.114 8.336 6.474 13.647 6.474h148.24c5.312 0 10.285-2.36 13.647-6.474l33.49-40.983 7.764 15.843c-8.748 10.14-13.511 22.903-13.511 36.493 0 30.906 25.144 56.05 56.05 56.05 15.472 0 30.405-6.492 40.973-17.812 2.826-3.028 2.663-7.774-.364-10.601-3.028-2.826-7.773-2.662-10.601.364-25.369 27.178-71.058 9.038-71.058-28.002 0-7.664 2.074-14.967 5.95-21.312l14.055 28.681c7.465 15.241 28.051 17.478 38.729 4.605 4.425-5.333 6.229-12.298 4.948-19.107l-5.67-30.226c14.597 6.696 24.489 21.711 24.071 38.43-.099 4.141 3.179 7.578 7.319 7.677.061.001.121.002.182.002 4.06 0 7.397-3.241 7.495-7.321.326-14.229-4.647-27.716-13.673-38.125-7.539-8.696-17.542-14.829-28.576-17.626l-2.761-14.718h8.482c9.069 0 16.605-6.803 17.531-15.824l21.358-208.018h13.55c6.893 0 12.5-5.607 12.5-12.5v-25.589c0-6.891-5.607-12.498-12.5-12.498zm-199.596-33.319c-.499.64-1.252 1.007-2.065 1.007h-83.678c-.813 0-1.566-.367-2.066-1.007l-17.859-22.86h123.528zm-174.414 376.789c0 22.635-18.415 41.05-41.05 41.05-22.63 0-41.04-18.415-41.04-41.05 0-16.285 9.811-30.814 24.078-37.359l-5.67 30.223c-2.688 14.302 8.291 27.505 22.821 27.505 8.937 0 16.928-4.982 20.854-13l14.055-28.683c3.879 6.348 5.952 13.65 5.952 21.314zm-14.21-38.542c-.036.071-.071.142-.105.214l-19.16 39.1c-1.39 2.836-4.219 4.599-7.385 4.599-5.143 0-9.031-4.671-8.079-9.737l12.133-64.673h31.166c1.949 0 2.424 1.752 4.452 3.925zm324.169 34.178c.952 5.063-2.936 9.735-8.079 9.735-3.166 0-5.995-1.762-7.386-4.6l-32.286-65.885 2.417-2.958c.503-.614 1.244-.967 2.034-.967h31.166zm-298.058-264.96h-18.683v-23.557h18.683zm127.95 0h-18.682v-23.557h18.682zm127.951 0h-18.683v-23.557h18.683zm103.708-38.557h-482v-20.589h482z"/></g></g></svg>