<svg id="Capa_1" enable-background="new 0 0 512 512" height="512" viewBox="0 0 512 512" width="512" xmlns="http://www.w3.org/2000/svg"><g><g><g><path d="m312.953 504.5h-252.975c-11.046 0-20-8.954-20-20v-408.187c0-11.046 8.954-20 20-20h252.975c11.046 0 20 8.954 20 20v408.187c0 11.046-8.954 20-20 20z" fill="#407194"/><path d="m312.953 56.313h-30c11.046 0 20 8.954 20 20v408.187c0 11.046-8.954 20-20 20h30c11.046 0 20-8.954 20-20v-408.187c0-11.045-8.954-20-20-20z" fill="#365f7e"/><path d="m39.978 280.407h292.975v-204.094c0-11.046-8.954-20-20-20h-252.975c-11.046 0-20 8.954-20 20z" fill="#ffc269"/><path d="m312.953 56.313h-30c11.046 0 20 8.954 20 20v204.093h30v-204.093c0-11.046-8.954-20-20-20z" fill="#ffa95f"/><path d="m212.225 7.5h-51.518c-4.254 0-8.042 2.691-9.443 6.708l-14.679 42.105h99.762l-14.679-42.105c-1.401-4.017-5.189-6.708-9.443-6.708z" fill="#ddebfd"/><path d="m221.667 14.208c-1.4-4.017-5.189-6.708-9.443-6.708h-27c4.254 0 8.042 2.691 9.443 6.708l14.679 42.105h27z" fill="#bed9fd"/><circle cx="186.466" cy="280.407" fill="#ddebfd" r="82.026"/><path d="m469.721 317.439c2.955-1.598 3.09-6.222.25-8.436-63.538-49.539-244.501 10.867-192.074 103.494 13.301 23.501 58.479 35.063 94.78 13.45 41.854-24.918 36.668-75.865 97.044-108.508z" fill="#9cd169"/><path d="m469.972 309.003c-7.01-5.465-15.45-9.59-24.846-12.483.846.63 1.678 1.274 2.486 1.942 2.831 2.341 2.676 7.255-.287 8.966-60.535 34.948-55.565 89.066-97.538 115.726-11.912 7.566-24.756 11.342-37.114 12.151 18.334 4.288 40.453 2.282 60.004-9.358 41.853-24.918 36.667-75.865 97.043-108.508 2.956-1.597 3.091-6.221.252-8.436z" fill="#68b181"/><path d="m219.598 273.317h-16.737c-1.487 0-2.693-1.206-2.693-2.693v-38.661c0-3.971-4.938-5.801-7.526-2.79l-43.078 50.113c-2.77 3.223-.481 8.21 3.769 8.21h16.737c1.487 0 2.693 1.206 2.693 2.693v38.661c0 3.971 4.938 5.801 7.526 2.79l43.078-50.113c2.77-3.222.481-8.21-3.769-8.21z" fill="#9cd169"/></g></g><g><path d="m186.472 98.822c-4.142 0-7.5 3.358-7.5 7.5v11.284h-11.284c-4.142 0-7.5 3.358-7.5 7.5s3.358 7.5 7.5 7.5h11.284v11.284c0 4.142 3.358 7.5 7.5 7.5s7.5-3.358 7.5-7.5v-11.284h11.284c4.142 0 7.5-3.358 7.5-7.5s-3.358-7.5-7.5-7.5h-11.284v-11.284c0-4.142-3.358-7.5-7.5-7.5z"/><path d="m205.256 428.208h-37.567c-4.142 0-7.5 3.358-7.5 7.5s3.358 7.5 7.5 7.5h37.567c4.142 0 7.5-3.358 7.5-7.5s-3.358-7.5-7.5-7.5z"/><path d="m474.589 303.089c-34.181-26.651-92.945-22.286-134.133-7.633v-219.146c0-15.164-12.336-27.5-27.5-27.5h-71.276l-12.924-37.071c-2.448-7.022-9.089-11.739-16.525-11.739h-51.518c-7.436 0-14.076 4.717-16.524 11.739l-12.924 37.071h-71.279c-15.164 0-27.5 12.336-27.5 27.5v54.35c0 4.142 3.358 7.5 7.5 7.5s7.5-3.358 7.5-7.5v-54.35c0-6.893 5.607-12.5 12.5-12.5h252.97c6.893 0 12.5 5.607 12.5 12.5v196.599h-49.776c-3.823-45.87-42.37-82.029-89.208-82.029-46.839 0-85.386 36.159-89.209 82.029h-49.777v-107.249c0-4.142-3.358-7.5-7.5-7.5s-7.5 3.358-7.5 7.5v318.84c0 15.164 12.336 27.5 27.5 27.5h252.97c15.164 0 27.5-12.336 27.5-27.5v-40.105c12.622-1.362 24.983-5.405 36.064-12.003 15.569-9.27 24.816-21.788 31.132-31.658 2.232-3.489 1.214-8.127-2.275-10.36s-8.127-1.214-10.36 2.275c-8.168 12.765-15.996 20.796-26.171 26.854-20.232 12.045-44.757 13.312-64.078 5.465 12.119-42.479 46.541-67.382 73.926-80.929 23.229-11.49 48.421-18.398 69.128-21.433-17.098 12.968-27.414 27.342-35.354 40.29-2.165 3.531-1.058 8.149 2.474 10.314 3.533 2.166 8.149 1.058 10.314-2.474 9.401-15.333 22.459-32.871 48.037-46.699 7.746-4.187 8.349-15.45 1.296-20.948zm-316.236-286.412c.35-1.003 1.298-1.677 2.36-1.677h51.518c1.062 0 2.011.674 2.361 1.677l11.202 32.133h-78.644zm28.119 189.203c41.093 0 74.525 33.434 74.525 74.529 0 41.092-33.432 74.523-74.525 74.523-41.094 0-74.526-33.431-74.526-74.523 0-41.095 33.432-74.529 74.526-74.529zm138.985 238.867v39.753c0 6.893-5.607 12.5-12.5 12.5h-252.971c-6.893 0-12.5-5.607-12.5-12.5v-196.591h49.777c3.823 45.867 42.37 82.023 89.209 82.023 46.838 0 85.385-36.157 89.208-82.023h49.776v13.596c-13.534 6.144-25.677 13.641-35.491 22.107-14.279 12.318-23.404 26.142-27.123 41.087-4.176 16.783-1.305 34.107 8.535 51.492 3.613 6.384 9.188 12.036 16.163 16.608-1.357 7.344-2.138 14.948-2.304 22.687-.089 4.141 3.196 7.57 7.337 7.659.055.001.109.002.164.002 4.067 0 7.408-3.253 7.495-7.339.117-5.437.566-10.793 1.338-16.01 7.664 2.822 15.757 4.446 23.887 4.949zm-33.986-27.644c-2.949-2.512-5.342-5.301-7.04-8.3-19.05-33.657-2.177-58.728 15.332-73.832 36.854-31.793 109.137-46.797 151.985-28.033-52.189 6.01-136.754 36.266-160.277 110.165z"/><path d="m153.34 294.996h11.929v33.854c0 10.93 13.598 15.956 20.714 7.679l43.078-50.114c6.955-8.092 1.198-20.599-9.457-20.599h-11.93v-33.854c0-4.979-3.017-9.315-7.686-11.045-4.667-1.731-9.782-.41-13.028 3.366l-43.078 50.114c-6.954 8.091-1.197 20.599 9.458 20.599zm39.335-54.348v29.976c0 5.621 4.572 10.193 10.193 10.193h11.227l-33.825 39.349v-29.977c0-5.621-4.572-10.193-10.192-10.193h-11.226z"/></g></g></svg>