<svg id="Capa_1" enable-background="new 0 0 512 512" height="512" viewBox="0 0 512 512" width="512" xmlns="http://www.w3.org/2000/svg"><g><g><g><path d="m215.928 409.36c-6.545.765-12.834-3.363-14.591-9.917l-31.005-115.674c-3.694-13.783-12.174-25.868-23.876-34.031-49.277-34.37-61.43-42.437-64.414-44.316-2.136-.93-4.058-2.425-5.524-4.447-3.87-5.334-3.343-12.742 1.273-17.444 3.37-3.433 9.797-6.029 16.821-2.052.458.26 1.12.657 1.959 1.19 1.261.799 53.281 36.52 65.331 44.925 16.914 11.798 29.17 29.266 34.51 49.186l31.005 115.674c1.93 7.202-2.343 14.605-9.545 16.535-.647.172-1.297.295-1.944.371z" fill="#5392f9"/><path d="m92.941 324.764c-47.112 0-85.441 38.329-85.441 85.441s38.329 85.441 85.441 85.441 85.441-38.329 85.441-85.441-38.328-85.441-85.441-85.441zm0 140.883c-30.57 0-55.441-24.871-55.441-55.441s24.871-55.441 55.441-55.441 55.441 24.871 55.441 55.441-24.87 55.441-55.441 55.441z" fill="#407194"/><path d="m419.059 324.764c-47.112 0-85.441 38.329-85.441 85.441s38.329 85.441 85.441 85.441 85.441-38.329 85.441-85.441-38.329-85.441-85.441-85.441zm0 140.883c-30.57 0-55.441-24.871-55.441-55.441s24.871-55.441 55.441-55.441 55.441 24.871 55.441 55.441-24.871 55.441-55.441 55.441z" fill="#407194"/><ellipse cx="419.059" cy="410.205" fill="#ffc269" rx="25.442" ry="25.442" transform="matrix(.383 -.924 .924 .383 -120.289 640.386)"/><path d="m356.72 235.448-41.897 15.249c-8.137 2.962-14.688 9.156-18.099 17.115l-46.528 108.545c-2.187 5.103-7.205 8.411-12.757 8.411h-143.926c-14.263 0-26.279 11.672-26.008 25.932.262 13.823 11.55 24.948 25.435 24.948h140.372c20.904 0 39.798-12.457 48.034-31.671l48.257-112.575c1.306-3.046 3.813-5.417 6.927-6.55l33.699-12.264z" fill="#9cd169"/><path d="m323.245 267.511c-3.114 1.133-5.622 3.504-6.927 6.55l-55.435 129.915c-8.236 19.214-27.13 31.671-48.034 31.671h20.463c20.904 0 39.798-12.457 48.034-31.671l48.257-112.575c1.306-3.046 3.813-5.417 6.927-6.55l33.699-12.264-7-19.242z" fill="#68b181"/><path d="m331.022 228.604 23.929 65.744c.944 2.595 3.814 3.933 6.409 2.988l29.445-10.717c2.595-.944 3.933-3.814 2.988-6.409l-23.929-65.744c-.944-2.595-3.814-3.933-6.409-2.988l-29.445 10.717c-2.594.945-3.932 3.814-2.988 6.409z" fill="#ffc269"/><path d="m393.793 280.211-23.929-65.744c-.944-2.595-3.814-3.933-6.409-2.988l-18.477 6.725c2.663-.969 5.587.348 6.532 2.943l23.929 65.745c.944 2.594-.448 5.483-3.111 6.453l18.476-6.725c2.596-.945 3.934-3.814 2.989-6.409z" fill="#ffa95f"/><path d="m183.349 161.871h-126.369c-8.549 0-15.48 6.93-15.48 15.48v5.036c0 23.248 18.846 42.094 42.094 42.094h5.386c8.59 0 16.975-2.628 24.029-7.532l24.541-17.062c6.553-4.556 14.343-6.998 22.324-6.998h23.475c8.565 0 15.509-6.944 15.509-15.509 0-8.566-6.944-15.509-15.509-15.509z" fill="#407194"/><path d="m139.366 16.351c-21.01 0-38.043 17.032-38.043 38.043v2.548c0 21.01 17.032 38.043 38.043 38.043h34.669c3.271 0 5.922-2.651 5.922-5.922v-66.79c0-3.271-2.651-5.922-5.922-5.922z" fill="#5392f9"/><path d="m174.035 16.351h-25c3.271 0 5.922 2.651 5.922 5.922v66.79c0 3.271-2.651 5.922-5.922 5.922h25c3.271 0 5.922-2.651 5.922-5.922v-66.79c0-3.27-2.652-5.922-5.922-5.922z" fill="#4071f7"/></g></g><path d="m394.468 320.573-8.775-24.111 7.677-2.794c6.491-2.363 9.834-9.528 7.471-16.021l-23.929-65.745c-2.363-6.492-9.528-9.834-16.021-7.471l-7.678 2.795-36.363-99.916c-2.314-6.374-9.41-9.76-15.799-7.556l-27.57 9.44c-3.918 1.342-6.008 5.606-4.666 9.525s5.606 6.007 9.525 4.666l25.251-8.646 35.526 97.616-7.672 2.792c-6.476 2.358-9.828 9.545-7.471 16.021l2.642 7.258-14.362 5.226c-10.048 3.658-18.223 11.387-22.427 21.203l-46.518 108.544c-1.01 2.351-3.313 3.87-5.869 3.87h-6.326l-27.46-102.432c-5.799-21.631-19.104-40.595-37.466-53.401-4.575-3.188-14.571-10.081-23.282-16.079 5.081-3.24 10.913-4.967 16.968-4.967h23.475c12.688 0 23.009-10.322 23.009-23.009s-10.322-23.009-23.009-23.009h-126.369c-12.671 0-22.979 10.309-22.979 22.98v5.036c0 27.346 22.248 49.594 49.594 49.594h5.386c5.244 0 10.385-.822 15.281-2.409 10.524 7.258 23.249 16.093 37.908 26.319 9.768 6.812 16.962 16.748 20.419 28.118h-125.759c-12.037 0-21.83-9.788-21.83-21.82v-177.191c0-12.037 9.793-21.83 21.83-21.83h57.43c3.047 22.176 22.107 39.316 45.106 39.316h34.669c7.401 0 13.422-6.021 13.422-13.422v-4.554h26.093c4.142 0 7.5-3.358 7.5-7.5s-3.358-7.5-7.5-7.5h-26.093v-27.69h26.093c4.142 0 7.5-3.358 7.5-7.5s-3.358-7.5-7.5-7.5h-26.093v-4.545c0-7.401-6.021-13.422-13.422-13.422h-34.669c-23 0-42.06 17.142-45.106 39.318h-57.43c-20.308-.001-36.83 16.521-36.83 36.829v177.19c0 20.303 16.522 36.82 36.83 36.82h129.821l20.983 78.26h-7.809c-6.248-16.377-17.216-30.981-31.333-41.539-16.159-12.084-35.369-18.471-55.552-18.471-21.449 0-42.39 7.515-58.966 21.16-3.198 2.632-3.656 7.359-1.024 10.557s7.358 3.656 10.557 1.024c13.897-11.44 31.453-17.741 49.433-17.741 16.919 0 33.023 5.354 46.568 15.484 10.297 7.7 18.593 17.961 24.033 29.526h-16.984c-11.433-18.622-31.575-30.01-53.617-30.01-34.705 0-62.94 28.239-62.94 62.95 0 34.705 28.235 62.94 62.94 62.94 22.044 0 42.185-11.385 53.616-30h16.984c-12.528 26.625-39.342 45-70.6 45-42.976 0-77.94-34.964-77.94-77.94 0-12.376 2.825-24.209 8.396-35.172 1.877-3.692.405-8.208-3.288-10.084-3.693-1.875-8.208-.404-10.084 3.288-6.651 13.088-10.024 27.208-10.024 41.968 0 51.247 41.693 92.94 92.94 92.94 39.469 0 73.41-24.691 86.884-60h53.486c23.934 0 45.496-14.214 54.934-36.215l48.244-112.566c.493-1.143 1.449-2.046 2.608-2.471l6.165-2.245 2.643 7.261c2.33 6.402 9.443 9.864 16.021 7.471l7.672-2.792 8.777 24.116c-31.989 14.703-54.257 47.047-54.257 84.498 0 51.248 41.693 92.941 92.941 92.941 22.08 0 43.496-7.908 60.302-22.268 3.149-2.691 3.521-7.425.83-10.574-2.69-3.15-7.425-3.52-10.574-.83-14.093 12.041-32.048 18.672-50.558 18.672-42.977 0-77.941-34.964-77.941-77.941 0-30.978 18.169-57.788 44.407-70.346l5.164 14.189c-20.488 10.393-34.571 31.655-34.571 56.158 0 34.706 28.235 62.941 62.941 62.941s62.942-28.236 62.942-62.942c0-40.349-37.667-70.501-77.216-61.289l-5.167-14.198c49.336-12.713 97.383 24.756 97.383 75.487 0 11.86-2.607 23.254-7.749 33.864-1.806 3.728-.249 8.213 3.479 10.02 3.728 1.808 8.214.25 10.02-3.479 6.137-12.666 9.25-26.26 9.25-40.405 0-61.066-58.337-105.892-117.532-89.633zm-285.645-266.179c0-16.841 13.701-30.543 30.542-30.543h33.091v63.634h-33.091c-16.841 0-30.542-13.701-30.542-30.542zm-25.229 162.587c-19.075 0-34.594-15.519-34.594-34.594v-5.036c0-4.4 3.58-7.98 7.979-7.98h126.369c4.417 0 8.009 3.593 8.009 8.009s-3.593 8.009-8.009 8.009h-23.475c-9.558 0-18.757 2.884-26.604 8.339l-24.541 17.062c-5.825 4.05-12.654 6.19-19.748 6.19h-5.386zm95.999 72.377c-.009-.029-.015-.059-.024-.088l-1.995-7.44c-4.147-15.489-13.674-29.071-26.824-38.241-11.778-8.217-22.311-15.537-31.465-21.869l10.416-7.241c9.474 6.52 22.509 15.5 27.907 19.263 15.465 10.785 26.672 26.76 31.557 44.98l26.419 98.548h-12.42zm-86.653 168.791c-26.434 0-47.94-21.506-47.94-47.94 0-26.44 21.506-47.95 47.94-47.95 13.413 0 25.903 5.543 34.828 15.01h-34.258c-18.235 0-33.862 14.895-33.508 33.577.348 17.812 15.124 32.303 32.938 32.303h34.826c-8.924 9.461-21.413 15-34.826 15zm241.008-180.341c-5.025 1.842-9.121 5.714-11.242 10.637l-48.249 112.578c-7.069 16.479-23.22 27.126-41.147 27.126h-140.37c-9.703 0-17.752-7.894-17.941-17.592-.191-10.115 8.508-18.288 18.511-18.288h143.93c8.559 0 16.273-5.083 19.654-12.956l46.521-108.551c2.581-6.025 7.6-10.769 13.77-13.015l14.362-5.226 8.384 23.035zm27.196 11.626-22.219-61.046c24.577-8.945 22.984-8.365 24.747-9.007l22.219 61.046zm105.856 120.772c0 26.435-21.506 47.941-47.941 47.941s-47.941-21.506-47.941-47.941c0-18.025 10.004-33.751 24.746-41.938l5.223 14.352c-9.004 5.886-14.97 16.049-14.97 27.586 0 18.164 14.777 32.941 32.941 32.941s32.942-14.777 32.942-32.941c0-19.582-17.11-35.026-36.814-32.706l-5.226-14.358c29.73-5.738 57.04 17.166 57.04 47.064zm-47.941-17.942c9.893 0 17.941 8.048 17.941 17.941s-8.048 17.941-17.941 17.941-17.941-8.048-17.941-17.941 8.048-17.941 17.941-17.941z"/></g></svg>