<svg id="Capa_1" enable-background="new 0 0 512 512" height="512" viewBox="0 0 512 512" width="512" xmlns="http://www.w3.org/2000/svg"><g><g><g><path d="m155.283 177.943v26.219c0 6.3 5.107 11.407 11.407 11.407h178.62c6.3 0 11.407-5.107 11.407-11.407v-26.219c0-52.033-42.181-94.213-94.213-94.213h-13.007c-52.033 0-94.214 42.181-94.214 94.213z" fill="#407194"/><path d="m262.503 83.73h-13.007c-2.354 0-4.686.089-6.997.259 48.765 3.58 87.217 44.276 87.217 93.955v26.219c0 6.3-5.107 11.407-11.406 11.407h27c6.3 0 11.406-5.107 11.406-11.407v-26.219c.001-52.033-42.18-94.214-94.213-94.214z" fill="#365f7e"/><path d="m181.262 215.569-43.05 283.18c-.46 3.026 1.882 5.751 4.943 5.751h225.69c3.061 0 5.403-2.725 4.943-5.751l-43.05-283.18z" fill="#9cd169"/><path d="m373.788 498.749-43.05-283.18h-27l43.05 283.18c.46 3.026-1.882 5.751-4.943 5.751h27c3.061 0 5.403-2.726 4.943-5.751z" fill="#68b181"/><path d="m268.875 330.894h-25.751c-2.216 0-4.012-1.796-4.012-4.012v-20.381c0-9.327 7.561-16.887 16.887-16.887s16.887 7.561 16.887 16.887v20.381c.001 2.216-1.795 4.012-4.011 4.012z" fill="#407194"/><path d="m121.031 379.244v13.294c0 5.426 4.399 9.825 9.825 9.825h250.288c5.426 0 9.825-4.399 9.825-9.825v-13.294c0-5.426-4.399-9.825-9.825-9.825h-250.288c-5.426 0-9.825 4.399-9.825 9.825z" fill="#5392f9"/><path d="m381.144 369.419h-24c5.426 0 9.825 4.399 9.825 9.825v13.294c0 5.426-4.399 9.824-9.825 9.824h24c5.426 0 9.825-4.399 9.825-9.824v-13.294c0-5.426-4.399-9.825-9.825-9.825z" fill="#4071f7"/><g><ellipse cx="256" cy="141.863" fill="#ffc269" rx="18.668" ry="18.668" transform="matrix(.799 -.602 .602 .799 -33.826 182.631)"/><g fill="#ddebfd"><path d="m241.898 202.255-23.919-31.741-92.335 69.579c-1.937 1.46-2.324 4.214-.865 6.151l21.275 28.233c1.46 1.937 4.214 2.324 6.151.865l88.827-66.936c1.939-1.46 2.326-4.214.866-6.151z"/><path d="m316.391 155.965-31.741 23.919 69.579 92.335c1.46 1.937 4.214 2.324 6.151.865l28.233-21.275c1.937-1.46 2.324-4.214.865-6.151l-66.936-88.827c-1.459-1.939-4.213-2.326-6.151-.866z"/><path d="m270.102 81.472 23.919 31.741 92.335-69.579c1.937-1.46 2.324-4.214.865-6.151l-21.277-28.234c-1.46-1.937-4.214-2.324-6.151-.865l-88.827 66.936c-1.937 1.461-2.324 4.215-.864 6.152z"/><path d="m195.609 127.762 31.741-23.919-69.58-92.335c-1.46-1.937-4.214-2.324-6.151-.865l-28.233 21.275c-1.937 1.46-2.324 4.214-.865 6.151l66.936 88.827c1.46 1.939 4.214 2.326 6.152.866z"/></g></g></g></g><g><path d="m256 282.112c-13.447 0-24.387 10.94-24.387 24.387v20.381c0 6.348 5.164 11.512 11.512 11.512h25.751c6.348 0 11.512-5.164 11.512-11.512v-20.38c-.001-13.448-10.941-24.388-24.388-24.388zm9.387 41.28h-18.774v-16.892c0-5.176 4.211-9.387 9.387-9.387s9.387 4.211 9.387 9.387z"/><path d="m381.146 361.918h-20.569l-13.109-86.213.772 1.025c3.963 5.258 11.416 6.289 16.655 2.341l28.234-21.276c5.249-3.955 6.296-11.404 2.341-16.655l-31.249-41.469v-21.734c0-31.241-14.111-60.229-38.203-79.448l64.854-48.871c5.235-3.947 6.285-11.418 2.34-16.654l-21.277-28.234c-3.947-5.237-11.419-6.286-16.654-2.34l-88.827 66.936c-2.28 1.718-3.828 4.144-4.44 6.9-8.279.389-22.71-1.63-42.642 4.564l-55.613-73.8c-1.912-2.537-4.697-4.178-7.842-4.62-3.146-.443-6.276.367-8.813 2.279l-28.234 21.276c-5.236 3.946-6.286 11.418-2.34 16.654l53.851 71.463c-14.606 18.056-22.603 40.502-22.603 63.894v26.22c0 2.97.691 5.825 1.958 8.386l-28.607 21.557c-5.249 3.956-6.297 11.406-2.341 16.655l21.276 28.234c3.962 5.258 11.415 6.288 16.655 2.34l7.859-5.922-13.155 86.51h-20.569c-9.553 0-17.325 7.772-17.325 17.325v13.295c0 9.553 7.772 17.325 17.325 17.325h13.286l-4.527 29.749c-.623 4.095 2.191 7.92 6.286 8.543.382.058.762.086 1.138.086 3.644 0 6.84-2.66 7.405-6.373l4.87-32.006h23.415v12.453c0 4.142 3.358 7.5 7.5 7.5s7.5-3.358 7.5-7.5v-12.453h50.773v12.453c0 4.142 3.358 7.5 7.5 7.5 4.143 0 7.5-3.358 7.5-7.5v-12.453h50.772v12.453c0 4.142 3.357 7.5 7.5 7.5s7.5-3.358 7.5-7.5v-12.453h23.422l13.245 87.14h-219.877l3.102-20.382c.624-4.095-2.191-7.92-6.286-8.543-4.097-.623-7.92 2.191-8.543 6.286l-3.54 23.259c-.549 3.605.5 7.259 2.877 10.026s5.831 4.353 9.477 4.353h225.702c3.647 0 7.101-1.586 9.478-4.353 2.378-2.767 3.427-6.421 2.878-10.024l-13.339-87.761h13.278c9.553 0 17.324-7.772 17.324-17.325v-13.295c0-9.551-7.772-17.323-17.324-17.323zm-183.05-130.55-17.535-23.27 35.942-27.084 17.535 23.27zm49.792-33.63-19.404-25.751 12.001-9.043c6.78 5.004 16.024 6.641 24.609 3.445l31.407 41.678h-46.658c.136-.496.253-.999.326-1.516.44-3.147-.369-6.276-2.281-8.813zm8.099-67.042c10.731 0 15.246 13.67 6.734 20.083-4.918 3.705-11.917 2.742-15.64-2.198-5.583-7.407-.192-17.885 8.906-17.885zm39.167 50.66 23.269-17.535 27.085 35.942-23.27 17.535zm63.197 83.865-27.084-35.942 23.27-17.535 27.084 35.942zm-9.13-87.284v1.828l-20.687-27.452c-3.942-5.229-11.384-6.313-16.655-2.341l-25.751 19.405-9.051-12.011c5.197-7.072 6.504-16.37 3.457-24.601l33.048-24.904c22.407 16.318 35.639 42.143 35.639 70.076zm12.605-161.697 17.534 23.27-35.942 27.084-17.534-23.27zm-47.922 36.112 17.534 23.27-35.941 27.084-17.535-23.269zm-51.404 38.874c1.901-.029 3.811.07 5.712.196l15.306 20.311-12.001 9.044c-6.975-5.148-16.303-6.557-24.62-3.46l-17.823-23.652c14.312-3.465 23.882-2.291 33.426-2.439zm-45.654 11.137-23.27 17.535-27.084-35.942 23.27-17.535zm-63.196-83.864 27.084 35.943-23.27 17.535-27.084-35.943zm9.129 159.438c0-18.672 5.976-36.637 16.954-51.484l3.733 4.954c3.958 5.253 11.432 6.276 16.655 2.341l25.751-19.405 9.043 12.001c-5.157 6.987-6.552 16.32-3.46 24.62l-68.678 51.752v-24.779zm-12.605 89.543-17.535-23.27 35.943-27.084 17.535 23.27zm233.296 125.057c0 1.282-1.043 2.325-2.324 2.325h-250.291c-1.282 0-2.325-1.043-2.325-2.325v-13.295c0-1.282 1.043-2.325 2.325-2.325h158.915c4.143 0 7.5-3.358 7.5-7.5s-3.357-7.5-7.5-7.5h-123.174l15.119-99.423 52.322-39.427h73.766l20.657 27.412 16.945 111.438h-20.635c-4.143 0-7.5 3.358-7.5 7.5s3.357 7.5 7.5 7.5h56.376c1.281 0 2.324 1.043 2.324 2.325z"/></g></g></svg>