<svg id="Capa_1" enable-background="new 0 0 512 512" height="512" viewBox="0 0 512 512" width="512" xmlns="http://www.w3.org/2000/svg"><g><g><g><path d="m236.538 205.387c-32.116-41.981-137.342-6.701-124.706 105.983.502 4.479 5.664 6.656 9.284 3.971 24.027-17.812 66.292-19.559 94.693-30.83 32.413-12.861 44.106-48.566 20.729-79.124z" fill="#bce097"/><path d="m236.538 205.387c-1.58-2.065-3.342-3.936-5.253-5.627 10.267 24.685-.401 50.811-25.661 63.166-27.448 13.425-69.453 18.424-92.037 38.034-.767.666-1.632 1.08-2.52 1.289.173 2.985.417 6.019.765 9.121.502 4.479 5.664 6.655 9.284 3.971 24.027-17.812 66.292-19.559 94.693-30.83 32.413-12.861 44.106-48.566 20.729-79.124z" fill="#acd980"/><path d="m258.713 342.523h48.198c4.408 0 7.982-3.574 7.982-7.982v-100.859h-64.162v100.859c0 4.408 3.573 7.982 7.982 7.982z" fill="#9cd169"/><path d="m289.893 233.682v100.859c0 4.408-3.574 7.982-7.982 7.982h25c4.408 0 7.982-3.574 7.982-7.982v-100.859z" fill="#68b181"/><path d="m232.693 212.242c43.206-52.821-37.181-155.345-165.018-127.351-5.073 1.111-7.164 7.148-3.882 11.172 34.487 42.288 33.043 83.628 63.121 112.643 24.943 24.062 77.339 38.305 105.779 3.536z" fill="#9cd169"/><path d="m67.674 84.891c-1.428.313-2.61 1.025-3.512 1.964 110.526-14.094 180.652 73.762 143.217 124.518-8.256 11.194-19.043 17.805-30.775 20.928 20.366 2.771 41.416-2.12 56.088-20.058 43.206-52.822-37.181-155.345-165.018-127.352z" fill="#68b181"/><path d="m260.324 189.837h-33.932v-77.225c0-9.37 7.596-16.966 16.966-16.966s16.966 7.596 16.966 16.966z" fill="#ddebfd"/><path d="m340.306 189.837h-33.932v-77.225c0-9.37 7.596-16.966 16.966-16.966s16.966 7.596 16.966 16.966z" fill="#ddebfd"/><path d="m292.47 294.063h-19.316c-40.84 0-73.948-33.108-73.948-73.948v-50.633c0-5.281 4.281-9.562 9.562-9.562h148.087c5.281 0 9.562 4.281 9.562 9.562v50.633c.001 40.84-33.107 73.948-73.947 73.948z" fill="#5392f9"/><path d="m356.855 159.92h-26c5.281 0 9.562 4.281 9.562 9.562v50.633c0 39.719-31.318 72.115-70.606 73.863 1.109.049 2.221.084 3.342.084h19.316c40.84 0 73.948-33.108 73.948-73.948v-50.633c.001-5.28-4.28-9.561-9.562-9.561z" fill="#4071f7"/><circle cx="282.812" cy="226.991" fill="#bed9fd" r="18.165"/></g></g><g><path d="m378.079 205.81h-4.162v-36.327c0-9.408-7.654-17.062-17.062-17.062h-9.046v-39.81c0-13.487-10.977-24.46-24.47-24.46-13.492 0-24.47 10.973-24.47 24.46v39.81h-31.05v-39.81c0-13.487-10.973-24.46-24.46-24.46-13.373 0-24.269 10.78-24.461 24.102-6.315-5.85-13.37-11.188-21.11-15.965-3.525-2.177-8.146-1.082-10.321 2.443s-1.081 8.146 2.444 10.321c11.478 7.084 21.199 15.523 28.978 25.08v18.287h-10.121c-1.978 0-3.87.356-5.639.978-34.776-35.051-82.14-54.709-113.083-64.577 24.447-2.688 48.188-.569 69.608 6.347 3.94 1.271 8.169-.891 9.441-4.832 1.273-3.941-.891-8.169-4.832-9.442-29.972-9.679-63.928-10.83-98.197-3.329-10.354 2.268-14.983 14.787-8.089 23.237 16.307 19.994 24.173 39.636 31.78 58.631 8.975 22.41 17.618 43.335 36.831 58.992-14.033 18.344-27.315 48.305-22.212 93.778 1.149 10.284 13.041 15.234 21.211 9.162 13.491-10.003 34.441-14.723 54.701-19.287 13.176-2.968 26.8-6.037 38.281-10.594 3.006-1.189 5.881-2.599 8.627-4.17 4.975 3.413 10.351 6.277 16.034 8.53v38.696c0 8.536 6.944 15.48 15.479 15.48h16.599v8.39c0 36.067 29.343 65.409 65.41 65.409s65.41-29.343 65.41-65.409v-124.549c.001-15.467-12.582-28.05-28.049-28.05zm-64.209-93.199c0-5.216 4.248-9.46 9.47-9.46s9.47 4.244 9.47 9.46v39.81h-18.94zm-79.98 0c0-5.216 4.248-9.46 9.471-9.46 5.216 0 9.46 4.244 9.46 9.46v39.81h-18.931zm-130.206 41.245c-6.59-16.457-13.945-34.806-27.201-53.49 28.549 8.231 79.915 27.135 116.115 63.715-.57 1.7-.891 3.513-.891 5.402 0 0 .075 54.12.185 55.846-22.481 1.74-46.447-9.16-59.772-22.015-14.066-13.574-20.725-30.204-28.436-49.458zm57.2 82.637c-17.242 14.474-32.396 32.771-42.505 51.037 1.091-28.348 10.687-47.866 20.591-60.599 6.621 3.842 14.038 7.164 21.914 9.562zm16.109 50.951c-17.2 3.875-34.85 7.864-49.419 15.224 9.578-20.498 28.383-45.062 52.936-62.401 4.629.366 9.064.364 13.707-.075 3.563 14.002 10.771 26.555 20.539 36.614-.568.248-1.131.502-1.712.732-10.398 4.126-22.859 6.933-36.051 9.906zm81.237 47.095v-34.371c4.842.901 9.824 1.394 14.923 1.394h19.316c5.06 0 10.045-.472 14.92-1.37v34.346c0 .269-.211.48-.479.48h-48.2c-.269.001-.48-.209-.48-.479zm132.899 23.87c0 27.796-22.614 50.409-50.41 50.409s-50.41-22.614-50.41-50.409v-8.39h16.6c8.535 0 15.479-6.944 15.479-15.48v-38.646c6.661-2.634 12.993-6.154 18.857-10.546 3.316-2.483 3.991-7.184 1.508-10.499-2.481-3.315-7.182-3.99-10.499-1.508-11.739 8.792-25.637 13.223-39.786 13.223h-19.316c-36.638 0-66.447-29.808-66.447-66.447v-50.632c0-1.137.925-2.062 2.062-2.062h148.086c1.138 0 2.062.925 2.062 2.062v50.632c0 10.173-2.236 19.931-6.645 29.005-1.811 3.726-.259 8.213 3.467 10.024 3.725 1.811 8.214.258 10.023-3.467 5.31-10.926 8.045-22.654 8.146-34.867h4.172c7.195 0 13.05 5.854 13.05 13.05v124.548z"/><path d="m511.382 310.062c-1.644-3.801-6.057-5.55-9.86-3.908l-26.693 11.54c5.623-19.985 8.467-40.676 8.467-61.694 0-125.62-101.658-227.297-227.296-227.297-26.071 0-51.625 4.373-75.951 12.998-3.904 1.384-5.947 5.671-4.563 9.575 1.385 3.904 5.677 5.947 9.575 4.562 22.714-8.053 46.581-12.136 70.939-12.136 117.061 0 212.296 95.236 212.296 212.297 0 19.941-2.745 39.56-8.158 58.491l-17.39-25.19c-2.352-3.409-7.021-4.264-10.433-1.912-3.409 2.354-4.265 7.024-1.911 10.433l22.183 32.135c4.041 5.854 12.005 8.504 19.045 5.461l35.842-15.495c3.802-1.644 5.552-6.059 3.908-9.86z"/><path d="m326.939 456.161c-22.714 8.053-46.581 12.136-70.939 12.136-117.061 0-212.296-95.236-212.296-212.297 0-19.941 2.745-39.56 8.158-58.491l17.39 25.19c2.341 3.392 7.007 4.275 10.433 1.912 3.409-2.354 4.265-7.024 1.911-10.433l-22.183-32.135c-4.049-5.865-11.982-8.514-19.045-5.461l-35.843 15.496c-3.802 1.644-5.552 6.059-3.907 9.86 1.645 3.803 6.06 5.552 9.86 3.908l26.693-11.54c-5.623 19.985-8.467 40.676-8.467 61.694 0 60.713 23.642 117.793 66.574 160.723 42.93 42.931 100.009 66.574 160.722 66.574 26.071 0 51.625-4.373 75.951-12.998 3.904-1.384 5.947-5.671 4.563-9.575-1.385-3.904-5.674-5.947-9.575-4.563z"/><path d="m282.811 201.327c-14.151 0-25.665 11.513-25.665 25.665 0 14.151 11.514 25.664 25.665 25.664s25.665-11.513 25.665-25.664c0-14.152-11.513-25.665-25.665-25.665zm0 36.329c-5.881 0-10.665-4.784-10.665-10.664 0-5.881 4.784-10.665 10.665-10.665s10.665 4.784 10.665 10.665c0 5.88-4.784 10.664-10.665 10.664z"/></g></g></svg>