<svg id="Capa_1" enable-background="new 0 0 512 512" height="512" viewBox="0 0 512 512" width="512" xmlns="http://www.w3.org/2000/svg"><g><path d="m289.531 78.621c0 24.834 20.132 44.966 44.965 44.966h3.012c24.834 0 44.966-20.132 44.966-44.966v-30.623c0-3.866-3.134-7-7-7h-78.944c-3.866 0-7 3.134-7 7v30.623z" fill="#5392f9"/><path d="m375.475 40.999h-25c3.866 0 7 3.134 7 6.999v30.623c0 21.041-14.454 38.7-33.972 43.606 3.519.885 7.201 1.36 10.994 1.36h3.012c24.834 0 44.966-20.132 44.966-44.966v-30.623c0-3.866-3.134-6.999-7-6.999z" fill="#4071f7"/><path d="m91.581 206.201h54.902v172.985h-54.902z" fill="#ddebfd"/><path d="m121.483 206.201h25v172.985h-25z" fill="#bed9fd"/><path d="m67.873 201.023v-24.582c0-2.86 2.318-5.178 5.178-5.178h91.962c2.86 0 5.178 2.318 5.178 5.178v24.582c0 2.86-2.318 5.178-5.178 5.178h-91.962c-2.859 0-5.178-2.318-5.178-5.178z" fill="#9cd169"/><path d="m165.013 171.263h-25c2.86 0 5.178 2.318 5.178 5.178v24.582c0 2.86-2.318 5.178-5.178 5.178h25c2.86 0 5.178-2.318 5.178-5.178v-24.582c0-2.86-2.318-5.178-5.178-5.178z" fill="#68b181"/><path d="m80.312 322.182v144.767h254.771v-144.767l-127.386-82.844z" fill="#ddebfd"/><path d="m310.082 305.923v161.026h25.001v-144.767z" fill="#bed9fd"/><path d="m247.634 355.211h-20.174c-1.793 0-3.246-1.453-3.246-3.246v-46.601c0-4.786-5.952-6.993-9.072-3.363l-51.925 60.405c-3.339 3.884-.579 9.896 4.543 9.896h20.174c1.793 0 3.246 1.453 3.246 3.246v46.601c0 4.786 5.952 6.993 9.072 3.363l51.924-60.405c3.34-3.884.58-9.896-4.542-9.896z" fill="#ffc269"/><path d="m359.758 336.161h-24.676c-2.706 0-5.354-.785-7.622-2.26l-119.763-77.887-119.763 77.887c-2.268 1.475-4.916 2.26-7.622 2.26h-24.676c-7.721 0-13.98-6.259-13.98-13.98s6.259-13.98 13.98-13.98h20.53l123.909-80.583c4.636-3.014 10.608-3.014 15.244 0l123.909 80.583h20.53c7.721 0 13.98 6.259 13.98 13.98s-6.258 13.98-13.98 13.98z" fill="#5392f9"/><path d="m52.313 471.091v29.267c0 2.288 1.855 4.142 4.142 4.142h302.483c2.288 0 4.142-1.854 4.142-4.142v-29.267c0-2.288-1.855-4.142-4.142-4.142h-302.482c-2.288 0-4.143 1.854-4.143 4.142z" fill="#407194"/><path d="m358.939 466.949h-25c2.288 0 4.142 1.855 4.142 4.142v29.267c0 2.288-1.854 4.142-4.142 4.142h25c2.288 0 4.142-1.855 4.142-4.142v-29.267c0-2.288-1.854-4.142-4.142-4.142z" fill="#365f7e"/><g><path d="m337.508 203.967c-13.057-41.768 61.051-96.087 131.227-33.733 2.789 2.479 1.797 7.008-1.747 8.176-23.52 7.745-44.884 35.495-66.068 49.322-24.177 15.778-53.909 6.637-63.412-23.765z" fill="#9cd169"/><path d="m468.735 170.234c-2.161-1.92-4.325-3.727-6.491-5.429.926 2.556-.504 5.594-3.432 6.317-24.041 5.934-47.454 31.978-69.628 44.154-17.696 9.716-37.163 7.061-49.728-6.018 11.142 26.125 38.752 33.297 61.463 18.474 21.184-13.826 42.549-41.577 66.068-49.322 3.545-1.167 4.537-5.697 1.748-8.176z" fill="#68b181"/></g><g><path d="m477.799 174.796c.325-3.837-1.14-7.554-4.083-10.168-19.597-17.413-41.529-27.705-63.425-29.763-18.942-1.78-37.771 2.657-52.998 12.496-5.263 3.4-9.877 7.299-13.793 11.533v-28.159c26.117-2.984 46.475-25.211 46.475-52.114v-30.623c0-7.995-6.505-14.5-14.5-14.5h-6.745v-25.998c0-4.142-3.357-7.5-7.5-7.5s-7.5 3.358-7.5 7.5v25.999h-35.46v-25.999c0-4.142-3.357-7.5-7.5-7.5s-7.5 3.358-7.5 7.5v25.999h-6.739c-7.995 0-14.499 6.504-14.499 14.5v30.623c0 26.901 20.354 49.127 46.469 52.113v119.075c0 13.642 11.098 24.74 24.739 24.74h18.181c34.799 0 63.109 28.315 63.109 63.12 0 34.799-28.311 63.11-63.109 63.11h-28.84v-57.119h17.178c11.845 0 21.48-9.635 21.48-21.479s-9.636-21.48-21.48-21.48h-18.305l-122.046-79.371c-7.113-4.624-16.306-4.626-23.421 0l-42.007 27.319v-34.949h11.033c6.99 0 12.678-5.687 12.678-12.678v-24.582c0-6.991-5.688-12.678-12.678-12.678h-91.962c-6.99 0-12.678 5.687-12.678 12.678v24.582c0 6.991 5.687 12.678 12.678 12.678h11.029v80.407l-10.139 6.594h-18.305c-11.844 0-21.479 9.636-21.479 21.48s9.636 21.479 21.479 21.479h17.175v59.959c0 4.142 3.357 7.5 7.5 7.5s7.5-3.358 7.5-7.5v-61.311c1.468-.547 2.881-1.255 4.212-2.121l115.675-75.228 115.675 75.229c1.33.865 2.741 1.572 4.208 2.119v117.141h-239.771v-20.829c0-4.142-3.357-7.5-7.5-7.5s-7.5 3.358-7.5 7.5v20.829h-16.355c-6.419 0-11.642 5.223-11.642 11.643v29.267c0 6.419 5.223 11.642 11.642 11.642h302.483c6.42 0 11.643-5.223 11.643-11.642v-29.267c0-6.42-5.223-11.643-11.643-11.643h-16.358v-43.669h28.84c43.069 0 78.109-35.04 78.109-78.11 0-43.076-35.04-78.12-78.109-78.12h-18.18c-5.37 0-9.739-4.369-9.739-9.74v-20.945c4.935 5.053 10.822 8.9 17.491 11.295 4.996 1.794 10.222 2.679 15.5 2.679 15.524 0 26.772-6.698 38.479-16.147 3.223-2.602 3.727-7.323 1.125-10.546-2.6-3.223-7.321-3.728-10.547-1.125-3.197 2.581-6.053 4.685-8.729 6.432-9.821 6.41-21.031 8.085-30.758 4.592-7.221-2.593-13.174-7.812-17.356-15.04 11.282-15.046 30.752-26.174 55.38-31.537 15.978-3.48 33.094-4.125 47.408-2.08-7.248 4.275-13.889 9.602-19.77 14.641-3.146 2.695-3.511 7.43-.815 10.575 2.695 3.145 7.43 3.511 10.575.814 7.688-6.588 17.802-14.574 27.849-17.883 4.981-1.641 8.177-6.191 8.466-10.739zm-122.218 322.204h-295.767v-22.551h295.768v22.551zm-280.208-318.237h87.317v19.938h-87.317zm23.707 34.938h39.899v44.704l-39.899 25.948zm112.706 36.026c-1.243-.809-2.666-1.213-4.089-1.213s-2.846.404-4.089 1.213l-119.763 77.887c-1.053.685-2.275 1.047-3.534 1.047h-24.675c-3.573 0-6.479-2.906-6.479-6.479s2.906-6.48 6.479-6.48h20.53c1.451 0 2.872-.421 4.089-1.213l123.908-80.582c2.146-1.396 4.923-1.396 7.067-.001l123.909 80.583c1.217.792 2.638 1.213 4.089 1.213h20.529c3.573 0 6.48 2.907 6.48 6.48s-2.907 6.479-6.48 6.479h-24.677c-1.257 0-2.479-.362-3.531-1.046zm85.245-171.106v-30.122h77.943v30.122c0 20.659-16.807 37.466-37.466 37.466h-3.013c-20.657-.001-37.464-16.808-37.464-37.466zm46.477 115.494c-.06-12.193 8.042-25.184 21.926-34.155 18.638-12.042 47.649-16.472 78.726 1.576-33.379-2.272-75.636 7.173-100.652 32.579z"/><path d="m223.455 293.495c-5.015-1.86-10.512-.44-14 3.618l-51.925 60.404c-3.479 4.047-4.256 9.573-2.03 14.423 2.227 4.85 6.925 7.862 12.261 7.862h15.92v42.347c0 5.351 3.241 10.01 8.259 11.87 1.464.543 2.969.807 4.453.807 3.601 0 7.077-1.551 9.547-4.424l51.925-60.405c3.479-4.047 4.256-9.573 2.03-14.423-2.227-4.85-6.925-7.862-12.262-7.862h-15.919v-42.347c0-5.351-3.242-10.01-8.259-11.87zm20.892 69.216-45.666 53.124v-40.287c0-5.925-4.82-10.746-10.746-10.746h-16.887l45.666-53.123v40.287c0 5.925 4.82 10.746 10.746 10.746h16.887z"/></g></g></svg>