<svg id="Capa_1" enable-background="new 0 0 512 512" height="512" viewBox="0 0 512 512" width="512" xmlns="http://www.w3.org/2000/svg"><g><g><g><path d="m55.538 319.706v179.699c0 2.804 2.273 5.078 5.078 5.078h350.48c2.804 0 5.078-2.273 5.078-5.078v-179.699z" fill="#9cd169"/><path d="m391.175 319.706v179.699c0 2.805-2.273 5.078-5.078 5.078h24.999c2.804 0 5.078-2.273 5.078-5.078v-179.699z" fill="#68b181"/><path d="m30.307 314.628v-24.227c0-2.804 2.273-5.078 5.078-5.078h400.942c2.804 0 5.078 2.273 5.078 5.078v24.227c0 2.804-2.273 5.078-5.078 5.078h-400.942c-2.804 0-5.078-2.273-5.078-5.078z" fill="#407194"/><path d="m436.327 285.324h-24.999c2.804 0 5.078 2.273 5.078 5.078v24.227c0 2.804-2.273 5.078-5.078 5.078h24.999c2.804 0 5.078-2.274 5.078-5.078v-24.227c0-2.805-2.273-5.078-5.078-5.078z" fill="#365f7e"/><path d="m360.835 23.384h-162.763c-3.616 0-7.021 1.703-9.191 4.595l-36.863 49.151c-4.569 6.093-5.691 14.104-2.971 21.218l26.576 69.493c2.158 5.643 7.574 9.371 13.616 9.371h51.013l3.308-76.704h117.276v-77.124z" fill="#d47f6c"/><path d="m481.693 12.5v98.893c0 2.761-2.238 5-5 5h-110.858c-2.761 0-5-2.239-5-5v-98.893c0-2.761 2.238-5 5-5h110.858c2.761 0 5 2.238 5 5z" fill="#5392f9"/><path d="m476.693 7.5h-24.999c2.761 0 5 2.238 5 5v98.893c0 2.761-2.238 5-5 5h24.999c2.761 0 5-2.238 5-5v-98.893c0-2.762-2.239-5-5-5z" fill="#4071f7"/><circle cx="235.856" cy="191.813" fill="#ffc269" r="59.582"/><path d="m232.807 74.182-19.683 111.63c-.664 3.764 1.849 7.353 5.613 8.016l10.891 1.92c10.374 1.829 20.266-5.098 22.095-15.471l5.771-32.726c.897-5.088 5.749-8.485 10.837-7.588l3.663.646c18.226 3.214 35.602-8.961 38.814-27.178l4.36-24.727z" fill="#d47f6c"/><path d="m269.505 404.895h-16.997c-1.51 0-2.735-1.224-2.735-2.735v-39.264c0-4.033-5.015-5.892-7.643-2.834l-43.749 50.894c-2.813 3.273-.488 8.338 3.828 8.338h16.997c1.51 0 2.735 1.224 2.735 2.735v39.264c0 4.033 5.015 5.892 7.643 2.834l43.749-50.894c2.813-3.273.487-8.338-3.828-8.338z" fill="#ddebfd"/><g fill="#bed9fd"><path d="m385.847 242.312h-27.083c-2.804 0-5.078 2.273-5.078 5.078v37.933h37.238v-37.933c.001-2.804-2.273-5.078-5.077-5.078z"/><path d="m112.948 242.312h-27.082c-2.804 0-5.078 2.273-5.078 5.078v37.933h37.238v-37.933c0-2.804-2.273-5.078-5.078-5.078z"/></g><path d="m373.066 456.479h43.108v-88.769h-43.108c-6.755 0-12.231 5.476-12.231 12.231v64.307c0 6.755 5.476 12.231 12.231 12.231z" fill="#68b181"/><path d="m391.175 367.71h24.999v88.769h-24.999z" fill="#5ea570"/><path d="m98.646 456.479h-43.108v-88.769h43.108c6.755 0 12.231 5.476 12.231 12.231v64.307c0 6.755-5.476 12.231-12.231 12.231z" fill="#68b181"/><path d="m341.84 23.38h19v77.13h-19z" fill="#b1705b"/></g></g><g><path d="m436.333 277.833h-37.904v-30.435c0-6.936-5.643-12.578-12.578-12.578h-27.083c-6.936 0-12.578 5.643-12.578 12.578v30.435h-92.834c-4.142 0-7.5 3.357-7.5 7.5s3.358 7.5 7.5 7.5h180.556v19.384c-34.355 0-339.561 0-396.112 0v-19.384h180.556c4.142 0 7.5-3.357 7.5-7.5s-3.358-7.5-7.5-7.5h-92.834v-30.435c0-6.936-5.643-12.578-12.578-12.578h-27.084c-6.936 0-12.578 5.643-12.578 12.578v30.435h-37.905c-6.936 0-12.578 5.643-12.578 12.578v24.228c0 6.936 5.642 12.578 12.578 12.578h12.654v172.188c0 6.945 5.638 12.596 12.569 12.596h350.492c6.938 0 12.582-5.635 12.582-12.561 0-30.767 0-37.947 0-71.991 0-4.143-3.358-7.5-7.5-7.5s-7.5 3.357-7.5 7.5v21.546h-35.604c-2.609 0-4.731-2.122-4.731-4.73v-64.31c0-2.609 2.123-4.731 4.731-4.731h35.614v17.226c0 4.143 3.358 7.5 7.5 7.5s7.5-3.357 7.5-7.5v-65.231h12.649c6.936 0 12.578-5.643 12.578-12.578v-24.228c.001-6.937-5.642-12.58-12.578-12.58zm-75.144-28.013h22.24v28.013h-22.24zm-272.907 0h22.24v28.013h-22.24zm-25.25 125.403h35.609c2.609 0 4.731 2.122 4.731 4.731v64.31c0 2.608-2.123 4.73-4.731 4.73h-35.609zm345.653-15h-35.615c-10.88 0-19.731 8.852-19.731 19.731v64.31c0 10.88 8.852 19.73 19.731 19.73h35.604v33.006h-345.642v-33.006h35.609c10.88 0 19.731-8.851 19.731-19.73v-64.31c0-10.88-8.852-19.731-19.731-19.731h-35.609v-33.006h345.653z"/><path d="m476.7 0h-110.861c-6.893 0-12.5 5.607-12.5 12.5v3.385h-81.093c-4.142 0-7.5 3.357-7.5 7.5s3.358 7.5 7.5 7.5h81.093v62.123h-36.892c-5.588 0-10.351 3.994-11.324 9.495l-1.705 9.632c-2.487 14.118-15.952 23.268-30.122 21.095-2.521-.387-5.652-1.429-9.603-.613-6.738 1.232-12.333 6.511-13.584 13.634l-5.771 32.729c-1.11 6.283-7.129 10.493-13.41 9.393l-10.32-1.823 16.419-93.107c.719-4.079-2.004-7.97-6.083-8.688-4.082-.725-7.969 2.003-8.689 6.083l-6.523 36.988c-15.551 4.846-28.354 14.958-36.643 28.103l-23.038-60.252c-1.812-4.737-1.078-9.985 1.965-14.041l36.858-49.148c.754-1.004 1.948-1.604 3.193-1.604h39.182c4.142 0 7.5-3.357 7.5-7.5s-3.358-7.5-7.5-7.5h-39.182c-5.938 0-11.616 2.84-15.19 7.6l-36.86 49.15c-6.156 8.202-7.643 18.82-3.977 28.401l26.572 69.496c.59 1.542 1.359 3.019 2.28 4.394-1.39 5.412-2.126 11.075-2.126 16.894 0 36.994 30.098 67.092 67.092 67.092 36.989 0 67.082-30.098 67.082-67.092 0-16.431-6.063-32.054-16.569-44.109 15.834-3.405 28.839-16.064 31.817-32.963l1.192-6.736h33.957v3.389c0 6.893 5.607 12.5 12.5 12.5h110.863c6.893 0 12.5-5.607 12.5-12.5v-98.9c0-6.893-5.607-12.5-12.5-12.5zm-240.841 243.908c-28.724 0-52.092-23.368-52.092-52.092 0-20.187 11.414-38.059 28.911-46.672l-6.943 39.368c-1.383 7.826 3.857 15.36 11.697 16.706 10.066 1.729 11.742 2.331 15.506 2.328 12.648-.001 23.896-9.087 26.172-21.96l5.771-32.736c.014-.082.042-.157.066-.234 14.275 9.638 22.993 25.839 22.993 43.2.001 28.724-23.362 52.092-52.081 52.092zm238.341-135.012h-105.861v-93.896h105.861z"/><path d="m202.206 426.809h12.232v34.5c0 10.989 13.677 16.05 20.831 7.723l43.75-50.896c3.236-3.764 3.959-8.903 1.889-13.414-2.07-4.512-6.44-7.313-11.404-7.313h-12.232v-34.5c0-5.007-3.034-9.367-7.728-11.108-4.695-1.74-9.838-.413-13.103 3.386l-43.75 50.896c-3.236 3.764-3.959 8.903-1.889 13.414 2.071 4.509 6.44 7.312 11.404 7.312zm40.066-55.396v30.761c0 5.644 4.591 10.234 10.235 10.234h11.656l-34.725 40.396v-30.761c0-5.644-4.591-10.235-10.235-10.235h-11.656z"/></g></g></svg>