<svg id="Capa_1" enable-background="new 0 0 512 512" height="512" viewBox="0 0 512 512" width="512" xmlns="http://www.w3.org/2000/svg"><g><g><g><path d="m432.847 98.124h-353.69c-5.523 0-10 4.477-10 10v55.588h373.69v-55.588c0-5.523-4.478-10-10-10z" fill="#f4e2c1"/><path d="m432.847 98.124h-28c5.523 0 10 4.477 10 10v55.588h28v-55.588c0-5.523-4.478-10-10-10z" fill="#efcb83"/><path d="m432.847 504.5h-353.69c-5.523 0-10-4.477-10-10v-330.788h373.69v330.788c0 5.523-4.478 10-10 10z" fill="#407194"/><path d="m414.847 163.712v330.788c0 5.523-4.477 10-10 10h28c5.523 0 10-4.477 10-10v-330.788z" fill="#365f7e"/><g><path d="m180.647 362.334c-23.447-49.508 58.978-129.731 156.814-64.632 3.889 2.588 3.446 8.376-.745 10.439-27.81 13.69-49.47 51.805-73.328 72.629-27.226 23.764-65.674 17.6-82.741-18.436z" fill="#9cd169"/><path d="m337.462 297.702c-3.012-2.004-6.01-3.868-8.99-5.602 1.592 3.007.347 7.023-3.156 8.428-28.771 11.535-53.267 47.893-78.64 66.841-20.247 15.121-44.843 15.214-62.692 1.185 18.355 30.45 53.829 34.541 79.406 12.217 23.858-20.823 45.518-58.939 73.328-72.629 4.19-2.064 4.633-7.853.744-10.44z" fill="#68b181"/></g><path d="m368.279 131.657h-19.464c-2.761 0-5-2.239-5-5v-84.614c0-2.806-2.274-5.08-5.08-5.08h-165.467c-2.806 0-5.08 2.274-5.08 5.08v84.614c0 2.761-2.239 5-5 5h-19.464c-2.761 0-5-2.239-5-5v-104.425c0-8.136 6.596-14.732 14.732-14.732h205.091c8.136 0 14.732 6.596 14.732 14.732v104.425c0 2.762-2.239 5-5 5z" fill="#407194"/></g></g><g><path d="m450.343 108.12c0-9.649-7.852-17.5-17.501-17.5h-52.063v-68.389c0-12.258-9.973-22.231-22.232-22.231h-205.091c-12.258 0-22.231 9.973-22.231 22.231v68.389h-52.063c-9.649 0-17.502 7.851-17.502 17.5v277.159c0 4.142 3.355 7.5 7.498 7.5 4.142 0 7.501-3.358 7.501-7.5v-214.068h358.687v323.289c0 1.379-1.12 2.5-2.499 2.5h-353.69c-1.378 0-2.5-1.121-2.5-2.5v-74.221c0-4.143-3.358-7.5-7.5-7.5s-7.5 3.357-7.5 7.5v74.221c0 9.649 7.851 17.5 17.5 17.5h353.689c9.649 0 17.496-7.851 17.496-17.5.001-12.8.001-365.861.001-386.38zm-304.118-85.889c0-3.987 3.244-7.231 7.231-7.231h205.091c3.987 0 7.231 3.244 7.231 7.231v101.926h-14.463v-82.114c0-6.937-5.644-12.579-12.58-12.579h-25.448c-4.142 0-7.5 3.357-7.5 7.5s3.358 7.5 7.5 7.5h23.028v46.156h-160.627v-46.156h102.599c4.142 0 7.5-3.357 7.5-7.5s-3.358-7.5-7.5-7.5h-105.019c-6.937 0-12.58 5.643-12.58 12.579v82.114h-14.463zm-67.063 83.389h52.063v21.037c0 6.893 5.607 12.5 12.5 12.5h19.463c6.893 0 12.5-5.607 12.5-12.5v-21.037h160.627v21.037c0 6.893 5.607 12.5 12.5 12.5h19.463c6.893 0 12.5-5.607 12.5-12.5v-21.037h52.063c1.378 0 2.501 1.121 2.501 2.5v48.091h-358.681v-48.091c0-1.379 1.123-2.5 2.501-2.5z"/><path d="m171.868 398.154c3.069 0 5.95-1.898 7.054-4.952 1.473-4.073 3.213-7.943 5.151-11.637 21.909 25.952 57.945 27.814 84.248 4.854 9.636-8.41 18.919-19.499 27.897-30.224 13.834-16.524 28.139-33.611 43.811-41.326 9.338-4.596 10.327-17.6 1.588-23.412-26.985-17.955-55.578-26.794-82.668-25.555-23.378 1.066-45.532 9.678-62.379 24.246-23.074 19.953-35.348 50.486-21.708 77.363-4.103 6.591-7.472 13.47-10.046 20.59-1.778 4.916 1.892 10.053 7.052 10.053zm112.848-51.587c-9.004 10.755-17.508 20.914-26.259 28.552-20.763 18.123-49.203 16.593-65.838-7.066 17.61-23.535 43.294-37.565 59.443-44.585 23.463-10.201 49.747-15.786 70.427-15.422-13.81 9.922-25.955 24.405-37.773 38.521zm-78.335-45.071c13.897-12.018 33.839-20.787 57.695-20.787 15.387 0 32.408 3.674 50.471 12.458-21.241.926-45.838 6.707-68.465 16.544-25.194 10.953-45.882 25.87-60.79 43.512-4.342-16.567 3.599-36.603 21.089-51.727z"/></g></g></svg>