<svg id="Capa_1" enable-background="new 0 0 512.044 512.044" height="512" viewBox="0 0 512.044 512.044" width="512" xmlns="http://www.w3.org/2000/svg"><g><g><g><path d="m215.938 89.259h-29.246c-2.421 0-4.384-1.963-4.384-4.384v-.045c0-20.144-16.329-36.473-36.473-36.473-7.448 0-14.37 2.237-20.141 6.071-1.872 1.244-4.41.443-5.121-1.689-7.739-23.189-30.054-39.707-56.079-38.654-29.146 1.179-52.887 24.774-54.233 53.913-1.501 32.505 24.409 59.33 56.583 59.33h55.675c3.156 0 6.016 1.985 6.99 4.986 3.539 10.91 13.78 18.8 25.87 18.8s22.331-7.89 25.87-18.8c.974-3.002 3.834-4.986 6.99-4.986h18.634c4.68 0 8.475 3.794 8.475 8.475v42.913h31.189v-58.857c0-16.9-13.7-30.6-30.599-30.6z" fill="#ddebfd"/><g fill="#9cd169"><path d="m384.057 55.592c-7.414-37.36 61.77-77.476 116.702-16.987 2.184 2.404.903 6.232-2.273 6.913-21.074 4.515-42.144 26.543-61.763 36.538-22.39 11.406-47.27.729-52.666-26.464z"/><path d="m337.023 55.592c7.414-37.36-61.77-77.476-116.702-16.987-2.183 2.404-.903 6.232 2.273 6.913 21.074 4.515 42.144 26.543 61.763 36.538 22.39 11.406 47.269.729 52.666-26.464z"/></g><path d="m338.087 158.809-35.592 320.181h116.091l-35.592-320.181c-.232-2.083-1.993-3.66-4.089-3.66h-36.728c-2.097 0-3.858 1.576-4.09 3.66z" fill="#ddebfd"/><path d="m382.993 158.809c-.232-2.083-1.993-3.66-4.089-3.66h-25c2.096 0 3.857 1.576 4.089 3.66l35.592 320.181h25z" fill="#bed9fd"/><g fill="#db387e"><path d="m338.087 158.809-4.459 40.113h53.824l-4.459-40.113c-.232-2.083-1.993-3.66-4.089-3.66h-36.728c-2.096 0-3.857 1.576-4.089 3.66z"/><path d="m323.486 290.156h74.108l-4.866-43.772h-64.376z"/></g><g fill="#c4237c"><path d="m372.594 290.156h25l-4.866-43.772h-25z"/><path d="m378.904 155.149h-25c2.096 0 3.857 1.576 4.089 3.66l4.459 40.113h25l-4.459-40.113c-.232-2.084-1.993-3.66-4.089-3.66z"/></g><path d="m208.49 158.809-35.593 320.181h116.091l-35.592-320.181c-.232-2.083-1.993-3.66-4.089-3.66h-36.728c-2.097 0-3.858 1.576-4.089 3.66z" fill="#ddebfd"/><path d="m253.395 158.809c-.232-2.083-1.993-3.66-4.089-3.66h-25c2.096 0 3.857 1.576 4.089 3.66l35.592 320.181h25z" fill="#bed9fd"/><g fill="#db387e"><path d="m208.49 158.809-4.459 40.113h53.824l-4.459-40.113c-.232-2.083-1.993-3.66-4.089-3.66h-36.728c-2.097 0-3.858 1.576-4.089 3.66z"/><path d="m193.889 290.156h74.107l-4.865-43.772h-64.376z"/></g><g fill="#c4237c"><path d="m253.395 158.809c-.218-1.962-1.922-3.66-4.089-3.66h-25c2.096 0 3.857 1.576 4.089 3.66l4.459 40.113h25c-.923-8.313-2.945-26.489-4.459-40.113z"/><path d="m267.996 290.156-4.865-43.772h-25l4.865 43.772z"/></g><path d="m162.765 366.125v138.42h294.282c2.84 0 5.143-2.303 5.143-5.143v-133.277c0-2.84-2.303-5.143-5.143-5.143h-289.139c-2.84 0-5.143 2.303-5.143 5.143z" fill="#5392f9"/><path d="m457.048 360.982h-25c2.84 0 5.143 2.302 5.143 5.143v133.277c0 2.84-2.302 5.143-5.143 5.143h25c2.84 0 5.143-2.302 5.143-5.143v-133.277c-.001-2.84-2.303-5.143-5.143-5.143z" fill="#4071f7"/><path d="m42.996 335.375v169.169h193.134v-219.462c0-3.396-3.233-5.859-6.507-4.959l-182.849 50.294c-2.232.614-3.778 2.643-3.778 4.958z" fill="#f4e2c1"/><path d="m229.623 280.123-17.024 4.683c.337.681.531 1.45.531 2.276v217.463h23v-219.463c0-3.396-3.233-5.859-6.507-4.959z" fill="#efcb83"/><g fill="#407194"><path d="m83.025 367.876v25.714c0 1.704 1.381 3.086 3.086 3.086h34.719c1.704 0 3.086-1.382 3.086-3.086v-25.714c0-1.704-1.381-3.086-3.086-3.086h-34.72c-1.704 0-3.085 1.382-3.085 3.086z"/><path d="m155.211 367.876v25.714c0 1.704 1.382 3.086 3.086 3.086h34.719c1.704 0 3.086-1.382 3.086-3.086v-25.714c0-1.704-1.382-3.086-3.086-3.086h-34.719c-1.705 0-3.086 1.382-3.086 3.086z"/><path d="m83.025 430.43v25.714c0 1.704 1.381 3.086 3.086 3.086h34.719c1.704 0 3.086-1.381 3.086-3.086v-25.714c0-1.704-1.381-3.086-3.086-3.086h-34.72c-1.704.001-3.085 1.382-3.085 3.086z"/><path d="m155.211 430.43v25.714c0 1.704 1.382 3.086 3.086 3.086h34.719c1.704 0 3.086-1.381 3.086-3.086v-25.714c0-1.704-1.382-3.086-3.086-3.086h-34.719c-1.705.001-3.086 1.382-3.086 3.086z"/></g><g fill="#bed9fd"><path d="m370.168 419.906v25.714c0 1.704 1.382 3.086 3.086 3.086h34.719c1.704 0 3.086-1.382 3.086-3.086v-25.714c0-1.704-1.382-3.086-3.086-3.086h-34.719c-1.704.001-3.086 1.382-3.086 3.086z"/><path d="m287.262 419.906v25.714c0 1.704 1.382 3.086 3.086 3.086h34.719c1.704 0 3.086-1.382 3.086-3.086v-25.714c0-1.704-1.382-3.086-3.086-3.086h-34.719c-1.705.001-3.086 1.382-3.086 3.086z"/></g></g></g><g><path d="m506.316 33.548c-32.179-35.436-71.616-40.436-100.306-25.986-19.712 9.929-31.261 27.725-29.874 45.3-5.968 4.956-11.188 10.546-15.593 16.723-4.405-6.177-9.625-11.767-15.594-16.724 1.386-17.574-10.162-35.371-29.873-45.299-28.633-14.424-68.083-9.498-100.308 25.985-6.076 6.691-2.546 17.402 6.255 19.29 13.685 2.931 28.892 15.329 42.701 25.095 3.382 2.391 8.062 1.587 10.454-1.794 2.392-3.382 1.588-8.063-1.794-10.454-2.277-1.609-4.568-3.271-6.869-4.94-8.563-6.21-17.315-12.552-26.367-17.093 20.762-4.02 47.565-1.603 65.66 4.316 8.819 2.885 16.669 6.608 23.54 11.135-4.441 13.286-15.136 20.947-28.319 19.859-4.105-.357-7.753 2.721-8.098 6.85-.345 4.128 2.722 7.753 6.85 8.098 18.444 1.539 34.106-8.119 41.773-24.889 4.951 4.962 9.095 10.564 12.441 16.773v61.84h-10.82c-5.904 0-10.866 4.43-11.544 10.332l-21.731 195.515h-26.315l-21.738-195.511c-.467-4.222-3.153-7.689-6.815-9.322v-28.805c0-21.008-17.087-38.101-38.091-38.101h-26.238c-2.176-31.319-35.831-50.393-63.812-36.121-10.326-24.272-35.011-40.119-61.709-39.045-32.929 1.333-59.908 28.155-61.421 61.061-.818 17.724 5.461 34.532 17.679 47.327 22.305 23.357 50.011 19.415 52.495 19.85 4.142 0 7.5-3.358 7.5-7.5s-3.358-7.5-7.5-7.5h-6.1c-13.557 0-26.18-5.402-35.546-15.209-9.361-9.803-14.17-22.685-13.543-36.277 1.159-25.201 21.822-45.742 47.041-46.762 21.767-.879 41.78 12.912 48.661 33.52 1.073 3.235 3.536 5.725 6.756 6.83 3.257 1.118 6.775.656 9.631-1.255 18.985-12.602 44.973.903 44.973 24.203 0 6.551 5.33 11.88 11.881 11.88h29.251c12.732 0 23.091 10.363 23.091 23.1v27.791h-16.181v-11.84c0-8.812-7.169-15.98-15.98-15.98h-18.63c-6.48 0-12.157 4.092-14.124 10.175-2.643 8.144-10.172 13.616-18.736 13.616-8.565 0-16.094-5.472-18.741-13.63-1.985-6.077-7.66-10.16-14.12-10.16h-14.58c-4.142 0-7.5 3.358-7.5 7.5s3.358 7.5 7.5 7.5h14.5c4.713 14.239 17.924 23.791 32.941 23.791 15.015 0 28.224-9.548 32.94-23.791h18.551c.541 0 .98.439.98.98v12.854c-3.663 1.633-6.348 5.099-6.814 9.317l-14.019 126.091-142.24 39.124c-5.469 1.506-9.289 6.519-9.289 12.191v29.416c0 4.143 3.358 7.5 7.5 7.5s7.5-3.358 7.5-7.5v-27.62l178.14-48.999v208.876h-178.141v-97.257c0-4.143-3.358-7.5-7.5-7.5s-7.5 3.358-7.5 7.5v104.757c0 4.143 3.358 7.5 7.5 7.5h414.069c6.97 0 12.64-5.67 12.64-12.64v-133.285c0-6.97-5.67-12.64-12.64-12.64h-44.879l-21.728-195.509c-.65-5.894-5.613-10.338-11.545-10.338h-10.91v-61.661c3.365-6.284 7.544-11.95 12.547-16.961 10.791 23.571 36.796 31.328 59.591 19.714 20.016-10.195 40.997-31.832 59.931-35.889 8.781-1.882 12.34-12.586 6.252-19.288zm-262.495-5.736c24.058-16.422 48.094-15.12 64.505-6.853 10.148 5.112 17.339 12.761 20.274 20.91-25.091-13.53-57.315-17.715-84.779-14.057zm91.241 226.064h50.953l3.198 28.774h-57.349zm49.286-15.001h-47.618l3.608-32.463h40.403zm-140.72 58.773h17.655l6.208 55.832h-23.863zm-32.886-91.236h40.397l3.61 32.463h-47.616zm4.867-43.778h30.663l3.2 28.778h-37.062zm12.023 110.25-25.046 6.889 2.879-25.898h50.952l3.199 28.772h-16.237c-.582-3.016-2.224-5.718-4.73-7.629-3.165-2.41-7.18-3.19-11.017-2.134zm227.065 224.16h-211.069v-128.563h211.068v128.563zm-130.705-143.564 6.205-55.83h60.683l6.205 55.83zm55.081-162.068h-37.068l3.198-28.778h30.672zm33.685-170.454c16.41-8.266 40.448-9.568 64.507 6.855-27.571-3.672-59.765.566-84.781 14.056 2.934-8.148 10.124-15.798 20.274-20.911zm20.565 54.401c-16.472 8.391-34.368 2.33-40.582-16.258 25.363-16.712 63.188-20.487 89.197-15.449-17.268 8.661-33.862 24.191-48.615 31.707z"/><path d="m86.104 404.172h34.72c5.837 0 10.586-4.749 10.586-10.586v-25.715c0-5.837-4.749-10.585-10.586-10.585h-34.72c-5.837 0-10.586 4.748-10.586 10.585v25.715c0 5.837 4.749 10.586 10.586 10.586zm4.414-31.886h25.891v16.885h-25.891z"/><path d="m158.292 404.172h34.72c5.837 0 10.586-4.749 10.586-10.586v-25.715c0-5.837-4.749-10.585-10.586-10.585h-34.72c-5.837 0-10.586 4.748-10.586 10.585v25.715c0 5.837 4.749 10.586 10.586 10.586zm4.414-31.886h25.891v16.885h-25.891z"/><path d="m75.518 456.142c0 5.837 4.749 10.586 10.586 10.586h34.72c5.837 0 10.586-4.749 10.586-10.586v-25.715c0-5.837-4.749-10.586-10.586-10.586h-34.72c-5.837 0-10.586 4.749-10.586 10.586zm15-21.3h25.891v16.886h-25.891z"/><path d="m147.706 456.142c0 5.837 4.749 10.586 10.586 10.586h34.72c5.837 0 10.586-4.749 10.586-10.586v-25.715c0-5.837-4.749-10.586-10.586-10.586h-34.72c-5.837 0-10.586 4.749-10.586 10.586zm15-21.3h25.891v16.886h-25.891z"/><path d="m373.256 409.318c-5.837 0-10.585 4.749-10.585 10.586v25.715c0 5.837 4.748 10.585 10.585 10.585h34.72c5.837 0 10.586-4.748 10.586-10.585v-25.715c0-5.837-4.749-10.586-10.586-10.586zm30.305 31.885h-25.89v-16.885h25.89z"/><path d="m325.067 409.318h-34.72c-5.837 0-10.585 4.749-10.585 10.586v25.715c0 5.837 4.748 10.585 10.585 10.585h34.72c5.837 0 10.586-4.748 10.586-10.585v-25.715c0-5.837-4.749-10.586-10.586-10.586zm-4.414 31.885h-25.89v-16.885h25.89z"/></g></g></svg>