<svg id="Capa_1" enable-background="new 0 0 512 512" height="512" viewBox="0 0 512 512" width="512" xmlns="http://www.w3.org/2000/svg"><g><g><g><path d="m29.014 17.069v341.393c0 5.285 4.284 9.569 9.569 9.569h195.544c5.285 0 9.568-4.284 9.568-9.569v-341.394c0-5.285-4.284-9.568-9.568-9.568h-195.545c-5.284 0-9.568 4.284-9.568 9.569z" fill="#5392f9"/><path d="m234.126 7.5h-27c5.284 0 9.568 4.284 9.568 9.568v341.393c0 5.285-4.284 9.569-9.568 9.569h27c5.284 0 9.568-4.284 9.568-9.569v-341.393c.001-5.284-4.283-9.568-9.568-9.568z" fill="#4071f7"/><path d="m29.014 301.412v57.049c0 5.285 4.284 9.569 9.569 9.569h195.544c5.285 0 9.568-4.284 9.568-9.569v-57.049z" fill="#ddebfd"/><path d="m243.695 358.461v-57.049h-27v57.049c0 5.285-4.284 9.569-9.568 9.569h27c5.284 0 9.568-4.284 9.568-9.569z" fill="#bed9fd"/><path d="m365.576 256.133c-7.391-37.24 61.572-77.226 116.326-16.933 2.176 2.397.9 6.212-2.265 6.89-21.006 4.5-42.008 26.457-61.564 36.42-22.318 11.371-47.117.729-52.497-26.377z" fill="#9cd169"/><path d="m318.694 256.133c7.391-37.24-61.572-77.226-116.326-16.933-2.176 2.397-.9 6.212 2.265 6.89 21.006 4.5 42.008 26.457 61.564 36.42 22.318 11.371 47.118.729 52.497-26.377z" fill="#9cd169"/><path d="m323.255 134.875v27.028c0 5.872 4.76 10.632 10.632 10.632h16.397c5.872 0 10.632-4.76 10.632-10.632v-27.028z" fill="#ffc269"/><path d="m305.619 129.559v-95.306c0-14.775 11.978-26.753 26.753-26.753h45.611c2.936 0 5.316 2.38 5.316 5.316v116.743c0 2.936-2.38 5.316-5.316 5.316h-67.048c-2.936 0-5.316-2.38-5.316-5.316z" fill="#407194"/><path d="m377.983 7.5h-27c2.936 0 5.316 2.38 5.316 5.316v116.743c0 2.936-2.38 5.316-5.316 5.316h27c2.936 0 5.316-2.38 5.316-5.316v-116.743c0-2.936-2.38-5.316-5.316-5.316z" fill="#365f7e"/><path d="m172.862 146.644h-18.442c-1.639 0-2.967-1.328-2.967-2.967v-42.6c0-4.375-5.441-6.392-8.293-3.074l-47.467 55.219c-3.052 3.551-.53 9.047 4.153 9.047h18.442c1.639 0 2.967 1.328 2.967 2.967v42.6c0 4.375 5.441 6.392 8.293 3.074l47.467-55.219c3.053-3.551.53-9.047-4.153-9.047z" fill="#ffc269"/></g></g><g><path d="m152.175 334.722c0-4.143-3.357-7.5-7.5-7.5h-16.642c-4.143 0-7.5 3.357-7.5 7.5s3.357 7.5 7.5 7.5h16.642c4.142 0 7.5-3.358 7.5-7.5z"/><path d="m487.454 234.158c-15.434-16.995-33.584-28.012-52.489-31.859-42.899-8.733-79.714 20.506-77.312 51.115-2.87 2.384-5.558 4.92-8.073 7.593v-80.972h.703c9.998 0 18.132-8.134 18.132-18.132v-19.528h9.568c7.066 0 12.815-5.749 12.815-12.816v-54.867h24.876c4.143 0 7.5-3.357 7.5-7.5s-3.357-7.5-7.5-7.5h-24.876v-27.055h24.876c4.143 0 7.5-3.357 7.5-7.5s-3.357-7.5-7.5-7.5h-24.876v-4.821c.001-7.067-5.748-12.816-12.815-12.816h-45.611c-18.887 0-34.253 15.366-34.253 34.253v95.306c0 7.067 5.749 12.816 12.815 12.816h4.82v19.528c0 9.998 8.134 18.132 18.132 18.132h.693v80.856c-2.484-2.63-5.135-5.128-7.963-7.477 2.367-30.157-33.281-58.954-75.428-51.459v-184.885c0-9.413-7.653-17.07-17.06-17.07h-195.548c-9.413 0-17.07 7.657-17.07 17.07v51.96c0 4.143 3.357 7.5 7.5 7.5s7.5-3.357 7.5-7.5v-51.96c0-1.142.929-2.07 2.07-2.07h195.55c1.136 0 2.06.929 2.06 2.07v189.106c-14.13 5.467-27.55 14.962-39.373 27.981-6.101 6.718-2.496 17.395 6.246 19.267 10.588 2.269 21.993 10.171 33.127 18.219v22.269h-199.68v-189.882c0-4.143-3.357-7.5-7.5-7.5s-7.5 3.357-7.5 7.5v254.43c0 9.413 7.657 17.07 17.07 17.07h90.27v26.1c0 60.858 49.512 110.37 110.37 110.37 60.853 0 110.36-49.512 110.36-110.37v-115.184c3.348-6.254 7.505-11.893 12.482-16.882 4.281 9.335 11.124 16.56 19.982 20.86 12.401 6.018 26.809 5.201 39.433-1.23 3.691-1.88 5.159-6.396 3.278-10.087-1.879-3.691-6.397-5.157-10.087-3.278-16.499 8.406-34.249 2.228-40.41-16.174 6.842-4.506 14.659-8.212 23.44-11.084 18.012-5.893 44.683-8.302 65.362-4.314-7.266 3.646-14.134 8.344-20.365 12.785-3.373 2.404-4.158 7.088-1.754 10.461 2.404 3.371 7.086 4.158 10.461 1.754 9.165-6.533 19.782-13.684 29.805-15.831 8.725-1.87 12.357-12.537 6.247-19.268zm-174.335-199.905c0-10.616 8.637-19.253 19.253-19.253h43.427v112.375h-62.68zm17.636 127.65v-19.528h22.66v19.528c0 1.727-1.405 3.132-3.132 3.132-1.469 0 3.477 0-16.396 0-1.727 0-3.132-1.405-3.132-3.132zm-109.547 82.352c25.838-4.983 63.499-1.268 88.805 15.398-6.191 18.488-24.006 24.532-40.411 16.174-14.597-7.436-31.261-22.959-48.394-31.572zm89.045-1.839c-24.824-13.366-56.819-17.643-84.362-13.996 37.89-25.801 76.471-7.751 84.362 13.996zm-273.743 116.044v-49.548h199.68v49.548c0 1.142-.924 2.07-2.06 2.07h-195.55c-1.142 0-2.07-.928-2.07-2.07zm202.71 138.54c-52.587 0-95.37-42.783-95.37-95.37v-26.1h90.28c9.406 0 17.06-7.657 17.06-17.07v-56.951c0-.032.005-.064.005-.097s-.004-.064-.005-.097v-19.052c3.869 2.579 7.751 4.967 11.604 6.93 22.877 11.657 48.715 3.7 59.416-19.629 4.922 4.935 9.042 10.506 12.371 16.678v115.388c-.001 52.587-42.779 95.37-95.361 95.37zm134.797-254.584c8.026-22.119 46.856-39.53 84.358-13.998-27.496-3.639-59.5.614-84.358 13.998z"/><path d="m150.984 89.622c-4.841-1.792-10.145-.425-13.512 3.491l-47.467 55.219c-3.346 3.893-4.095 9.208-1.953 13.873s6.661 7.563 11.794 7.563h13.908v38.067c0 11.332 14.102 16.548 21.48 7.963l47.467-55.219c3.347-3.893 4.095-9.209 1.953-13.874-2.142-4.664-6.66-7.562-11.793-7.562h-13.909v-38.067c.001-5.162-3.127-9.658-7.968-11.454zm17.47 64.523-39.699 46.183v-35.092c0-5.771-4.695-10.467-10.467-10.467h-14.034l39.699-46.184v35.092c0 5.771 4.695 10.468 10.467 10.468z"/></g></g></svg>