<svg id="Capa_1" enable-background="new 0 0 512 512" height="512" viewBox="0 0 512 512" width="512" xmlns="http://www.w3.org/2000/svg"><g><g><g><path d="m428.368 46.686h-26.707c-3.653 0-6.837-2.43-7.859-5.936-5.599-19.213-23.34-33.25-44.36-33.25-21.543 0-39.64 14.745-44.754 34.692-.708 2.762-3.889 4.082-6.25 2.483-4.546-3.077-10.028-4.875-15.931-4.875-7.113 0-13.615 2.612-18.603 6.926-2.038 1.763-5.14 1.146-6.416-1.227-6.686-12.439-19.817-20.898-34.928-20.898-16.129 0-30.001 9.636-36.189 23.463-.905 2.021-3.213 3.045-5.272 2.229-4.542-1.801-9.586-2.608-14.867-2.147-15.783 1.378-28.425 14.284-29.499 30.091-1.289 18.97 13.717 34.758 32.411 34.758 2.855 0 5.623-.371 8.26-1.066 2.603-.685 5.134 1.349 5.134 4.041v57.369h57.404v-51.587c0-2.334 1.92-4.159 4.255-4.156h.044c10.338 0 19.558-4.758 25.606-12.2 1.922-2.365 5.398-2.655 7.832-.821 12.143 9.151 31.238 15.054 52.725 15.054 32.862 0 60.137-13.798 65.479-31.921 1.031-3.497 4.206-5.917 7.852-5.917h25.092c9.582 0 17.371-7.678 17.55-17.218.185-9.836-8.17-17.887-18.009-17.887z" fill="#ddebfd"/><path d="m152.229 157.474v30.714c0 3.278 2.657 5.935 5.935 5.935h106.155c3.278 0 5.935-2.657 5.935-5.935v-30.714c0-3.278-2.657-5.935-5.935-5.935h-106.155c-3.278 0-5.935 2.657-5.935 5.935z" fill="#9cd169"/><path d="m264.319 151.539h-26.53c3.278 0 5.935 2.657 5.935 5.935v30.714c0 3.278-2.657 5.935-5.935 5.935h26.53c3.278 0 5.935-2.657 5.935-5.935v-30.714c0-3.278-2.658-5.935-5.935-5.935z" fill="#68b181"/><path d="m250.125 278.707v-84.585h-77.768v84.585c0 10.059-1.281 20.076-3.811 29.811l-35.207 135.44h155.806l-35.207-135.44c-2.532-9.735-3.813-19.752-3.813-29.811z" fill="#ddebfd"/><path d="m253.937 308.518c-2.531-9.735-3.811-19.753-3.811-29.811v-84.584h-26.53v84.584c0 10.059 1.281 20.076 3.811 29.811l35.207 135.44h26.53z" fill="#bed9fd"/><path d="m378.662 424.059h-155.287v-108.631c0-2.737 1.871-5.118 4.53-5.766l143.417-34.944c3.737-.911 7.34 1.92 7.34 5.766z" fill="#5392f9"/><path d="m371.322 274.718-19.976 4.867c.493.861.786 1.857.786 2.94v141.534h26.53v-143.575c0-3.847-3.603-6.677-7.34-5.766z" fill="#4071f7"/><path d="m489.5 504.5c8.766 0 13.85-9.911 8.755-17.045-53.951-75.544-142.346-124.799-242.255-124.799s-188.304 49.255-242.256 124.799c-5.094 7.134-.01 17.045 8.756 17.045z" fill="#f4e2c1"/><path d="m498.256 487.455c-53.952-75.544-142.347-124.799-242.256-124.799-4.446 0-8.867.102-13.265.295 94.441 4.145 177.44 52.321 228.991 124.504 5.095 7.133.01 17.045-8.755 17.045h26.53c8.765 0 13.849-9.911 8.755-17.045z" fill="#efcb83"/></g></g><g><path d="m270.248 321.395h-4.748c-4.142 0-7.5 3.358-7.5 7.5s3.358 7.5 7.5 7.5h4.748c4.142 0 7.5-3.358 7.5-7.5s-3.358-7.5-7.5-7.5z"/><path d="m303.392 321.395h-4.748c-4.142 0-7.5 3.358-7.5 7.5s3.358 7.5 7.5 7.5h4.748c4.142 0 7.5-3.358 7.5-7.5s-3.358-7.5-7.5-7.5z"/><path d="m336.536 321.395h-4.748c-4.142 0-7.5 3.358-7.5 7.5s3.358 7.5 7.5 7.5h4.748c4.142 0 7.5-3.358 7.5-7.5s-3.358-7.5-7.5-7.5z"/><path d="m186.666 427.833 8.211 4.092c3.707 1.846 8.21.339 10.058-3.368 1.847-3.708.339-8.21-3.368-10.058l-19.057-9.497c-2.106-1.05-4.584-1.049-6.69 0l-19.056 9.497c-3.708 1.847-5.215 6.351-3.367 10.058 1.312 2.633 3.963 4.156 6.718 4.156 1.124 0 2.265-.253 3.339-.789l8.211-4.092c-.083.598.556 3.162-2.146 7.537-1.727 2.797-2.602 5.966-2.602 9.418 0 7.783 4.226 11.888 7.022 14.604 2.22 2.157 2.474 2.552 2.474 3.846s-.254 1.69-2.475 3.847c-2.971 2.886-3.039 7.635-.152 10.605 2.872 2.956 7.62 3.053 10.605.152 2.796-2.717 7.021-6.822 7.021-14.605 0-13.277-12.004-15.329-9.131-19.988 5.087-8.231 4.309-14.881 4.385-15.415z"/><path d="m263.5 427.833 8.211 4.092c1.074.535 2.215.789 3.339.789 2.755 0 5.406-1.523 6.719-4.156 1.847-3.708.339-8.21-3.368-10.058l-19.057-9.497c-2.106-1.05-4.584-1.05-6.69 0l-19.057 9.497c-3.707 1.848-5.215 6.351-3.368 10.058 1.848 3.707 6.351 5.216 10.058 3.368l8.211-4.092c-.083.598.557 3.161-2.145 7.536-1.727 2.796-2.603 5.965-2.603 9.419 0 7.783 4.226 11.888 7.022 14.604 2.22 2.157 2.474 2.552 2.474 3.846s-.254 1.69-2.475 3.847c-2.971 2.886-3.039 7.635-.152 10.605 2.872 2.956 7.62 3.053 10.605.152 2.796-2.717 7.021-6.822 7.021-14.605 0-13.295-12.028-15.295-9.131-19.988 5.088-8.233 4.311-14.883 4.386-15.417z"/><path d="m340.334 427.833 8.211 4.092c1.074.535 2.215.789 3.339.789 2.755 0 5.406-1.523 6.718-4.156 1.848-3.707.34-8.21-3.367-10.058l-19.056-9.497c-2.106-1.051-4.584-1.049-6.69 0l-19.057 9.497c-3.707 1.848-5.215 6.351-3.368 10.058 1.848 3.707 6.351 5.216 10.058 3.368l8.211-4.092c-.083.598.556 3.162-2.146 7.537-1.726 2.796-2.602 5.965-2.602 9.418 0 7.783 4.226 11.888 7.022 14.604 2.22 2.157 2.474 2.552 2.474 3.846s-.254 1.69-2.475 3.847c-2.971 2.886-3.039 7.634-.152 10.605 2.872 2.956 7.62 3.053 10.605.152 2.796-2.717 7.021-6.822 7.021-14.605 0-11.946-9.496-14.605-9.496-18.451 0-.874.181-1.239.364-1.537 5.088-8.232 4.311-14.883 4.386-15.417z"/><path d="m504.359 483.096c-30.091-42.133-71.121-76.628-118.199-98.833v-103.783c0-8.709-8.159-15.107-16.616-13.047l-61.024 14.867v-36.32c0-8.701-7.079-15.78-15.78-15.78h-35.11v-28.578h6.689c7.408 0 13.435-6.027 13.435-13.435v-30.714c0-7.408-6.027-13.435-13.435-13.435h-16.879v-19.064c10.41-.815 20.047-5.593 27.038-13.444 13.94 9.929 34.208 15.599 55.932 15.599 8.7 0 17.191-.9 25.236-2.676 4.044-.893 6.6-4.896 5.707-8.94-.893-4.045-4.9-6.602-8.94-5.707-6.985 1.542-14.388 2.324-22.003 2.324-18.943 0-36.968-5.062-48.203-13.529-5.735-4.343-13.723-3.43-18.176 2.067-4.875 5.994-12.088 9.432-19.815 9.432h-.025c-3.159 0-6.122 1.22-8.343 3.437-2.197 2.193-3.407 5.109-3.407 8.213v22.289h-42.4v-28.069c0-7.61-7.166-13.216-14.543-11.294-16.49 4.325-32.452-8.736-31.284-25.924.829-12.128 10.575-22.072 22.668-23.13 3.982-.344 7.834.206 11.446 1.637 5.799 2.31 12.345-.396 14.888-6.132 5.176-11.559 16.694-19.027 29.344-19.027 11.848 0 22.701 6.496 28.319 16.942 3.546 6.616 12.278 8.261 17.929 3.358 7.072-6.121 17.506-6.872 25.441-1.5 6.648 4.478 15.703.936 17.706-6.85 4.381-17.104 19.796-29.05 37.485-29.05 17.099 0 32.38 11.452 37.158 27.843 1.942 6.681 8.136 11.347 15.062 11.347h26.71c5.624 0 10.615 4.598 10.511 10.239-.103 5.438-4.611 9.861-10.051 9.861h-25.09c-6.996 0-13.044 4.535-15.057 11.307-1.143 3.894-3.917 7.816-8.022 11.345-3.141 2.7-3.499 7.436-.799 10.577 2.701 3.142 7.437 3.5 10.577.799 6.397-5.498 10.649-11.721 12.631-18.471.1-.338.364-.556.671-.556h25.09c13.557 0 24.793-11.026 25.048-24.583.262-14.246-11.707-25.517-25.508-25.517h-26.71c-.301 0-.566-.214-.66-.539-6.634-22.758-27.837-38.652-51.561-38.652-23.074 0-43.361 14.659-50.76 36.139-11.451-5.783-25.519-5.094-36.545 2.491-8.655-13.371-23.489-21.53-39.575-21.53-17.527 0-33.572 9.772-41.702 25.162-4.909-1.508-10.034-2.04-15.282-1.583-19.384 1.695-35.002 17.624-36.33 37.053-1.757 25.851 20.843 46.058 45.793 42.329v23.979h-16.876c-7.408 0-13.435 6.027-13.435 13.435v30.714c0 7.408 6.027 13.435 13.435 13.435h6.696v77.087c0 9.413-1.201 18.808-3.569 27.923l-18.228 70.129c-19.602 7.818-38.438 17.696-56.219 29.571-3.445 2.3-4.373 6.958-2.072 10.402 2.3 3.445 6.958 4.373 10.402 2.072 128.114-85.556 304.52-56.456 396.979 73.007 1.015 1.421.592 2.75.25 3.416-.34.661-1.169 1.77-2.902 1.77h-467.001c-1.732 0-2.562-1.109-2.902-1.77-.342-.666-.766-1.995.25-3.416 13.848-19.391 30.075-37.063 48.23-52.527 3.153-2.686 3.532-7.419.846-10.573s-7.42-3.532-10.573-.846c-19.088 16.259-36.149 34.84-50.71 55.229-4 5.601-4.529 12.88-1.381 18.998 3.145 6.11 9.367 9.906 16.239 9.906h467.002c6.872 0 13.095-3.796 16.239-9.906 3.149-6.12 2.62-13.399-1.38-19zm-211.619-237.896c.43 0 .78.35.78.78v39.974l-34.759 8.468c-.746-5.208-1.131-10.466-1.131-15.712v-33.51zm-133.011-86.161h103.025v27.583c-12.338 0-88.149 0-103.025 0zm16.08 151.367c2.688-10.348 4.051-21.012 4.051-31.696v-77.087h62.77v77.087c0 6.44.506 12.897 1.495 19.278l-18.012 4.388c-6.031 1.479-10.243 6.847-10.243 13.054v42.352c-18.986 2.497-37.616 6.769-55.688 12.743zm55.061 45.785v-39.535l140.29-34.177v95.207c-43.608-17.739-91.57-25.474-140.29-21.495z"/></g></g></svg>