<svg id="Capa_1" enable-background="new 0 0 512 512" height="512" viewBox="0 0 512 512" width="512" xmlns="http://www.w3.org/2000/svg"><g><g><g><g fill="#bed9fd"><g><path d="m337.297 132.718v31.847h125.906c1.657 0 3-1.343 3-3v-25.847c0-1.657-1.343-3-3-3z"/><path d="m174.703 132.718v31.847h-125.906c-1.657 0-3-1.343-3-3v-25.847c0-1.657 1.343-3 3-3z"/></g><g><path d="m337.297 278.58v31.847h125.906c1.657 0 3-1.343 3-3v-25.847c0-1.657-1.343-3-3-3z"/><path d="m174.703 278.58v31.847h-125.906c-1.657 0-3-1.343-3-3v-25.847c0-1.657 1.343-3 3-3z"/></g></g><g><path d="m122.547 480.521 53.809-86.287c1.935-3.101 2.958-6.671 2.958-10.324v-290.819c0-1.029.527-1.986 1.397-2.536l75.289-47.602 75.289 47.602c.87.55 1.397 1.507 1.397 2.536v290.819c0 3.653 1.023 7.224 2.954 10.318l53.813 86.293h38.892l-62.659-100.478v-296.041c0-6.728-3.396-12.891-9.079-16.481l-90.187-57.023c-6.33-4.002-14.511-4.001-20.841.001l-90.182 57.019c-5.688 3.594-9.083 9.757-9.083 16.484v296.042l-62.659 100.477z" fill="#5392f9"/><path d="m365.685 380.044v-296.042c0-6.728-3.396-12.891-9.079-16.481l-90.186-57.023c-6.33-4.002-14.511-4.001-20.841.001l-2.911 1.84c1.654.499 3.256 1.213 4.751 2.159l90.187 57.022c5.684 3.591 9.079 9.754 9.079 16.481v291.469c0 .374.105.741.303 1.058l62.356 99.992h19z" fill="#4071f7"/></g><g><path d="m53.547 470.502v28.994c0 2.761 2.239 5 5 5h394.906c2.761 0 5-2.239 5-5v-28.994c0-2.761-2.239-5-5-5h-394.906c-2.761 0-5 2.239-5 5z" fill="#407194"/><path d="m453.453 465.502h-23c2.761 0 5 2.239 5 5v28.994c0 2.761-2.239 5-5 5h23c2.761 0 5-2.239 5-5v-28.994c0-2.761-2.239-5-5-5z" fill="#365f7e"/></g></g></g><g><path d="m463.203 172.066c5.79 0 10.5-4.71 10.5-10.5v-25.851c0-5.79-4.71-10.5-10.5-10.5h-8.49v-6.05c0-5.175-3.112-9.74-7.927-11.631l-74.186-29.149c-1.482-7.053-5.725-13.256-11.982-17.211l-17.17-10.85c-3.503-2.214-8.134-1.17-10.347 2.333-2.213 3.502-1.168 8.135 2.333 10.347l17.169 10.849c3.46 2.188 5.533 5.92 5.579 10.003.001.065.006.13.009.195v295.998c0 1.403.394 2.778 1.136 3.969l46.137 73.988h-21.213l-42.248-67.748c-1.186-1.898-1.812-4.094-1.812-6.349v-290.824c0-3.614-1.828-6.93-4.893-8.869l-75.291-47.601c-2.447-1.547-5.568-1.547-8.016 0l-75.295 47.603c-3.061 1.938-4.889 5.253-4.889 8.867v290.824c0 2.256-.628 4.457-1.813 6.361l-42.246 67.735h-21.214l8.966-14.377c2.191-3.515 1.119-8.141-2.396-10.333-3.515-2.19-8.142-1.12-10.333 2.396l-13.916 22.315h-30.311c-6.893 0-12.5 5.607-12.5 12.5v28.994c0 6.893 5.607 12.5 12.5 12.5h394.911c6.893 0 12.5-5.607 12.5-12.5v-28.995c0-6.893-5.607-12.5-12.5-12.5h-30.313l-49.951-80.104v-59.974h51.018v14.637h-12.857c-4.143 0-7.5 3.357-7.5 7.5s3.357 7.5 7.5 7.5h12.857v12.137c0 4.143 3.357 7.5 7.5 7.5s7.5-3.357 7.5-7.5v-12.137h12.856c4.143 0 7.5-3.357 7.5-7.5s-3.357-7.5-7.5-7.5h-12.855v-14.637h23.992c5.79 0 10.5-4.71 10.5-10.5v-25.85c0-5.79-4.71-10.5-10.5-10.5h-8.49v-6.04c0-5.181-3.112-9.75-7.927-11.641l-73.594-28.921v-52.409h51.018v14.634h-12.857c-4.143 0-7.5 3.357-7.5 7.5s3.357 7.5 7.5 7.5h12.857v12.137c0 4.143 3.357 7.5 7.5 7.5s7.5-3.357 7.5-7.5v-12.137h12.856c4.143 0 7.5-3.357 7.5-7.5s-3.357-7.5-7.5-7.5h-12.855v-14.634zm-221.16-34.578-55.234 35.196v-70.392zm83.148 151.997-55.234-35.194 55.234-35.194zm0-116.801-55.234-35.196 55.234-35.196zm0 17.787v10.841l-69.191 44.086-69.191-44.087v-10.841l69.191-44.089zm-138.382 28.627 55.234 35.194-55.234 35.194zm-4.082 179.104c2.671-4.291 4.082-9.234 4.082-14.293v-48.48l54.938 33.998-66.891 41.394zm4.082-80.413v-10.517l69.191-44.087 69.191 44.087v10.517l-69.191 42.817zm138.382 17.64v48.48c0 5.067 1.413 10.01 4.085 14.289l7.874 12.627-66.898-41.398zm-69.191-283.602 60.474 38.233-60.474 38.535-60.474-38.535zm-99.061 387.721 99.061-61.302 99.064 61.304 11.509 18.455h-221.145zm294.017 57.452h-389.912v-23.994h389.911v23.994zm-11.244-371.785h-66.52v-30.48l66.52 26.137zm18.991 177.712h-85.511v-16.85h85.511zm-18.991-36.194v4.344h-66.52v-30.485zm-66.52-126.518h85.511v16.851c-10.094 0-76.381 0-85.511 0z"/><path d="m72.79 317.927v14.637h-12.856c-4.143 0-7.5 3.357-7.5 7.5s3.357 7.5 7.5 7.5h12.856v12.137c0 4.143 3.357 7.5 7.5 7.5s7.5-3.357 7.5-7.5v-12.137h12.857c4.143 0 7.5-3.357 7.5-7.5s-3.357-7.5-7.5-7.5h-12.857v-14.637h51.023v59.97l-17.574 28.181c-2.191 3.515-1.119 8.141 2.396 10.333 1.234.77 2.606 1.137 3.962 1.137 2.502 0 4.949-1.252 6.371-3.532l18.71-30.002c.742-1.19 1.136-2.565 1.136-3.969v-296.046c0-4.141 2.09-7.933 5.591-10.146l90.183-57.019c3.895-2.462 8.929-2.464 12.825-.001l43.279 27.364c3.501 2.216 8.134 1.171 10.347-2.331 2.214-3.501 1.17-8.134-2.331-10.347l-43.28-27.363c-8.764-5.541-20.091-5.541-28.857.001l-90.181 57.017c-6.258 3.954-10.501 10.156-11.985 17.209l-74.189 29.15c-4.816 1.892-7.929 6.457-7.929 11.632v6.05h-8.49c-5.79 0-10.5 4.71-10.5 10.5v25.851c0 5.79 4.71 10.5 10.5 10.5h23.993v14.634h-12.856c-4.143 0-7.5 3.357-7.5 7.5s3.357 7.5 7.5 7.5h12.856v12.137c0 4.143 3.357 7.5 7.5 7.5s7.5-3.357 7.5-7.5v-12.137h12.857c4.143 0 7.5-3.357 7.5-7.5s-3.357-7.5-7.5-7.5h-12.857v-14.634h51.023v52.407l-73.597 28.922c-4.816 1.892-7.929 6.461-7.929 11.642v6.04h-8.49c-5.79 0-10.5 4.71-10.5 10.5v25.85c0 5.79 4.71 10.5 10.5 10.5zm-.502-197.056 66.525-26.139v30.482h-66.525zm-18.991 36.195v-16.851h85.516v16.851c-9.123 0-75.407 0-85.516 0zm18.991 109.667 66.525-26.143v30.487h-66.525zm-18.991 19.344h85.516v16.85h-85.516z"/></g></g></svg>