<svg id="Capa_1" enable-background="new 0 0 512 512" height="512" viewBox="0 0 512 512" width="512" xmlns="http://www.w3.org/2000/svg"><g><g><g><path d="m39.573 46.323h40.856v226.192h-40.856z" fill="#bed9fd"/><path d="m12.494 109.068c-4.589 10.307.046 22.382 10.353 26.97l142.04 63.24c10.307 4.589 22.382-.046 26.97-10.353s-.046-22.382-10.353-26.97l-142.04-63.24c-10.306-4.589-22.381.046-26.97 10.353z" fill="#bed9fd"/><path d="m12.494 64.346c-4.589 10.307.046 22.382 10.353 26.97l142.04 63.24c10.307 4.589 22.382-.046 26.97-10.353 4.589-10.307-.046-22.382-10.353-26.97l-142.04-63.24c-10.306-4.589-22.381.046-26.97 10.353z" fill="#ddebfd"/><path d="m12.494 19.624c-4.589 10.307.046 22.382 10.353 26.97l110.67 49.274c10.307 4.589 22.382-.046 26.97-10.353s-.046-22.382-10.353-26.97l-110.67-49.274c-10.306-4.589-22.381.047-26.97 10.353z" fill="#bed9fd"/><path d="m12.492 153.792c-4.588 10.306.047 22.38 10.352 26.968l95.912 42.704c3.146 1.401 5.172 4.521 5.172 7.965v41.085h40.845v-64.441c0-5.376-3.164-10.248-8.075-12.434l-117.238-52.2c-10.305-4.589-22.379.046-26.968 10.353z" fill="#ddebfd"/><path d="m150.04 379.027h-95.729c-18.942 0-34.297-15.355-34.297-34.297v-65.613c0-3.646 2.955-6.601 6.601-6.601h151.12c3.646 0 6.601 2.955 6.601 6.601v65.613c.001 18.941-15.354 34.297-34.296 34.297z" fill="#5392f9"/><path d="m177.736 272.515h-26c3.646 0 6.601 2.956 6.601 6.601v65.613c0 18.942-15.355 34.297-34.297 34.297h26c18.942 0 34.297-15.355 34.297-34.297v-65.613c0-3.645-2.955-6.601-6.601-6.601z" fill="#4071f7"/><path d="m112.047 427.007h-19.743c-7.797 0-14.119-6.321-14.119-14.119v-33.862h47.98v33.862c.001 7.798-6.32 14.119-14.118 14.119z" fill="#ffc269"/><path d="m382.208 288.046c-7.495-37.767 62.443-78.319 117.972-17.172 2.207 2.431.913 6.3-2.297 6.988-21.304 4.564-42.603 26.832-62.435 36.936-22.634 11.53-47.785.737-53.24-26.752z" fill="#9cd169"/><path d="m334.662 288.046c7.495-37.767-62.443-78.319-117.972-17.172-2.207 2.431-.913 6.3 2.297 6.988 21.304 4.564 42.603 26.832 62.435 36.936 22.634 11.53 47.785.737 53.24-26.752z" fill="#9cd169"/><g><path d="m351.918 210.786h12.932c13.107 0 23.732-10.625 23.732-23.732v-63.415h-60.396v63.415c0 13.107 10.625 23.732 23.732 23.732z" fill="#407194"/><path d="m364.85 210.786h-12.932c-1.906 0-3.758-.231-5.534-.655 10.436-2.494 18.198-11.876 18.198-23.076v-63.415h24v63.415c0 13.106-10.625 23.731-23.732 23.731z" fill="#365f7e"/><g fill="#ddebfd"><path d="m340.956 109.507h-29.075v-60.159c0-8.029 6.509-14.537 14.537-14.537 8.029 0 14.537 6.509 14.537 14.537v60.159z"/><path d="m404.887 109.507h-29.075v-60.159c0-8.029 6.509-14.537 14.537-14.537 8.029 0 14.537 6.509 14.537 14.537v60.159z"/></g><path d="m365.85 170.318h-14.933c-31.572 0-57.166-25.594-57.166-57.166v-27.121c0-4.083 3.31-7.392 7.392-7.392h114.481c4.083 0 7.392 3.31 7.392 7.392v27.121c.001 31.571-25.594 57.166-57.166 57.166z" fill="#5392f9"/><path d="m365.85 170.318h-14.933c-1.528 0-3.036-.078-4.534-.195 29.45-2.313 52.633-26.927 52.633-56.971v-27.121c0-4.083-3.31-7.392-7.392-7.392h24c4.083 0 7.392 3.31 7.392 7.392v27.121c.001 31.572-25.594 57.166-57.166 57.166z" fill="#4071f7"/></g></g></g><g><path d="m505.721 265.837c-32.486-35.772-72.307-40.854-101.296-26.249-19.91 10.028-31.57 28.007-30.15 45.752-2.992 2.482-5.791 5.127-8.402 7.919v-74.989c16.744-.547 30.2-14.334 30.2-31.213v-16.757c20.463-10.869 34.436-32.399 34.436-57.14v-27.121c0-8.211-6.681-14.891-14.892-14.891h-3.234v-21.789c0-12.153-9.887-22.04-22.04-22.04s-22.04 9.887-22.04 22.04v21.789h-19.85v-21.789c0-12.153-9.887-22.04-22.04-22.04s-22.04 9.887-22.04 22.04v21.789h-3.236c-8.211 0-14.892 6.681-14.892 14.891v27.121c0 3.502.283 7.018.841 10.45.665 4.089 4.516 6.864 8.606 6.199 4.088-.664 6.864-4.517 6.199-8.605-.429-2.639-.646-5.346-.646-8.044v-27.013h114.263v27.012c0 27.385-22.28 49.665-49.665 49.665h-14.933c-6.916 0-13.611-1.416-19.77-4.09-.019-.008-.038-.017-.057-.025-5.633-2.454-10.817-5.957-15.292-10.432-2.929-2.928-7.678-2.929-10.606.001-2.929 2.929-2.929 7.678 0 10.606 4.639 4.639 9.862 8.481 15.498 11.469v16.702c0 16.876 13.45 30.661 30.189 31.213v74.873c-2.58-2.749-5.342-5.356-8.292-7.803 1.42-17.745-10.24-35.724-30.15-45.752-14.425-7.266-31.516-9.406-48.123-6.027-19.15 3.897-37.537 15.058-53.173 32.277-6.123 6.741-2.521 17.478 6.278 19.363 11.545 2.474 24.031 11.527 36.106 20.284 8.028 5.821 16.329 11.841 24.494 16 23.172 11.806 49.379 3.74 60.176-19.998 5.053 5.046 9.276 10.751 12.684 17.075v98.762c0 43.935-35.743 79.678-79.678 79.678h-81.848c-37.834 0-69.906-26.335-77.796-62.492h.495c11.92 0 21.618-9.698 21.618-21.618v-26.362h16.374c23.046 0 41.796-18.75 41.796-41.796v-65.612c0-7.775-6.326-14.101-14.101-14.101h-5.462v-56.478c.304.01.608.024.912.024 10.555 0 20.836-6.058 25.522-16.583 3.034-6.815 3.233-14.403.56-21.368-1.917-4.993-5.15-9.23-9.336-12.35 9.673-7.217 13.962-20.318 9.336-32.37-2.673-6.964-7.899-12.47-14.714-15.505l-25.393-11.306c3.43-2.709 6.281-6.247 8.178-10.509 6.264-14.068-.086-30.609-14.154-36.872l-110.667-49.272c-6.815-3.034-14.403-3.234-21.367-.56-6.965 2.673-12.471 7.899-15.504 14.713-5.398 12.124-1.423 26.078 8.781 33.714-3.785 2.822-6.809 6.576-8.782 11.007-5.397 12.124-1.422 26.078 8.782 33.714-3.785 2.823-6.809 6.576-8.782 11.008-5.398 12.123-1.422 26.077 8.783 33.713-3.787 2.823-6.811 6.577-8.785 11.01-6.262 14.065.087 30.605 14.153 36.868l12.276 5.466v71.936h-5.454c-7.775 0-14.101 6.326-14.101 14.101v13.149c0 4.142 3.358 7.5 7.5 7.5s7.5-3.357 7.5-7.5v-12.251h149.32v64.714c0 14.775-12.021 26.796-26.796 26.796h-95.728c-14.776 0-26.797-12.021-26.797-26.796v-17.464c0-4.143-3.358-7.5-7.5-7.5s-7.5 3.357-7.5 7.5v17.464c0 23.046 18.75 41.796 41.797 41.796h16.374v26.362c0 11.92 9.698 21.618 21.618 21.618h3.963c8.136 44.62 47.011 77.492 93.081 77.492h81.848c52.206 0 94.678-42.472 94.678-94.678v-98.559c3.427-6.406 7.687-12.179 12.795-17.279 4.327 9.514 11.274 16.875 20.28 21.246 5.684 2.759 11.879 4.132 18.208 4.132 9.519 0 17.486-2.851 25.57-7.482 3.594-2.06 4.838-6.642 2.779-10.236s-6.641-4.837-10.236-2.779c-11.708 6.708-21.655 6.808-29.772 2.872-6.835-3.318-11.905-9.498-14.618-17.658 6.962-4.595 14.92-8.373 23.863-11.299 18.374-6.011 45.626-8.45 66.662-4.317-6.381 3.174-12.424 7.134-17.878 10.939-3.397 2.369-4.23 7.045-1.861 10.441 2.37 3.398 7.045 4.233 10.442 1.861 8.338-5.815 18.107-12.027 27.335-14.005 8.786-1.881 12.412-12.61 6.28-19.362zm-122.419-216.478c0-3.882 3.158-7.04 7.04-7.04s7.04 3.158 7.04 7.04v21.789h-14.08zm-63.928 0c0-3.882 3.158-7.04 7.04-7.04s7.04 3.158 7.04 7.04v21.789h-14.08zm-13.691 203.625c10.363 5.22 17.681 13.054 20.607 21.388-25.552-13.845-58.368-18.039-86.182-14.26 24.442-16.828 48.898-15.528 65.575-7.128zm-20.861 55.134c-7.119-3.627-14.589-9.044-22.498-14.778-8.72-6.323-17.636-12.786-26.856-17.38 21.034-4.13 48.277-1.689 66.646 4.32 8.943 2.926 16.901 6.703 23.863 11.299-6.24 18.766-24.335 25.11-41.155 16.539zm-99.82-122.236c-2.9 6.514-10.527 9.463-17.068 6.552l-142.037-63.24c-6.512-2.899-9.451-10.556-6.552-17.068 2.163-4.858 6.919-7.677 11.815-7.677 5.164 0-1.347-1.592 147.29 64.364 3.156 1.401 5.574 3.953 6.811 7.178 1.238 3.224 1.146 6.736-.259 9.891zm.259-54.612c4.109 10.702-6.845 21.111-17.326 16.442l-142.038-63.239c-6.512-2.899-9.451-10.557-6.552-17.069 2.159-4.848 6.909-7.676 11.814-7.676 5.164 0-1.346-1.592 147.291 64.364 3.156 1.401 5.574 3.954 6.811 7.178zm-165.916-108.586c2.902-6.518 10.534-9.461 17.068-6.551l110.668 49.272c6.513 2.899 9.451 10.556 6.552 17.068-2.898 6.511-10.556 9.447-17.066 6.553l-110.67-49.273c-6.512-2.9-9.451-10.557-6.552-17.069zm-.002 134.165c2.905-6.525 10.539-9.457 17.067-6.551l117.236 52.199c2.202.98 3.625 3.172 3.625 5.582v56.94h-25.845v-33.585c0-6.398-3.777-12.214-9.621-14.816l-95.91-42.703c-6.511-2.899-9.45-10.555-6.552-17.066zm96.361 73.472c.439.195.723.633.723 1.113v33.585h-28.499v-47.065zm-68.635-30.559 25.86 11.514v53.744h-25.86zm38.615 213.129v-26.362h32.98v26.362c0 3.649-2.969 6.618-6.619 6.618h-19.743c-3.649 0-6.618-2.969-6.618-6.618zm249.999-225.835v-11.037c4.929 1.184 10.03 1.805 15.227 1.805h14.933c5.246 0 10.342-.644 15.229-1.828v11.06c0 8.955-7.281 16.24-16.23 16.24h-12.93c-8.948 0-16.229-7.285-16.229-16.24zm54.883 87.316c2.926-8.334 10.243-16.169 20.606-21.388 16.678-8.401 41.133-9.701 65.576 7.129-27.773-3.774-60.595.396-86.182 14.259z"/><path d="m368.224 131.985c4.142 0 7.5-3.357 7.5-7.5s-3.358-7.5-7.5-7.5h-19.694c-4.142 0-7.5 3.357-7.5 7.5s3.358 7.5 7.5 7.5z"/></g></g></svg>