<svg id="Capa_1" enable-background="new 0 0 512 512" height="512" viewBox="0 0 512 512" width="512" xmlns="http://www.w3.org/2000/svg"><g><g><g><path d="m91.516 379.886c-10.93-14.353-31.425-17.128-45.778-6.198l-1.741 1.326c-14.353 10.93-17.128 31.425-6.198 45.778l13.477 17.699c1.701 2.234 4.892 2.666 7.126.965l45.627-34.744c2.234-1.701 2.666-4.892.965-7.126z" fill="#5392f9"/><path d="m331.754 60.19c-2.332.591-4.166 2.425-4.758 4.758-5.872 23.156.236 48.722 18.354 66.841s43.685 24.226 66.841 18.354c2.332-.591 4.166-2.425 4.758-4.758 5.872-23.156-.236-48.722-18.354-66.841-18.118-18.118-43.685-24.226-66.841-18.354z" fill="#9cd169"/><path d="m499.383 177.671c-.794-1.715-2.475-2.866-4.362-2.985-18.729-1.185-37.587 7.23-48.956 23.84-11.369 16.611-12.388 37.236-4.504 54.266.794 1.715 2.475 2.866 4.362 2.985 18.729 1.185 37.587-7.23 48.956-23.84s12.388-37.235 4.504-54.266z" fill="#9cd169"/><circle cx="225.423" cy="256" fill="#6cbff8" r="140.721"/><path d="m225.423 115.279c-4.555 0-9.056.225-13.5.648 71.384 6.796 127.221 66.91 127.221 140.073s-55.837 133.278-127.221 140.073c4.444.423 8.945.648 13.5.648 77.718 0 140.721-63.003 140.721-140.721s-63.003-140.721-140.721-140.721z" fill="#5fa7ee"/><path d="m227.169 171.503h-35.173c-4.257 0-8.291-1.905-10.995-5.193l-8.802-10.701c-3.592-4.367-9.429-6.195-14.871-4.655l-35.789 10.126c-22.878 25.025-36.837 58.341-36.837 94.92 0 49.147 25.201 92.401 63.379 117.568 5.551-8.816 11.568-18.668 16.462-26.76 5.913-9.778 4.431-22.32-3.59-30.459l-17.194-17.446c-4.607-4.675-7.19-10.975-7.19-17.538v-12.103c0-8.899 4.733-17.126 12.426-21.599l85.331-49.617c4.383-2.549 7.08-7.237 7.08-12.307-.001-7.862-6.375-14.236-14.237-14.236z" fill="#f4e2c1"/><path d="m246 250.211v23.574c0 9.844 7.98 17.823 17.823 17.823h12.554c7.792 0 14.312 5.912 15.072 13.667l.517 5.271c.396 4.042-.847 8.073-3.451 11.189l-19.123 22.884c-4.215 5.043-6.524 11.407-6.524 17.98l.001 29.076c59.54-16.397 103.275-70.925 103.275-135.675 0-8.047-.685-15.934-1.983-23.612h-100.338c-9.843 0-17.823 7.98-17.823 17.823z" fill="#f4e2c1"/><path d="m366.144 256c0-8.047-.685-15.934-1.983-23.612h-26.991c1.297 7.677 1.974 15.565 1.974 23.612 0 54.49-30.976 101.735-76.276 125.113l.001 10.561c59.537-16.398 103.275-70.925 103.275-135.674z" fill="#efcb83"/></g></g><path d="m506.239 174.514c-1.953-4.221-6.05-7.027-10.696-7.323-20.958-1.306-41.328 8.1-53.907 24.721-4.426-14.949-10.395-29.402-17.861-43.176.187-.494.353-.999.485-1.518 6.697-26.408-1.09-54.761-20.323-73.993-19.231-19.233-47.583-27.021-73.995-20.323-5.01 1.27-8.913 5.171-10.185 10.185-6.697 26.408 1.09 54.761 20.323 73.995 14.673 14.672 34.654 22.684 55.031 22.683 5.529 0 11.088-.59 16.578-1.797 9.089 17.224 15.705 35.55 19.703 54.592-3.995 14.207-2.944 29.669 3.404 43.382.306.661.67 1.282 1.074 1.869-.455 53.79-21.122 104.74-58.338 143.642-37.513 39.212-87.947 62.21-142.016 64.756-.851.048-1.443-.345-1.789-.674-.293-.28-.786-.891-.786-1.835v-59.653c78.191-3.915 140.739-68.764 140.739-148.047 0-75.595-60.578-144.033-140.737-148.046v-59.654c0-4.774-1.981-9.4-5.436-12.695-3.485-3.323-8.039-5.018-12.838-4.799-57.932 2.728-111.967 27.365-152.152 69.371-40.315 42.143-62.517 97.481-62.517 155.823 0 42.112 11.612 82.94 33.625 118.491-12.372 14.063-13.565 35.398-1.79 50.861l13.478 17.699c4.213 5.533 12.103 6.604 17.639 2.389l2.265-1.725 12.083 15.876c2.512 3.302 7.221 3.931 10.511 1.426 3.297-2.508 3.935-7.215 1.426-10.511l-12.086-15.88 17.233-13.122 12.09 15.877c2.51 3.296 7.219 3.932 10.511 1.423 3.296-2.509 3.933-7.216 1.423-10.512l-12.089-15.876 2.263-1.723c5.534-4.215 6.604-12.103 2.389-17.639l-13.479-17.701c-12.394-16.275-34.876-20.425-52.124-10.393-19.89-32.79-30.367-70.294-30.367-108.96 0-54.459 20.724-106.115 58.355-145.452 37.511-39.213 87.947-62.21 142.021-64.756 1.455-.043 2.563 1.127 2.563 2.509v59.675c-27.429 1.367-53.695 10.196-76.374 25.787-24.156 16.605-42.702 39.699-53.635 66.784-1.551 3.842.306 8.213 4.148 9.764 3.842 1.549 8.212-.307 9.763-4.148 5.728-14.19 13.796-27.149 23.82-38.458l33.723-9.54c2.575-.731 5.336.135 7.036 2.202l8.803 10.702c4.145 5.039 10.264 7.928 16.789 7.928h35.177c6.831 0 9.335 9.101 3.387 12.562l-85.339 49.622c-9.967 5.794-16.158 16.555-16.158 28.085v12.104c0 8.589 3.32 16.688 9.349 22.805l17.196 17.448c5.621 5.703 6.655 14.468 2.515 21.316-4.44 7.342-8.517 14.003-12.189 19.919-32.594-24.311-53.74-63.159-53.74-106.856 0-5.786.375-11.609 1.113-17.306.532-4.109-2.366-7.87-6.475-8.402-4.112-.535-7.87 2.366-8.403 6.474-.821 6.336-1.237 12.807-1.237 19.234 0 79.089 62.348 144.119 140.732 148.046v59.654c0 4.772 1.981 9.398 5.435 12.692 3.28 3.127 7.513 4.822 11.999 4.822.283 0 .566-.007.851-.021 57.928-2.728 111.961-27.364 152.147-69.37 38.616-40.365 60.599-92.839 62.387-148.456 20.021-.441 38.965-10.552 50.356-27.194 12.387-18.101 14.35-41.727 5.123-61.661zm-420.682 209.928 12.015 15.779c-8.922 6.795-32.603 24.828-41.787 31.821l-12.015-15.779c-8.407-11.041-6.265-26.864 4.777-35.272l1.74-1.325c11.041-8.408 26.864-6.263 35.27 4.776zm85.42-33.744c7.695-12.725 5.775-29.013-4.667-39.608l-17.196-17.448c-3.245-3.292-5.032-7.652-5.032-12.275v-12.104c0-6.206 3.332-11.997 8.697-15.117l85.34-49.622c6.669-3.877 10.811-11.078 10.811-18.792 0-11.987-9.752-21.739-21.738-21.739h-35.177c-2.022 0-3.919-.896-5.203-2.457l-8.803-10.702c-5.486-6.669-14.398-9.458-22.707-7.107l-2.81.795c21.687-14.226 46.833-21.753 72.936-21.756l.013.001.016-.001c62.748.006 115.493 43.618 129.543 102.118h-37.101c-4.142 0-7.501 3.358-7.501 7.501s3.358 7.501 7.501 7.501h39.802c7.554 62.37-29.344 120.699-87.306 141.536v-18.815c0-4.805 1.697-9.483 4.778-13.171l19.126-22.886c3.868-4.63 5.749-10.73 5.16-16.732l-.517-5.271c-1.143-11.651-10.832-20.437-22.539-20.437h-12.555c-5.693 0-10.324-4.631-10.324-10.324v-23.576c0-5.693 4.631-10.324 10.324-10.324h19.047c4.142 0 7.501-3.358 7.501-7.501s-3.358-7.501-7.501-7.501h-19.047c-13.965 0-25.326 11.361-25.326 25.326v23.576c0 13.964 11.361 25.326 25.326 25.326h12.555c3.952 0 7.223 2.966 7.609 6.898l.517 5.272c.199 2.027-.436 4.086-1.742 5.649l-19.126 22.886c-5.332 6.381-8.268 14.475-8.268 22.79v23.23c-9.626 2.219-19.646 3.394-29.936 3.395l-.016-.001-.015.001c-24.394-.003-47.273-6.602-66.959-18.098 3.763-6.056 7.949-12.895 12.51-20.436zm179.711-224.225c-15.384-15.385-21.688-38.01-16.523-59.165 21.158-5.164 43.782 1.14 59.164 16.523 13.193 13.193 19.701 31.709 18.03 50.06l-39.877-39.877c-2.929-2.928-7.678-2.928-10.607 0-2.929 2.93-2.929 7.678 0 10.608l39.88 39.879c-18.354 1.675-36.873-4.834-50.067-18.028zm138.049 101.225c-7.331 10.71-18.773 17.849-31.351 19.997l22.981-33.575c2.34-3.418 1.465-8.087-1.953-10.427s-8.087-1.465-10.426 1.953l-22.982 33.577c-2.55-12.501-.038-25.757 7.292-36.466 9.153-13.373 24.709-21.203 40.897-20.662 6.358 14.884 4.694 32.232-4.458 45.603z"/></g></svg>