<svg id="Capa_1" enable-background="new 0 0 512 512" height="512" viewBox="0 0 512 512" width="512" xmlns="http://www.w3.org/2000/svg"><g><path d="m288.15 45.744h-251.28v124.99h66.109c4.929 0 8.419 4.746 7.031 9.476-4.744 16.167-7.37 33.239-7.544 50.899-1.014 103.169 82.49 188.257 185.66 189.102 103.757.849 188.203-82.704 188.801-186.125.599-103.586-85.189-188.342-188.777-188.342z" fill="#407194"/><path d="m288.15 45.744h-27c103.589 0 189.376 84.755 188.777 188.342-.569 98.339-76.95 178.708-173.656 185.639 3.922.28 7.872.453 11.856.486 103.757.849 188.203-82.704 188.801-186.125.598-103.587-85.19-188.342-188.778-188.342z" fill="#365f7e"/><g fill="#ddebfd"><path d="m289.694 83.923v99.416c0 3.272 3.037 5.719 6.227 4.993 24.974-5.678 43.617-28.008 43.617-54.701s-18.643-49.023-43.617-54.701c-3.191-.726-6.227 1.721-6.227 4.993z"/><path d="m160.605 158.452 86.102 49.711c2.805 1.62 6.446.272 7.408-2.822 7.615-24.487-2.398-51.841-25.54-65.202-23.117-13.347-51.777-8.367-69.181 10.423-2.223 2.4-1.622 6.254 1.211 7.89z"/><path d="m160.6 307.513 86.102-49.711c2.834-1.636 3.434-5.489 1.211-7.89-17.404-18.789-46.064-23.769-69.181-10.423-23.142 13.361-33.155 40.715-25.54 65.202.961 3.094 4.602 4.442 7.408 2.822z"/><path d="m289.694 382.039v-99.416c0-3.272-3.037-5.719-6.227-4.993-24.974 5.678-43.617 28.008-43.617 54.701s18.643 49.023 43.617 54.701c3.19.726 6.227-1.721 6.227-4.993z"/><path d="m418.782 307.51-86.102-49.711c-2.805-1.62-6.446-.272-7.408 2.822-7.615 24.487 2.398 51.841 25.54 65.202 23.117 13.347 51.777 8.367 69.181-10.423 2.223-2.401 1.622-6.254-1.211-7.89z"/><path d="m418.787 158.448-86.102 49.711c-2.834 1.636-3.434 5.489-1.211 7.89 17.404 18.789 46.064 23.769 69.181 10.423 23.142-13.361 33.155-40.715 25.54-65.202-.961-3.093-4.602-4.441-7.408-2.822z"/></g><path d="m446.486 367.082c-31.75 0-31.75-17.383-63.501-17.383-31.749 0-31.749 17.383-63.498 17.383-31.748 0-31.748-17.383-63.496-17.383-31.747 0-31.747 17.383-63.493 17.383-31.748 0-31.748-17.383-63.496-17.383s-31.748 17.383-63.496 17.383c-27.958 0-31.295-13.482-53.377-16.7-2.447-.357-4.63 1.58-4.63 4.053v104.289c0 2.049 1.52 3.791 3.553 4.049 23.058 2.929 26.047 16.846 54.453 16.846 31.748 0 31.748-17.383 63.496-17.383s31.748 17.383 63.496 17.383c31.747 0 31.747-17.383 63.493-17.383 31.748 0 31.748 17.383 63.496 17.383 31.749 0 31.749-17.383 63.498-17.383 31.751 0 31.751 17.383 63.501 17.383 28.41 0 31.399-13.918 54.461-16.846 2.033-.258 3.553-2 3.553-4.049v-104.289c0-2.473-2.183-4.409-4.63-4.053-22.084 3.218-25.42 16.7-53.383 16.7z" fill="#6cbff8"/><path d="m499.87 350.383c-10.234 1.491-16.443 5.186-22.94 8.722 1.179.713 1.989 2.007 1.989 3.508v107.944c6.045-3.304 12.221-6.537 22.028-7.782 2.033-.258 3.553-2.001 3.553-4.049v-104.291c0-2.472-2.183-4.409-4.63-4.052z" fill="#5fa7ee"/><path d="m11.053 462.774c23.058 2.929 26.047 16.846 54.453 16.846 31.748 0 31.748-17.383 63.496-17.383s31.748 17.383 63.496 17.383c31.747 0 31.747-17.383 63.493-17.383 31.748 0 31.748 17.383 63.496 17.383 31.749 0 31.749-17.383 63.498-17.383 31.751 0 31.751 17.383 63.501 17.383 28.41 0 31.399-13.918 54.461-16.846 2.033-.258 3.553-2.001 3.553-4.049v-52.569c-26.382 1.875-28.206 17.196-58.014 17.196-31.75 0-31.75-17.383-63.501-17.383-31.749 0-31.749 17.383-63.498 17.383-31.748 0-31.748-17.383-63.496-17.383-31.747 0-31.747 17.383-63.493 17.383-31.748 0-31.748-17.383-63.496-17.383s-31.748 17.383-63.496 17.383c-29.804 0-31.628-15.32-58.006-17.196v52.569c0 2.048 1.52 3.791 3.553 4.049z" fill="#b2e5fb"/><path d="m504.5 458.724v-52.569c-11.929.848-18.837 4.445-25.581 8.131v56.269c6.045-3.304 12.222-6.537 22.028-7.782 2.032-.257 3.553-2 3.553-4.049z" fill="#91dafa"/><circle cx="289.693" cy="232.981" fill="#9cd169" r="78.635"/><path d="m289.694 154.346c-4.71 0-9.316.438-13.798 1.232 36.845 6.525 64.837 38.685 64.837 77.403s-27.991 70.877-64.837 77.403c4.482.794 9.088 1.232 13.798 1.232 43.429 0 78.635-35.206 78.635-78.635s-35.207-78.635-78.635-78.635z" fill="#68b181"/><circle cx="289.694" cy="232.981" fill="#5392f9" r="21.613"/><g><path d="m7.5 41.357v151.038c0 4.964 4.024 8.988 8.988 8.988h28.48c4.964 0 8.988-4.024 8.988-8.988v-151.038c0-4.964-4.024-8.988-8.988-8.988h-28.48c-4.964 0-8.988 4.024-8.988 8.988z" fill="#5392f9"/></g><g><path d="m498.789 342.96c-10.883 1.586-17.933 5.446-24.153 8.852-7.616 4.17-14.192 7.771-28.149 7.771-3.141 0-5.893-.191-8.383-.521 29.691-34.878 46.06-78.772 46.326-124.933.299-51.62-19.853-100.483-56.744-137.589-37.375-37.592-86.93-58.295-139.535-58.295h-45.771c-4.142 0-7.5 3.357-7.5 7.5s3.358 7.5 7.5 7.5h45.771c48.583 0 94.359 19.132 128.897 53.871 34.055 34.253 52.658 79.329 52.382 126.926-.258 44.708-16.878 87.113-46.903 120.015-1.396-.716-2.775-1.47-4.188-2.244-8.229-4.506-17.559-9.613-35.353-9.613-17.793 0-27.121 5.107-35.351 9.613-7.615 4.169-14.191 7.77-28.147 7.77-10.345 0-16.633-1.98-22.297-4.702v-36.11c9.916-.86 19.351-3.407 28.027-7.353 5.454 8.589 12.895 15.736 21.844 20.905 9.701 5.598 20.731 8.513 31.839 8.513 17.794 0 34.765-7.57 46.585-20.334 2.619-2.82 3.793-6.622 3.221-10.431-.575-3.822-2.825-7.124-6.176-9.06l-54.795-31.634c4.044-8.637 6.705-18.044 7.674-27.945 10.157-.435 20.058-3.303 29.003-8.461 12.57-7.264 22.354-18.713 27.551-32.24 5.116-13.322 5.613-28.128 1.394-41.709-2.408-7.672-11.361-11.094-18.316-7.07l-54.832 31.655c-5.584-7.951-12.474-14.915-20.36-20.585 4.719-9.023 7.192-19.05 7.192-29.395 0-14.499-5.013-28.685-14.114-39.943-8.961-11.086-21.513-18.924-35.354-22.073-3.756-.844-7.629.049-10.638 2.452-3.015 2.41-4.743 6.006-4.743 9.864v63.267c-9.915.86-19.349 3.406-28.023 7.352-5.448-8.586-12.886-15.732-21.838-20.904-12.561-7.248-27.354-10-41.652-7.747-14.082 2.218-27.147 9.17-36.792 19.579-2.61 2.821-3.777 6.622-3.201 10.429.579 3.819 2.83 7.118 6.176 9.05l54.792 31.633c-4.045 8.638-6.705 18.047-7.674 27.948-10.154.436-20.053 3.301-28.998 8.459-12.571 7.258-22.356 18.706-27.553 32.236-5.117 13.323-5.614 28.127-1.401 41.678 1.127 3.641 3.817 6.529 7.379 7.926 3.606 1.414 7.59 1.115 10.945-.819l54.829-31.654c5.584 7.95 12.472 14.913 20.358 20.583-4.716 9.025-7.187 19.049-7.187 29.385 0 4.51.47 8.971 1.402 13.333-5.118 1.791-9.242 4.036-13.11 6.153-7.614 4.169-14.19 7.77-28.144 7.77-13.955 0-20.531-3.601-28.146-7.77-4.315-2.362-8.945-4.883-14.925-6.754-25.862-32.294-39.865-72.639-39.458-113.882.16-16.588 2.595-33.024 7.236-48.848 1.341-4.563.48-9.359-2.362-13.157-2.824-3.773-7.148-5.938-11.864-5.938h-41.525v-109.991h145.923c4.142 0 7.5-3.357 7.5-7.5s-3.358-7.5-7.5-7.5h-146.227c-1.46-7.607-8.157-13.376-16.184-13.376h-28.48c-9.093 0-16.489 7.397-16.489 16.489v151.039c0 9.092 7.396 16.488 16.488 16.488h28.48c9.092 0 16.488-7.396 16.488-16.488v-14.161h41.318c-5.006 17.112-7.631 34.876-7.804 52.796-.392 39.626 11.486 78.486 33.709 111.175-17.578.063-26.849 5.13-35.028 9.607-7.615 4.169-14.191 7.77-28.146 7.77-13.954 0-20.53-3.601-28.144-7.77-6.22-3.406-13.27-7.267-24.148-8.851-3.31-.485-6.66.497-9.196 2.689-2.553 2.209-4.017 5.41-4.017 8.785v104.289c0 5.819 4.346 10.758 10.108 11.489 8.31 1.056 13.249 3.569 20.049 7.293 11.131 6.095 19.785 9.613 35.349 9.613 17.793 0 27.121-5.107 35.35-9.613 7.615-4.169 14.191-7.77 28.146-7.77s20.531 3.601 28.146 7.77c8.229 4.506 17.557 9.613 35.35 9.613 17.792 0 27.119-5.107 35.348-9.613 7.614-4.169 14.19-7.77 28.145-7.77s20.531 3.601 28.146 7.77c8.229 4.506 17.557 9.613 35.35 9.613s27.121-5.107 35.351-9.613c7.615-4.169 14.191-7.77 28.147-7.77 13.957 0 20.534 3.601 28.149 7.771 7.715 4.224 16.396 8.976 32.113 9.554 14.923.549 24.521-2.202 32.245-6.225 9.067-4.39 14.622-9.127 26.399-10.623 5.763-.731 10.108-5.671 10.108-11.489v-104.289c.001-7.051-6.239-12.483-13.21-11.476zm-452.332-150.564c0 .82-.667 1.488-1.488 1.488h-28.48c-.821 0-1.488-.668-1.488-1.488v-151.039c0-.82.667-1.488 1.488-1.488h28.48c.821 0 1.488.668 1.488 1.488zm365.905 120.065c-15.56 14.874-38.896 17.779-57.802 6.871-6.604-3.815-12.129-9.038-16.251-15.297 8.534-5.858 15.954-13.215 21.901-21.683zm7.505-145.976c5.098 20.918-4.054 42.574-22.953 53.495-6.603 3.807-13.883 5.979-21.362 6.424-.804-10.586-3.519-20.642-7.818-29.822zm-87.827-32.859c0 7.618-1.755 15.006-5.104 21.697-9.139-4.401-19.175-7.213-29.745-8.13v-60.192c20.666 6.043 34.849 24.803 34.849 46.625zm-165.017 19.873c15.566-14.873 38.906-17.774 57.805-6.868 6.607 3.817 12.131 9.04 16.247 15.295-8.534 5.857-15.953 13.215-21.9 21.682zm-7.494 145.976c-4.971-20.65 4.354-42.756 22.947-53.491 6.603-3.806 13.884-5.979 21.359-6.423.804 10.586 3.52 20.643 7.819 29.822zm59.03-66.494c0-39.224 31.91-71.135 71.132-71.135 39.226 0 71.138 31.911 71.138 71.135 0 39.225-31.912 71.136-71.138 71.136-39.223-.001-71.132-31.912-71.132-71.136zm28.791 99.345c0-7.611 1.753-14.995 5.099-21.686 9.138 4.4 19.172 7.213 29.741 8.129v28.434c-6.473-2.793-14.501-5.004-26.199-5.004-2.717 0-5.216.131-7.565.349-.714-3.341-1.076-6.761-1.076-10.222zm170.988 132.025c-8.229-4.506-17.559-9.613-35.353-9.613-17.793 0-27.121 5.107-35.351 9.613-7.615 4.169-14.191 7.77-28.147 7.77-13.955 0-20.531-3.601-28.146-7.77-8.229-4.506-17.557-9.613-35.349-9.613s-27.12 5.107-35.349 9.613c-7.614 4.169-14.19 7.77-28.144 7.77-13.955 0-20.531-3.601-28.146-7.77-8.229-4.506-17.557-9.613-35.35-9.613s-27.12 5.107-35.35 9.613c-7.615 4.169-14.191 7.77-28.146 7.77-6.105 0-10.798-.689-14.783-1.814-5.124-1.446-9.078-3.611-13.361-5.957-5.883-3.221-12.48-6.833-22.362-8.563v-40.969c6.013 1.414 10.35 3.789 15.157 6.421 8.229 4.506 17.557 9.613 35.349 9.613 33.555 0 34.884-17.384 63.496-17.384 28.646 0 29.862 17.384 63.496 17.384 33.554 0 34.883-17.384 63.493-17.384 28.646 0 29.861 17.384 63.496 17.384 33.555 0 34.886-17.384 63.498-17.384 2.771 0 5.4.148 7.813.442 4.102.494 7.85-2.427 8.351-6.54.5-4.111-2.428-7.851-6.54-8.351-3.012-.366-6.249-.552-9.624-.552-33.555 0-34.886 17.384-63.498 17.384-28.971 0-29.61-17.384-63.496-17.384-33.554 0-34.882 17.384-63.493 17.384-28.646 0-29.862-17.384-63.496-17.384-33.555 0-34.884 17.384-63.496 17.384-13.955 0-20.531-3.601-28.145-7.771-5.912-3.237-12.479-6.825-22.361-8.558v-40.972c6.007 1.408 10.309 3.764 15.158 6.419 8.229 4.506 17.556 9.613 35.348 9.613 17.793 0 27.121-5.107 35.35-9.613 7.615-4.169 14.191-7.77 28.146-7.77s20.531 3.601 28.146 7.77c8.229 4.506 17.557 9.613 35.35 9.613 17.792 0 27.119-5.107 35.348-9.613 7.614-4.169 14.19-7.77 28.145-7.77 28.72 0 29.79 17.383 63.496 17.383 17.793 0 27.121-5.107 35.351-9.613 7.615-4.169 14.191-7.77 28.147-7.77 28.818 0 29.78 17.383 63.501 17.383 17.794 0 27.122-5.107 35.353-9.613 4.851-2.655 9.152-5.011 15.161-6.42v40.974c-9.884 1.732-16.452 5.32-22.365 8.558-7.615 4.17-14.191 7.771-28.148 7.771-7.358 0-13.366-1.02-18.906-3.209-3.852-1.522-8.209.366-9.731 4.22-1.521 3.852.367 8.209 4.22 9.731 7.352 2.904 15.11 4.258 24.418 4.258 17.794 0 27.122-5.107 35.353-9.613 4.809-2.633 9.146-5.008 15.161-6.422v40.955c-15.2 2.518-22.091 8.566-28.267 11.671-5.599 2.815-11.932 4.678-22.246 4.678-13.96-.001-20.537-3.601-28.152-7.77z"/><path d="m318.807 232.981c0-16.053-13.061-29.112-29.113-29.112s-29.112 13.06-29.112 29.112 13.06 29.112 29.112 29.112 29.113-13.06 29.113-29.112zm-43.226 0c0-7.781 6.331-14.112 14.112-14.112 7.782 0 14.113 6.331 14.113 14.112s-6.331 14.112-14.113 14.112c-7.781 0-14.112-6.331-14.112-14.112z"/></g></g></svg>