<svg id="Capa_1" enable-background="new 0 0 512 512" height="512" viewBox="0 0 512 512" width="512" xmlns="http://www.w3.org/2000/svg"><g><g><g><path d="m53.077 455.817v-247.056h405.845v247.056c0 5.523-4.477 10-10 10h-385.845c-5.523 0-10-4.477-10-10z" fill="#ddebfd"/><path d="m430.923 208.761v247.056c0 5.523-4.477 10-10 10h28c5.523 0 10-4.477 10-10v-247.056z" fill="#bed9fd"/><g fill="#407194"><path d="m336.072 465.817v28.683c0 5.523 4.477 10 10 10h66.101c5.523 0 10-4.477 10-10v-28.683z"/><path d="m89.826 465.817v28.683c0 5.523 4.477 10 10 10h66.101c5.523 0 10-4.477 10-10v-28.683z"/></g><g fill="#365f7e"><path d="m147.928 494.5c0 5.523-4.477 10-10 10h28c5.523 0 10-4.477 10-10v-28.683h-28z"/><path d="m394.174 465.817v28.683c0 5.523-4.477 10-10 10h28c5.523 0 10-4.477 10-10v-28.683z"/></g><path d="m13.355 176.109v27.651c0 2.761 2.239 5 5 5h475.291c2.761 0 5-2.239 5-5v-27.651c0-2.761-2.239-5-5-5h-475.291c-2.762 0-5 2.239-5 5z" fill="#9cd169"/><path d="m493.645 171.109h-28c2.761 0 5 2.239 5 5v27.651c0 2.761-2.239 5-5 5h28c2.761 0 5-2.239 5-5v-27.651c0-2.761-2.238-5-5-5z" fill="#68b181"/><g fill="#ddebfd"><path d="m245 69.13v101.98h43.995v-101.98c0-6.863-5.564-12.427-12.427-12.427h-19.142c-6.862 0-12.426 5.564-12.426 12.427z"/><path d="m369.131 69.13v101.98h43.995v-101.98c0-6.863-5.564-12.427-12.427-12.427h-19.142c-6.862 0-12.426 5.564-12.426 12.427z"/></g><ellipse cx="100.555" cy="68.022" fill="#ffc269" rx="60.522" ry="60.522" transform="matrix(.989 -.146 .146 .989 -8.834 15.368)"/><path d="m100.555 7.5c-4.286 0-8.466.452-12.5 1.299 27.427 5.76 48.022 30.084 48.022 59.223s-20.596 53.463-48.022 59.223c4.034.847 8.214 1.3 12.5 1.3 33.425 0 60.522-27.097 60.522-60.522 0-33.426-27.097-60.523-60.522-60.523z" fill="#ffa95f"/><g><path d="m113.587 279.894v124.543c0 9.389 7.611 17 17 17h.549c9.389 0 17-7.611 17-17v-124.543c0-9.389-7.611-17-17-17h-.549c-9.389 0-17 7.611-17 17z" fill="#80b6fc"/><g fill="#9ec8fc"><path d="m197.013 279.894v124.543c0 9.389 7.611 17 17 17h.549c9.389 0 17-7.611 17-17v-124.543c0-9.389-7.611-17-17-17h-.549c-9.389 0-17 7.611-17 17z"/><path d="m280.438 279.894v124.543c0 9.389 7.611 17 17 17h.549c9.389 0 17-7.611 17-17v-124.543c0-9.389-7.611-17-17-17h-.549c-9.389 0-17 7.611-17 17z"/><path d="m363.864 279.894v124.543c0 9.389 7.611 17 17 17h.549c9.389 0 17-7.611 17-17v-124.543c0-9.389-7.611-17-17-17h-.549c-9.389 0-17 7.611-17 17z"/></g></g><g fill="#9ec8fc"><path d="m458.923 263.262v148.054h34.723c2.761 0 5-2.239 5-5v-138.054c0-2.761-2.239-5-5-5z"/><path d="m13.355 268.262v138.054c0 2.761 2.239 5 5 5h34.723v-148.054h-34.723c-2.762 0-5 2.238-5 5z"/></g></g></g><g><path d="m493.646 216.261c6.893 0 12.5-5.607 12.5-12.5v-27.651c0-6.893-5.607-12.5-12.5-12.5h-73.02v-23.136h12.629c4.143 0 7.5-3.357 7.5-7.5s-3.357-7.5-7.5-7.5h-12.629v-23.135h12.629c4.143 0 7.5-3.357 7.5-7.5s-3.357-7.5-7.5-7.5h-12.629v-18.209c0-10.987-8.939-19.927-19.927-19.927h-2.07v-31.736c0-4.143-3.357-7.5-7.5-7.5s-7.5 3.357-7.5 7.5v31.736h-2.071c-10.987 0-19.927 8.939-19.927 19.927v18.209h-12.629c-4.143 0-7.5 3.357-7.5 7.5s3.357 7.5 7.5 7.5h12.629v23.135h-12.629c-4.143 0-7.5 3.357-7.5 7.5s3.357 7.5 7.5 7.5h12.629v23.136h-65.136v-23.136h12.629c4.143 0 7.5-3.357 7.5-7.5s-3.357-7.5-7.5-7.5h-12.629v-23.135h12.629c4.143 0 7.5-3.357 7.5-7.5s-3.357-7.5-7.5-7.5h-12.629v-18.209c0-10.987-8.939-19.927-19.927-19.927h-2.07v-31.736c0-4.143-3.357-7.5-7.5-7.5s-7.5 3.357-7.5 7.5v31.736h-2.071c-10.987 0-19.927 8.939-19.927 19.927v18.209h-12.629c-4.143 0-7.5 3.357-7.5 7.5s3.357 7.5 7.5 7.5h12.629v23.135h-12.629c-4.143 0-7.5 3.357-7.5 7.5s3.357 7.5 7.5 7.5h12.629v23.136h-129.445v-27.987c33.99-3.747 60.522-32.628 60.522-67.6 0-37.508-30.515-68.023-68.022-68.023s-68.022 30.515-68.022 68.022c0 34.972 26.532 63.853 60.521 67.6v27.987h-74.7c-6.893 0-12.5 5.607-12.5 12.5v27.651c0 6.893 5.607 12.5 12.5 12.5h27.223v39.501h-27.223c-6.893 0-12.5 5.607-12.5 12.5v138.054c0 6.893 5.607 12.5 12.5 12.5h27.223v37.001c0 9.649 7.851 17.5 17.5 17.5h19.249v21.184c0 9.649 7.851 17.5 17.5 17.5h66.102c9.649 0 17.5-7.851 17.5-17.5v-21.184h145.145v21.184c0 9.649 7.851 17.5 17.5 17.5h66.102c9.649 0 17.5-7.851 17.5-17.5v-21.184h19.249c9.649 0 17.5-7.851 17.5-17.5v-37.001h27.223c6.893 0 12.5-5.607 12.5-12.5v-138.053c0-6.893-5.607-12.5-12.5-12.5h-27.223v-39.501zm-446.113-148.239c0-29.236 23.785-53.022 53.022-53.022s53.022 23.786 53.022 53.022-23.786 53.022-53.022 53.022-53.022-23.785-53.022-53.022zm329.098 1.108c0-2.717 2.21-4.927 4.927-4.927h19.142c2.717 0 4.927 2.21 4.927 4.927v18.209h-28.995v-18.209zm0 33.209h28.995v23.135h-28.995zm0 38.135h28.995v23.136h-28.995zm-124.131-71.344c0-2.717 2.21-4.927 4.927-4.927h19.142c2.717 0 4.927 2.21 4.927 4.927v18.209h-28.996zm0 33.209h28.995v23.135h-28.995zm0 38.135h28.995v23.136h-28.995zm-231.646 263.341v-133.053h24.723v133.054h-24.723zm147.574 90.685c0 1.379-1.121 2.5-2.5 2.5h-66.102c-1.379 0-2.5-1.121-2.5-2.5v-21.184h71.102zm246.246 0c0 1.379-1.121 2.5-2.5 2.5h-66.102c-1.379 0-2.5-1.121-2.5-2.5v-21.184h71.102zm76.472-223.738v133.054h-24.723v-133.054zm-39.723 185.054c0 1.379-1.121 2.5-2.5 2.5h-385.846c-1.379 0-2.5-1.121-2.5-2.5v-239.555h326.36c4.143 0 7.5-3.357 7.5-7.5s-3.357-7.5-7.5-7.5h-366.083v-22.651h470.291v22.651h-69.208c-4.143 0-7.5 3.357-7.5 7.5s3.357 7.5 7.5 7.5h29.485v239.555z"/><path d="m105.858 62.719c-2.93-2.928-7.678-2.928-10.607 0l-20.334 20.334c-2.929 2.93-2.929 7.678 0 10.607 1.465 1.464 3.385 2.196 5.304 2.196s3.839-.732 5.304-2.196l20.334-20.334c2.928-2.93 2.928-7.678-.001-10.607z"/><path d="m131.136 255.395h-.549c-13.51 0-24.5 10.99-24.5 24.5v124.542c0 13.51 10.99 24.5 24.5 24.5h.549c13.51 0 24.5-10.99 24.5-24.5v-22.277c0-4.143-3.357-7.5-7.5-7.5s-7.5 3.357-7.5 7.5v22.276c0 5.238-4.262 9.5-9.5 9.5h-.549c-5.238 0-9.5-4.262-9.5-9.5v-124.541c0-5.238 4.262-9.5 9.5-9.5h.549c5.238 0 9.5 4.262 9.5 9.5v67.266c0 4.143 3.357 7.5 7.5 7.5s7.5-3.357 7.5-7.5v-67.266c0-13.51-10.99-24.5-24.5-24.5z"/><path d="m214.562 255.395h-.549c-13.51 0-24.5 10.99-24.5 24.5v124.542c0 13.51 10.99 24.5 24.5 24.5h.549c13.51 0 24.5-10.99 24.5-24.5v-124.542c0-13.51-10.991-24.5-24.5-24.5zm9.5 149.042c0 5.238-4.262 9.5-9.5 9.5h-.549c-5.238 0-9.5-4.262-9.5-9.5v-124.542c0-5.238 4.262-9.5 9.5-9.5h.549c5.238 0 9.5 4.262 9.5 9.5z"/><path d="m297.987 255.395h-.549c-13.51 0-24.5 10.99-24.5 24.5v124.542c0 13.51 10.99 24.5 24.5 24.5h.549c13.51 0 24.5-10.99 24.5-24.5v-124.542c0-13.51-10.99-24.5-24.5-24.5zm9.5 149.042c0 5.238-4.262 9.5-9.5 9.5h-.549c-5.238 0-9.5-4.262-9.5-9.5v-124.542c0-5.238 4.262-9.5 9.5-9.5h.549c5.238 0 9.5 4.262 9.5 9.5z"/><path d="m381.413 255.395h-.549c-13.51 0-24.5 10.99-24.5 24.5v124.542c0 13.51 10.99 24.5 24.5 24.5h.549c13.51 0 24.5-10.99 24.5-24.5v-124.542c0-13.51-10.99-24.5-24.5-24.5zm9.5 149.042c0 5.238-4.262 9.5-9.5 9.5h-.549c-5.238 0-9.5-4.262-9.5-9.5v-124.542c0-5.238 4.262-9.5 9.5-9.5h.549c5.238 0 9.5 4.262 9.5 9.5z"/></g></g></svg>