<svg id="Capa_1" enable-background="new 0 0 512 512" height="512" viewBox="0 0 512 512" width="512" xmlns="http://www.w3.org/2000/svg"><g><g><g><path d="m294.235 17.5v109.435c0 5.523 4.477 10 10 10h156.133c5.523 0 10-4.477 10-10v-109.435c0-5.523-4.477-10-10-10h-156.133c-5.523 0-10 4.477-10 10z" fill="#407194"/><path d="m460.369 7.5h-26c5.523 0 10 4.477 10 10v109.435c0 5.523-4.477 10-10 10h26c5.523 0 10-4.477 10-10v-109.435c0-5.523-4.477-10-10-10z" fill="#365f7e"/><path d="m41.631 17.5v109.435c0 5.523 4.477 10 10 10h156.133c5.523 0 10-4.477 10-10v-109.435c0-5.523-4.477-10-10-10h-156.133c-5.523 0-10 4.477-10 10z" fill="#407194"/><path d="m207.765 7.5h-26c5.523 0 10 4.477 10 10v109.435c0 5.523-4.477 10-10 10h26c5.523 0 10-4.477 10-10v-109.435c0-5.523-4.477-10-10-10z" fill="#365f7e"/><path d="m355.238 197.732v29.142c0 3.182 2.58 5.762 5.762 5.762h121.707c3.182 0 5.762-2.58 5.762-5.762v-29.142c0-3.182-2.58-5.762-5.762-5.762h-121.707c-3.182.001-5.762 2.58-5.762 5.762z" fill="#ffc269"/><path d="m482.707 191.971h-25c3.182 0 5.762 2.579 5.762 5.762v29.142c0 3.182-2.58 5.762-5.762 5.762h25c3.182 0 5.762-2.58 5.762-5.762v-29.142c0-3.183-2.58-5.762-5.762-5.762z" fill="#ffa95f"/><path d="m373.333 232.635c2.568 24.532 23.31 43.654 48.521 43.654s45.953-19.122 48.521-43.654z" fill="#6cbff8"/><path d="m156.762 197.732v29.142c0 3.182-2.58 5.762-5.762 5.762h-121.707c-3.182 0-5.762-2.58-5.762-5.762v-29.142c0-3.182 2.58-5.762 5.762-5.762h121.707c3.182.001 5.762 2.58 5.762 5.762z" fill="#ffc269"/><path d="m151 191.971h-25c3.182 0 5.762 2.579 5.762 5.762v29.142c0 3.182-2.58 5.762-5.762 5.762h25c3.182 0 5.762-2.58 5.762-5.762v-29.142c0-3.183-2.58-5.762-5.762-5.762z" fill="#ffa95f"/><path d="m138.667 232.635c-2.568 24.532-23.31 43.654-48.521 43.654s-45.953-19.122-48.521-43.654z" fill="#6cbff8"/><path d="m236.882 166.343v254.209h38.235v-254.209c0-2.761-2.239-5-5-5h-28.235c-2.761 0-5 2.238-5 5z" fill="#ddebfd"/><path d="m270.118 161.343h-17.241c2.761 0 5 2.239 5 5v254.209h17.241v-254.209c0-2.761-2.239-5-5-5z" fill="#bed9fd"/><path d="m217.765 499.5v-91.602c0-2.761 2.239-5 5-5h66.471c2.761 0 5 2.239 5 5v91.602c0 2.761-2.239 5-5 5h-66.471c-2.762 0-5-2.239-5-5z" fill="#5392f9"/><path d="m289.235 402.898h-24c2.761 0 5 2.239 5 5v91.602c0 2.761-2.239 5-5 5h24c2.761 0 5-2.239 5-5v-91.602c0-2.761-2.238-5-5-5z" fill="#4071f7"/></g></g><g><path d="m482.707 184.471h-15.313c-4.143 0-7.5 3.357-7.5 7.5s3.357 7.5 7.5 7.5h13.575v25.665h-118.23c0-8.787 0-16.056 0-25.665h69.655c4.143 0 7.5-3.357 7.5-7.5s-3.357-7.5-7.5-7.5h-71.394c-7.312 0-13.262 5.949-13.262 13.262v7.067h-22.538c-5.625 0-10.836 2.549-14.3 6.996l-28.28 36.364v-81.82c0-6.893-5.607-12.5-12.5-12.5h-6.62v-56.28c0-7.13 5.796-12.93 12.92-12.93h10.315v42.305c0 9.649 7.851 17.5 17.5 17.5h156.133c9.649 0 17.5-7.851 17.5-17.5v-109.435c0-9.649-7.851-17.5-17.5-17.5h-156.133c-9.649 0-17.5 7.851-17.5 17.5v52.13h-10.315c-8.056 0-15.321 3.435-20.422 8.912-5.101-5.475-12.366-8.907-20.422-8.907h-10.312v-52.135c0-9.649-7.851-17.5-17.5-17.5h-156.132c-9.649 0-17.5 7.851-17.5 17.5v109.435c0 9.649 7.851 17.5 17.5 17.5h156.133c9.649 0 17.5-7.851 17.5-17.5v-42.3h10.312c7.126 0 12.924 5.798 12.924 12.924v56.281h-6.62c-6.893 0-12.5 5.607-12.5 12.5v81.819l-28.283-36.368c-3.461-4.442-8.672-6.991-14.297-6.991h-22.538v-7.067c0-7.312-5.949-13.262-13.262-13.262h-121.708c-7.312 0-13.262 5.949-13.262 13.262v29.142c0 7.312 5.949 13.262 13.262 13.262h6c5.761 25.307 28.25 43.653 54.853 43.653s49.093-18.346 54.853-43.653h6c7.312 0 13.262-5.949 13.262-13.262v-7.075h22.539c.952 0 1.873.452 2.46 1.205l40.12 51.587v43.337c0 4.143 3.357 7.5 7.5 7.5s7.5-3.357 7.5-7.5v-147.089h23.24v226.559h-23.24v-44.469c0-4.143-3.357-7.5-7.5-7.5s-7.5 3.357-7.5 7.5v44.469h-6.615c-6.893 0-12.5 5.607-12.5 12.5v91.601c0 6.893 5.607 12.5 12.5 12.5h66.471c6.893 0 12.5-5.607 12.5-12.5v-91.602c0-6.893-5.607-12.5-12.5-12.5h-6.615v-122.806l40.117-51.583c.59-.758 1.511-1.21 2.463-1.21h22.538v7.074c0 7.312 5.949 13.262 13.262 13.262h6c5.761 25.307 28.25 43.653 54.853 43.653s49.093-18.346 54.853-43.653h6c7.312 0 13.262-5.949 13.262-13.262v-29.142c0-7.311-5.949-13.26-13.262-13.26zm-78.547-126.326v28.145h-43.711v-28.145zm-43.711-15v-28.145h43.711v28.145zm102.419 43.145h-43.708v-28.145h43.708zm-58.708 15v28.145h-43.711v-28.145zm-58.711-15h-43.714v-9.063c0-.032.005-.064.005-.097s-.004-.064-.005-.097v-18.888h43.714zm-43.714 40.645v-25.645h43.714v28.145h-41.214c-1.379 0-2.5-1.122-2.5-2.5zm158.633 2.5h-41.208v-28.145h43.708v25.645c0 1.378-1.121 2.5-2.5 2.5zm2.5-111.935v25.645h-43.708v-28.145h41.208c1.379 0 2.5 1.121 2.5 2.5zm-158.633-2.5h41.214v28.145h-43.714v-25.645c0-1.379 1.121-2.5 2.5-2.5zm-196.389 71.29v-28.145h43.71v28.145zm43.71 15v28.145h-43.71v-28.145zm-102.424-43.145h43.714v28.145h-43.714zm58.714-15v-28.145h43.71v28.145zm58.71 15h43.709v28.145h-43.709zm43.709-40.645v25.645h-43.709v-28.145h41.209c1.379 0 2.5 1.121 2.5 2.5zm-158.633-2.5h41.214v28.145h-43.714v-25.645c0-1.379 1.121-2.5 2.5-2.5zm-2.5 111.935v-25.645h43.714v28.145h-41.214c-1.379 0-2.5-1.122-2.5-2.5zm158.633 2.5h-41.209v-28.145h43.709v25.645c0 1.378-1.121 2.5-2.5 2.5zm-117.619 139.354c-18.32 0-33.988-11.851-39.334-28.653h78.668c-5.345 16.802-21.013 28.653-39.334 28.653zm48.521-43.653h-107.636v-25.665h118.23v25.665zm148.068 271.864h-61.471v-86.602h61.471zm135.119-228.211c-18.32 0-33.988-11.851-39.334-28.653h78.668c-5.346 16.802-21.014 28.653-39.334 28.653z"/><path d="m421.854 307.604c-4.143 0-7.5 3.357-7.5 7.5v12.322c0 4.143 3.357 7.5 7.5 7.5s7.5-3.357 7.5-7.5v-12.322c0-4.142-3.358-7.5-7.5-7.5z"/><path d="m482.253 297.479c-2.93-2.928-7.678-2.928-10.607 0-2.929 2.93-2.929 7.678 0 10.607l7.011 7.011c2.931 2.929 7.678 2.928 10.607 0 2.929-2.93 2.929-7.678 0-10.607z"/><path d="m361.454 297.479-7.011 7.011c-2.929 2.93-2.929 7.678 0 10.607 2.931 2.929 7.678 2.928 10.607 0l7.011-7.011c2.929-2.93 2.929-7.678 0-10.607-2.929-2.928-7.677-2.928-10.607 0z"/><path d="m90.146 307.604c-4.143 0-7.5 3.357-7.5 7.5v12.322c0 4.143 3.357 7.5 7.5 7.5s7.5-3.357 7.5-7.5v-12.322c0-4.142-3.357-7.5-7.5-7.5z"/><path d="m29.747 297.479-7.011 7.011c-2.929 2.93-2.929 7.678 0 10.607 2.931 2.929 7.678 2.928 10.607 0l7.011-7.011c2.929-2.93 2.929-7.678 0-10.607-2.929-2.928-7.677-2.928-10.607 0z"/><path d="m150.546 297.479c-2.93-2.928-7.678-2.928-10.607 0-2.929 2.93-2.929 7.678 0 10.607l7.011 7.011c2.931 2.929 7.678 2.928 10.607 0 2.929-2.93 2.929-7.678 0-10.607z"/></g></g></svg>