<svg id="Capa_1" enable-background="new 0 0 512 512" height="512" viewBox="0 0 512 512" width="512" xmlns="http://www.w3.org/2000/svg"><g><g><g><path d="m29.729 17.542v363.263c0 5.546 4.496 10.042 10.042 10.042h188.025c5.546 0 10.042-4.496 10.042-10.042v-363.263c0-5.546-4.496-10.042-10.042-10.042h-188.024c-5.547 0-10.043 4.496-10.043 10.042z" fill="#ddebfd"/><path d="m227.796 7.5h-27c5.546 0 10.042 4.496 10.042 10.042v363.263c0 5.546-4.496 10.042-10.042 10.042h27c5.546 0 10.042-4.496 10.042-10.042v-363.263c.001-5.546-4.496-10.042-10.042-10.042z" fill="#bed9fd"/><g><circle cx="133.784" cy="160.273" fill="#ffc269" r="55.355"/><circle cx="133.784" cy="304.756" fill="#ffc269" r="55.355"/><path d="m105.812 43.258v24.71c0 2.773 2.248 5.021 5.021 5.021h45.902c2.773 0 5.021-2.248 5.021-5.021v-24.71c0-2.773-2.248-5.021-5.021-5.021h-45.902c-2.773 0-5.021 2.248-5.021 5.021z" fill="#db387e"/></g><g><path d="m362.692 261.807c-7.527-37.926 62.707-78.65 118.471-17.245 2.217 2.441.917 6.327-2.307 7.017-21.394 4.583-42.783 26.945-62.699 37.092-22.73 11.58-47.986.742-53.465-26.864z" fill="#9cd169"/><path d="m314.946 261.807c7.527-37.926-62.707-78.65-118.471-17.245-2.217 2.441-.917 6.327 2.307 7.017 21.394 4.583 42.783 26.945 62.699 37.092 22.729 11.58 47.986.742 53.465-26.864z" fill="#9cd169"/><path d="m332.274 184.22h12.987c13.162 0 23.832-10.67 23.832-23.832v-63.683h-60.651v63.683c0 13.162 10.67 23.832 23.832 23.832z" fill="#ffc269"/><path d="m345.261 184.22h-12.987c-1.914 0-3.773-.232-5.557-.658 10.48-2.504 18.275-11.926 18.275-23.174v-63.683h24.102v63.683c-.001 13.162-10.671 23.832-23.833 23.832z" fill="#ffa95f"/><g fill="#ddebfd"><path d="m321.266 82.513h-29.198v-60.414c0-8.063 6.536-14.599 14.599-14.599s14.599 6.536 14.599 14.599z"/><path d="m385.467 82.513h-29.197v-60.414c0-8.063 6.536-14.599 14.599-14.599s14.599 6.536 14.599 14.599v60.414z"/></g><path d="m346.266 143.58h-14.996c-31.706 0-57.408-25.703-57.408-57.408v-27.235c0-4.1 3.324-7.424 7.424-7.424h114.964c4.1 0 7.424 3.324 7.424 7.424v27.235c0 31.706-25.703 57.408-57.408 57.408z" fill="#5392f9"/><path d="m346.266 143.58h-14.996c-1.534 0-3.049-.078-4.553-.196 29.575-2.323 52.855-27.04 52.855-57.212v-27.235c0-4.1-3.324-7.424-7.424-7.424h24.102c4.1 0 7.424 3.324 7.424 7.424v27.235c0 31.706-25.703 57.408-57.408 57.408z" fill="#4071f7"/></g></g></g><g><path d="m70.93 160.273c0 34.658 28.197 62.854 62.855 62.854s62.854-28.196 62.854-62.854-28.196-62.854-62.854-62.854-62.855 28.196-62.855 62.854zm62.855-47.854c26.387 0 47.854 21.468 47.854 47.854s-21.467 47.854-47.854 47.854-47.855-21.467-47.855-47.854 21.467-47.854 47.855-47.854z"/><path d="m112.427 166.718c4.142 0 7.5-3.357 7.5-7.5v-15.471c0-4.143-3.358-7.5-7.5-7.5s-7.5 3.357-7.5 7.5v15.471c0 4.142 3.358 7.5 7.5 7.5z"/><path d="m157.874 166.718c4.142 0 7.5-3.357 7.5-7.5v-15.471c0-4.143-3.358-7.5-7.5-7.5s-7.5 3.357-7.5 7.5v15.471c0 4.142 3.357 7.5 7.5 7.5z"/><path d="m130.491 190.324h9.318c4.142 0 7.5-3.357 7.5-7.5s-3.358-7.5-7.5-7.5h-9.318c-4.142 0-7.5 3.357-7.5 7.5s3.358 7.5 7.5 7.5z"/><path d="m133.785 367.61c34.658 0 62.854-28.196 62.854-62.854s-28.196-62.854-62.854-62.854-62.855 28.196-62.855 62.854 28.196 62.854 62.855 62.854zm0-110.709c26.387 0 47.854 21.468 47.854 47.854s-21.467 47.854-47.854 47.854-47.855-21.466-47.855-47.853 21.467-47.855 47.855-47.855z"/><path d="m112.427 311.2c4.142 0 7.5-3.357 7.5-7.5v-15.471c0-4.143-3.358-7.5-7.5-7.5s-7.5 3.357-7.5 7.5v15.471c0 4.143 3.358 7.5 7.5 7.5z"/><path d="m157.874 311.2c4.142 0 7.5-3.357 7.5-7.5v-15.471c0-4.143-3.358-7.5-7.5-7.5s-7.5 3.357-7.5 7.5v15.471c0 4.143 3.357 7.5 7.5 7.5z"/><path d="m130.491 334.808h9.318c4.142 0 7.5-3.357 7.5-7.5s-3.358-7.5-7.5-7.5h-9.318c-4.142 0-7.5 3.357-7.5 7.5s3.358 7.5 7.5 7.5z"/><path d="m156.735 80.489c6.904 0 12.521-5.617 12.521-12.521v-24.71c0-6.904-5.617-12.521-12.521-12.521h-45.902c-6.904 0-12.521 5.616-12.521 12.521v24.71c0 6.904 5.617 12.521 12.521 12.521zm-43.423-34.752h40.944v19.752h-40.944z"/><path d="m486.715 239.52c-32.613-35.912-72.585-41.014-101.689-26.354-19.989 10.069-31.693 28.119-30.26 45.932-3.027 2.511-5.858 5.187-8.498 8.013v-75.417c16.814-.536 30.33-14.367 30.33-31.304v-16.857c20.545-10.909 34.576-32.523 34.576-57.361v-27.235c0-8.229-6.695-14.923-14.923-14.923h-3.282v-21.914c0-12.186-9.914-22.1-22.1-22.1s-22.1 9.914-22.1 22.1v21.914h-20v-21.914c0-12.186-9.914-22.1-22.1-22.1s-22.1 9.914-22.1 22.1v21.914h-3.283c-8.229 0-14.923 6.694-14.923 14.923v27.235c0 24.838 14.031 46.452 34.577 57.361v16.857c0 16.937 13.516 30.768 30.33 31.304v75.311c-2.611-2.787-5.407-5.428-8.396-7.907 1.433-17.813-10.271-35.864-30.26-45.932-14.182-7.145-30.93-9.338-47.274-6.239v-189.387c0-9.672-7.869-17.54-17.54-17.54h-188.031c-9.671 0-17.54 7.868-17.54 17.54v264.36c0 4.143 3.358 7.5 7.5 7.5s7.5-3.357 7.5-7.5v-264.36c0-1.4 1.14-2.54 2.54-2.54h188.03c1.4 0 2.54 1.14 2.54 2.54v193.755c-14.139 5.597-27.565 15.176-39.417 28.226-6.131 6.753-2.523 17.506 6.29 19.393 10.601 2.271 21.987 10.062 33.127 18.1v103.796c0 1.4-1.14 2.54-2.54 2.54h-188.03c-1.4 0-2.54-1.14-2.54-2.54v-63.91c0-4.143-3.358-7.5-7.5-7.5s-7.5 3.357-7.5 7.5v63.909c0 9.672 7.869 17.54 17.54 17.54h86.52v8.181c0 58.156 47.314 105.47 105.47 105.47h9.04c58.156 0 105.47-47.313 105.47-105.47v-113.93c3.624-6.753 8.056-12.466 12.918-17.287 4.344 9.533 11.31 16.91 20.339 21.292 14.351 6.966 29.821 4.732 44.015-3.41 3.593-2.061 4.836-6.644 2.775-10.237-2.06-3.593-6.645-4.836-10.237-2.774-20.891 11.983-38.682 3.182-44.681-14.764 25.688-17.042 62.825-21.105 90.828-15.667-6.385 3.188-12.437 7.155-17.901 10.968-3.397 2.37-4.229 7.046-1.858 10.442 2.371 3.398 7.047 4.229 10.442 1.858 8.397-5.859 18.234-12.118 27.519-14.107 8.797-1.887 12.429-12.631 6.287-19.394zm-122.946-217.42c0-3.915 3.185-7.1 7.1-7.1s7.1 3.185 7.1 7.1v21.914h-14.2zm-64.2 0c0-3.915 3.185-7.1 7.1-7.1s7.1 3.185 7.1 7.1v21.914h-14.2zm-18.207 64.072v-27.158h114.812v27.158c0 27.52-22.389 49.908-49.908 49.908h-14.996c-27.519 0-49.908-22.389-49.908-49.908zm34.577 74.218v-11.155c4.919 1.196 10.05 1.845 15.332 1.845h14.996c5.282 0 10.413-.649 15.333-1.846v11.155c0 9.005-7.33 16.33-16.34 16.33h-12.98c-9.011.001-16.341-7.324-16.341-16.329zm-100.51 89.358c27.369-5.31 64.635-1.695 90.812 15.671-6.347 18.988-24.629 25.09-41.355 16.569-15.072-7.679-31.801-23.413-49.457-32.24zm70.436-23.186c10.447 5.262 17.815 13.169 20.738 21.576-25.633-13.914-58.652-18.184-86.738-14.339 22.354-15.443 46.858-16.88 66-7.237zm-45.066 270.438h-9.04c-49.885 0-90.47-40.585-90.47-90.47v-8.181h86.51c9.671 0 17.54-7.868 17.54-17.54v-93.13c4.245 2.865 8.51 5.52 12.738 7.674 23.339 11.89 49.572 3.671 60.375-20.04 4.817 4.775 9.212 10.424 12.817 17.095v114.122c0 49.885-40.585 90.47-90.47 90.47zm130.237-248.861c2.923-8.407 10.29-16.314 20.738-21.576 16.784-8.457 41.407-9.756 66.003 7.238-28.195-3.861-61.184.465-86.741 14.338z"/><path d="m356.157 97.547c0-4.143-3.358-7.5-7.5-7.5h-19.777c-4.142 0-7.5 3.357-7.5 7.5s3.358 7.5 7.5 7.5h19.777c4.142 0 7.5-3.358 7.5-7.5z"/></g></g></svg>