<svg id="Capa_1" enable-background="new 0 0 512 512" height="512" viewBox="0 0 512 512" width="512" xmlns="http://www.w3.org/2000/svg"><g><g><g><path d="m279.433 158.956v318.687h-131.157v-318.687c0-3.314 2.686-6 6-6h119.157c3.313 0 6 2.686 6 6z" fill="#bed9fd"/><path d="m273.433 152.956h-23c3.314 0 6 2.686 6 6v318.687h23v-318.687c0-3.314-2.687-6-6-6z" fill="#9ec8fc"/><g><path d="m110.814 221.502 11.9 224.284h-50.69l11.9-224.284z" fill="#ddebfd"/><path d="m110.814 221.502h-19l11.9 224.284h19z" fill="#bed9fd"/><path d="m141.41 473.676v-23.924c0-2.191-1.776-3.967-3.967-3.967h-80.148c-2.191 0-3.967 1.776-3.967 3.967v23.924c0 2.191 1.776 3.967 3.967 3.967h80.148c2.191 0 3.967-1.776 3.967-3.967z" fill="#6cbff8"/><path d="m137.443 445.786h-24c2.191 0 3.967 1.776 3.967 3.967v23.924c0 2.191-1.776 3.967-3.967 3.967h24c2.191 0 3.967-1.776 3.967-3.967v-23.924c0-2.191-1.776-3.967-3.967-3.967z" fill="#94d8e6"/><g fill="#ffc269"><path d="m106.598 123.141 13.617 57.881c.491 2.087.079 4.285-1.136 6.052l-15.812 23.007h-11.797l-15.812-23.007c-1.215-1.767-1.627-3.965-1.136-6.052l13.617-57.881c1.008-4.283 4.83-7.31 9.23-7.31s8.222 3.027 9.229 7.31z"/><path d="m175.022 273.625-56.935-17.148c-2.053-.618-3.75-2.074-4.673-4.01l-12.019-25.197 5.899-10.217 27.831-2.19c2.138-.168 4.247.573 5.809 2.042l43.318 40.733c3.205 3.014 3.916 7.838 1.716 11.648-2.201 3.812-6.733 5.608-10.946 4.339z"/><path d="m10.487 257.639 43.318-40.733c1.562-1.469 3.672-2.211 5.809-2.042l27.831 2.19 5.899 10.217-12.019 25.197c-.923 1.935-2.62 3.392-4.673 4.01l-56.935 17.148c-4.213 1.269-8.746-.527-10.946-4.338-2.2-3.811-1.49-8.634 1.716-11.649z"/></g><ellipse cx="97.369" cy="221.502" fill="#407194" rx="19.328" ry="19.328" transform="matrix(.993 -.117 .117 .993 -25.26 12.921)"/></g><path d="m215.151 267.438v210.206h156.055v-279.618c0-4.073-4.226-6.77-7.92-5.055l-142.973 66.379c-3.148 1.461-5.162 4.617-5.162 8.088z" fill="#6cbff8"/><path d="m363.286 192.971-18.885 8.768c2.147.725 3.805 2.736 3.805 5.287v270.617h23v-279.617c0-4.073-4.226-6.771-7.92-5.055z" fill="#5fa7ee"/><g fill="#ddebfd"><path d="m248.178 287.644v21.471c0 2.761 2.239 5 5 5h21.471c2.761 0 5-2.239 5-5v-21.471c0-2.761-2.239-5-5-5h-21.471c-2.761 0-5 2.238-5 5z"/><path d="m306.707 287.644v21.471c0 2.761 2.239 5 5 5h21.471c2.761 0 5-2.239 5-5v-21.471c0-2.761-2.239-5-5-5h-21.471c-2.761 0-5 2.238-5 5z"/><path d="m248.178 349.151v21.471c0 2.761 2.239 5 5 5h21.471c2.761 0 5-2.239 5-5v-21.471c0-2.761-2.239-5-5-5h-21.471c-2.761 0-5 2.239-5 5z"/><path d="m306.707 349.151v21.471c0 2.761 2.239 5 5 5h21.471c2.761 0 5-2.239 5-5v-21.471c0-2.761-2.239-5-5-5h-21.471c-2.761 0-5 2.239-5 5z"/><path d="m248.178 410.659v21.471c0 2.761 2.239 5 5 5h21.471c2.761 0 5-2.239 5-5v-21.471c0-2.761-2.239-5-5-5h-21.471c-2.761 0-5 2.238-5 5z"/><path d="m306.707 410.659v21.471c0 2.761 2.239 5 5 5h21.471c2.761 0 5-2.239 5-5v-21.471c0-2.761-2.239-5-5-5h-21.471c-2.761 0-5 2.238-5 5z"/></g><ellipse cx="425.283" cy="111.608" fill="#ffc269" rx="36.521" ry="36.521" transform="matrix(.707 -.707 .707 .707 45.644 333.409)"/><path d="m251.117 477.643v-8.31c0-17.254-13.988-31.242-31.242-31.242h-22.5c-2.357 0-4.41-1.555-5.104-3.807-4.179-13.549-16.793-23.398-31.714-23.398-15.482 0-28.487 10.599-32.158 24.936-.505 1.974-1.982 3.542-3.889 4.259-11.829 4.449-20.246 15.867-20.246 29.251v8.31z" fill="#9cd169"/><g fill="#68b181"><path d="m171.27 434.284c.695 2.252 2.747 3.807 5.104 3.807h21c-2.357 0-4.41-1.555-5.104-3.807-4.179-13.549-16.793-23.398-31.714-23.398-3.669 0-7.195.602-10.495 1.701 10.113 3.374 18.059 11.482 21.209 21.697z"/><path d="m219.874 438.091h-21c17.255 0 31.242 13.988 31.242 31.242v8.31h21v-8.31c.001-17.255-13.987-31.242-31.242-31.242z"/></g><path d="m417.223 425.813h32.908v51.83h-32.908z" fill="#ddebfd"/><path d="m384.944 342.277-20.638 87.386c-.741 3.14 1.64 6.149 4.866 6.149h129.009c3.226 0 5.608-3.01 4.866-6.149l-20.638-87.386c-.533-2.257-2.547-3.851-4.866-3.851h-87.733c-2.318 0-4.333 1.595-4.866 3.851z" fill="#407194"/></g></g><g><path d="m181.944 209.674h63.843c4.142 0 7.5-3.357 7.5-7.5 0-4.142-3.358-7.5-7.5-7.5h-63.843c-4.142 0-7.5 3.357-7.5 7.5s3.358 7.5 7.5 7.5z"/><path d="m504.5 470.135h-46.868v-26.829h40.55c3.844 0 7.416-1.728 9.802-4.742 2.385-3.015 3.246-6.888 2.363-10.629l-20.638-87.384c-1.339-5.668-6.341-9.626-12.165-9.626h-87.73c-4.777 0-8.997 2.666-11.1 6.751v-37.537c0-4.142-3.358-7.5-7.5-7.5s-7.5 3.357-7.5 7.5v99.414l-6.703 28.381c-1.402 5.94 1.664 11.677 6.703 14.124v28.078h-105.088v-.81c0-9.714-3.602-18.597-9.53-25.404 1.284.447 2.657.702 4.091.702h21.47c6.892 0 12.5-5.607 12.5-12.5v-21.471c0-6.892-5.607-12.5-12.5-12.5h-21.47c-6.892 0-12.5 5.607-12.5 12.5v21.471c0 1.919.447 3.731 1.224 5.358-5.544-3.847-12.134-6.28-19.251-6.786v-163.256c0-.552.319-1.057.818-1.288l140.236-65.106v64.093c0 4.142 3.358 7.5 7.5 7.5s7.5-3.357 7.5-7.5v-67.107c0-4.486-2.256-8.606-6.036-11.02-3.782-2.416-8.467-2.732-12.542-.843l-73.199 33.983v-61.189c0-7.444-6.056-13.499-13.499-13.499h-119.145c-7.444 0-13.499 6.055-13.499 13.499v49.26c-1.977-.703-4.103-1-6.246-.838l-13.725 1.077c-1.051-1.883-2.32-3.618-3.769-5.178l8.222-11.963c2.405-3.5 3.229-7.877 2.26-12.016l-13.621-57.884c-1.819-7.705-8.616-13.085-16.529-13.085-7.914 0-14.711 5.382-16.53 13.091l-13.621 57.884c-.974 4.154-.144 8.54 2.259 12.007l8.22 11.971c-1.451 1.569-2.713 3.306-3.756 5.175l-13.769-1.08c-4.216-.323-8.406 1.159-11.51 4.064l-43.3 40.721c-5.782 5.422-7.05 14.004-3.084 20.871 3.101 5.369 8.728 8.494 14.681 8.494 1.633 0 3.29-.235 4.926-.724l52.215-15.729-9.192 173.202h-7.617c-6.319 0-11.46 5.14-11.46 11.46v20.392h-38.329c-4.142 0-7.5 3.357-7.5 7.5s3.358 7.5 7.5 7.5h496.981c4.142 0 7.5-3.357 7.5-7.5s-3.358-7.5-7.5-7.5zm-248.812-56.982h16.471v16.471h-16.471zm187-67.229 1.374 17.459h-20.765l1.374-17.459zm2.555 32.459 1.374 17.459h-25.875l1.374-17.459zm42.113 17.459h-25.692l-1.374-17.459h22.943zm-38.183 32.465h-30.987l1.375-17.465h28.237zm-43.477-32.465h-25.692l4.123-17.459h22.943zm-33.359 32.465 4.125-17.465h28.054l-1.375 17.465zm52.386 14.999h17.909v26.829h-17.909zm39.496-14.999-1.375-17.465h28.054l4.125 17.465zm15.471-64.924h-20.582l-1.374-17.459h17.833zm-87.897-17.459h17.833l-1.374 17.459h-20.582zm-13.078 97.382h31.009v26.829h-31.009zm-135.088 26.02v.81h-131.848v-.81c0-9.836 6.183-18.77 15.388-22.231 4.227-1.592 7.409-5.112 8.512-9.419 2.909-11.361 13.145-19.296 24.891-19.296 11.341 0 21.206 7.277 24.546 18.108 1.678 5.441 6.609 9.096 12.271 9.096h22.499c13.09 0 23.741 10.65 23.741 23.742zm-65.827-187.787c5.944 0 11.574-3.126 14.677-8.499 2.677-4.636 2.959-10.052 1.088-14.749h16.901c-1.786 2.66-2.806 5.831-2.806 9.15v24.459h-25.719c-4.142 0-7.5 3.357-7.5 7.5s3.358 7.5 7.5 7.5h25.719v33.618h-25.719c-4.142 0-7.5 3.357-7.5 7.5 0 4.142 3.358 7.5 7.5 7.5h25.719v33.609h-25.719c-4.142 0-7.5 3.357-7.5 7.5s3.358 7.5 7.5 7.5h25.719v26.46h-8.7c-5.716-16.335-20.952-27.204-38.392-27.204-1.612 0-3.206.1-4.776.284v-128c16.456 4.742 17.779 5.872 22.008 5.872zm94.139-121.075v66.653l-34.838 16.174h-55.159c-.608 0-1.196.08-1.763.217l-24.387-22.929v-60.115zm-136.245 61.878c.05-.006.089.013.113.034l43.325 40.735c.672.63.818 1.629.356 2.429-.456.788-1.426 1.168-2.292.909l-56.93-17.149c-.044-.014-.072-.058-.072-.058l-4.074-8.543c4.942-4.842 7.632-11.065 8.034-17.453zm-50.057.546c-.763-6.477 3.886-12.368 10.363-13.131 6.474-.752 12.367 3.886 13.13 10.362.765 6.493-3.869 12.365-10.362 13.131-6.489.768-12.365-3.869-13.131-10.362zm9.818-98.02c.213-.902 1.007-1.532 1.931-1.532s1.718.63 1.929 1.527l13.599 57.963-8.749 12.73c-4.306-1.131-8.92-1.211-13.558-.003l-8.77-12.812zm-77.861 141.575c-.898.271-1.848-.104-2.31-.904s-.316-1.799.364-2.435l43.295-40.716c.035-.032.056-.041.099-.049l11.574.908c.432 6.571 3.205 12.754 8.018 17.441l-4.129 8.612zm72.232-14.353 2.068-4.336c3.658.761 7.211.788 10.976.007l2.075 4.351 3.461 65.194c.212 4.001 3.523 7.102 7.483 7.102.134 0 .269-.003.404-.011 4.136-.22 7.311-3.75 7.092-7.886l-2.73-51.429 20.14 6.067v137.357c-4.61 2.562-8.693 5.998-12.001 10.127l-3.559-67.143c-.219-4.136-3.749-7.317-7.886-7.092-4.136.219-7.311 3.75-7.092 7.886l4.472 84.36c-.81.519-1.598 1.065-2.364 1.64h-32.42zm-28.979 201.193h39.45c-2.267 4.951-3.518 10.405-3.518 16.042v.81h-35.932z"/><path d="m287.158 287.643c0-6.892-5.607-12.5-12.5-12.5h-21.47c-6.892 0-12.5 5.607-12.5 12.5v21.471c0 6.892 5.607 12.5 12.5 12.5h21.47c6.892 0 12.5-5.607 12.5-12.5zm-15 18.971h-16.471v-16.471h16.471z"/><path d="m345.684 287.643c0-6.892-5.607-12.5-12.5-12.5h-21.47c-6.892 0-12.5 5.607-12.5 12.5v21.471c0 6.892 5.607 12.5 12.5 12.5h21.47c6.892 0 12.5-5.607 12.5-12.5zm-14.999 18.971h-16.47v-16.471h16.47z"/><path d="m274.658 336.649h-21.47c-6.892 0-12.5 5.607-12.5 12.5v21.47c0 6.892 5.607 12.5 12.5 12.5h21.47c6.892 0 12.5-5.607 12.5-12.5v-21.47c0-6.893-5.607-12.5-12.5-12.5zm-2.5 31.469h-16.471v-16.47h16.471z"/><path d="m345.684 349.148c0-6.892-5.607-12.5-12.5-12.5h-21.47c-6.892 0-12.5 5.607-12.5 12.5v21.47c0 6.892 5.607 12.5 12.5 12.5h21.47c6.892 0 12.5-5.607 12.5-12.5zm-14.999 18.97h-16.47v-16.47h16.47z"/><path d="m333.185 398.153h-21.47c-6.892 0-12.5 5.607-12.5 12.5v21.471c0 6.892 5.607 12.5 12.5 12.5h21.47c6.892 0 12.5-5.607 12.5-12.5v-21.471c-.001-6.892-5.608-12.5-12.5-12.5zm-2.5 31.471h-16.47v-16.471h16.47z"/><path d="m403.277 149.735c6.783 3.916 14.31 5.917 21.938 5.917 15.07 0 29.94-7.734 38.193-22.028 12.136-21.021 4.909-47.995-16.112-60.132-21.02-12.137-47.995-4.907-60.131 16.113-5.879 10.182-7.441 22.045-4.398 33.402 3.043 11.356 10.327 20.849 20.51 26.728zm-3.123-52.631c8.002-13.859 25.712-18.664 39.642-10.623 13.858 8.001 18.623 25.784 10.622 39.642-8.018 13.887-25.75 18.644-39.642 10.622-6.713-3.876-11.515-10.133-13.521-17.621-2.006-7.487-.977-15.307 2.899-22.02z"/><path d="m354.637 79.485c5.649 2.998 7.06 4.773 10.268 4.773 2.592 0 5.113-1.345 6.502-3.751 2.071-3.587.842-8.174-2.745-10.245l-6.525-3.767c-3.588-2.071-8.174-.843-10.245 2.745-2.071 3.587-.842 8.173 2.745 10.245z"/><path d="m362.137 156.733 6.525-3.767c3.587-2.071 4.816-6.658 2.745-10.245-2.071-3.588-6.659-4.815-10.245-2.745l-6.525 3.767c-3.587 2.071-4.816 6.658-2.745 10.245 2.081 3.604 6.675 4.806 10.245 2.745z"/><path d="m417.786 181.327v7.535c0 4.142 3.358 7.5 7.5 7.5s7.5-3.357 7.5-7.5v-7.535c0-4.142-3.358-7.5-7.5-7.5s-7.5 3.357-7.5 7.5z"/><path d="m481.909 152.965 6.525 3.767c3.571 2.061 8.165.858 10.245-2.745 2.071-3.587.842-8.174-2.745-10.245l-6.525-3.767c-3.587-2.071-8.174-.843-10.245 2.745-2.071 3.587-.842 8.174 2.745 10.245z"/><path d="m489.409 83.252 6.525-3.767c3.587-2.071 4.816-6.658 2.745-10.245-2.071-3.588-6.659-4.815-10.245-2.745l-6.525 3.767c-3.587 2.071-4.816 6.658-2.745 10.245 2.081 3.605 6.675 4.806 10.245 2.745z"/><path d="m425.286 49.4c4.142 0 7.5-3.357 7.5-7.5v-7.535c0-4.142-3.358-7.5-7.5-7.5s-7.5 3.357-7.5 7.5v7.535c0 4.142 3.358 7.5 7.5 7.5z"/></g></g></svg>