<svg id="Capa_1" enable-background="new 0 0 512 512" height="512" viewBox="0 0 512 512" width="512" xmlns="http://www.w3.org/2000/svg"><g><g><g><path d="m7.5 439.165v35.801c0 5.523 4.477 10 10 10h477c5.523 0 10-4.477 10-10v-35.801c0-159.245-497-159.245-497 0z" fill="#f4e2c1"/><path d="m242 319.907c119.412 2.88 234.5 42.628 234.5 119.258v35.801c0 5.522-4.477 10-10 10h28c5.523 0 10-4.478 10-10v-35.801c0-82.615-133.763-122.363-262.5-119.258z" fill="#efcb83"/><g><g fill="#b79090"><path d="m235.569 252.692v142.966c0 1.83 1.483 3.313 3.313 3.313h34.236c1.83 0 3.313-1.483 3.313-3.313v-142.966z"/><path d="m359.125 252.692v112.232c0 1.83 1.483 3.313 3.313 3.313h34.236c1.83 0 3.313-1.483 3.313-3.313v-112.232z"/><path d="m105.754 252.692v112.232c0 1.83 1.483 3.313 3.313 3.313h34.236c1.83 0 3.313-1.483 3.313-3.313v-112.232z"/></g><path d="m459.842 216.637c-3.421-2.796-3.976-7.775-1.146-11.167 6.476-7.762 10.376-17.747 10.376-28.647 0-21.479-15.125-39.421-35.306-43.766-3.714-.8-6.339-4.03-6.307-7.829.001-.12.002-.241.002-.361 0-24.729-20.047-44.776-44.776-44.776s-44.776 20.046-44.776 44.776c0 .121.001.241.001.361.031 3.799-2.594 7.029-6.307 7.829-20.18 4.345-35.306 22.287-35.306 43.766 0 10.9 3.9 20.885 10.376 28.647 2.83 3.393 2.275 8.371-1.146 11.167-7.175 5.865-11.755 14.785-11.755 24.775 0 17.664 14.319 31.982 31.983 31.982h113.859c17.664 0 31.983-14.319 31.983-31.982.001-9.989-4.58-18.91-11.755-24.775z" fill="#bce097"/><path d="m459.842 216.637c-3.421-2.797-3.976-7.774-1.146-11.167 6.476-7.762 10.376-17.747 10.376-28.647 0-21.479-15.125-39.421-35.306-43.766-3.714-.8-6.338-4.03-6.307-7.829.001-.12.002-.241.002-.361 0-24.729-20.047-44.776-44.776-44.776-4.819 0-9.455.77-13.805 2.179 17.971 5.82 30.971 22.686 30.971 42.597 0 .121-.001.241-.002.361-.031 3.798 2.594 7.029 6.307 7.829 20.18 4.345 35.306 22.287 35.306 43.766 0 10.9-3.9 20.885-10.376 28.647-2.83 3.393-2.275 8.371 1.146 11.167 7.175 5.865 11.755 14.785 11.755 24.775 0 17.664-14.319 31.982-31.983 31.982h27.61c17.664 0 31.983-14.319 31.983-31.982.001-9.99-4.58-18.91-11.755-24.775z" fill="#7fbd93"/><path d="m206.472 216.637c-3.421-2.796-3.976-7.775-1.146-11.167 6.476-7.762 10.376-17.747 10.376-28.647 0-21.479-15.125-39.421-35.306-43.766-3.714-.8-6.338-4.03-6.307-7.829.001-.12.001-.241.001-.361 0-24.729-20.047-44.776-44.776-44.776s-44.776 20.046-44.776 44.776c0 .121 0 .241.001.361.031 3.799-2.594 7.029-6.307 7.829-20.18 4.345-35.306 22.287-35.306 43.766 0 10.9 3.9 20.885 10.376 28.647 2.83 3.393 2.275 8.371-1.146 11.167-7.175 5.865-11.755 14.785-11.755 24.775 0 17.664 14.319 31.982 31.983 31.982h113.859c17.664 0 31.983-14.319 31.983-31.982.001-9.989-4.579-18.91-11.754-24.775z" fill="#bce097"/><path d="m206.472 216.637c-3.421-2.797-3.976-7.774-1.146-11.167 6.476-7.762 10.376-17.747 10.376-28.647 0-21.479-15.125-39.421-35.306-43.766-3.714-.8-6.338-4.03-6.307-7.829.001-.12.001-.241.001-.361 0-24.729-20.047-44.776-44.776-44.776-4.819 0-9.455.77-13.805 2.179 17.972 5.82 30.971 22.686 30.971 42.597 0 .121-.001.241-.001.361-.031 3.798 2.594 7.029 6.307 7.829 20.18 4.345 35.306 22.287 35.306 43.766 0 10.9-3.899 20.885-10.376 28.647-2.83 3.393-2.275 8.371 1.146 11.167 7.175 5.865 11.755 14.785 11.755 24.775 0 17.664-14.319 31.982-31.983 31.982h27.61c17.663 0 31.983-14.319 31.983-31.982 0-9.99-4.58-18.91-11.755-24.775z" fill="#7fbd93"/><path d="m359.975 198.099c0-15.628-8.021-29.379-20.168-37.371-1.524-1.003-1.928-3.096-.881-4.59 5.243-7.483 8.322-16.594 8.322-26.426 0-25.468-20.646-46.114-46.114-46.114-.027 0-.053 0-.08 0-3.516.006-6.078-3.208-5.291-6.635.955-4.16 1.275-8.562.842-13.103-1.878-19.714-18.046-35.413-37.806-36.732-23.799-1.589-43.598 17.245-43.598 40.703 0 3.162.362 6.238 1.045 9.191.787 3.402-1.806 6.583-5.299 6.576-.028 0-.057 0-.085 0-25.468 0-46.114 20.646-46.114 46.114 0 9.831 3.079 18.942 8.322 26.426 1.047 1.494.643 3.587-.881 4.59-12.147 7.993-20.168 21.743-20.168 37.371 0 16.881 9.361 31.566 23.17 39.174 1.805.994 2.896 2.873 2.894 4.934v.035c0 25.968 21.051 47.02 47.02 47.02h61.782c25.968 0 47.02-21.051 47.02-47.02 0 0 0-.024 0-.035-.002-2.061 1.089-3.94 2.894-4.934 13.813-7.608 23.174-22.294 23.174-39.174z" fill="#9cd169"/><path d="m339.808 160.728c-1.524-1.003-1.928-3.096-.881-4.59 5.243-7.483 8.322-16.594 8.322-26.426 0-25.468-20.646-46.114-46.114-46.114-.027 0-.053 0-.08 0-3.516.006-6.078-3.208-5.291-6.635.955-4.16 1.275-8.562.842-13.103-1.877-19.714-18.046-35.412-37.806-36.732-5.863-.391-11.48.461-16.621 2.312 14.491 5.24 25.303 18.521 26.817 34.42.433 4.541.113 8.943-.842 13.103-.787 3.427 1.774 6.642 5.291 6.635h.08c25.468 0 46.114 20.646 46.114 46.114 0 9.831-3.079 18.942-8.322 26.425-1.047 1.495-.643 3.587.881 4.59 12.147 7.993 20.168 21.743 20.168 37.371 0 16.881-9.361 31.567-23.17 39.174-1.805.994-2.896 2.873-2.894 4.934v.035c0 25.968-21.051 47.02-47.02 47.02h27.61c25.968 0 47.02-21.051 47.02-47.02 0 0 0-.024 0-.035-.002-2.061 1.089-3.94 2.894-4.934 13.809-7.608 23.17-22.294 23.17-39.174-.001-15.627-8.021-29.378-20.168-37.37z" fill="#68b181"/></g></g></g><g><path d="m471.946 366.622c-3.289-2.517-7.998-1.889-10.514 1.4-2.517 3.29-1.89 7.997 1.4 10.514 22.673 17.344 34.168 37.743 34.168 60.633v35.8c0 1.379-1.121 2.5-2.5 2.5h-477c-1.378 0-2.5-1.121-2.5-2.5v-35.8c0-19.554 8.436-37.367 25.072-52.945 14.082-13.186 33.627-24.532 58.178-33.807v12.502c0 5.967 4.854 10.82 10.82 10.82h34.23c5.966 0 10.82-4.854 10.82-10.82v-28.117c23.29-4.64 48.104-7.616 73.95-8.876v67.733c0 5.96 4.85 10.81 10.81 10.81h34.24c5.96 0 10.81-4.85 10.81-10.81v-67.72c23.535 1.148 46.238 3.725 67.69 7.676v29.304c0 5.967 4.854 10.82 10.82 10.82h34.229c5.967 0 10.82-4.854 10.82-10.82v-14.799c23.775 8.367 25.725 11.721 29.784 11.721 2.782 0 5.454-1.554 6.752-4.224 1.81-3.726.258-8.214-3.468-10.024-10.038-4.877-21.14-9.351-33.068-13.327v-53.377h32.12c21.774 0 39.489-17.71 39.489-39.479 0-11.904-5.291-23.05-14.509-30.574-.124-.102-.193-.218-.206-.344-.009-.097.02-.152.076-.22 7.809-9.366 12.109-21.246 12.109-33.452 0-24.469-17.337-45.956-41.225-51.093-.177-.038-.387-.15-.386-.438v-.42c0-28.827-23.448-52.28-52.27-52.28-16.785 0-32.214 7.984-41.937 21.056-9.301-10.208-22.471-16.832-37.177-17.493.745-4.265.912-8.627.496-13.003-2.214-23.245-21.462-41.948-44.771-43.505-28.779-1.922-51.598 21.049-51.598 48.187 0 2.792.241 5.58.719 8.321-14.705.662-27.876 7.285-37.177 17.493-9.723-13.072-25.151-21.056-41.936-21.056-4.05 0-8.106.471-12.056 1.399-4.032.947-6.533 4.984-5.585 9.017.948 4.032 4.985 6.534 9.017 5.585 2.827-.664 5.729-1.001 8.624-1.001 13.858 0 26.413 7.636 32.864 19.697-7.294 15.775-6.504 34.409 2.481 49.622-12.677 9.867-20.13 24.974-20.13 41.19 0 18.648 9.961 35.86 26.074 45.192.153 8.083 2.085 15.736 5.403 22.599h-103.608c-13.504 0-24.49-10.981-24.49-24.479 0-7.38 3.281-14.29 9.011-18.967 3.242-2.655 5.244-6.396 5.637-10.535.388-4.091-.852-8.084-3.488-11.241-5.565-6.675-8.63-15.144-8.63-23.847 0-17.447 12.354-32.768 29.376-36.429 7.232-1.555 12.263-7.802 12.234-15.192v-.329c0-6.929 1.911-13.691 5.525-19.555 2.173-3.526 1.077-8.146-2.449-10.32-3.527-2.173-8.146-1.075-10.32 2.449-5.074 8.231-7.755 17.715-7.755 27.426v.39c.001.317-.209.43-.387.468-23.886 5.137-41.223 26.624-41.223 51.093 0 12.206 4.3 24.087 12.112 33.456.053.063.082.119.072.216-.012.126-.081.242-.197.337-9.227 7.53-14.518 18.677-14.518 30.581 0 21.77 17.715 39.479 39.49 39.479h25.86v55.55c-28.883 10.301-51.892 23.35-68.43 38.835-19.787 18.527-29.82 40.024-29.82 63.894v35.8c0 9.649 7.851 17.5 17.5 17.5h477c9.649 0 17.5-7.851 17.5-17.5v-35.8c0-27.808-13.476-52.216-40.054-72.547zm-228.876 24.847v-94.708h25.86v94.708zm40.86-78.544v-16.165h2.961c14.974 0 28.552-6.073 38.416-15.884.152.001.3.012.454.012h25.86v39.467c-21.523-3.831-44.226-6.314-67.691-7.43zm108.56 47.814h-25.87v-79.851h25.87zm-9.8-273.15c20.551 0 37.27 16.724 37.27 37.28v.33c-.028 7.39 5.002 13.637 12.232 15.191 17.022 3.661 29.378 18.981 29.378 36.429 0 8.702-3.065 17.171-8.627 23.843-2.64 3.161-3.879 7.154-3.491 11.245.393 4.139 2.395 7.88 5.646 10.542 5.721 4.67 9.002 11.58 9.002 18.96 0 13.498-10.985 24.479-24.489 24.479h-103.621c3.317-6.86 5.251-14.513 5.411-22.599 16.113-9.331 26.075-26.544 26.075-45.192 0-16.216-7.453-31.323-20.13-41.19 8.998-15.239 9.762-33.872 2.48-49.623 6.452-12.059 19.007-19.695 32.864-19.695zm-223.165 110.509c0-12.561 6.276-24.188 16.79-31.105 5.046-3.32 6.373-10.204 2.901-15.159-4.556-6.503-6.964-14.152-6.964-22.122 0-21.277 17.305-39.08 38.579-38.614.043.001.087.002.13.001 8.321 0 14.467-7.676 12.596-15.765-.566-2.447-.853-4.972-.853-7.503 0-19.249 16.215-34.518 35.598-33.22 16.057 1.072 29.314 13.952 30.839 29.959.346 3.628.114 7.231-.686 10.714-1.866 8.119 4.258 15.814 12.591 15.814.045 0 .086 0 .13-.001 21.273.021 38.573 17.335 38.573 38.614 0 7.97-2.408 15.619-6.965 22.122-3.466 4.947-2.152 11.833 2.901 15.159 10.514 6.918 16.79 18.546 16.79 31.105 0 13.557-7.392 26.051-19.29 32.605-4.186 2.306-6.781 6.718-6.774 11.538 0 21.791-17.729 39.52-39.521 39.52-7.699 0-52.424 0-61.782 0-21.791 0-39.52-17.729-39.52-39.548.004-4.795-2.592-9.206-6.775-11.51-11.897-6.553-19.288-19.048-19.288-32.604zm65.584 98.663h2.961v16.147c-25.767 1.224-50.569 4.113-73.95 8.613v-40.632s32.417-.011 32.568-.012c9.864 9.809 23.444 15.884 38.421 15.884zm-85.989-15.872v79.851h-25.87v-79.851z"/><path d="m382.014 402.273c-4.143 0-7.5 3.357-7.5 7.5v15.374c-6.181-4.829-12.937-7.972-20.217-9.381-4.067-.794-8.002 1.872-8.788 5.938-.787 4.066 1.871 8.001 5.938 8.788 9.245 1.789 17.23 7.668 24.414 17.973 3.016 4.327 9.352 4.236 12.306-.001 7.182-10.304 15.167-16.183 24.412-17.972 4.067-.787 6.726-4.722 5.938-8.788-.786-4.066-4.713-6.727-8.788-5.938-7.28 1.409-14.035 4.553-20.216 9.381v-15.374c.001-4.143-3.357-7.5-7.499-7.5z"/><path d="m129.987 402.273c-4.142 0-7.5 3.357-7.5 7.5v15.374c-6.181-4.829-12.937-7.972-20.217-9.381-4.064-.785-8.001 1.871-8.788 5.938-.787 4.066 1.872 8.001 5.938 8.788 9.246 1.789 17.231 7.668 24.414 17.973 2.964 4.25 9.3 4.314 12.306-.001 7.182-10.304 15.167-16.183 24.413-17.972 4.067-.787 6.726-4.722 5.938-8.788-.787-4.067-4.721-6.721-8.788-5.938-7.28 1.409-14.036 4.553-20.216 9.381v-15.374c0-4.143-3.358-7.5-7.5-7.5z"/></g></g></svg>