<svg id="Capa_1" enable-background="new 0 0 512 512" height="512" viewBox="0 0 512 512" width="512" xmlns="http://www.w3.org/2000/svg"><g><g><g><path d="m272.036 132.448h32.062v54.879h-32.062z" fill="#365f7e"/><path d="m246.619 126.639-11.441-24.787 11.441-24.787c1.635-3.541 5.179-5.809 9.079-5.809h64.737c3.9 0 7.445 2.268 9.079 5.809l11.441 24.786-11.441 24.787c-1.635 3.541-5.179 5.809-9.079 5.809h-64.737c-3.9.001-7.444-2.267-9.079-5.808z" fill="#ffc269"/><path d="m329.516 77.065c-1.635-3.541-5.179-5.809-9.079-5.809h-24c3.9 0 7.445 2.268 9.079 5.809l11.441 24.786-11.441 24.787c-1.635 3.541-5.179 5.809-9.079 5.809h24c3.9 0 7.445-2.268 9.079-5.809l11.441-24.787z" fill="#ffa95f"/><path d="m7.5 422.786v29.673c0 2.761 2.239 5 5 5h487c2.761 0 5-2.239 5-5v-29.673c0-2.761-2.239-5-5-5h-487c-2.761 0-5 2.239-5 5z" fill="#407194"/><path d="m499.5 417.786h-24c2.761 0 5 2.238 5 5v29.673c0 2.761-2.239 5-5 5h24c2.761 0 5-2.239 5-5v-29.673c0-2.761-2.239-5-5-5z" fill="#365f7e"/><path d="m359.042 177.327h-192.279v194.087h192.279c2.104 0 4.155-.664 5.86-1.897l50.031-36.177v-117.939l-50.031-36.177c-1.706-1.233-3.756-1.897-5.86-1.897z" fill="#ddebfd"/><path d="m364.901 179.224c-1.705-1.233-3.756-1.897-5.86-1.897h-26c2.104 0 4.155.664 5.86 1.896l47.961 34.68c1.3.94 2.07 2.447 2.07 4.052v112.83c0 1.604-.77 3.111-2.07 4.052l-47.961 34.68c-1.705 1.233-3.756 1.896-5.86 1.896h26c2.104 0 4.155-.664 5.86-1.897l50.031-36.177v-117.938z" fill="#bed9fd"/><path d="m257.103 220.838-55.536 96.19c-4.186 7.25 1.046 16.312 9.418 16.312h111.071c8.371 0 13.603-9.062 9.418-16.312l-55.536-96.19c-4.185-7.25-14.649-7.25-18.835 0z" fill="#ffc269"/><path d="m414.933 215.401v117.939h28.133c5.523 0 10-4.477 10-10v-97.939c0-5.523-4.477-10-10-10z" fill="#9cd169"/><path d="m489.928 258.738v31.264c0 5.523-4.477 10-10 10h-26.863v-51.264h26.863c5.523 0 10 4.478 10 10z" fill="#6cbff8"/><path d="m32.072 128.607v289.18h134.691v-289.18c0-5.523-4.477-10-10-10h-114.691c-5.523 0-10 4.477-10 10z" fill="#5392f9"/><path d="m156.763 118.607h-24c5.523 0 10 4.477 10 10v289.18h24v-289.18c0-5.523-4.477-10-10-10z" fill="#4071f7"/><ellipse cx="99.417" cy="201.865" fill="#ddebfd" rx="19.964" ry="19.964" transform="matrix(.383 -.924 .924 .383 -125.128 216.464)"/><path d="m291.464 360.292h-28.855c-2.749 0-5.205 1.718-6.148 4.3l-19.429 53.194h80.01l-19.429-53.194c-.944-2.582-3.4-4.3-6.149-4.3z" fill="#5392f9"/><path d="m297.612 364.592c-.943-2.583-3.399-4.3-6.148-4.3h-24c2.749 0 5.205 1.718 6.148 4.3l19.429 53.194h24z" fill="#4071f7"/></g></g><g><path d="m499.5 410.286h-177.213l-11.46-31.376h48.213c3.714 0 7.261-1.146 10.255-3.313l48.064-34.757h25.707c9.649 0 17.5-7.851 17.5-17.5v-15.837h19.363c9.649 0 17.5-7.851 17.5-17.5v-31.265c0-9.649-7.851-17.5-17.5-17.5h-19.363v-15.838c0-9.649-7.851-17.5-17.5-17.5h-25.707l-48.064-34.758c-2.996-2.167-6.542-3.312-10.255-3.312h-47.44v-29.883h8.837c6.801 0 13.038-3.99 15.889-10.165l9.431-20.431h10.027c4.143 0 7.5-3.357 7.5-7.5s-3.357-7.5-7.5-7.5h-10.028l-9.43-20.43c-2.851-6.175-9.088-10.165-15.889-10.165h-24.869v-9.216c0-4.143-3.357-7.5-7.5-7.5s-7.5 3.357-7.5 7.5v9.216h-24.868c-6.802 0-13.039 3.99-15.89 10.165l-9.43 20.43h-10.028c-4.143 0-7.5 3.357-7.5 7.5s3.357 7.5 7.5 7.5h10.027l9.431 20.431c2.851 6.175 9.088 10.165 15.89 10.165h8.841v29.883h-90.277v-41.224c0-9.649-7.851-17.5-17.5-17.5h-39.846c-4.143 0-7.5 3.357-7.5 7.5s3.357 7.5 7.5 7.5h39.846c1.379 0 2.5 1.121 2.5 2.5v281.68h-119.693v-281.68c0-1.379 1.121-2.5 2.5-2.5h39.846c4.143 0 7.5-3.357 7.5-7.5s-3.357-7.5-7.5-7.5h-39.846c-9.649 0-17.5 7.851-17.5 17.5v281.68h-12.071c-6.893 0-12.5 5.607-12.5 12.5v29.673c0 6.893 5.607 12.5 12.5 12.5h349.417c4.143 0 7.5-3.357 7.5-7.5s-3.357-7.5-7.5-7.5h-346.917v-24.673h482v24.673h-100.083c-4.143 0-7.5 3.357-7.5 7.5s3.357 7.5 7.5 7.5h102.583c6.893 0 12.5-5.607 12.5-12.5v-29.673c0-6.892-5.607-12.5-12.5-12.5zm-236.224-42.494h27.521l15.521 42.494h-58.562zm216.653-111.554c1.379 0 2.5 1.121 2.5 2.5v31.265c0 1.379-1.121 2.5-2.5 2.5h-19.363v-36.265zm-34.364-30.838v97.939c0 1.379-1.121 2.5-2.5 2.5h-20.634v-102.939h20.634c1.379 0 2.5 1.121 2.5 2.5zm-192.136-145.191c.407-.882 1.299-1.452 2.271-1.452h64.737c.972 0 1.862.57 2.27 1.452l6.528 14.143h-82.334zm0 43.286-6.528-14.144h82.334l-6.528 14.144c-.407.882-1.298 1.452-2.27 1.452h-64.737c-.972 0-1.864-.57-2.271-1.452zm26.111 16.452h17.06v29.883h-17.06zm79.5 44.883c.536 0 1.043.161 1.466.467l46.926 33.936v110.275l-46.929 33.936c-.421.306-.928.467-1.463.467h-53.692l-.691-1.893c-2.017-5.518-7.318-9.226-13.193-9.226h-28.854c-5.877 0-11.18 3.709-13.193 9.227l-.691 1.892h-74.462v-179.081zm-184.777 194.08h68.984l-11.46 31.376h-57.523v-31.376z"/><path d="m256.98 290.771h8.231l-5.913 11.039c-2.695 5.031 1.011 11.047 6.604 11.042 2.677 0 5.267-1.436 6.618-3.96l11.053-20.634c2.991-5.632-1.097-12.487-7.514-12.487h-8.231l5.913-11.039c1.956-3.651.581-8.196-3.07-10.152-3.649-1.953-8.197-.581-10.152 3.07l-11.051 20.63c-2.994 5.631 1.094 12.491 7.512 12.491z"/><path d="m195.072 331.652c3.321 5.753 9.271 9.188 15.913 9.188h111.071c6.643 0 12.591-3.435 15.912-9.187 3.321-5.753 3.321-12.622 0-18.375l-55.535-96.19c-3.321-5.752-9.27-9.187-15.913-9.187-6.642 0-12.591 3.434-15.914 9.186l-55.535 96.191c-3.32 5.753-3.32 12.622.001 18.374zm12.99-10.874 55.535-96.19c.849-1.468 2.195-1.687 2.923-1.687s2.075.219 2.923 1.687l55.535 96.19c1.298 2.25-.304 5.062-2.922 5.062h-111.071c-2.617 0-4.221-2.814-2.923-5.062z"/><path d="m366.732 236.23h4.097c4.143 0 7.5-3.357 7.5-7.5s-3.357-7.5-7.5-7.5h-4.097c-4.143 0-7.5 3.357-7.5 7.5s3.358 7.5 7.5 7.5z"/><path d="m366.732 327.511h4.097c4.143 0 7.5-3.357 7.5-7.5s-3.357-7.5-7.5-7.5h-4.097c-4.143 0-7.5 3.357-7.5 7.5s3.358 7.5 7.5 7.5z"/><path d="m122.333 346.991h-45.831c-4.143 0-7.5 3.357-7.5 7.5s3.357 7.5 7.5 7.5h45.831c4.143 0 7.5-3.357 7.5-7.5s-3.357-7.5-7.5-7.5z"/><path d="m122.333 307.945h-45.831c-4.143 0-7.5 3.357-7.5 7.5s3.357 7.5 7.5 7.5h45.831c4.143 0 7.5-3.357 7.5-7.5s-3.357-7.5-7.5-7.5z"/><path d="m122.333 268.898h-45.831c-4.143 0-7.5 3.357-7.5 7.5s3.357 7.5 7.5 7.5h45.831c4.143 0 7.5-3.357 7.5-7.5s-3.357-7.5-7.5-7.5z"/><path d="m99.417 174.401c-15.144 0-27.464 12.32-27.464 27.464s12.32 27.464 27.464 27.464 27.464-12.32 27.464-27.464-12.32-27.464-27.464-27.464zm0 39.928c-6.873 0-12.464-5.591-12.464-12.464s5.591-12.464 12.464-12.464 12.464 5.591 12.464 12.464-5.591 12.464-12.464 12.464z"/></g></g></svg>