<svg id="Capa_1" enable-background="new 0 0 512 512" height="512" viewBox="0 0 512 512" width="512" xmlns="http://www.w3.org/2000/svg"><g><g><g><path d="m305.5 388.586c-76.426.001-138.525-62.39-138.182-138.815.085-18.935 3.977-36.969 10.955-53.378 2.796-6.574 12.634-4.75 12.925 2.388 1.617 39.665 23.13 46.869 37.639 44.01 16.801-3.306 24.062-17.684 19.332-32.818-16.999-54.385 15.576-74.14 41.908-96.896 18.262-15.784 33.52-33.014 27.173-64.244-2.089-10.276 8.503-18.514 17.899-13.858 34.032 16.861 71.94 63.86 67.4 117.073-1.135 13.324-4.937 27.035-12.116 40.764-33.128 63.284 18.139 84.201 42.051 66.008 4.581-3.485 11.092.04 10.509 5.766-7.009 68.927-65.34 123.999-137.493 124z" fill="#db387e"/><path d="m432.482 258.821c-23.912 18.193-75.179-2.724-42.051-66.008 7.18-13.729 10.981-27.44 12.116-40.764 4.54-53.213-33.368-100.211-67.4-117.073-6.529-3.235-13.631-.242-16.659 5.333 31.229 20.131 62.181 63.366 58.054 111.74-1.135 13.324-4.937 27.035-12.116 40.764-33.128 63.284 13.042 104.188 42.051 88.639 6.464-3.465 11.257.059 10.51 5.766-7.816 59.644-82.036 93.723-157.443 93.499 14.384 5.089 29.85 7.87 45.957 7.87 72.152-.001 130.484-55.073 137.491-123.999.582-5.728-5.929-9.253-10.51-5.767z" fill="#c4237c"/><path d="m347.221 265.109h-18.75c-2.569 0-4.652-2.083-4.652-4.652v-55.011c0-4.661-6.094-6.426-8.584-2.485l-47.595 75.31c-1.957 3.097.268 7.137 3.932 7.137h18.75c2.569 0 4.652 2.083 4.652 4.652v55.011c0 4.661 6.094 6.426 8.584 2.485l47.594-75.31c1.959-3.098-.267-7.137-3.931-7.137z" fill="#ffc269"/><g fill="#ddebfd"><path d="m60.54 117.561h-32.669v-74.351c0-9.021 7.313-16.335 16.335-16.335s16.334 7.314 16.334 16.335z"/><path d="m132.375 117.561h-32.669v-74.351c0-9.021 7.313-16.335 16.335-16.335s16.335 7.313 16.335 16.335v74.351z"/></g><path d="m88.513 202.864h-16.779c-35.475 0-64.234-28.758-64.234-64.234v-43.981c0-4.587 3.719-8.306 8.306-8.306h128.634c4.587 0 8.306 3.719 8.306 8.306v43.981c0 35.475-28.758 64.234-64.233 64.234z" fill="#9cd169"/><path d="m144.44 86.343h-23c4.587 0 8.306 3.719 8.306 8.306v43.981c0 34.432-27.093 62.532-61.123 64.155 1.031.049 2.067.079 3.111.079h16.779c35.475 0 64.234-28.758 64.234-64.234v-43.981c-.001-4.588-3.72-8.306-8.307-8.306z" fill="#68b181"/><path d="m491.001 384.522c-1.686-1.84-2.591-4.264-2.591-6.76v-119.719c0-19.469-15.783-35.252-35.252-35.252s-35.252 15.783-35.252 35.252v119.609c0 2.537-.893 5.016-2.606 6.887-9.205 10.052-14.478 23.76-13.327 38.672 1.988 25.768 23.338 46.259 49.163 47.255 29.227 1.128 53.363-22.322 53.363-51.302.001-13.343-5.123-25.505-13.498-34.642z" fill="#ddebfd"/><path d="m491.001 384.522c-1.687-1.84-2.591-4.264-2.591-6.76v-119.719c0-19.469-15.783-35.252-35.252-35.252-4.028 0-7.894.685-11.5 1.929 13.82 4.769 23.752 17.882 23.752 33.323v119.719c0 2.496.904 4.92 2.591 6.76 8.375 9.138 13.499 21.299 13.499 34.641 0 24.355-17.049 44.797-39.837 50.035 3.068.71 6.235 1.142 9.473 1.267 29.227 1.128 53.364-22.322 53.364-51.302 0-13.342-5.124-25.504-13.499-34.641z" fill="#bed9fd"/><circle cx="453.158" cy="419.163" fill="#df646e" r="17.834"/></g></g><g><path d="m322.547 193.773c-5.249-1.521-10.733.563-13.651 5.181l-47.596 75.311c-5.105 8.079.714 18.643 10.273 18.643h15.901v52.163c0 5.462 3.525 10.153 8.772 11.672 1.144.331 2.299.491 3.436.491 4.081 0 7.934-2.06 10.216-5.671l47.595-75.31c5.108-8.08-.712-18.645-10.271-18.645h-15.902v-52.163c-.001-5.462-3.526-10.153-8.773-11.672zm19.505 78.835-39.577 62.624v-45.172c0-6.701-5.451-12.152-12.151-12.152h-13.581l39.577-62.624v45.173c0 6.7 5.451 12.151 12.152 12.151z"/><path d="m98.687 143.106c0-4.142-3.358-7.5-7.5-7.5h-22.128c-4.142 0-7.5 3.358-7.5 7.5s3.358 7.5 7.5 7.5h22.128c4.142 0 7.5-3.357 7.5-7.5z"/><path d="m496.529 379.454c-.394-.43-.619-1.046-.619-1.692v-25.384c0-4.142-3.357-7.5-7.5-7.5s-7.5 3.358-7.5 7.5v25.384c0 4.418 1.62 8.618 4.562 11.827 7.434 8.111 11.528 18.614 11.528 29.574 0 12.01-4.783 23.226-13.468 31.583-8.678 8.348-20.091 12.696-32.106 12.226-21.856-.844-40.294-18.562-41.975-40.338-.945-12.253 3.097-23.983 11.381-33.03 2.95-3.221 4.574-7.466 4.574-11.952v-119.609c0-15.302 12.449-27.752 27.752-27.752s27.752 12.45 27.752 27.752v59.335c0 4.142 3.357 7.5 7.5 7.5s7.5-3.358 7.5-7.5v-59.335c0-23.573-19.179-42.752-42.752-42.752-23.389 0-42.442 18.883-42.738 42.203-7.425-.687-14.257-4.367-18.403-10.229-8.017-11.334-6.221-29.438 5.058-50.979 21.034-40.215 16.215-83.585-7.45-120.453-13.298-20.718-31.939-38.058-51.144-47.572-6.913-3.427-15.006-2.634-21.123 2.07-6.147 4.729-9.005 12.39-7.458 19.994 5.701 28.041-8.442 43.002-24.723 57.08-2.439 2.107-8.883 7.477-8.883 7.477-3.181 2.653-3.607 7.383-.954 10.563s7.383 3.608 10.563.954c0 0 6.539-5.45 9.081-7.646 18.161-15.704 36.923-35.468 29.614-71.418-.58-2.848 1.139-4.525 1.904-5.114.75-.577 2.772-1.782 5.316-.52 16.842 8.344 33.31 23.738 45.182 42.235 20.757 32.338 25.299 69.994 6.783 105.396-8.12 15.51-19.44 44.785-4.015 66.596 6.938 9.809 18.393 15.86 30.636 16.612v55.746c-46.595 62.627-139.716 72.275-197.458 14.277-24.743-24.853-38.283-57.795-38.128-92.76.069-16.361 3.119-32.273 9.072-47.352 1.331 19.023 7.254 32.802 17.631 40.986 7.982 6.295 18.47 8.742 28.763 6.713 20.776-4.081 31.232-22.608 25.043-42.417-7.532-24.09-5.445-42.036 6.765-58.189 2.498-3.304 1.844-8.008-1.46-10.505-3.306-2.5-8.009-1.844-10.506 1.46-15.22 20.135-18.116 42.921-9.116 71.709 6.503 20.817-17.401 29.545-30.2 19.452-7.279-5.741-11.47-17.216-12.118-33.184-.271-6.687-5.074-12.202-11.679-13.411-6.699-1.227-12.985 2.144-15.648 8.394-7.58 17.844-11.465 36.78-11.547 56.279-.173 38.982 14.919 75.706 42.498 103.408 26.721 26.839 61.964 41.992 99.583 42.901v56.653c0 13.741-11.184 24.92-24.931 24.92h-243.718c-9.346 0-16.95-7.599-16.95-16.94 0-9.346 7.604-16.95 16.95-16.95h142.1c17.617 0 31.95-14.333 31.95-31.95s-14.333-31.95-31.95-31.95h-75.23c-6.893 0-12.5-5.607-12.5-12.5v-156.966h.893c39.554 0 71.733-32.18 71.733-71.734v-43.981c0-8.715-7.091-15.806-15.806-15.806h-4.56v-35.633c0-13.14-10.694-23.83-23.84-23.83-13.14 0-23.83 10.69-23.83 23.83v35.633h-24.17v-35.633c0-13.14-10.69-23.83-23.83-23.83-13.146 0-23.84 10.69-23.84 23.83v35.633h-4.564c-8.715 0-15.806 7.091-15.806 15.806v43.981c0 39.554 32.18 71.734 71.733 71.734h.887v156.966c0 15.164 12.336 27.5 27.5 27.5h75.23c9.346 0 16.95 7.604 16.95 16.95s-7.604 16.95-16.95 16.95h-142.1c-17.617 0-31.95 14.333-31.95 31.95 0 17.612 14.333 31.94 31.95 31.94h243.72c22.018 0 39.931-17.908 39.931-39.92v-57.076c35.523-2.811 68.851-18.647 93.506-44.192-.228 27.098.509 26.79-.637 28.042-11.117 12.14-16.542 27.878-15.273 44.313 3.799 49.24 63.639 72.212 99.436 37.768 11.65-11.211 18.067-26.266 18.067-42.392 0-14.723-5.494-28.825-15.471-39.709zm-389.319-336.244c0-4.869 3.961-8.83 8.83-8.83 4.875 0 8.84 3.961 8.84 8.83v35.633h-17.67zm-71.84 0c0-4.869 3.965-8.83 8.84-8.83 4.869 0 8.83 3.961 8.83 8.83v35.633h-17.67zm-20.37 95.42v-43.981c0-.444.362-.806.806-.806h128.634c.444 0 .806.362.806.806v43.981c0 31.283-25.451 56.734-56.733 56.734-1.258 0 3.555 0-16.779 0-31.283 0-56.734-25.451-56.734-56.734z"/><path d="m453.158 249.622c-4.143 0-7.5 3.358-7.5 7.5v137.84c-10.319 3.205-17.834 12.842-17.834 24.201 0 13.969 11.365 25.334 25.334 25.334s25.334-11.365 25.334-25.334c0-11.359-7.515-20.996-17.834-24.201v-137.84c0-4.142-3.357-7.5-7.5-7.5zm0 179.875c-5.698 0-10.334-4.636-10.334-10.334s4.636-10.334 10.334-10.334 10.334 4.636 10.334 10.334-4.636 10.334-10.334 10.334z"/></g></g></svg>