<svg id="Capa_1" enable-background="new 0 0 512.007 512.007" height="512" viewBox="0 0 512.007 512.007" width="512" xmlns="http://www.w3.org/2000/svg"><g><g><g><path d="m402.857 255.199c-1.534-1.63-2.227-3.862-1.948-6.083.882-7.034 1.343-14.199 1.343-21.472s-.461-14.438-1.343-21.472c-.279-2.22.415-4.453 1.948-6.083l35.618-37.862c3.301-3.509 3.912-8.768 1.503-12.94l-36.621-63.43c-2.409-4.173-7.269-6.273-11.958-5.169l-50.592 11.914c-2.192.516-4.486-.005-6.279-1.368-11.343-8.621-23.792-15.862-37.101-21.467-2.106-.887-3.728-2.639-4.386-4.827l-14.947-49.668c-1.388-4.614-5.637-7.772-10.455-7.772h-73.243c-4.818 0-9.067 3.158-10.455 7.772l-14.947 49.668c-.658 2.188-2.28 3.94-4.386 4.827-13.308 5.605-25.757 12.846-37.101 21.467-1.793 1.363-4.087 1.884-6.279 1.368l-50.592-11.913c-4.69-1.104-9.549.996-11.958 5.169l-36.621 63.43c-2.409 4.173-1.798 9.431 1.503 12.941l35.619 37.862c1.534 1.63 2.227 3.862 1.948 6.083-.882 7.034-1.343 14.199-1.343 21.472s.461 14.438 1.343 21.472c.279 2.22-.415 4.453-1.948 6.083l-35.619 37.859c-3.301 3.51-3.912 8.768-1.503 12.94l36.621 63.43c2.409 4.172 7.268 6.273 11.958 5.168l50.592-11.914c2.192-.516 4.486.005 6.279 1.368 11.343 8.622 23.792 15.862 37.101 21.467 2.106.887 3.728 2.638 4.386 4.827l14.947 49.668c1.388 4.614 5.637 7.772 10.455 7.772h73.243c4.818 0 9.067-3.158 10.455-7.772l14.947-49.668c.658-2.188 2.28-3.94 4.386-4.827 13.308-5.605 25.757-12.846 37.101-21.467 1.793-1.363 4.087-1.884 6.279-1.368l50.592 11.914c4.69 1.105 9.549-.996 11.958-5.168l36.621-63.43c2.409-4.172 1.798-9.431-1.503-12.94zm-171.84 91.812c-65.925 0-119.367-53.442-119.367-119.367 0-65.924 53.442-119.367 119.367-119.367s119.367 53.442 119.367 119.367-53.442 119.367-119.367 119.367z" fill="#bed9fd"/><g><path d="m248.094 15.272 14.947 49.668c.658 2.188 2.28 3.94 4.386 4.828 13.308 5.605 29.688 18.367 41.032 26.988 1.793 1.363 4.087 1.884 6.279 1.368l23.12-5.445c-1.194-.206-2.339-.691-3.33-1.444-11.343-8.621-23.792-15.862-37.101-21.467-2.106-.887-3.728-2.639-4.386-4.827l-14.947-49.668c-1.388-4.614-5.637-7.772-10.455-7.772h-30c4.818-.001 9.066 3.157 10.455 7.771z" fill="#9ec8fc"/><path d="m402.857 255.199c-1.533-1.63-2.227-3.863-1.948-6.083.882-7.034 1.343-14.199 1.343-21.472s-.461-14.438-1.343-21.472c-.279-2.22.415-4.453 1.948-6.083l35.618-37.862c3.301-3.509 3.912-8.768 1.503-12.94l-36.621-63.43c-2.409-4.173-7.269-6.273-11.958-5.169l-22.459 5.289c3.419.349 6.56 2.302 8.349 5.4l32.69 57.909c2.409 4.173 1.798 9.431-1.503 12.94l-35.618 37.862c-1.534 1.63-2.227 3.863-1.948 6.083.882 7.034 1.343 14.199 1.343 21.472s-.461 14.438-1.343 21.472c-.279 2.22.415 4.453 1.948 6.083l35.618 37.861c3.301 3.509 3.912 8.768 1.503 12.94 0 0-36.952 63.972-37.132 64.229l18.553 4.369c4.69 1.104 9.549-.996 11.958-5.168l36.621-63.43c2.409-4.172 1.798-9.431-1.503-12.94z" fill="#9ec8fc"/><path d="m310.806 362.685c-2.192-.516-4.486.005-6.279 1.368-11.343 8.622-23.792 15.862-37.101 21.467-2.106.887-3.728 2.639-4.386 4.827l-14.947 49.668c-1.388 4.614-5.637 7.772-10.455 7.772h30c4.818 0 9.067-3.158 10.455-7.772l14.947-49.668c.658-2.188 2.28-3.94 4.386-4.827 11.63-4.898 22.603-11.046 32.756-18.272z" fill="#94d8e6"/></g><path d="m275.105 218.21h-22.271c-1.979 0-3.583-1.604-3.583-3.583v-51.445c0-5.284-6.57-7.72-10.015-3.713l-57.323 66.684c-3.686 4.288-.639 10.925 5.015 10.925h22.272c1.979 0 3.583 1.604 3.583 3.583v51.445c0 5.284 6.57 7.72 10.015 3.713l57.322-66.684c3.687-4.288.64-10.925-5.015-10.925z" fill="#ffc269"/><g><path d="m220.953 444.578c-32.359-84.572 113.672-206.325 266.655-86.615 6.081 4.758 4.616 14.242-2.553 17.11-47.573 19.032-88.11 79.102-130.074 110.393-47.891 35.71-110.474 20.671-134.028-40.888z" fill="#9cd169"/><path d="m487.608 357.963c-4.71-3.686-9.414-7.138-14.106-10.375 2.243 5.159-.319 11.619-6.272 13.489-48.882 15.359-93.871 72.171-138.094 100.18-35.29 22.351-75.838 19.382-103.475-6.006 26.385 52.515 84.332 63.761 129.32 30.215 41.964-31.291 82.502-91.361 130.074-110.393 7.169-2.868 8.634-12.351 2.553-17.11z" fill="#68b181"/></g></g></g><g><path d="m186.941 244.585h18.354v47.53c0 5.577 3.379 10.435 8.609 12.373 5.23 1.937 10.959.458 14.594-3.772l57.324-66.685c7.872-9.159 1.357-23.315-10.703-23.315h-18.354v-47.53c0-5.577-3.379-10.435-8.609-12.373-5.227-1.936-10.957-.46-14.594 3.772l-57.324 66.685c-7.873 9.158-1.357 23.315 10.703 23.315zm54.823-76.532v46.579c0 6.111 4.972 11.083 11.083 11.083h20.34l-52.892 61.531v-46.579c0-6.111-4.972-11.083-11.083-11.083h-20.34z"/><path d="m492.25 352.066c-16.744-13.102-34.083-23.821-51.694-32.033l5.929-10.272c4.098-7.089 3.081-15.862-2.531-21.834l-35.593-37.859c.936-7.396 1.41-14.939 1.41-22.422 0-7.476-.475-15.016-1.439-22.411l35.624-37.863c5.61-5.969 6.626-14.742 2.53-21.828l-36.618-63.427c-4.034-6.995-12.327-10.584-20.168-8.725l-50.62 11.882c-11.93-9.078-24.962-16.621-38.718-22.409-.082-.035-.123-.084-.123-.084l-14.952-49.677c-2.364-7.838-9.453-13.104-17.64-13.104h-73.242c-8.183 0-15.268 5.267-17.632 13.109l-14.949 49.665c-.006.012-.043.052-.121.085-13.76 5.794-26.79 13.335-38.751 22.442l-50.582-11.906c-7.981-1.895-16.091 1.616-20.183 8.718l-36.619 63.428c-4.102 7.096-3.078 15.872 2.54 21.833l35.581 37.872c-1.828 14.636-1.907 29.779.03 44.822l-35.605 37.855c-5.624 5.966-6.648 14.743-2.548 21.836l36.622 63.433c4.094 7.085 12.197 10.586 20.173 8.719l50.617-11.878c11.968 9.09 24.998 16.629 38.721 22.408.092.038.124.082.124.082l14.952 49.673c2.362 7.84 9.449 13.107 17.631 13.107h20.305c-7.393 10.063-13.644 20.673-18.646 31.762-2.25 4.989 1.437 10.586 6.832 10.586 2.858 0 5.59-1.644 6.842-4.418 3.961-8.78 8.788-17.242 14.415-25.348 12.657 20.294 30.665 34.466 52.223 40.719 28.723 8.333 58.955.896 83.105-17.111 14.91-11.117 29.366-25.503 42.895-39.284 2.901-2.956 2.858-7.704-.099-10.607-2.955-2.899-7.703-2.858-10.607.099-13.118 13.364-27.102 27.288-41.156 37.767-21.489 16.024-46.989 21.395-69.959 14.73-19.565-5.675-35.728-19.388-46.545-39.182 25.267-30.02 62.322-54.238 107.992-70.045 46.638-16.142 98.865-21.565 135.058-14.587-22.4 10.363-42.655 28.582-59.713 45.324-2.956 2.901-3 7.65-.099 10.607 2.903 2.957 7.652 2.999 10.607.099 17.315-16.995 37.984-35.555 60.007-44.364 5.925-2.371 9.998-7.542 10.896-13.833.887-6.231-1.546-12.267-6.509-16.151zm-301.114 85.803-14.952-49.674c-1.301-4.313-4.455-7.803-8.66-9.577-12.572-5.293-24.507-12.201-35.475-20.531-3.608-2.74-8.178-3.719-12.535-2.688l-50.585 11.909c-1.462.347-3.005-.323-3.752-1.618l-36.623-63.434c-.759-1.313-.568-2.938.48-4.049l35.6-37.848c3.069-3.249 4.506-7.685 3.941-12.161-1.707-13.657-1.71-27.404-.002-41.082.567-4.486-.869-8.922-3.927-12.159l-35.618-37.867c-1.042-1.105-1.232-2.731-.472-4.046l36.624-63.436c.758-1.315 2.258-1.966 3.743-1.614l50.583 11.908c4.365 1.033 8.937.054 12.547-2.689 10.937-8.316 22.871-15.223 35.474-20.53 4.201-1.772 7.357-5.261 8.658-9.579l14.95-49.668c.439-1.456 1.753-2.435 3.27-2.435h73.242c1.498 0 2.847 1.002 3.278 2.431l14.951 49.673c1.297 4.309 4.445 7.798 8.653 9.58 12.609 5.306 24.542 12.211 35.489 20.543 3.617 2.732 8.189 3.703 12.519 2.676l50.615-11.912c1.445-.343 2.976.322 3.724 1.622l36.623 63.434c.748 1.294.554 2.96-.469 4.048l-35.627 37.866c-3.038 3.236-4.47 7.654-3.923 12.156.856 6.773 1.291 13.68 1.291 20.529 0 6.856-.435 13.767-1.296 20.577-.542 4.465.89 8.882 3.933 12.124l35.619 37.857c1.025 1.091 1.22 2.757.47 4.055l-6.838 11.846c-21.433-8.325-43.139-12.945-64.551-13.615-9.494-.295-18.917.19-28.161 1.419 15.567-21.449 23.953-47.151 23.953-74.264 0-69.952-56.916-126.863-126.874-126.863-22.436 0-44.479 5.93-63.746 17.149-3.579 2.085-4.791 6.676-2.707 10.256 2.085 3.58 6.674 4.79 10.256 2.707 16.977-9.886 36.409-15.112 56.197-15.112 61.687 0 111.873 50.181 111.873 111.862 0 30.028-11.673 58.087-32.896 79.226-22.629 6.436-42.309 17.189-58.354 30.738-6.749 1.262-13.676 1.91-20.623 1.91-61.681 0-111.863-50.186-111.863-111.873 0-28.371 10.637-55.426 29.951-76.183 2.822-3.032 2.651-7.779-.381-10.6-3.034-2.823-7.78-2.649-10.6.381-21.907 23.542-33.971 54.226-33.971 86.402 0 71.251 59.029 128.939 130.663 126.811-21.993 26.249-30.847 57.767-23.141 85.845h-17.28c-1.516 0-2.829-.979-3.268-2.433zm145.958-67.075c-45.498 15.747-83.026 39.575-109.815 69.155-25.636-74.638 101.274-183.184 242.245-85.976-37.908-4.869-87.041 1.111-132.43 16.821z"/></g></g></svg>