<svg id="Capa_1" enable-background="new 0 0 512 512" height="512" viewBox="0 0 512 512" width="512" xmlns="http://www.w3.org/2000/svg"><g><g><g><path d="m96.985 61.539h318.029v281.519h-318.029z" fill="#ddebfd"/><path d="m389.015 61.539h26v281.519h-26z" fill="#bed9fd"/><path d="m292.508 194.487h-18.442c-1.639 0-2.967-1.328-2.967-2.967v-42.6c0-4.375-5.441-6.392-8.293-3.074l-47.467 55.219c-3.052 3.551-.53 9.047 4.153 9.047h18.442c1.639 0 2.967 1.328 2.967 2.967v42.6c0 4.375 5.441 6.392 8.293 3.074l47.467-55.219c3.053-3.552.53-9.047-4.153-9.047z" fill="#ffc269"/><path d="m78.11 56.539v-22.458c0-2.761 2.239-5 5-5h345.78c2.761 0 5 2.239 5 5v22.458c0 2.761-2.239 5-5 5h-345.78c-2.761 0-5-2.238-5-5z" fill="#9cd169"/><path d="m78.11 370.516v-22.458c0-2.761 2.239-5 5-5h345.78c2.761 0 5 2.239 5 5v22.458c0 2.761-2.239 5-5 5h-345.78c-2.761 0-5-2.239-5-5z" fill="#9cd169"/><g fill="#68b181"><path d="m428.89 29.081h-26c2.761 0 5 2.239 5 5v22.458c0 2.762-2.239 5-5 5h26c2.761 0 5-2.238 5-5v-22.458c0-2.761-2.238-5-5-5z"/><path d="m428.89 343.058h-26c2.761 0 5 2.239 5 5v22.458c0 2.762-2.239 5-5 5h26c2.761 0 5-2.238 5-5v-22.458c0-2.761-2.238-5-5-5z"/></g></g></g><g><path d="m341.761 214.593c-2.353-3.409-7.024-4.266-10.433-1.911-3.409 2.353-4.265 7.024-1.912 10.433l9.778 14.164c2.88 4.172 8.533 6.023 13.51 3.873l15.797-6.83c3.802-1.644 5.551-6.059 3.908-9.86s-6.058-5.554-9.861-3.907l-4.117 1.78c1.277-6.566 1.943-13.262 1.943-20.035 0-57.553-46.822-104.375-104.375-104.375-11.969 0-23.704 2.008-34.876 5.969-3.904 1.385-5.947 5.671-4.563 9.575s5.671 5.943 9.575 4.563c9.56-3.39 19.607-5.107 29.865-5.107 49.282 0 89.375 40.094 89.375 89.375 0 5.255-.46 10.455-1.356 15.564z"/><path d="m256 306.674c11.971 0 23.705-2.009 34.877-5.971 3.904-1.384 5.947-5.671 4.562-9.575-1.385-3.903-5.673-5.946-9.575-4.562-9.559 3.389-19.606 5.107-29.864 5.107-49.282 0-89.375-40.094-89.375-89.375 0-5.255.46-10.455 1.356-15.565l2.258 3.271c2.341 3.392 7.009 4.276 10.433 1.911 3.409-2.353 4.265-7.024 1.912-10.433l-9.78-14.166c-2.893-4.186-8.533-6.023-13.508-3.87l-15.797 6.829c-3.802 1.644-5.552 6.058-3.908 9.86 1.644 3.801 6.056 5.554 9.86 3.907l4.117-1.78c-1.277 6.567-1.943 13.262-1.943 20.036 0 57.554 46.822 104.376 104.375 104.376z"/><path d="m304.301 194.549c-2.142-4.665-6.661-7.562-11.793-7.562h-13.909v-38.067c0-5.164-3.128-9.66-7.97-11.454-4.842-1.796-10.144-.426-13.51 3.491l-47.468 55.219c-3.346 3.894-4.093 9.209-1.952 13.874 2.142 4.664 6.661 7.562 11.793 7.562h13.909v38.067c0 11.315 14.09 16.56 21.48 7.964l47.467-55.22c3.346-3.893 4.095-9.209 1.953-13.874zm-55.9 53.621v-35.092c0-5.771-4.695-10.468-10.467-10.468h-14.034l39.7-46.183v35.092c0 5.771 4.695 10.467 10.467 10.467h14.035z"/><path d="m415.015 277.608c4.142 0 7.5-3.357 7.5-7.5v-201.069h6.375c6.893 0 12.5-5.607 12.5-12.5v-22.458c0-6.893-5.607-12.5-12.5-12.5h-165.39v-14.081c0-4.143-3.358-7.5-7.5-7.5s-7.5 3.357-7.5 7.5v14.081h-39.725c-4.142 0-7.5 3.357-7.5 7.5s3.358 7.5 7.5 7.5h217.615v17.458h-340.78v-17.458h88.166c4.142 0 7.5-3.357 7.5-7.5s-3.358-7.5-7.5-7.5h-90.666c-6.893 0-12.5 5.607-12.5 12.5v22.458c0 6.893 5.607 12.5 12.5 12.5h6.375v266.519h-6.375c-6.893 0-12.5 5.607-12.5 12.5v22.458c0 6.893 5.607 12.5 12.5 12.5h165.39v58.489l-54.95 57.829c-2.853 3.003-2.732 7.75.271 10.603 3.001 2.854 7.749 2.733 10.603-.271l44.076-46.385v41.219c0 4.143 3.358 7.5 7.5 7.5s7.5-3.357 7.5-7.5v-41.219l44.076 46.385c1.475 1.552 3.454 2.334 5.438 2.334 1.855 0 3.714-.685 5.165-2.063 3.003-2.853 3.124-7.6.271-10.603l-54.95-57.829v-58.489h165.39c6.893 0 12.5-5.607 12.5-12.5v-22.458c0-6.893-5.607-12.5-12.5-12.5h-6.375v-30.449c0-4.143-3.358-7.5-7.5-7.5s-7.5 3.357-7.5 7.5v30.449h-303.03v-266.519h303.029v201.069c.001 4.143 3.359 7.5 7.501 7.5zm11.375 90.408h-340.78v-17.458h340.78z"/></g></g></svg>