<svg id="Capa_1" enable-background="new 0 0 512 512" height="512" viewBox="0 0 512 512" width="512" xmlns="http://www.w3.org/2000/svg"><g><g><g><path d="m108.069 296.574h224.792v165.212h-224.792z" fill="#6cbff8"/><circle cx="127.586" cy="447.441" fill="#407194" r="57.059"/><path d="m127.586 390.383c-4.149 0-8.19.454-12.088 1.295 25.704 5.547 44.971 28.401 44.971 55.763 0 27.363-19.266 50.217-44.971 55.763 3.898.841 7.939 1.295 12.088 1.295 31.513 0 57.059-25.546 57.059-57.059-.001-31.511-25.547-57.057-57.059-57.057z" fill="#365f7e"/><path d="m73.961 122.191v221.084c0 7.178 5.819 12.998 12.998 12.998h45.363c47.444 0 85.905 38.461 85.905 85.905v35.081c0 7.178 5.819 12.998 12.998 12.998h135.364c5.679 0 10.282-4.604 10.282-10.282v-357.784z" fill="#ddebfd"/><path d="m350.783 122.191v357.783c0 5.679-4.604 10.282-10.282 10.282h26.088c5.679 0 10.282-4.603 10.282-10.282v-357.783z" fill="#bed9fd"/><path d="m90.921 83.723 34.411-35.617c4.294-4.444 10.209-6.954 16.389-6.954h165.526c6.18 0 12.095 2.51 16.389 6.954l34.411 35.617z" fill="#9cd169"/><path d="m323.636 48.106c-4.294-4.445-10.209-6.955-16.389-6.955h-27.091c6.18 0 12.095 2.51 16.389 6.955l34.411 35.617h27.091z" fill="#68b181"/><path d="m160.899 182.407v114.704c0 9.411 7.629 17.039 17.039 17.039 9.411 0 17.039-7.629 17.039-17.039v-114.704c0-9.411-7.629-17.039-17.039-17.039s-17.039 7.629-17.039 17.039z" fill="#9ec8fc"/><path d="m251.499 182.407v114.704c0 9.411 7.629 17.039 17.039 17.039s17.039-7.629 17.039-17.039v-114.704c0-9.411-7.629-17.039-17.039-17.039s-17.039 7.629-17.039 17.039z" fill="#9ec8fc"/><path d="m29.571 191.975h44.39v-31.262h-44.39c-2.839 0-5.141 2.302-5.141 5.141v20.979c0 2.84 2.302 5.142 5.141 5.142z" fill="#5392f9"/><path d="m421.262 191.975h-44.39v-31.262h44.39c2.839 0 5.141 2.302 5.141 5.141v20.979c0 2.84-2.302 5.142-5.141 5.142z" fill="#5392f9"/><g><path d="m291.663 406.98c-23.439-61.259 82.337-149.449 193.148-62.739 4.405 3.447 3.344 10.316-1.849 12.393-34.459 13.786-63.821 57.296-94.217 79.961-34.69 25.867-80.021 14.973-97.082-29.615z" fill="#9cd169"/><path d="m484.811 344.241c-3.412-2.67-6.819-5.17-10.217-7.515 1.624 3.737-.231 8.416-4.543 9.771-35.407 11.125-67.994 52.276-100.026 72.563-25.562 16.19-54.932 14.039-74.95-4.35 19.112 38.038 61.085 46.184 93.671 21.886 30.396-22.665 59.759-66.176 94.217-79.961 5.191-2.078 6.252-8.947 1.848-12.394z" fill="#68b181"/></g><path d="m44.82 91.949v22.016c0 4.543 3.683 8.226 8.226 8.226h343.685c4.543 0 8.226-3.683 8.226-8.226v-22.016c0-4.543-3.683-8.226-8.226-8.226h-343.685c-4.543 0-8.226 3.683-8.226 8.226z" fill="#5392f9"/><path d="m396.731 83.723h-27.091c4.543 0 8.226 3.683 8.226 8.226v22.016c0 4.543-3.683 8.226-8.226 8.226h27.091c4.543 0 8.226-3.683 8.226-8.226v-22.016c0-4.543-3.683-8.226-8.226-8.226z" fill="#4071f7"/></g></g><g><path d="m202.478 297.111v-114.704c0-13.531-11.008-24.539-24.54-24.539-13.531 0-24.539 11.008-24.539 24.539v114.704c0 13.531 11.008 24.54 24.539 24.54 13.532 0 24.54-11.008 24.54-24.54zm-34.079 0v-114.704c0-5.26 4.279-9.539 9.539-9.539s9.54 4.279 9.54 9.539v114.704c0 5.261-4.279 9.54-9.54 9.54-5.259 0-9.539-4.279-9.539-9.54z"/><path d="m293.078 297.111v-114.704c0-13.531-11.008-24.539-24.539-24.539s-24.54 11.008-24.54 24.539v114.704c0 13.531 11.008 24.54 24.539 24.54 13.532 0 24.54-11.008 24.54-24.54zm-34.078 0v-114.704c0-5.26 4.279-9.539 9.54-9.539 5.26 0 9.539 4.279 9.539 9.539v114.704c0 5.261-4.279 9.54-9.54 9.54-5.26 0-9.539-4.279-9.539-9.54z"/><path d="m489.433 338.335c-30.23-23.655-66.72-39.4-105.064-37.723v-101.136h36.893c6.97 0 12.641-5.671 12.641-12.642v-20.979c0-6.97-5.671-12.641-12.641-12.641h-36.893v-23.524h12.362c8.671 0 15.726-7.055 15.726-15.726v-22.015c0-8.672-7.055-15.727-15.726-15.727h-35.502l-32.2-33.327c-5.676-5.875-13.615-9.244-21.782-9.244h-35.608v-16.151c0-9.649-7.851-17.5-17.5-17.5h-57.44c-9.649 0-17.5 7.851-17.5 17.5v16.151h-37.478c-8.167 0-16.106 3.369-21.783 9.244l-32.2 33.327h-34.692c-8.671 0-15.726 7.055-15.726 15.727v22.016c0 8.671 7.055 15.726 15.726 15.726h13.416v23.523h-36.891c-6.97 0-12.641 5.671-12.641 12.641v20.979c0 6.971 5.671 12.642 12.641 12.642h36.891v79.539c0 4.143 3.358 7.5 7.5 7.5s7.5-3.357 7.5-7.5v-149.325h287.907v172.48c-18.728 3.084-36.358 10.342-51.181 21.29-28.891 21.337-46.336 56.133-32.257 89.335-5.491 7.423-10.283 15.441-14.188 24.098-2.251 4.989 1.437 10.586 6.832 10.586 2.858 0 5.589-1.644 6.841-4.418 2.442-5.413 5.309-10.558 8.523-15.457 17.633 25.954 47.09 35.864 75.43 27.207v25.158c0 1.538-1.247 2.79-2.78 2.79h-135.36c-3.033 0-5.5-2.468-5.5-5.5v-35.08c0-51.507-41.904-93.41-93.41-93.41h-45.36c-3.033 0-5.5-2.467-5.5-5.5v-29.14c0-4.143-3.358-7.5-7.5-7.5s-7.5 3.357-7.5 7.5v29.14c0 11.304 9.196 20.5 20.5 20.5h13.61v25.061c-22.138 10.246-37.541 32.657-37.541 58.611 0 35.598 28.961 64.559 64.559 64.559 27.932 0 51.77-17.833 60.745-42.71h22.397v7.97c0 11.304 9.196 20.5 20.5 20.5h135.36c9.804 0 17.78-7.98 17.78-17.79v-31.613c3.025-1.699 5.988-3.608 8.859-5.749 9.493-7.079 18.578-15.856 26.212-23.509 2.925-2.932 2.92-7.681-.012-10.606-2.934-2.927-7.681-2.921-10.607.013-7.252 7.269-15.841 15.576-24.56 22.077-27.708 20.66-62.833 15.225-80.632-15.804 41.695-48.319 120.244-66.833 166.969-60.544-13.779 7.572-26.086 18.621-36.613 28.856-2.97 2.888-3.036 7.636-.148 10.605s7.637 3.036 10.605.148c11.164-10.854 25.947-24.103 41.305-30.246 10.589-4.236 12.628-18.265 3.686-25.263zm-457.503-153.859v-16.262h34.532v16.262zm162.269-166.976c0-1.379 1.122-2.5 2.5-2.5h57.44c1.378 0 2.5 1.121 2.5 2.5v16.151h-62.44zm-63.473 35.818c2.866-2.966 6.874-4.667 10.996-4.667h165.526c4.122 0 8.13 1.701 10.995 4.666l22.13 22.905h-231.777zm-78.406 60.647v-22.016c0-.4.326-.727.726-.727h343.685c.4 0 .726.326.726.727v22.016c0 .4-.326.726-.726.726h-343.685c-.4-.001-.726-.326-.726-.726zm366.583 54.249v16.262h-34.534v-16.262zm-291.317 328.786c-27.327 0-49.559-22.231-49.559-49.559s22.232-49.559 49.559-49.559 49.559 22.231 49.559 49.559-22.232 49.559-49.559 49.559zm64.192-42.71c.239-2.251.367-4.535.367-6.849 0-35.598-28.961-64.559-64.559-64.559-4.108 0-8.121.402-12.018 1.139v-20.251h16.75c43.235 0 78.41 35.175 78.41 78.41v12.11zm105.377-54.85c-5.294-21.331 6.239-46.407 29.944-63.914 34.17-25.237 85.117-29.281 136.66 3.062-48.953-3.296-122.564 14.459-166.604 60.852z"/></g></g></svg>