<svg id="Capa_1" enable-background="new 0 0 512 512" height="512" viewBox="0 0 512 512" width="512" xmlns="http://www.w3.org/2000/svg"><g><g><g><path d="m326.903 254.896v-59.014h-73.482v59.014c0 2.063-1.206 3.937-3.087 4.784-33.655 15.167-57.108 48.957-57.215 88.242-.144 52.907 42.756 96.566 95.659 97.303 54.229.756 98.427-42.977 98.427-97.034 0-39.397-23.481-73.306-57.209-88.509-1.883-.847-3.093-2.72-3.093-4.786z" fill="#ddebfd"/><path d="m329.996 259.684c-1.883-.849-3.094-2.722-3.094-4.788v-59.014h-27v59.014c0 2.066 1.21 3.939 3.094 4.788 33.728 15.203 57.209 49.111 57.209 88.509 0 49.002-36.319 89.521-83.507 96.106 3.957.555 7.988.87 12.08.927 54.229.756 98.427-42.977 98.427-97.034 0-39.397-23.481-73.305-57.209-88.508z" fill="#bed9fd"/><path d="m193.119 347.923c-.144 52.907 42.756 96.566 95.659 97.303 54.229.756 98.427-42.977 98.427-97.034 0-16.349-4.054-31.746-11.195-45.26h-171.698c-7.102 13.44-11.149 28.743-11.193 44.991z" fill="#6cbff8"/><path d="m349.01 302.933c7.141 13.514 11.195 28.911 11.195 45.26 0 49.002-36.32 89.521-83.507 96.106.015.002 1.837.24 2.737.341.25.027 3.389.314 3.691.336.662.048 2.559.154 2.844.167.907.039 1.817.068 2.73.081.026 0 .052.002.078.002 54.229.756 98.427-42.977 98.427-97.034 0-16.349-4.054-31.746-11.195-45.26z" fill="#5fa7ee"/><path d="m317.159 58.001h-18.518c-1.645 0-2.979-1.334-2.979-2.979v-42.777c0-4.393-5.463-6.419-8.327-3.087l-47.663 55.447c-3.065 3.566-.532 9.084 4.17 9.084h18.518c1.645 0 2.979 1.334 2.979 2.979v42.776c0 4.393 5.463 6.419 8.327 3.087l47.663-55.447c3.065-3.565.532-9.083-4.17-9.083z" fill="#ffc269"/><path d="m149.146 361.059c0 9.928 8.049 17.977 17.977 17.977h246.077c9.928 0 17.977-8.049 17.977-17.977s-8.049-17.977-17.977-17.977h-246.077c-9.928 0-17.977 8.048-17.977 17.977z" fill="#ddebfd"/><path d="m413.2 343.082h-27c9.928 0 17.977 8.048 17.977 17.977 0 9.928-8.049 17.977-17.977 17.977h27c9.928 0 17.977-8.049 17.977-17.977 0-9.929-8.048-17.977-17.977-17.977z" fill="#bed9fd"/><path d="m333.721 160.096h-87.118c-9.882 0-17.893 8.011-17.893 17.893s8.011 17.893 17.893 17.893h87.118c9.882 0 17.893-8.011 17.893-17.893s-8.011-17.893-17.893-17.893z" fill="#bed9fd"/><path d="m333.721 160.096h-27c9.882 0 17.893 8.011 17.893 17.894 0 9.882-8.011 17.893-17.893 17.893h27c9.882 0 17.893-8.011 17.893-17.893 0-9.883-8.011-17.894-17.893-17.894z" fill="#9ec8fc"/><path d="m207.789 477.961c17.688-39.495-48.758-101.472-124.937-48.415-3.028 2.109-2.581 6.673.763 8.232 22.194 10.346 39.941 40.086 59.134 56.132 21.903 18.312 52.165 12.799 65.04-15.949z" fill="#9cd169"/></g></g><g><path d="m243.839 81.195h13.997v38.255c0 5.172 3.133 9.675 7.982 11.472 4.85 1.797 10.16.425 13.532-3.497l47.662-55.445c7.251-8.437 1.249-21.473-9.857-21.473h-13.997v-38.255c0-5.172-3.134-9.676-7.983-11.473-4.85-1.798-10.16-.424-13.531 3.498l-47.663 55.446c-7.244 8.426-1.258 21.472 9.858 21.472zm44.319-61.487v35.32c0 5.778 4.7 10.479 10.478 10.479h14.16l-39.961 46.487v-35.32c0-5.778-4.701-10.479-10.479-10.479h-14.159z"/><path d="m438.671 361.059c0-14.048-11.428-25.476-25.477-25.476h-19.25c-4.284-35.768-26.567-66.709-59.548-82.132v-50.081c13.688-.363 24.713-11.602 24.713-25.376 0-14.002-11.391-25.393-25.393-25.393h-87.116c-14.002 0-25.393 11.391-25.393 25.393 0 13.773 11.024 25.012 24.71 25.375v50.086c-32.98 15.409-55.264 46.35-59.54 82.128h-19.255c-14.048 0-25.477 11.428-25.477 25.476 0 14.049 11.429 25.477 25.477 25.477h6.559l-1.463 20.368c-8.764-3.28-18.194-5.13-27.851-5.365-21.765-.519-44.513 7.027-65.799 21.852-7.81 5.437-6.644 17.213 1.88 21.184 12.207 5.69 23.681 18.819 34.777 31.515 1.707 1.954 3.409 3.9 5.107 5.815 2.749 3.099 7.489 3.383 10.588.634 3.099-2.748 3.382-7.488.634-10.587-9.915-11.176-20.248-23.852-31.878-32.908 13.789.128 31.769 2.899 50.228 9.706 19.856 7.321 36.444 17.934 48.602 30.866-9.98 17.001-27.68 21.421-43.066 13.735-3.705-1.853-8.21-.348-10.061 3.357s-.348 8.21 3.358 10.06c6.958 3.476 14.334 5.231 21.64 5.231 14.33 0 28.161-6.715 37.913-20.032 2.132 3.243 4.022 6.589 5.645 10.03 1.761 3.735 6.226 5.357 9.982 3.586 3.747-1.767 5.352-6.235 3.586-9.982-3.046-6.462-6.867-12.623-11.381-18.434 7.796-23.739-7.217-49.261-29.377-63.122l1.976-27.51h4.253c14.823 37.35 49.805 63.036 89.686 65.913v51.174c0 4.142 3.357 7.5 7.5 7.5s7.5-3.357 7.5-7.5v-51.162c40.141-2.841 74.982-28.305 89.761-65.924h6.86l8.458 117.625c.284 3.948 3.575 6.962 7.473 6.962.181 0 .363-.006.546-.02 4.131-.297 7.239-3.887 6.942-8.018l-8.381-116.549h3.877c14.046 0 25.475-11.429 25.475-25.477zm-235.517 102.113c-12.926-11.818-29.209-21.544-48.062-28.495-15.68-5.782-32.707-9.353-47.906-10.362 52.71-23.344 95.008 10.44 95.968 38.857zm33.052-285.179c0-5.731 4.662-10.393 10.393-10.393h87.116c5.731 0 10.393 4.662 10.393 10.393s-4.662 10.393-10.393 10.393c-26.746 0-60.428 0-87.116 0-5.73.001-10.393-4.661-10.393-10.393zm17.196 88.53c4.565-2.052 7.515-6.613 7.515-11.62v-51.517h58.479v51.517c0 5.004 2.953 9.564 7.514 11.615 14.528 6.555 26.693 16.601 35.672 28.916h-144.855c8.978-12.318 21.144-22.362 35.675-28.911zm-44.5 43.911h162.508c3.648 7.873 6.158 16.331 7.395 25.149h-177.29c1.234-8.818 3.741-17.276 7.387-25.149zm.408 76.102h73.348v50.876c-31.709-2.676-59.679-22.2-73.348-50.876zm88.348 50.875v-50.875h16.789c4.143 0 7.5-3.357 7.5-7.5s-3.357-7.5-7.5-7.5h-147.325c-5.777 0-10.477-4.7-10.477-10.477 0-5.776 4.7-10.476 10.477-10.476h246.072c5.777 0 10.477 4.7 10.477 10.476 0 5.777-4.7 10.477-10.477 10.477h-63.748c-4.142 0-7.5 3.357-7.5 7.5s3.357 7.5 7.5 7.5h21.659c-13.604 28.867-41.484 48.228-73.447 50.875z"/></g></g></svg>