<svg id="Capa_1" enable-background="new 0 0 512.054 512.054" height="512" viewBox="0 0 512.054 512.054" width="512" xmlns="http://www.w3.org/2000/svg"><g><g><g><path d="m256.987 68.095c-137.186-.503-249.429 113.238-249.429 250.425v40.462c0 2.908 2.358 5.266 5.266 5.266h486.464c2.908 0 5.267-2.358 5.267-5.266v-42.39c-.001-136.935-110.751-247.995-247.568-248.497z" fill="#6cbff8"/><path d="m256.987 68.095c-4.489-.017-8.95.096-13.382.321 131.414 6.537 235.95 115.138 235.95 248.175v42.39c0 2.908-2.358 5.266-5.266 5.266h25c2.908 0 5.267-2.358 5.267-5.266v-42.39c-.002-136.934-110.751-247.994-247.569-248.496z" fill="#5fa7ee"/><path d="m160.565 165.088 48.963 158.41 78.992-45.606-112.706-121.608c-6.53-7.045-18.086-.374-15.249 8.804z" fill="#f4e2c1"/><ellipse cx="256.056" cy="348.068" fill="#9cd169" rx="95.894" ry="95.893" transform="matrix(.998 -.066 .066 .998 -22.464 17.7)"/><path d="m256.056 252.175c-4.237 0-8.408.278-12.5.811 47.054 6.126 83.393 46.359 83.393 95.083s-36.339 88.957-83.393 95.083c4.092.532 8.263.81 12.5.81 52.961 0 95.894-42.933 95.894-95.893 0-52.961-42.933-95.894-95.894-95.894z" fill="#68b181"/><path d="m291.997 340.378h-18.155c-1.613 0-2.921-1.308-2.921-2.921v-41.939c0-4.307-5.356-6.293-8.164-3.027l-46.73 54.361c-3.005 3.496-.521 8.906 4.089 8.906h18.155c1.613 0 2.921 1.308 2.921 2.921v41.939c0 4.307 5.356 6.293 8.164 3.027l46.73-54.361c3.004-3.496.521-8.906-4.089-8.906z" fill="#ddebfd"/></g></g><g><path d="m270.499 284.133c-4.811-1.783-10.084-.423-13.43 3.47l-46.729 54.36c-3.325 3.866-4.069 9.147-1.942 13.781 2.128 4.636 6.617 7.515 11.717 7.515h13.577v37.36c0 11.267 14.015 16.448 21.351 7.915l46.73-54.361c7.184-8.357 1.248-21.295-9.776-21.295h-13.576v-37.359c0-5.133-3.11-9.602-7.922-11.386zm16.905 63.745-38.712 45.033v-34.23c0-5.747-4.675-10.422-10.422-10.422h-13.562l38.712-45.034v34.232c0 5.746 4.675 10.421 10.421 10.421z"/><path d="m512.054 316.589c0-73.646-31.523-121.302-34.296-127.997-7.82-13.548-16.898-26.431-27.187-38.443-2.693-3.146-7.428-3.513-10.575-.817-3.146 2.695-3.512 7.43-.817 10.575 8.042 9.388 15.3 19.34 21.747 29.746l-15.166 8.756c-3.587 2.071-4.816 6.658-2.745 10.245 1.389 2.406 3.91 3.751 6.502 3.751 1.272 0 2.562-.324 3.743-1.006l15.158-8.751c17.49 32.614 27.341 69.044 28.506 106.444h-17.487c-4.142 0-7.5 3.359-7.499 7.502 0 4.142 3.358 7.498 7.501 7.498h17.616v32.655h-137.973c4.661-55.82-35.886-104.632-90.399-111.3l-87.367-94.257c-5.363-5.79-13.559-7.026-20.393-3.084-6.833 3.944-9.857 11.659-7.526 19.195l32.434 104.955c-20.386 18.897-33.169 45.888-33.169 75.812 0 2.912.13 5.805.368 8.679h-137.976v-32.652h17.62c4.143 0 7.5-3.357 7.5-7.5s-3.357-7.5-7.5-7.5h-17.42c1.13-29.442 7.544-58.104 19.146-85.329 3.018-7.083 6.357-13.986 9.996-20.707l14.46 8.345c1.182.682 2.47 1.005 3.742 1.005 2.592 0 5.114-1.346 6.503-3.753 2.07-3.587.84-8.174-2.747-10.244l-14.403-8.312c9.919-15.896 21.648-30.639 35.111-44.052 13.027-12.979 27.229-24.283 42.344-33.821l8.464 14.66c1.39 2.406 3.91 3.751 6.502 3.751 1.272 0 2.562-.324 3.743-1.006 3.587-2.071 4.816-6.658 2.745-10.245l-8.522-14.759c32.51-17.775 68.681-27.726 106.218-28.9v17.485c0 4.143 3.357 7.5 7.5 7.5s7.5-3.357 7.5-7.5v-17.491c37.449 1.161 73.85 11.011 106.45 28.504l-8.754 15.164c-2.071 3.587-.842 8.174 2.745 10.245 1.182.682 2.471 1.006 3.743 1.006 2.592 0 5.113-1.345 6.502-3.751l8.751-15.158c11.375 7.051 22.213 15.065 32.371 24.021 3.107 2.739 7.847 2.441 10.586-.666s2.44-7.847-.666-10.586c-46.484-40.982-106.245-63.676-168.273-63.903-.301-.001-.596-.002-.895-.002-.02 0-.04-.003-.06-.003-.028 0-.055.004-.083.004-67.361.027-131.074 26.577-179.5 74.826-23.906 23.819-42.705 51.563-55.872 82.462-27.66 64.903-18.822 113.513-20.547 141.092 0 7.041 5.729 12.77 12.77 12.77h142.557c3.018 12.906 8.515 25.13 16.32 36.121 2.397 3.378 7.08 4.172 10.457 1.773 3.378-2.398 4.172-7.08 1.773-10.457-10.643-14.989-16.269-32.664-16.269-51.116 0-48.74 39.653-88.394 88.394-88.394s88.394 39.653 88.394 88.394-39.653 88.394-88.394 88.394c-17.715 0-34.803-5.219-49.417-15.092-3.433-2.318-8.095-1.416-10.413 2.017-2.318 3.432-1.416 8.094 2.017 10.413 17.103 11.555 37.095 17.662 57.813 17.662 48.867 0 89.92-34.077 100.654-79.715h142.574c7.041 0 12.77-5.729 12.77-12.77zm-344.325-153.719c-.107-.348-.36-1.164.694-1.772 1.057-.61 1.64.017 1.89.288l77.505 83.617c-18.177 1.44-35.045 7.6-49.376 17.252z"/></g></g></svg>