<svg id="Capa_1" enable-background="new 0 0 512 512" height="512" viewBox="0 0 512 512" width="512" xmlns="http://www.w3.org/2000/svg"><g><g><g><path d="m402.941 355.663v104.317h59.897v-104.317c0-5.926-4.804-10.731-10.731-10.731h-38.435c-5.926 0-10.731 4.805-10.731 10.731z" fill="#9cd169"/><path d="m452.107 344.932h-25c5.927 0 10.731 4.804 10.731 10.731v104.317h25v-104.317c0-5.927-4.804-10.731-10.731-10.731z" fill="#68b181"/><g><path d="m62.207 215.171c3.2 8.791 12.921 13.324 21.712 10.124l295.417-107.523-11.587-31.836-295.417 107.524c-8.791 3.199-13.324 12.92-10.125 21.711z" fill="#407194"/><path d="m386.246 129.403 75.526 16.187c4.994 1.07 10.044-1.531 12.096-6.208 10.048-22.905 11.639-49.561 2.409-74.92s-27.583-44.756-50.003-55.843c-4.578-2.264-10.119-1.011-13.256 3.02l-47.452 60.947c-1.135 1.457-1.44 3.396-.808 5.131l17.571 48.275c.631 1.735 2.111 3.024 3.917 3.411z" fill="#5392f9"/><path d="m476.277 64.463c-9.23-25.359-27.583-44.757-50.003-55.843-4.578-2.264-10.119-1.011-13.256 3.02l-6.418 8.244c20.047 11.479 36.381 29.969 44.972 53.572s7.968 48.268-.009 69.947l10.21 2.188c4.994 1.07 10.044-1.531 12.096-6.208 10.046-22.905 11.637-49.562 2.408-74.92z" fill="#4071f7"/></g><ellipse cx="249.82" cy="144.867" fill="#ffc269" rx="42.061" ry="42.06" transform="matrix(.081 -.997 .997 .081 85.314 382.215)"/><path d="m249.82 102.807c-3.566 0-7.027.447-10.334 1.283 16.518 5.675 28.394 21.334 28.394 39.777 0 19.663-13.495 36.171-31.727 40.777 4.286 1.473 8.88 2.283 13.666 2.283 23.229 0 42.06-18.831 42.06-42.061.001-23.228-18.83-42.059-42.059-42.059z" fill="#ffa95f"/><ellipse cx="104.22" cy="417.507" fill="#f4e2c1" rx="63.805" ry="63.805" transform="matrix(.707 -.707 .707 .707 -264.696 195.98)"/><path d="m42.67 355.964c-33.724 33.724-34.131 88.944.007 123.082 33.906 33.906 89.12 33.97 123.082.008 33.724-33.724 34.139-88.951 0-123.09-34.096-34.096-89.319-33.771-123.089 0zm22.771 100.318c-16.279-16.279-20.186-40.257-11.707-60.231.893-2.104 3.635-2.641 5.251-1.024l67.713 67.713c1.616 1.616 1.08 4.357-1.023 5.251-19.969 8.485-43.948 4.578-60.234-11.709zm84.018-16.308-67.71-67.71c-1.617-1.617-1.08-4.359 1.025-5.251 19.967-8.471 43.943-4.564 60.222 11.714 16.286 16.286 20.186 40.256 11.715 60.223-.894 2.104-3.635 2.641-5.252 1.024z" fill="#db387e"/><path d="m165.759 355.964c-16.271-16.271-37.354-24.684-58.621-25.383 14.134 3.832 27.503 11.265 38.621 22.383 34.139 34.139 33.725 89.366 0 123.09-17.709 17.709-41.197 26.146-64.429 25.377 29.125 7.893 61.583.469 84.429-22.377 33.725-33.725 34.139-88.951 0-123.09z" fill="#c4237c"/></g></g><g><path d="m494.787 452.482h-24.443v-41.849c0-4.143-3.357-7.5-7.5-7.5s-7.5 3.357-7.5 7.5v41.849h-44.898v-96.821c0-1.781 1.449-3.23 3.231-3.23h38.437c1.781 0 3.23 1.449 3.23 3.23v19.972c0 4.143 3.357 7.5 7.5 7.5s7.5-3.357 7.5-7.5v-19.972c0-10.053-8.178-18.231-18.231-18.231h-11.718v-188.762c19.873 4.135 20.307 4.648 23.596 4.648 7.116 0 13.801-4.208 16.752-10.931 11.239-25.621 12.158-54.209 2.588-80.5-9.57-26.292-28.65-47.603-53.728-60.003-7.74-3.828-17.202-1.668-22.5 5.135l-47.452 60.948c-2.739 3.517-3.464 8.118-1.939 12.305l.428 1.175-74.59 27.145c-8.854-8.24-20.711-13.295-33.732-13.295-25.268 0-46.165 19.01-49.176 43.476l-44.623 16.242c-3.893 1.417-5.9 5.721-4.483 9.613 1.418 3.896 5.722 5.897 9.614 4.483l40.059-14.581c1.26 6.343 3.738 12.25 7.173 17.476l-127.036 46.24c-4.897 1.784-10.313-.743-12.097-5.647-1.781-4.891.749-10.318 5.638-12.097l53.582-19.5c3.892-1.417 5.898-5.721 4.482-9.614-1.417-3.892-5.717-5.901-9.614-4.483l-53.582 19.501c-12.663 4.61-19.213 18.662-14.603 31.324 4.621 12.691 18.63 19.234 31.324 14.613l10.235-3.725v94.69c-48.093 3.75-86.885 43.697-86.998 94.026-.057 25.331 9.763 49.133 27.65 67.02 18.432 18.432 42.642 27.648 66.854 27.647 24.206-.001 48.414-9.214 66.84-27.64 5.162-5.162 9.647-10.825 13.423-16.877h310.306c4.143 0 7.5-3.358 7.5-7.5s-3.357-7.5-7.499-7.5zm-75.848-436.25c.941-1.209 2.625-1.59 4.014-.904 21.601 10.683 38.039 29.039 46.281 51.688 8.243 22.646 7.452 47.273-2.229 69.342-.62 1.415-2.153 2.208-3.657 1.889l-74.374-15.94-2.557-7.026c-.01-.029-.016-.058-.027-.087-.01-.028-.024-.055-.035-.083l-14.143-38.861zm-55.67 79.31 6.455 17.737-70.701 25.737c-.762-6.456-2.761-12.537-5.768-17.994zm-113.452 14.754c19.057 0 34.562 15.503 34.562 34.561s-15.505 34.562-34.562 34.562-34.562-15.504-34.562-34.562 15.505-34.561 34.562-34.561zm0 213.926-32.649-39.355 32.649-32.648 32.647 32.648zm38.081-22.412 13.297 79.674-41.454-45.733zm-48.007 33.942-41.462 45.742 13.302-79.686zm9.925-104.75-22.508-22.508 3.017-18.074c5.986 2.571 12.574 4 19.491 4s13.504-1.429 19.491-4l3.017 18.075zm25.542-4.326 5.984 35.852-20.918-20.918zm-36.149 14.934-20.92 20.92 5.986-35.855zm-78.759 232.143c-15.503 15.504-35.865 23.256-56.232 23.254-20.368-.001-40.741-7.755-56.247-23.262-15.044-15.044-23.305-35.067-23.257-56.378.048-21.233 8.305-41.157 23.25-56.101 30.929-30.931 81.385-31.102 112.486 0 14.765 14.764 23.303 34.778 23.253 56.381-.051 21.999-8.968 41.821-23.253 56.106zm-48.738-150.45v-100.147l104.277-37.956c-1.212 7.26-29.791 178.458-30.665 183.693-15.126-25.166-41.877-43.133-73.612-45.59zm80.345 129.179c6.162-15.536 7.923-32.134 5.766-47.985l51.994-57.361 55.948 61.724 7.28 43.622zm203.387-96.821v96.821h-67.192c-2.382-14.271-40.142-240.518-45.209-270.883 7.57-6.853 13.014-16.007 15.23-26.346l76.582-27.878.427 1.174c1.524 4.186 5.036 7.243 9.394 8.178l40.717 8.727v191.976h-11.718c-10.053 0-18.231 8.178-18.231 18.231z"/><path d="m64.28 389.725c-2.523-2.524-6.124-3.621-9.627-2.945-3.508.682-6.436 3.052-7.832 6.341-9.986 23.522-4.763 50.398 13.307 68.467 11.982 11.982 27.831 18.317 44.004 18.317 8.226 0 16.538-1.64 24.467-5.009 6.995-2.969 8.766-12.086 3.396-17.458zm6.454 61.256c-12.167-12.166-16.664-29.587-12.245-45.832l58.081 58.08c-16.239 4.422-33.662-.076-45.836-12.248z"/><path d="m79.836 360.107c-3.289 1.395-5.66 4.322-6.342 7.83-.682 3.507.419 7.107 2.942 9.629l67.713 67.714c5.379 5.374 14.491 3.595 17.459-3.401 9.978-23.519 4.75-50.39-13.317-68.458-18.064-18.064-44.935-23.291-68.455-13.314zm70.101 69.747-58.073-58.074c16.238-4.416 33.657.087 45.822 12.249 12.164 12.165 16.665 29.584 12.251 45.825z"/></g></g></svg>