<svg id="Capa_1" enable-background="new 0 0 512 512" height="512" viewBox="0 0 512 512" width="512" xmlns="http://www.w3.org/2000/svg"><g><g><g><path d="m453.312 88.329c-.852-.082-1.555-.68-1.765-1.51-7.534-29.656-34.391-51.6-66.391-51.6-13.608 0-26.289 3.967-36.951 10.808-2.237 1.435-5.233.892-6.783-1.266-16.2-22.563-42.661-37.261-72.557-37.261-38.239 0-70.86 24.047-83.572 57.842-.697 1.853-2.424 3.092-4.399 3.221-27.716 1.804-49.639 24.852-49.639 53.024 0 24.129 16.087 44.489 38.117 50.973 1.71.503 2.894 2.055 2.894 3.837v118.453h48v-95.795c0-1.591 1.76-2.534 3.094-1.665 11.83 7.709 25.946 12.199 41.119 12.199 21.892 0 41.593-9.334 55.374-24.228 1.877-2.029 5.214-1.679 6.496.77 10.148 19.388 30.446 32.622 53.845 32.622 20.065 0 37.847-9.737 48.91-24.734.519-.703 1.416-.989 2.247-.718 5.975 1.949 12.405 2.89 19.095 2.601 27.552-1.19 50.038-23.421 51.497-50.959 1.554-29.338-20.348-53.888-48.631-56.614z" fill="#ddebfd"/><path d="m453.312 88.329c-.852-.082-1.555-.681-1.765-1.51-7.534-29.656-34.391-51.6-66.391-51.6-7.085 0-13.914 1.084-20.343 3.081 30.559 1.425 55.871 22.871 63.149 51.52.211.829.913 1.428 1.765 1.51 28.283 2.726 50.185 27.275 48.631 56.614-1.163 21.953-15.695 40.52-35.496 47.756 2.483.24 5.014.314 7.584.203 27.552-1.19 50.038-23.421 51.497-50.959 1.554-29.339-20.348-53.889-48.631-56.615z" fill="#bed9fd"/><path d="m103.977 482.257 47.703-207.63c.522-2.271 2.543-3.88 4.873-3.88h79.429c2.33 0 4.351 1.609 4.873 3.88l47.703 207.63c.72 3.132-1.66 6.12-4.873 6.12h-174.835c-3.214 0-5.593-2.988-4.873-6.12z" fill="#ffc269"/><path d="m288.557 482.257-47.703-207.63c-.522-2.271-2.543-3.88-4.873-3.88h-27c2.33 0 4.351 1.609 4.873 3.88l47.703 207.63c.72 3.132-1.66 6.119-4.873 6.119h27c3.213.001 5.592-2.987 4.873-6.119z" fill="#ffa95f"/><path d="m133.993 351.608h124.547l-10.784-46.941h-102.978z" fill="#407194"/><path d="m231.54 351.608h27l-10.784-46.941h-27z" fill="#365f7e"/><g><ellipse cx="96.975" cy="417.506" fill="#f4e2c1" rx="63.805" ry="63.805" transform="matrix(.707 -.707 .707 .707 -266.818 190.857)"/><path d="m35.424 355.964c-33.724 33.724-34.131 88.943.008 123.082 33.906 33.906 89.12 33.97 123.082.008 33.724-33.724 34.139-88.951 0-123.09-34.096-34.096-89.319-33.771-123.09 0zm22.771 100.318c-16.279-16.279-20.186-40.257-11.707-60.231.893-2.104 3.635-2.641 5.251-1.024l67.713 67.713c1.616 1.616 1.08 4.357-1.023 5.251-19.969 8.485-43.947 4.578-60.234-11.709zm84.019-16.308-67.71-67.71c-1.617-1.617-1.08-4.359 1.025-5.251 19.967-8.471 43.943-4.564 60.222 11.714 16.286 16.286 20.186 40.256 11.715 60.223-.894 2.104-3.636 2.641-5.252 1.024z" fill="#db387e"/><path d="m158.514 355.963c-16.271-16.271-37.354-24.684-58.621-25.383 14.134 3.832 27.503 11.265 38.621 22.383 34.139 34.139 33.725 89.366 0 123.09-17.709 17.709-41.197 26.146-64.429 25.377 29.125 7.893 61.583.469 84.429-22.377 33.724-33.724 34.138-88.95 0-123.09z" fill="#c4237c"/></g></g></g><g><path d="m457.782 81.333c-9.74-31.753-39.084-53.616-72.634-53.616-13.808 0-27.254 3.719-39.036 10.775-18.245-24.147-46.947-38.492-77.253-38.492-12.328 0-24.334 2.288-35.686 6.799-3.849 1.53-5.729 5.89-4.199 9.738 1.53 3.85 5.89 5.732 9.739 4.2 9.581-3.808 19.724-5.739 30.147-5.739 26.269 0 51.114 12.759 66.46 34.129 3.875 5.399 11.307 6.808 16.919 3.212 9.821-6.296 21.201-9.624 32.909-9.624 27.946 0 52.254 18.891 59.114 45.941.986 3.884 4.328 6.75 8.317 7.13 24.794 2.364 43.176 23.774 41.848 48.742-1.25 23.575-20.718 42.84-44.321 43.86-5.608.247-11.144-.51-16.45-2.238-3.9-1.271-8.159.09-10.601 3.388-10.202 13.785-25.83 21.69-42.878 21.69-19.875 0-37.957-10.957-47.188-28.591-1.712-3.276-4.927-5.525-8.601-6.015-3.734-.503-7.486.857-10.049 3.625-12.835 13.869-31.008 21.822-49.861 21.822-13.195 0-25.997-3.797-37.01-10.975-6.305-4.124-14.694.389-14.694 7.936v64.194h-32.997v-86.841c0-5.071-3.411-9.61-8.283-11.035-19.272-5.668-32.733-23.668-32.733-43.77 0-23.976 18.723-43.98 42.627-45.541 4.933-.324 9.226-3.497 10.928-8.063 4.204-11.175 10.99-21.512 19.624-29.897 2.971-2.885 3.041-7.633.155-10.604-2.886-2.97-7.634-3.039-10.604-.154-9.816 9.532-17.615 21.21-22.632 33.873-31.018 2.825-55.095 29.054-55.095 60.387 0 25.835 16.734 49.056 41.016 57.369v84.277h-8.219c-5.862 0-10.87 3.991-12.178 9.699l-12.977 56.473c-33.042-12.873-73.343-6.689-101.261 21.229-15.989 15.989-25.713 37.25-27.381 59.869-1.657 22.47 4.72 44.78 17.954 62.818 2.449 3.34 7.143 4.06 10.482 1.61s4.06-7.143 1.61-10.482c-11.124-15.163-16.483-33.929-15.089-52.843 1.403-19.032 9.582-36.919 23.028-50.365 14.983-14.984 34.973-23.252 56.278-23.252 43.571 0 79.547 35.177 79.444 79.625-.049 21.232-8.306 41.155-23.25 56.098-25.674 25.673-65.439 30.701-96.704 12.226-3.565-2.107-8.164-.924-10.271 2.641-2.107 3.566-.924 8.164 2.641 10.271 31.601 18.673 70.861 17.297 100.947-3.011h133.843c8.04 0 13.988-7.471 12.188-15.298l-47.704-207.604c-1.309-5.713-6.318-9.704-12.179-9.704h-8.209v-54.717c11.366 5.623 23.885 8.562 36.706 8.562 21.46 0 42.197-8.438 57.599-23.295 12.392 20.136 34.236 32.454 58.1 32.454 20.247 0 39.616-9.18 52.552-24.733 5.869 1.513 11.916 2.146 18.025 1.879 31.234-1.349 56.996-26.849 58.649-58.049 1.688-31.744-20.729-59.138-51.622-63.993zm-307.02 230.802h91.02l7.339 31.94h-92.551c-3.6-2.933-7.385-5.578-11.327-7.924zm16.372 168.696c15.674-17.322 24.281-39.579 24.336-63.192.05-21.525-7.035-41.942-20.139-58.565h81.236l27.978 121.757zm71.202-183.694h-84.128l4.346-18.915h75.435z"/><path d="m136.924 445.233c5.392 5.392 14.5 3.573 17.456-3.399 9.977-23.515 4.751-50.383-13.314-68.449-18.064-18.063-44.93-23.291-68.446-13.314-6.996 2.968-8.774 12.086-3.4 17.458zm-6.463-61.243c12.162 12.163 16.661 29.579 12.249 45.818l-58.065-58.065c16.238-4.417 33.653.086 45.816 12.247z"/><path d="m39.607 393.081c-9.984 23.519-4.761 50.39 13.306 68.458 18.04 18.039 44.904 23.317 68.461 13.306 6.992-2.97 8.766-12.084 3.395-17.456l-67.705-67.703c-5.369-5.373-14.489-3.598-17.457 3.395zm23.912 57.852c-12.164-12.164-16.662-29.582-12.243-45.825l58.073 58.072c-16.238 4.423-33.66-.076-45.83-12.247z"/><path d="m259.749 82.731c5.588 0 10.977 1.645 15.583 4.757 3.433 2.317 8.093 1.417 10.413-2.016 2.319-3.431 1.416-8.093-2.016-10.412-7.095-4.793-15.388-7.327-23.98-7.327-23.644 0-42.88 19.236-42.88 42.88s19.236 42.879 42.88 42.879c11.309 0 21.15-4.454 28.037-12.671 2.66-3.174 2.243-7.904-.932-10.565-3.175-2.66-7.904-2.243-10.564.932-3.912 4.671-9.437 7.306-16.541 7.306-15.374 0-27.881-12.508-27.881-27.881-.001-15.375 12.507-27.882 27.881-27.882z"/><path d="m438.551 116.844c0-11.368-9.249-20.616-20.617-20.616-9.829 0-18.337 6.993-20.229 16.628-.798 4.064 1.849 8.005 5.913 8.804 4.062.798 8.005-1.849 8.804-5.913.515-2.619 2.833-4.52 5.512-4.52 2.97 0 5.41 2.317 5.605 5.239-.032.104.125 2.817-4.335 9.19-8.1 11.573-12.931 17.9-15.527 21.298-3.245 4.25-5.205 6.815-3.958 10.867.734 2.385 2.608 4.287 5.007 5.085 2.715.907 18.868.59 28.592.467 4.141-.052 7.456-3.451 7.405-7.593-.052-4.109-3.399-7.405-7.497-7.405-.032 0-.064 0-.096.001-3.94.049-8.077.086-11.836.104 2.628-3.562 5.982-8.201 10.198-14.225 3.196-4.566 7.059-11.563 7.059-17.411z"/><path d="m382.992 110.613c0-23.644-19.236-42.88-42.879-42.88-23.644 0-42.88 19.236-42.88 42.88s19.236 42.879 42.88 42.879c23.643 0 42.879-19.235 42.879-42.879zm-70.761 0c0-15.374 12.508-27.882 27.881-27.882s27.881 12.508 27.881 27.882c0 15.373-12.508 27.881-27.881 27.881s-27.881-12.508-27.881-27.881z"/></g></g></svg>