<svg id="Capa_1" enable-background="new 0 0 512 512" height="512" viewBox="0 0 512 512" width="512" xmlns="http://www.w3.org/2000/svg"><g><g><g><path d="m499.131 186.95c-25.812 1.835-27.597 16.824-56.76 16.824-31.065 0-31.065-17.008-62.129-17.008-31.063 0-31.063 17.008-62.126 17.008-31.062 0-31.062-17.008-62.124-17.008-31.061 0-31.061 17.008-62.121 17.008-31.062 0-31.062-17.008-62.124-17.008s-31.062 17.008-62.125 17.008c-29.16 0-30.944-14.99-56.753-16.824-2.897-.206-5.369 2.086-5.369 4.99v304.737c0 2.761 2.239 5 5 5h487c2.761 0 5-2.239 5-5v-304.737c0-2.904-2.472-5.196-5.369-4.99z" fill="#6cbff8"/><path d="m499.131 186.95c-8.565.609-14.479 2.669-19.631 5.146v304.581c0 2.761-2.239 5-5 5h25c2.761 0 5-2.239 5-5v-304.737c0-2.904-2.472-5.196-5.369-4.99z" fill="#5fa7ee"/><path d="m217.499 467.008h77.001v-87.178c0-5.523-4.477-10-10-10h-57.001c-5.523 0-10 4.477-10 10z" fill="#ffc269"/><path d="m284.501 369.831h-24c5.523 0 10 4.477 10 10v87.178h24v-87.178c0-5.523-4.478-10-10-10z" fill="#ffa95f"/><path d="m197.773 467.008h116.454c5.523 0 10 4.477 10 10v24.669h-136.454v-24.669c0-5.522 4.477-10 10-10z" fill="#407194"/><path d="m314.227 467.008h-26c5.523 0 10 4.477 10 10v24.669h26v-24.669c0-5.522-4.477-10-10-10z" fill="#365f7e"/><path d="m236.83 118.218v152.224c0 2.761 2.239 5 5 5h28.34c2.761 0 5-2.239 5-5v-152.224c0-2.761-2.239-5-5-5h-28.34c-2.761 0-5 2.239-5 5z" fill="#407194"/><path d="m163.062 153.781-21.613 33.501c-2.768 4.291-2.768 9.804 0 14.095l21.613 33.501c2.394 3.711 6.508 5.952 10.924 5.952h163.796c4.546 0 8.761-2.374 11.117-6.262l21.845-36.039c2.653-4.377 2.491-9.904-.415-14.118l-21.35-30.963c-2.426-3.519-6.428-5.62-10.702-5.62h-164.291c-4.416.001-8.53 2.243-10.924 5.953z" fill="#ffc269"/><path d="m370.329 184.413-21.35-30.963c-2.426-3.519-6.428-5.62-10.702-5.62h-26c4.275 0 8.276 2.101 10.702 5.62l21.35 30.963c2.906 4.214 3.068 9.741.415 14.118l-21.845 36.039c-2.356 3.888-6.572 6.262-11.117 6.262h26c4.546 0 8.761-2.374 11.117-6.262l21.845-36.039c2.653-4.378 2.491-9.904-.415-14.118z" fill="#ffa95f"/><path d="m277.37 43.328h-42.74c-2.135 0-3.865-1.73-3.865-3.865v-7.961c0-11.694 9.48-21.174 21.174-21.174h8.123c11.694 0 21.174 9.48 21.174 21.174v7.961c-.001 2.134-1.731 3.865-3.866 3.865z" fill="#407194"/></g></g><g><path d="m498.6 179.471c-27.852 1.976-29.627 16.802-56.229 16.802-28.182 0-29.027-17.011-62.13-17.011-1.459 0-2.883.042-4.275.112l-20.811-30.182c-3.827-5.55-10.136-8.863-16.877-8.863h-11.918v-26.506c0-5.548-1.621-10.926-4.691-15.559l-34.849-52.497c1.209-1.806 1.916-3.974 1.916-6.305v-7.961c0-15.811-12.863-28.674-28.674-28.674h-8.123c-15.811 0-28.674 12.863-28.674 28.674v7.961c0 2.331.708 4.5 1.916 6.305l-34.852 52.501c-3.067 4.628-4.688 10.006-4.688 15.554v26.506h-11.654c-6.994 0-13.434 3.509-17.226 9.387l-19.192 29.75c-1.867-.133-3.793-.203-5.818-.203-17.455 0-26.602 5.009-34.673 9.428-7.43 4.069-13.847 7.583-27.457 7.583s-20.026-3.513-27.454-7.581c-7.062-3.866-15.066-8.249-28.754-9.22-7.237-.524-13.413 5.213-13.413 12.471v44.18c0 4.143 3.358 7.5 7.5 7.5s7.5-3.357 7.5-7.5v-41.438c8.777 1.041 13.999 3.9 19.962 7.165 8.067 4.417 17.21 9.424 34.658 9.424s26.593-5.008 34.662-9.426c7.432-4.07 13.851-7.585 27.468-7.585.045 0 .088.002.133.002-.013 3.891 1.074 7.784 3.264 11.179l21.613 33.502c3.792 5.878 10.231 9.387 17.226 9.387h55.344v22.111c0 6.893 5.607 12.5 12.5 12.5h6.67v79.388h-21c-9.649 0-17.5 7.851-17.5 17.5v79.678h-12.227c-9.649 0-17.5 7.851-17.5 17.5v17.164h-165.273v-223.05c0-4.143-3.358-7.5-7.5-7.5s-7.5 3.357-7.5 7.5v225.55c0 6.893 5.607 12.5 12.5 12.5h487c6.893 0 12.5-5.607 12.5-12.5v-304.731c0-7.217-6.121-12.984-13.4-12.472zm-260.335-147.97c0-7.54 6.134-13.674 13.674-13.674h8.123c7.54 0 13.674 6.134 13.674 13.674v4.326h-35.471zm-37.625 82.322c0-2.591.758-5.104 2.188-7.262l36.998-55.733h32.347l36.995 55.729c1.434 2.163 2.191 4.676 2.191 7.267v26.506h-28.69v-22.106c0-6.893-5.607-12.5-12.5-12.5h-28.34c-6.893 0-12.5 5.607-12.5 12.5v22.106h-28.69v-26.507zm43.69 26.506v-19.606h23.34v19.606zm0 108.003h23.34v19.611h-23.34zm-19.33 131.499c0-1.379 1.122-2.5 2.5-2.5h57.001c1.378 0 2.5 1.121 2.5 2.5v79.678h-62.001zm-29.727 97.177c0-1.379 1.122-2.5 2.5-2.5h116.454c1.378 0 2.5 1.121 2.5 2.5v17.164h-121.454zm301.727 17.164h-165.273v-17.164c0-9.649-7.851-17.5-17.5-17.5h-12.227v-79.678c0-9.649-7.851-17.5-17.5-17.5h-21v-79.388h6.67c6.893 0 12.5-5.607 12.5-12.5v-22.111h10.962c4.142 0 7.5-3.357 7.5-7.5s-3.358-7.5-7.5-7.5h-119.646c-1.876 0-3.604-.941-4.622-2.518l-21.613-33.503c-1.16-1.797-1.165-4.115-.023-5.92.039-.062.078-.122.115-.184l21.522-33.359c1.018-1.577 2.745-2.519 4.622-2.519h164.291c1.809 0 3.501.889 4.528 2.379l21.35 30.963c1.227 1.779 1.296 4.124.176 5.973l-21.845 36.039c-.991 1.634-2.793 2.649-4.704 2.649h-9.15c-4.142 0-7.5 3.357-7.5 7.5s3.358 7.5 7.5 7.5h9.15c7.122 0 13.839-3.783 17.531-9.874l21.845-36.039c1.535-2.533 2.466-5.316 2.809-8.152.092 0 .181-.004.273-.004 28.178 0 28.987 17.011 62.13 17.011 30.119 0 33.851-14.123 54.63-16.589v299.488z"/><path d="m265.54 412.033h-8.232l5.913-11.039c1.956-3.65.582-8.196-3.07-10.152-3.652-1.955-8.197-.582-10.153 3.07l-11.057 20.641c-2.978 5.622 1.093 12.48 7.518 12.48h8.232l-5.913 11.039c-2.689 5.021.996 11.047 6.605 11.042 2.676 0 5.266-1.436 6.618-3.96l11.057-20.642c2.98-5.626-1.099-12.479-7.518-12.479z"/><g><path d="m69.622 422.852c-16.055 0-25.057-4.185-33.604-8.847-3.637-1.982-4.977-6.538-2.994-10.175 1.983-3.636 6.54-4.978 10.175-2.993 6.324 3.448 12.863 7.015 26.423 7.015 28.002 0 29.163-17.008 62.125-17.008 25.302 0 32.828 10.392 46.021 14.726 3.935 1.292 6.077 5.53 4.785 9.466-1.293 3.935-5.531 6.077-9.466 4.784-15.96-5.242-20.069-13.976-41.34-13.976-27.885 0-29.254 17.008-62.125 17.008z"/><path d="m442.371 297.59c-33.104 0-33.94-17.008-62.129-17.008-27.886 0-29.253 17.008-62.126 17.008-4.142 0-7.5-3.357-7.5-7.5s3.358-7.5 7.5-7.5c27.886 0 29.253-17.008 62.126-17.008 33.104 0 33.94 17.008 62.129 17.008 11.958 0 18.25-2.739 23.67-5.545 3.679-1.905 8.204-.466 10.108 3.214 1.904 3.679.465 8.204-3.213 10.108-7.247 3.752-15.967 7.223-30.565 7.223z"/></g></g></g></svg>