<svg id="Capa_1" enable-background="new 0 0 512 512" height="512" viewBox="0 0 512 512" width="512" xmlns="http://www.w3.org/2000/svg"><g><g><g><path d="m111.681 121.313h288.638v347.441h-288.638z" fill="#407194"/><path d="m374.319 121.313h26v347.441h-26z" fill="#365f7e"/><path d="m90.185 496.752v-20.25c0-4.279 3.469-7.748 7.748-7.748h316.135c4.279 0 7.748 3.469 7.748 7.748v20.25c0 4.279-3.469 7.748-7.748 7.748h-316.135c-4.279 0-7.748-3.469-7.748-7.748z" fill="#9cd169"/><path d="m414.067 468.755h-26c4.279 0 7.748 3.469 7.748 7.748v20.25c0 4.279-3.469 7.748-7.748 7.748h26c4.279 0 7.748-3.469 7.748-7.748v-20.25c0-4.279-3.469-7.748-7.748-7.748z" fill="#68b181"/><path d="m90.185 113.566v-20.25c0-4.279 3.469-7.748 7.748-7.748h316.135c4.279 0 7.748 3.469 7.748 7.748v20.25c0 4.279-3.469 7.748-7.748 7.748h-316.135c-4.279-.001-7.748-3.469-7.748-7.748z" fill="#9cd169"/><path d="m414.067 85.568h-26c4.279 0 7.748 3.469 7.748 7.748v20.25c0 4.279-3.469 7.748-7.748 7.748h26c4.279 0 7.748-3.469 7.748-7.748v-20.25c0-4.279-3.469-7.748-7.748-7.748z" fill="#68b181"/><g fill="#9cd169"><path d="m86.66 233.41c0 9.632 7.809 17.441 17.441 17.441h303.798c9.632 0 17.441-7.809 17.441-17.441s-7.809-17.441-17.441-17.441h-303.798c-9.632 0-17.441 7.808-17.441 17.441z"/><path d="m86.66 370.163c0 9.632 7.809 17.441 17.441 17.441h303.798c9.632 0 17.441-7.809 17.441-17.441s-7.809-17.441-17.441-17.441h-303.798c-9.632.001-17.441 7.809-17.441 17.441z"/></g><g fill="#68b181"><path d="m399.34 233.41c0 9.632-7.809 17.441-17.441 17.441h26c9.632 0 17.441-7.809 17.441-17.441s-7.809-17.441-17.441-17.441h-26c9.632 0 17.441 7.808 17.441 17.441z"/><path d="m407.899 352.723h-26c9.632 0 17.441 7.809 17.441 17.441s-7.809 17.441-17.441 17.441h26c9.632 0 17.441-7.809 17.441-17.441s-7.809-17.441-17.441-17.441z"/></g><ellipse cx="256" cy="301.786" fill="#f4e2c1" rx="103.198" ry="103.198" transform="matrix(.707 -.707 .707 .707 -138.415 269.411)"/><path d="m262.173 198.778c42.786 12.587 74.025 52.147 74.025 99.008 0 56.995-46.203 103.198-103.198 103.198-2.073 0-4.13-.068-6.173-.189 9.251 2.722 19.04 4.189 29.173 4.189 56.994 0 103.198-46.203 103.198-103.198 0-54.921-42.905-99.814-97.025-103.008z" fill="#efcb83"/><path d="m297.117 327.857c22.073-31.747-26-97.17-101.674-63.206-3.008 1.35-3.372 5.431-.693 7.354 17.773 12.76 28.428 41.812 42.621 59.08 16.196 19.707 43.68 19.88 59.746-3.228z" fill="#9cd169"/><path d="m159.489 12.5v23.479c0 2.761 2.239 5 5 5h82.468c2.761 0 5-2.239 5-5v-23.479c0-2.761-2.239-5-5-5h-82.468c-2.762 0-5 2.239-5 5z" fill="#5392f9"/><path d="m246.956 7.5h-25c2.761 0 5 2.239 5 5v23.479c0 2.761-2.239 5-5 5h25c2.761 0 5-2.239 5-5v-23.479c0-2.761-2.238-5-5-5z" fill="#4071f7"/><path d="m174.175 40.979h63.095v44.59h-63.095z" fill="#ddebfd"/><path d="m212.27 40.979h25v44.59h-25z" fill="#bed9fd"/></g></g><g><path d="m407.9 395.1c13.752 0 24.939-11.188 24.939-24.939s-11.188-24.94-24.939-24.94h-.08v-86.87h.08c13.752 0 24.939-11.188 24.939-24.939s-11.188-24.94-24.939-24.94h-.08v-79.656h6.247c8.408 0 15.248-6.84 15.248-15.248v-20.25c0-8.407-6.84-15.247-15.248-15.247h-43.552c-4.143 0-7.5 3.357-7.5 7.5s3.357 7.5 7.5 7.5h43.552c.137 0 .248.11.248.247v20.25c0 .137-.111.248-.248.248-24.745 0-304.394 0-316.135 0-.137 0-.248-.111-.248-.248v-20.25c0-.137.111-.247.248-.247h237.583c4.143 0 7.5-3.357 7.5-7.5s-3.357-7.5-7.5-7.5h-90.745v-29.59h2.186c6.893 0 12.5-5.607 12.5-12.5v-23.481c0-6.893-5.607-12.5-12.5-12.5h-82.468c-6.893 0-12.5 5.607-12.5 12.5v23.479c0 6.893 5.607 12.5 12.5 12.5h2.187v29.59h-68.742c-8.408 0-15.248 6.84-15.248 15.247v20.25c0 8.408 6.84 15.248 15.248 15.248h6.248v79.656h-.08c-13.752 0-24.94 11.188-24.94 24.94s11.188 24.939 24.94 24.939h.08v86.87h-.08c-13.752 0-24.94 11.188-24.94 24.94s11.187 24.941 24.939 24.941h.08v17.65c0 4.143 3.358 7.5 7.5 7.5s7.5-3.357 7.5-7.5v-17.65h77.324c17.194 11.001 37.613 17.385 59.495 17.385s42.302-6.384 59.495-17.385h77.325v66.155h-273.638v-13.501c0-4.143-3.358-7.5-7.5-7.5s-7.5 3.357-7.5 7.5v13.501h-6.249c-8.408 0-15.248 6.84-15.248 15.248v20.249c0 8.408 6.84 15.248 15.248 15.248h316.135c8.408 0 15.248-6.84 15.248-15.248v-20.249c0-8.408-6.84-15.248-15.248-15.248h-6.247v-66.155zm-240.912-380.1h77.468v18.479h-77.468zm14.687 33.479h48.095v29.59h-48.095zm232.64 428.024v20.249c0 .137-.111.248-.248.248h-316.134c-.137 0-.248-.111-.248-.248v-20.249c0-.137.111-.248.248-.248h316.135c.136 0 .247.111.247.248zm-21.495-131.283h-35.005c11.849-27.67 11.848-59.201-.001-86.87h35.006zm25.02-111.81c0 5.48-4.459 9.939-9.939 9.939h-57.926c-4.507-7.223-9.818-13.894-15.816-19.88h73.741c5.481.001 9.94 4.46 9.94 9.941zm-298.66-104.597h273.64v79.656h-77.331c-17.192-10.999-37.609-17.381-59.489-17.381s-42.297 6.382-59.49 17.381h-77.33zm-25.02 104.597c0-5.481 4.459-9.94 9.94-9.94h73.741c-5.998 5.986-11.309 12.657-15.816 19.88h-57.925c-5.481 0-9.94-4.459-9.94-9.94zm25.02 24.94h35.005c-11.85 27.67-11.85 59.2-.001 86.87h-35.004zm-15.08 121.75c-5.481 0-9.94-4.459-9.94-9.939 0-5.481 4.459-9.94 9.94-9.94h57.923c4.507 7.223 9.817 13.894 15.814 19.88h-73.737zm56.202-78.314c0-52.768 42.93-95.697 95.698-95.697s95.697 42.93 95.697 95.697c0 52.769-42.93 95.698-95.697 95.698-52.768 0-95.698-42.929-95.698-95.698zm189.674 58.434h57.924c5.48 0 9.939 4.459 9.939 9.94 0 5.48-4.459 9.939-9.939 9.939h-73.739c5.998-5.985 11.308-12.657 15.815-19.879z"/><path d="m305.463 328.549c8.443-15.752 4.94-36.979-9.352-54.205-10.353-12.479-25.216-21.312-41.851-24.873-19.183-4.108-40.585-1.223-61.888 8.338-8.323 3.734-9.318 15.032-1.997 20.289 9.637 6.919 17.493 20.272 25.089 33.186 5.049 8.582 10.27 17.457 16.111 24.563 16.491 20.066 43.827 23.353 63.383 5.761 1.106 2.812 2.062 5.71 2.833 8.704 1.039 4.031 5.147 6.422 9.134 5.392 4.012-1.033 6.425-5.123 5.392-9.134-1.587-6.16-3.892-12.185-6.854-18.021zm-10.528-16.502c-9.309-11.95-21.627-22.687-36.442-31.57-11.882-7.125-25.095-12.768-37.495-16.297 45.864-9.062 75.871 23.464 73.937 47.867zm-51.771 14.275c-5.096-6.2-9.795-14.188-14.771-22.645-5.438-9.245-10.999-18.688-17.565-26.579 24.073 5.453 58.66 22.152 76.929 50.513-13.371 14.893-32.613 13.287-44.593-1.289z"/></g></g></svg>