<svg id="Capa_1" enable-background="new 0 0 512.014 512.014" height="512" viewBox="0 0 512.014 512.014" width="512" xmlns="http://www.w3.org/2000/svg"><g><g><g><path d="m45.468 330.548h421.08v153.776c0 1.675-1.358 3.033-3.033 3.033h-415.014c-1.675 0-3.033-1.358-3.033-3.033z" fill="#ddebfd"/><path d="m442.547 330.548v153.776c0 1.675-1.358 3.033-3.033 3.033h24c1.675 0 3.033-1.358 3.033-3.033v-153.776z" fill="#bed9fd"/><g fill="#6cbff8"><path d="m110.04 395.829v26.247c0 2.792 2.263 5.055 5.055 5.055h38.783c2.792 0 5.055-2.263 5.055-5.055v-26.247c0-2.792-2.263-5.055-5.055-5.055h-38.783c-2.791 0-5.055 2.263-5.055 5.055z"/><path d="m353.081 395.829v26.247c0 2.792 2.263 5.055 5.055 5.055h38.783c2.792 0 5.055-2.263 5.055-5.055v-26.247c0-2.792-2.263-5.055-5.055-5.055h-38.783c-2.792 0-5.055 2.263-5.055 5.055z"/></g><path d="m13.35 330.548h485.314c4.245 0 7.07-4.387 5.313-8.252l-33.997-74.783c-1.641-3.609-5.24-5.926-9.204-5.926h-409.537c-3.965 0-7.563 2.317-9.204 5.926l-33.998 74.783c-1.756 3.864 1.069 8.252 5.313 8.252z" fill="#9cd169"/><path d="m503.977 322.296-33.997-74.783c-1.641-3.609-5.24-5.926-9.204-5.926h-24c3.965 0 7.563 2.317 9.204 5.926l33.997 74.783c1.757 3.864-1.068 8.252-5.313 8.252h24c4.245 0 7.07-4.388 5.313-8.252z" fill="#68b181"/><path d="m219.726 370.009h72.563c2.234 0 4.044 1.811 4.044 4.044v113.304h-80.652v-113.304c.001-2.234 1.811-4.044 4.045-4.044z" fill="#5392f9"/><g><path d="m442.882 283.396h-215.217c-3.216 0-5.364-3.314-4.051-6.25l37.835-84.584c.572-1.278 1.841-2.101 3.241-2.101h141.168c1.4 0 2.669.823 3.241 2.101l37.835 84.584c1.313 2.936-.836 6.25-4.052 6.25z" fill="#407194"/><path d="m446.933 277.146-37.835-84.584c-.572-1.278-1.841-2.101-3.241-2.101h-24c1.4 0 2.669.823 3.241 2.101l37.835 84.584c1.313 2.936-.835 6.25-4.051 6.25h24c3.216 0 5.365-3.314 4.051-6.25z" fill="#365f7e"/></g><path d="m190.571 194.07v73.91c0 2.792-2.263 5.055-5.055 5.055h-112.554c-2.792 0-5.055-2.263-5.055-5.055v-73.91l61.332-36.025z" fill="#ddebfd"/><path d="m150.629 273.031h-42.784v-35.767c0-11.814 9.577-21.392 21.392-21.392 11.814 0 21.392 9.577 21.392 21.392z" fill="#5392f9"/><ellipse cx="335.274" cy="83.666" fill="#ffc269" rx="32.212" ry="32.212" transform="matrix(.974 -.228 .228 .974 -10.243 78.499)"/></g></g><g><path d="m153.88 434.631c6.923 0 12.555-5.632 12.555-12.556v-26.247c0-6.923-5.632-12.555-12.555-12.555h-38.783c-6.923 0-12.556 5.632-12.556 12.555v26.247c0 6.923 5.633 12.556 12.556 12.556zm-36.339-36.357h33.894v21.357h-33.894z"/><path d="m396.919 434.631c6.923 0 12.556-5.632 12.556-12.556v-26.247c0-6.923-5.633-12.555-12.556-12.555h-38.783c-6.923 0-12.555 5.632-12.555 12.555v26.247c0 6.923 5.632 12.556 12.555 12.556zm-36.338-36.357h33.894v21.357h-33.894z"/><path d="m510.804 319.19-12.24-26.93c-1.714-3.77-6.161-5.439-9.932-3.724-3.771 1.714-5.438 6.16-3.725 9.931l11.171 24.576h-480.142l32.931-72.428c.423-.931 1.354-1.532 2.371-1.532h9.17v18.896c0 6.923 5.633 12.555 12.556 12.555h112.552c6.923 0 12.556-5.632 12.556-12.555v-18.896h29.88l-11.183 25.002c-3.531 7.899 2.257 16.811 10.898 16.811h215.216c8.657 0 14.425-8.924 10.897-16.812l-11.183-25.001h18.181c1.018 0 1.948.601 2.373 1.537l7.04 15.47c1.717 3.776 6.169 5.434 9.933 3.72 3.771-1.715 5.436-6.163 3.72-9.933l-7.038-15.465c-2.85-6.274-9.141-10.329-16.027-10.329h-24.89l-19.944-44.586c-1.777-3.97-5.736-6.535-10.086-6.535h-141.169c-4.353 0-8.312 2.567-10.088 6.538l-19.942 44.583h-36.589v-26.909l11.025 6.476c3.564 2.094 8.165.91 10.266-2.668 2.098-3.571.903-8.167-2.668-10.265l-83.655-49.138c-2.346-1.378-5.252-1.378-7.598 0l-83.656 49.138c-3.571 2.098-4.766 6.694-2.668 10.265 2.098 3.573 6.695 4.765 10.266 2.668l11.025-6.476v26.909h-9.17c-6.887 0-13.178 4.054-16.026 10.326l-34 74.779c-4.017 8.834 2.446 18.854 12.137 18.854h24.62v71.588c0 4.142 3.357 7.5 7.5 7.5s7.5-3.358 7.5-7.5v-71.588h406.078v141.813h-155.214v-105.802c0-6.366-5.179-11.544-11.544-11.544h-72.563c-6.365 0-11.544 5.179-11.544 11.544v105.803h-155.214v-35.226c0-4.142-3.357-7.5-7.5-7.5s-7.5 3.358-7.5 7.5v39.692c0 5.808 4.726 10.533 10.533 10.533h415.012c5.808 0 10.533-4.725 10.533-10.533v-146.28h24.62c9.708.001 16.147-10.033 12.138-18.852zm-157.701-121.228 2.383 15.981h-40.426l2.383-15.981zm4.62 30.982 2.382 15.977h-49.664l2.382-15.977zm66.579 15.977h-49.031l-2.382-15.977h44.266zm-61.96 15 2.382 15.976h-58.901l2.382-15.976zm-67.066-15h-49.031l7.146-15.977h44.266zm-55.741 15h53.504l-2.382 15.976h-58.268zm140.355 15.976-2.382-15.976h53.503l7.146 15.976zm30.556-61.953h-39.794l-2.383-15.981h35.028zm-143.196-15.982h35.027l-2.383 15.981h-39.793zm-124.12 67.573h-27.784v-28.271c0-7.66 6.232-13.892 13.893-13.892s13.892 6.232 13.892 13.892v28.271zm-13.89-98.791 53.831 31.619v67.171h-24.941v-28.271c0-15.931-12.961-28.892-28.892-28.892-15.932 0-28.893 12.961-28.893 28.892v28.271h-24.937v-67.171zm93.942 210.765h65.65v102.348h-65.65z"/><path d="m296.915 73.389c-2.745 10.246-1.336 20.948 3.968 30.134s13.867 15.757 24.112 18.503c3.422.917 6.894 1.37 10.343 1.37 6.882 0 13.673-1.805 19.792-5.337 18.964-10.949 25.484-35.285 14.535-54.248-5.304-9.186-13.867-15.757-24.113-18.503-10.245-2.744-20.948-1.336-30.134 3.967-9.187 5.305-15.758 13.868-18.503 24.114zm14.489 3.883c1.708-6.376 5.797-11.705 11.514-15.005 3.808-2.198 8.033-3.321 12.315-3.321 2.146 0 4.308.282 6.437.853 6.376 1.708 11.704 5.798 15.005 11.514 6.813 11.8 2.756 26.944-9.045 33.757-5.717 3.3-12.376 4.177-18.752 2.469s-11.704-5.797-15.005-11.514-4.178-12.377-2.469-18.753z"/><path d="m298.033 34.166c2.082 3.604 6.676 4.807 10.245 2.745 3.588-2.071 4.816-6.658 2.745-10.246l-3.323-5.755c-2.072-3.587-6.659-4.816-10.245-2.745-3.588 2.071-4.816 6.658-2.745 10.246z"/><path d="m267.137 91.168h6.646c4.143 0 7.5-3.358 7.5-7.5s-3.357-7.5-7.5-7.5h-6.646c-4.143 0-7.5 3.358-7.5 7.5s3.358 7.5 7.5 7.5z"/><path d="m297.455 149.171c3.564 2.059 8.16.865 10.245-2.745l3.323-5.755c2.071-3.587.843-8.174-2.745-10.246-3.586-2.072-8.174-.843-10.245 2.745l-3.323 5.755c-2.072 3.587-.843 8.174 2.745 10.246z"/><path d="m372.514 133.171c-2.07-3.588-6.658-4.816-10.244-2.746-3.588 2.071-4.817 6.658-2.746 10.245l3.322 5.755c2.076 3.598 6.667 4.811 10.244 2.746 3.588-2.071 4.817-6.658 2.746-10.245z"/><path d="m396.764 91.168h6.646c4.143 0 7.5-3.358 7.5-7.5s-3.357-7.5-7.5-7.5h-6.646c-4.143 0-7.5 3.358-7.5 7.5s3.358 7.5 7.5 7.5z"/><path d="m362.27 36.911c3.571 2.062 8.165.857 10.244-2.746l3.322-5.755c2.071-3.587.842-8.174-2.746-10.245-3.586-2.07-8.174-.842-10.244 2.746l-3.322 5.755c-2.071 3.587-.842 8.174 2.746 10.245z"/></g></g></svg>