<svg id="Capa_1" enable-background="new 0 0 512 512" height="512" viewBox="0 0 512 512" width="512" xmlns="http://www.w3.org/2000/svg"><g><g><g><ellipse cx="256" cy="356.797" fill="#f4e2c1" rx="125.747" ry="125.747" transform="matrix(.707 -.707 .707 .707 -177.313 285.523)"/><path d="m256 231.051c-4.661 0-9.259.261-13.788.756 62.96 6.868 111.958 60.203 111.958 124.99 0 64.788-48.998 118.123-111.958 124.991 4.529.494 9.128.756 13.788.756 69.448 0 125.747-56.299 125.747-125.747-.001-69.448-56.299-125.746-125.747-125.746z" fill="#efcb83"/><path d="m202.076 388.564c-26.896-38.683 31.681-118.402 123.891-77.017 3.665 1.645 4.108 6.618.845 8.961-21.656 15.548-34.639 50.948-51.933 71.989-19.737 24.013-53.226 24.224-72.803-3.933z" fill="#9cd169"/><path d="m149.012 140.086h-39.823c-25.635 0-46.417-20.781-46.417-46.417v-2.753c0-25.635 20.781-46.417 46.417-46.417h39.823c2.687 0 4.866 2.178 4.866 4.866v85.855c0 2.687-2.179 4.866-4.866 4.866z" fill="#6cbff8"/><path d="m362.988 140.086h39.823c25.635 0 46.417-20.781 46.417-46.417v-2.753c0-25.635-20.781-46.417-46.417-46.417h-39.823c-2.687 0-4.866 2.178-4.866 4.866v85.855c0 2.687 2.179 4.866 4.866 4.866z" fill="#6cbff8"/><path d="m149.012 44.499h-27.577c2.687 0 4.866 2.179 4.866 4.866v85.855c0 2.687-2.178 4.866-4.866 4.866h27.577c2.687 0 4.866-2.179 4.866-4.866v-85.855c0-2.687-2.179-4.866-4.866-4.866z" fill="#5fa7ee"/><path d="m402.811 44.499h-27.577c25.635 0 46.417 20.782 46.417 46.417v2.753c0 25.635-20.781 46.417-46.417 46.417h27.577c25.635 0 46.417-20.782 46.417-46.417v-2.753c0-25.635-20.782-46.417-46.417-46.417z" fill="#5fa7ee"/><path d="m306.676 84.072h-20.027c-1.78 0-3.222-1.443-3.222-3.222v-46.262c0-4.751-5.908-6.942-9.005-3.339l-51.546 59.965c-3.315 3.856-.575 9.824 4.51 9.824h20.027c1.78 0 3.222 1.443 3.222 3.222v46.261c0 4.751 5.908 6.942 9.005 3.339l51.546-59.965c3.315-3.855.575-9.823-4.51-9.823z" fill="#ffc269"/></g></g><g><path d="m473.21 84.793h-16.84c-3.052-26.854-25.901-47.791-53.558-47.791h-39.823c-6.818 0-12.366 5.548-12.366 12.366v85.854c0 6.818 5.548 12.366 12.366 12.366h39.823c27.659 0 50.508-20.939 53.559-47.796h16.84c13.118 0 23.79 10.677 23.79 23.8v201.92c0 13.118-10.672 23.79-23.79 23.79h-84.169c-.986-18.034-5.538-35.352-13.573-51.576-1.839-3.712-6.336-5.231-10.05-3.392-3.712 1.839-5.23 6.338-3.392 10.05 8.109 16.372 12.222 34.008 12.222 52.417 0 65.2-53.046 118.245-118.248 118.245s-118.248-53.045-118.248-118.245c0-65.202 53.046-118.248 118.248-118.248 33.147 0 64.984 14.048 87.348 38.542 2.795 3.06 7.537 3.273 10.596.482 3.06-2.793 3.275-7.537.482-10.596-25.199-27.6-61.074-43.429-98.426-43.429-70.956 0-129.13 55.751-133.033 125.749h-84.178c-13.118 0-23.79-10.671-23.79-23.79v-201.92c0-13.123 10.672-23.8 23.79-23.8h16.84c3.05 26.856 25.9 47.796 53.559 47.796h39.823c6.818 0 12.366-5.548 12.366-12.366v-6.168h24.333c4.143 0 7.5-3.357 7.5-7.5s-3.357-7.5-7.5-7.5h-24.333v-43.517h24.333c4.143 0 7.5-3.357 7.5-7.5s-3.357-7.5-7.5-7.5h-24.333v-6.168c0-6.818-5.548-12.366-12.366-12.366h-39.823c-7.229 0-14.248 1.409-20.864 4.188-3.819 1.604-5.614 6-4.011 9.819 1.604 3.82 6.004 5.614 9.819 4.011 4.767-2.002 9.832-3.018 15.056-3.018h37.189v80.587h-37.189c-21.458 0-38.916-17.458-38.916-38.917v-2.753c0-5.411 1.087-10.646 3.231-15.558 1.658-3.796-.076-8.217-3.872-9.874-3.799-1.66-8.218.075-9.874 3.872-2.157 4.939-3.532 10.111-4.132 15.434h-16.836c-21.389 0-38.79 17.405-38.79 38.8v201.92c0 21.389 17.401 38.79 38.79 38.79h84.177c3.903 69.996 62.076 125.745 133.033 125.745s129.129-55.749 133.033-125.745h84.177c21.389 0 38.79-17.401 38.79-38.79v-201.92c0-21.395-17.401-38.8-38.79-38.8zm-31.482 8.879c0 21.459-17.458 38.917-38.916 38.917h-37.189v-80.587h37.189c21.458 0 38.916 17.458 38.916 38.917z"/><path d="m192.409 421.15c3.34 0 6.386-2.247 7.258-5.631 1.131-4.391 2.624-8.724 4.45-12.983 23.034 22.368 56.406 19.242 76.555-5.273 7.036-8.562 13.364-19.318 19.484-29.722 9.344-15.882 19.005-32.305 31.03-40.938 7.929-5.693 6.805-17.876-2.148-21.896-25.639-11.507-51.363-14.984-74.398-10.052-19.911 4.262-37.696 14.828-50.077 29.752-17.208 20.743-21.301 46.303-10.809 64.978-3.744 7.244-6.639 14.733-8.612 22.392-1.221 4.739 2.359 9.373 7.267 9.373zm94.819-61.214c-6.096 10.361-11.853 20.148-18.144 27.803-15.541 18.908-40.677 20.485-57.57.785 21.062-33.337 63.495-57.785 100.177-64.426-9.345 10.16-17 23.152-24.463 35.838zm-71.121-25.952c12.199-14.705 32.7-26.588 59.639-26.588 8.073 0 16.729 1.073 25.909 3.453-35.829 8.576-74.876 31.009-97.991 62.591-2.465-12.126 1.912-26.761 12.443-39.456z"/><path d="m227.386 108.541h15.748v41.983c0 11.711 14.57 17.097 22.193 8.228l51.545-59.964c3.468-4.032 4.244-9.541 2.025-14.375-2.219-4.835-6.902-7.838-12.222-7.838h-15.749v-41.984c0-5.335-3.231-9.979-8.233-11.834-5.002-1.854-10.48-.438-13.959 3.607l-51.547 59.964c-3.467 4.034-4.242 9.542-2.022 14.376 2.219 4.834 6.901 7.837 12.221 7.837zm48.541-67.533v39.845c0 5.912 4.811 10.723 10.723 10.723h16.644l-45.159 52.534v-39.846c0-5.912-4.81-10.723-10.722-10.723h-16.645z"/></g></g></svg>