<svg id="Capa_1" enable-background="new 0 0 512 512" height="512" viewBox="0 0 512 512" width="512" xmlns="http://www.w3.org/2000/svg"><g><g><g><path d="m95.824 431.123h44.656l-8.886-167.426h-26.884z" fill="#ddebfd"/><path d="m131.594 263.697h-22l8.886 167.426h22z" fill="#bed9fd"/><g fill="#ffc269"><path d="m129.518 146.728 16.767 71.268c.605 2.57.097 5.276-1.399 7.452l-19.469 28.328h-14.527l-19.469-28.328c-1.495-2.176-2.003-4.882-1.399-7.452l16.767-71.268c1.241-5.274 5.946-9.001 11.364-9.001 5.418.001 10.124 3.728 11.365 9.001z"/><path d="m213.766 332.017-70.103-21.113c-2.528-.761-4.618-2.554-5.754-4.937l-14.798-31.025 7.263-12.58 34.267-2.697c2.632-.207 5.23.706 7.153 2.515l53.336 50.154c3.947 3.711 4.822 9.65 2.113 14.342s-8.29 6.903-13.477 5.341z"/><path d="m11.177 312.333 53.336-50.154c1.923-1.809 4.521-2.722 7.153-2.515l34.267 2.697 7.263 12.58-14.798 31.025c-1.137 2.383-3.226 4.176-5.754 4.937l-70.103 21.113c-5.187 1.562-10.768-.649-13.477-5.341s-1.833-10.63 2.113-14.342z"/></g><ellipse cx="118.154" cy="263.693" fill="#9cd169" rx="19.328" ry="19.328" transform="matrix(.993 -.117 .117 .993 -30.056 15.644)"/><path d="m389.803 447.053h-357.133c-4.191 0-5.9-5.418-2.451-7.797 58.608-40.438 133.056-64.642 214.093-64.642 52.033 0 101.34 9.993 145.491 27.84z" fill="#f4e2c1"/><path d="m389.803 429.001v-26.548c-44.151-17.848-93.458-27.84-145.491-27.84-6.774 0-13.498.184-20.174.518 74.215 4.016 126.419 30.827 165.665 53.87z" fill="#efcb83"/><path d="m407.291 190.912 11.901 224.284h-50.691l11.901-224.284z" fill="#ddebfd"/><path d="m407.291 190.912h-19l11.9 224.284h19z" fill="#bed9fd"/><path d="m437.887 443.086v-23.924c0-2.191-1.776-3.967-3.967-3.967h-80.148c-2.191 0-3.967 1.776-3.967 3.967v23.924c0 2.191 1.776 3.967 3.967 3.967h80.148c2.191 0 3.967-1.776 3.967-3.967z" fill="#6cbff8"/><path d="m433.92 415.196h-24c2.191 0 3.967 1.776 3.967 3.967v23.924c0 2.191-1.776 3.967-3.967 3.967h24c2.191 0 3.967-1.776 3.967-3.967v-23.924c0-2.191-1.776-3.967-3.967-3.967z" fill="#5fa7ee"/><g fill="#ffc269"><path d="m405.21 73.948 16.767 71.268c.605 2.57.097 5.276-1.399 7.452l-19.469 28.328h-14.526l-19.469-28.328c-1.495-2.176-2.003-4.882-1.399-7.452l16.767-71.268c1.241-5.274 5.946-9.001 11.364-9.001s10.124 3.727 11.364 9.001z"/><path d="m489.459 259.236-70.103-21.113c-2.528-.761-4.618-2.554-5.754-4.937l-14.798-31.025 7.263-12.58 34.267-2.697c2.632-.207 5.23.706 7.153 2.515l53.336 50.154c3.947 3.711 4.822 9.65 2.113 14.342s-8.29 6.903-13.477 5.341z"/><path d="m286.87 239.553 53.336-50.154c1.923-1.809 4.521-2.722 7.153-2.515l34.267 2.697 7.263 12.58-14.798 31.025c-1.137 2.383-3.226 4.176-5.754 4.937l-70.103 21.113c-5.187 1.562-10.768-.649-13.477-5.341s-1.834-10.631 2.113-14.342z"/></g><ellipse cx="393.846" cy="190.912" fill="#9cd169" rx="19.328" ry="19.328" transform="matrix(.993 -.117 .117 .993 -19.641 47.417)"/></g></g><g><path d="m505.941 234.086-53.334-50.153c-3.448-3.235-8.133-4.887-12.879-4.526l-20.936 1.651c-.967-2.46-2.293-4.756-3.943-6.826l11.912-17.327c2.67-3.908 3.585-8.787 2.508-13.398l-16.769-71.262c-2.044-8.705-9.718-14.784-18.66-14.784-8.948 0-16.626 6.079-18.67 14.782l-16.755 71.25c-1.094 4.606-.185 9.495 2.506 13.43l11.911 17.327c-1.631 2.057-2.964 4.35-3.94 6.809l-20.97-1.655c-4.725-.357-9.42 1.294-12.857 4.534l-53.333 50.144c-6.519 6.123-7.946 15.81-3.472 23.552 3.504 6.076 9.854 9.609 16.559 9.609 5.039 0 1.489.106 75.172-21.792l-7.398 139.37c-37.873-11.753-77.612-17.72-118.285-17.72-12.353 0-24.887.569-37.255 1.691-4.125.374-7.166 4.021-6.792 8.146.374 4.124 4.013 7.168 8.147 6.791 11.919-1.081 23.998-1.629 35.9-1.629 40.462 0 79.946 6.128 117.463 18.192l-.392 7.392h-7.615c-6.323 0-11.466 5.144-11.466 11.466v20.389h-298.992c38.683-24.893 83.668-42.501 130.774-51.116 4.074-.745 6.773-4.652 6.028-8.726-.745-4.075-4.655-6.772-8.727-6.028-8.791 1.608-17.51 3.524-26.136 5.725l-3.248-61.171c73.65 21.889 70.133 21.795 75.182 21.795 6.701 0 13.051-3.528 16.559-9.599 4.47-7.753 3.043-17.442-3.469-23.559l-53.33-50.139c-3.443-3.247-8.132-4.907-12.884-4.539l-20.945 1.652c-.982-2.484-2.32-4.772-3.944-6.812l11.921-17.339c2.68-3.919 3.589-8.809 2.499-13.399l-16.759-71.264c-2.044-8.705-9.722-14.784-18.67-14.784-8.942 0-16.616 6.079-18.66 14.781l-16.77 71.277c-1.075 4.6-.16 9.479 2.521 13.404l11.903 17.315c-.016.02-.033.039-.049.059-1.645 2.084-2.95 4.36-3.902 6.761l-20.953-1.653c-4.729-.362-9.408 1.293-12.863 4.534l-53.326 50.145c-6.507 6.113-7.942 15.797-3.478 23.567 4.432 7.67 13.5 11.364 22.135 8.768l69.593-20.967-4.232 79.758c-22.74 9.645-44.295 21.416-64.106 35.085-4.259 2.939-6.085 8.236-4.544 13.181 1.544 4.957 6.067 8.288 11.254 8.288h401.226c6.323 0 11.466-5.144 11.466-11.466v-23.922c0-6.322-5.143-11.466-11.466-11.466h-7.618l-4.602-86.787c-.219-4.136-3.749-7.319-7.886-7.092-4.135.219-7.311 3.75-7.091 7.886l4.56 85.993h-34.871l9.673-182.216 3.824-8.02c2.687.4 5.222.385 7.871-.006l3.832 8.031 3.251 61.239c.212 4.001 3.522 7.102 7.482 7.102.135 0 .27-.003.404-.011 4.136-.219 7.311-3.75 7.091-7.886l-2.149-40.47c73.599 21.875 70.117 21.795 75.174 21.795 6.71 0 13.064-3.534 16.569-9.613 4.462-7.747 3.03-17.43-3.479-23.544zm-399.527 30.989c-.828-7.022 4.647-13.213 11.755-13.213 5.908 0 11.175 4.424 11.738 10.447.003.028 0 .06.003.088.001.017.005.034.007.051.677 6.42-3.943 12.23-10.371 12.988-6.493.764-12.366-3.867-13.132-10.361zm58.799 2.061c.537-.039 1.058.141 1.443.506l53.339 50.149c1.417 1.33 1.725 3.443.751 5.131-.975 1.685-2.956 2.469-4.813 1.911l-70.112-21.121c-.505-.151-.911-.502-1.138-.976l-8.96-18.782c4.484-3.898 7.625-9.234 8.777-15.184zm-67.884-47.417 16.768-71.268c.445-1.893 2.114-3.215 4.059-3.215 1.951 0 3.624 1.322 4.069 3.217l16.763 71.282c.119.504.016 1.045-.273 1.468l-11.784 17.14c-5.559-1.933-11.708-2.01-17.543-.004l-11.768-17.119c-.304-.446-.409-.997-.291-1.501zm-6.843 83.995-70.092 21.117c-1.866.563-3.852-.225-4.817-1.893-.976-1.699-.667-3.816.754-5.15l53.321-50.14c.396-.371.92-.551 1.438-.514l20.736 1.636c1.133 5.927 4.187 11.232 8.767 15.192-.778 1.63-8.032 16.846-8.949 18.764-.227.475-.648.834-1.158.988zm19.901-5.445 3.838-8.048c2.73.401 5.133.402 7.868-.002l3.822 8.011 4.527 85.255c-8.457 2.518-16.805 5.316-25.021 8.388zm319.988 141.271c-15.429 0-57.71 0-73.077 0v-16.856h73.077zm-57.363-292.598 16.759-71.267c.445-1.893 2.118-3.215 4.069-3.215 1.945 0 3.614 1.322 4.059 3.218l16.767 71.255c.12.516.015 1.066-.277 1.494l-11.776 17.128c-5.678-1.971-11.865-1.953-17.548.013l-11.772-17.125c-.3-.44-.404-.981-.281-1.501zm-5.694 83.006c-.232.486-.639.837-1.149.99l-70.105 21.118c-1.862.559-3.839-.227-4.814-1.92-.974-1.685-.665-3.791.754-5.124l53.343-50.154c.379-.357.9-.536 1.416-.5l20.739 1.636c1.17 6.083 4.354 11.35 8.771 15.176zm14.772-37.648c-.763-6.477 3.885-12.368 10.362-13.131 6.501-.757 12.353 3.865 13.128 10.344.002.037 0 .073.003.111.003.035.01.069.013.104.655 6.454-3.977 12.18-10.375 12.935-6.461.76-12.368-3.886-13.131-10.363zm114.336 57.842c-.974 1.688-2.958 2.474-4.819 1.915l-70.102-21.121c-.505-.152-.925-.511-1.147-.976l-8.955-18.767c4.693-4.084 7.686-9.482 8.781-15.2l20.7-1.632c.538-.039 1.065.14 1.454.505l53.331 50.149c1.417 1.332 1.728 3.442.757 5.127z"/><path d="m223.574 120.54h64.232c4.142 0 7.5-3.358 7.5-7.5s-3.357-7.5-7.5-7.5h-64.232c-6.091 0-11.047-4.956-11.047-11.047s4.956-11.047 11.047-11.047c3.648 0 7.058 1.801 9.123 4.817 2.34 3.417 7.009 4.291 10.425 1.95 3.418-2.34 4.291-7.008 1.951-10.425-4.863-7.101-12.901-11.341-21.5-11.341-14.362 0-26.046 11.684-26.046 26.046s11.684 26.047 26.047 26.047z"/><path d="m235.163 140.841c0 4.142 3.357 7.5 7.5 7.5h64.232c4.142 0 7.5-3.358 7.5-7.5s-3.357-7.5-7.5-7.5h-64.232c-4.143.001-7.5 3.359-7.5 7.5z"/><path d="m222.465 161.142c-4.142 0-7.5 3.358-7.5 7.5s3.357 7.5 7.5 7.5h64.232c4.142 0 7.5-3.358 7.5-7.5s-3.357-7.5-7.5-7.5z"/></g></g></svg>