<svg id="Capa_1" enable-background="new 0 0 512 512" height="512" viewBox="0 0 512 512" width="512" xmlns="http://www.w3.org/2000/svg"><g><g><g><path d="m152.269 153.989 15.335 309.46h-65.319l15.334-309.46z" fill="#ddebfd"/><path d="m152.269 153.989h-24l15.335 309.46h24z" fill="#bed9fd"/><path d="m191.695 499.388v-30.828c0-2.823-2.288-5.111-5.111-5.111h-103.279c-2.823 0-5.112 2.288-5.112 5.111v30.828c0 2.823 2.288 5.112 5.112 5.112h103.278c2.823 0 5.112-2.288 5.112-5.112z" fill="#9cd169"/><path d="m186.583 463.449h-24c2.823 0 5.111 2.289 5.111 5.112v30.828c0 2.823-2.288 5.112-5.111 5.112h24c2.823 0 5.111-2.289 5.111-5.112v-30.828c.001-2.823-2.288-5.112-5.111-5.112z" fill="#68b181"/><g fill="#ffc269"><path d="m147.682 17.589 18.794 79.885c.678 2.881.108 5.914-1.568 8.353l-21.823 31.753h-16.283l-21.823-31.753c-1.676-2.439-2.246-5.472-1.568-8.353l18.794-79.885c1.391-5.911 6.665-10.089 12.738-10.089 6.074 0 11.349 4.178 12.739 10.089z"/><path d="m242.117 225.281-78.579-23.666c-2.834-.853-5.176-2.863-6.45-5.534l-16.588-34.777 8.141-14.101 38.411-3.023c2.95-.232 5.862.791 8.018 2.819l59.785 56.218c4.424 4.16 5.405 10.817 2.368 16.076-3.036 5.26-9.291 7.739-15.106 5.988z"/><path d="m15.033 203.218 59.785-56.218c2.156-2.027 5.067-3.051 8.018-2.819l38.411 3.023 8.141 14.101-16.588 34.776c-1.274 2.671-3.616 4.681-6.45 5.534l-78.579 23.666c-5.815 1.751-12.07-.728-15.106-5.987s-2.056-11.916 2.368-16.076z"/></g><ellipse cx="134.944" cy="148.696" fill="#9cd169" rx="21.665" ry="21.665" transform="matrix(.993 -.117 .117 .993 -16.479 16.819)"/><path d="m476.133 504.5h-155.983c-2.893 0-5.238-2.345-5.238-5.238v-99.292h166.459v99.292c0 2.893-2.345 5.238-5.238 5.238z" fill="#5392f9"/><path d="m457.371 399.97v99.292c0 2.893-2.345 5.238-5.238 5.238h24c2.893 0 5.238-2.345 5.238-5.238v-99.292z" fill="#4071f7"/><path d="m495.871 368.266h-195.458c-2.893 0-5.238 2.345-5.238 5.238v21.228c0 2.893 2.345 5.238 5.238 5.238h195.458c2.893 0 5.238-2.345 5.238-5.238v-21.228c0-2.893-2.345-5.238-5.238-5.238z" fill="#9cd169"/><path d="m495.871 368.266h-24c2.893 0 5.238 2.345 5.238 5.238v21.228c0 2.893-2.345 5.238-5.238 5.238h24c2.893 0 5.238-2.345 5.238-5.238v-21.228c0-2.893-2.346-5.238-5.238-5.238z" fill="#68b181"/><g fill="#6cbff8"><path d="m458.365 332.565h-10.307c-6.083 0-11.014 4.931-11.014 11.014v24.687h32.336v-24.687c-.001-6.083-4.932-11.014-11.015-11.014z"/><path d="m348.226 332.565h-10.307c-6.083 0-11.014 4.931-11.014 11.014v24.687h32.336v-24.687c-.001-6.083-4.932-11.014-11.015-11.014z"/></g></g></g><g><path d="m403.909 422.311c-3.65-1.956-8.196-.582-10.152 3.07l-12.487 23.313c-2.665 4.976.931 11.042 6.611 11.042h7.995l-6.573 12.272c-1.956 3.651-.581 8.197 3.07 10.152 3.651 1.957 8.197.581 10.152-3.07l12.487-23.313c2.666-4.976-.933-11.041-6.611-11.041h-7.995l6.573-12.271c1.956-3.653.581-8.199-3.07-10.154z"/><path d="m495.87 360.766h-18.992v-17.186c0-9.412-7.066-17.19-16.169-18.349v-30.891c0-23.015-18.729-41.74-41.75-41.74h-168.7c-23.021 0-41.75 18.725-41.75 41.74v64.71c0 3.579-2.907 6.49-6.48 6.49h-31.77l-7.747-156.407 77.444 23.328c9.159 2.76 18.95-1.073 23.756-9.418 4.802-8.31 3.275-18.707-3.716-25.287l-59.792-56.222c-3.686-3.463-8.691-5.221-13.743-4.831l-24.161 1.898c-1.164-3.153-2.85-6.029-4.944-8.54l13.741-19.994c2.852-4.166 3.831-9.376 2.682-14.315l-18.8-79.879c-2.197-9.346-10.438-15.873-20.04-15.873-9.595 0-17.833 6.527-20.03 15.872l-18.799 79.876c-1.165 4.935-.183 10.16 2.688 14.33l13.727 19.977c-2.165 2.607-3.796 5.427-4.95 8.546l-24.152-1.898c-5.063-.392-10.074 1.371-13.741 4.833l-59.793 56.223c-6.989 6.577-8.516 16.974-3.719 25.275 3.757 6.522 10.573 10.314 17.774 10.314 5.426 0 1.377.181 83.432-24.215l-3.419 68.996c-.205 4.137 2.982 7.657 7.12 7.862.126.006.252.009.377.009 3.971 0 7.286-3.118 7.484-7.129l4.326-87.31 6.734-14.11c3.262.556 6.584.553 9.891-.013l6.733 14.12 13.096 264.392h-49.558l7.049-142.098c.205-4.137-2.982-7.657-7.119-7.862-4.14-.196-7.657 2.982-7.862 7.119l-7.086 142.841h-11.837c-6.954 0-12.611 5.657-12.611 12.611v30.828c0 6.954 5.657 12.611 12.611 12.611h103.278c6.954 0 12.611-5.657 12.611-12.611v-30.828c0-6.954-5.657-12.611-12.611-12.611h-11.845l-1.572-31.729h69.654c13.542 0 24.56-11.018 24.56-24.56v-77.72c0-2.686 2.185-4.87 4.87-4.87h58.45c2.686 0 4.87 2.185 4.87 4.87v3.291c-9.101 1.16-16.166 8.937-16.166 18.348v17.187h-18.992c-7.023 0-12.738 5.714-12.738 12.738v21.228c0 7.024 5.714 12.738 12.738 12.738h7v18.674c0 4.142 3.358 7.5 7.5 7.5s7.5-3.358 7.5-7.5v-18.675h151.458v89.53h-151.459v-35.855c0-4.142-3.358-7.5-7.5-7.5s-7.5 3.358-7.5 7.5v38.117c0 7.024 5.714 12.738 12.738 12.738h155.982c7.024 0 12.738-5.714 12.738-12.738v-91.792h7c7.023 0 12.738-5.714 12.738-12.738v-21.228c.001-7.024-5.714-12.738-12.737-12.738zm-311.676 136.234h-98.5v-26.051h98.5zm277.684-153.42v17.187h-17.335v-17.187c0-1.938 1.577-3.514 3.514-3.514h5.065c.029 0 .058.004.087.004s.058-.004.087-.004h5.068c1.938-.001 3.514 1.576 3.514 3.514zm-351.168-244.392 18.8-79.881c.597-2.536 2.829-4.307 5.429-4.307 2.606 0 4.843 1.771 5.439 4.308l18.795 79.861c.194.835.029 1.719-.446 2.413l-13.606 19.797c-6.733-2.522-13.945-2.4-20.37-.017l-13.595-19.785c-.478-.695-.641-1.564-.446-2.389zm-6.524 95.241-78.58 23.67c-2.49.75-5.14-.298-6.443-2.562-1.302-2.253-.889-5.072 1.004-6.853l59.801-56.23c.605-.572 1.434-.863 2.284-.796l23.931 1.881c1.161 6.944 4.742 13.139 10.192 17.637l-10.348 21.683c-.36.754-1.028 1.326-1.841 1.57zm16.689-44.075c-.988-8.393 5.542-15.825 14.096-15.825 6.937 0 13.174 5.17 14.04 12.509.925 7.85-4.717 14.82-12.41 15.726-7.753.917-14.806-4.616-15.726-12.41zm42.824 3.184 23.934-1.88c.842-.068 1.684.228 2.299.806l59.788 56.218c1.895 1.783 2.309 4.603 1.001 6.865-1.298 2.253-3.945 3.301-6.438 2.552l-78.593-23.674c-.802-.24-1.468-.811-1.831-1.573l-10.343-21.69c5.324-4.416 9.006-10.654 10.183-17.624zm167 148.532h-58.45c-10.957 0-19.87 8.914-19.87 19.87v77.72c0 5.271-4.289 9.56-9.56 9.56h-70.397l-1.421-28.68h31.027c11.844 0 21.48-9.641 21.48-21.49v-64.71c0-14.744 12-26.74 26.75-26.74h168.7c14.75 0 26.75 11.996 26.75 26.74v30.891c-9.102 1.16-16.167 8.937-16.167 18.348v17.187h-62.804v-17.186c0-9.413-7.066-17.191-16.17-18.349v-3.291c.002-10.957-8.911-19.87-19.868-19.87zm3.705 41.51c0-1.938 1.577-3.514 3.514-3.514h5.064c.029 0 .058.004.087.004s.058-.004.087-.004h5.069c1.938 0 3.514 1.577 3.514 3.514v17.187h-17.335zm159.204 48.89h-190.934v-16.704h190.934z"/></g></g></svg>