<svg id="Capa_1" enable-background="new 0 0 512 512" height="512" viewBox="0 0 512 512" width="512" xmlns="http://www.w3.org/2000/svg"><g><g><g><ellipse cx="389.104" cy="95.313" fill="#ffc269" rx="36.521" ry="36.521" transform="matrix(.707 -.707 .707 .707 46.57 303.054)"/><g><path d="m479.046 493.938h-158.971c-2.948 0-5.338-2.39-5.338-5.338v-101.194h169.647v101.194c0 2.948-2.39 5.338-5.338 5.338z" fill="#5392f9"/><path d="m459.925 387.406v101.194c0 2.948-2.39 5.338-5.338 5.338h24.46c2.948 0 5.338-2.39 5.338-5.338v-101.194z" fill="#4071f7"/><path d="m499.162 355.095h-199.202c-2.948 0-5.338 2.39-5.338 5.338v21.634c0 2.948 2.39 5.338 5.338 5.338h199.202c2.948 0 5.338-2.39 5.338-5.338v-21.634c0-2.948-2.39-5.338-5.338-5.338z" fill="#9cd169"/><path d="m499.162 355.095h-24.46c2.948 0 5.338 2.39 5.338 5.338v21.634c0 2.948-2.39 5.338-5.338 5.338h24.46c2.948 0 5.338-2.39 5.338-5.338v-21.634c0-2.948-2.39-5.338-5.338-5.338z" fill="#68b181"/><g fill="#6cbff8"><path d="m460.937 318.71h-10.505c-6.199 0-11.225 5.026-11.225 11.225v25.16h32.955v-25.16c.001-6.199-5.025-11.225-11.225-11.225z"/><path d="m348.689 318.71h-10.505c-6.199 0-11.225 5.026-11.225 11.225v25.16h32.955v-25.16c0-6.199-5.026-11.225-11.225-11.225z"/></g></g><path d="m241.591 129.672h-170.928c-2.983 0-5.587 2.022-6.326 4.912l-56.66 221.529c-.905 3.54 1.769 6.984 5.423 6.984h286.054c3.654 0 6.328-3.444 5.423-6.984l-56.66-221.53c-.739-2.89-3.343-4.911-6.326-4.911z" fill="#407194"/><path d="m304.577 356.113-56.66-221.53c-.739-2.89-3.343-4.912-6.326-4.912h-25.479c2.983 0 5.587 2.022 6.326 4.912l56.659 221.53c.905 3.54-1.769 6.984-5.422 6.984h25.479c3.654 0 6.328-3.444 5.423-6.984z" fill="#365f7e"/><g fill="#9ec8fc"><path d="m50.672 363.097v127.784c0 1.689 1.369 3.057 3.057 3.057h24.482c1.689 0 3.057-1.369 3.057-3.057v-127.784z"/><path d="m224.11 363.097v127.784c0 1.689 1.369 3.057 3.057 3.057h24.482c1.689 0 3.057-1.369 3.057-3.057v-127.784z"/></g></g></g><g><path d="m389.033 139.353c15.068 0 29.939-7.73 38.195-22.029 12.164-21.069 4.96-47.967-16.113-60.133-21.021-12.137-47.997-4.908-60.133 16.113-16.978 29.407 4.533 66.049 38.051 66.049zm.121-73.054c12.702 0 24.478 8.425 27.983 21.503 4.151 15.493-5.026 31.391-20.52 35.543-15.494 4.151-31.391-5.026-35.543-20.52-4.927-18.384 8.897-36.526 28.08-36.526z"/><path d="m318.454 63.183c5.597 3.1 7.059 4.774 10.268 4.774 2.592 0 5.113-1.345 6.502-3.751 2.071-3.587.842-8.174-2.745-10.245l-6.525-3.768c-3.587-2.072-8.174-.843-10.245 2.745-2.071 3.587-.879 8.239 2.745 10.245z"/><path d="m325.954 140.434 6.525-3.768c3.587-2.071 4.816-6.658 2.745-10.245s-6.659-4.815-10.245-2.745l-6.525 3.768c-3.587 2.071-4.816 6.658-2.745 10.245 2.076 3.597 6.666 4.811 10.245 2.745z"/><path d="m381.605 165.029v7.535c0 4.142 3.358 7.5 7.5 7.5s7.5-3.358 7.5-7.5v-7.535c0-4.142-3.358-7.5-7.5-7.5s-7.5 3.358-7.5 7.5z"/><path d="m445.73 136.666c5.597 3.1 7.059 4.774 10.268 4.774 2.592 0 5.113-1.345 6.502-3.751 2.071-3.587.842-8.174-2.745-10.245l-6.525-3.768c-3.588-2.072-8.174-.842-10.245 2.745s-.879 8.239 2.745 10.245z"/><path d="m453.23 66.951 6.525-3.768c3.587-2.071 4.816-6.658 2.745-10.245-2.072-3.588-6.66-4.815-10.245-2.745l-6.525 3.768c-3.587 2.071-4.816 6.658-2.745 10.245 2.076 3.597 6.666 4.811 10.245 2.745z"/><path d="m389.105 33.098c4.142 0 7.5-3.358 7.5-7.5v-7.535c0-4.142-3.358-7.5-7.5-7.5s-7.5 3.358-7.5 7.5v7.535c0 4.142 3.358 7.5 7.5 7.5z"/><path d="m393.75 471.041c3.66 1.959 8.201.574 10.153-3.07l12.727-23.759c2.665-4.976-.931-11.041-6.611-11.041h-8.388l6.812-12.719c1.956-3.651.581-8.197-3.07-10.152-3.649-1.956-8.197-.582-10.152 3.07l-12.726 23.759c-2.665 4.976.931 11.041 6.611 11.041h8.388l-6.812 12.718c-1.957 3.652-.583 8.197 3.068 10.153z"/><path d="m499.16 347.589h-19.497v-17.655c0-9.561-7.208-17.458-16.473-18.576v-64.278c0-15.379-12.512-27.89-27.89-27.89h-158.001l-22.115-86.464c-1.589-6.214-7.179-10.554-13.592-10.554h-170.926c-6.414 0-12.003 4.34-13.592 10.554l-56.659 221.528c-1.01 3.948-.155 8.058 2.344 11.277s6.27 5.065 10.345 5.065h30.072v55.987c0 4.142 3.358 7.5 7.5 7.5s7.5-3.358 7.5-7.5v-55.987h15.597v115.84h-15.598v-24.853c0-4.142-3.358-7.5-7.5-7.5s-7.5 3.358-7.5 7.5v29.296c0 5.821 4.736 10.557 10.558 10.557h24.482c5.821 0 10.557-4.736 10.557-10.557v-120.283h127.84v120.283c0 5.821 4.736 10.557 10.558 10.557h24.481c5.821 0 10.558-4.736 10.558-10.557v-120.283h24.913v11.473c0 7.08 5.76 12.84 12.84 12.84h7.277v93.689c0 7.079 5.759 12.838 12.838 12.838h158.97c7.079 0 12.838-5.759 12.838-12.838v-25.731c0-4.142-3.358-7.5-7.5-7.5s-7.5 3.358-7.5 7.5v23.569h-154.647v-91.527h154.646v32.958c0 4.142 3.358 7.5 7.5 7.5s7.5-3.358 7.5-7.5v-32.958h7.276c7.08 0 12.84-5.76 12.84-12.84v-21.639c0-7.081-5.76-12.841-12.84-12.841zm-34.497-17.654v17.655h-17.955v-17.655c0-2.054 1.671-3.725 3.725-3.725h10.505c2.054-.001 3.725 1.67 3.725 3.725zm-29.363-95.745c7.107 0 12.89 5.783 12.89 12.89v64.277c-9.27 1.113-16.482 9.013-16.482 18.577v17.655h-64.293v-17.655c0-9.562-7.208-17.459-16.474-18.576v-18.668c0-9.754-7.94-17.69-17.7-17.69h-41.668l-10.438-40.81zm-100.84 113.399v-17.655c0-2.054 1.671-3.725 3.725-3.725h10.504c2.054 0 3.725 1.671 3.725 3.725v17.655zm-24.321 0-14.729-57.589h37.831c1.489 0 2.7 1.207 2.7 2.69v18.668c-9.269 1.114-16.481 9.013-16.481 18.577v17.655h-9.321zm-97.044 8.007-3.697-43.358h76.216l11.09 43.358zm-171.525-101.716h66.266l-3.697 43.359h-73.659zm14.924-58.349h56.317l-3.696 43.349h-63.709zm122.925-58.359 3.697 43.359h-53.972l3.697-43.359zm4.975 58.359 3.696 43.349h-63.922l3.696-43.349zm97.385 101.707h-73.659l-3.697-43.359h66.266zm-14.926-58.358h-63.708l-3.696-43.349h56.317zm-143.963 15h66.48l3.697 43.359h-73.873zm71.455 58.358 3.697 43.358h-83.824l3.697-43.358zm57.584-131.707h-53.759l-3.697-43.359h46.366zm-180.509-43.359h46.366l-3.697 43.359h-53.759zm-44.776 175.066h76.216l-3.697 43.358h-83.609zm220.564 174.198h-15.597v-115.84h15.597zm249.792-106.527c-10.634 0-184.948 0-194.879 0v-9.649c2.904-.668 5.5-2.31 7.379-4.729.71-.915 1.272-1.908 1.711-2.942h185.788v17.32z"/></g></g></svg>