<svg id="Capa_1" enable-background="new 0 0 512 512" height="512" viewBox="0 0 512 512" width="512" xmlns="http://www.w3.org/2000/svg"><g><g><g><path d="m184.347 79.582v47.968c0 3.402 2.758 6.16 6.16 6.16h77.831v-60.288h-77.831c-3.402 0-6.16 2.758-6.16 6.16z" fill="#9cd169"/><path d="m87.375 459.162h380.469c3.629 0 6.985-1.91 8.833-5.033 7.793-13.17 27.823-49.113 27.823-70.621 0-26.701-116.342-146.857-241.583-146.857-5.783 0-31.233 0-31.233 0-55.832 0-135.449 27.85-163.38 47.747-1.506 1.073-2.339 2.861-2.153 4.701 4.444 44.16-6.059 60.193-26.098 72.921-1.625 1.032-2.563 2.889-2.362 4.803 3.823 36.473 22.776 73.405 46.642 91.342.873.658 1.947.997 3.042.997z" fill="#ddebfd"/><path d="m262.917 236.651c-3.634 0-15.029 0-23 0 125.242 0 241.583 120.156 241.583 146.857 0 21.507-20.03 57.45-27.823 70.621-1.848 3.123-5.204 5.033-8.833 5.033h23c3.629 0 6.985-1.91 8.833-5.033 7.793-13.17 27.823-49.113 27.823-70.621 0-26.701-116.342-146.857-241.583-146.857z" fill="#bed9fd"/><path d="m490.695 357.07c-11.707 4.136-20.098 15.294-20.098 28.417 0 15.16 11.195 27.701 25.768 29.817 4.638-11.31 8.135-22.812 8.135-31.796 0-5.485-4.918-14.918-13.805-26.438z" fill="#ffc269"/><path d="m496.365 415.304c4.638-11.31 8.135-22.812 8.135-31.796 0-5.485-4.918-14.918-13.805-26.438-6.151 2.173-11.37 6.297-14.954 11.614 3.747 6.22 5.759 11.329 5.759 14.825 0 6.12-1.625 13.41-4.125 21.011 4.656 5.705 11.358 9.676 18.99 10.784z" fill="#ffa95f"/><path d="m254.823 332.539h213.828c-43.96-43.322-122.894-95.888-205.735-95.888-5.783 0-31.233 0-31.233 0-12.321 0-25.801 1.361-39.627 3.688 27.459 25.274 49.118 56.749 62.767 92.2z" fill="#5392f9"/><path d="m468.651 332.539c-43.96-43.322-122.894-95.888-205.735-95.888-3.634 0-15.029 0-23 0 82.841 0 161.774 52.566 205.735 95.888z" fill="#4071f7"/><path d="m271.081 420.393c0-71.231-30.448-135.342-79.028-180.056-48.829 8.221-101.987 28.556-123.753 44.063-1.505 1.072-2.336 2.858-2.151 4.696 4.445 44.162-6.058 60.196-26.098 72.925-1.625 1.032-2.563 2.889-2.362 4.803 3.823 36.473 22.776 73.405 46.642 91.342.876.658 1.949.997 3.044.997h180.637c2.011-12.63 3.069-25.576 3.069-38.77z" fill="#bed9fd"/><path d="m91.33 347.988c10.845 0 19.636-8.791 19.636-19.636s-8.791-19.636-19.636-19.636h-24.185c-.17 18.349-4.078 30.309-10.985 39.272z" fill="#db387e"/><g fill="#ddebfd"><path d="m294.445 86.169v-29.023h66.052c8.014 0 14.511 6.497 14.511 14.511s-6.497 14.511-14.511 14.511h-66.052z"/><path d="m294.445 149.986v-29.023h66.052c8.014 0 14.511 6.497 14.511 14.511s-6.497 14.511-14.511 14.511h-66.052z"/></g><path d="m221.743 111.019v-14.906c0-31.516 25.548-57.064 57.064-57.064h39.072c4.075 0 7.379 3.304 7.379 7.379v114.276c0 4.075-3.304 7.379-7.379 7.379h-39.072c-31.515 0-57.064-25.548-57.064-57.064z" fill="#6cbff8"/><path d="m317.879 39.049h-27c4.075 0 7.379 3.304 7.379 7.379v114.275c0 4.075-3.304 7.379-7.379 7.379h27c4.075 0 7.379-3.304 7.379-7.379v-114.275c0-4.075-3.304-7.379-7.379-7.379z" fill="#5fa7ee"/><circle cx="146.569" cy="425.214" fill="#407194" r="47.737"/><circle cx="395.006" cy="425.214" fill="#407194" r="47.737"/><g fill="#c2d6e5"><circle cx="146.568" cy="425.214" r="16.939"/><circle cx="395.006" cy="425.214" r="16.939"/></g></g></g><g><path d="m474.233 327.542c-1.428-1.594-17.74-17.57-39.073-33.486-32.493-24.241-98.076-64.906-172.24-64.906h-31.24c-28.833 0-60.108 7.006-81.268 12.883-3.991 1.109-6.328 5.243-5.219 9.234s5.245 6.327 9.234 5.219c9.917-2.755 22.136-5.764 35.205-8.123 46.201 43.82 73.949 105.098 73.949 172.029 0 10.419-.701 20.908-2.066 31.268h-66.466c4.304-7.859 6.757-16.871 6.757-26.446 0-30.458-24.779-55.237-55.237-55.237s-55.237 24.779-55.237 55.237c0 9.575 2.452 18.587 6.757 26.446h-9.927c-21.52-16.614-38.955-50.872-42.845-84.112 5.452-3.566 10.288-7.452 14.39-12.06h31.623c14.963 0 27.136-12.173 27.136-27.136s-12.173-27.136-27.136-27.136h-16.816c-.135-3.625-.385-7.436-.766-11.473 10.271-7.032 27.52-15.227 47.658-22.623 3.888-1.428 5.882-5.738 4.454-9.626s-5.737-5.884-9.626-4.454c-22.398 8.227-40.966 17.194-52.291 25.255-3.705 2.644-5.718 7.079-5.256 11.556 4.264 42.41-5.86 55.167-22.662 65.84-4.01 2.55-6.285 7.225-5.795 11.91.545 5.204 1.39 10.412 2.491 15.579h-11.131c-3.634 0-6.59-2.957-6.59-6.59v-151.23c0-6.893 5.607-12.5 12.5-12.5h76.86c18.069 0 32.77-14.701 32.77-32.77s-14.701-32.77-32.77-32.77h-70.01c-10.67 0-19.35-8.68-19.35-19.35s8.68-19.35 19.35-19.35h142.5v18.93c0 7.532 6.128 13.66 13.66 13.66h31.251c10.854 20.426 32.347 34.373 57.046 34.373h39.072c8.204 0 14.879-6.675 14.879-14.879v-3.213h27.742c12.136 0 22.01-9.878 22.01-22.02 0-12.137-9.874-22.01-22.01-22.01h-27.742v-19.791h27.742c12.136 0 22.01-9.874 22.01-22.01 0-12.137-9.874-22.01-22.01-22.01h-27.742v-3.222c0-8.204-6.675-14.879-14.879-14.879h-39.072c-24.698 0-46.191 13.946-57.045 34.371h-31.252c-7.532 0-13.66 6.128-13.66 13.66v14.04h-142.5c-18.941 0-34.35 15.409-34.35 34.35 0 18.94 15.409 34.35 34.35 34.35h70.01c9.798 0 17.77 7.972 17.77 17.77s-7.972 17.77-17.77 17.77h-76.86c-15.164 0-27.5 12.336-27.5 27.5v151.23c0 11.905 9.685 21.59 21.59 21.59h15.106c8.651 27.273 24.366 51.879 43.178 66.022 2.177 1.608 4.772 2.458 7.506 2.458h22.733c9.735 8.573 22.494 13.791 36.456 13.791s26.72-5.217 36.456-13.791h113.666c4.143 0 7.5-3.358 7.5-7.5s-3.357-7.5-7.5-7.5h-20.052c1.285-10.371 1.943-20.851 1.943-31.268 0-27.655-4.406-54.583-13.086-80.354h200.086c5.126 5.158 9.646 10.077 13.533 14.643-24.323 17.106-20.034 53.955 6.981 65.458-5.939 12.985-12.706 24.821-15.867 30.165-.496.836-1.411 1.355-2.389 1.355h-24.354c4.304-7.859 6.757-16.871 6.757-26.446 0-30.458-24.779-55.237-55.236-55.237-30.458 0-55.237 24.779-55.237 55.237 0 9.575 2.452 18.587 6.757 26.446h-14.837c-4.143 0-7.5 3.358-7.5 7.5s3.357 7.5 7.5 7.5h26.859c9.735 8.573 22.494 13.791 36.456 13.791 13.961 0 26.72-5.217 36.455-13.791h36.379c6.249 0 12.108-3.336 15.295-8.712 25.116-42.459 28.866-64.862 28.866-74.437 0-16.49-26.131-44.467-37.767-55.968zm-370.767.81c0 6.692-5.444 12.136-12.136 12.136h-22.24c2.767-6.68 4.571-14.604 5.246-24.272h16.994c6.692 0 12.136 5.444 12.136 12.136zm257.034-199.892c3.865 0 7.01 3.145 7.01 7.01 0 3.871-3.145 7.02-7.01 7.02h-27.742v-14.03zm0-63.81c3.865 0 7.01 3.145 7.01 7.01s-3.145 7.01-7.01 7.01h-27.742v-14.02zm-81.693-18.101h38.951v114.034h-38.951c-27.33 0-49.563-22.234-49.563-49.564v-14.906c-.001-27.33 22.233-49.564 49.563-49.564zm-86.957 34.371h24.216c-1.181 4.876-1.823 9.96-1.823 15.193v14.906c0 5.233.641 10.316 1.822 15.191h-24.215zm-85.518 344.294c0-22.187 18.05-40.237 40.237-40.237s40.237 18.05 40.237 40.237c0 22.211-18.091 40.237-40.237 40.237-21.388 0-40.237-17.211-40.237-40.237zm248.437 0c0-22.187 18.051-40.237 40.237-40.237s40.236 18.05 40.236 40.237c0 23.525-19.324 40.237-40.236 40.237-21.008 0-40.237-16.811-40.237-40.237zm-94.863-100.175c-12.195-29.782-29.572-56.409-51.756-79.427 7.874-.906 15.81-1.462 23.529-1.462h31.24c69.832 0 132.269 38.8 163.271 61.929 8.566 6.39 16.373 12.762 23.42 18.96zm228.49 41.471c5.704 8.025 8.604 14.036 8.604 17 0 6.389-2.1 14.439-5.156 22.778-16.602-7.148-18.621-29.895-3.448-39.778z"/><path d="m274.83 120.895c4.143 0 7.5-3.358 7.5-7.5v-19.658c0-4.142-3.357-7.5-7.5-7.5s-7.5 3.358-7.5 7.5v19.658c0 4.142 3.358 7.5 7.5 7.5z"/><path d="m146.568 400.775c-13.476 0-24.439 10.963-24.439 24.439s10.963 24.438 24.439 24.438 24.439-10.963 24.439-24.438-10.963-24.439-24.439-24.439zm0 33.878c-5.205 0-9.439-4.234-9.439-9.438s4.234-9.439 9.439-9.439 9.439 4.234 9.439 9.439-4.234 9.438-9.439 9.438z"/><path d="m395.006 400.775c-13.476 0-24.439 10.963-24.439 24.439s10.964 24.439 24.439 24.439 24.438-10.963 24.438-24.439-10.963-24.439-24.438-24.439zm0 33.878c-5.205 0-9.439-4.234-9.439-9.439s4.234-9.439 9.439-9.439c5.204 0 9.438 4.234 9.438 9.439s-4.234 9.439-9.438 9.439z"/></g></g></svg>