<svg id="Capa_1" enable-background="new 0 0 512 512" height="512" viewBox="0 0 512 512" width="512" xmlns="http://www.w3.org/2000/svg"><g><g><g><path d="m389.404 153.707-46.143 79.918c-1.481 2.565-.602 5.845 1.963 7.325l20.901 12.066c2.565 1.48 5.844.602 7.325-1.963l19.215-33.279c.958-1.659 2.728-2.681 4.644-2.681h43.03v-64.068h-46.29c-1.917.001-3.687 1.023-4.645 2.682z" fill="#5392f9"/><path d="m415.338 151.026h25v64.068h-25z" fill="#4071f7"/><path d="m77.179 292.32h110.692v174.464h-110.692z" fill="#407194"/><path d="m162.871 292.32h25v174.464h-25z" fill="#365f7e"/><path d="m153.794 7.5h-42.539c-47.745 0-86.449 38.705-86.449 86.449v139.809c0 47.744 38.704 86.449 86.449 86.449h42.539c47.745 0 86.449-38.705 86.449-86.449v-139.809c0-47.744-38.705-86.449-86.449-86.449zm30.681 226.258c0 16.918-13.764 30.682-30.682 30.682h-42.538c-16.918 0-30.682-13.764-30.682-30.682v-139.809c0-16.918 13.764-30.682 30.682-30.682h42.538c16.918 0 30.682 13.764 30.682 30.682z" fill="#9cd169"/><path d="m153.794 7.5h-25c47.745 0 86.449 38.705 86.449 86.449v139.809c0 47.744-38.704 86.449-86.449 86.449h25c47.745 0 86.449-38.705 86.449-86.449v-139.809c0-47.744-38.705-86.449-86.449-86.449z" fill="#68b181"/><path d="m41.57 499.5v-27.717c0-2.761 2.239-5 5-5h171.909c2.761 0 5 2.239 5 5v27.717c0 2.761-2.239 5-5 5h-171.909c-2.761 0-5-2.239-5-5z" fill="#9cd169"/><path d="m218.479 466.783h-25c2.761 0 5 2.239 5 5v27.717c0 2.761-2.239 5-5 5h25c2.761 0 5-2.239 5-5v-27.717c0-2.761-2.239-5-5-5z" fill="#68b181"/><path d="m440.342 133.991v98.137c0 2.961 2.401 5.362 5.362 5.362h36.128c2.961 0 5.362-2.401 5.362-5.362v-98.137c0-2.961-2.401-5.362-5.362-5.362h-36.128c-2.961 0-5.362 2.4-5.362 5.362z" fill="#9cd169"/><path d="m481.832 128.629h-21c2.961 0 5.362 2.401 5.362 5.362v98.137c0 2.961-2.401 5.362-5.362 5.362h21c2.961 0 5.362-2.401 5.362-5.362v-98.137c0-2.962-2.401-5.362-5.362-5.362z" fill="#68b181"/></g></g><g><path d="m142.069 385.995h-8.233l7.734-14.439c1.956-3.651.581-8.197-3.07-10.153-3.65-1.955-8.196-.581-10.152 3.07l-12.861 24.011c-3.022 5.645 1.08 12.511 7.494 12.511h8.233l-7.734 14.44c-1.956 3.651-.581 8.197 3.07 10.152 3.65 1.956 8.198.581 10.152-3.07l12.857-24.005c3.028-5.644-1.073-12.517-7.49-12.517z"/><path d="m153.793 271.939c21.054 0 38.183-17.128 38.183-38.181v-139.809c0-21.053-17.129-38.182-38.183-38.182h-42.537c-21.054 0-38.183 17.128-38.183 38.182v139.809c0 21.053 17.129 38.181 38.183 38.181zm-65.72-38.181v-139.809c0-12.782 10.399-23.182 23.183-23.182h42.537c12.783 0 23.183 10.399 23.183 23.182v139.809c0 12.782-10.399 23.181-23.183 23.181h-42.537c-12.783 0-23.183-10.399-23.183-23.181z"/><path d="m487.193 157.782c4.143 0 7.5-3.358 7.5-7.5v-16.292c0-7.092-5.77-12.862-12.861-12.862h-36.128c-7.093 0-12.862 5.77-12.862 12.862v9.535h-38.794c-4.58 0-8.849 2.464-11.139 6.431l-46.144 79.918c-3.546 6.142-1.434 14.023 4.708 17.571l3.951 2.281-20.259 35.094c-2.077 3.598-3.175 7.688-3.175 11.83v165.9c0 8.597-6.989 15.59-15.58 15.59-8.597 0-15.59-6.994-15.59-15.59v-323.38c0-20.799-16.922-37.72-37.721-37.72h-5.356v-7.501c0-51.804-42.145-93.949-93.949-93.949h-42.539c-51.804 0-93.948 42.145-93.948 93.949v15c0 4.142 3.357 7.5 7.5 7.5s7.5-3.358 7.5-7.5v-15c0-43.532 35.416-78.949 78.948-78.949h42.539c43.533 0 78.949 35.417 78.949 78.949v139.809c0 43.533-35.416 78.949-78.949 78.949h-42.539c-43.532 0-78.948-35.417-78.948-78.949v-89.809c0-4.142-3.357-7.5-7.5-7.5s-7.5 3.358-7.5 7.5v89.809c0 36.884 21.368 68.867 52.373 84.232v141.294h-23.11c-6.893 0-12.5 5.607-12.5 12.5v27.716c0 6.893 5.607 12.5 12.5 12.5h171.908c6.893 0 12.5-5.607 12.5-12.5v-27.717c0-6.893-5.607-12.5-12.5-12.5h-23.108v-141.294c31.004-15.366 52.373-47.348 52.373-84.232v-117.307h5.356c12.528 0 22.721 10.192 22.721 22.72v323.38c0 16.868 13.723 30.59 30.59 30.59 16.862 0 30.58-13.723 30.58-30.59v-165.9c0-1.512.403-3.01 1.165-4.33l20.26-35.094c2.795 1.368 5.448 4.006 10.368 4.006 4.448 0 8.781-2.307 11.162-6.428l18.597-32.209h34.3v9.534c0 7.092 5.77 12.862 12.862 12.862h36.128c7.092 0 12.861-5.77 12.861-12.862v-46.845c0-4.142-3.357-7.5-7.5-7.5s-7.5 3.358-7.5 7.5v44.708h-31.852v-93.861h31.852v14.154c0 4.139 3.358 7.497 7.5 7.497zm-271.214 339.218h-166.909v-22.717h166.908v22.717zm-35.609-37.717h-95.69v-135.41c8.43 2.49 17.348 3.834 26.575 3.834h42.539c9.227 0 18.145-1.344 26.576-3.834zm216.939-251.689c-4.581 0-8.85 2.464-11.14 6.431l-18.146 31.427c-6.222-3.592-10.83-6.252-17.198-9.928l44.457-76.998h37.56v49.068z"/></g></g></svg>