<svg id="Layer_5" enable-background="new 0 0 64 64" height="512" viewBox="0 0 64 64" width="512" xmlns="http://www.w3.org/2000/svg"><g><g><g><path d="m58 47.66v14.34h-4v-4h-5c0-2.39-1.05-4.54-2.71-6h5.71v-4l4.07-.01c.67 0 1.32-.11 1.93-.33z" fill="#b4dd7f"/></g><g><path d="m62 42.05c0 1.64-.66 3.13-1.74 4.2-.63.63-1.4 1.12-2.26 1.41-.61.22-1.26.33-1.93.33l-4.07.01v-.01-3.99-6h-10v10.85l-7.6-9.76c.6-2.17 1.83-4.07 3.5-5.5.25-.21.5-.41.77-.59 1.53-1.1 3.35-1.81 5.33-2.01l.06.16c.56 1.7 2.15 2.85 3.94 2.85.9 0 1.74-.29 2.43-.79s1.23-1.21 1.51-2.06l.06-.16c1.99.2 3.81.92 5.34 2.01.65.46 1.25 1 1.79 1.59 1.79 1.98 2.87 4.61 2.87 7.46z" fill="#b4dd7f"/></g><g><path d="m40 15v2 5.99c0 2.68 2.1 4.86 4.75 4.99l-.75 3.01c-1.98.2-3.8.91-5.33 2.01v-.01c-1.61-1.07-2.67-2.91-2.67-4.99v-14c0-6.63 5.37-12 12-12 3.32 0 6.32 1.34 8.49 3.51s3.51 5.17 3.51 8.49v14c0 2.07-1.05 3.9-2.65 4.98l-.01.02c-1.53-1.09-3.35-1.81-5.34-2.01l-.75-3v-.01c2.65-.13 4.75-2.31 4.75-4.99v-5.99-2-2-1l-1.46-.29c-2.34-.47-4.56-1.39-6.54-2.71-1.98 1.32-4.2 2.24-6.54 2.71l-1.46.29v1z" fill="#b27946"/></g><g><path d="m52 38v6l-.17-.34c-.51-1.02-1.55-1.66-2.68-1.66h-.15c-.83 0-1.58.34-2.12.88s-.88 1.29-.88 2.12c0 1.66 1.34 3 3 3h3v4h-5.71c-.9-.8-1.98-1.39-3.18-1.72l-1.11-1.42v-.01-10.85z" fill="#e6e9ed"/></g><g><path d="m54 58v4h-26v-1c0-1.66 1.34-3 3-3h2 4 8 4z" fill="#969faa"/></g><g><path d="m42 48.86 1.11 1.42c-.67-.18-1.38-.28-2.11-.28-3.42 0-6.33 2.14-7.47 5.15h-.01l-10.45-20.15c2.41-.03 4.47-1.48 5.4-3.54l5.93 7.63 7.6 9.76z" fill="#aab2bd"/></g><g><path d="m22.67 35-7.41 11.1c-.08-.02-.17-.03-.26-.04 0-.02 0-.04 0-.06 0-1.66-1.34-3-3-3-.43 0-.83.09-1.2.25l6.25-13.46h.01c.36 2.83 2.71 5.04 5.61 5.19z" fill="#aab2bd"/></g><g><path d="m15 46v.06c0 .18-.02.36-.06.53-.27 1.37-1.48 2.41-2.94 2.41-1.64 0-2.97-1.31-3-2.94 0-.02 0-.04 0-.06 0-1.23.74-2.29 1.8-2.75.37-.16.77-.25 1.2-.25 1.66 0 3 1.34 3 3z" fill="#fcd770"/></g><g><path d="m46.29 52c-.9-.8-1.98-1.39-3.18-1.72-.67-.18-1.38-.28-2.11-.28-3.42 0-6.33 2.14-7.47 5.15-.34.88-.53 1.85-.53 2.85h16c0-2.39-1.05-4.54-2.71-6z" fill="#fcd770"/></g><g><path d="m29 29c0 .88-.19 1.71-.53 2.46-.93 2.06-2.99 3.51-5.4 3.54-.02 0-.05 0-.07 0-.11 0-.22 0-.33-.02-2.9-.15-5.25-2.36-5.61-5.19-.04-.26-.06-.52-.06-.79 0-3.31 2.69-6 6-6s6 2.69 6 6z" fill="#fcd770"/></g><g><path d="m45 58h-8c0-2.21 1.79-4 4-4s4 1.79 4 4z" fill="#ccd1d9"/></g><g><circle cx="23" cy="29" fill="#ccd1d9" r="2"/></g><g><path d="m52 44v3.99.01h-3c-1.66 0-3-1.34-3-3 0-.83.34-1.58.88-2.12s1.29-.88 2.12-.88h.15c1.13 0 2.17.64 2.68 1.66z" fill="#f0d0b4"/></g><g><path d="m51.25 27.99.75 3-.06.16c-.28.85-.82 1.56-1.51 2.06s-1.53.79-2.43.79c-1.79 0-3.38-1.15-3.94-2.85l-.06-.16.75-3.01c.08.01.17.01.25.01h6c.08 0 .17 0 .25-.01z" fill="#f0d0b4"/></g><g><path d="m49.45 17.89c.34.68 1.03 1.11 1.79 1.11h2.76c1.1 0 2-.9 2-2v5.99c0 2.68-2.1 4.86-4.75 4.99-.08.01-.17.01-.25.01h-6c-.08 0-.17 0-.25-.01-2.65-.13-4.75-2.31-4.75-4.99v-5.99c0 1.1.9 2 2 2h2.76c.76 0 1.45-.43 1.79-1.11l.45-.89h2z" fill="#f0d0b4"/></g><g><path d="m54.54 11.71 1.46.29v1h-16v-1l1.46-.29c2.34-.47 4.56-1.39 6.54-2.71 1.98 1.32 4.2 2.24 6.54 2.71z" fill="#f0d0b4"/></g><g><path d="m56 13v2 2c0 1.1-.9 2-2 2h-2.76c-.76 0-1.45-.43-1.79-1.11l-.45-.89h-2l-.45.89c-.34.68-1.03 1.11-1.79 1.11h-2.76c-1.1 0-2-.9-2-2v-2-2z" fill="#69d6f4"/></g></g><g><path d="m23 32c1.654 0 3-1.346 3-3s-1.346-3-3-3-3 1.346-3 3 1.346 3 3 3zm0-4c.552 0 1 .449 1 1s-.448 1-1 1-1-.449-1-1 .448-1 1-1z"/><path d="m63 42.051c0-3.608-1.571-6.854-4.09-9.08 1.32-1.304 2.09-3.081 2.09-4.971v-14c0-7.168-5.832-13-13-13s-13 5.832-13 13v14c0 1.898.775 3.679 2.103 4.984-1.269 1.12-2.305 2.503-3.019 4.068l-4.478-5.758c.251-.72.394-1.49.394-2.294 0-3.86-3.141-7-7-7s-7 3.14-7 7c0 .207.013.412.031.615l-6.01 12.93c-.981.564-1.71 1.518-1.941 2.662-4.088.888-7.08 4.534-7.08 8.793 0 2.757 2.243 5 5 5v-2c-1.654 0-3-1.346-3-3 0-3.21 2.188-5.967 5.216-6.763.422 1.285 1.466 2.279 2.784 2.621v5.142h2v-5.142c1.318-.343 2.363-1.336 2.784-2.621 3.029.796 5.216 3.552 5.216 6.763 0 1.654-1.346 3-3 3v2c2.757 0 5-2.243 5-5 0-3.916-2.532-7.311-6.117-8.522l5.905-8.857 9.651 18.613c-.184.567-.313 1.157-.38 1.766h-1.059c-2.206 0-4 1.794-4 4v2h32v-14.672c2.359-1.11 4-3.503 4-6.277zm-26-14.051v-14c0-6.065 4.935-11 11-11s11 4.935 11 11v14c0 1.454-.63 2.82-1.71 3.765-1.338-.832-2.849-1.421-4.485-1.682l-.324-1.289c2.593-.663 4.519-3.011 4.519-5.808v-5.986-2-3.82l-2.269-.454c-2.217-.443-4.295-1.304-6.177-2.559l-.554-.369-.555.37c-1.882 1.254-3.96 2.115-6.177 2.559l-2.268.453v3.82 2 5.986c0 2.797 1.926 5.145 4.519 5.807l-.324 1.29c-1.609.261-3.122.852-4.47 1.695-1.09-.944-1.725-2.316-1.725-3.778zm4-14h14v1 2c0 .551-.448 1-1 1h-2.764c-.381 0-.724-.212-.895-.553l-.723-1.447h-3.236l-.724 1.447c-.171.341-.513.553-.894.553h-2.764c-.552 0-1-.449-1-1v-2zm3.135-2c1.348-.463 2.645-1.056 3.865-1.812 1.22.755 2.517 1.349 3.865 1.812zm-3.135 7.816c.314.112.648.184 1 .184h2.764c1.144 0 2.172-.635 2.684-1.658l.17-.342h.764l.171.342c.511 1.023 1.54 1.658 2.683 1.658h2.764c.352 0 .686-.072 1-.184v3.17c0 2.206-1.794 4-4 4h-6c-2.206 0-4-1.794-4-4zm4.532 9.17h4.935l.489 1.945c-.455 1.24-1.627 2.069-2.956 2.069-1.328 0-2.499-.828-2.956-2.068zm-22.532-4.986c2.757 0 5 2.243 5 5s-2.243 5-5 5-5-2.243-5-5 2.243-5 5-5zm-2.004 11.704-5.543 8.313c-.618-1.072-1.71-1.822-2.994-1.971l4.459-9.594c.883 1.55 2.338 2.731 4.078 3.252zm-8.996 12.296c-1.103 0-2-.897-2-2s.897-2 2-2 2 .897 2 2-.897 2-2 2zm12.617-12.196c1.601-.381 2.988-1.312 3.954-2.584l12.279 15.788c-3.047.05-5.731 1.617-7.322 3.982zm18.383 12.711v-9.515h8v2.453c-.56-.292-1.192-.453-1.854-.453h-.147c-2.205 0-3.999 1.794-3.999 3.999 0 1.069.416 2.073 1.172 2.829.756.754 1.759 1.17 2.826 1.17h.004l1.998-.003v2.005h-4.356c-.865-.699-1.86-1.243-2.944-1.585zm6-1.518c-.001 0-.001 0-.002 0-.533 0-1.035-.208-1.412-.584-.378-.378-.586-.88-.586-1.414 0-1.103.896-1.999 1.999-1.999h.147c.763 0 1.447.423 1.788 1.104l.066.132v2.76zm-8 4.003c3.519 0 6.432 2.613 6.92 6h-2.021c-.465-2.279-2.484-4-4.899-4s-4.434 1.721-4.899 4h-2.021c.488-3.387 3.401-6 6.92-6zm2.816 6h-5.631c.414-1.161 1.514-2 2.816-2s2.401.839 2.815 2zm9.184 4h-24c0-1.103.897-2 2-2h22zm4 0h-2v-4h-5.059c-.163-1.468-.678-2.831-1.463-4h4.522v-4.007l3.066-.003c.317 0 .627-.029.934-.071zm-.936-14.009-3.064.002v-2.316l3.954-1.582 1.599.799.895-1.789-2.401-1.201-4.047 1.619v-5.523h-12v8.944l-5.487-7.055c1.162-3.519 4.213-6.158 7.854-6.804.851 1.764 2.633 2.915 4.633 2.915 1.999 0 3.78-1.149 4.631-2.91 4.818.84 8.369 4.995 8.369 9.961 0 2.721-2.214 4.937-4.936 4.94z"/><path d="m52 22h-2c0 .551-.448 1-1 1h-4v2h4c1.654 0 3-1.346 3-3z"/></g></g></svg>