<svg id="Layer_5" enable-background="new 0 0 64 64" height="512" viewBox="0 0 64 64" width="512" xmlns="http://www.w3.org/2000/svg"><g><g><g><path d="m52 18h8v4h-8z" fill="#cf9e76"/></g><g><path d="m40 16h8v4h-8z" fill="#cf9e76"/></g><g><path d="m60 22v14.79c-1.78-2.96-4.62-5.2-8-6.2v-.01-8.58z" fill="#ecc19c"/></g><g><path d="m48 20v10c-2.98 0-5.73.93-8 2.52v-12.52z" fill="#ecc19c"/></g><g><path d="m28 10v4h-2-16-2v-4h6 4 4z" fill="#ccd1d9"/></g><g><path d="m26 14v24h-2-6-6-2v-24z" fill="#e6e9ed"/></g><g><path d="m30 38v6h-24v-6h16z" fill="#cf9e76"/></g><g><path d="m34 52v10h-2c-5.77 0-13.73-3.3-20-7.15-2.29-1.41-4.35-2.89-6-4.31-2.46-2.13-4-4.12-4-5.54v-1h4 6 6 6 6 4v4z" fill="#dfb28b"/></g><g><path d="m32 62h-20v-7.15c6.27 3.85 14.23 7.15 20 7.15z" fill="#ecc19c"/></g><g><path d="m6 50.54v11.46h-4v-17c0 1.42 1.54 3.41 4 5.54z" fill="#ecc19c"/></g><g><path d="m12 54.85v7.15h-6v-11.46c1.65 1.42 3.71 2.9 6 4.31z" fill="#aab2bd"/></g><g><path d="m62 52v10h-4v-6h-4v6h-4v-6h-4v6h-4v-6h-4v6h-4v-10h9.08 9.84 6.57z" fill="#e6e9ed"/></g><g><path d="m54 56h4v6h-4z" fill="#aab2bd"/></g><g><path d="m46 56h4v6h-4z" fill="#aab2bd"/></g><g><path d="m38 56h4v6h-4z" fill="#aab2bd"/></g><g><path d="m61.41 40c-.33-1.14-.81-2.21-1.41-3.21-1.78-2.96-4.62-5.2-8-6.2v-.01c-1.27-.38-2.61-.58-4-.58-2.98 0-5.73.93-8 2.52-2.57 1.78-4.5 4.41-5.41 7.48-.39 1.27-.59 2.61-.59 4v4 4h9.08 9.84 6.57c.84-1.21 1.5-2.55 1.93-4 .38-1.26.58-2.61.58-4s-.2-2.73-.59-4z" fill="#69d6f4"/></g><g><path d="m14 18h8v6h-8z" fill="#69d6f4"/></g><g><path d="m14 28h8v6h-8z" fill="#69d6f4"/></g><g><path d="m22 48h8v6h-8z" fill="#69d6f4"/></g></g><g><path d="m13 35h10v-8h-10zm2-6h6v4h-6z"/><path d="m13 17v8h10v-8zm8 6h-6v-4h6z"/><path d="m57 7v-2c-.552 0-1-.449-1-1s.448-1 1-1h1.743c1.244 0 2.257 1.012 2.257 2.257 0 .756-.376 1.458-1.005 1.878l-.1.066c-1.186.791-1.895 2.115-1.895 3.542v4.257h2v-4.257c0-.756.376-1.458 1.005-1.878l.1-.066c1.186-.791 1.895-2.115 1.895-3.542 0-2.347-1.909-4.257-4.257-4.257h-1.743c-1.654 0-3 1.346-3 3s1.346 3 3 3z"/><path d="m35 11h5c.552 0 1 .449 1 1v1h2v-1c0-1.654-1.346-3-3-3h-5c-1.103 0-2-.897-2-2s.897-2 2-2h6v-1c0-.551.448-1 1-1h4v-2h-4c-1.304 0-2.416.836-2.829 2h-4.171c-2.206 0-4 1.794-4 4s1.794 4 4 4z"/><path d="m51 6c0 .551-.448 1-1 1h-2c-1.654 0-3 1.346-3 3v3h2v-3c0-.551.448-1 1-1h1.184c-.112.314-.184.648-.184 1 0 1.654 1.346 3 3 3h1c.552 0 1 .449 1 1v1h2v-1c0-1.654-1.346-3-3-3h-1c-.552 0-1-.449-1-1s.448-1 1-1h2v-2h-1.184c.112-.314.184-.648.184-1 0-1.654-1.346-3-3-3h-3v2h3c.552 0 1 .449 1 1z"/><path d="m61 36.549v-19.549h-10v12.302c-.651-.133-1.322-.207-2-.252v-14.05h-10v17.028c-3.384 2.551-5.652 6.491-5.949 10.972h-2.051v-4h2v-2h-6v-22h2v-6h-6v-4h-2v4h-2v-6h-2v6h-2v-2h-2v2h-6v6h2v22h-6v2h2v4h-4v20h62v-12h-1.741c1.137-2.148 1.741-4.533 1.741-7 0-2.713-.735-5.253-2-7.451zm0 7.451c0 1.021-.119 2.026-.349 3h-5.802c.089-.982.151-1.979.151-3 0-1.034-.046-2.035-.13-3h5.767c.229.965.363 1.966.363 3zm-17.147 7c-.167-.641-.31-1.308-.428-2h9.15c-.118.692-.261 1.359-.428 2zm-8.853-7c0-1.034.134-2.035.363-3h5.767c-.084.965-.13 1.966-.13 3 0 1.02.062 2.018.151 3h-6.151zm0 5h6.398c.109.688.24 1.354.394 2h-6.792zm8.159-2c-.095-.978-.159-1.976-.159-3 0-1.048.053-2.047.144-3h9.711c.092.953.145 1.952.145 3 0 1.024-.064 2.022-.159 3zm4.841-16c1.806 0 3.765 3.118 4.592 8h-9.185c.828-4.882 2.787-8 4.593-8zm6.624 8c-.47-3.034-1.361-5.575-2.546-7.335 3.579 1.186 6.474 3.882 7.919 7.335zm4.376-20v2h-6v-2zm-6 4h6v10.836c-1.635-1.769-3.685-3.139-6-3.961zm-6-6v2h-6v-2zm-6 4h6v8.051c-2.155.143-4.188.732-6 1.693zm2.922 10.665c-1.184 1.761-2.076 4.301-2.546 7.335h-5.373c1.445-3.454 4.34-6.149 7.919-7.335zm-14.922 11.335h-4v-4h4zm-12-4v4h-4v-4zm2 0h4v4h-4zm-10-28h18v2h-18zm2 4h14v22h-14zm-4 24h4v4h-4zm-4 9.933c.567.658 1.236 1.337 2 2.027v10.04h-2zm8 6.493v5.574h-4v-8.373c1.213.944 2.558 1.887 4 2.799zm2 5.574v-4.368c2.942 1.702 6.152 3.234 9.308 4.368zm20 0h-1c-10.693 0-29-11.802-29-16h30zm8 0h-2v-4h2zm8 0h-2v-4h2zm8 0h-2v-4h2zm4 0h-2v-6h-6v6h-2v-6h-6v6h-2v-6h-6v6h-2v-8h26zm-6.792-10c.154-.646.285-1.312.394-2h5.396c-.289.693-.643 1.36-1.053 2z"/><path d="m31 47h-10v8h10zm-2 6h-6v-4h6z"/></g></g></svg>