<svg id="Layer_5" enable-background="new 0 0 64 64" height="512" viewBox="0 0 64 64" width="512" xmlns="http://www.w3.org/2000/svg"><g><g><g><path d="m2.02 58h59.96c.02.12.02.24.02.36 0 2.01-1.63 3.64-3.64 3.64h-52.72c-1 0-1.92-.41-2.57-1.07-.66-.65-1.07-1.57-1.07-2.57 0-.12 0-.24.02-.36z" fill="#aab2bd"/></g><g><path d="m61.93 57.65c.03.11.04.23.05.35h-59.96c.01-.12.02-.24.05-.35l3.34-16.72c.35-1.71 1.84-2.93 3.57-2.93h15.02 16 15.02c1.73 0 3.22 1.22 3.57 2.93z" fill="#ccd1d9"/></g><g><path d="m24 32h16v6h-16z" fill="#aab2bd"/></g><g><path d="m12 32c-2.21 0-4-1.79-4-4v-4h48v4c0 2.21-1.79 4-4 4h-12-16z" fill="#ccd1d9"/></g><g><path d="m56 6v18h-48v-18c0-2.21 1.79-4 4-4h40c2.21 0 4 1.79 4 4z" fill="#69d6f4"/></g><g><path d="m12 6h20v14h-20z" fill="#b4dd7f"/></g><g><path d="m36 6h16v14h-16z" fill="#e6e9ed"/></g><g><path d="m9 53v-10c0-.55.45-1 1-1h22c.55 0 1 .45 1 1v10c0 .55-.45 1-1 1h-22c-.55 0-1-.45-1-1z" fill="#ffeaa7"/></g><g><path d="m37 42h18v4h-18z" fill="#ff826e"/></g><g><circle cx="55" cy="52" fill="#ff826e" r="2"/></g><g><circle cx="47" cy="52" fill="#ff826e" r="2"/></g><g><circle cx="39" cy="52" fill="#ff826e" r="2"/></g></g><g><path d="m62.91 57.45-3.344-16.721c-.432-2.161-2.345-3.729-4.55-3.729h-14.016v-4h11c2.757 0 5-2.243 5-5v-22c0-2.757-2.243-5-5-5h-40c-2.757 0-5 2.243-5 5v22c0 2.757 2.243 5 5 5h11v4h-14.016c-2.204 0-4.118 1.568-4.549 3.729l-3.345 16.72c-.06.298-.09.605-.09.911 0 2.559 2.082 4.64 4.64 4.64h52.72c2.558 0 4.64-2.081 4.64-4.64 0-.306-.03-.613-.09-.91zm-50.91-54.45h40c1.654 0 3 1.346 3 3v17h-46v-17c0-1.654 1.346-3 3-3zm-3 25v-3h46v3c0 1.654-1.346 3-3 3h-40c-1.654 0-3-1.346-3-3zm16 5h14v4h-14zm-18.604 8.122c.245-1.229 1.334-2.122 2.588-2.122h46.032c1.254 0 2.343.893 2.588 2.122l3.176 15.878h-57.56zm51.964 19.878h-52.72c-1.234 0-2.264-.855-2.552-2h57.825c-.288 1.145-1.319 2-2.553 2z"/><path d="m10 55h22c1.103 0 2-.897 2-2v-10c0-1.103-.897-2-2-2h-22c-1.103 0-2 .897-2 2v10c0 1.103.897 2 2 2zm0-12h22l.001 10h-22.001z"/><path d="m56 41h-20v6h20zm-8 2h2v2h-2zm-2 2h-4v-2h4zm-8-2h2v2h-2zm16 2h-2v-2h2z"/><path d="m52 52c0 1.654 1.346 3 3 3s3-1.346 3-3-1.346-3-3-3-3 1.346-3 3zm4 0c0 .552-.449 1-1 1s-1-.448-1-1 .449-1 1-1 1 .448 1 1z"/><path d="m47 49c-1.654 0-3 1.346-3 3s1.346 3 3 3 3-1.346 3-3-1.346-3-3-3zm0 4c-.551 0-1-.448-1-1s.449-1 1-1 1 .448 1 1-.449 1-1 1z"/><path d="m39 55c1.654 0 3-1.346 3-3s-1.346-3-3-3-3 1.346-3 3 1.346 3 3 3zm0-4c.551 0 1 .448 1 1s-.449 1-1 1-1-.448-1-1 .449-1 1-1z"/><path d="m20 45h2v2h-2z"/><path d="m24 45h2v2h-2z"/><path d="m28 45h2v2h-2z"/><path d="m16 45h2v2h-2z"/><path d="m12 45h2v2h-2z"/><path d="m28 49h2v2h-2z"/><path d="m12 49h2v2h-2z"/><path d="m24 49h2v2h-2z"/><path d="m20 49h2v2h-2z"/><path d="m16 49h2v2h-2z"/><path d="m11 27h2v2h-2z"/><path d="m15 27h2v2h-2z"/><path d="m19 27h2v2h-2z"/><path d="m33 5h-22v16h22zm-2 14h-18v-12h18z"/><path d="m53 5h-18v16h18zm-2 14h-14v-12h14z"/><path d="m29 11h-2v5h-2v-3h-2v3h-2v-5h-2v5h-2v-7h-2v9h14z"/><path d="m39 9h10v2h-10z"/><path d="m39 13h10v2h-10z"/></g></g></svg>