<svg id="Layer_5" enable-background="new 0 0 64 64" height="512" viewBox="0 0 64 64" width="512" xmlns="http://www.w3.org/2000/svg"><g><g><g><path d="m26 18v4h-2-8-6-4-2v-4z" fill="#ccd1d9"/></g><g><path d="m24 22c0 2.96.07 5.91.22 8.86-1.59 1.36-2.83 3.13-3.53 5.14-.45 1.25-.69 2.6-.69 4s.24 2.75.69 4c.53 1.49 1.35 2.85 2.38 4h-2.07v4h2l-2 10h-5v-4-4-4-4-4-4-4-4-4-4z" fill="#e6e9ed"/></g><g><path d="m10 58v4h-8l2.09-14.14c1.27-8.56 1.91-17.21 1.91-25.86h4v4 4 4 4 4 4 4 4z" fill="#e6e9ed"/></g><g><path d="m10 22h6v40h-6z" fill="#cf9e76"/></g><g><path d="m56 14 .33 4h-6.66l.33-4z" fill="#cf9e76"/></g><g><path d="m56.33 18 1.67 20h-10l1.67-20z" fill="#dfb28b"/></g><g><path d="m62 38v12h-19v-2h-2.07c1.03-1.15 1.85-2.51 2.38-4 .45-1.25.69-2.6.69-4 0-.68-.06-1.35-.17-2h4.17 10z" fill="#ccd1d9"/></g><g><path d="m43 50v2h-2l2 10h19v-12z" fill="#e6e9ed"/></g><g><path d="m43 50v2h-2-18-2v-4h2.07 5.95 5.96 5.95 2.07z" fill="#cf9e76"/></g><g><path d="m41 52 2 10h-22l2-10z" fill="#ecc19c"/></g><g><path d="m54 54h4v8h-4z" fill="#aab2bd"/></g><g><path d="m46 54h4v8h-4z" fill="#aab2bd"/></g><g><path d="m43.83 38c-.11-.69-.28-1.36-.52-2-1.64-4.66-6.08-8-11.31-8-2.97 0-5.69 1.07-7.78 2.86-1.59 1.36-2.83 3.13-3.53 5.14-.45 1.25-.69 2.6-.69 4s.24 2.75.69 4c.53 1.49 1.35 2.85 2.38 4h17.86c1.03-1.15 1.85-2.51 2.38-4 .45-1.25.69-2.6.69-4 0-.68-.06-1.35-.17-2z" fill="#69d6f4"/></g><g><path d="m48 42h10v4h-10z" fill="#69d6f4"/></g></g><g><path d="m59 41h-12v6h12zm-2 4h-8v-2h8z"/><path d="m6 11h4c.552 0 1 .449 1 1v3h2v-3c0-1.654-1.346-3-3-3h-4c-1.654 0-3-1.346-3-3s1.346-3 3-3h9v-2h-9c-2.757 0-5 2.243-5 5s2.243 5 5 5z"/><path d="m19 14c0-.551.448-1 1-1h7c1.654 0 3-1.346 3-3 0-1.51-1.125-2.751-2.579-2.958.359-.6.579-1.293.579-2.042 0-2.206-1.794-4-4-4h-5v2h5c1.103 0 2 .897 2 2s-.897 2-2 2h-2-2v2h2 2 3c.552 0 1 .449 1 1s-.448 1-1 1h-7c-1.654 0-3 1.346-3 3v1h2z"/><path d="m56.92 13h-7.84l-2 24h-2.443c-1.36-5.724-6.503-10-12.637-10-2.514 0-4.856.729-6.848 1.971-.079-1.989-.128-3.983-.14-5.971h1.988v-6h-24v6h1.991c-.048 8.25-.677 16.558-1.885 24.713l-2.265 15.287h62.159v-26h-4.08zm-1.84 2 .167 2h-4.493l.167-2zm-4.493 4h4.827l1.5 18h-7.826zm-10.407 34 1.6 8h-19.56l1.6-8zm1.82-2h-20v-2h20zm-13.037-21.564c-.747 1.434-1.283 3.393-1.604 5.564h-5.144c1.373-2.677 3.807-4.717 6.748-5.564zm5.665 5.564h-5.255c.622-3.91 1.882-6 2.628-6s2.004 2.09 2.627 6zm.372 5c0 1.024-.046 2.031-.132 3h-5.736c-.086-.969-.132-1.976-.132-3 0-1.078.05-2.073.131-3h5.739c.08.927.13 1.922.13 3zm-5.217 7c-.159-.626-.295-1.295-.406-2h5.248c-.112.705-.248 1.374-.406 2zm-8.783-7c0-1.041.155-2.045.426-3h5.703c-.082.986-.129 1.993-.129 3 0 1.02.046 2.025.127 3h-5.706c-.276-.969-.421-1.977-.421-3zm6.357 5c.103.697.227 1.365.372 2h-4.183c-.516-.623-.962-1.292-1.327-2zm8.914 2c.145-.635.269-1.303.372-2h5.138c-.364.708-.81 1.377-1.327 2zm6.729-7c0 1.023-.145 2.031-.422 3h-5.706c.082-.975.128-1.98.128-3 0-1.007-.047-2.014-.13-3h5.703c.272.955.427 1.959.427 3zm-1.214-5h-5.144c-.322-2.171-.857-4.13-1.605-5.564 2.941.847 5.375 2.887 6.749 5.564zm-18.58-4.547c-2.578 2.378-4.206 5.771-4.206 9.547 0 2.497.731 4.917 2.07 7h-1.07v6h1.78l-1.6 8h-3.18v-38h6.013c.014 2.482.076 4.979.193 7.453zm-8.206-7.453v2h-4v-2zm0 34h-4v-2h4zm0-4h-4v-2h4zm0-4h-4v-2h4zm0-4h-4v-2h4zm0-4h-4v-2h4zm0-4h-4v-2h4zm0-4h-4v-2h4zm0-4h-4v-2h4zm-4 30h4v2h-4zm-6-40h20v2h-20zm.084 29.006c1.223-8.252 1.859-16.659 1.907-25.006h2.009v38h-5.841zm43.916 12.994h-2v-6h2zm8 0h-2v-6h2zm2 0v-8h-6v8h-2v-8h-6v8h-1.18l-1.6-8h1.78v-2h17v10zm2-22v10h-17v-2h-1.07c1.34-2.083 2.07-4.503 2.07-7 0-.338-.025-.669-.051-1h1.964 12.174z"/><path d="m61 6c0 .551-.448 1-1 1h-3c-1.654 0-3 1.346-3 3v1h2v-1c0-.551.448-1 1-1h3c1.654 0 3-1.346 3-3s-1.346-3-3-3h-11v2h11c.552 0 1 .449 1 1z"/><path d="m43 9h6c.552 0 1 .449 1 1v1h2v-1c0-1.654-1.346-3-3-3h-6c-1.103 0-2-.897-2-2s.897-2 2-2h4v-2h-4c-2.206 0-4 1.794-4 4s1.794 4 4 4z"/></g></g></svg>