<svg id="Layer_5" enable-background="new 0 0 64 64" height="512" viewBox="0 0 64 64" width="512" xmlns="http://www.w3.org/2000/svg"><g><g><g><path d="m29 26h4l3.5 2.8c.95.76 1.5 1.91 1.5 3.12v13.08c0-2-3-3-7-3-3.46 0-5.59 2-6.77 3.68-2.79-1.68-5.34-3.68-8.23-3.68v-7.94-2.14c0-1.21.55-2.36 1.5-3.12l3.5-2.8h4z" fill="#e6e9ed"/></g><g><path d="m16 53.93v-11.93c2.89 0 5.44 2 8.23 3.68 2.05 1.25 4.23 2.32 6.77 2.32 4 0 7-1 7-3v13c0 2.21-1.79 4-4 4h-14c-2.21 0-4-1.79-4-4z" fill="#69d6f4"/></g><g><path d="m31 42c4 0 7 1 7 3s-3 3-7 3c-2.54 0-4.72-1.07-6.77-2.32 1.18-1.68 3.31-3.68 6.77-3.68z" fill="#4fc1e9"/></g><g><circle cx="32" cy="53" fill="#4fc1e9" r="2"/></g><g><circle cx="24" cy="56" fill="#4fc1e9" r="2"/></g><g><path d="m33 22v4h-4-4-4v-4h6z" fill="#b4dd7f"/></g><g><path d="m58 49v1c0 1.1-.9 2-2 2h-8c-1.1 0-2-.9-2-2v-1-1c0-1.1.9-2 2-2h4 4c1.1 0 2 .9 2 2z" fill="#b4dd7f"/></g><g><path d="m60 2v4h-3-3v-4z" fill="#ccd1d9"/></g><g><path d="m30 2v4h-3-3v-4z" fill="#ccd1d9"/></g><g><path d="m10 2v4h-3-3v-4z" fill="#ccd1d9"/></g><g><path d="m55 37v.06c-.03 1.63-1.36 2.94-3 2.94s-2.97-1.31-3-2.94c0-.02 0-.04 0-.06 0-1.66 1.34-3 3-3s3 1.34 3 3z" fill="#fcd770"/></g><g><path d="m9.06 41c1.63.03 2.94 1.36 2.94 3s-1.31 2.97-2.94 3c-.02 0-.04 0-.06 0-1.66 0-3-1.34-3-3s1.34-3 3-3z" fill="#fcd770"/></g></g><g><path d="m45 13h10c1.654 0 3-1.346 3-3v-3h3v-4h2v-2h-62v2h2v4h3v3c0 .551-.448 1-1 1h-1c-1.654 0-3 1.346-3 3s1.346 3 3 3h10c.552 0 1 .449 1 1s-.448 1-1 1h-10c-1.654 0-3 1.346-3 3v20c0 1.654 1.346 3 3 3h1.142c.382 1.469 1.566 2.617 3.064 2.92.744 3.429 3.433 6.079 6.794 6.846v3.234c0 2.757 2.243 5 5 5h14c2.757 0 5-2.243 5-5v-26.078c0-1.526-.684-2.95-1.876-3.904l-3.124-2.499v-4.519h-6v-14h3v-4h22v4h3v3c0 .551-.448 1-1 1h-10c-1.654 0-3 1.346-3 3s1.346 3 3 3h15c.552 0 1 .449 1 1s-.448 1-1 1h-6c-1.654 0-3 1.346-3 3v11.142c-1.469.382-2.617 1.566-2.92 3.064-4.088.888-7.08 4.535-7.08 8.794 0 2.414 1.721 4.434 4 4.899v.101c0 1.654 1.346 3 3 3h8c1.654 0 3-1.346 3-3v-.101c2.279-.465 4-2.484 4-4.899 0-4.259-2.992-7.906-7.08-8.793-.303-1.499-1.451-2.683-2.92-3.065v-11.142c0-.551.448-1 1-1h6c1.654 0 3-1.346 3-3s-1.346-3-3-3h-15c-.552 0-1-.449-1-1s.448-1 1-1zm-40-10h4v2h-4zm2 41c0-1.103.897-2 2-2s2 .897 2 2-.897 2-2 2-2-.897-2-2zm3.236 3.785c1.599-.525 2.764-2.013 2.764-3.785 0-1.769-1.161-3.255-2.755-3.782.62-2.366 2.42-4.235 4.755-4.927v17.413c-2.311-.69-4.139-2.545-4.764-4.919zm23.764 13.215h-14c-1.654 0-3-1.346-3-3v-3c2.206 0 4-1.794 4-4v-1h-2v1c0 1.103-.897 2-2 2v-9.897c1.746.318 3.465 1.396 5.267 2.536 2.487 1.576 5.306 3.361 8.733 3.361 2.583 0 4.624-.4 6-1.129v10.129c0 1.654-1.346 3-3 3zm-8.271-15.601c1.109-1.233 2.809-2.399 5.271-2.399 3.477 0 6 .841 6 2s-2.523 2-6 2c-1.903 0-3.629-.693-5.271-1.601zm11.271-13.477v10.206c-1.376-.728-3.417-1.128-6-1.128-3.384 0-5.626 1.687-7.018 3.358-.216-.136-.432-.272-.646-.408-2.002-1.267-4.063-2.571-6.336-2.881v-9.147c0-.916.41-1.77 1.126-2.343l3.225-2.579h2.649v7h2v-7h2v9h2v-9h2.649l3.225 2.58c.716.572 1.126 1.426 1.126 2.342zm-5-6.922h-10v-2h10zm-6-4h-6v4.519l-3.124 2.499c-1.192.955-1.876 2.378-1.876 3.904v1.305c-3.401.77-6.054 3.441-6.793 6.853-1.499.303-2.683 1.451-3.065 2.92h-1.142c-.552 0-1-.448-1-1v-20c0-.551.448-1 1-1h10c1.654 0 3-1.346 3-3s-1.346-3-3-3h-10c-.552 0-1-.449-1-1s.448-1 1-1h1c1.654 0 3-1.346 3-3v-3h3v-4h12v4h3zm3-16h-4v-2h4zm26-2h4v2h-4zm-12 42c0-3.21 2.188-5.968 5.215-6.764.421 1.285 1.466 2.279 2.785 2.622v4.142h-3c-1.593 0-2.887 1.252-2.982 2.821-1.171-.409-2.018-1.512-2.018-2.821zm14 5c0 .552-.448 1-1 1h-8c-.552 0-1-.448-1-1v-2c0-.552.448-1 1-1h8c.552 0 1 .448 1 1zm-1.216-11.764c3.029.797 5.216 3.554 5.216 6.764 0 1.309-.847 2.412-2.018 2.821-.095-1.569-1.389-2.821-2.982-2.821h-3v-4.142c1.319-.343 2.363-1.336 2.784-2.622zm-1.784-1.236c0 1.103-.897 2-2 2s-2-.897-2-2 .897-2 2-2 2 .897 2 2z"/><path d="m24 53c-1.654 0-3 1.346-3 3s1.346 3 3 3 3-1.346 3-3-1.346-3-3-3zm0 4c-.552 0-1-.448-1-1s.448-1 1-1 1 .448 1 1-.448 1-1 1z"/><path d="m32 50c-1.654 0-3 1.346-3 3s1.346 3 3 3 3-1.346 3-3-1.346-3-3-3zm0 4c-.552 0-1-.448-1-1s.448-1 1-1 1 .448 1 1-.448 1-1 1z"/></g></g></svg>