<svg id="Layer_5" enable-background="new 0 0 64 64" height="512" viewBox="0 0 64 64" width="512" xmlns="http://www.w3.org/2000/svg"><g><g><g><path d="m40 9v-5c0-1.1-.9-2-2-2h-30c-1.1 0-2 .9-2 2v28h25.35c.39-1.82.65-3 .65-3h4c1.36 0 2.7-.18 4-.54v-5.46c-3.87 0-7-3.13-7-7s3.13-7 7-7z" fill="#d3a06c"/></g><g><circle cx="40" cy="16" fill="#e6e9ed" r="7"/></g><g><path d="m30 2v10l-3-2-2 2-2-2-2 2-2-2-3 2v-10z" fill="#b27946"/></g><g><path d="m16 46h4v10h-4z" fill="#838f9b"/></g><g><path d="m4 46h4v10h-4z" fill="#838f9b"/></g><g><path d="m6 43c2.21 0 4-1.79 4-4s-1.79-4-4-4-4 1.79-4 4 1.79 4 4 4zm12 0c2.21 0 4-1.79 4-4s-1.79-4-4-4-4 1.79-4 4 1.79 4 4 4zm12-8c-2.21 0-4 1.79-4 4 0 1.92 1.35 3.52 3.15 3.91-.2 1.07-.38 2.12-.55 3.09h-8.6-4-8-4-3v-14h5 25.35c-.19.88-.41 1.93-.65 3.06-.23-.04-.46-.06-.7-.06z" fill="#ccd1d9"/></g><g><path d="m6 35c2.21 0 4 1.79 4 4s-1.79 4-4 4-4-1.79-4-4 1.79-4 4-4z" fill="#969faa"/></g><g><path d="m18 35c2.21 0 4 1.79 4 4s-1.79 4-4 4-4-1.79-4-4 1.79-4 4-4z" fill="#969faa"/></g><g><path d="m30 35c.24 0 .47.02.7.06-.5 2.4-1.07 5.22-1.55 7.85-1.8-.39-3.15-1.99-3.15-3.91 0-2.21 1.79-4 4-4z" fill="#969faa"/></g><g><path d="m58 29s4 18 4 22c0 3.41-11.65 9.01-15.07 10.58-.61.28-1.26.42-1.93.42s-1.32-.14-1.93-.42c-1.98-.91-6.73-3.17-10.37-5.58-2.64-1.74-4.7-3.57-4.7-5 0-.98.24-2.81.6-5 .17-.97.35-2.02.55-3.09.48-2.63 1.05-5.45 1.55-7.85.24-1.13.46-2.18.65-3.06.39-1.82.65-3 .65-3h4c1.36 0 2.7-.18 4-.54.25-.07.49-.15.74-.23 1.52-.51 2.96-1.25 4.26-2.23 2.6 1.95 5.75 3 9 3z" fill="#b4dd7f"/></g><g><path d="m55.16 38.56c-.18.39-.17.83-.01 1.23 0 0 .01.01.01.02.16.39.47.71.87.85.58.2.97.75.97 1.37v3.94c0 .62-.39 1.17-.97 1.37-.4.14-.71.46-.87.85 0 .01-.01.02-.01.02-.08.2-.12.41-.12.62s.04.41.13.61c.27.55.16 1.21-.28 1.65l-2.79 2.79c-.28.28-.65.43-1.02.43-.22 0-.43-.05-.63-.15-.39-.18-.83-.17-1.23-.01 0 0-.01.01-.02.01-.39.16-.71.47-.85.87-.2.58-.75.97-1.37.97h-3.94c-.62 0-1.17-.39-1.37-.97-.14-.4-.46-.71-.85-.87-.01 0-.02-.01-.02-.01-.2-.08-.41-.12-.62-.12s-.41.04-.61.13c-.55.27-1.21.16-1.65-.28l-2.79-2.79c-.28-.28-.43-.65-.43-1.02 0-.22.05-.43.15-.63.18-.39.17-.83.01-1.23 0 0-.01-.01-.01-.02-.16-.39-.47-.71-.87-.85-.58-.2-.97-.75-.97-1.37v-3.94c0-.62.39-1.17.97-1.37.4-.14.71-.46.87-.85 0-.01.01-.02.01-.02.08-.2.12-.41.12-.62s-.04-.41-.13-.61c-.27-.55-.16-1.21.28-1.65l2.79-2.79c.28-.28.65-.43 1.02-.43.22 0 .43.05.63.15.39.18.83.17 1.23.01 0 0 .01-.01.02-.01.39-.16.71-.47.85-.87.2-.58.75-.97 1.37-.97h3.94c.62 0 1.17.39 1.37.97.14.4.46.71.85.87.01 0 .02.01.02.01.2.08.41.12.62.12s.41-.04.61-.13c.55-.27 1.21-.16 1.65.28l2.79 2.79c.28.28.43.65.43 1.02 0 .22-.05.43-.15.63zm-3.16 5.44c0-3.87-3.13-7-7-7s-7 3.13-7 7 3.13 7 7 7 7-3.13 7-7z" fill="#ffc729"/></g><g><path d="m45 37c3.87 0 7 3.13 7 7s-3.13 7-7 7-7-3.13-7-7 3.13-7 7-7zm3 7c0-1.66-1.34-3-3-3s-3 1.34-3 3 1.34 3 3 3 3-1.34 3-3z" fill="#fcd770"/></g></g><g><path d="m58.976 28.783-.174-.783h-4.802c-3.009 0-5.992-.994-8.4-2.8l-.6-.45-.6.45c-1.039.78-2.19 1.398-3.4 1.86v-3.13c3.94-.495 7-3.859 7-7.931s-3.06-7.436-7-7.931v-4.068c0-1.654-1.346-3-3-3h-30c-1.654 0-3 1.346-3 3v27h-4v2h29.112c-.069.325-.14.661-.213 1.01-2.709.055-4.899 2.268-4.899 4.99 0 2.006 1.223 3.796 3.011 4.578-.087.483-.171.959-.251 1.422h-26.76v2h2v8h-2v2h31.384c2.987 1.965 6.787 3.891 10.268 5.489.738.339 1.528.511 2.348.511s1.61-.172 2.349-.511c7.14-3.279 15.651-7.933 15.651-11.489 0-4.063-3.859-21.478-4.024-22.217zm-12.976-12.783c0 3.309-2.691 6-6 6s-6-2.691-6-6 2.691-6 6-6 6 2.691 6 6zm-29-13h12v7.132l-2.127-1.419-1.873 1.873-2-2-2 2-1.873-1.873-2.127 1.419zm-10 28v-27c0-.552.449-1 1-1h7v10.868l3.873-2.581 2.127 2.127 2-2 2 2 2.127-2.127 3.873 2.581v-10.868h7c.551 0 1 .448 1 1v4.069c-3.94.495-7 3.859-7 7.931s3.06 7.436 7 7.931v3.731c-.984.216-1.989.338-3 .338h-4.802l-.174.783c-.033.148-.216.972-.484 2.217zm20 8c0-1.474 1.071-2.697 2.475-2.947-.357 1.74-.735 3.627-1.085 5.474-.841-.54-1.39-1.486-1.39-2.527zm-10 8h2v8h-2zm-2 8h-6v-8h6zm-10-8h2v8h-2zm16 8v-8h6.434c-.266 1.729-.434 3.155-.434 4 0 1.235 1.042 2.603 2.681 4zm25.515 5.671c-.951.438-2.079.438-3.029 0-9.953-4.57-14.486-8.217-14.486-9.671 0-3.38 3.041-17.505 3.804-21h3.196c3.193 0 6.361-.979 9-2.771 2.639 1.792 5.807 2.771 9 2.771h3.196c.763 3.495 3.804 17.62 3.804 21 0 1.454-4.533 5.101-14.485 9.671z"/><path d="m45 36c-4.411 0-8 3.589-8 8s3.589 8 8 8 8-3.589 8-8-3.589-8-8-8zm0 14c-3.309 0-6-2.691-6-6s2.691-6 6-6 6 2.691 6 6-2.691 6-6 6z"/><path d="m45 40c-2.206 0-4 1.794-4 4s1.794 4 4 4 4-1.794 4-4-1.794-4-4-4zm0 6c-1.103 0-2-.897-2-2s.897-2 2-2 2 .897 2 2-.897 2-2 2z"/><path d="m56.074 39.402c-.036-.085-.083-.252-.009-.409.448-.935.256-2.056-.478-2.79l-2.792-2.791c-.733-.731-1.854-.927-2.792-.478-.114.055-.263.052-.426-.017-.085-.036-.237-.12-.294-.283-.344-.977-1.272-1.634-2.309-1.634h-3.947c-1.037 0-1.966.657-2.311 1.635-.058.163-.209.247-.315.291-.144.061-.292.063-.409.008-.935-.445-2.055-.255-2.789.479l-2.792 2.791c-.733.734-.925 1.855-.478 2.789.075.158.027.325-.017.43-.06.145-.163.251-.283.294-.976.344-1.633 1.272-1.633 2.309v3.947c0 1.037.657 1.966 1.636 2.312.119.042.222.148.29.313.036.085.083.252.009.409-.448.935-.256 2.056.478 2.79l2.792 2.791c.732.731 1.853.925 2.792.478.113-.056.262-.053.426.017.085.036.237.12.294.283.344.977 1.272 1.634 2.309 1.634h3.947c1.037 0 1.966-.657 2.311-1.635.058-.163.209-.247.315-.291.145-.059.292-.062.409-.008.935.445 2.056.255 2.789-.479l2.792-2.791c.733-.734.925-1.855.478-2.789-.075-.158-.027-.325.017-.43.06-.145.163-.251.283-.294.976-.344 1.633-1.272 1.633-2.309v-3.947c0-1.037-.657-1.966-1.636-2.312-.119-.042-.221-.149-.29-.313zm-.074 6.572c0 .19-.121.361-.3.425-.653.23-1.187.745-1.472 1.43-.279.669-.267 1.413.033 2.042.082.172.046.378-.088.513l-2.791 2.791c-.135.134-.344.171-.512.089-.628-.303-1.374-.315-2.061-.026-.667.277-1.181.811-1.412 1.463-.062.178-.233.299-.423.299h-3.947c-.19 0-.361-.121-.425-.301-.23-.652-.745-1.186-1.429-1.471-.322-.135-.662-.201-.997-.201-.362 0-.719.078-1.044.234-.174.082-.38.046-.515-.088l-2.791-2.791c-.135-.135-.17-.341-.088-.514.3-.628.312-1.372.025-2.059-.277-.667-.811-1.182-1.463-1.411-.179-.063-.3-.234-.3-.424v-3.947c0-.19.121-.361.3-.425.653-.23 1.187-.745 1.472-1.43.279-.669.267-1.413-.033-2.042-.082-.172-.046-.378.088-.513l2.791-2.791c.136-.134.343-.171.512-.089.628.302 1.373.315 2.061.026.667-.277 1.181-.811 1.412-1.463.062-.179.233-.3.423-.3h3.947c.19 0 .361.121.425.301.23.652.745 1.186 1.429 1.471.671.28 1.416.268 2.041-.033.174-.081.38-.046.515.088l2.791 2.791c.135.135.17.341.088.514-.3.628-.312 1.372-.025 2.059.277.667.811 1.182 1.463 1.411.179.063.3.234.3.424z"/><path d="m11 39c0-2.757-2.243-5-5-5s-5 2.243-5 5 2.243 5 5 5 5-2.243 5-5zm-8 0c0-1.654 1.346-3 3-3s3 1.346 3 3-1.346 3-3 3-3-1.346-3-3z"/><circle cx="6" cy="39" r="1"/><path d="m23 39c0-2.757-2.243-5-5-5s-5 2.243-5 5 2.243 5 5 5 5-2.243 5-5zm-8 0c0-1.654 1.346-3 3-3s3 1.346 3 3-1.346 3-3 3-3-1.346-3-3z"/><circle cx="18" cy="39" r="1"/><path d="m37.707 16.293-1.414 1.414 2.707 2.707 5.707-5.707-1.414-1.414-4.293 4.293z"/><path d="m17 27h2v2h-2z"/><path d="m13 27h2v2h-2z"/><path d="m9 27h2v2h-2z"/><path d="m9 23h10v2h-10z"/></g></g></svg>