<svg id="Layer_5" enable-background="new 0 0 64 64" height="512" viewBox="0 0 64 64" width="512" xmlns="http://www.w3.org/2000/svg"><g><g><g><path d="m56 14h-2-2c-2.21 0-4 1.79-4 4v18h.79c4.5 0 8.71 2.25 11.21 6v-24c0-2.21-1.79-4-4-4z" fill="#e6e9ed"/></g><g><path d="m40 12h-4-2c-2.21 0-4 1.79-4 4v26c2.5-3.75 6.71-6 11.21-6h2.79v-20c0-2.21-1.79-4-4-4z" fill="#e6e9ed"/></g><g><path d="m60 42h-4-8-18c2.5-3.75 6.71-6 11.21-6h2.79 4 .79c4.5 0 8.71 2.25 11.21 6z" fill="#aab2bd"/></g><g><path d="m62 42v20h-6v-4-4-4-4-4h4z" fill="#ccd1d9"/></g><g><path d="m48 58v4h-20v-12-8h2 18v4 4 4z" fill="#ccd1d9"/></g><g><path d="m14 50v12h-8v-10c0-1.1.9-2 2-2z" fill="#ecc19c"/></g><g><path d="m28 50v12h-10v-12h6z" fill="#ecc19c"/></g><g><path d="m24 40v10h-6v-12h4c1.1 0 2 .9 2 2z" fill="#ecc19c"/></g><g><path d="m14 38v12h-6v-10c0-1.1.9-2 2-2z" fill="#ecc19c"/></g><g><path d="m18 26h4v12h-4z" fill="#ecc19c"/></g><g><path d="m14 26v12h-4v-6-4-2z" fill="#ecc19c"/></g><g><path d="m10 28v4h-4v-2-2z" fill="#ccd1d9"/></g><g><path d="m18 50v12h-4v-12-12-12h4v12z" fill="#cf9e76"/></g><g><path d="m48 42h8v20h-8z" fill="#cf9e76"/></g><g><path d="m32 46h12v12h-12z" fill="#69d6f4"/></g><g><path d="m21 17c0-3 3-3 3-3 0 3 3 4 3 7s-5 5-5 5h-4-4-4s-5-2-5-5 3-4 3-7c0 0 3 0 3 3 0-3 2-5 2-7 0 0 3 0 3 4 0-4 3-4 3-4 0 2 2 4 2 7z" fill="#ff826e"/></g></g><g><path d="m31 45v14h14v-14zm12 6h-4v-4h4zm-6-4v4h-4v-4zm-4 6h4v4h-4zm6 4v-4h4v4z"/><path d="m61 41v-23c0-2.757-2.243-5-5-5h-1v-5c0-3.859-3.14-7-7-7h-6c-3.86 0-7 3.141-7 7v3h-1c-2.757 0-5 2.243-5 5v25h-2v8h-2v-9c0-1.302-.839-2.402-2-2.816v-10.533c1.505-.709 5-2.675 5-5.651 0-1.833-.903-3.037-1.7-4.1-.697-.93-1.3-1.733-1.3-2.9v-1h-1c-.803 0-1.801.266-2.599.897-.199-.538-.424-1.04-.64-1.519-.408-.909-.761-1.693-.761-2.378v-1h-1c-.834 0-2.113.385-3 1.554-.887-1.169-2.166-1.554-3-1.554h-1v1c0 .685-.353 1.469-.761 2.378-.215.479-.441.981-.64 1.519-.798-.631-1.796-.897-2.599-.897h-1v1c0 1.167-.603 1.97-1.3 2.9-.797 1.063-1.7 2.267-1.7 4.1 0 2.976 3.495 4.942 5 5.651v.349h-4v2h-4v34h62v-22zm-6 16h-6v-2h6zm0-4h-6v-2h6zm0-4h-6v-2h6zm-6 10h6v2h-6zm6-14h-6v-2h6zm-22.918-4c2.34-2.524 5.623-4 9.129-4h7.578c3.506 0 6.789 1.476 9.129 4zm10.918-18h-12v-4h12zm0 2v4h-12v-4zm0 6v4h-1.789c-3.883 0-7.525 1.564-10.211 4.251v-8.251zm6-10h10v4h-10zm0 14.013v-2.013h10v6.251c-2.637-2.638-6.197-4.183-10-4.238zm0-8.013h10v4h-10zm10-9v1h-10v-1c0-1.654 1.346-3 3-3h4c1.654 0 3 1.346 3 3zm-22-10c0-2.757 2.243-5 5-5h6c2.757 0 5 2.243 5 5v5h-1c-2.757 0-5 2.243-5 5v17h-2v-19c0-2.757-2.243-5-5-5h-3zm-3 5h6c1.654 0 3 1.346 3 3v1h-12v-1c0-1.654 1.346-3 3-3zm-15 36v-10h3c.551 0 1 .448 1 1v9zm-6-12h-2v-10h2zm-3 2h3v10h-4v-9c0-.552.449-1 1-1zm-2 12h5v10h-6v-9c0-.552.449-1 1-1zm7-24h2v34h-2zm6 10h-2v-10h2zm-15-16c0-1.167.603-1.97 1.3-2.9.615-.819 1.293-1.724 1.571-2.936.545.216 1.129.709 1.129 1.836 0 3.738 4.563 4.922 4.757 4.97l.488-1.939c-.033-.009-3.245-.855-3.245-3.031 0-1.438.541-2.64 1.063-3.803.297-.659.583-1.297.76-1.949.552.321 1.177 1.059 1.177 2.752h2c0-1.699.618-2.438 1.176-2.757.176.653.464 1.293.761 1.954.522 1.163 1.063 2.366 1.063 3.803 0 2.176-3.212 3.022-3.245 3.03l.245.97.243.97c.194-.048 4.757-1.232 4.757-4.97 0-1.119.577-1.615 1.13-1.833.278 1.211.956 2.114 1.57 2.933.697.93 1.3 1.733 1.3 2.9 0 1.803-2.949 3.456-4.202 4h-11.595c-1.254-.539-4.203-2.188-4.203-4zm1 8h2v2h-2zm-4 2h2v2h4v4.184c-1.161.414-2 1.514-2 2.816v9.184c-1.161.414-2 1.514-2 2.816v9h-2zm16 30v-10h8v10zm10-18h18v18h-18zm32 18h-4v-18h4z"/></g></g></svg>