<svg id="Layer_5" enable-background="new 0 0 64 64" height="512" viewBox="0 0 64 64" width="512" xmlns="http://www.w3.org/2000/svg"><g><g><g><path d="m46 42h12v12h-12z" fill="#d3a06c"/></g><g><path d="m26 42h12v12h-12z" fill="#d3a06c"/></g><g><path d="m6 42h12v12h-12z" fill="#d3a06c"/></g><g><path d="m50 42h4v4h-4z" fill="#b27946"/></g><g><path d="m30 42h4v4h-4z" fill="#b27946"/></g><g><path d="m10 42h4v4h-4z" fill="#b27946"/></g><g><path d="m58 54c2.21 0 4 1.79 4 4 0 1.1-.45 2.1-1.17 2.83-.73.72-1.73 1.17-2.83 1.17h-8c2.21 0 4-1.79 4-4s-1.79-4-4-4z" fill="#ccd1d9"/></g><g><path d="m50 54c-2.21 0-4 1.79-4 4s1.79 4 4 4h-12c2.21 0 4-1.79 4-4s-1.79-4-4-4h8z" fill="#ccd1d9"/></g><g><path d="m26 54h12c-2.21 0-4 1.79-4 4s1.79 4 4 4h-12c2.21 0 4-1.79 4-4s-1.79-4-4-4z" fill="#ccd1d9"/></g><g><path d="m18 54h8c-2.21 0-4 1.79-4 4s1.79 4 4 4h-12c2.21 0 4-1.79 4-4s-1.79-4-4-4z" fill="#ccd1d9"/></g><g><path d="m6 54h8c-2.21 0-4 1.79-4 4s1.79 4 4 4h-8c-2.21 0-4-1.79-4-4 0-1.1.45-2.1 1.17-2.83.73-.72 1.73-1.17 2.83-1.17z" fill="#ccd1d9"/></g><g><circle cx="50" cy="58" fill="#969faa" r="4"/></g><g><circle cx="38" cy="58" fill="#969faa" r="4"/></g><g><circle cx="26" cy="58" fill="#969faa" r="4"/></g><g><circle cx="14" cy="58" fill="#969faa" r="4"/></g><g><path d="m31 6v2h-4c-.63 0-1.22.3-1.6.8l-2.4 3.2h-6-1-3v-6c0-2.21 1.79-4 4-4h10c2.21 0 4 1.79 4 4z" fill="#ff826e"/></g><g><path d="m32 8c1.1 0 2 .9 2 2 0 .55-.22 1.05-.59 1.41-.36.37-.86.59-1.41.59h-4-1-4l2.4-3.2c.38-.5.97-.8 1.6-.8h4z" fill="#fc6e51"/></g><g><path d="m62 13.77c0 .15-.01.31-.03.46l-1.56 12.47c-.23 1.89-1.84 3.3-3.73 3.3h-4.68l-3.59 3.59c-.26.26-.62.41-1 .41-.78 0-1.41-.63-1.41-1.41v-2.59h-2.68c-1.89 0-3.5-1.41-3.73-3.3l-1.56-12.47c-.02-.15-.03-.31-.03-.46 0-2.08 1.69-3.77 3.77-3.77h16.46c1.04 0 1.98.42 2.67 1.1.68.69 1.1 1.63 1.1 2.67z" fill="#e6e9ed"/></g><g><path d="m47 18v8h-4v-4z" fill="#fcd770"/></g><g><path d="m51 21v5h-4v-8z" fill="#fcd770"/></g><g><path d="m55 17v9h-4v-5z" fill="#fcd770"/></g><g><path d="m58 14-1 5-2-2-2-2z" fill="#ffc729"/></g><g><path d="m32.07 26.93c1.81 1.81 2.93 4.31 2.93 7.07 0 1.1-.45 2.1-1.17 2.83-.73.72-1.73 1.17-2.83 1.17h-4-1v-4l1-.5v-5.5h-10v4l-5.07-5.07c1.81-1.81 4.31-2.93 7.07-2.93l.57-2.27c.44.18.93.27 1.43.27h2c.5 0 .99-.09 1.43-.27l.57 2.27c2.76 0 5.26 1.12 7.07 2.93z" fill="#b4dd7f"/></g><g><path d="m17 33.5v4.5h-4c-1.1 0-2.1-.45-2.83-1.17-.72-.73-1.17-1.73-1.17-2.83 0-2.76 1.12-5.26 2.93-7.07l5.07 5.07z" fill="#b4dd7f"/></g><g><path d="m27 28v5.5l-1 .5-.17-.34c-.51-1.02-1.55-1.66-2.68-1.66h-.15c-.83 0-1.58.34-2.12.88s-.88 1.29-.88 2.12c0 1.66 1.34 3 3 3h3 1v4h-1-8-1v-4-4.5-1.5-4z" fill="#e6e9ed"/></g><g><path d="m26 34v4h-3c-1.66 0-3-1.34-3-3 0-.83.34-1.58.88-2.12s1.29-.88 2.12-.88h.15c1.13 0 2.17.64 2.68 1.66z" fill="#f0d0b4"/></g><g><path d="m30.12 12.88c.54.54.88 1.29.88 2.12 0 1.66-1.34 3-3 3h-1v-6h1c.83 0 1.58.34 2.12.88z" fill="#f0d0b4"/></g><g><path d="m27 12v6c0 1.7-1.06 3.16-2.57 3.73-.44.18-.93.27-1.43.27h-2c-.5 0-.99-.09-1.43-.27-1.51-.57-2.57-2.03-2.57-3.73v-6h6z" fill="#f0d0b4"/></g><g><path d="m17 12v6h-1c-.83 0-1.58-.34-2.12-.88s-.88-1.29-.88-2.12c0-1.66 1.34-3 3-3z" fill="#f0d0b4"/></g></g><g><path d="m59 53.101v-12.101h-14v12h-6v-12h-11v-2h3c2.757 0 5-2.243 5-5 0-5.801-4.513-10.567-10.212-10.972l-.194-.775c1.164-.713 2.024-1.874 2.305-3.253h.101c2.206 0 4-1.794 4-4 0-.732-.212-1.409-.556-2h.556c1.654 0 3-1.346 3-3s-1.346-3-3-3v-1c0-2.757-2.243-5-5-5h-10c-2.757 0-5 2.243-5 5v7h.556c-.344.591-.556 1.268-.556 2 0 2.206 1.794 4 4 4h.101c.281 1.38 1.141 2.541 2.305 3.253l-.194.775c-2.366.168-4.521 1.096-6.241 2.529l-.265-.265c-.391-.391-1.023-.391-1.414 0s-.391 1.023 0 1.414l.265.265c-1.59 1.909-2.557 4.356-2.557 7.029 0 2.757 2.243 5 5 5h3v2h-11v12.101c-2.279.465-4 2.485-4 4.899 0 2.757 2.243 5 5 5h52c2.757 0 5-2.243 5-5 0-2.414-1.721-4.434-4-4.899zm-8-10.101h2v2h-2zm-4 0h2v4h6v-4h2v10h-10zm6 15c0 1.654-1.346 3-3 3s-3-1.346-3-3 1.346-3 3-3 3 1.346 3 3zm-42 0c0-1.654 1.346-3 3-3s3 1.346 3 3-1.346 3-3 3-3-1.346-3-3zm14-5h-6v-10h6zm-7.026 2h4.051c-.634.838-1.025 1.87-1.025 3s.391 2.162 1.026 3h-4.051c.634-.838 1.025-1.87 1.025-3s-.391-2.162-1.026-3zm5.026 3c0-1.654 1.346-3 3-3s3 1.346 3 3-1.346 3-3 3-3-1.346-3-3zm6.974-3h4.051c-.634.838-1.025 1.87-1.025 3s.391 2.162 1.026 3h-4.051c.634-.838 1.025-1.87 1.025-3s-.391-2.162-1.026-3zm5.026 3c0-1.654 1.346-3 3-3s3 1.346 3 3-1.346 3-3 3-3-1.346-3-3zm6.974-3h4.051c-.634.838-1.025 1.87-1.025 3s.391 2.162 1.026 3h-4.051c.634-.838 1.025-1.87 1.025-3s-.391-2.162-1.026-3zm-10.974-12h2v2h-2zm-2 0v4h6v-4h2v10h-10v-10h1zm1-28c0 1.103-.897 2-2 2v-4c1.103 0 2 .897 2 2zm2-6c.551 0 1 .448 1 1s-.449 1-1 1h-4-1-2l1.199-1.6c.189-.251.488-.4.801-.4zm-18-3c0-1.654 1.346-3 3-3h10c1.654 0 3 1.346 3 3v1h-3c-.938 0-1.835.448-2.4 1.2l-2.1 2.8h-5.5-1-2zm0 9c0-1.103.897-2 2-2v4c-1.103 0-2-.897-2-2zm4-2h8v5c0 1.654-1.346 3-3 3h-2c-1.654 0-3-1.346-3-3zm1 12h.781l.518-2.071c.231.033.461.071.701.071h2c.24 0 .47-.038.701-.071l.518 2.071h.781c4.962 0 9 4.037 9 9 0 1.654-1.346 3-3 3h-8c-1.103 0-2-.897-2-2s.897-2 2-2h.146c.762 0 1.448.424 1.789 1.105l.618 1.236 4.447-2.223 1.553.776.895-1.789-2.448-1.223-2 1v-4.882h-12v2.586l-2.611-2.611c1.54-1.233 3.489-1.975 5.611-1.975zm-6 12c-1.654 0-3-1.346-3-3 0-2.122.742-4.071 1.975-5.611l2.961 2.961-.936-.468-2.447 1.224.895 1.789 1.552-.777 2 1v2.882zm5-8h8v3.203c-.739-.758-1.755-1.203-2.854-1.203h-.146c-2.206 0-4 1.794-4 4s1.794 4 4 4h3v2h-1-6-1zm-7 14h2v2h-2zm-2 0v4h6v-4h1 1v10h-10v-10zm-6 15c0-1.654 1.346-3 3-3h4.026c-.635.838-1.026 1.87-1.026 3s.391 2.162 1.026 3h-4.026c-1.654 0-3-1.346-3-3zm55 3h-4.026c.635-.838 1.026-1.87 1.026-3s-.391-2.162-1.026-3h4.026c1.654 0 3 1.346 3 3s-1.346 3-3 3z"/><path d="m38.596 26.825c.297 2.38 2.33 4.175 4.729 4.175h1.675v1.586c0 1.331 1.083 2.414 2.414 2.414.635 0 1.257-.258 1.707-.707l3.293-3.293h4.262c2.398 0 4.432-1.795 4.729-4.175l1.559-12.467c.024-.196.036-.394.036-.592 0-2.628-2.138-4.766-4.766-4.766h-16.468c-2.628 0-4.766 2.138-4.766 4.766 0 .198.012.396.037.591zm3.17-15.825h16.469c1.524 0 2.765 1.24 2.765 2.766 0 .114-.007.229-.021.343l-1.559 12.468c-.172 1.381-1.352 2.423-2.744 2.423h-5.09l-3.878 3.878c-.241.242-.708.045-.708-.292v-3.586h-3.676c-1.392 0-2.572-1.042-2.744-2.423l-1.559-12.471c-.014-.112-.021-.226-.021-.34 0-1.526 1.241-2.766 2.766-2.766z"/><path d="m56 19.414 1.614 1.614 1.661-8.303-8.303 1.66 2.614 2.615-2.68 2.68-4-3-4.906 4.906v5.414h14zm.725-4.14-.339 1.697-1.357-1.357zm-8.725 4.726 2 1.5v3.5h-2zm-4 2.414 2-2v4.586h-2zm10 2.586h-2v-3.586l2-2z"/></g></g></svg>