<svg id="Layer_5" enable-background="new 0 0 64 64" height="512" viewBox="0 0 64 64" width="512" xmlns="http://www.w3.org/2000/svg"><g><g><g><path d="m45 15v8.46c0 2.27-.9 4.44-2.5 6.04-.67.67-1.43 1.21-2.26 1.62l-.24-.12h-5v-4c3.31 0 6-2.69 6-6v-8h-8.05c-.62 0-1.24-.15-1.8-.43l-2.3-1.14c-.56-.28-1.18-.43-1.8-.43-2.24 0-4.05 1.81-4.05 4.05v5.95c0 3.31 2.69 6 6 6v4h-5l-.24.12c-.83-.41-1.59-.95-2.26-1.62-.8-.8-1.42-1.74-1.85-2.77s-.65-2.13-.65-3.27v-8.46c0-7.18 5.82-13 13-13 3.59 0 6.84 1.46 9.19 3.81s3.81 5.6 3.81 9.19z" fill="#656d78"/></g><g><path d="m44 59.21v2.79h-11l9.31-9.31c1.09 1.97 1.69 4.2 1.69 6.52z" fill="#ccd1d9"/></g><g><path d="m21.69 52.69 9.31 9.31h-11v-2.79c0-2.32.59-4.55 1.68-6.52z" fill="#ccd1d9"/></g><g><path d="m42.31 52.69-9.31 9.31h-2l-9.31-9.31h-.01c.82-1.48 1.93-2.82 3.27-3.91 1.35 2.51 4 4.22 7.05 4.22s5.7-1.71 7.05-4.22c1.34 1.09 2.44 2.43 3.26 3.91z" fill="#ff826e"/></g><g><path d="m40 31 .24.12.78.39c.92.45 1.66 1.15 2.18 1.99.2.33.36.68.49 1.04.2.57.31 1.18.31 1.8 0 .44-.05.88-.16 1.3l-.82 3.27c-.01.02-.01.04-.02.06-.42 1.62-1.56 2.91-3.01 3.56-.68.3-1.43.47-2.2.47h-1.79-8-1.79c-.77 0-1.52-.17-2.2-.47-1.35-.61-2.42-1.76-2.91-3.21-.04-.13-.09-.27-.12-.41l-.82-3.27c-.11-.42-.16-.86-.16-1.3 0-.64.11-1.27.32-1.85.47-1.28 1.41-2.36 2.66-2.98l.78-.39.24-.12h5 6z" fill="#ff826e"/></g><g><path d="m59.79 41.38c.14.41.21.84.21 1.27v.35c0 1.1-.45 2.1-1.17 2.83-.73.72-1.73 1.17-2.83 1.17-1.37 0-2.58-.69-3.3-1.74-.44-.65-.7-1.42-.7-2.26v-.35c0-.43.07-.86.21-1.27l.58-1.76c.08-.25.14-.5.18-.76.02-.17.03-.34.03-.51v-11.35h6v11.35c0 .43.07.86.21 1.27z" fill="#ccd1d9"/></g><g><path d="m50.65 38 2.32.86c-.04.26-.1.51-.18.76l-.58 1.76c-.14.41-.21.84-.21 1.27v.35c0 .84.26 1.61.7 2.26-3.43-.94-6.7-2.38-9.69-4.29h-.01c.01-.02.01-.04.02-.06l.82-3.27c.11-.42.16-.86.16-1.3 0-.62-.11-1.23-.31-1.8l1.85 1.05c1.64.94 3.35 1.74 5.11 2.41z" fill="#ccd1d9"/></g><g><path d="m16.88 45.02c.08.31.12.64.12.98v.35c0 .43-.07.86-.21 1.27l-.58 1.76c-.14.41-.21.84-.21 1.27v11.35h-6v-11.35c0-.43-.07-.86-.21-1.27l-.58-1.76c-.14-.41-.21-.84-.21-1.27v-.35c0-1.1.45-2.1 1.17-2.83.52-.51 1.17-.88 1.9-1.06.3-.07.61-.11.93-.11 1.87 0 3.44 1.28 3.88 3.02z" fill="#ccd1d9"/></g><g><path d="m20.98 40.91c.03.14.08.28.12.41l-.05.01c-1.55 1.05-2.95 2.28-4.17 3.69-.44-1.74-2.01-3.02-3.88-3.02-.32 0-.63.04-.93.11 1.93-3.06 4.61-5.6 7.79-7.37l.46-.25c-.21.58-.32 1.21-.32 1.85 0 .44.05.88.16 1.3z" fill="#ccd1d9"/></g><g><path d="m29 27h6v4h-6z" fill="#f0d0b4"/></g><g><path d="m59 20v7h-6l-1.41-1.41c-.38-.38-.59-.89-.59-1.42v-1.17c0-.55.22-1.05.59-1.41.36-.37.86-.59 1.41-.59v-1c0-1.1.9-2 2-2h2c1.1 0 2 .9 2 2z" fill="#f0d0b4"/></g><g><path d="m39.99 44.53c.01.15.01.31.01.47 0 1.37-.35 2.66-.95 3.78-1.35 2.51-4 4.22-7.05 4.22s-5.7-1.71-7.05-4.22c-.6-1.12-.95-2.41-.95-3.78 0-.16 0-.32.01-.47.68.3 1.43.47 2.2.47h1.79c0 2.21 1.79 4 4 4s4-1.79 4-4h1.79c.77 0 1.52-.17 2.2-.47z" fill="#ffc729"/></g><g><path d="m28 45h8c0 2.21-1.79 4-4 4s-4-1.79-4-4z" fill="#fcd770"/></g><g><path d="m32.95 13h8.05v8c0 3.31-2.69 6-6 6h-6c-3.31 0-6-2.69-6-6v-5.95c0-2.24 1.81-4.05 4.05-4.05.62 0 1.24.15 1.8.43l2.3 1.14c.56.28 1.18.43 1.8.43z" fill="#f0d0b4"/></g><g><path d="m38 36v4c0 .55-.45 1-1 1h-10c-.55 0-1-.45-1-1v-4c0-.55.45-1 1-1h10c.55 0 1 .45 1 1z" fill="#69d6f4"/></g></g><g><path d="m34 22h-5v2h5c1.654 0 3-1.346 3-3h-2c0 .552-.448 1-1 1z"/><path d="m37 16c0 .552-.448 1-1 1s-1-.448-1-1h-2c0 1.654 1.346 3 3 3s3-1.346 3-3z"/><path d="m31 16h-2c0 .552-.448 1-1 1s-1-.448-1-1h-2c0 1.654 1.346 3 3 3s3-1.346 3-3z"/><path d="m27 42h10c1.103 0 2-.897 2-2v-4c0-1.103-.897-2-2-2h-10c-1.103 0-2 .897-2 2v4c0 1.103.897 2 2 2zm0-6h10l.002 4h-10.002z"/><path d="m45 61v-1.789c0-4.096-1.725-7.932-4.728-10.671.451-1.05.704-2.203.721-3.413 1.077-.626 1.954-1.561 2.517-2.704 2.706 1.599 5.592 2.85 8.619 3.702.917 1.134 2.302 1.875 3.871 1.875 2.757 0 5-2.243 5-5v-.351c0-.538-.086-1.07-.257-1.582l-.589-1.767c-.102-.307-.154-.626-.154-.949v-18.351c0-1.654-1.346-3-3-3h-2c-1.654 0-3 1.346-3 3v.171c-1.164.413-2 1.525-2 2.829v1.172c0 .801.313 1.555.879 2.121l1.121 1.121v10.018l-.995-.373c-1.708-.64-3.38-1.425-4.971-2.333l-1.541-.881c-.472-1.121-1.255-2.092-2.284-2.791.347-.263.688-.537.997-.846 1.802-1.802 2.794-4.196 2.794-6.743v-8.465c0-7.72-6.28-14-14-14s-14 6.28-14 14v8.465c0 2.547.992 4.941 2.793 6.742.31.31.65.584.997.847-1.011.688-1.788 1.636-2.262 2.732l-.149.083c-3.208 1.782-5.948 4.342-7.958 7.412-1.981.664-3.421 2.517-3.421 4.719v.351c0 .538.086 1.07.257 1.582l.589 1.767c.102.307.154.626.154.949v10.351h-8v2h62v-2zm-2-1.789v1.789h-7.586l6.605-6.605c.63 1.506.981 3.133.981 4.816zm-1.944-6.681-8.47 8.47h-1.172l-8.47-8.47c.509-.801 1.116-1.544 1.806-2.219 1.64 2.232 4.275 3.689 7.25 3.689 2.976 0 5.611-1.457 7.25-3.689.69.675 1.297 1.417 1.806 2.219zm-24.056-1.881c0-.323.052-.643.153-.949l.591-1.769c.17-.51.256-1.042.256-1.58v-.351c0-.223-.037-.437-.066-.652.846-.926 1.771-1.775 2.768-2.533.562.965 1.353 1.76 2.304 2.312.017 1.21.27 2.363.721 3.413-3.003 2.739-4.727 6.575-4.727 10.671v1.789h-2zm4 8.562c0-1.683.351-3.31.981-4.815l6.605 6.604h-7.586zm11-7.211c-3.557 0-6.497-2.67-6.937-6.109.375.068.759.109 1.151.109h.887c.465 2.279 2.484 4 4.899 4s4.434-1.721 4.899-4h.887c.392 0 .776-.041 1.151-.109-.44 3.439-3.38 6.109-6.937 6.109zm-2.816-6h5.631c-.414 1.161-1.514 2-2.816 2s-2.401-.839-2.815-2zm29.816-3c0 1.654-1.346 3-3 3s-3-1.346-3-3v-.351c0-.323.052-.643.153-.949l.591-1.769c.17-.51.256-1.042.256-1.58v-10.351h4v10.351c0 .538.086 1.07.257 1.582l.589 1.767c.102.307.154.626.154.949zm-7-20c0-.552.448-1 1-1h1v-2c0-.552.448-1 1-1h2c.552 0 1 .448 1 1v6h-4.586l-1.121-1.121c-.187-.187-.293-.444-.293-.707zm-1.697 15.932 1.481.556-.528 1.581c-.17.51-.256 1.042-.256 1.58v.351c0 .24.038.469.071.7-2.416-.809-4.73-1.886-6.912-3.213l.65-2.599c.119-.473.178-.962.185-1.453l.048.027c1.684.961 3.454 1.792 5.261 2.47zm-30.303-15.467v-8.465c0-6.617 5.383-12 12-12s12 5.383 12 12v8.465c0 2.013-.784 3.904-2.207 5.328-.481.481-1.034.872-1.624 1.207h-4.169v-2.08c3.386-.488 6-3.401 6-6.92v-9h-9.045c-.47 0-.941-.111-1.362-.321l-2.292-1.147c-.698-.348-1.479-.532-2.256-.532-2.782 0-5.045 2.263-5.045 5.045v5.955c0 3.519 2.614 6.432 6 6.92v2.08h-4.17c-.589-.334-1.142-.726-1.623-1.207-1.423-1.424-2.207-3.315-2.207-5.328zm15 2.535h-6c-2.757 0-5-2.243-5-5v-5.955c0-1.679 1.366-3.045 3.045-3.045.47 0 .941.111 1.362.321l2.292 1.147c.698.348 1.479.532 2.256.532h7.045v7c0 2.757-2.243 5-5 5zm-5 2h4v2h-4zm-6.569 4.402.805-.402h15.527l.806.402c1.499.75 2.431 2.258 2.431 3.934 0 .36-.044.719-.131 1.066l-.816 3.267c-.491 1.961-2.246 3.331-4.267 3.331h-11.572c-2.021 0-3.775-1.37-4.267-3.33l-.816-3.269c-.087-.346-.131-.705-.131-1.065 0-1.676.932-3.184 2.431-3.934zm-4.425 4.038c.008.489.067.977.185 1.447l.752 3.01c-.985.71-1.918 1.491-2.777 2.35-.719-1.084-1.847-1.875-3.164-2.145 1.399-1.818 3.091-3.398 5.004-4.662zm-8.263 12.627-.589-1.767c-.102-.307-.154-.626-.154-.949v-.351c0-1.654 1.346-3 3-3s3 1.346 3 3v.351c0 .323-.052.643-.153.949l-.591 1.769c-.17.51-.256 1.042-.256 1.58v10.351h-4v-10.351c0-.538-.086-1.07-.257-1.582z"/></g></g></svg>