<svg id="Layer_5" enable-background="new 0 0 64 64" height="512" viewBox="0 0 64 64" width="512" xmlns="http://www.w3.org/2000/svg"><g><g><g><path d="m8 2h54v14h-54z" fill="#d3a06c"/></g><g><path d="m12 24h50v14h-50z" fill="#d3a06c"/></g><g><path d="m16 36h36v14h-36z" fill="#d3a06c"/></g><g><path d="m50 2h6v4h-6z" fill="#b27946"/></g><g><path d="m32 2h6v4h-6z" fill="#b27946"/></g><g><path d="m14 2h6v4h-6z" fill="#b27946"/></g><g><path d="m12 24h8v4h-8z" fill="#b27946"/></g><g><path d="m32 24h6v4h-6z" fill="#b27946"/></g><g><path d="m50 24h6v4h-6z" fill="#b27946"/></g><g><path d="m46 36v4h-6v-4h4z" fill="#b27946"/></g><g><path d="m28 36v4h-6v-4h4z" fill="#b27946"/></g><g><path d="m12 38v4h-4v-10-10-1c0-.55.45-1 1-1h1 1c.55 0 1 .45 1 1v3 4z" fill="#ccd1d9"/></g><g><path d="m9 48c-1.08 0-2.09.24-3 .68v-.01-5.67c0-.55.45-1 1-1h1 4c1.46 0 2.83.39 4 1.07.61.35 1.17.78 1.66 1.27 1.44 1.45 2.34 3.45 2.34 5.66h14 18 1c.55 0 1 .45 1 1v2c0 .55-.45 1-1 1h-3.08-4.1-5.64-4.1-16.08-4.07-.01c-.48-3.4-3.39-6-6.92-6z" fill="#ccd1d9"/></g><g><path d="m49.92 54h-13.84c-.05.33-.08.66-.08 1 0 3.87 3.13 7 7 7s7-3.13 7-7c0-.34-.03-.67-.08-1z" fill="#969faa"/></g><g><path d="m15.92 54c.06.33.08.66.08 1 0 3.87-3.13 7-7 7s-7-3.13-7-7c0-2.8 1.63-5.2 4-6.32.91-.44 1.92-.68 3-.68 3.53 0 6.44 2.6 6.92 6z" fill="#969faa"/></g><g><path d="m45.82 54c.11.31.18.65.18 1 0 1.66-1.34 3-3 3s-3-1.34-3-3c0-.35.07-.69.18-1z" fill="#ccd1d9"/></g><g><circle cx="9" cy="55" fill="#ccd1d9" r="3"/></g></g><g><path d="m9 51c-2.206 0-4 1.794-4 4s1.794 4 4 4 4-1.794 4-4-1.794-4-4-4zm0 6c-1.103 0-2-.897-2-2s.897-2 2-2 2 .897 2 2-.897 2-2 2z"/><path d="m45 1h-2-16-2-18v16h18 2 16 2 18v-16zm-30 2h4v2h-4zm10 12h-16v-12h4v4h8v-4h4zm8-12h4v2h-4zm10 12h-16v-12h4v4h8v-4h4zm8-12h4v2h-4zm10 12h-16v-12h4v4h8v-4h4z"/><path d="m10 19h-1c-1.103 0-2 .897-2 2h-3c-1.654 0-3 1.346-3 3v4.559c0 1.293.824 2.437 2.051 2.846l3.949 1.315v8.28c-1.103 0-2 .897-2 2v5.082c-2.387 1.386-4 3.965-4 6.918 0 4.411 3.589 8 8 8s8-3.589 8-8h18c0 4.411 3.589 8 8 8s8-3.589 8-8h2c1.103 0 2-.897 2-2v-2c0-1.103-.897-2-2-2v-10h10v-16h-18-2-16-2-12v-2h50v-2h-52zm-6.316 10.508c-.41-.137-.684-.519-.684-.949v-4.559c0-.552.448-1 1-1h3v7.613zm5.316 31.492c-3.309 0-6-2.691-6-6s2.691-6 6-6 6 2.691 6 6-2.691 6-6 6zm34 0c-3.309 0-6-2.691-6-6h2c0 2.206 1.794 4 4 4s4-1.794 4-4h2c0 3.309-2.691 6-6 6zm2-6c0 1.103-.897 2-2 2s-2-.897-2-2zm8-2h-36.263c-.892-3.445-4.017-6-7.737-6-.692 0-1.359.097-2 .263v-4.263h5c3.859 0 7 3.141 7 7v1h34zm-40-28h6v2h-6zm14 12v2h-4v-2zm2 4v-4h4v12h-12.056c-.299-2.695-1.799-5.028-3.944-6.47v-5.53h4v4zm-14 .523c-.638-.226-1.306-.385-2-.462v-2.061h2zm20 7.477v-12h4v4h8v-4h4v12zm10-12v2h-4v-2zm6-12h4v2h-4zm-2 0v4h8v-4h4v12h-8v-2h-8v-10zm-16 0h4v2h-4zm-2 0v4h8v-4h4v10h-8-2-6v-10zm-6 10h-10v2h-2v-8h8v-4h4zm-14-11v5 12h-2v-20h1 1z"/></g></g></svg>